<?xml version="1.0" encoding="us-ascii" standalone="no"?><svg xmlns="http://www.w3.org/2000/svg" xmlns:xlink="http://www.w3.org/1999/xlink" contentStyleType="text/css" height="554px" preserveAspectRatio="none" style="width:1212px;height:554px;background:#FFFFFF;" version="1.1" viewBox="0 0 1212 554" width="1212px" zoomAndPan="magnify"><defs/><g><!--entity game--><g id="elem_game"><rect fill="#FFFFFF" height="62.5938" rx="2.5" ry="2.5" style="stroke:#808080;stroke-width:0.5;" width="323" x="7" y="130"/><rect fill="#FFFFFF" height="10" style="stroke:#808080;stroke-width:0.5;" width="15" x="310" y="135"/><rect fill="#FFFFFF" height="2" style="stroke:#808080;stroke-width:0.5;" width="4" x="308" y="137"/><rect fill="#FFFFFF" height="2" style="stroke:#808080;stroke-width:0.5;" width="4" x="308" y="141"/><text fill="#000000" font-family="sans-serif" font-size="14" lengthAdjust="spacing" textLength="279" x="22" y="162.9951">Component feature.first.sea.battle.game</text><text fill="#000000" font-family="sans-serif" font-size="14" lengthAdjust="spacing" textLength="102" x="22" y="179.292">DependsOn: 1</text></g><!--entity match--><g id="elem_match"><rect fill="#FFFFFF" height="62.5938" rx="2.5" ry="2.5" style="stroke:#808080;stroke-width:0.5;" width="327" x="471" y="7"/><rect fill="#FFFFFF" height="10" style="stroke:#808080;stroke-width:0.5;" width="15" x="778" y="12"/><rect fill="#FFFFFF" height="2" style="stroke:#808080;stroke-width:0.5;" width="4" x="776" y="14"/><rect fill="#FFFFFF" height="2" style="stroke:#808080;stroke-width:0.5;" width="4" x="776" y="18"/><text fill="#000000" font-family="sans-serif" font-size="14" lengthAdjust="spacing" textLength="283" x="486" y="39.9951">Component feature.first.sea.battle.match</text><text fill="#000000" font-family="sans-serif" font-size="14" lengthAdjust="spacing" textLength="102" x="486" y="56.292">DependsOn: 5</text></g><!--entity player--><g id="elem_player"><rect fill="#FFFFFF" height="62.5938" rx="2.5" ry="2.5" style="stroke:#808080;stroke-width:0.5;" width="325" x="365" y="130"/><rect fill="#FFFFFF" height="10" style="stroke:#808080;stroke-width:0.5;" width="15" x="670" y="135"/><rect fill="#FFFFFF" height="2" style="stroke:#808080;stroke-width:0.5;" width="4" x="668" y="137"/><rect fill="#FFFFFF" height="2" style="stroke:#808080;stroke-width:0.5;" width="4" x="668" y="141"/><text fill="#000000" font-family="sans-serif" font-size="14" lengthAdjust="spacing" textLength="281" x="380" y="162.9951">Component feature.first.sea.battle.player</text><text fill="#000000" font-family="sans-serif" font-size="14" lengthAdjust="spacing" textLength="102" x="380" y="179.292">DependsOn: 3</text></g><!--entity common--><g id="elem_common"><rect fill="#FFFFFF" height="62.5938" rx="2.5" ry="2.5" style="stroke:#808080;stroke-width:0.5;" width="345" x="489" y="376"/><rect fill="#FFFFFF" height="10" style="stroke:#808080;stroke-width:0.5;" width="15" x="814" y="381"/><rect fill="#FFFFFF" height="2" style="stroke:#808080;stroke-width:0.5;" width="4" x="812" y="383"/><rect fill="#FFFFFF" height="2" style="stroke:#808080;stroke-width:0.5;" width="4" x="812" y="387"/><text fill="#000000" font-family="sans-serif" font-size="14" lengthAdjust="spacing" textLength="301" x="504" y="408.9951">Component feature.first.sea.battle.common</text><text fill="#000000" font-family="sans-serif" font-size="14" lengthAdjust="spacing" textLength="102" x="504" y="425.292">DependsOn: 1</text></g><!--entity configuration--><g id="elem_configuration"><rect fill="#FFFFFF" height="62.5938" rx="2.5" ry="2.5" style="stroke:#808080;stroke-width:0.5;" width="374" x="832.5" y="7"/><rect fill="#FFFFFF" height="10" style="stroke:#808080;stroke-width:0.5;" width="15" x="1186.5" y="12"/><rect fill="#FFFFFF" height="2" style="stroke:#808080;stroke-width:0.5;" width="4" x="1184.5" y="14"/><rect fill="#FFFFFF" height="2" style="stroke:#808080;stroke-width:0.5;" width="4" x="1184.5" y="18"/><text fill="#000000" font-family="sans-serif" font-size="14" lengthAdjust="spacing" textLength="330" x="847.5" y="39.9951">Component feature.first.sea.battle.configuration</text><text fill="#000000" font-family="sans-serif" font-size="14" lengthAdjust="spacing" textLength="102" x="847.5" y="56.292">DependsOn: 1</text></g><!--entity notification--><g id="elem_notification"><rect fill="#FFFFFF" height="62.5938" rx="2.5" ry="2.5" style="stroke:#808080;stroke-width:0.5;" width="359" x="482" y="253"/><rect fill="#FFFFFF" height="10" style="stroke:#808080;stroke-width:0.5;" width="15" x="821" y="258"/><rect fill="#FFFFFF" height="2" style="stroke:#808080;stroke-width:0.5;" width="4" x="819" y="260"/><rect fill="#FFFFFF" height="2" style="stroke:#808080;stroke-width:0.5;" width="4" x="819" y="264"/><text fill="#000000" font-family="sans-serif" font-size="14" lengthAdjust="spacing" textLength="315" x="497" y="285.9951">Component feature.first.sea.battle.notification</text><text fill="#000000" font-family="sans-serif" font-size="14" lengthAdjust="spacing" textLength="102" x="497" y="302.292">DependsOn: 2</text></g><!--link notification to common--><g id="link_notification_common"><path d="M661.5,316.03 C661.5,334.38 661.5,351.64 661.5,369.98 " fill="none" id="notification-to-common" style="stroke:#181818;stroke-width:1.0;"/><polygon fill="#181818" points="661.5,375.98,665.5,366.98,661.5,370.98,657.5,366.98,661.5,375.98" style="stroke:#181818;stroke-width:1.0;"/></g><!--link match to common--><g id="link_match_common"><path d="M686.43,70.21 C741.33,106.08 824.58,171.1 858.5,253 C869.22,278.87 873.61,292.43 858.5,316 C840.98,343.33 818.3624,360.0376 788.8324,373.4576 " fill="none" id="match-to-common" style="stroke:#181818;stroke-width:1.0;"/><polygon fill="#181818" points="783.37,375.94,793.2185,375.858,787.922,373.8713,789.9087,368.5748,783.37,375.94" style="stroke:#181818;stroke-width:1.0;"/></g><!--link match to player--><g id="link_match_player"><path d="M607.5,70.03 C591.28,88.38 574.6849,107.1456 558.4649,125.4856 " fill="none" id="match-to-player" style="stroke:#181818;stroke-width:1.0;"/><polygon fill="#181818" points="554.49,129.98,563.4487,125.8883,557.8024,126.2346,557.4561,120.5884,554.49,129.98" style="stroke:#181818;stroke-width:1.0;"/></g><!--link match to game--><g id="link_match_game"><path d="M516.91,70.03 C446.27,88.38 362.4975,110.1322 291.8575,128.4722 " fill="none" id="match-to-game" style="stroke:#181818;stroke-width:1.0;"/><polygon fill="#181818" points="286.05,129.98,295.7664,131.59,290.8896,128.7235,293.756,123.8467,286.05,129.98" style="stroke:#181818;stroke-width:1.0;"/></g><!--link match to notification--><g id="link_match_notification"><path d="M667.97,70.05 C683.17,86.2 699.5,107.35 707.5,130 C722.36,172.1 703.5569,216.5812 685.1769,247.7612 " fill="none" id="match-to-notification" style="stroke:#181818;stroke-width:1.0;"/><polygon fill="#181818" points="682.13,252.93,690.1462,247.2081,684.6691,248.6227,683.2545,243.1455,682.13,252.93" style="stroke:#181818;stroke-width:1.0;"/></g><!--link player to common--><g id="link_player_common"><path d="M498.32,193.2 C471.43,225.36 439.24,276.59 464.5,316 C482.02,343.33 504.6376,360.0376 534.1676,373.4576 " fill="none" id="player-to-common" style="stroke:#181818;stroke-width:1.0;"/><polygon fill="#181818" points="539.63,375.94,533.0913,368.5748,535.078,373.8713,529.7815,375.858,539.63,375.94" style="stroke:#181818;stroke-width:1.0;"/></g><!--link player to notification--><g id="link_player_notification"><path d="M561.31,193.03 C581.63,211.38 602.9369,230.6188 623.2469,248.9588 " fill="none" id="player-to-notification" style="stroke:#181818;stroke-width:1.0;"/><polygon fill="#181818" points="627.7,252.98,623.7011,243.9795,623.9891,249.629,618.3396,249.917,627.7,252.98" style="stroke:#181818;stroke-width:1.0;"/></g><rect fill="#FFFFE0" height="79.1875" id="_legend" rx="7.5" ry="7.5" style="stroke:#000000;stroke-width:1.0;" width="114" x="542.25" y="455.5938"/><text fill="#000000" font-family="sans-serif" font-size="14" lengthAdjust="spacing" textLength="4" x="547.25" y="475.5889">&#160;</text><text fill="#000000" font-family="sans-serif" font-size="14" font-weight="bold" lengthAdjust="spacing" textLength="33" x="551.25" y="475.5889">CCD</text><text fill="#000000" font-family="sans-serif" font-size="14" lengthAdjust="spacing" textLength="8" x="584.25" y="475.5889">&#160;&#160;</text><text fill="#000000" font-family="sans-serif" font-size="14" lengthAdjust="spacing" textLength="18" x="603.25" y="475.5889">13</text><text fill="#000000" font-family="sans-serif" font-size="14" lengthAdjust="spacing" textLength="4" x="547.25" y="491.8857">&#160;</text><text fill="#000000" font-family="sans-serif" font-size="14" font-weight="bold" lengthAdjust="spacing" textLength="33" x="551.25" y="491.8857">ACD</text><text fill="#000000" font-family="sans-serif" font-size="14" lengthAdjust="spacing" textLength="8" x="584.25" y="491.8857">&#160;&#160;</text><text fill="#000000" font-family="sans-serif" font-size="14" lengthAdjust="spacing" textLength="40" x="603.25" y="491.8857">2.166</text><text fill="#000000" font-family="sans-serif" font-size="14" lengthAdjust="spacing" textLength="4" x="547.25" y="508.1826">&#160;</text><text fill="#000000" font-family="sans-serif" font-size="14" font-weight="bold" lengthAdjust="spacing" textLength="43" x="551.25" y="508.1826">RACD</text><text fill="#000000" font-family="sans-serif" font-size="14" lengthAdjust="spacing" textLength="4" x="594.25" y="508.1826">&#160;</text><text fill="#000000" font-family="sans-serif" font-size="14" lengthAdjust="spacing" textLength="31" x="603.25" y="508.1826">0.37</text><text fill="#000000" font-family="sans-serif" font-size="14" lengthAdjust="spacing" textLength="4" x="547.25" y="524.4795">&#160;</text><text fill="#000000" font-family="sans-serif" font-size="14" font-weight="bold" lengthAdjust="spacing" textLength="44" x="551.25" y="524.4795">NCCD</text><text fill="#000000" font-family="sans-serif" font-size="14" lengthAdjust="spacing" textLength="4" x="595.25" y="524.4795">&#160;</text><text fill="#000000" font-family="sans-serif" font-size="14" lengthAdjust="spacing" textLength="31" x="603.25" y="524.4795">0.93</text><line style="stroke:#000000;stroke-width:1.0;" x1="547.25" x2="651.25" y1="462.5938" y2="462.5938"/><line style="stroke:#000000;stroke-width:1.0;" x1="547.25" x2="651.25" y1="478.8906" y2="478.8906"/><line style="stroke:#000000;stroke-width:1.0;" x1="547.25" x2="651.25" y1="495.1875" y2="495.1875"/><line style="stroke:#000000;stroke-width:1.0;" x1="547.25" x2="651.25" y1="511.4844" y2="511.4844"/><line style="stroke:#000000;stroke-width:1.0;" x1="547.25" x2="651.25" y1="527.7813" y2="527.7813"/><line style="stroke:#000000;stroke-width:1.0;" x1="547.25" x2="547.25" y1="462.5938" y2="527.7813"/><line style="stroke:#000000;stroke-width:1.0;" x1="599.25" x2="599.25" y1="462.5938" y2="527.7813"/><line style="stroke:#000000;stroke-width:1.0;" x1="651.25" x2="651.25" y1="462.5938" y2="527.7813"/><!--SRC=[ZP9DJuD048Rl-oicyLmKY3MQXaJfMHCzgeSj3B3fVf3T9GqH_xiKA2njJJXjUDxPPuO1isUof9eAI9GebKHfFspD4Ih10s8kK_WX02zAfwXZnPM6crnZVMGqsUTQLJ8T-A5W5icl8-6OeqnxmtarPtbXQ-HS7Texv3CU6sP8RQNHovWsrZD8lHsrbgENKu7m9RTOjbRp9f_0_mPguCWN2GIrIJ4tt7U6BbYaA3cjKSyTOUVeaqMIThb2oMklqYSB9J9ZUQMfPV-vd895IgaiorXonHXqHZSdXCpALwleD3tfz-oG2GnRca3tyQR7UOjXsux98MVJz3yRQM2pY-9ukxdTHG0D-26qHu-V9nnu_dez1k-df84xBtmO-MliyCUmnMsBeT4V]--></g></svg>