<?xml version="1.0" encoding="us-ascii" standalone="no"?><svg xmlns="http://www.w3.org/2000/svg" xmlns:xlink="http://www.w3.org/1999/xlink" contentStyleType="text/css" height="742.6667px" preserveAspectRatio="none" style="width:939px;height:742px;background:#FFFFFF;" version="1.1" viewBox="0 0 939 742" width="939.3333px" zoomAndPan="magnify"><defs/><g><!--cluster ru--><g id="cluster_ru"><path d="M2.8333,2 L8.8333,2 A1.25,1.25 0 0 1 9.6667,2.8333 L12,9.4323 L936.1667,9.4323 A0.8333,0.8333 0 0 1 937,10.2656 L937,739.5 A0.8333,0.8333 0 0 1 936.1667,740.3333 L2.8333,740.3333 A0.8333,0.8333 0 0 1 2,739.5 L2,2.8333 A0.8333,0.8333 0 0 1 2.8333,2 " fill="none" style="stroke:#000000;stroke-width:0.5;"/><line style="stroke:#000000;stroke-width:0.5;" x1="2" x2="12" y1="9.4323" y2="9.4323"/><text fill="#000000" font-family="sans-serif" font-size="4.6667" font-weight="bold" lengthAdjust="spacing" textLength="5.6667" x="3.3333" y="6.9984">ru</text></g><!--cluster cbr--><g id="cluster_cbr"><path d="M10.8333,16.3333 L19.8333,16.3333 A1.25,1.25 0 0 1 20.6667,17.1667 L23,23.7656 L928.1667,23.7656 A0.8333,0.8333 0 0 1 929,24.599 L929,731.5 A0.8333,0.8333 0 0 1 928.1667,732.3333 L10.8333,732.3333 A0.8333,0.8333 0 0 1 10,731.5 L10,17.1667 A0.8333,0.8333 0 0 1 10.8333,16.3333 " fill="none" style="stroke:#000000;stroke-width:0.5;"/><line style="stroke:#000000;stroke-width:0.5;" x1="10" x2="23" y1="23.7656" y2="23.7656"/><text fill="#000000" font-family="sans-serif" font-size="4.6667" font-weight="bold" lengthAdjust="spacing" textLength="8.6667" x="11.3333" y="21.3317">cbr</text></g><!--cluster siberian--><g id="cluster_siberian"><path d="M18.8333,30.6667 L40.1667,30.6667 A1.25,1.25 0 0 1 41,31.5 L43.3333,38.099 L920.1667,38.099 A0.8333,0.8333 0 0 1 921,38.9323 L921,723.5 A0.8333,0.8333 0 0 1 920.1667,724.3333 L18.8333,724.3333 A0.8333,0.8333 0 0 1 18,723.5 L18,31.5 A0.8333,0.8333 0 0 1 18.8333,30.6667 " fill="none" style="stroke:#000000;stroke-width:0.5;"/><line style="stroke:#000000;stroke-width:0.5;" x1="18" x2="43.3333" y1="38.099" y2="38.099"/><text fill="#000000" font-family="sans-serif" font-size="4.6667" font-weight="bold" lengthAdjust="spacing" textLength="21" x="19.3333" y="35.665">siberian</text></g><!--cluster feature--><g id="cluster_feature"><path d="M26.8333,45 L46.5,45 A1.25,1.25 0 0 1 47.3333,45.8333 L49.6667,52.4323 L912.1667,52.4323 A0.8333,0.8333 0 0 1 913,53.2656 L913,715.5 A0.8333,0.8333 0 0 1 912.1667,716.3333 L26.8333,716.3333 A0.8333,0.8333 0 0 1 26,715.5 L26,45.8333 A0.8333,0.8333 0 0 1 26.8333,45 " fill="none" style="stroke:#000000;stroke-width:0.5;"/><line style="stroke:#000000;stroke-width:0.5;" x1="26" x2="49.6667" y1="52.4323" y2="52.4323"/><text fill="#000000" font-family="sans-serif" font-size="4.6667" font-weight="bold" lengthAdjust="spacing" textLength="19.3333" x="27.3333" y="49.9984">feature</text></g><!--cluster first--><g id="cluster_first"><path d="M34.8333,59.3333 L45.8333,59.3333 A1.25,1.25 0 0 1 46.6667,60.1667 L49,66.7656 L904.1667,66.7656 A0.8333,0.8333 0 0 1 905,67.599 L905,707.5 A0.8333,0.8333 0 0 1 904.1667,708.3333 L34.8333,708.3333 A0.8333,0.8333 0 0 1 34,707.5 L34,60.1667 A0.8333,0.8333 0 0 1 34.8333,59.3333 " fill="none" style="stroke:#000000;stroke-width:0.5;"/><line style="stroke:#000000;stroke-width:0.5;" x1="34" x2="49" y1="66.7656" y2="66.7656"/><text fill="#000000" font-family="sans-serif" font-size="4.6667" font-weight="bold" lengthAdjust="spacing" textLength="10.6667" x="35.3333" y="64.3317">first</text></g><!--cluster sea--><g id="cluster_sea"><path d="M42.8333,73.6667 L52.5,73.6667 A1.25,1.25 0 0 1 53.3333,74.5 L55.6667,81.099 L896.1667,81.099 A0.8333,0.8333 0 0 1 897,81.9323 L897,699.5 A0.8333,0.8333 0 0 1 896.1667,700.3333 L42.8333,700.3333 A0.8333,0.8333 0 0 1 42,699.5 L42,74.5 A0.8333,0.8333 0 0 1 42.8333,73.6667 " fill="none" style="stroke:#000000;stroke-width:0.5;"/><line style="stroke:#000000;stroke-width:0.5;" x1="42" x2="55.6667" y1="81.099" y2="81.099"/><text fill="#000000" font-family="sans-serif" font-size="4.6667" font-weight="bold" lengthAdjust="spacing" textLength="9.3333" x="43.3333" y="78.665">sea</text></g><!--cluster battle--><g id="cluster_battle"><path d="M50.8333,88 L66.1667,88 A1.25,1.25 0 0 1 67,88.8333 L69.3333,95.4323 L888.1667,95.4323 A0.8333,0.8333 0 0 1 889,96.2656 L889,691.5 A0.8333,0.8333 0 0 1 888.1667,692.3333 L50.8333,692.3333 A0.8333,0.8333 0 0 1 50,691.5 L50,88.8333 A0.8333,0.8333 0 0 1 50.8333,88 " fill="none" style="stroke:#000000;stroke-width:0.5;"/><line style="stroke:#000000;stroke-width:0.5;" x1="50" x2="69.3333" y1="95.4323" y2="95.4323"/><text fill="#000000" font-family="sans-serif" font-size="4.6667" font-weight="bold" lengthAdjust="spacing" textLength="15" x="51.3333" y="92.9984">battle</text></g><!--cluster common--><g id="cluster_common"><path d="M744.8333,531.6667 L767.5,531.6667 A1.25,1.25 0 0 1 768.3333,532.5 L770.6667,539.099 L880.1667,539.099 A0.8333,0.8333 0 0 1 881,539.9323 L881,625.5 A0.8333,0.8333 0 0 1 880.1667,626.3333 L744.8333,626.3333 A0.8333,0.8333 0 0 1 744,625.5 L744,532.5 A0.8333,0.8333 0 0 1 744.8333,531.6667 " fill="none" style="stroke:#000000;stroke-width:0.5;"/><line style="stroke:#000000;stroke-width:0.5;" x1="744" x2="770.6667" y1="539.099" y2="539.099"/><text fill="#000000" font-family="sans-serif" font-size="4.6667" font-weight="bold" lengthAdjust="spacing" textLength="22.3333" x="745.3333" y="536.665">common</text></g><!--cluster configuration--><g id="cluster_configuration"><path d="M69,154.6667 L104.3333,154.6667 A1.25,1.25 0 0 1 105.1667,155.5 L107.5,162.099 L280.1667,162.099 A0.8333,0.8333 0 0 1 281,162.9323 L281,203.8333 A0.8333,0.8333 0 0 1 280.1667,204.6667 L69,204.6667 A0.8333,0.8333 0 0 1 68.1667,203.8333 L68.1667,155.5 A0.8333,0.8333 0 0 1 69,154.6667 " fill="none" style="stroke:#000000;stroke-width:0.5;"/><line style="stroke:#000000;stroke-width:0.5;" x1="68.1667" x2="107.5" y1="162.099" y2="162.099"/><text fill="#000000" font-family="sans-serif" font-size="4.6667" font-weight="bold" lengthAdjust="spacing" textLength="35" x="69.5" y="159.665">configuration</text></g><!--cluster game--><g id="cluster_game"><path d="M346.3333,102.3333 L361,102.3333 A1.25,1.25 0 0 1 361.8333,103.1667 L364.1667,109.7656 L798.5,109.7656 A0.8333,0.8333 0 0 1 799.3333,110.599 L799.3333,211.8333 A0.8333,0.8333 0 0 1 798.5,212.6667 L346.3333,212.6667 A0.8333,0.8333 0 0 1 345.5,211.8333 L345.5,103.1667 A0.8333,0.8333 0 0 1 346.3333,102.3333 " fill="none" style="stroke:#000000;stroke-width:0.5;"/><line style="stroke:#000000;stroke-width:0.5;" x1="345.5" x2="364.1667" y1="109.7656" y2="109.7656"/><text fill="#000000" font-family="sans-serif" font-size="4.6667" font-weight="bold" lengthAdjust="spacing" textLength="14.3333" x="346.8333" y="107.3317">game</text></g><!--cluster match--><g id="cluster_match"><path d="M58.8333,265 L75.1667,265 A1.25,1.25 0 0 1 76,265.8333 L78.3333,272.4323 L677.8333,272.4323 A0.8333,0.8333 0 0 1 678.6667,273.2656 L678.6667,442.5 A0.8333,0.8333 0 0 1 677.8333,443.3333 L58.8333,443.3333 A0.8333,0.8333 0 0 1 58,442.5 L58,265.8333 A0.8333,0.8333 0 0 1 58.8333,265 " fill="none" style="stroke:#000000;stroke-width:0.5;"/><line style="stroke:#000000;stroke-width:0.5;" x1="58" x2="78.3333" y1="272.4323" y2="272.4323"/><text fill="#000000" font-family="sans-serif" font-size="4.6667" font-weight="bold" lengthAdjust="spacing" textLength="16" x="59.3333" y="269.9984">match</text></g><!--cluster action_history--><g id="cluster_action_history"><path d="M205.8333,305 L242.8333,305 A1.25,1.25 0 0 1 243.6667,305.8333 L246,312.4323 L555.5,312.4323 A0.8333,0.8333 0 0 1 556.3333,313.2656 L556.3333,376.5 A0.8333,0.8333 0 0 1 555.5,377.3333 L205.8333,377.3333 A0.8333,0.8333 0 0 1 205,376.5 L205,305.8333 A0.8333,0.8333 0 0 1 205.8333,305 " fill="none" style="stroke:#000000;stroke-width:0.5;"/><line style="stroke:#000000;stroke-width:0.5;" x1="205" x2="246" y1="312.4323" y2="312.4323"/><text fill="#000000" font-family="sans-serif" font-size="4.6667" font-weight="bold" lengthAdjust="spacing" textLength="36.6667" x="206.3333" y="309.9984">action_history</text></g><!--cluster notification--><g id="cluster_notification"><path d="M607.5,634.3333 L637.1667,634.3333 A1.25,1.25 0 0 1 638,635.1667 L640.3333,641.7656 L811,641.7656 A0.8333,0.8333 0 0 1 811.8333,642.599 L811.8333,683.5 A0.8333,0.8333 0 0 1 811,684.3333 L607.5,684.3333 A0.8333,0.8333 0 0 1 606.6667,683.5 L606.6667,635.1667 A0.8333,0.8333 0 0 1 607.5,634.3333 " fill="none" style="stroke:#000000;stroke-width:0.5;"/><line style="stroke:#000000;stroke-width:0.5;" x1="606.6667" x2="640.3333" y1="641.7656" y2="641.7656"/><text fill="#000000" font-family="sans-serif" font-size="4.6667" font-weight="bold" lengthAdjust="spacing" textLength="29.3333" x="608" y="639.3317">notification</text></g><!--cluster player--><g id="cluster_player"><path d="M490.5,451.3333 L507.1667,451.3333 A1.25,1.25 0 0 1 508,452.1667 L510.3333,458.7656 L811.8333,458.7656 A0.8333,0.8333 0 0 1 812.6667,459.599 L812.6667,522.8333 A0.8333,0.8333 0 0 1 811.8333,523.6667 L490.5,523.6667 A0.8333,0.8333 0 0 1 489.6667,522.8333 L489.6667,452.1667 A0.8333,0.8333 0 0 1 490.5,451.3333 " fill="none" style="stroke:#000000;stroke-width:0.5;"/><line style="stroke:#000000;stroke-width:0.5;" x1="489.6667" x2="510.3333" y1="458.7656" y2="458.7656"/><text fill="#000000" font-family="sans-serif" font-size="4.6667" font-weight="bold" lengthAdjust="spacing" textLength="16.3333" x="491" y="456.3317">player</text></g><!--class AbstractDao--><g id="elem_AbstractDao"><rect codeLine="6" fill="#F1F1F1" height="10.6667" id="AbstractDao" rx="0.8333" ry="0.8333" style="stroke:#181818;stroke-width:0.16666666666666666;" width="39" x="763.3333" y="565.6667"/><ellipse cx="768.3333" cy="571" fill="#A9DCDF" rx="3.6667" ry="3.6667" style="stroke:#181818;stroke-width:0.3333333333333333;"/><path d="M768.3698,569.4479 L767.9844,571.1406 L768.7604,571.1406 L768.3698,569.4479 Z M767.875,568.7031 L768.8698,568.7031 L769.9896,572.8333 L769.1719,572.8333 L768.9167,571.8125 L767.8229,571.8125 L767.5729,572.8333 L766.7604,572.8333 L767.875,568.7031 Z " fill="#000000"/><text fill="#000000" font-family="sans-serif" font-size="4.6667" font-style="italic" lengthAdjust="spacing" textLength="28.3333" x="773" y="572.6156">AbstractDao</text></g><!--class BaseRequestMessage--><g id="elem_BaseRequestMessage"><rect codeLine="11" fill="#F1F1F1" height="10.6667" id="BaseRequestMessage" rx="0.8333" ry="0.8333" style="stroke:#181818;stroke-width:0.16666666666666666;" width="63" x="751.3333" y="588"/><ellipse cx="756.3333" cy="593.3333" fill="#B4A7E5" rx="3.6667" ry="3.6667" style="stroke:#181818;stroke-width:0.3333333333333333;"/><path d="M754.974,591.9219 L754.974,591.2031 L757.4375,591.2031 L757.4375,591.9219 L756.6146,591.9219 L756.6146,594.6146 L757.4375,594.6146 L757.4375,595.3333 L754.974,595.3333 L754.974,594.6146 L755.7969,594.6146 L755.7969,591.9219 L754.974,591.9219 Z " fill="#000000"/><text fill="#000000" font-family="sans-serif" font-size="4.6667" font-style="italic" lengthAdjust="spacing" textLength="52.3333" x="761" y="594.9489">BaseRequestMessage</text></g><!--class BaseResponseMessage--><g id="elem_BaseResponseMessage"><rect codeLine="15" fill="#F1F1F1" height="10.6667" id="BaseResponseMessage" rx="0.8333" ry="0.8333" style="stroke:#181818;stroke-width:0.16666666666666666;" width="67" x="749.3333" y="610.3333"/><ellipse cx="754.3333" cy="615.6667" fill="#A9DCDF" rx="3.6667" ry="3.6667" style="stroke:#181818;stroke-width:0.3333333333333333;"/><path d="M754.3698,614.1146 L753.9844,615.8073 L754.7604,615.8073 L754.3698,614.1146 Z M753.875,613.3698 L754.8698,613.3698 L755.9896,617.5 L755.1719,617.5 L754.9167,616.4792 L753.8229,616.4792 L753.5729,617.5 L752.7604,617.5 L753.875,613.3698 Z " fill="#000000"/><text fill="#000000" font-family="sans-serif" font-size="4.6667" font-style="italic" lengthAdjust="spacing" textLength="56.3333" x="759" y="617.2822">BaseResponseMessage</text></g><!--class Status--><g id="elem_Status"><rect codeLine="24" fill="#F1F1F1" height="10.6667" id="Status" rx="0.8333" ry="0.8333" style="stroke:#181818;stroke-width:0.16666666666666666;" width="25.3333" x="850.3333" y="604"/><ellipse cx="855.3333" cy="609.3333" fill="#EB937F" rx="3.6667" ry="3.6667" style="stroke:#181818;stroke-width:0.3333333333333333;"/><path d="M856.7031,611.3333 L854.1302,611.3333 L854.1302,607.2031 L856.7031,607.2031 L856.7031,607.9219 L854.9479,607.9219 L854.9479,608.8125 L856.5365,608.8125 L856.5365,609.5313 L854.9479,609.5313 L854.9479,610.6146 L856.7031,610.6146 L856.7031,611.3333 Z " fill="#000000"/><text fill="#000000" font-family="sans-serif" font-size="4.6667" lengthAdjust="spacing" textLength="14.6667" x="860" y="610.9489">Status</text></g><!--class ValidatorService--><g id="elem_ValidatorService"><rect codeLine="30" fill="#F1F1F1" height="10.6667" id="ValidatorService" rx="0.8333" ry="0.8333" style="stroke:#181818;stroke-width:0.16666666666666666;" width="47" x="759.3333" y="543.3333"/><ellipse cx="764.3333" cy="548.6667" fill="#ADD1B2" rx="3.6667" ry="3.6667" style="stroke:#181818;stroke-width:0.3333333333333333;"/><path d="M765.3229,550.5469 Q765.1302,550.6458 764.9167,550.6927 Q764.7031,550.7448 764.4688,550.7448 Q763.6354,550.7448 763.1927,550.1979 Q762.7552,549.6458 762.7552,548.6042 Q762.7552,547.5625 763.1927,547.0104 Q763.6354,546.4583 764.4688,546.4583 Q764.7031,546.4583 764.9167,546.5104 Q765.1354,546.5625 765.3229,546.6615 L765.3229,547.5677 Q765.1146,547.375 764.9167,547.2865 Q764.7188,547.1927 764.5104,547.1927 Q764.0625,547.1927 763.8333,547.5521 Q763.6042,547.9063 763.6042,548.6042 Q763.6042,549.3021 763.8333,549.6615 Q764.0625,550.0156 764.5104,550.0156 Q764.7188,550.0156 764.9167,549.9271 Q765.1146,549.8333 765.3229,549.6406 L765.3229,550.5469 Z " fill="#000000"/><text fill="#000000" font-family="sans-serif" font-size="4.6667" lengthAdjust="spacing" textLength="36.3333" x="769" y="550.2822">ValidatorService</text></g><!--class ModelMapperConfiguration--><g id="elem_ModelMapperConfiguration"><rect codeLine="37" fill="#F1F1F1" height="10.6667" id="ModelMapperConfiguration" rx="0.8333" ry="0.8333" style="stroke:#181818;stroke-width:0.16666666666666666;" width="72.6667" x="74.3333" y="188.6667"/><ellipse cx="79.3333" cy="194" fill="#ADD1B2" rx="3.6667" ry="3.6667" style="stroke:#181818;stroke-width:0.3333333333333333;"/><path d="M80.3229,195.8802 Q80.1302,195.9792 79.9167,196.026 Q79.7031,196.0781 79.4688,196.0781 Q78.6354,196.0781 78.1927,195.5313 Q77.7552,194.9792 77.7552,193.9375 Q77.7552,192.8958 78.1927,192.3438 Q78.6354,191.7917 79.4688,191.7917 Q79.7031,191.7917 79.9167,191.8438 Q80.1354,191.8958 80.3229,191.9948 L80.3229,192.901 Q80.1146,192.7083 79.9167,192.6198 Q79.7188,192.526 79.5104,192.526 Q79.0625,192.526 78.8333,192.8854 Q78.6042,193.2396 78.6042,193.9375 Q78.6042,194.6354 78.8333,194.9948 Q79.0625,195.349 79.5104,195.349 Q79.7188,195.349 79.9167,195.2604 Q80.1146,195.1667 80.3229,194.974 L80.3229,195.8802 Z " fill="#000000"/><text fill="#000000" font-family="sans-serif" font-size="4.6667" lengthAdjust="spacing" textLength="62" x="84" y="195.6156">ModelMapperConfiguration</text></g><!--class SpringSecurityConfiguration--><g id="elem_SpringSecurityConfiguration"><rect codeLine="42" fill="#F1F1F1" height="10.6667" id="SpringSecurityConfiguration" rx="0.8333" ry="0.8333" style="stroke:#181818;stroke-width:0.16666666666666666;" width="74.3333" x="73.5" y="166.3333"/><ellipse cx="78.5" cy="171.6667" fill="#ADD1B2" rx="3.6667" ry="3.6667" style="stroke:#181818;stroke-width:0.3333333333333333;"/><path d="M79.4896,173.5469 Q79.2969,173.6458 79.0833,173.6927 Q78.8698,173.7448 78.6354,173.7448 Q77.8021,173.7448 77.3594,173.1979 Q76.9219,172.6458 76.9219,171.6042 Q76.9219,170.5625 77.3594,170.0104 Q77.8021,169.4583 78.6354,169.4583 Q78.8698,169.4583 79.0833,169.5104 Q79.3021,169.5625 79.4896,169.6615 L79.4896,170.5677 Q79.2813,170.375 79.0833,170.2865 Q78.8854,170.1927 78.6771,170.1927 Q78.2292,170.1927 78,170.5521 Q77.7708,170.9063 77.7708,171.6042 Q77.7708,172.3021 78,172.6615 Q78.2292,173.0156 78.6771,173.0156 Q78.8854,173.0156 79.0833,172.9271 Q79.2813,172.8333 79.4896,172.6406 L79.4896,173.5469 Z " fill="#000000"/><text fill="#000000" font-family="sans-serif" font-size="4.6667" lengthAdjust="spacing" textLength="63.6667" x="83.1667" y="173.2822">SpringSecurityConfiguration</text></g><!--class WebSocketConfiguration--><g id="elem_WebSocketConfiguration"><rect codeLine="49" fill="#F1F1F1" height="10.6667" id="WebSocketConfiguration" rx="0.8333" ry="0.8333" style="stroke:#181818;stroke-width:0.16666666666666666;" width="67.6667" x="208" y="188.6667"/><ellipse cx="213" cy="194" fill="#ADD1B2" rx="3.6667" ry="3.6667" style="stroke:#181818;stroke-width:0.3333333333333333;"/><path d="M213.9896,195.8802 Q213.7969,195.9792 213.5833,196.026 Q213.3698,196.0781 213.1354,196.0781 Q212.3021,196.0781 211.8594,195.5313 Q211.4219,194.9792 211.4219,193.9375 Q211.4219,192.8958 211.8594,192.3438 Q212.3021,191.7917 213.1354,191.7917 Q213.3698,191.7917 213.5833,191.8438 Q213.8021,191.8958 213.9896,191.9948 L213.9896,192.901 Q213.7813,192.7083 213.5833,192.6198 Q213.3854,192.526 213.1771,192.526 Q212.7292,192.526 212.5,192.8854 Q212.2708,193.2396 212.2708,193.9375 Q212.2708,194.6354 212.5,194.9948 Q212.7292,195.349 213.1771,195.349 Q213.3854,195.349 213.5833,195.2604 Q213.7813,195.1667 213.9896,194.974 L213.9896,195.8802 Z " fill="#000000"/><text fill="#000000" font-family="sans-serif" font-size="4.6667" lengthAdjust="spacing" textLength="57" x="217.6667" y="195.6156">WebSocketConfiguration</text></g><!--class CustomFleet--><g id="elem_CustomFleet"><rect codeLine="55" fill="#F1F1F1" height="10.6667" id="CustomFleet" rx="0.8333" ry="0.8333" style="stroke:#181818;stroke-width:0.16666666666666666;" width="40" x="351.3333" y="114.3333"/><ellipse cx="356.3333" cy="119.6667" fill="#ADD1B2" rx="3.6667" ry="3.6667" style="stroke:#181818;stroke-width:0.3333333333333333;"/><path d="M357.3229,121.5469 Q357.1302,121.6458 356.9167,121.6927 Q356.7031,121.7448 356.4688,121.7448 Q355.6354,121.7448 355.1927,121.1979 Q354.7552,120.6458 354.7552,119.6042 Q354.7552,118.5625 355.1927,118.0104 Q355.6354,117.4583 356.4688,117.4583 Q356.7031,117.4583 356.9167,117.5104 Q357.1354,117.5625 357.3229,117.6615 L357.3229,118.5677 Q357.1146,118.375 356.9167,118.2865 Q356.7188,118.1927 356.5104,118.1927 Q356.0625,118.1927 355.8333,118.5521 Q355.6042,118.9063 355.6042,119.6042 Q355.6042,120.3021 355.8333,120.6615 Q356.0625,121.0156 356.5104,121.0156 Q356.7188,121.0156 356.9167,120.9271 Q357.1146,120.8333 357.3229,120.6406 L357.3229,121.5469 Z " fill="#000000"/><text fill="#000000" font-family="sans-serif" font-size="4.6667" lengthAdjust="spacing" textLength="29.3333" x="361" y="121.2822">CustomFleet</text></g><!--class Fleet--><g id="elem_Fleet"><rect codeLine="66" fill="#F1F1F1" height="10.6667" id="Fleet" rx="0.8333" ry="0.8333" style="stroke:#181818;stroke-width:0.16666666666666666;" width="22" x="507.3333" y="128.6667"/><ellipse cx="512.3333" cy="134" fill="#ADD1B2" rx="3.6667" ry="3.6667" style="stroke:#181818;stroke-width:0.3333333333333333;"/><path d="M513.3229,135.8802 Q513.1302,135.9792 512.9167,136.026 Q512.7031,136.0781 512.4688,136.0781 Q511.6354,136.0781 511.1927,135.5313 Q510.7552,134.9792 510.7552,133.9375 Q510.7552,132.8958 511.1927,132.3438 Q511.6354,131.7917 512.4688,131.7917 Q512.7031,131.7917 512.9167,131.8438 Q513.1354,131.8958 513.3229,131.9948 L513.3229,132.901 Q513.1146,132.7083 512.9167,132.6198 Q512.7188,132.526 512.5104,132.526 Q512.0625,132.526 511.8333,132.8854 Q511.6042,133.2396 511.6042,133.9375 Q511.6042,134.6354 511.8333,134.9948 Q512.0625,135.349 512.5104,135.349 Q512.7188,135.349 512.9167,135.2604 Q513.1146,135.1667 513.3229,134.974 L513.3229,135.8802 Z " fill="#000000"/><text fill="#000000" font-family="sans-serif" font-size="4.6667" lengthAdjust="spacing" textLength="11.3333" x="517" y="135.6156">Fleet</text></g><!--class GameMapper--><g id="elem_GameMapper"><rect codeLine="76" fill="#F1F1F1" height="10.6667" id="GameMapper" rx="0.8333" ry="0.8333" style="stroke:#181818;stroke-width:0.16666666666666666;" width="41.6667" x="497.5" y="190.3333"/><ellipse cx="502.5" cy="195.6667" fill="#ADD1B2" rx="3.6667" ry="3.6667" style="stroke:#181818;stroke-width:0.3333333333333333;"/><path d="M503.4896,197.5469 Q503.2969,197.6458 503.0833,197.6927 Q502.8698,197.7448 502.6354,197.7448 Q501.8021,197.7448 501.3594,197.1979 Q500.9219,196.6458 500.9219,195.6042 Q500.9219,194.5625 501.3594,194.0104 Q501.8021,193.4583 502.6354,193.4583 Q502.8698,193.4583 503.0833,193.5104 Q503.3021,193.5625 503.4896,193.6615 L503.4896,194.5677 Q503.2813,194.375 503.0833,194.2865 Q502.8854,194.1927 502.6771,194.1927 Q502.2292,194.1927 502,194.5521 Q501.7708,194.9063 501.7708,195.6042 Q501.7708,196.3021 502,196.6615 Q502.2292,197.0156 502.6771,197.0156 Q502.8854,197.0156 503.0833,196.9271 Q503.2813,196.8333 503.4896,196.6406 L503.4896,197.5469 Z " fill="#000000"/><text fill="#000000" font-family="sans-serif" font-size="4.6667" lengthAdjust="spacing" textLength="31" x="507.1667" y="197.2822">GameMapper</text></g><!--class GameService--><g id="elem_GameService"><rect codeLine="84" fill="#F1F1F1" height="10.6667" id="GameService" rx="0.8333" ry="0.8333" style="stroke:#181818;stroke-width:0.16666666666666666;" width="41" x="350.8333" y="189.3333"/><ellipse cx="355.8333" cy="194.6667" fill="#ADD1B2" rx="3.6667" ry="3.6667" style="stroke:#181818;stroke-width:0.3333333333333333;"/><path d="M356.8229,196.5469 Q356.6302,196.6458 356.4167,196.6927 Q356.2031,196.7448 355.9688,196.7448 Q355.1354,196.7448 354.6927,196.1979 Q354.2552,195.6458 354.2552,194.6042 Q354.2552,193.5625 354.6927,193.0104 Q355.1354,192.4583 355.9688,192.4583 Q356.2031,192.4583 356.4167,192.5104 Q356.6354,192.5625 356.8229,192.6615 L356.8229,193.5677 Q356.6146,193.375 356.4167,193.2865 Q356.2188,193.1927 356.0104,193.1927 Q355.5625,193.1927 355.3333,193.5521 Q355.1042,193.9063 355.1042,194.6042 Q355.1042,195.3021 355.3333,195.6615 Q355.5625,196.0156 356.0104,196.0156 Q356.2188,196.0156 356.4167,195.9271 Q356.6146,195.8333 356.8229,195.6406 L356.8229,196.5469 Z " fill="#000000"/><text fill="#000000" font-family="sans-serif" font-size="4.6667" lengthAdjust="spacing" textLength="30.3333" x="360.5" y="196.2822">GameService</text></g><!--class GridPoint--><g id="elem_GridPoint"><rect codeLine="110" fill="#F1F1F1" height="10.6667" id="GridPoint" rx="0.8333" ry="0.8333" style="stroke:#181818;stroke-width:0.16666666666666666;" width="31.6667" x="355.5" y="165.6667"/><ellipse cx="360.5" cy="171" fill="#ADD1B2" rx="3.6667" ry="3.6667" style="stroke:#181818;stroke-width:0.3333333333333333;"/><path d="M361.4896,172.8802 Q361.2969,172.9792 361.0833,173.026 Q360.8698,173.0781 360.6354,173.0781 Q359.8021,173.0781 359.3594,172.5313 Q358.9219,171.9792 358.9219,170.9375 Q358.9219,169.8958 359.3594,169.3438 Q359.8021,168.7917 360.6354,168.7917 Q360.8698,168.7917 361.0833,168.8438 Q361.3021,168.8958 361.4896,168.9948 L361.4896,169.901 Q361.2813,169.7083 361.0833,169.6198 Q360.8854,169.526 360.6771,169.526 Q360.2292,169.526 360,169.8854 Q359.7708,170.2396 359.7708,170.9375 Q359.7708,171.6354 360,171.9948 Q360.2292,172.349 360.6771,172.349 Q360.8854,172.349 361.0833,172.2604 Q361.2813,172.1667 361.4896,171.974 L361.4896,172.8802 Z " fill="#000000"/><text fill="#000000" font-family="sans-serif" font-size="4.6667" lengthAdjust="spacing" textLength="21" x="365.1667" y="172.6156">GridPoint</text></g><!--class MatchFleet--><g id="elem_MatchFleet"><rect codeLine="122" fill="#F1F1F1" height="10.6667" id="MatchFleet" rx="0.8333" ry="0.8333" style="stroke:#181818;stroke-width:0.16666666666666666;" width="36" x="353.3333" y="139"/><ellipse cx="358.3333" cy="144.3333" fill="#ADD1B2" rx="3.6667" ry="3.6667" style="stroke:#181818;stroke-width:0.3333333333333333;"/><path d="M359.3229,146.2135 Q359.1302,146.3125 358.9167,146.3594 Q358.7031,146.4115 358.4688,146.4115 Q357.6354,146.4115 357.1927,145.8646 Q356.7552,145.3125 356.7552,144.2708 Q356.7552,143.2292 357.1927,142.6771 Q357.6354,142.125 358.4688,142.125 Q358.7031,142.125 358.9167,142.1771 Q359.1354,142.2292 359.3229,142.3281 L359.3229,143.2344 Q359.1146,143.0417 358.9167,142.9531 Q358.7188,142.8594 358.5104,142.8594 Q358.0625,142.8594 357.8333,143.2188 Q357.6042,143.5729 357.6042,144.2708 Q357.6042,144.9688 357.8333,145.3281 Q358.0625,145.6823 358.5104,145.6823 Q358.7188,145.6823 358.9167,145.5938 Q359.1146,145.5 359.3229,145.3073 L359.3229,146.2135 Z " fill="#000000"/><text fill="#000000" font-family="sans-serif" font-size="4.6667" lengthAdjust="spacing" textLength="25.3333" x="363" y="145.9489">MatchFleet</text></g><!--class Point--><g id="elem_Point"><rect codeLine="136" fill="#F1F1F1" height="10.6667" id="Point" rx="0.8333" ry="0.8333" style="stroke:#181818;stroke-width:0.16666666666666666;" width="22.3333" x="771.6667" y="128.6667"/><ellipse cx="776.6667" cy="134" fill="#ADD1B2" rx="3.6667" ry="3.6667" style="stroke:#181818;stroke-width:0.3333333333333333;"/><path d="M777.6563,135.8802 Q777.4635,135.9792 777.25,136.026 Q777.0365,136.0781 776.8021,136.0781 Q775.9688,136.0781 775.526,135.5313 Q775.0885,134.9792 775.0885,133.9375 Q775.0885,132.8958 775.526,132.3438 Q775.9688,131.7917 776.8021,131.7917 Q777.0365,131.7917 777.25,131.8438 Q777.4688,131.8958 777.6563,131.9948 L777.6563,132.901 Q777.4479,132.7083 777.25,132.6198 Q777.0521,132.526 776.8438,132.526 Q776.3958,132.526 776.1667,132.8854 Q775.9375,133.2396 775.9375,133.9375 Q775.9375,134.6354 776.1667,134.9948 Q776.3958,135.349 776.8438,135.349 Q777.0521,135.349 777.25,135.2604 Q777.4479,135.1667 777.6563,134.974 L777.6563,135.8802 Z " fill="#000000"/><text fill="#000000" font-family="sans-serif" font-size="4.6667" lengthAdjust="spacing" textLength="11.6667" x="781.3333" y="135.6156">Point</text></g><!--class Warship--><g id="elem_Warship"><rect codeLine="154" fill="#F1F1F1" height="10.6667" id="Warship" rx="0.8333" ry="0.8333" style="stroke:#181818;stroke-width:0.16666666666666666;" width="29" x="637.8333" y="128.6667"/><ellipse cx="642.8333" cy="134" fill="#ADD1B2" rx="3.6667" ry="3.6667" style="stroke:#181818;stroke-width:0.3333333333333333;"/><path d="M643.8229,135.8802 Q643.6302,135.9792 643.4167,136.026 Q643.2031,136.0781 642.9688,136.0781 Q642.1354,136.0781 641.6927,135.5313 Q641.2552,134.9792 641.2552,133.9375 Q641.2552,132.8958 641.6927,132.3438 Q642.1354,131.7917 642.9688,131.7917 Q643.2031,131.7917 643.4167,131.8438 Q643.6354,131.8958 643.8229,131.9948 L643.8229,132.901 Q643.6146,132.7083 643.4167,132.6198 Q643.2188,132.526 643.0104,132.526 Q642.5625,132.526 642.3333,132.8854 Q642.1042,133.2396 642.1042,133.9375 Q642.1042,134.6354 642.3333,134.9948 Q642.5625,135.349 643.0104,135.349 Q643.2188,135.349 643.4167,135.2604 Q643.6146,135.1667 643.8229,134.974 L643.8229,135.8802 Z " fill="#000000"/><text fill="#000000" font-family="sans-serif" font-size="4.6667" lengthAdjust="spacing" textLength="18.3333" x="647.5" y="135.6156">Warship</text></g><!--class WarshipDescription--><g id="elem_WarshipDescription"><rect codeLine="165" fill="#F1F1F1" height="10.6667" id="WarshipDescription" rx="0.8333" ry="0.8333" style="stroke:#181818;stroke-width:0.16666666666666666;" width="55.3333" x="490.6667" y="157"/><ellipse cx="495.6667" cy="162.3333" fill="#ADD1B2" rx="3.6667" ry="3.6667" style="stroke:#181818;stroke-width:0.3333333333333333;"/><path d="M496.6563,164.2135 Q496.4635,164.3125 496.25,164.3594 Q496.0365,164.4115 495.8021,164.4115 Q494.9688,164.4115 494.526,163.8646 Q494.0885,163.3125 494.0885,162.2708 Q494.0885,161.2292 494.526,160.6771 Q494.9688,160.125 495.8021,160.125 Q496.0365,160.125 496.25,160.1771 Q496.4688,160.2292 496.6563,160.3281 L496.6563,161.2344 Q496.4479,161.0417 496.25,160.9531 Q496.0521,160.8594 495.8438,160.8594 Q495.3958,160.8594 495.1667,161.2188 Q494.9375,161.5729 494.9375,162.2708 Q494.9375,162.9688 495.1667,163.3281 Q495.3958,163.6823 495.8438,163.6823 Q496.0521,163.6823 496.25,163.5938 Q496.4479,163.5 496.6563,163.3073 L496.6563,164.2135 Z " fill="#000000"/><text fill="#000000" font-family="sans-serif" font-size="4.6667" lengthAdjust="spacing" textLength="44.6667" x="500.3333" y="163.9489">WarshipDescription</text></g><!--class Match--><g id="elem_Match"><rect codeLine="176" fill="#F1F1F1" height="10.6667" id="Match" rx="0.8333" ry="0.8333" style="stroke:#181818;stroke-width:0.16666666666666666;" width="24.6667" x="359" y="405"/><ellipse cx="364" cy="410.3333" fill="#ADD1B2" rx="3.6667" ry="3.6667" style="stroke:#181818;stroke-width:0.3333333333333333;"/><path d="M364.9896,412.2135 Q364.7969,412.3125 364.5833,412.3594 Q364.3698,412.4115 364.1354,412.4115 Q363.3021,412.4115 362.8594,411.8646 Q362.4219,411.3125 362.4219,410.2708 Q362.4219,409.2292 362.8594,408.6771 Q363.3021,408.125 364.1354,408.125 Q364.3698,408.125 364.5833,408.1771 Q364.8021,408.2292 364.9896,408.3281 L364.9896,409.2344 Q364.7813,409.0417 364.5833,408.9531 Q364.3854,408.8594 364.1771,408.8594 Q363.7292,408.8594 363.5,409.2188 Q363.2708,409.5729 363.2708,410.2708 Q363.2708,410.9688 363.5,411.3281 Q363.7292,411.6823 364.1771,411.6823 Q364.3854,411.6823 364.5833,411.5938 Q364.7813,411.5 364.9896,411.3073 L364.9896,412.2135 Z " fill="#000000"/><text fill="#000000" font-family="sans-serif" font-size="4.6667" lengthAdjust="spacing" textLength="14" x="368.6667" y="411.9489">Match</text></g><!--class MatchController--><g id="elem_MatchController"><rect codeLine="186" fill="#F1F1F1" height="10.6667" id="MatchController" rx="0.8333" ry="0.8333" style="stroke:#181818;stroke-width:0.16666666666666666;" width="47" x="87.1667" y="277"/><ellipse cx="92.1667" cy="282.3333" fill="#ADD1B2" rx="3.6667" ry="3.6667" style="stroke:#181818;stroke-width:0.3333333333333333;"/><path d="M93.1563,284.2135 Q92.9635,284.3125 92.75,284.3594 Q92.5365,284.4115 92.3021,284.4115 Q91.4688,284.4115 91.026,283.8646 Q90.5885,283.3125 90.5885,282.2708 Q90.5885,281.2292 91.026,280.6771 Q91.4688,280.125 92.3021,280.125 Q92.5365,280.125 92.75,280.1771 Q92.9688,280.2292 93.1563,280.3281 L93.1563,281.2344 Q92.9479,281.0417 92.75,280.9531 Q92.5521,280.8594 92.3438,280.8594 Q91.8958,280.8594 91.6667,281.2188 Q91.4375,281.5729 91.4375,282.2708 Q91.4375,282.9688 91.6667,283.3281 Q91.8958,283.6823 92.3438,283.6823 Q92.5521,283.6823 92.75,283.5938 Q92.9479,283.5 93.1563,283.3073 L93.1563,284.2135 Z " fill="#000000"/><text fill="#000000" font-family="sans-serif" font-size="4.6667" lengthAdjust="spacing" textLength="36.3333" x="96.8333" y="283.9489">MatchController</text></g><!--class MatchDao--><g id="elem_MatchDao"><rect codeLine="198" fill="#F1F1F1" height="10.6667" id="MatchDao" rx="0.8333" ry="0.8333" style="stroke:#181818;stroke-width:0.16666666666666666;" width="34" x="354.3333" y="427.3333"/><ellipse cx="359.3333" cy="432.6667" fill="#ADD1B2" rx="3.6667" ry="3.6667" style="stroke:#181818;stroke-width:0.3333333333333333;"/><path d="M360.3229,434.5469 Q360.1302,434.6458 359.9167,434.6927 Q359.7031,434.7448 359.4688,434.7448 Q358.6354,434.7448 358.1927,434.1979 Q357.7552,433.6458 357.7552,432.6042 Q357.7552,431.5625 358.1927,431.0104 Q358.6354,430.4583 359.4688,430.4583 Q359.7031,430.4583 359.9167,430.5104 Q360.1354,430.5625 360.3229,430.6615 L360.3229,431.5677 Q360.1146,431.375 359.9167,431.2865 Q359.7188,431.1927 359.5104,431.1927 Q359.0625,431.1927 358.8333,431.5521 Q358.6042,431.9063 358.6042,432.6042 Q358.6042,433.3021 358.8333,433.6615 Q359.0625,434.0156 359.5104,434.0156 Q359.7188,434.0156 359.9167,433.9271 Q360.1146,433.8333 360.3229,433.6406 L360.3229,434.5469 Z " fill="#000000"/><text fill="#000000" font-family="sans-serif" font-size="4.6667" lengthAdjust="spacing" textLength="23.3333" x="364" y="434.2822">MatchDao</text></g><!--class MatchMapper--><g id="elem_MatchMapper"><rect codeLine="207" fill="#F1F1F1" height="10.6667" id="MatchMapper" rx="0.8333" ry="0.8333" style="stroke:#181818;stroke-width:0.16666666666666666;" width="42" x="631.3333" y="359.6667"/><ellipse cx="636.3333" cy="365" fill="#ADD1B2" rx="3.6667" ry="3.6667" style="stroke:#181818;stroke-width:0.3333333333333333;"/><path d="M637.3229,366.8802 Q637.1302,366.9792 636.9167,367.026 Q636.7031,367.0781 636.4688,367.0781 Q635.6354,367.0781 635.1927,366.5313 Q634.7552,365.9792 634.7552,364.9375 Q634.7552,363.8958 635.1927,363.3438 Q635.6354,362.7917 636.4688,362.7917 Q636.7031,362.7917 636.9167,362.8438 Q637.1354,362.8958 637.3229,362.9948 L637.3229,363.901 Q637.1146,363.7083 636.9167,363.6198 Q636.7188,363.526 636.5104,363.526 Q636.0625,363.526 635.8333,363.8854 Q635.6042,364.2396 635.6042,364.9375 Q635.6042,365.6354 635.8333,365.9948 Q636.0625,366.349 636.5104,366.349 Q636.7188,366.349 636.9167,366.2604 Q637.1146,366.1667 637.3229,365.974 L637.3229,366.8802 Z " fill="#000000"/><text fill="#000000" font-family="sans-serif" font-size="4.6667" lengthAdjust="spacing" textLength="31.3333" x="641" y="366.6156">MatchMapper</text></g><!--class MatchRepository--><g id="elem_MatchRepository"><rect codeLine="215" fill="#F1F1F1" height="10.6667" id="MatchRepository" rx="0.8333" ry="0.8333" style="stroke:#181818;stroke-width:0.16666666666666666;" width="49.3333" x="346.6667" y="276.6667"/><ellipse cx="351.6667" cy="282" fill="#B4A7E5" rx="3.6667" ry="3.6667" style="stroke:#181818;stroke-width:0.3333333333333333;"/><path d="M350.3073,280.5885 L350.3073,279.8698 L352.7708,279.8698 L352.7708,280.5885 L351.9479,280.5885 L351.9479,283.2813 L352.7708,283.2813 L352.7708,284 L350.3073,284 L350.3073,283.2813 L351.1302,283.2813 L351.1302,280.5885 L350.3073,280.5885 Z " fill="#000000"/><text fill="#000000" font-family="sans-serif" font-size="4.6667" font-style="italic" lengthAdjust="spacing" textLength="38.6667" x="356.3333" y="283.6156">MatchRepository</text></g><!--class MatchService--><g id="elem_MatchService"><rect codeLine="224" fill="#F1F1F1" height="10.6667" id="MatchService" rx="0.8333" ry="0.8333" style="stroke:#181818;stroke-width:0.16666666666666666;" width="41.3333" x="221.1667" y="277"/><ellipse cx="226.1667" cy="282.3333" fill="#ADD1B2" rx="3.6667" ry="3.6667" style="stroke:#181818;stroke-width:0.3333333333333333;"/><path d="M227.1563,284.2135 Q226.9635,284.3125 226.75,284.3594 Q226.5365,284.4115 226.3021,284.4115 Q225.4688,284.4115 225.026,283.8646 Q224.5885,283.3125 224.5885,282.2708 Q224.5885,281.2292 225.026,280.6771 Q225.4688,280.125 226.3021,280.125 Q226.5365,280.125 226.75,280.1771 Q226.9688,280.2292 227.1563,280.3281 L227.1563,281.2344 Q226.9479,281.0417 226.75,280.9531 Q226.5521,280.8594 226.3438,280.8594 Q225.8958,280.8594 225.6667,281.2188 Q225.4375,281.5729 225.4375,282.2708 Q225.4375,282.9688 225.6667,283.3281 Q225.8958,283.6823 226.3438,283.6823 Q226.5521,283.6823 226.75,283.5938 Q226.9479,283.5 227.1563,283.3073 L227.1563,284.2135 Z " fill="#000000"/><text fill="#000000" font-family="sans-serif" font-size="4.6667" lengthAdjust="spacing" textLength="30.6667" x="230.8333" y="283.9489">MatchService</text></g><!--class MatchStatus--><g id="elem_MatchStatus"><rect codeLine="255" fill="#F1F1F1" height="10.6667" id="MatchStatus" rx="0.8333" ry="0.8333" style="stroke:#181818;stroke-width:0.16666666666666666;" width="39.3333" x="498.6667" y="399.3333"/><ellipse cx="503.6667" cy="404.6667" fill="#EB937F" rx="3.6667" ry="3.6667" style="stroke:#181818;stroke-width:0.3333333333333333;"/><path d="M505.0365,406.6667 L502.4635,406.6667 L502.4635,402.5365 L505.0365,402.5365 L505.0365,403.2552 L503.2813,403.2552 L503.2813,404.1458 L504.8698,404.1458 L504.8698,404.8646 L503.2813,404.8646 L503.2813,405.9479 L505.0365,405.9479 L505.0365,406.6667 Z " fill="#000000"/><text fill="#000000" font-family="sans-serif" font-size="4.6667" lengthAdjust="spacing" textLength="28.6667" x="508.3333" y="406.2822">MatchStatus</text></g><!--class MatchUI--><g id="elem_MatchUI"><rect codeLine="266" fill="#F1F1F1" height="10.6667" id="MatchUI" rx="0.8333" ry="0.8333" style="stroke:#181818;stroke-width:0.16666666666666666;" width="29" x="356.8333" y="382.6667"/><ellipse cx="361.8333" cy="388" fill="#ADD1B2" rx="3.6667" ry="3.6667" style="stroke:#181818;stroke-width:0.3333333333333333;"/><path d="M362.8229,389.8802 Q362.6302,389.9792 362.4167,390.026 Q362.2031,390.0781 361.9688,390.0781 Q361.1354,390.0781 360.6927,389.5313 Q360.2552,388.9792 360.2552,387.9375 Q360.2552,386.8958 360.6927,386.3438 Q361.1354,385.7917 361.9688,385.7917 Q362.2031,385.7917 362.4167,385.8438 Q362.6354,385.8958 362.8229,385.9948 L362.8229,386.901 Q362.6146,386.7083 362.4167,386.6198 Q362.2188,386.526 362.0104,386.526 Q361.5625,386.526 361.3333,386.8854 Q361.1042,387.2396 361.1042,387.9375 Q361.1042,388.6354 361.3333,388.9948 Q361.5625,389.349 362.0104,389.349 Q362.2188,389.349 362.4167,389.2604 Q362.6146,389.1667 362.8229,388.974 L362.8229,389.8802 Z " fill="#000000"/><text fill="#000000" font-family="sans-serif" font-size="4.6667" lengthAdjust="spacing" textLength="18.3333" x="366.5" y="389.6156">MatchUI</text></g><!--class ShotGameOwnerResponseMessage--><g id="elem_ShotGameOwnerResponseMessage"><rect codeLine="279" fill="#F1F1F1" height="10.6667" id="ShotGameOwnerResponseMessage" rx="0.8333" ry="0.8333" style="stroke:#181818;stroke-width:0.16666666666666666;" width="94.6667" x="63.3333" y="405"/><ellipse cx="68.3333" cy="410.3333" fill="#ADD1B2" rx="3.6667" ry="3.6667" style="stroke:#181818;stroke-width:0.3333333333333333;"/><path d="M69.3229,412.2135 Q69.1302,412.3125 68.9167,412.3594 Q68.7031,412.4115 68.4688,412.4115 Q67.6354,412.4115 67.1927,411.8646 Q66.7552,411.3125 66.7552,410.2708 Q66.7552,409.2292 67.1927,408.6771 Q67.6354,408.125 68.4688,408.125 Q68.7031,408.125 68.9167,408.1771 Q69.1354,408.2292 69.3229,408.3281 L69.3229,409.2344 Q69.1146,409.0417 68.9167,408.9531 Q68.7188,408.8594 68.5104,408.8594 Q68.0625,408.8594 67.8333,409.2188 Q67.6042,409.5729 67.6042,410.2708 Q67.6042,410.9688 67.8333,411.3281 Q68.0625,411.6823 68.5104,411.6823 Q68.7188,411.6823 68.9167,411.5938 Q69.1146,411.5 69.3229,411.3073 L69.3229,412.2135 Z " fill="#000000"/><text fill="#000000" font-family="sans-serif" font-size="4.6667" lengthAdjust="spacing" textLength="84" x="73" y="411.9489">ShotGameOwnerResponseMessage</text></g><!--class ShotGameRequestMessage--><g id="elem_ShotGameRequestMessage"><rect codeLine="294" fill="#F1F1F1" height="10.6667" id="ShotGameRequestMessage" rx="0.8333" ry="0.8333" style="stroke:#181818;stroke-width:0.16666666666666666;" width="75.6667" x="72.8333" y="382.6667"/><ellipse cx="77.8333" cy="388" fill="#ADD1B2" rx="3.6667" ry="3.6667" style="stroke:#181818;stroke-width:0.3333333333333333;"/><path d="M78.8229,389.8802 Q78.6302,389.9792 78.4167,390.026 Q78.2031,390.0781 77.9688,390.0781 Q77.1354,390.0781 76.6927,389.5313 Q76.2552,388.9792 76.2552,387.9375 Q76.2552,386.8958 76.6927,386.3438 Q77.1354,385.7917 77.9688,385.7917 Q78.2031,385.7917 78.4167,385.8438 Q78.6354,385.8958 78.8229,385.9948 L78.8229,386.901 Q78.6146,386.7083 78.4167,386.6198 Q78.2188,386.526 78.0104,386.526 Q77.5625,386.526 77.3333,386.8854 Q77.1042,387.2396 77.1042,387.9375 Q77.1042,388.6354 77.3333,388.9948 Q77.5625,389.349 78.0104,389.349 Q78.2188,389.349 78.4167,389.2604 Q78.6146,389.1667 78.8229,388.974 L78.8229,389.8802 Z " fill="#000000"/><text fill="#000000" font-family="sans-serif" font-size="4.6667" lengthAdjust="spacing" textLength="65" x="82.5" y="389.6156">ShotGameRequestMessage</text></g><!--class ShotGameResponseMessage--><g id="elem_ShotGameResponseMessage"><rect codeLine="306" fill="#F1F1F1" height="10.6667" id="ShotGameResponseMessage" rx="0.8333" ry="0.8333" style="stroke:#181818;stroke-width:0.16666666666666666;" width="79.6667" x="70.8333" y="427.3333"/><ellipse cx="75.8333" cy="432.6667" fill="#ADD1B2" rx="3.6667" ry="3.6667" style="stroke:#181818;stroke-width:0.3333333333333333;"/><path d="M76.8229,434.5469 Q76.6302,434.6458 76.4167,434.6927 Q76.2031,434.7448 75.9688,434.7448 Q75.1354,434.7448 74.6927,434.1979 Q74.2552,433.6458 74.2552,432.6042 Q74.2552,431.5625 74.6927,431.0104 Q75.1354,430.4583 75.9688,430.4583 Q76.2031,430.4583 76.4167,430.5104 Q76.6354,430.5625 76.8229,430.6615 L76.8229,431.5677 Q76.6146,431.375 76.4167,431.2865 Q76.2188,431.1927 76.0104,431.1927 Q75.5625,431.1927 75.3333,431.5521 Q75.1042,431.9063 75.1042,432.6042 Q75.1042,433.3021 75.3333,433.6615 Q75.5625,434.0156 76.0104,434.0156 Q76.2188,434.0156 76.4167,433.9271 Q76.6146,433.8333 76.8229,433.6406 L76.8229,434.5469 Z " fill="#000000"/><text fill="#000000" font-family="sans-serif" font-size="4.6667" lengthAdjust="spacing" textLength="69" x="80.5" y="434.2822">ShotGameResponseMessage</text></g><!--class ActionHistory--><g id="elem_ActionHistory"><rect codeLine="321" fill="#F1F1F1" height="10.6667" id="ActionHistory" rx="0.8333" ry="0.8333" style="stroke:#181818;stroke-width:0.16666666666666666;" width="40.6667" x="221.5" y="316.6667"/><ellipse cx="226.5" cy="322" fill="#ADD1B2" rx="3.6667" ry="3.6667" style="stroke:#181818;stroke-width:0.3333333333333333;"/><path d="M227.4896,323.8802 Q227.2969,323.9792 227.0833,324.026 Q226.8698,324.0781 226.6354,324.0781 Q225.8021,324.0781 225.3594,323.5313 Q224.9219,322.9792 224.9219,321.9375 Q224.9219,320.8958 225.3594,320.3438 Q225.8021,319.7917 226.6354,319.7917 Q226.8698,319.7917 227.0833,319.8438 Q227.3021,319.8958 227.4896,319.9948 L227.4896,320.901 Q227.2813,320.7083 227.0833,320.6198 Q226.8854,320.526 226.6771,320.526 Q226.2292,320.526 226,320.8854 Q225.7708,321.2396 225.7708,321.9375 Q225.7708,322.6354 226,322.9948 Q226.2292,323.349 226.6771,323.349 Q226.8854,323.349 227.0833,323.2604 Q227.2813,323.1667 227.4896,322.974 L227.4896,323.8802 Z " fill="#000000"/><text fill="#000000" font-family="sans-serif" font-size="4.6667" lengthAdjust="spacing" textLength="30" x="231.1667" y="323.6156">ActionHistory</text></g><!--class ActionHistoryController--><g id="elem_ActionHistoryController"><rect codeLine="334" fill="#F1F1F1" height="10.6667" id="ActionHistoryController" rx="0.8333" ry="0.8333" style="stroke:#181818;stroke-width:0.16666666666666666;" width="63" x="210.3333" y="339"/><ellipse cx="215.3333" cy="344.3333" fill="#ADD1B2" rx="3.6667" ry="3.6667" style="stroke:#181818;stroke-width:0.3333333333333333;"/><path d="M216.3229,346.2135 Q216.1302,346.3125 215.9167,346.3594 Q215.7031,346.4115 215.4688,346.4115 Q214.6354,346.4115 214.1927,345.8646 Q213.7552,345.3125 213.7552,344.2708 Q213.7552,343.2292 214.1927,342.6771 Q214.6354,342.125 215.4688,342.125 Q215.7031,342.125 215.9167,342.1771 Q216.1354,342.2292 216.3229,342.3281 L216.3229,343.2344 Q216.1146,343.0417 215.9167,342.9531 Q215.7188,342.8594 215.5104,342.8594 Q215.0625,342.8594 214.8333,343.2188 Q214.6042,343.5729 214.6042,344.2708 Q214.6042,344.9688 214.8333,345.3281 Q215.0625,345.6823 215.5104,345.6823 Q215.7188,345.6823 215.9167,345.5938 Q216.1146,345.5 216.3229,345.3073 L216.3229,346.2135 Z " fill="#000000"/><text fill="#000000" font-family="sans-serif" font-size="4.6667" lengthAdjust="spacing" textLength="52.3333" x="220" y="345.9489">ActionHistoryController</text></g><!--class ActionHistoryDao--><g id="elem_ActionHistoryDao"><rect codeLine="339" fill="#F1F1F1" height="10.6667" id="ActionHistoryDao" rx="0.8333" ry="0.8333" style="stroke:#181818;stroke-width:0.16666666666666666;" width="50" x="216.8333" y="361.3333"/><ellipse cx="221.8333" cy="366.6667" fill="#ADD1B2" rx="3.6667" ry="3.6667" style="stroke:#181818;stroke-width:0.3333333333333333;"/><path d="M222.8229,368.5469 Q222.6302,368.6458 222.4167,368.6927 Q222.2031,368.7448 221.9688,368.7448 Q221.1354,368.7448 220.6927,368.1979 Q220.2552,367.6458 220.2552,366.6042 Q220.2552,365.5625 220.6927,365.0104 Q221.1354,364.4583 221.9688,364.4583 Q222.2031,364.4583 222.4167,364.5104 Q222.6354,364.5625 222.8229,364.6615 L222.8229,365.5677 Q222.6146,365.375 222.4167,365.2865 Q222.2188,365.1927 222.0104,365.1927 Q221.5625,365.1927 221.3333,365.5521 Q221.1042,365.9063 221.1042,366.6042 Q221.1042,367.3021 221.3333,367.6615 Q221.5625,368.0156 222.0104,368.0156 Q222.2188,368.0156 222.4167,367.9271 Q222.6146,367.8333 222.8229,367.6406 L222.8229,368.5469 Z " fill="#000000"/><text fill="#000000" font-family="sans-serif" font-size="4.6667" lengthAdjust="spacing" textLength="39.3333" x="226.5" y="368.2822">ActionHistoryDao</text></g><!--class ActionHistoryMapper--><g id="elem_ActionHistoryMapper"><rect codeLine="349" fill="#F1F1F1" height="10.6667" id="ActionHistoryMapper" rx="0.8333" ry="0.8333" style="stroke:#181818;stroke-width:0.16666666666666666;" width="58" x="489.3333" y="359.6667"/><ellipse cx="494.3333" cy="365" fill="#ADD1B2" rx="3.6667" ry="3.6667" style="stroke:#181818;stroke-width:0.3333333333333333;"/><path d="M495.3229,366.8802 Q495.1302,366.9792 494.9167,367.026 Q494.7031,367.0781 494.4688,367.0781 Q493.6354,367.0781 493.1927,366.5313 Q492.7552,365.9792 492.7552,364.9375 Q492.7552,363.8958 493.1927,363.3438 Q493.6354,362.7917 494.4688,362.7917 Q494.7031,362.7917 494.9167,362.8438 Q495.1354,362.8958 495.3229,362.9948 L495.3229,363.901 Q495.1146,363.7083 494.9167,363.6198 Q494.7188,363.526 494.5104,363.526 Q494.0625,363.526 493.8333,363.8854 Q493.6042,364.2396 493.6042,364.9375 Q493.6042,365.6354 493.8333,365.9948 Q494.0625,366.349 494.5104,366.349 Q494.7188,366.349 494.9167,366.2604 Q495.1146,366.1667 495.3229,365.974 L495.3229,366.8802 Z " fill="#000000"/><text fill="#000000" font-family="sans-serif" font-size="4.6667" lengthAdjust="spacing" textLength="47.3333" x="499" y="366.6156">ActionHistoryMapper</text></g><!--class ActionHistoryRepository--><g id="elem_ActionHistoryRepository"><rect codeLine="357" fill="#F1F1F1" height="10.6667" id="ActionHistoryRepository" rx="0.8333" ry="0.8333" style="stroke:#181818;stroke-width:0.16666666666666666;" width="65.3333" x="485.6667" y="336"/><ellipse cx="490.6667" cy="341.3333" fill="#B4A7E5" rx="3.6667" ry="3.6667" style="stroke:#181818;stroke-width:0.3333333333333333;"/><path d="M489.3073,339.9219 L489.3073,339.2031 L491.7708,339.2031 L491.7708,339.9219 L490.9479,339.9219 L490.9479,342.6146 L491.7708,342.6146 L491.7708,343.3333 L489.3073,343.3333 L489.3073,342.6146 L490.1302,342.6146 L490.1302,339.9219 L489.3073,339.9219 Z " fill="#000000"/><text fill="#000000" font-family="sans-serif" font-size="4.6667" font-style="italic" lengthAdjust="spacing" textLength="54.6667" x="495.3333" y="342.9489">ActionHistoryRepository</text></g><!--class ActionHistoryService--><g id="elem_ActionHistoryService"><rect codeLine="364" fill="#F1F1F1" height="10.6667" id="ActionHistoryService" rx="0.8333" ry="0.8333" style="stroke:#181818;stroke-width:0.16666666666666666;" width="57.3333" x="342.6667" y="351"/><ellipse cx="347.6667" cy="356.3333" fill="#ADD1B2" rx="3.6667" ry="3.6667" style="stroke:#181818;stroke-width:0.3333333333333333;"/><path d="M348.6563,358.2135 Q348.4635,358.3125 348.25,358.3594 Q348.0365,358.4115 347.8021,358.4115 Q346.9688,358.4115 346.526,357.8646 Q346.0885,357.3125 346.0885,356.2708 Q346.0885,355.2292 346.526,354.6771 Q346.9688,354.125 347.8021,354.125 Q348.0365,354.125 348.25,354.1771 Q348.4688,354.2292 348.6563,354.3281 L348.6563,355.2344 Q348.4479,355.0417 348.25,354.9531 Q348.0521,354.8594 347.8438,354.8594 Q347.3958,354.8594 347.1667,355.2188 Q346.9375,355.5729 346.9375,356.2708 Q346.9375,356.9688 347.1667,357.3281 Q347.3958,357.6823 347.8438,357.6823 Q348.0521,357.6823 348.25,357.5938 Q348.4479,357.5 348.6563,357.3073 L348.6563,358.2135 Z " fill="#000000"/><text fill="#000000" font-family="sans-serif" font-size="4.6667" lengthAdjust="spacing" textLength="46.6667" x="352.3333" y="357.9489">ActionHistoryService</text></g><!--class NotificationResponseMessage--><g id="elem_NotificationResponseMessage"><rect codeLine="376" fill="#F1F1F1" height="10.6667" id="NotificationResponseMessage" rx="0.8333" ry="0.8333" style="stroke:#181818;stroke-width:0.16666666666666666;" width="80.6667" x="612" y="646"/><ellipse cx="617" cy="651.3333" fill="#ADD1B2" rx="3.6667" ry="3.6667" style="stroke:#181818;stroke-width:0.3333333333333333;"/><path d="M617.9896,653.2135 Q617.7969,653.3125 617.5833,653.3594 Q617.3698,653.4115 617.1354,653.4115 Q616.3021,653.4115 615.8594,652.8646 Q615.4219,652.3125 615.4219,651.2708 Q615.4219,650.2292 615.8594,649.6771 Q616.3021,649.125 617.1354,649.125 Q617.3698,649.125 617.5833,649.1771 Q617.8021,649.2292 617.9896,649.3281 L617.9896,650.2344 Q617.7813,650.0417 617.5833,649.9531 Q617.3854,649.8594 617.1771,649.8594 Q616.7292,649.8594 616.5,650.2188 Q616.2708,650.5729 616.2708,651.2708 Q616.2708,651.9688 616.5,652.3281 Q616.7292,652.6823 617.1771,652.6823 Q617.3854,652.6823 617.5833,652.5938 Q617.7813,652.5 617.9896,652.3073 L617.9896,653.2135 Z " fill="#000000"/><text fill="#000000" font-family="sans-serif" font-size="4.6667" lengthAdjust="spacing" textLength="70" x="621.6667" y="652.9489">NotificationResponseMessage</text></g><!--class NotificationService--><g id="elem_NotificationService"><rect codeLine="385" fill="#F1F1F1" height="10.6667" id="NotificationService" rx="0.8333" ry="0.8333" style="stroke:#181818;stroke-width:0.16666666666666666;" width="52.6667" x="626" y="668.3333"/><ellipse cx="631" cy="673.6667" fill="#ADD1B2" rx="3.6667" ry="3.6667" style="stroke:#181818;stroke-width:0.3333333333333333;"/><path d="M631.9896,675.5469 Q631.7969,675.6458 631.5833,675.6927 Q631.3698,675.7448 631.1354,675.7448 Q630.3021,675.7448 629.8594,675.1979 Q629.4219,674.6458 629.4219,673.6042 Q629.4219,672.5625 629.8594,672.0104 Q630.3021,671.4583 631.1354,671.4583 Q631.3698,671.4583 631.5833,671.5104 Q631.8021,671.5625 631.9896,671.6615 L631.9896,672.5677 Q631.7813,672.375 631.5833,672.2865 Q631.3854,672.1927 631.1771,672.1927 Q630.7292,672.1927 630.5,672.5521 Q630.2708,672.9063 630.2708,673.6042 Q630.2708,674.3021 630.5,674.6615 Q630.7292,675.0156 631.1771,675.0156 Q631.3854,675.0156 631.5833,674.9271 Q631.7813,674.8333 631.9896,674.6406 L631.9896,675.5469 Z " fill="#000000"/><text fill="#000000" font-family="sans-serif" font-size="4.6667" lengthAdjust="spacing" textLength="42" x="635.6667" y="675.2822">NotificationService</text></g><!--class TypeNotification--><g id="elem_TypeNotification"><rect codeLine="392" fill="#F1F1F1" height="10.6667" id="TypeNotification" rx="0.8333" ry="0.8333" style="stroke:#181818;stroke-width:0.16666666666666666;" width="47.3333" x="759.1667" y="646.3333"/><ellipse cx="764.1667" cy="651.6667" fill="#EB937F" rx="3.6667" ry="3.6667" style="stroke:#181818;stroke-width:0.3333333333333333;"/><path d="M765.5365,653.6667 L762.9635,653.6667 L762.9635,649.5365 L765.5365,649.5365 L765.5365,650.2552 L763.7813,650.2552 L763.7813,651.1458 L765.3698,651.1458 L765.3698,651.8646 L763.7813,651.8646 L763.7813,652.9479 L765.5365,652.9479 L765.5365,653.6667 Z " fill="#000000"/><text fill="#000000" font-family="sans-serif" font-size="4.6667" lengthAdjust="spacing" textLength="36.6667" x="768.8333" y="653.2822">TypeNotification</text></g><!--class Player--><g id="elem_Player"><rect codeLine="400" fill="#F1F1F1" height="10.6667" id="Player" rx="0.8333" ry="0.8333" style="stroke:#181818;stroke-width:0.16666666666666666;" width="24.3333" x="506.1667" y="485.3333"/><ellipse cx="511.1667" cy="490.6667" fill="#ADD1B2" rx="3.6667" ry="3.6667" style="stroke:#181818;stroke-width:0.3333333333333333;"/><path d="M512.1563,492.5469 Q511.9635,492.6458 511.75,492.6927 Q511.5365,492.7448 511.3021,492.7448 Q510.4688,492.7448 510.026,492.1979 Q509.5885,491.6458 509.5885,490.6042 Q509.5885,489.5625 510.026,489.0104 Q510.4688,488.4583 511.3021,488.4583 Q511.5365,488.4583 511.75,488.5104 Q511.9688,488.5625 512.1563,488.6615 L512.1563,489.5677 Q511.9479,489.375 511.75,489.2865 Q511.5521,489.1927 511.3438,489.1927 Q510.8958,489.1927 510.6667,489.5521 Q510.4375,489.9063 510.4375,490.6042 Q510.4375,491.3021 510.6667,491.6615 Q510.8958,492.0156 511.3438,492.0156 Q511.5521,492.0156 511.75,491.9271 Q511.9479,491.8333 512.1563,491.6406 L512.1563,492.5469 Z " fill="#000000"/><text fill="#000000" font-family="sans-serif" font-size="4.6667" lengthAdjust="spacing" textLength="13.6667" x="515.8333" y="492.2822">Player</text></g><!--class PlayerController--><g id="elem_PlayerController"><rect codeLine="412" fill="#F1F1F1" height="10.6667" id="PlayerController" rx="0.8333" ry="0.8333" style="stroke:#181818;stroke-width:0.16666666666666666;" width="46.6667" x="495" y="463"/><ellipse cx="500" cy="468.3333" fill="#ADD1B2" rx="3.6667" ry="3.6667" style="stroke:#181818;stroke-width:0.3333333333333333;"/><path d="M500.9896,470.2135 Q500.7969,470.3125 500.5833,470.3594 Q500.3698,470.4115 500.1354,470.4115 Q499.3021,470.4115 498.8594,469.8646 Q498.4219,469.3125 498.4219,468.2708 Q498.4219,467.2292 498.8594,466.6771 Q499.3021,466.125 500.1354,466.125 Q500.3698,466.125 500.5833,466.1771 Q500.8021,466.2292 500.9896,466.3281 L500.9896,467.2344 Q500.7813,467.0417 500.5833,466.9531 Q500.3854,466.8594 500.1771,466.8594 Q499.7292,466.8594 499.5,467.2188 Q499.2708,467.5729 499.2708,468.2708 Q499.2708,468.9688 499.5,469.3281 Q499.7292,469.6823 500.1771,469.6823 Q500.3854,469.6823 500.5833,469.5938 Q500.7813,469.5 500.9896,469.3073 L500.9896,470.2135 Z " fill="#000000"/><text fill="#000000" font-family="sans-serif" font-size="4.6667" lengthAdjust="spacing" textLength="36" x="504.6667" y="469.9489">PlayerController</text></g><!--class PlayerDao--><g id="elem_PlayerDao"><rect codeLine="418" fill="#F1F1F1" height="10.6667" id="PlayerDao" rx="0.8333" ry="0.8333" style="stroke:#181818;stroke-width:0.16666666666666666;" width="33.6667" x="501.5" y="507.6667"/><ellipse cx="506.5" cy="513" fill="#ADD1B2" rx="3.6667" ry="3.6667" style="stroke:#181818;stroke-width:0.3333333333333333;"/><path d="M507.4896,514.8802 Q507.2969,514.9792 507.0833,515.026 Q506.8698,515.0781 506.6354,515.0781 Q505.8021,515.0781 505.3594,514.5313 Q504.9219,513.9792 504.9219,512.9375 Q504.9219,511.8958 505.3594,511.3438 Q505.8021,510.7917 506.6354,510.7917 Q506.8698,510.7917 507.0833,510.8438 Q507.3021,510.8958 507.4896,510.9948 L507.4896,511.901 Q507.2813,511.7083 507.0833,511.6198 Q506.8854,511.526 506.6771,511.526 Q506.2292,511.526 506,511.8854 Q505.7708,512.2396 505.7708,512.9375 Q505.7708,513.6354 506,513.9948 Q506.2292,514.349 506.6771,514.349 Q506.8854,514.349 507.0833,514.2604 Q507.2813,514.1667 507.4896,513.974 L507.4896,514.8802 Z " fill="#000000"/><text fill="#000000" font-family="sans-serif" font-size="4.6667" lengthAdjust="spacing" textLength="23" x="511.1667" y="514.6156">PlayerDao</text></g><!--class PlayerMapper--><g id="elem_PlayerMapper"><rect codeLine="429" fill="#F1F1F1" height="10.6667" id="PlayerMapper" rx="0.8333" ry="0.8333" style="stroke:#181818;stroke-width:0.16666666666666666;" width="41.6667" x="762" y="463"/><ellipse cx="767" cy="468.3333" fill="#ADD1B2" rx="3.6667" ry="3.6667" style="stroke:#181818;stroke-width:0.3333333333333333;"/><path d="M767.9896,470.2135 Q767.7969,470.3125 767.5833,470.3594 Q767.3698,470.4115 767.1354,470.4115 Q766.3021,470.4115 765.8594,469.8646 Q765.4219,469.3125 765.4219,468.2708 Q765.4219,467.2292 765.8594,466.6771 Q766.3021,466.125 767.1354,466.125 Q767.3698,466.125 767.5833,466.1771 Q767.8021,466.2292 767.9896,466.3281 L767.9896,467.2344 Q767.7813,467.0417 767.5833,466.9531 Q767.3854,466.8594 767.1771,466.8594 Q766.7292,466.8594 766.5,467.2188 Q766.2708,467.5729 766.2708,468.2708 Q766.2708,468.9688 766.5,469.3281 Q766.7292,469.6823 767.1771,469.6823 Q767.3854,469.6823 767.5833,469.5938 Q767.7813,469.5 767.9896,469.3073 L767.9896,470.2135 Z " fill="#000000"/><text fill="#000000" font-family="sans-serif" font-size="4.6667" lengthAdjust="spacing" textLength="31" x="771.6667" y="469.9489">PlayerMapper</text></g><!--class PlayerRepository--><g id="elem_PlayerRepository"><rect codeLine="437" fill="#F1F1F1" height="10.6667" id="PlayerRepository" rx="0.8333" ry="0.8333" style="stroke:#181818;stroke-width:0.16666666666666666;" width="49" x="758.3333" y="493.3333"/><ellipse cx="763.3333" cy="498.6667" fill="#B4A7E5" rx="3.6667" ry="3.6667" style="stroke:#181818;stroke-width:0.3333333333333333;"/><path d="M761.974,497.2552 L761.974,496.5365 L764.4375,496.5365 L764.4375,497.2552 L763.6146,497.2552 L763.6146,499.9479 L764.4375,499.9479 L764.4375,500.6667 L761.974,500.6667 L761.974,499.9479 L762.7969,499.9479 L762.7969,497.2552 L761.974,497.2552 Z " fill="#000000"/><text fill="#000000" font-family="sans-serif" font-size="4.6667" font-style="italic" lengthAdjust="spacing" textLength="38.3333" x="768" y="500.2822">PlayerRepository</text></g><!--class PlayerService--><g id="elem_PlayerService"><rect codeLine="443" fill="#F1F1F1" height="10.6667" id="PlayerService" rx="0.8333" ry="0.8333" style="stroke:#181818;stroke-width:0.16666666666666666;" width="41" x="631.8333" y="493.3333"/><ellipse cx="636.8333" cy="498.6667" fill="#ADD1B2" rx="3.6667" ry="3.6667" style="stroke:#181818;stroke-width:0.3333333333333333;"/><path d="M637.8229,500.5469 Q637.6302,500.6458 637.4167,500.6927 Q637.2031,500.7448 636.9688,500.7448 Q636.1354,500.7448 635.6927,500.1979 Q635.2552,499.6458 635.2552,498.6042 Q635.2552,497.5625 635.6927,497.0104 Q636.1354,496.4583 636.9688,496.4583 Q637.2031,496.4583 637.4167,496.5104 Q637.6354,496.5625 637.8229,496.6615 L637.8229,497.5677 Q637.6146,497.375 637.4167,497.2865 Q637.2188,497.1927 637.0104,497.1927 Q636.5625,497.1927 636.3333,497.5521 Q636.1042,497.9063 636.1042,498.6042 Q636.1042,499.3021 636.3333,499.6615 Q636.5625,500.0156 637.0104,500.0156 Q637.2188,500.0156 637.4167,499.9271 Q637.6146,499.8333 637.8229,499.6406 L637.8229,500.5469 Z " fill="#000000"/><text fill="#000000" font-family="sans-serif" font-size="4.6667" lengthAdjust="spacing" textLength="30.3333" x="641.5" y="500.2822">PlayerService</text></g><!--link BaseResponseMessage to Status--><g id="link_BaseResponseMessage_Status"><path codeLine="458" d="M816.42,613.0167 C828.42,612.06 839.2363,611.1986 848.3263,610.4753 " fill="none" id="BaseResponseMessage-to-Status" style="stroke:#181818;stroke-width:0.3333333333333333;"/><polygon fill="#181818" points="850.32,610.3167,847.2237,609.2255,848.6586,610.4489,847.4352,611.8838,850.32,610.3167" style="stroke:#181818;stroke-width:0.3333333333333333;"/><text fill="#000000" font-family="sans-serif" font-size="4.3333" lengthAdjust="spacing" textLength="13.3333" x="826.6667" y="610.0223">status</text></g><!--link CustomFleet to Fleet--><g id="link_CustomFleet_Fleet"><path codeLine="459" d="M391.4033,121.6 C422.7633,124.67 480.9295,130.3684 505.3329,132.7584 " fill="none" id="CustomFleet-to-Fleet" style="stroke:#181818;stroke-width:0.3333333333333333;"/><polygon fill="#181818" points="507.3233,132.9533,504.4676,131.3339,505.6646,132.7909,504.2077,133.9879,507.3233,132.9533" style="stroke:#181818;stroke-width:0.3333333333333333;"/><text fill="#000000" font-family="sans-serif" font-size="4.3333" lengthAdjust="spacing" textLength="9.3333" x="438.1667" y="122.3556">fleet</text></g><!--reverse link Fleet to Warship--><g id="link_Fleet_Warship"><path codeLine="460" d="M533.3533,134 C557.2367,134 610.9533,134 637.81,134 " fill="none" id="Fleet-backto-Warship" style="stroke:#181818;stroke-width:0.3333333333333333;"/><polygon fill="none" points="529.3533,134,531.3533,135.3333,533.3533,134,531.3533,132.6667,529.3533,134" style="stroke:#181818;stroke-width:0.3333333333333333;"/><text fill="#000000" font-family="sans-serif" font-size="4.3333" lengthAdjust="spacing" textLength="18.3333" x="572.3333" y="132.689">warships</text><text fill="#000000" font-family="sans-serif" font-size="4.3333" lengthAdjust="spacing" textLength="2.6667" x="532.0556" y="138.574">1</text><text fill="#000000" font-family="sans-serif" font-size="4.3333" lengthAdjust="spacing" textLength="7.6667" x="627.4472" y="138.3927">0..*</text></g><!--reverse link GameService to WarshipDescription--><g id="link_GameService_WarshipDescription"><path codeLine="461" d="M395.8392,191.2467 C421.4692,187.5567 460.22,181.69 475.6667,177.6667 C485.7667,175.0367 496.8433,170.98 505.1333,167.7 " fill="none" id="GameService-backto-WarshipDescription" style="stroke:#181818;stroke-width:0.3333333333333333;"/><polygon fill="none" points="391.88,191.8167,394.0496,192.8514,395.8392,191.2467,393.6696,190.2119,391.88,191.8167" style="stroke:#181818;stroke-width:0.3333333333333333;"/><text fill="#000000" font-family="sans-serif" font-size="4.3333" lengthAdjust="spacing" textLength="57.3333" x="414.1667" y="176.3556">warshipDescriptionsForMini</text><text fill="#000000" font-family="sans-serif" font-size="4.3333" lengthAdjust="spacing" textLength="2.6667" x="394.5466" y="195.799">1</text><text fill="#000000" font-family="sans-serif" font-size="4.3333" lengthAdjust="spacing" textLength="7.6667" x="491.8244" y="174.3355">0..*</text></g><!--reverse link GameService to WarshipDescription--><g id="link_GameService_WarshipDescription"><path codeLine="462" d="M390.5502,187.6851 C394.9935,185.7484 396.05,184.9033 400,182 C405.41,178.02 403.9867,173.6633 410,170.6667 C435.2033,158.1033 467.8767,157.3867 490.6567,158.9567 " fill="none" id="GameService-backto-WarshipDescription-1" style="stroke:#181818;stroke-width:0.3333333333333333;"/><polygon fill="none" points="386.8833,189.2833,389.2495,189.7065,390.5502,187.6851,388.184,187.2619,386.8833,189.2833" style="stroke:#181818;stroke-width:0.3333333333333333;"/><text fill="#000000" font-family="sans-serif" font-size="4.3333" lengthAdjust="spacing" textLength="65" x="410.3333" y="157.3556">warshipDescriptionsForRegular</text><text fill="#000000" font-family="sans-serif" font-size="4.3333" lengthAdjust="spacing" textLength="2.6667" x="389.1036" y="185.6033">1</text><text fill="#000000" font-family="sans-serif" font-size="4.3333" lengthAdjust="spacing" textLength="7.6667" x="480.3806" y="162.9082">0..*</text></g><!--reverse link GameService to GameMapper--><g id="link_GameService_GameMapper"><path codeLine="463" d="M395.8477,196.1283 C401.6977,196.4383 404.1033,196.5133 410,196.6667 C440.46,197.46 475.7667,196.8433 497.4933,196.2867 " fill="none" id="GameService-backto-GameMapper" style="stroke:#181818;stroke-width:0.3333333333333333;"/><polygon fill="#181818" points="391.8533,195.9167,393.78,197.354,395.8477,196.1283,393.9211,194.691,391.8533,195.9167" style="stroke:#181818;stroke-width:0.3333333333333333;"/><text fill="#000000" font-family="sans-serif" font-size="4.3333" lengthAdjust="spacing" textLength="28.3333" x="428.6667" y="195.3556">gameMapper</text></g><!--reverse link MatchFleet to Fleet--><g id="link_MatchFleet_Fleet"><path codeLine="464" d="M393.3622,143.9201 C414.0822,143.4367 445.4233,142.3633 475.6667,139.6667 C486.4867,138.7 498.7867,136.9867 507.33,135.6933 " fill="none" id="MatchFleet-backto-Fleet" style="stroke:#181818;stroke-width:0.3333333333333333;"/><polygon fill="none" points="389.3633,144.0133,391.3939,145.2997,393.3622,143.9201,391.3317,142.6337,389.3633,144.0133" style="stroke:#181818;stroke-width:0.3333333333333333;"/><text fill="#000000" font-family="sans-serif" font-size="4.3333" lengthAdjust="spacing" textLength="28.3333" x="428.6667" y="138.3556">userIdToFleet</text><text fill="#000000" font-family="sans-serif" font-size="4.3333" lengthAdjust="spacing" textLength="2.6667" x="391.9653" y="148.3315">1</text><text fill="#000000" font-family="sans-serif" font-size="4.3333" lengthAdjust="spacing" textLength="7.6667" x="497.0206" y="140.4665">0..*</text></g><!--reverse link Warship to Point--><g id="link_Warship_Point"><path codeLine="465" d="M670.7665,138.6895 C680.7065,141.1095 690.4533,143.0833 702.6667,144.3333 C718.5833,145.96 722.7733,146.18 738.6667,144.3333 C750.0833,143.0067 762.84,139.7967 771.6367,137.3033 " fill="none" id="Warship-backto-Point" style="stroke:#181818;stroke-width:0.3333333333333333;"/><polygon fill="#181818" points="666.88,137.7433,668.5078,139.5119,670.7665,138.6895,669.1386,136.9209,666.88,137.7433" style="stroke:#181818;stroke-width:0.3333333333333333;"/><text fill="#000000" font-family="sans-serif" font-size="4.3333" lengthAdjust="spacing" textLength="10" x="715.6667" y="143.0223">start</text></g><!--link Warship to Point--><g id="link_Warship_Point"><path codeLine="466" d="M666.9333,134 C693.0833,134 746.1633,134 769.5867,134 " fill="none" id="Warship-to-Point" style="stroke:#181818;stroke-width:0.3333333333333333;"/><polygon fill="#181818" points="771.5867,134,768.5867,132.6667,769.92,134,768.5867,135.3333,771.5867,134" style="stroke:#181818;stroke-width:0.3333333333333333;"/><text fill="#000000" font-family="sans-serif" font-size="4.3333" lengthAdjust="spacing" textLength="8" x="716.6667" y="132.689">end</text></g><!--link Match to MatchStatus--><g id="link_Match_MatchStatus"><path codeLine="467" d="M383.6867,410.3633 C403.0633,410.3533 442.3933,410.0933 475.6667,408.3333 C483.18,407.9367 489.4348,407.454 496.6382,406.8007 " fill="none" id="Match-to-MatchStatus" style="stroke:#181818;stroke-width:0.3333333333333333;"/><polygon fill="#181818" points="498.63,406.62,495.5218,405.5631,496.9701,406.7705,495.7627,408.2189,498.63,406.62" style="stroke:#181818;stroke-width:0.3333333333333333;"/><text fill="#000000" font-family="sans-serif" font-size="4.3333" lengthAdjust="spacing" textLength="13.3333" x="436.1667" y="407.0223">status</text></g><!--link Match to Player--><g id="link_Match_Player"><path codeLine="468" d="M383.68,412.27 C389.4067,413.8 395.89,416.5167 400,421.3333 C413.6767,437.3567 394.87,453.01 410,467.6667 C431.31,488.31 446.6967,473.2633 475.6667,479.6667 C486.01,481.9533 495.7209,484.4854 504.1743,486.7988 " fill="none" id="Match-to-Player" style="stroke:#181818;stroke-width:0.3333333333333333;"/><polygon fill="#181818" points="506.1033,487.3267,503.5617,485.2488,504.4958,486.8867,502.8578,487.8209,506.1033,487.3267" style="stroke:#181818;stroke-width:0.3333333333333333;"/><text fill="#000000" font-family="sans-serif" font-size="4.3333" lengthAdjust="spacing" textLength="20.3333" x="432.6667" y="466.3556">opponent</text></g><!--link Match to Player--><g id="link_Match_Player"><path codeLine="469" d="M383.73,412.0733 C389.5467,413.5533 396.09,416.2867 400,421.3333 C411.56,436.25 395.89,493.1333 410,505.6667 C431.8167,525.05 447.0067,511.1867 475.6667,505.6667 C480.3667,504.76 481.1767,503.3267 485.6667,501.6667 C492.3967,499.1767 498.0891,497.2152 504.2258,495.1718 " fill="none" id="Match-to-Player-1" style="stroke:#181818;stroke-width:0.3333333333333333;"/><polygon fill="#181818" points="506.1233,494.54,502.8557,494.2227,504.542,495.0665,503.6982,496.7528,506.1233,494.54" style="stroke:#181818;stroke-width:0.3333333333333333;"/><text fill="#000000" font-family="sans-serif" font-size="4.3333" lengthAdjust="spacing" textLength="12.6667" x="436.5" y="504.3556">owner</text></g><!--link Match to Player--><g id="link_Match_Player"><path codeLine="470" d="M383.6667,412.1233 C389.4633,413.6167 396.0133,416.3467 400,421.3333 C418.7167,444.73 387.54,468.17 410,488 C423.9367,500.3067 479.0704,495.3838 504.1337,492.4338 " fill="none" id="Match-to-Player-2" style="stroke:#181818;stroke-width:0.3333333333333333;"/><polygon fill="#181818" points="506.12,492.2,502.9847,491.2265,504.4648,492.3948,503.2964,493.8749,506.12,492.2" style="stroke:#181818;stroke-width:0.3333333333333333;"/><text fill="#000000" font-family="sans-serif" font-size="4.3333" lengthAdjust="spacing" textLength="13.6667" x="436" y="486.689">winner</text></g><!--reverse link MatchController to MatchService--><g id="link_MatchController_MatchService"><path codeLine="471" d="M138.18,282.3333 C162.8633,282.3333 197.5467,282.3333 221.11,282.3333 " fill="none" id="MatchController-backto-MatchService" style="stroke:#181818;stroke-width:0.3333333333333333;"/><polygon fill="#181818" points="134.18,282.3333,136.18,283.6667,138.18,282.3333,136.18,281,134.18,282.3333" style="stroke:#181818;stroke-width:0.3333333333333333;"/><text fill="#000000" font-family="sans-serif" font-size="4.3333" lengthAdjust="spacing" textLength="29.3333" x="168.3333" y="281.0223">matchService</text></g><!--link MatchDao to MatchStatus--><g id="link_MatchDao_MatchStatus"><path codeLine="472" d="M388.41,431.3767 C409.1033,429.56 445.31,425.6667 475.6667,418.6667 C485.2833,416.45 493.9416,413.6442 502.0982,410.7075 " fill="none" id="MatchDao-to-MatchStatus" style="stroke:#181818;stroke-width:0.3333333333333333;"/><polygon fill="#181818" points="503.98,410.03,500.7057,409.7917,502.4119,410.5946,501.609,412.3007,503.98,410.03" style="stroke:#181818;stroke-width:0.3333333333333333;"/><text fill="#000000" font-family="sans-serif" font-size="4.3333" lengthAdjust="spacing" textLength="13.3333" x="436.1667" y="417.3556">status</text></g><!--link MatchDao to PlayerDao--><g id="link_MatchDao_PlayerDao"><path codeLine="473" d="M371.8633,438.0867 C372.8033,455.08 378.27,507.4767 410,529 C441.06,550.0667 486.9146,529.9166 506.898,519.2766 " fill="none" id="MatchDao-to-PlayerDao" style="stroke:#181818;stroke-width:0.3333333333333333;"/><polygon fill="#181818" points="508.6633,518.3367,505.3887,518.5697,507.1922,519.12,506.6419,520.9235,508.6633,518.3367" style="stroke:#181818;stroke-width:0.3333333333333333;"/><text fill="#000000" font-family="sans-serif" font-size="4.3333" lengthAdjust="spacing" textLength="29.3333" x="428.1667" y="522.689">@ManyToOne</text><text fill="#000000" font-family="sans-serif" font-size="4.3333" lengthAdjust="spacing" textLength="20.3333" x="432.6667" y="527.7332">opponent</text></g><!--link MatchDao to PlayerDao--><g id="link_MatchDao_PlayerDao"><path codeLine="474" d="M372.17,438.15 C374.59,463.15 385.9033,565.89 410,584.6667 C421.51,593.6367 463.9333,593.3433 475.6667,584.6667 C487.8733,575.6367 478.46,565.3633 485.6667,552 C492.89,538.6067 503.6945,526.9129 510.8645,519.8229 " fill="none" id="MatchDao-to-PlayerDao-1" style="stroke:#181818;stroke-width:0.3333333333333333;"/><polygon fill="#181818" points="512.2867,518.4167,509.216,519.578,511.1016,519.5885,511.091,521.4741,512.2867,518.4167" style="stroke:#181818;stroke-width:0.3333333333333333;"/><text fill="#000000" font-family="sans-serif" font-size="4.3333" lengthAdjust="spacing" textLength="29.3333" x="428.1667" y="578.3556">@ManyToOne</text><text fill="#000000" font-family="sans-serif" font-size="4.3333" lengthAdjust="spacing" textLength="12.6667" x="436.5" y="583.3999">owner</text></g><!--link MatchDao to PlayerDao--><g id="link_MatchDao_PlayerDao"><path codeLine="475" d="M372.5567,438.0833 C376.1967,459.4733 390.6567,537.5767 410,551.6667 C433.59,568.85 448.4567,562.2233 475.6667,551.6667 C493.02,544.9333 506.4235,529.0167 513.0268,520.0567 " fill="none" id="MatchDao-to-PlayerDao-2" style="stroke:#181818;stroke-width:0.3333333333333333;"/><polygon fill="#181818" points="514.2133,518.4467,511.3602,520.0706,513.2245,519.7883,513.5069,521.6527,514.2133,518.4467" style="stroke:#181818;stroke-width:0.3333333333333333;"/><text fill="#000000" font-family="sans-serif" font-size="4.3333" lengthAdjust="spacing" textLength="29.3333" x="428.1667" y="545.3556">@ManyToOne</text><text fill="#000000" font-family="sans-serif" font-size="4.3333" lengthAdjust="spacing" textLength="13.6667" x="436" y="550.3999">winner</text></g><!--link MatchDao to AbstractDao--><g id="link_MatchDao_AbstractDao"><path codeLine="476" d="M372.0767,438.0467 C374.1667,463.78 384.5033,573.8533 410,594 C415.7233,598.5233 469.8767,598.4433 475.6667,594 C489.2933,583.5433 472.04,567.1233 485.6667,556.6667 C511.5233,536.8233 526.4233,555.6233 559,556.6667 C634.6833,559.09 718.5807,565.625 757.2574,568.8484 " fill="none" id="MatchDao-to-AbstractDao" style="stroke:#181818;stroke-width:0.3333333333333333;"/><polygon fill="none" points="763.2367,569.3467,757.4235,566.8553,757.0913,570.8414,763.2367,569.3467" style="stroke:#181818;stroke-width:0.3333333333333333;"/></g><!--reverse link MatchMapper to PlayerMapper--><g id="link_MatchMapper_PlayerMapper"><path codeLine="477" d="M676.303,371.5474 C694.9397,377.3407 719.01,386.83 738.6667,403.3333 C759.5667,420.88 774.6167,450.8133 780.16,462.9667 " fill="none" id="MatchMapper-backto-PlayerMapper" style="stroke:#181818;stroke-width:0.3333333333333333;"/><polygon fill="#181818" points="672.4833,370.36,673.9974,372.2269,676.303,371.5474,674.789,369.6805,672.4833,370.36" style="stroke:#181818;stroke-width:0.3333333333333333;"/><text fill="#000000" font-family="sans-serif" font-size="4.3333" lengthAdjust="spacing" textLength="29" x="706.1667" y="381.0223">playerMapper</text></g><!--reverse link MatchService to MatchFleet--><g id="link_MatchService_MatchFleet"><path codeLine="478" d="M248.0213,273.6201 C256.1479,261.3701 273.6067,233.54 283.6667,204.6667 C285.8467,198.41 282.44,195.36 286.3333,190 C302.6967,167.4633 333.6633,154.91 353.27,148.8967 " fill="none" id="MatchService-backto-MatchFleet" style="stroke:#181818;stroke-width:0.3333333333333333;"/><polygon fill="none" points="245.81,276.9533,248.0267,276.0238,248.0213,273.6201,245.8046,274.5496,245.81,276.9533" style="stroke:#181818;stroke-width:0.3333333333333333;"/><text fill="#000000" font-family="sans-serif" font-size="4.3333" lengthAdjust="spacing" textLength="45.6667" x="286.6667" y="155.689">matchIdToMatchFleet</text><text fill="#000000" font-family="sans-serif" font-size="4.3333" lengthAdjust="spacing" textLength="2.6667" x="244.052" y="273.2745">1</text><text fill="#000000" font-family="sans-serif" font-size="4.3333" lengthAdjust="spacing" textLength="7.6667" x="342.9347" y="153.7825">0..*</text></g><!--reverse link MatchService to ValidatorService--><g id="link_MatchService_ValidatorService"><path codeLine="479" d="M249.4192,273.9134 C256.8925,265.4401 269.8567,252.0533 286.3333,242.6667 C308.5433,230.0133 381.4933,207.3667 400,225 C416.67,240.8833 394.0667,415.3767 410,432 C420.9133,443.3833 681.19,446.8567 692.6667,457.6667 C714.2633,478.01 682.2267,502.1633 702.6667,523.6667 C713.9167,535.5 723.03,526.3 738.6667,531 C749.8633,534.3667 762.1767,539.46 770.8933,543.3133 " fill="none" id="MatchService-backto-ValidatorService" style="stroke:#181818;stroke-width:0.3333333333333333;"/><polygon fill="#181818" points="246.7733,276.9133,249.0962,276.2953,249.4192,273.9134,247.0963,274.5314,246.7733,276.9133" style="stroke:#181818;stroke-width:0.3333333333333333;"/><text fill="#000000" font-family="sans-serif" font-size="4.3333" lengthAdjust="spacing" textLength="34" x="501.3333" y="440.3556">validatorService</text></g><!--reverse link MatchService to GameService--><g id="link_MatchService_GameService"><path codeLine="480" d="M245.5585,273.1717 C250.4885,260.3117 263.27,231.58 286.3333,215.3333 C305.5067,201.8267 332.5,197.1 350.8167,195.4733 " fill="none" id="MatchService-backto-GameService" style="stroke:#181818;stroke-width:0.3333333333333333;"/><polygon fill="#181818" points="244.1267,276.9067,246.0876,275.5165,245.5585,273.1717,243.5976,274.5619,244.1267,276.9067" style="stroke:#181818;stroke-width:0.3333333333333333;"/><text fill="#000000" font-family="sans-serif" font-size="4.3333" lengthAdjust="spacing" textLength="28" x="295.5" y="197.0223">gameService</text></g><!--reverse link MatchService to MatchMapper--><g id="link_MatchService_MatchMapper"><path codeLine="481" d="M266.5323,285.0674 C286.829,287.3174 314.8933,290.35 342.6667,293 C438.7233,302.1667 466.93,282.4533 559,311.3333 C594.13,322.3533 630.4067,348.31 645.1533,359.6 " fill="none" id="MatchService-backto-MatchMapper" style="stroke:#181818;stroke-width:0.3333333333333333;"/><polygon fill="#181818" points="262.5567,284.6267,264.3976,286.1722,266.5323,285.0674,264.6914,283.5218,262.5567,284.6267" style="stroke:#181818;stroke-width:0.3333333333333333;"/><text fill="#000000" font-family="sans-serif" font-size="4.3333" lengthAdjust="spacing" textLength="29.6667" x="428" y="293.689">matchMapper</text></g><!--reverse link MatchService to MatchRepository--><g id="link_MatchService_MatchRepository"><path codeLine="482" d="M266.58,282.2695 C289.3933,282.2095 322.3033,282.1267 346.6167,282.0633 " fill="none" id="MatchService-backto-MatchRepository" style="stroke:#181818;stroke-width:0.3333333333333333;"/><polygon fill="#181818" points="262.58,282.28,264.5835,283.6081,266.58,282.2695,264.5765,280.9414,262.58,282.28" style="stroke:#181818;stroke-width:0.3333333333333333;"/><text fill="#000000" font-family="sans-serif" font-size="4.3333" lengthAdjust="spacing" textLength="36" x="291.5" y="281.0223">matchRepository</text></g><!--reverse link MatchService to ActionHistoryService--><g id="link_MatchService_ActionHistoryService"><path codeLine="483" d="M253.1891,290.0474 C274.9758,305.2674 332.58,345.2767 342.6667,349.6667 C343.7333,350.13 344.8367,350.5667 345.96,350.97 " fill="none" id="MatchService-backto-ActionHistoryService" style="stroke:#181818;stroke-width:0.3333333333333333;"/><polygon fill="#181818" points="249.91,287.7567,250.786,289.9951,253.1891,290.0474,252.3131,287.809,249.91,287.7567" style="stroke:#181818;stroke-width:0.3333333333333333;"/><text fill="#000000" font-family="sans-serif" font-size="4.3333" lengthAdjust="spacing" textLength="43.6667" x="287.6667" y="312.689">actionHistoryService</text></g><!--reverse link MatchService to NotificationService--><g id="link_MatchService_NotificationService"><path codeLine="484" d="M259.111,289.4113 C268.8143,294.0813 277.6567,300.1433 283.6667,311.3333 C289.31,321.8433 282.76,407.2833 286.3333,418.6667 C316.2133,513.8533 329.68,546.8233 410,606 C428.07,619.3133 582.2933,656.6233 604,662.3333 C611.8667,664.4033 620.5033,666.4967 628.26,668.3133 " fill="none" id="MatchService-backto-NotificationService" style="stroke:#181818;stroke-width:0.3333333333333333;"/><polygon fill="#181818" points="255.5067,287.6767,256.7306,289.7454,259.111,289.4113,257.887,287.3426,255.5067,287.6767" style="stroke:#181818;stroke-width:0.3333333333333333;"/><text fill="#000000" font-family="sans-serif" font-size="4.3333" lengthAdjust="spacing" textLength="39" x="423.3333" y="604.689">notificationService</text></g><!--reverse link MatchService to PlayerService--><g id="link_MatchService_PlayerService"><path codeLine="485" d="M253.8047,274.7688 C262.5347,269.1754 273.4233,262.52 286.3333,256 C310.5733,243.7567 316.0467,237.6967 342.6667,232.3333 C367.6467,227.3 381.57,214.7367 400,232.3333 C417.4033,248.95 393.0667,431.57 410,448.6667 C421.6667,460.4467 542.6767,454.0833 559,457 C578.3733,460.4633 583.2533,462.22 601.3333,470 C617.0233,476.7533 634.0767,487.0833 643.8567,493.3233 " fill="none" id="MatchService-backto-PlayerService" style="stroke:#181818;stroke-width:0.3333333333333333;"/><polygon fill="#181818" points="250.4367,276.9267,252.84,276.9704,253.8047,274.7688,251.4014,274.725,250.4367,276.9267" style="stroke:#181818;stroke-width:0.3333333333333333;"/><text fill="#000000" font-family="sans-serif" font-size="4.3333" lengthAdjust="spacing" textLength="28.6667" x="428.5" y="447.3556">playerService</text></g><!--link MatchUI to MatchStatus--><g id="link_MatchUI_MatchStatus"><path codeLine="486" d="M385.9633,389.63 C412.3567,392.6333 466.7662,398.8304 496.5928,402.227 " fill="none" id="MatchUI-to-MatchStatus" style="stroke:#181818;stroke-width:0.3333333333333333;"/><polygon fill="#181818" points="498.58,402.4533,495.7501,400.7891,496.924,402.2648,495.4484,403.4387,498.58,402.4533" style="stroke:#181818;stroke-width:0.3333333333333333;"/><text fill="#000000" font-family="sans-serif" font-size="4.3333" lengthAdjust="spacing" textLength="27.6667" x="429" y="391.3556">matchStatus</text></g><!--link ShotGameOwnerResponseMessage to BaseResponseMessage--><g id="link_ShotGameOwnerResponseMessage_BaseResponseMessage"><path codeLine="487" d="M151.3,415.6733 C153.8133,417.1867 156.0933,419.05 158,421.3333 C172.44,438.65 152.6833,607.4567 168,624 C190.37,648.1633 208.57,633.3333 241.5,633.3333 C241.5,633.3333 241.5,633.3333 443.1667,633.3333 C502.12,633.3333 669.8824,622.9486 743.2357,618.2286 " fill="none" id="ShotGameOwnerResponseMessage-to-BaseResponseMessage" style="stroke:#181818;stroke-width:0.3333333333333333;"/><polygon fill="none" points="749.2233,617.8433,743.1073,616.2327,743.3641,620.2245,749.2233,617.8433" style="stroke:#181818;stroke-width:0.3333333333333333;"/></g><!--link ShotGameRequestMessage to BaseRequestMessage--><g id="link_ShotGameRequestMessage_BaseRequestMessage"><path codeLine="488" d="M148.61,393.1333 C152.0233,394.6467 155.23,396.5667 158,399 C237.22,468.5467 136.0833,621 241.5,621 C241.5,621 241.5,621 443.1667,621 C494.66,621 507.6233,622.09 559,618.6667 C627.87,614.08 702.2364,604.571 745.3598,598.6143 " fill="none" id="ShotGameRequestMessage-to-BaseRequestMessage" style="stroke:#181818;stroke-width:0.3333333333333333;stroke-dasharray:7.0,7.0;"/><polygon fill="none" points="751.3033,597.7933,745.0861,596.6331,745.6334,600.5955,751.3033,597.7933" style="stroke:#181818;stroke-width:0.3333333333333333;"/></g><!--link ShotGameResponseMessage to BaseResponseMessage--><g id="link_ShotGameResponseMessage_BaseResponseMessage"><path codeLine="489" d="M111.7067,438.07 C115.6767,467.5667 136.1767,608.8633 168,636.3333 C192.9267,657.85 208.57,645.6667 241.5,645.6667 C241.5,645.6667 241.5,645.6667 443.1667,645.6667 C555.7567,645.6667 682.6081,629.9096 743.2914,621.4029 " fill="none" id="ShotGameResponseMessage-to-BaseResponseMessage" style="stroke:#181818;stroke-width:0.3333333333333333;"/><polygon fill="none" points="749.2333,620.57,743.0138,619.4223,743.5691,623.3836,749.2333,620.57" style="stroke:#181818;stroke-width:0.3333333333333333;"/></g><!--reverse link ActionHistoryController to ActionHistoryService--><g id="link_ActionHistoryController_ActionHistoryService"><path codeLine="490" d="M264.9089,350.6435 C272.6789,352.6001 277.9333,353.6133 286.3333,354.6667 C304.97,357.0033 326.09,357.4233 342.5733,357.2567 " fill="none" id="ActionHistoryController-backto-ActionHistoryService" style="stroke:#181818;stroke-width:0.3333333333333333;"/><polygon fill="#181818" points="261.03,349.6667,262.6439,351.448,264.9089,350.6435,263.295,348.8621,261.03,349.6667" style="stroke:#181818;stroke-width:0.3333333333333333;"/><text fill="#000000" font-family="sans-serif" font-size="4.3333" lengthAdjust="spacing" textLength="43.6667" x="287.6667" y="353.3556">actionHistoryService</text></g><!--link ActionHistoryDao to MatchDao--><g id="link_ActionHistoryDao_MatchDao"><path codeLine="491" d="M251.1267,372.0067 C268.47,382.2367 307.9733,405.0267 342.6667,421.3333 C347.1267,423.43 350.2241,424.7596 354.7308,426.5462 " fill="none" id="ActionHistoryDao-to-MatchDao" style="stroke:#181818;stroke-width:0.3333333333333333;"/><polygon fill="#181818" points="356.59,427.2833,354.2926,424.9382,355.0406,426.6691,353.3098,427.4172,356.59,427.2833" style="stroke:#181818;stroke-width:0.3333333333333333;"/><text fill="#000000" font-family="sans-serif" font-size="4.3333" lengthAdjust="spacing" textLength="29.3333" x="294.8333" y="386.689">@ManyToOne</text><text fill="#000000" font-family="sans-serif" font-size="4.3333" lengthAdjust="spacing" textLength="13.6667" x="302.6667" y="391.7332">match</text></g><!--link ActionHistoryDao to PlayerDao--><g id="link_ActionHistoryDao_PlayerDao"><path codeLine="492" d="M266.85,365.1533 C273.28,363.5133 279.55,360.5533 283.6667,355.3333 C289.45,348.0033 279.6267,277.83 286.3333,271.3333 C322.6167,236.1833 363.4967,236.41 400,271.3333 C418.19,288.7367 392.26,479.81 410,497.6667 C415.15,502.85 468.46,499.81 475.6667,501 C484.6367,502.48 492.5041,504.5811 500.4007,507.0444 " fill="none" id="ActionHistoryDao-to-PlayerDao" style="stroke:#181818;stroke-width:0.3333333333333333;"/><polygon fill="#181818" points="502.31,507.64,499.8432,505.4738,500.7189,507.1437,499.0491,508.0195,502.31,507.64" style="stroke:#181818;stroke-width:0.3333333333333333;"/><text fill="#000000" font-family="sans-serif" font-size="4.3333" lengthAdjust="spacing" textLength="29.3333" x="356.6667" y="239.0223">@ManyToOne</text><text fill="#000000" font-family="sans-serif" font-size="4.3333" lengthAdjust="spacing" textLength="13" x="364.8333" y="244.0666">player</text></g><!--link ActionHistoryDao to AbstractDao--><g id="link_ActionHistoryDao_AbstractDao"><path codeLine="493" d="M242.2633,372.15 C242.9133,394.44 247.92,479.6567 286.3333,533.6667 C324.7467,587.6767 346.6133,597.6367 410,617 C423.9567,621.2633 461.13,618.26 475.6667,617 C514.32,613.6533 523.34,608.03 561.6667,602 C636.0533,590.2967 718.9303,579.255 757.3169,574.255 " fill="none" id="ActionHistoryDao-to-AbstractDao" style="stroke:#181818;stroke-width:0.3333333333333333;"/><polygon fill="none" points="763.2667,573.48,757.0586,572.2717,757.5753,576.2382,763.2667,573.48" style="stroke:#181818;stroke-width:0.3333333333333333;"/></g><!--reverse link ActionHistoryMapper to MatchMapper--><g id="link_ActionHistoryMapper_MatchMapper"><path codeLine="494" d="M551.4333,365 C576.6967,365 608.8333,365 631.3333,365 " fill="none" id="ActionHistoryMapper-backto-MatchMapper" style="stroke:#181818;stroke-width:0.3333333333333333;"/><polygon fill="#181818" points="547.4333,365,549.4333,366.3333,551.4333,365,549.4333,363.6667,547.4333,365" style="stroke:#181818;stroke-width:0.3333333333333333;"/><text fill="#000000" font-family="sans-serif" font-size="4.3333" lengthAdjust="spacing" textLength="29.6667" x="566.6667" y="363.689">matchMapper</text></g><!--reverse link ActionHistoryMapper to PlayerMapper--><g id="link_ActionHistoryMapper_PlayerMapper"><path codeLine="495" d="M551.255,366.0478 C555.6516,367.2945 555.9,368.2967 559,371.6667 C563.98,377.08 556.4733,399.4567 561.6667,404.6667 C564.79,407.8 596.97,407.2767 601.3333,408 C602.54,408.2 602.8,408.4467 604,408.6667 C643.0333,415.8633 654.86,407.2433 692.6667,419.3333 C725.4933,429.8333 760.1567,452.5567 775.02,462.95 " fill="none" id="ActionHistoryMapper-backto-PlayerMapper" style="stroke:#181818;stroke-width:0.3333333333333333;"/><polygon fill="#181818" points="547.4067,364.9567,548.9671,366.785,551.255,366.0478,549.6945,364.2195,547.4067,364.9567" style="stroke:#181818;stroke-width:0.3333333333333333;"/><text fill="#000000" font-family="sans-serif" font-size="4.3333" lengthAdjust="spacing" textLength="29" x="637.8333" y="407.3556">playerMapper</text></g><!--reverse link ActionHistoryService to ValidatorService--><g id="link_ActionHistoryService_ValidatorService"><path codeLine="496" d="M401.6842,364.415 C421.4942,387.6383 388.1767,478.6567 410,500 C415.2233,505.11 469.5633,499.3167 475.6667,503.3333 C484.0767,508.87 477.65,517.57 485.6667,523.6667 C509.9633,542.14 670.5433,549.8167 702.6667,551.3333 C721.7133,552.2333 743.33,551.3967 759.2633,550.43 " fill="none" id="ActionHistoryService-backto-ValidatorService" style="stroke:#181818;stroke-width:0.3333333333333333;"/><polygon fill="#181818" points="398.7467,361.7,399.3104,364.0367,401.6842,364.415,401.1204,362.0783,398.7467,361.7" style="stroke:#181818;stroke-width:0.3333333333333333;"/><text fill="#000000" font-family="sans-serif" font-size="4.3333" lengthAdjust="spacing" textLength="34" x="564.5" y="539.689">validatorService</text></g><!--reverse link ActionHistoryService to ActionHistoryMapper--><g id="link_ActionHistoryService_ActionHistoryMapper"><path codeLine="497" d="M404.0775,360.8035 C407.4075,361.1835 406.79,361.07 410,361.3333 C436.8333,363.5333 467.5167,364.42 489.3067,364.7733 " fill="none" id="ActionHistoryService-backto-ActionHistoryMapper" style="stroke:#181818;stroke-width:0.3333333333333333;"/><polygon fill="#181818" points="400.1033,360.35,401.9393,361.9015,404.0775,360.8035,402.2416,359.252,400.1033,360.35" style="stroke:#181818;stroke-width:0.3333333333333333;"/><text fill="#000000" font-family="sans-serif" font-size="4.3333" lengthAdjust="spacing" textLength="16.6667" x="434.5" y="360.0223">mapper</text></g><!--reverse link ActionHistoryService to ActionHistoryRepository--><g id="link_ActionHistoryService_ActionHistoryRepository"><path codeLine="498" d="M404.0325,353.0155 C428.5525,350.5021 459.9933,347.28 485.6133,344.6533 " fill="none" id="ActionHistoryService-backto-ActionHistoryRepository" style="stroke:#181818;stroke-width:0.3333333333333333;"/><polygon fill="#181818" points="400.0533,353.4233,402.1789,354.5458,404.0325,353.0155,401.907,351.893,400.0533,353.4233" style="stroke:#181818;stroke-width:0.3333333333333333;"/><text fill="#000000" font-family="sans-serif" font-size="4.3333" lengthAdjust="spacing" textLength="50.3333" x="417.6667" y="344.689">actionHistoryRepository</text></g><!--reverse link ActionHistoryService to NotificationService--><g id="link_ActionHistoryService_NotificationService"><path codeLine="499" d="M401.6842,364.415 C421.8175,388.045 387.82,480.6133 410,502.3333 C415.22,507.4433 469.98,501.08 475.6667,505.6667 C488.9267,516.36 475.1167,529.2933 485.6667,542.6667 C521.9267,588.6233 570.26,556.0567 601.3333,605.6667 C604.68,611.01 599.9733,657.4833 604,662.3333 C609.3867,668.8233 617.7367,671.9967 625.9667,673.4433 " fill="none" id="ActionHistoryService-backto-NotificationService" style="stroke:#181818;stroke-width:0.3333333333333333;"/><polygon fill="#181818" points="398.7467,361.7,399.3104,364.0367,401.6842,364.415,401.1204,362.0783,398.7467,361.7" style="stroke:#181818;stroke-width:0.3333333333333333;"/><text fill="#000000" font-family="sans-serif" font-size="4.3333" lengthAdjust="spacing" textLength="39" x="498.8333" y="541.3556">notificationService</text></g><!--link NotificationResponseMessage to TypeNotification--><g id="link_NotificationResponseMessage_TypeNotification"><path codeLine="500" d="M692.68,651.4367 C714.4733,651.4933 738.68,651.5549 757.1467,651.6016 " fill="none" id="NotificationResponseMessage-to-TypeNotification" style="stroke:#181818;stroke-width:0.3333333333333333;"/><polygon fill="#181818" points="759.1467,651.6067,756.15,650.2658,757.48,651.6025,756.1433,652.9324,759.1467,651.6067" style="stroke:#181818;stroke-width:0.3333333333333333;"/><text fill="#000000" font-family="sans-serif" font-size="4.3333" lengthAdjust="spacing" textLength="9.3333" x="716" y="650.3556">type</text></g><!--link NotificationResponseMessage to BaseResponseMessage--><g id="link_NotificationResponseMessage_BaseResponseMessage"><path codeLine="501" d="M680.0067,645.9933 C697.02,642.4467 719.28,637.3967 738.6667,631.6667 C749.0767,628.59 755.0063,626.5204 763.623,623.1771 " fill="none" id="NotificationResponseMessage-to-BaseResponseMessage" style="stroke:#181818;stroke-width:0.3333333333333333;"/><polygon fill="none" points="769.2167,621.0067,762.8995,621.3125,764.3464,625.0416,769.2167,621.0067" style="stroke:#181818;stroke-width:0.3333333333333333;"/></g><!--reverse link PlayerController to PlayerService--><g id="link_PlayerController_PlayerService"><path codeLine="502" d="M545.6404,474.4703 C571.0571,480.2503 607.6267,488.57 631.8233,494.0767 " fill="none" id="PlayerController-backto-PlayerService" style="stroke:#181818;stroke-width:0.3333333333333333;"/><polygon fill="#181818" points="541.74,473.5833,543.3945,475.327,545.6404,474.4703,543.9859,472.7267,541.74,473.5833" style="stroke:#181818;stroke-width:0.3333333333333333;"/><text fill="#000000" font-family="sans-serif" font-size="4.3333" lengthAdjust="spacing" textLength="28.6667" x="567.1667" y="477.0223">playerService</text></g><!--link PlayerDao to AbstractDao--><g id="link_PlayerDao_AbstractDao"><path codeLine="503" d="M535.3033,516.3567 C574.1967,524.19 670.2267,543.4267 702.6667,549 C718.6067,551.74 725.57,544.8433 738.6667,554.3333 C740.8133,555.89 739.2867,557.9833 741.3333,559.6667 C747.49,564.7267 749.8621,566.3129 757.3554,567.8696 " fill="none" id="PlayerDao-to-AbstractDao" style="stroke:#181818;stroke-width:0.3333333333333333;"/><polygon fill="none" points="763.23,569.09,757.7622,565.9114,756.9486,569.8278,763.23,569.09" style="stroke:#181818;stroke-width:0.3333333333333333;"/></g><!--reverse link PlayerService to ValidatorService--><g id="link_PlayerService_ValidatorService"><path codeLine="504" d="M665.3025,506.189 C673.7425,511.369 682.9467,517.57 692.6667,526.3333 C697.74,530.9067 696.6667,534.74 702.6667,538 C720.0533,547.4433 742.61,549.7067 759.31,549.84 " fill="none" id="PlayerService-backto-ValidatorService" style="stroke:#181818;stroke-width:0.3333333333333333;"/><polygon fill="#181818" points="661.8933,504.0967,662.9005,506.2792,665.3025,506.189,664.2953,504.0065,661.8933,504.0967" style="stroke:#181818;stroke-width:0.3333333333333333;"/><text fill="#000000" font-family="sans-serif" font-size="4.3333" lengthAdjust="spacing" textLength="34" x="703.6667" y="536.689">validatorService</text></g><!--reverse link PlayerService to NotificationService--><g id="link_PlayerService_NotificationService"><path codeLine="505" d="M631.2832,505.3868 C612.2099,512.3602 586.4167,525.2433 574.6667,549.5 C552.0733,596.13 566.6933,626.3767 604,662.3333 C609.8633,667.9867 617.9867,671.01 625.8967,672.5733 " fill="none" id="PlayerService-backto-NotificationService" style="stroke:#181818;stroke-width:0.3333333333333333;"/><polygon fill="#181818" points="635.04,504.0133,632.7038,503.4478,631.2832,505.3868,633.6194,505.9524,635.04,504.0133" style="stroke:#181818;stroke-width:0.3333333333333333;"/><text fill="#000000" font-family="sans-serif" font-size="4.3333" lengthAdjust="spacing" textLength="39" x="562" y="553.8556">notificationService</text></g><!--reverse link PlayerService to PlayerMapper--><g id="link_PlayerService_PlayerMapper"><path codeLine="506" d="M676.8485,493.017 C701.0985,487.3537 737.5533,478.8333 761.9267,473.14 " fill="none" id="PlayerService-backto-PlayerMapper" style="stroke:#181818;stroke-width:0.3333333333333333;"/><polygon fill="#181818" points="672.9533,493.9267,675.2042,494.7702,676.8485,493.017,674.5977,492.1734,672.9533,493.9267" style="stroke:#181818;stroke-width:0.3333333333333333;"/><text fill="#000000" font-family="sans-serif" font-size="4.3333" lengthAdjust="spacing" textLength="16.6667" x="712.3333" y="478.0223">mapper</text></g><!--reverse link PlayerService to PlayerRepository--><g id="link_PlayerService_PlayerRepository"><path codeLine="507" d="M676.9533,498.6667 C700.0267,498.6667 733.6733,498.6667 758.27,498.6667 " fill="none" id="PlayerService-backto-PlayerRepository" style="stroke:#181818;stroke-width:0.3333333333333333;"/><polygon fill="#181818" points="672.9533,498.6667,674.9533,500,676.9533,498.6667,674.9533,497.3333,672.9533,498.6667" style="stroke:#181818;stroke-width:0.3333333333333333;"/><text fill="#000000" font-family="sans-serif" font-size="4.3333" lengthAdjust="spacing" textLength="35.3333" x="703" y="497.3556">playerRepository</text></g><!--SRC=[xHpPSkEuyJdw2jRanTwnc6njdfIgL6HRjfdHuPBaTRARAXKjGXB65A4b8O-LoVnxSF00I90cGUeORrvcB0BeRZGQVPCkM6038yE7onKs7EY3EOR8QmLpsmN6Zt_wgTLgsKy1zkqvDkQk7GI6lpNdJxuPm2VWGzip5y36Mn-O2-W7s0o0RJxP6Bl0dAFr6dbcDrn-RIFZQ-iFNnSGkCutepttoKBWTB7HCJxRBxQ9uHgOlo0FEDTaO4f-jRuHzD33m5_OSr0PywKTW37uRGi2F011O2y18U1R_HrnkC46UG580CSx-mXy7_dN89ZxS4EvIJOumJxqbcJE6k0L8fF-EBUztczRspNE38HNm2UJHa-V2VkDS_Bd4q8ki3rXmKT0PmTq-fjJLtQmka8ECCxe1C90SH0ZJWmV30cZN07UTbsP5nDCnWDf-xtnU3GMVey-CV1wlFxPTg5ZO-HFWFy2vnAZso_H81EXPzl7jXa-W-9QOVlH6a0PoPaeSPD9uXP3rvm0YMtHkb2Wo78__4jQ_uAWexTTRm6NMvzJFY27vmxipGRuL-80strCqZgPnGyJ-KkJFLopXoAO-ZHDDbHI9c2-zI7U5P0LBQCiNc6y2GaBsFg5Rw_15-G_4qGSKeZ6j3qFOOxg2tWodxRGTO0Vc7S4H8JLE7yB65qQpRw1Bb4TLoiRUZ9zVi274gwbuL4m2pR7l8gdYq2s0I1N7DlG3IB9F3j_UwU4pNIbmrUQ3naezS_f4JnDqFmPu3975AglInyzKtOOV21d7siscJmYDAqtqRb98CPW2ObktILtGS3giq7WJp1QRtgUiq54DGNi9eMhyWyZO5jIo8e4B8jUWvrBWjUysWO4y8qB0CxgzbiVEW71yEklLdeeiWU2oe_60wugLHhx1As13jEox5h6dEfN0qLPV4-FzAyYjRRZFDf-i88RilCluL-TYbH641GY-axEuPRy4ze5yTeRNwa8mZcnWak06NSbDYQsRyJy5iA6BAK248puHJWp6ZXcuyA0mUYBntWUSe-XvvTCO1H3UeFyqOPuO83jeGdynRWOOSqYgdEw2cyeFXVkWCrkUyFUk3ljpMxwlTvKeP2I1GDhQCqcrY-z-BJJKzekYgs2k_ZBPxEFbajc4IDVpBSzHvAXCNc0rfBLMO7viwXOHNvQZ2_QIZg3Px925C628UfeAR8BuvKpXFor2__AkTlaFaLRUft0_u1adV3hN8yEqNijXUSYkjD23198PzCdLh81SkYs8nLGZz41ePv2YdTGHXV8-cpqseSUQ4mP8V74C-4RHSW5d21SsucShA4dh9DL9rsKcAzco0pgY5T8J2w9MV6_I784etyAXtEnd-raBT9fqYgWqg1UkgPlAH3v4YjlmqVeGTnRR_0kQvyjbTiZNAI2fVKiNWfb6mQMnsBgUnH0klMkZxR4X9oHgtz30Ked1eE-dNgKTxZ9yISYqSo1gyuuQmlQpz1r6t1FB_R5Ua5GQA25ztV8_tVM4b1IuWe6lTUDYtpWI28KHKr5Blb9H2i2_MSvwmE0apc6QiCv4jDW73ImyNoL1AMoWnX9v3NoGEuksCn76-AkwuQELttMBg3dHDWZRuvcXIpPWNvuiAxVjYCIj0SEfGuuwabLeAs-0wb9EtrKBxfEPVCiPug48qumaKXQMm8pLp_HlSE7mMLlF9kEPYnUomszX8atezlPusXOPkgTDIqpxPFLxvUPDx0capBp9dUZqTGQtiwwuz73yBhCafz7LcPU-pNpP9SzrRtcNeJnL-MgNV9KLpeYKozcp5pu0eBqxZyclkO-6B22-NeD1f-OFvCptAY-plh3SiMGE8Wu8nXgrl2vgiqsnJI6Tv-fl3MrNjo6IH827PKY52KbZAGj3uEbLBRu_lER0bEka8TzvBgfBET7NbYEZ5TIfQk8uoe1aoeYg_mMZfIcvkhZf51Ae5m2ukOsiTDR4L0fn77MHnyd1L0E5xy1DN0n01LmWQ0sDb1cRv-9Sr1NOluHmYY1BbWXN1VT98IHXwxUZKwrYDJHTAUik8JIJ6J4n59-SHq_etEY1W03XGdJqYHjN7j7eD-p_x99s7DDsIUdA7Kf25i-CnmRwOFL9Yc77WgIfc-fVj43N8j9cjrDabBRqEmPydUfGb_KuHJ6Xzt8Wol87cQNNEx2xfwGHvEeWAr3QhXOcmZBaya0EHMDyi0lTr7eEODErtCut24h6_6heOf2B_R52qKmhYAPNlBJehUUCYogPEPN7UDag-swX0Dm0UUypUNCmBiDgB9FJrXkJibY2PugTRrldE6HiTCCZKznqfvbgImFyepDvOwcKgBRSgDLbnCoPnUv2Ha-CgGkHKoeIBiYVvDc9QCySl2KkwwfxZc6a27nHcHYw-X-THpm_eEFoFVW9tSgheTuyCn-K2s9DYFNYIZDLvId5c8HsnT78uM6JPvySAFzxiF1onrBIyEKOdepZPvPN3KNtuw0HEANgrfLclYyXj8_ObHCDptacepVLNsrajkv4OutLDcGaAOuHqj7eHpSHvhdBILKB5Y7JHgqYQV24eP1hWbjufHKzSC3P2l42j364UnPqsv1Mm0lg-S6tBDQn5uKte4ufrFjtP2i1H6pEjr-N_XrDHhSztlJdfZPiOQp-_7eTjoRJDHFPuzTQyeR6sUZ-_lHi3USbfZvEEo9BwPCfjtnT7RR7VI4XtH-pP3cmQgGnK9X32efRt6SkbPvWyeKMDn503t5qlTM2eZkE0kCYzxAMggQzjimk8DOrOH1HgBqm2FhwJkbhdrETNx9JgIye4630J5IB53dZfCwFODfv71dhpqTXKfTFEfq82aCfUoNCFAgl4IxTrr7ItYPUsyARmWvUq_PmHHfDVbDcTE_E6n3JTqO3in8i-a0TyHcROgp5OdKaBypk-pd7VzLmJRbnHl2b5nNzdT-iufE8Azm7KLQqK7Ly7nJw4MmZPVkYhPQhQ9NHL2-mtDliEw7GGErg_gnMzuRCirAa5ozs-XM4T-IquO9Jr7DpykMD76Z-FR1-5eLoYBW-ovS3aBBLIRpLWgWaBqf2N4lAgHUjIpCsijYytjG8kb-QMbGAxzR24MhXpibjuLbjFnal4fWowOR5Odz8_eZcUHSMcpthKjrlIAfk2iMTeko4ugGzVsunBaSKNtK9VxAn1IiYUHYKEvh51Fopo2zL0x8F2VY_9anNzaUSELCjaF447gszCaU-YQeuZCnsMZFSyIDCRkL1z0FvK2xOw18g6gaROkx4aHflHrRrvFPm_rrTohcJWVTwTNTJ9NHvIDtrcGw6lyhyrmtvohR4P50uNXpeutYMCJBIRbk28L4_jxfJPKuMjnW7HQ4D4n2YEGg1bEk67i0X7KvbWvtZoE6forLUuY2lLGBKeOvv5dkKTGezYfZqqqi2JN0DbI1ZkFE9egq-ZpI32CbE7kC62ztOSE1bscWQARTKTf88o5StC5mBD4_0Nj0JfhJKgP1AcPOvJOUUQNE-xGSGZKfExZfouHRyRwRq1snTMsrclZQPhlzDqFtKvKTWt-8hQN_GRXgw8KFtNJuPt9QEci__FZ1GEssyU7Ffld31qFpLTDEz5sAgliNlphL22do1r8LNoowGVu0Ul1xe7CCbblNzckG-WCXK_yhRnrZ6VzeQRSIrMDN9E7Ik_GjFIdLu0P_qvvTRbyNhSQzZj2I-B-bbJ-jXZFRMLLTdUbZb_KwyLF2AlzHSDD-dsCWvcrLhPflB5UJSCNxCfsmlJlyRApk6tL75R_g16JYf8vX_7rWUxif6ddWtrujYTm3ETf2sZmjDUIM4_DV3PzB-FXxgyQhijLkYohTq0dTsAesKd7pwfd9WTZr6sRzfqXelQz3MZK-vNrYdRZhgKS792hZ6N7Vvl24PAKmFAy6H4YR4Y4B4bAJF3auHMKArHsvJ7VuOtopzjGnlEpJ0nAeJ0v5wgeEEGzM0zPTU8UirMHdjfuvKUG2Misq3vkcFZqYe5P37RX7uq_9niNJrXTljNfftmk5NyL6ZqlWMwuV7s-UnWDxX2LwAuzguXkdhtb7jimLF1KdidbQInyJ5OFJO6-bLigKyjHt3PlVnxxTiDBzCTKqQt5BJ8Tz-6ClH1xS-kTrVXpJcStOjGEQ7ELEZgyQ6o1htrUn0HBLXg-gJcwQ44dJRbAFMgqLT831Ale1_viNL8FM_m00]--></g></svg>