<?xml version="1.0" encoding="us-ascii" standalone="no"?><svg xmlns="http://www.w3.org/2000/svg" xmlns:xlink="http://www.w3.org/1999/xlink" contentStyleType="text/css" height="567px" preserveAspectRatio="none" style="width:794px;height:567px;background:#FFFFFF;" version="1.1" viewBox="0 0 794 567" width="794px" zoomAndPan="magnify"><defs/><g><!--entity controller--><g id="elem_controller"><rect fill="#FFFFFF" height="62.5938" rx="2.5" ry="2.5" style="stroke:#808080;stroke-width:0.5;" width="313" x="7" y="7"/><rect fill="#FFFFFF" height="10" style="stroke:#808080;stroke-width:0.5;" width="15" x="300" y="12"/><rect fill="#FFFFFF" height="2" style="stroke:#808080;stroke-width:0.5;" width="4" x="298" y="14"/><rect fill="#FFFFFF" height="2" style="stroke:#808080;stroke-width:0.5;" width="4" x="298" y="18"/><text fill="#000000" font-family="sans-serif" font-size="14" font-style="italic" lengthAdjust="spacing" textLength="273" x="22" y="39.9951">&#171;..ru.cbr.siberian.sea.battle.controller..&#187;</text><text fill="#000000" font-family="sans-serif" font-size="14" lengthAdjust="spacing" textLength="65" x="126" y="56.292">controller</text></g><!--entity dao--><g id="elem_dao"><rect fill="#FFFFFF" height="62.5938" rx="2.5" ry="2.5" style="stroke:#808080;stroke-width:0.5;" width="274" x="284.5" y="376"/><rect fill="#FFFFFF" height="10" style="stroke:#808080;stroke-width:0.5;" width="15" x="538.5" y="381"/><rect fill="#FFFFFF" height="2" style="stroke:#808080;stroke-width:0.5;" width="4" x="536.5" y="383"/><rect fill="#FFFFFF" height="2" style="stroke:#808080;stroke-width:0.5;" width="4" x="536.5" y="387"/><text fill="#000000" font-family="sans-serif" font-size="14" font-style="italic" lengthAdjust="spacing" textLength="234" x="299.5" y="408.9951">&#171;..ru.cbr.siberian.sea.battle.dao..&#187;</text><text fill="#000000" font-family="sans-serif" font-size="14" lengthAdjust="spacing" textLength="26" x="403.5" y="425.292">dao</text></g><!--entity model--><g id="elem_model"><rect fill="#FFFFFF" height="62.5938" rx="2.5" ry="2.5" style="stroke:#808080;stroke-width:0.5;" width="291" x="86" y="499"/><rect fill="#FFFFFF" height="10" style="stroke:#808080;stroke-width:0.5;" width="15" x="357" y="504"/><rect fill="#FFFFFF" height="2" style="stroke:#808080;stroke-width:0.5;" width="4" x="355" y="506"/><rect fill="#FFFFFF" height="2" style="stroke:#808080;stroke-width:0.5;" width="4" x="355" y="510"/><text fill="#000000" font-family="sans-serif" font-size="14" font-style="italic" lengthAdjust="spacing" textLength="251" x="101" y="531.9951">&#171;..ru.cbr.siberian.sea.battle.model..&#187;</text><text fill="#000000" font-family="sans-serif" font-size="14" lengthAdjust="spacing" textLength="43" x="205" y="548.292">model</text></g><!--entity service--><g id="elem_service"><rect fill="#FFFFFF" height="62.5938" rx="2.5" ry="2.5" style="stroke:#808080;stroke-width:0.5;" width="297" x="144" y="130"/><rect fill="#FFFFFF" height="10" style="stroke:#808080;stroke-width:0.5;" width="15" x="421" y="135"/><rect fill="#FFFFFF" height="2" style="stroke:#808080;stroke-width:0.5;" width="4" x="419" y="137"/><rect fill="#FFFFFF" height="2" style="stroke:#808080;stroke-width:0.5;" width="4" x="419" y="141"/><text fill="#000000" font-family="sans-serif" font-size="14" font-style="italic" lengthAdjust="spacing" textLength="257" x="159" y="162.9951">&#171;..ru.cbr.siberian.sea.battle.service..&#187;</text><text fill="#000000" font-family="sans-serif" font-size="14" lengthAdjust="spacing" textLength="49" x="263" y="179.292">service</text></g><!--entity acl--><g id="elem_acl"><rect fill="#FFFFFF" height="62.5938" rx="2.5" ry="2.5" style="stroke:#808080;stroke-width:0.5;" width="267" x="187" y="253"/><rect fill="#FFFFFF" height="10" style="stroke:#808080;stroke-width:0.5;" width="15" x="434" y="258"/><rect fill="#FFFFFF" height="2" style="stroke:#808080;stroke-width:0.5;" width="4" x="432" y="260"/><rect fill="#FFFFFF" height="2" style="stroke:#808080;stroke-width:0.5;" width="4" x="432" y="264"/><text fill="#000000" font-family="sans-serif" font-size="14" font-style="italic" lengthAdjust="spacing" textLength="227" x="202" y="285.9951">&#171;..ru.cbr.siberian.sea.battle.acl..&#187;</text><text fill="#000000" font-family="sans-serif" font-size="14" lengthAdjust="spacing" textLength="19" x="306" y="302.292">acl</text></g><!--entity repository--><g id="elem_repository"><rect fill="#FFFFFF" height="62.5938" rx="2.5" ry="2.5" style="stroke:#808080;stroke-width:0.5;" width="299" x="489" y="253"/><rect fill="#FFFFFF" height="10" style="stroke:#808080;stroke-width:0.5;" width="15" x="768" y="258"/><rect fill="#FFFFFF" height="2" style="stroke:#808080;stroke-width:0.5;" width="4" x="766" y="260"/><rect fill="#FFFFFF" height="2" style="stroke:#808080;stroke-width:0.5;" width="4" x="766" y="264"/><text fill="#000000" font-family="sans-serif" font-size="14" font-style="italic" lengthAdjust="spacing" textLength="259" x="504" y="285.9951">&#171;..cbr.siberian.sea.battle.repository..&#187;</text><text fill="#000000" font-family="sans-serif" font-size="14" lengthAdjust="spacing" textLength="69" x="599" y="302.292">repository</text></g><!--link controller to model--><g id="link_controller_model"><path d="M147.37,70.4 C139.37,87.47 130.56,109.35 126.5,130 C109.41,216.97 125.41,374.44 153.5,439 C163.35,461.63 176.6725,478.5123 192.6325,494.6623 " fill="none" id="controller-to-model" style="stroke:#181818;stroke-width:1.0;"/><polygon fill="#181818" points="196.85,498.93,193.3689,489.7169,193.3354,495.3736,187.6787,495.3401,196.85,498.93" style="stroke:#181818;stroke-width:1.0;"/></g><!--link controller to service--><g id="link_controller_service"><path d="M196.05,70.03 C215.61,88.38 236.0231,107.5361 255.5831,125.8761 " fill="none" id="controller-to-service" style="stroke:#181818;stroke-width:1.0;"/><polygon fill="#181818" points="259.96,129.98,256.1305,120.9061,256.3125,126.56,250.6586,126.742,259.96,129.98" style="stroke:#181818;stroke-width:1.0;"/></g><!--link service to model--><g id="link_service_model"><path d="M229.01,193.06 C205.89,207.72 182.3,227.69 169.5,253 C127.76,335.53 177.7163,440.7893 208.8263,493.6393 " fill="none" id="service-to-model" style="stroke:#181818;stroke-width:1.0;"/><polygon fill="#181818" points="211.87,498.81,210.7516,489.0249,209.3336,494.5011,203.8573,493.0831,211.87,498.81" style="stroke:#181818;stroke-width:1.0;"/></g><!--link service to acl--><g id="link_service_acl"><path d="M299.57,193.03 C303.81,211.38 307.8355,228.7949 312.0855,247.1349 " fill="none" id="service-to-acl" style="stroke:#181818;stroke-width:1.0;"/><polygon fill="#181818" points="313.44,252.98,315.305,243.3093,312.3112,248.1091,307.5115,245.1153,313.44,252.98" style="stroke:#181818;stroke-width:1.0;"/></g><!--link service to repository--><g id="link_service_repository"><path d="M379.81,193.03 C432.26,211.38 493.1063,232.6596 545.5563,250.9996 " fill="none" id="service-to-repository" style="stroke:#181818;stroke-width:1.0;"/><polygon fill="#181818" points="551.22,252.98,544.0447,246.2335,546.5002,251.3297,541.4041,253.7852,551.22,252.98" style="stroke:#181818;stroke-width:1.0;"/></g><!--link dao to model--><g id="link_dao_model"><path d="M373.55,439.03 C344.75,457.38 313.291,477.4172 284.491,495.7572 " fill="none" id="dao-to-model" style="stroke:#181818;stroke-width:1.0;"/><polygon fill="#181818" points="279.43,498.98,289.17,497.5197,283.6475,496.2943,284.8729,490.7718,279.43,498.98" style="stroke:#181818;stroke-width:1.0;"/></g><!--link repository to dao--><g id="link_repository_dao"><path d="M583.74,316.03 C550.85,334.38 514.3704,354.7179 481.4804,373.0579 " fill="none" id="repository-to-dao" style="stroke:#181818;stroke-width:1.0;"/><polygon fill="#181818" points="476.24,375.98,486.0486,375.0904,480.607,373.5449,482.1525,368.1033,476.24,375.98" style="stroke:#181818;stroke-width:1.0;"/></g><!--link repository to model--><g id="link_repository_model"><path d="M634.19,316.14 C627.66,350.97 611.91,407.11 575.5,439 C521.03,486.71 450.2126,508.7391 383.0326,519.6391 " fill="none" id="repository-to-model" style="stroke:#181818;stroke-width:1.0;"/><polygon fill="#181818" points="377.11,520.6,386.6345,523.107,382.0455,519.7992,385.3532,515.2102,377.11,520.6" style="stroke:#181818;stroke-width:1.0;"/></g><!--link acl to model--><g id="link_acl_model"><path d="M298.96,316.07 C287.87,333.05 274.94,354.94 266.5,376 C250.08,416.98 241.3639,461.41 236.4939,493.01 " fill="none" id="acl-to-model" style="stroke:#181818;stroke-width:1.0;"/><polygon fill="#181818" points="235.58,498.94,240.9042,490.6543,236.3416,493.9983,232.9975,489.4358,235.58,498.94" style="stroke:#181818;stroke-width:1.0;"/></g><!--link acl to dao--><g id="link_acl_dao"><path d="M345.99,316.03 C361.3,334.38 376.8649,353.034 392.1749,371.374 " fill="none" id="acl-to-dao" style="stroke:#181818;stroke-width:1.0;"/><polygon fill="#181818" points="396.02,375.98,393.3231,366.5076,392.8158,372.1416,387.1817,371.6343,396.02,375.98" style="stroke:#181818;stroke-width:1.0;"/></g><!--SRC=[XP3BZi8m34Nt_ef8hF62DUg2-GIMY4MQMX2HnfMJpgWQpRy3IOSsFDJjzJc9hyF5-awBRfNXjcDFFkxZu4ZrhTj0U9sgNzYnD2HVx5ZKwYGqm4wRoqcuzysO_fnj9FW3E1ZsKTWvagFQRX6bHrCB1bkJMEqnaCPQn-W89nIngk3GQ5vqRao6Msx8BUA9oa8W-RQ65fMHov8sot_Sc0mBTHniP1coyqcOkEILDrklApMMUpFuBm6pFeLHflVrdxFPbZ3UVFv2MIDDxioR-26a8nLRJ4bohm00]--></g></svg>