<?xml version="1.0" encoding="us-ascii" standalone="no"?><svg xmlns="http://www.w3.org/2000/svg" xmlns:xlink="http://www.w3.org/1999/xlink" contentStyleType="text/css" height="333px" preserveAspectRatio="none" style="width:727px;height:333px;background:#FFFFFF;" version="1.1" viewBox="0 0 727 333" width="727px" zoomAndPan="magnify"><defs/><g><!--entity acl--><g id="elem_acl"><rect fill="#FFFFFF" height="46.4883" rx="2.5" ry="2.5" style="stroke:#808080;stroke-width:0.5;" width="59" x="317" y="15.75"/><rect fill="#FFFFFF" height="10" style="stroke:#808080;stroke-width:0.5;" width="15" x="356" y="20.75"/><rect fill="#FFFFFF" height="2" style="stroke:#808080;stroke-width:0.5;" width="4" x="354" y="22.75"/><rect fill="#FFFFFF" height="2" style="stroke:#808080;stroke-width:0.5;" width="4" x="354" y="26.75"/><text fill="#000000" font-family="sans-serif" font-size="14" lengthAdjust="spacing" textLength="19" x="332" y="49.2852">acl</text></g><!--entity model--><g id="elem_model"><rect fill="#FFFFFF" height="46.4883" rx="2.5" ry="2.5" style="stroke:#808080;stroke-width:0.5;" width="83" x="552" y="15.75"/><rect fill="#FFFFFF" height="10" style="stroke:#808080;stroke-width:0.5;" width="15" x="615" y="20.75"/><rect fill="#FFFFFF" height="2" style="stroke:#808080;stroke-width:0.5;" width="4" x="613" y="22.75"/><rect fill="#FFFFFF" height="2" style="stroke:#808080;stroke-width:0.5;" width="4" x="613" y="26.75"/><text fill="#000000" font-family="sans-serif" font-size="14" lengthAdjust="spacing" textLength="43" x="567" y="49.2852">model</text></g><!--entity dao--><g id="elem_dao"><rect fill="#FFFFFF" height="46.4883" rx="2.5" ry="2.5" style="stroke:#808080;stroke-width:0.5;" width="66" x="74.5" y="15.75"/><rect fill="#FFFFFF" height="10" style="stroke:#808080;stroke-width:0.5;" width="15" x="120.5" y="20.75"/><rect fill="#FFFFFF" height="2" style="stroke:#808080;stroke-width:0.5;" width="4" x="118.5" y="22.75"/><rect fill="#FFFFFF" height="2" style="stroke:#808080;stroke-width:0.5;" width="4" x="118.5" y="26.75"/><text fill="#000000" font-family="sans-serif" font-size="14" lengthAdjust="spacing" textLength="26" x="89.5" y="49.2852">dao</text></g><!--entity configuration--><g id="elem_configuration"><rect fill="#FFFFFF" height="46.4883" rx="2.5" ry="2.5" style="stroke:#808080;stroke-width:0.5;" width="133" x="7" y="281.24"/><rect fill="#FFFFFF" height="10" style="stroke:#808080;stroke-width:0.5;" width="15" x="120" y="286.24"/><rect fill="#FFFFFF" height="2" style="stroke:#808080;stroke-width:0.5;" width="4" x="118" y="288.24"/><rect fill="#FFFFFF" height="2" style="stroke:#808080;stroke-width:0.5;" width="4" x="118" y="292.24"/><text fill="#000000" font-family="sans-serif" font-size="14" lengthAdjust="spacing" textLength="93" x="22" y="314.7752">configuration</text></g><!--entity controller--><g id="elem_controller"><rect fill="#FFFFFF" height="46.4883" rx="2.5" ry="2.5" style="stroke:#808080;stroke-width:0.5;" width="107" x="202" y="281.24"/><rect fill="#FFFFFF" height="10" style="stroke:#808080;stroke-width:0.5;" width="15" x="289" y="286.24"/><rect fill="#FFFFFF" height="2" style="stroke:#808080;stroke-width:0.5;" width="4" x="287" y="288.24"/><rect fill="#FFFFFF" height="2" style="stroke:#808080;stroke-width:0.5;" width="4" x="287" y="292.24"/><text fill="#000000" font-family="sans-serif" font-size="14" lengthAdjust="spacing" textLength="67" x="217" y="314.7752">controller</text></g><!--entity repository--><g id="elem_repository"><rect fill="#FFFFFF" height="46.4883" rx="2.5" ry="2.5" style="stroke:#808080;stroke-width:0.5;" width="110" x="382.5" y="281.24"/><rect fill="#FFFFFF" height="10" style="stroke:#808080;stroke-width:0.5;" width="15" x="472.5" y="286.24"/><rect fill="#FFFFFF" height="2" style="stroke:#808080;stroke-width:0.5;" width="4" x="470.5" y="288.24"/><rect fill="#FFFFFF" height="2" style="stroke:#808080;stroke-width:0.5;" width="4" x="470.5" y="292.24"/><text fill="#000000" font-family="sans-serif" font-size="14" lengthAdjust="spacing" textLength="70" x="397.5" y="314.7752">repository</text></g><!--entity service--><g id="elem_service"><rect fill="#FFFFFF" height="46.4883" rx="2.5" ry="2.5" style="stroke:#808080;stroke-width:0.5;" width="87" x="576" y="281.24"/><rect fill="#FFFFFF" height="10" style="stroke:#808080;stroke-width:0.5;" width="15" x="643" y="286.24"/><rect fill="#FFFFFF" height="2" style="stroke:#808080;stroke-width:0.5;" width="4" x="641" y="288.24"/><rect fill="#FFFFFF" height="2" style="stroke:#808080;stroke-width:0.5;" width="4" x="641" y="292.24"/><text fill="#000000" font-family="sans-serif" font-size="14" lengthAdjust="spacing" textLength="47" x="591" y="314.7752">service</text></g><!--link acl to model--><g id="link_acl_model"><path d="M376.29,39 C420.05,39 495.87,39 545.64,39 " fill="none" id="acl-to-model" style="stroke:#008000;stroke-width:1.0;"/><polygon fill="#008000" points="551.64,39,542.64,35,546.64,39,542.64,43,551.64,39" style="stroke:#008000;stroke-width:1.0;"/><path d="M398,6 L398,31 L530,31 L530,16 L520,6 L398,6 " fill="#008000" style="stroke:#181818;stroke-width:0.5;"/><path d="M520,6 L520,16 L530,16 L520,6 " fill="#008000" style="stroke:#181818;stroke-width:0.5;"/><text fill="#000000" font-family="sans-serif" font-size="13" lengthAdjust="spacing" textLength="111" x="404" y="23.5684">&#1076;&#1086;&#1089;&#1090;&#1091;&#1087; &#1088;&#1072;&#1079;&#1088;&#1077;&#1096;&#1077;&#1085;</text></g><!--reverse link dao to acl--><g id="link_dao_acl"><path d="M146.98,39 C193.75,39 271.89,39 316.63,39 " fill="none" id="dao-backto-acl" style="stroke:#008000;stroke-width:1.0;"/><polygon fill="#008000" points="140.98,39,149.98,43,145.98,39,149.98,35,140.98,39" style="stroke:#008000;stroke-width:1.0;"/><path d="M162.75,6 L162.75,31 L294.75,31 L294.75,16 L284.75,6 L162.75,6 " fill="#008000" style="stroke:#181818;stroke-width:0.5;"/><path d="M284.75,6 L284.75,16 L294.75,16 L284.75,6 " fill="#008000" style="stroke:#181818;stroke-width:0.5;"/><text fill="#000000" font-family="sans-serif" font-size="13" lengthAdjust="spacing" textLength="111" x="168.75" y="23.5684">&#1076;&#1086;&#1089;&#1090;&#1091;&#1087; &#1088;&#1072;&#1079;&#1088;&#1077;&#1096;&#1077;&#1085;</text></g><!--link acl to configuration--><g id="link_acl_configuration"><path d="M316.64,44.15 C262.69,53.35 149.47,80.79 94.5,154.24 C66.59,191.53 66.7641,243.1477 69.8141,274.7777 " fill="none" id="acl-to-configuration" style="stroke:#DC143C;stroke-width:1.0;"/><polygon fill="#DC143C" points="70.39,280.75,73.5077,271.4076,69.9101,275.7731,65.5446,272.1755,70.39,280.75" style="stroke:#DC143C;stroke-width:1.0;"/><path d="M99.5,159.24 L99.5,184.24 L231.5,184.24 L231.5,169.24 L221.5,159.24 L99.5,159.24 " fill="#DC143C" style="stroke:#181818;stroke-width:0.5;"/><path d="M221.5,159.24 L221.5,169.24 L231.5,169.24 L221.5,159.24 " fill="#DC143C" style="stroke:#181818;stroke-width:0.5;"/><text fill="#000000" font-family="sans-serif" font-size="13" lengthAdjust="spacing" textLength="111" x="105.5" y="176.8084">&#1076;&#1086;&#1089;&#1090;&#1091;&#1087; &#1079;&#1072;&#1087;&#1088;&#1077;&#1097;&#1077;&#1085;</text></g><!--link acl to controller--><g id="link_acl_controller"><path d="M319.54,62.63 C296.75,83.67 265.76,117.25 252.5,154.24 C237.19,196.93 243.0467,245.1158 249.0167,275.0558 " fill="none" id="acl-to-controller" style="stroke:#DC143C;stroke-width:1.0;"/><polygon fill="#DC143C" points="250.19,280.94,252.3528,271.3316,249.2123,276.0365,244.5073,272.896,250.19,280.94" style="stroke:#DC143C;stroke-width:1.0;"/><path d="M257.5,159.24 L257.5,184.24 L389.5,184.24 L389.5,169.24 L379.5,159.24 L257.5,159.24 " fill="#DC143C" style="stroke:#181818;stroke-width:0.5;"/><path d="M379.5,159.24 L379.5,169.24 L389.5,169.24 L379.5,159.24 " fill="#DC143C" style="stroke:#181818;stroke-width:0.5;"/><text fill="#000000" font-family="sans-serif" font-size="13" lengthAdjust="spacing" textLength="111" x="263.5" y="176.8084">&#1076;&#1086;&#1089;&#1090;&#1091;&#1087; &#1079;&#1072;&#1087;&#1088;&#1077;&#1097;&#1077;&#1085;</text></g><!--link acl to repository--><g id="link_acl_repository"><path d="M358.24,62.71 C369.65,85.43 386.9,121.59 398.5,154.24 C414.1,198.15 425.2494,245.4539 431.5994,275.0039 " fill="none" id="acl-to-repository" style="stroke:#DC143C;stroke-width:1.0;"/><polygon fill="#DC143C" points="432.86,280.87,434.8799,271.2305,431.8095,275.9816,427.0584,272.9112,432.86,280.87" style="stroke:#DC143C;stroke-width:1.0;"/><path d="M414.51,159.24 L414.51,184.24 L546.51,184.24 L546.51,169.24 L536.51,159.24 L414.51,159.24 " fill="#DC143C" style="stroke:#181818;stroke-width:0.5;"/><path d="M536.51,159.24 L536.51,169.24 L546.51,169.24 L536.51,159.24 " fill="#DC143C" style="stroke:#181818;stroke-width:0.5;"/><text fill="#000000" font-family="sans-serif" font-size="13" lengthAdjust="spacing" textLength="111" x="420.51" y="176.8084">&#1076;&#1086;&#1089;&#1090;&#1091;&#1087; &#1079;&#1072;&#1087;&#1088;&#1077;&#1097;&#1077;&#1085;</text></g><!--link acl to service--><g id="link_acl_service"><path d="M376.46,48.73 C421.91,63.42 508.41,97.19 559.5,154.24 C592.76,191.37 607.5731,243.4089 614.2431,275.0689 " fill="none" id="acl-to-service" style="stroke:#DC143C;stroke-width:1.0;"/><polygon fill="#DC143C" points="615.48,280.94,617.5387,271.3087,614.4492,276.0474,609.7106,272.9579,615.48,280.94" style="stroke:#DC143C;stroke-width:1.0;"/><path d="M588.25,159.24 L588.25,184.24 L720.25,184.24 L720.25,169.24 L710.25,159.24 L588.25,159.24 " fill="#DC143C" style="stroke:#181818;stroke-width:0.5;"/><path d="M710.25,159.24 L710.25,169.24 L720.25,169.24 L710.25,159.24 " fill="#DC143C" style="stroke:#181818;stroke-width:0.5;"/><text fill="#000000" font-family="sans-serif" font-size="13" lengthAdjust="spacing" textLength="111" x="594.25" y="176.8084">&#1076;&#1086;&#1089;&#1090;&#1091;&#1087; &#1079;&#1072;&#1087;&#1088;&#1077;&#1097;&#1077;&#1085;</text></g><!--SRC=[jSmzJiD048RXVayn4hKRIWgAS0HAoyLgFN5MtfsnPiT45aBYfu7RK12bWbnXVICS70c954Y8D5Dyy-f9hQVEYetWE7PCI7gjGq3eOpWtwVWBjsR1KgDSSM21iqPmC0lhsaQuf_gmhbTUqToPqhfGGL6K-mwf4j-ij2Wk0Sh8DORA42j2mAK24mHFBSpf1UIt_34-Z8_ZKzx1U9zVytQwc_4vR_BxaRmdPhYs_1-i4nyJKpMZZcdfcrwi-ccRUUNkMp_aF_oydVpTb__ocw_28Q2S01ViE7bb6Kw09vGRx_3lyYS0]--></g></svg>