<?xml version="1.0" encoding="us-ascii" standalone="no"?><svg xmlns="http://www.w3.org/2000/svg" xmlns:xlink="http://www.w3.org/1999/xlink" contentStyleType="text/css" height="333px" preserveAspectRatio="none" style="width:764px;height:333px;background:#FFFFFF;" version="1.1" viewBox="0 0 764 333" width="764px" zoomAndPan="magnify"><defs/><g><!--entity acl--><g id="elem_acl"><rect fill="#FFFFFF" height="46.2969" rx="2.5" ry="2.5" style="stroke:#808080;stroke-width:0.5;" width="59" x="328.5" y="16"/><rect fill="#FFFFFF" height="10" style="stroke:#808080;stroke-width:0.5;" width="15" x="367.5" y="21"/><rect fill="#FFFFFF" height="2" style="stroke:#808080;stroke-width:0.5;" width="4" x="365.5" y="23"/><rect fill="#FFFFFF" height="2" style="stroke:#808080;stroke-width:0.5;" width="4" x="365.5" y="27"/><text fill="#000000" font-family="sans-serif" font-size="14" lengthAdjust="spacing" textLength="19" x="343.5" y="48.9951">acl</text></g><!--entity model--><g id="elem_model"><rect fill="#FFFFFF" height="46.2969" rx="2.5" ry="2.5" style="stroke:#808080;stroke-width:0.5;" width="83" x="572.5" y="16"/><rect fill="#FFFFFF" height="10" style="stroke:#808080;stroke-width:0.5;" width="15" x="635.5" y="21"/><rect fill="#FFFFFF" height="2" style="stroke:#808080;stroke-width:0.5;" width="4" x="633.5" y="23"/><rect fill="#FFFFFF" height="2" style="stroke:#808080;stroke-width:0.5;" width="4" x="633.5" y="27"/><text fill="#000000" font-family="sans-serif" font-size="14" lengthAdjust="spacing" textLength="43" x="587.5" y="48.9951">model</text></g><!--entity dao--><g id="elem_dao"><rect fill="#FFFFFF" height="46.2969" rx="2.5" ry="2.5" style="stroke:#808080;stroke-width:0.5;" width="66" x="78" y="16"/><rect fill="#FFFFFF" height="10" style="stroke:#808080;stroke-width:0.5;" width="15" x="124" y="21"/><rect fill="#FFFFFF" height="2" style="stroke:#808080;stroke-width:0.5;" width="4" x="122" y="23"/><rect fill="#FFFFFF" height="2" style="stroke:#808080;stroke-width:0.5;" width="4" x="122" y="27"/><text fill="#000000" font-family="sans-serif" font-size="14" lengthAdjust="spacing" textLength="26" x="93" y="48.9951">dao</text></g><!--entity configuration--><g id="elem_configuration"><rect fill="#FFFFFF" height="46.2969" rx="2.5" ry="2.5" style="stroke:#808080;stroke-width:0.5;" width="130" x="7" y="281"/><rect fill="#FFFFFF" height="10" style="stroke:#808080;stroke-width:0.5;" width="15" x="117" y="286"/><rect fill="#FFFFFF" height="2" style="stroke:#808080;stroke-width:0.5;" width="4" x="115" y="288"/><rect fill="#FFFFFF" height="2" style="stroke:#808080;stroke-width:0.5;" width="4" x="115" y="292"/><text fill="#000000" font-family="sans-serif" font-size="14" lengthAdjust="spacing" textLength="90" x="22" y="313.9951">configuration</text></g><!--entity controller--><g id="elem_controller"><rect fill="#FFFFFF" height="46.2969" rx="2.5" ry="2.5" style="stroke:#808080;stroke-width:0.5;" width="105" x="210.5" y="281"/><rect fill="#FFFFFF" height="10" style="stroke:#808080;stroke-width:0.5;" width="15" x="295.5" y="286"/><rect fill="#FFFFFF" height="2" style="stroke:#808080;stroke-width:0.5;" width="4" x="293.5" y="288"/><rect fill="#FFFFFF" height="2" style="stroke:#808080;stroke-width:0.5;" width="4" x="293.5" y="292"/><text fill="#000000" font-family="sans-serif" font-size="14" lengthAdjust="spacing" textLength="65" x="225.5" y="313.9951">controller</text></g><!--entity repository--><g id="elem_repository"><rect fill="#FFFFFF" height="46.2969" rx="2.5" ry="2.5" style="stroke:#808080;stroke-width:0.5;" width="109" x="399.5" y="281"/><rect fill="#FFFFFF" height="10" style="stroke:#808080;stroke-width:0.5;" width="15" x="488.5" y="286"/><rect fill="#FFFFFF" height="2" style="stroke:#808080;stroke-width:0.5;" width="4" x="486.5" y="288"/><rect fill="#FFFFFF" height="2" style="stroke:#808080;stroke-width:0.5;" width="4" x="486.5" y="292"/><text fill="#000000" font-family="sans-serif" font-size="14" lengthAdjust="spacing" textLength="69" x="414.5" y="313.9951">repository</text></g><!--entity service--><g id="elem_service"><rect fill="#FFFFFF" height="46.2969" rx="2.5" ry="2.5" style="stroke:#808080;stroke-width:0.5;" width="89" x="600.5" y="281"/><rect fill="#FFFFFF" height="10" style="stroke:#808080;stroke-width:0.5;" width="15" x="669.5" y="286"/><rect fill="#FFFFFF" height="2" style="stroke:#808080;stroke-width:0.5;" width="4" x="667.5" y="288"/><rect fill="#FFFFFF" height="2" style="stroke:#808080;stroke-width:0.5;" width="4" x="667.5" y="292"/><text fill="#000000" font-family="sans-serif" font-size="14" lengthAdjust="spacing" textLength="49" x="615.5" y="313.9951">service</text></g><!--link acl to model--><g id="link_acl_model"><path d="M387.62,39 C433.16,39 514.53,39 566.4,39 " fill="none" id="acl-to-model" style="stroke:#008000;stroke-width:1.0;"/><polygon fill="#008000" points="572.4,39,563.4,35,567.4,39,563.4,43,572.4,39" style="stroke:#008000;stroke-width:1.0;"/><path d="M410,6 L410,31 L550,31 L550,16 L540,6 L410,6 " fill="#008000" style="stroke:#181818;stroke-width:0.5;"/><path d="M540,6 L540,16 L550,16 L540,6 " fill="#008000" style="stroke:#181818;stroke-width:0.5;"/><text fill="#000000" font-family="sans-serif" font-size="13" lengthAdjust="spacing" textLength="119" x="416" y="23.0669">&#1076;&#1086;&#1089;&#1090;&#1091;&#1087; &#1088;&#1072;&#1079;&#1088;&#1077;&#1096;&#1077;&#1085;</text></g><!--reverse link dao to acl--><g id="link_dao_acl"><path d="M150.06,39 C198.43,39 281.79,39 328.23,39 " fill="none" id="dao-backto-acl" style="stroke:#008000;stroke-width:1.0;"/><polygon fill="#008000" points="144.06,39,153.06,43,149.06,39,153.06,35,144.06,39" style="stroke:#008000;stroke-width:1.0;"/><path d="M166.25,6 L166.25,31 L306.25,31 L306.25,16 L296.25,6 L166.25,6 " fill="#008000" style="stroke:#181818;stroke-width:0.5;"/><path d="M296.25,6 L296.25,16 L306.25,16 L296.25,6 " fill="#008000" style="stroke:#181818;stroke-width:0.5;"/><text fill="#000000" font-family="sans-serif" font-size="13" lengthAdjust="spacing" textLength="119" x="172.25" y="23.0669">&#1076;&#1086;&#1089;&#1090;&#1091;&#1087; &#1088;&#1072;&#1079;&#1088;&#1077;&#1096;&#1077;&#1085;</text></g><!--link acl to configuration--><g id="link_acl_configuration"><path d="M328.41,43.36 C272.5,51.4 151.67,77.18 93,154 C64.62,191.16 65.0566,243.2304 68.2466,274.7904 " fill="none" id="acl-to-configuration" style="stroke:#DC143C;stroke-width:1.0;"/><polygon fill="#DC143C" points="68.85,280.76,71.9246,271.4034,68.3472,275.7853,63.9652,272.2079,68.85,280.76" style="stroke:#DC143C;stroke-width:1.0;"/><path d="M98,159 L98,184 L239,184 L239,169 L229,159 L98,159 " fill="#DC143C" style="stroke:#181818;stroke-width:0.5;"/><path d="M229,159 L229,169 L239,169 L229,159 " fill="#DC143C" style="stroke:#181818;stroke-width:0.5;"/><text fill="#000000" font-family="sans-serif" font-size="13" lengthAdjust="spacing" textLength="120" x="104" y="176.0669">&#1076;&#1086;&#1089;&#1090;&#1091;&#1087; &#1079;&#1072;&#1087;&#1088;&#1077;&#1097;&#1077;&#1085;</text></g><!--link acl to controller--><g id="link_acl_controller"><path d="M329.91,62.33 C306.18,83.15 273.88,116.56 260,154 C244.17,196.7 250.3089,245.2335 256.4589,275.0735 " fill="none" id="acl-to-controller" style="stroke:#DC143C;stroke-width:1.0;"/><polygon fill="#DC143C" points="257.67,280.95,259.771,271.3278,256.6607,276.0529,251.9356,272.9427,257.67,280.95" style="stroke:#DC143C;stroke-width:1.0;"/><path d="M265,159 L265,184 L406,184 L406,169 L396,159 L265,159 " fill="#DC143C" style="stroke:#181818;stroke-width:0.5;"/><path d="M396,159 L396,169 L406,169 L396,159 " fill="#DC143C" style="stroke:#181818;stroke-width:0.5;"/><text fill="#000000" font-family="sans-serif" font-size="13" lengthAdjust="spacing" textLength="120" x="271" y="176.0669">&#1076;&#1086;&#1089;&#1090;&#1091;&#1087; &#1079;&#1072;&#1087;&#1088;&#1077;&#1097;&#1077;&#1085;</text></g><!--link acl to repository--><g id="link_acl_repository"><path d="M370.78,62.09 C383.38,84.62 402.53,120.86 415,154 C431.48,197.8 442.4427,245.4627 448.5027,274.9627 " fill="none" id="acl-to-repository" style="stroke:#DC143C;stroke-width:1.0;"/><polygon fill="#DC143C" points="449.71,280.84,451.8172,271.2192,448.7039,275.9423,443.9808,272.829,449.71,280.84" style="stroke:#DC143C;stroke-width:1.0;"/><path d="M432,159 L432,184 L573,184 L573,169 L563,159 L432,159 " fill="#DC143C" style="stroke:#181818;stroke-width:0.5;"/><path d="M563,159 L563,169 L573,169 L563,159 " fill="#DC143C" style="stroke:#181818;stroke-width:0.5;"/><text fill="#000000" font-family="sans-serif" font-size="13" lengthAdjust="spacing" textLength="120" x="438" y="176.0669">&#1076;&#1086;&#1089;&#1090;&#1091;&#1087; &#1079;&#1072;&#1087;&#1088;&#1077;&#1097;&#1077;&#1085;</text></g><!--link acl to service--><g id="link_acl_service"><path d="M387.73,47.41 C435.73,60.82 530.52,93.49 586,154 C619.75,190.81 634.0266,243.3619 640.2266,275.0119 " fill="none" id="acl-to-service" style="stroke:#DC143C;stroke-width:1.0;"/><polygon fill="#DC143C" points="641.38,280.9,643.5752,271.2989,640.4188,275.9933,635.7245,272.8368,641.38,280.9" style="stroke:#DC143C;stroke-width:1.0;"/><path d="M616,159 L616,184 L757,184 L757,169 L747,159 L616,159 " fill="#DC143C" style="stroke:#181818;stroke-width:0.5;"/><path d="M747,159 L747,169 L757,169 L747,159 " fill="#DC143C" style="stroke:#181818;stroke-width:0.5;"/><text fill="#000000" font-family="sans-serif" font-size="13" lengthAdjust="spacing" textLength="120" x="622" y="176.0669">&#1076;&#1086;&#1089;&#1090;&#1091;&#1087; &#1079;&#1072;&#1087;&#1088;&#1077;&#1097;&#1077;&#1085;</text></g><!--SRC=[jSmzJiD048RXVayn4hKRIWgAS0HAoyLgFN5MtfsnPiT45aBYfu7RK12bWbnXVICS70c954Y8D5Dyy-f9hQVEYetWE7PCI7gjGq3eOpWtwVWBjsR1KgDSSM21iqPmC0lhsaQuf_gmhbTUqToPqhfGGL6K-mwf4j-ij2Wk0Sh8DORA42j2mAK24mHFBSpf1UIt_34-Z8_ZKzx1U9zVytQwc_4vR_BxaRmdPhYs_1-i4nyJKpMZZcdfcrwi-ccRUUNkMp_aF_oydVpTb__ocw_28Q2S01ViE7bb6Kw09vGRx_3lyYS0]--></g></svg>