<?xml version="1.0" encoding="us-ascii" standalone="no"?><svg xmlns="http://www.w3.org/2000/svg" xmlns:xlink="http://www.w3.org/1999/xlink" contentStyleType="text/css" height="178px" preserveAspectRatio="none" style="width:1088px;height:178px;background:#FFFFFF;" version="1.1" viewBox="0 0 1088 178" width="1088px" zoomAndPan="magnify"><defs/><g><!--class BaseRequestMessage--><g id="elem_BaseRequestMessage"><rect codeLine="205" fill="#FFFFFF" height="40.6211" id="BaseRequestMessage" rx="2.5" ry="2.5" style="stroke:#808080;stroke-width:0.5;" width="177" x="457.5" y="132.11"/><ellipse cx="472.5" cy="152.4205" fill="#ADD1B2" rx="11" ry="11" style="stroke:#181818;stroke-width:1.0;"/><path d="M474.9731,158.5636 Q474.3921,158.8624 473.7529,159.0119 Q473.1138,159.1613 472.4082,159.1613 Q469.9014,159.1613 468.5815,157.5094 Q467.2617,155.8576 467.2617,152.7365 Q467.2617,149.6071 468.5815,147.9552 Q469.9014,146.3034 472.4082,146.3034 Q473.1138,146.3034 473.7612,146.4528 Q474.4087,146.6022 474.9731,146.901 L474.9731,149.6237 Q474.3423,149.0426 473.7488,148.7728 Q473.1553,148.5031 472.5244,148.5031 Q471.1797,148.5031 470.4949,149.5697 Q469.8101,150.6364 469.8101,152.7365 Q469.8101,154.8283 470.4949,155.8949 Q471.1797,156.9616 472.5244,156.9616 Q473.1553,156.9616 473.7488,156.6918 Q474.3423,156.422 474.9731,155.841 Z " fill="#000000"/><text fill="#000000" font-family="sans-serif" font-size="12" font-style="italic" lengthAdjust="spacing" textLength="62" x="528" y="148.7116">&#171;interface&#187;</text><text fill="#000000" font-family="sans-serif" font-size="14" lengthAdjust="spacing" textLength="145" x="486.5" y="164.778">BaseRequestMessage</text></g><!--class CreateGameRequestMessage--><g id="elem_CreateGameRequestMessage"><rect codeLine="206" fill="#FFFFFF" height="65.1094" id="CreateGameRequestMessage" rx="2.5" ry="2.5" style="stroke:#808080;stroke-width:0.5;" width="230" x="7" y="7"/><ellipse cx="22" cy="27.3105" fill="#ADD1B2" rx="11" ry="11" style="stroke:#181818;stroke-width:1.0;"/><path d="M24.4731,33.4536 Q23.8921,33.7524 23.2529,33.9019 Q22.6138,34.0513 21.9082,34.0513 Q19.4014,34.0513 18.0815,32.3994 Q16.7617,30.7476 16.7617,27.6265 Q16.7617,24.4971 18.0815,22.8452 Q19.4014,21.1934 21.9082,21.1934 Q22.6138,21.1934 23.2612,21.3428 Q23.9087,21.4922 24.4731,21.791 L24.4731,24.5137 Q23.8423,23.9326 23.2488,23.6628 Q22.6553,23.3931 22.0244,23.3931 Q20.6797,23.3931 19.9949,24.4597 Q19.3101,25.5264 19.3101,27.6265 Q19.3101,29.7183 19.9949,30.7849 Q20.6797,31.8516 22.0244,31.8516 Q22.6553,31.8516 23.2488,31.5818 Q23.8423,31.312 24.4731,30.731 Z " fill="#000000"/><text fill="#000000" font-family="sans-serif" font-size="12" font-style="italic" lengthAdjust="spacing" textLength="61" x="104.5" y="23.6016">&#171;concrete&#187;</text><text fill="#000000" font-family="sans-serif" font-size="14" lengthAdjust="spacing" textLength="198" x="36" y="39.668">CreateGameRequestMessage</text><line style="stroke:#808080;stroke-width:0.5;" x1="8" x2="236" y1="47.6211" y2="47.6211"/><rect fill="none" height="6" style="stroke:#C82930;stroke-width:1.0;" width="6" x="15" y="58.3652"/><text fill="#000000" font-family="sans-serif" font-size="14" lengthAdjust="spacing" textLength="96" x="27" y="65.1563">userId : String</text></g><path d="M271.5,21.9 L271.5,30.5553 L123,59.8652 L271.5,38.5553 L271.5,47.2105 A0,0 0 0 0 271.5,47.2105 L530.5,47.2105 A0,0 0 0 0 530.5,47.2105 L530.5,31.9 L520.5,21.9 L271.5,21.9 A0,0 0 0 0 271.5,21.9 " fill="#FEFFDD" style="stroke:#181818;stroke-width:0.5;"/><path d="M520.5,21.9 L520.5,31.9 L530.5,31.9 L520.5,21.9 " fill="#FEFFDD" style="stroke:#181818;stroke-width:0.5;"/><text fill="#000000" font-family="sans-serif" font-size="13" lengthAdjust="spacing" textLength="238" x="277.5" y="39.4684">&#1087;&#1086;&#1083;&#1077; &#1087;&#1086;&#1084;&#1077;&#1095;&#1077;&#1085;&#1086; &#1072;&#1085;&#1085;&#1086;&#1090;&#1072;&#1094;&#1080;&#1077;&#1081; NotBlank</text><!--class CreateUserRequestMessage--><g id="elem_CreateUserRequestMessage"><rect codeLine="213" fill="#FFFFFF" height="65.1094" id="CreateUserRequestMessage" rx="2.5" ry="2.5" style="stroke:#808080;stroke-width:0.5;" width="222" x="859" y="7"/><ellipse cx="874" cy="27.3105" fill="#ADD1B2" rx="11" ry="11" style="stroke:#181818;stroke-width:1.0;"/><path d="M876.4731,33.4536 Q875.8921,33.7524 875.2529,33.9019 Q874.6138,34.0513 873.9082,34.0513 Q871.4014,34.0513 870.0815,32.3994 Q868.7617,30.7476 868.7617,27.6265 Q868.7617,24.4971 870.0815,22.8452 Q871.4014,21.1934 873.9082,21.1934 Q874.6138,21.1934 875.2612,21.3428 Q875.9087,21.4922 876.4731,21.791 L876.4731,24.5137 Q875.8423,23.9326 875.2488,23.6628 Q874.6553,23.3931 874.0244,23.3931 Q872.6797,23.3931 871.9949,24.4597 Q871.3101,25.5264 871.3101,27.6265 Q871.3101,29.7183 871.9949,30.7849 Q872.6797,31.8516 874.0244,31.8516 Q874.6553,31.8516 875.2488,31.5818 Q875.8423,31.312 876.4731,30.731 Z " fill="#000000"/><text fill="#000000" font-family="sans-serif" font-size="12" font-style="italic" lengthAdjust="spacing" textLength="61" x="952.5" y="23.6016">&#171;concrete&#187;</text><text fill="#000000" font-family="sans-serif" font-size="14" lengthAdjust="spacing" textLength="190" x="888" y="39.668">CreateUserRequestMessage</text><line style="stroke:#808080;stroke-width:0.5;" x1="860" x2="1080" y1="47.6211" y2="47.6211"/><rect fill="none" height="6" style="stroke:#C82930;stroke-width:1.0;" width="6" x="867" y="58.3652"/><text fill="#000000" font-family="sans-serif" font-size="14" lengthAdjust="spacing" textLength="121" x="879" y="65.1563">username : String</text></g><path d="M565.5,21.9 L565.5,47.2105 A0,0 0 0 0 565.5,47.2105 L824.5,47.2105 A0,0 0 0 0 824.5,47.2105 L824.5,39.9 L863,59.8652 L824.5,31.9 L824.5,31.9 L814.5,21.9 L565.5,21.9 A0,0 0 0 0 565.5,21.9 " fill="#FEFFDD" style="stroke:#181818;stroke-width:0.5;"/><path d="M814.5,21.9 L814.5,31.9 L824.5,31.9 L814.5,21.9 " fill="#FEFFDD" style="stroke:#181818;stroke-width:0.5;"/><text fill="#000000" font-family="sans-serif" font-size="13" lengthAdjust="spacing" textLength="238" x="571.5" y="39.4684">&#1087;&#1086;&#1083;&#1077; &#1087;&#1086;&#1084;&#1077;&#1095;&#1077;&#1085;&#1086; &#1072;&#1085;&#1085;&#1086;&#1090;&#1072;&#1094;&#1080;&#1077;&#1081; NotBlank</text><!--link CreateGameRequestMessage to BaseRequestMessage--><g id="link_CreateGameRequestMessage_BaseRequestMessage"><path codeLine="220" d="M237.3,70.7 C311.48,90.1 388.3456,110.196 453.0856,127.126 " fill="none" id="CreateGameRequestMessage-to-BaseRequestMessage" style="stroke:#008000;stroke-width:1.0;stroke-dasharray:7.0,7.0;"/><polygon fill="none" points="470.5,131.68,454.6036,121.3212,451.5676,132.9308,470.5,131.68" style="stroke:#008000;stroke-width:1.0;"/></g><!--link CreateUserRequestMessage to BaseRequestMessage--><g id="link_CreateUserRequestMessage_BaseRequestMessage"><path codeLine="221" d="M858.6,69.68 C783.89,89.22 704.8949,109.878 639.0149,127.098 " fill="none" id="CreateUserRequestMessage-to-BaseRequestMessage" style="stroke:#008000;stroke-width:1.0;stroke-dasharray:7.0,7.0;"/><polygon fill="none" points="621.6,131.65,640.5322,132.903,637.4976,121.293,621.6,131.65" style="stroke:#008000;stroke-width:1.0;"/></g><!--SRC=[hP6_JW914CRxVOf9hAMm9EGAA8o55X8VOBtxxjYmVt1sBuOWZOM-3Ws9HiLNMDx8lHmQ2H2ZiTh9p7pV_6Pdf0eGp2HCoS1SWxtmOsKdagMXt9c9ix1X6AOQL1jz8lQLQIQ8-euByC1fntHKCQPDJkRZYbrjYqt-TgG2n7pBHKll_-3GwlhIun8tDNmuX_Uo0lLwoWPmANDasQPjm901fzBiDkVEveoGUXF4h5JGnPoEQmy-AwXBmy3ALfGcMXT0hAfH85SUTEnsMsbYZ-zn5L_YiWrUutBz69VnBQueBjAJWlLzNAmVubDAFzE52tqjxLZ05jGCInPR-5V9-1VuDh5zBV39hr5-mzzrRF4RwNyi80x-UwTpb-qxNdDtM75muHzq7m00]--></g></svg>