<?xml version="1.0" encoding="us-ascii" standalone="no"?><svg xmlns="http://www.w3.org/2000/svg" xmlns:xlink="http://www.w3.org/1999/xlink" contentStyleType="text/css" height="178px" preserveAspectRatio="none" style="width:1132px;height:178px;background:#FFFFFF;" version="1.1" viewBox="0 0 1132 178" width="1132px" zoomAndPan="magnify"><defs/><g><!--class BaseRequestMessage--><g id="elem_BaseRequestMessage"><rect codeLine="205" fill="#FFFFFF" height="40.2656" id="BaseRequestMessage" rx="2.5" ry="2.5" style="stroke:#808080;stroke-width:0.5;" width="189" x="474" y="132"/><ellipse cx="489" cy="152.1328" fill="#ADD1B2" rx="11" ry="11" style="stroke:#181818;stroke-width:1.0;"/><path d="M491.9688,157.7734 Q491.3906,158.0703 490.75,158.2109 Q490.1094,158.3672 489.4063,158.3672 Q486.9063,158.3672 485.5781,156.7266 Q484.2656,155.0703 484.2656,151.9453 Q484.2656,148.8203 485.5781,147.1641 Q486.9063,145.5078 489.4063,145.5078 Q490.1094,145.5078 490.75,145.6641 Q491.4063,145.8203 491.9688,146.1172 L491.9688,148.8359 Q491.3438,148.2578 490.75,147.9922 Q490.1563,147.7109 489.5313,147.7109 Q488.1875,147.7109 487.5,148.7891 Q486.8125,149.8516 486.8125,151.9453 Q486.8125,154.0391 487.5,155.1172 Q488.1875,156.1797 489.5313,156.1797 Q490.1563,156.1797 490.75,155.9141 Q491.3438,155.6328 491.9688,155.0547 L491.9688,157.7734 Z " fill="#000000"/><text fill="#000000" font-family="sans-serif" font-size="12" font-style="italic" lengthAdjust="spacing" textLength="70" x="546.5" y="148.1387">&#171;interface&#187;</text><text fill="#000000" font-family="sans-serif" font-size="14" lengthAdjust="spacing" textLength="157" x="503" y="163.9639">BaseRequestMessage</text></g><!--class CreateGameRequestMessage--><g id="elem_CreateGameRequestMessage"><rect codeLine="206" fill="#FFFFFF" height="64.5625" id="CreateGameRequestMessage" rx="2.5" ry="2.5" style="stroke:#808080;stroke-width:0.5;" width="241" x="7" y="7"/><ellipse cx="22" cy="27.1328" fill="#ADD1B2" rx="11" ry="11" style="stroke:#181818;stroke-width:1.0;"/><path d="M24.9688,32.7734 Q24.3906,33.0703 23.75,33.2109 Q23.1094,33.3672 22.4063,33.3672 Q19.9063,33.3672 18.5781,31.7266 Q17.2656,30.0703 17.2656,26.9453 Q17.2656,23.8203 18.5781,22.1641 Q19.9063,20.5078 22.4063,20.5078 Q23.1094,20.5078 23.75,20.6641 Q24.4063,20.8203 24.9688,21.1172 L24.9688,23.8359 Q24.3438,23.2578 23.75,22.9922 Q23.1563,22.7109 22.5313,22.7109 Q21.1875,22.7109 20.5,23.7891 Q19.8125,24.8516 19.8125,26.9453 Q19.8125,29.0391 20.5,30.1172 Q21.1875,31.1797 22.5313,31.1797 Q23.1563,31.1797 23.75,30.9141 Q24.3438,30.6328 24.9688,30.0547 L24.9688,32.7734 Z " fill="#000000"/><text fill="#000000" font-family="sans-serif" font-size="12" font-style="italic" lengthAdjust="spacing" textLength="70" x="105.5" y="23.1387">&#171;concrete&#187;</text><text fill="#000000" font-family="sans-serif" font-size="14" lengthAdjust="spacing" textLength="209" x="36" y="38.9639">CreateGameRequestMessage</text><line style="stroke:#808080;stroke-width:0.5;" x1="8" x2="247" y1="47.2656" y2="47.2656"/><rect fill="none" height="6" style="stroke:#C82930;stroke-width:1.0;" width="6" x="15" y="57.9141"/><text fill="#000000" font-family="sans-serif" font-size="14" lengthAdjust="spacing" textLength="96" x="27" y="64.2607">userId : String</text></g><path d="M283.5,22 L283.5,30.5664 L123,59.4141 L283.5,38.5664 L283.5,47.1328 A0,0 0 0 0 283.5,47.1328 L553.5,47.1328 A0,0 0 0 0 553.5,47.1328 L553.5,32 L543.5,22 L283.5,22 A0,0 0 0 0 283.5,22 " fill="#FEFFDD" style="stroke:#181818;stroke-width:0.5;"/><path d="M543.5,22 L543.5,32 L553.5,32 L543.5,22 " fill="#FEFFDD" style="stroke:#181818;stroke-width:0.5;"/><text fill="#000000" font-family="sans-serif" font-size="13" lengthAdjust="spacing" textLength="249" x="289.5" y="39.0669">&#1087;&#1086;&#1083;&#1077; &#1087;&#1086;&#1084;&#1077;&#1095;&#1077;&#1085;&#1086; &#1072;&#1085;&#1085;&#1086;&#1090;&#1072;&#1094;&#1080;&#1077;&#1081; NotBlank</text><!--class CreateUserRequestMessage--><g id="elem_CreateUserRequestMessage"><rect codeLine="213" fill="#FFFFFF" height="64.5625" id="CreateUserRequestMessage" rx="2.5" ry="2.5" style="stroke:#808080;stroke-width:0.5;" width="232" x="893.5" y="7"/><ellipse cx="908.5" cy="27.1328" fill="#ADD1B2" rx="11" ry="11" style="stroke:#181818;stroke-width:1.0;"/><path d="M911.4688,32.7734 Q910.8906,33.0703 910.25,33.2109 Q909.6094,33.3672 908.9063,33.3672 Q906.4063,33.3672 905.0781,31.7266 Q903.7656,30.0703 903.7656,26.9453 Q903.7656,23.8203 905.0781,22.1641 Q906.4063,20.5078 908.9063,20.5078 Q909.6094,20.5078 910.25,20.6641 Q910.9063,20.8203 911.4688,21.1172 L911.4688,23.8359 Q910.8438,23.2578 910.25,22.9922 Q909.6563,22.7109 909.0313,22.7109 Q907.6875,22.7109 907,23.7891 Q906.3125,24.8516 906.3125,26.9453 Q906.3125,29.0391 907,30.1172 Q907.6875,31.1797 909.0313,31.1797 Q909.6563,31.1797 910.25,30.9141 Q910.8438,30.6328 911.4688,30.0547 L911.4688,32.7734 Z " fill="#000000"/><text fill="#000000" font-family="sans-serif" font-size="12" font-style="italic" lengthAdjust="spacing" textLength="70" x="987.5" y="23.1387">&#171;concrete&#187;</text><text fill="#000000" font-family="sans-serif" font-size="14" lengthAdjust="spacing" textLength="200" x="922.5" y="38.9639">CreateUserRequestMessage</text><line style="stroke:#808080;stroke-width:0.5;" x1="894.5" x2="1124.5" y1="47.2656" y2="47.2656"/><rect fill="none" height="6" style="stroke:#C82930;stroke-width:1.0;" width="6" x="901.5" y="57.9141"/><text fill="#000000" font-family="sans-serif" font-size="14" lengthAdjust="spacing" textLength="123" x="913.5" y="64.2607">username : String</text></g><path d="M588.5,22 L588.5,47.1328 A0,0 0 0 0 588.5,47.1328 L858.5,47.1328 A0,0 0 0 0 858.5,47.1328 L858.5,40 L897.5,59.4141 L858.5,32 L858.5,32 L848.5,22 L588.5,22 A0,0 0 0 0 588.5,22 " fill="#FEFFDD" style="stroke:#181818;stroke-width:0.5;"/><path d="M848.5,22 L848.5,32 L858.5,32 L848.5,22 " fill="#FEFFDD" style="stroke:#181818;stroke-width:0.5;"/><text fill="#000000" font-family="sans-serif" font-size="13" lengthAdjust="spacing" textLength="249" x="594.5" y="39.0669">&#1087;&#1086;&#1083;&#1077; &#1087;&#1086;&#1084;&#1077;&#1095;&#1077;&#1085;&#1086; &#1072;&#1085;&#1085;&#1086;&#1090;&#1072;&#1094;&#1080;&#1077;&#1081; NotBlank</text><!--link CreateGameRequestMessage to BaseRequestMessage--><g id="link_CreateGameRequestMessage_BaseRequestMessage"><path codeLine="220" d="M248.01,70.69 C326.04,90.25 407.8202,110.7334 475.0402,127.5834 " fill="none" id="CreateGameRequestMessage-to-BaseRequestMessage" style="stroke:#008000;stroke-width:1.0;stroke-dasharray:7.0,7.0;"/><polygon fill="none" points="492.5,131.96,476.4991,121.7634,473.5813,133.4033,492.5,131.96" style="stroke:#008000;stroke-width:1.0;"/></g><!--link CreateUserRequestMessage to BaseRequestMessage--><g id="link_CreateUserRequestMessage_BaseRequestMessage"><path codeLine="221" d="M893.34,69.6 C814.62,89.33 730.2908,110.4672 661.8108,127.6172 " fill="none" id="CreateUserRequestMessage-to-BaseRequestMessage" style="stroke:#008000;stroke-width:1.0;stroke-dasharray:7.0,7.0;"/><polygon fill="none" points="644.35,131.99,663.2684,133.4374,660.3532,121.7969,644.35,131.99" style="stroke:#008000;stroke-width:1.0;"/></g><!--SRC=[hP6_JW914CRxVOf9hAMm9EGAA8o55X8VOBtxxjYmVt1sBuOWZOM-3Ws9HiLNMDx8lHmQ2H2ZiTh9p7pV_6Pdf0eGp2HCoS1SWxtmOsKdagMXt9c9ix1X6AOQL1jz8lQLQIQ8-euByC1fntHKCQPDJkRZYbrjYqt-TgG2n7pBHKll_-3GwlhIun8tDNmuX_Uo0lLwoWPmANDasQPjm901fzBiDkVEveoGUXF4h5JGnPoEQmy-AwXBmy3ALfGcMXT0hAfH85SUTEnsMsbYZ-zn5L_YiWrUutBz69VnBQueBjAJWlLzNAmVubDAFzE52tqjxLZ05jGCInPR-5V9-1VuDh5zBV39hr5-mzzrRF4RwNyi80x-UwTpb-qxNdDtM75muHzq7m00]--></g></svg>