<?xml version="1.0" encoding="us-ascii" standalone="no"?><svg xmlns="http://www.w3.org/2000/svg" xmlns:xlink="http://www.w3.org/1999/xlink" contentStyleType="text/css" height="478px" preserveAspectRatio="none" style="width:717px;height:478px;background:#FFFFFF;" version="1.1" viewBox="0 0 717 478" width="717px" zoomAndPan="magnify"><defs/><g><!--cluster ru.cbr.siberian.sea.battle.acl--><g id="cluster_ru.cbr.siberian.sea.battle.acl"><path d="M56.5,272 L283.5,272 A3.75,3.75 0 0 1 286,274.5 L293,294.2969 L293.5,294.2969 A2.5,2.5 0 0 1 296,296.7969 L296,352.5 A2.5,2.5 0 0 1 293.5,355 L56.5,355 A2.5,2.5 0 0 1 54,352.5 L54,274.5 A2.5,2.5 0 0 1 56.5,272 " fill="none" style="stroke:#000000;stroke-width:1.5;"/><line style="stroke:#000000;stroke-width:1.5;" x1="54" x2="293" y1="294.2969" y2="294.2969"/><text fill="#000000" font-family="sans-serif" font-size="14" font-weight="bold" lengthAdjust="spacing" textLength="226" x="58" y="286.9951">ru.cbr.siberian.sea.battle.acl</text></g><!--cluster ru.cbr.siberian.sea.battle.configuration--><g id="cluster_ru.cbr.siberian.sea.battle.configuration"><path d="M387.5,6 L697.5,6 A3.75,3.75 0 0 1 700,8.5 L707,28.2969 L707.5,28.2969 A2.5,2.5 0 0 1 710,30.7969 L710,86.5 A2.5,2.5 0 0 1 707.5,89 L387.5,89 A2.5,2.5 0 0 1 385,86.5 L385,8.5 A2.5,2.5 0 0 1 387.5,6 " fill="none" style="stroke:#000000;stroke-width:1.5;"/><line style="stroke:#000000;stroke-width:1.5;" x1="385" x2="707" y1="28.2969" y2="28.2969"/><text fill="#000000" font-family="sans-serif" font-size="14" font-weight="bold" lengthAdjust="spacing" textLength="309" x="389" y="20.9951">ru.cbr.siberian.sea.battle.configuration</text></g><!--cluster ru.cbr.siberian.sea.battle.controller--><g id="cluster_ru.cbr.siberian.sea.battle.controller"><path d="M66.5,6 L348.5,6 A3.75,3.75 0 0 1 351,8.5 L358,28.2969 L358.5,28.2969 A2.5,2.5 0 0 1 361,30.7969 L361,86.5 A2.5,2.5 0 0 1 358.5,89 L66.5,89 A2.5,2.5 0 0 1 64,86.5 L64,8.5 A2.5,2.5 0 0 1 66.5,6 " fill="none" style="stroke:#000000;stroke-width:1.5;"/><line style="stroke:#000000;stroke-width:1.5;" x1="64" x2="358" y1="28.2969" y2="28.2969"/><text fill="#000000" font-family="sans-serif" font-size="14" font-weight="bold" lengthAdjust="spacing" textLength="281" x="68" y="20.9951">ru.cbr.siberian.sea.battle.controller</text></g><!--cluster ru.cbr.siberian.sea.battle.dao--><g id="cluster_ru.cbr.siberian.sea.battle.dao"><path d="M324.5,388 L558.5,388 A3.75,3.75 0 0 1 561,390.5 L568,410.2969 L568.5,410.2969 A2.5,2.5 0 0 1 571,412.7969 L571,468.5 A2.5,2.5 0 0 1 568.5,471 L324.5,471 A2.5,2.5 0 0 1 322,468.5 L322,390.5 A2.5,2.5 0 0 1 324.5,388 " fill="none" style="stroke:#000000;stroke-width:1.5;"/><line style="stroke:#000000;stroke-width:1.5;" x1="322" x2="568" y1="410.2969" y2="410.2969"/><text fill="#000000" font-family="sans-serif" font-size="14" font-weight="bold" lengthAdjust="spacing" textLength="233" x="326" y="402.9951">ru.cbr.siberian.sea.battle.dao</text></g><!--cluster ru.cbr.siberian.sea.battle.model--><g id="cluster_ru.cbr.siberian.sea.battle.model"><path d="M8.5,388 L261.5,388 A3.75,3.75 0 0 1 264,390.5 L271,410.2969 L271.5,410.2969 A2.5,2.5 0 0 1 274,412.7969 L274,468.5 A2.5,2.5 0 0 1 271.5,471 L8.5,471 A2.5,2.5 0 0 1 6,468.5 L6,390.5 A2.5,2.5 0 0 1 8.5,388 " fill="none" style="stroke:#000000;stroke-width:1.5;"/><line style="stroke:#000000;stroke-width:1.5;" x1="6" x2="271" y1="410.2969" y2="410.2969"/><text fill="#000000" font-family="sans-serif" font-size="14" font-weight="bold" lengthAdjust="spacing" textLength="252" x="10" y="402.9951">ru.cbr.siberian.sea.battle.model</text></g><!--cluster ru.cbr.siberian.sea.battle.repository--><g id="cluster_ru.cbr.siberian.sea.battle.repository"><path d="M322.5,272 L609.5,272 A3.75,3.75 0 0 1 612,274.5 L619,294.2969 L619.5,294.2969 A2.5,2.5 0 0 1 622,296.7969 L622,352.5 A2.5,2.5 0 0 1 619.5,355 L322.5,355 A2.5,2.5 0 0 1 320,352.5 L320,274.5 A2.5,2.5 0 0 1 322.5,272 " fill="none" style="stroke:#000000;stroke-width:1.5;"/><line style="stroke:#000000;stroke-width:1.5;" x1="320" x2="619" y1="294.2969" y2="294.2969"/><text fill="#000000" font-family="sans-serif" font-size="14" font-weight="bold" lengthAdjust="spacing" textLength="286" x="324" y="286.9951">ru.cbr.siberian.sea.battle.repository</text></g><!--cluster ru.cbr.siberian.sea.battle.service--><g id="cluster_ru.cbr.siberian.sea.battle.service"><path d="M110.5,122 L373.5,122 A3.75,3.75 0 0 1 376,124.5 L383,144.2969 L444.5,144.2969 A2.5,2.5 0 0 1 447,146.7969 L447,202.5 A2.5,2.5 0 0 1 444.5,205 L110.5,205 A2.5,2.5 0 0 1 108,202.5 L108,124.5 A2.5,2.5 0 0 1 110.5,122 " fill="none" style="stroke:#000000;stroke-width:1.5;"/><line style="stroke:#000000;stroke-width:1.5;" x1="108" x2="383" y1="144.2969" y2="144.2969"/><text fill="#000000" font-family="sans-serif" font-size="14" font-weight="bold" lengthAdjust="spacing" textLength="262" x="112" y="136.9951">ru.cbr.siberian.sea.battle.service</text></g><!--class MatchMapper--><g id="elem_MatchMapper"><rect codeLine="352" fill="#FFFFFF" height="32" id="MatchMapper" rx="2.5" ry="2.5" style="stroke:#808080;stroke-width:0.5;" width="126" x="154" y="307"/><ellipse cx="169" cy="323" fill="#ADD1B2" rx="11" ry="11" style="stroke:#181818;stroke-width:1.0;"/><path d="M171.9688,328.6406 Q171.3906,328.9375 170.75,329.0781 Q170.1094,329.2344 169.4063,329.2344 Q166.9063,329.2344 165.5781,327.5938 Q164.2656,325.9375 164.2656,322.8125 Q164.2656,319.6875 165.5781,318.0313 Q166.9063,316.375 169.4063,316.375 Q170.1094,316.375 170.75,316.5313 Q171.4063,316.6875 171.9688,316.9844 L171.9688,319.7031 Q171.3438,319.125 170.75,318.8594 Q170.1563,318.5781 169.5313,318.5781 Q168.1875,318.5781 167.5,319.6563 Q166.8125,320.7188 166.8125,322.8125 Q166.8125,324.9063 167.5,325.9844 Q168.1875,327.0469 169.5313,327.0469 Q170.1563,327.0469 170.75,326.7813 Q171.3438,326.5 171.9688,325.9219 L171.9688,328.6406 Z " fill="#000000"/><text fill="#000000" font-family="sans-serif" font-size="14" lengthAdjust="spacing" textLength="94" x="183" y="327.8467">MatchMapper</text></g><!--class WebSocketConfiguration--><g id="elem_WebSocketConfiguration"><rect codeLine="356" fill="#FFFFFF" height="32" id="WebSocketConfiguration" rx="2.5" ry="2.5" style="stroke:#808080;stroke-width:0.5;" width="203" x="445.5" y="41"/><ellipse cx="460.5" cy="57" fill="#ADD1B2" rx="11" ry="11" style="stroke:#181818;stroke-width:1.0;"/><path d="M463.4688,62.6406 Q462.8906,62.9375 462.25,63.0781 Q461.6094,63.2344 460.9063,63.2344 Q458.4063,63.2344 457.0781,61.5938 Q455.7656,59.9375 455.7656,56.8125 Q455.7656,53.6875 457.0781,52.0313 Q458.4063,50.375 460.9063,50.375 Q461.6094,50.375 462.25,50.5313 Q462.9063,50.6875 463.4688,50.9844 L463.4688,53.7031 Q462.8438,53.125 462.25,52.8594 Q461.6563,52.5781 461.0313,52.5781 Q459.6875,52.5781 459,53.6563 Q458.3125,54.7188 458.3125,56.8125 Q458.3125,58.9063 459,59.9844 Q459.6875,61.0469 461.0313,61.0469 Q461.6563,61.0469 462.25,60.7813 Q462.8438,60.5 463.4688,59.9219 L463.4688,62.6406 Z " fill="#000000"/><text fill="#000000" font-family="sans-serif" font-size="14" lengthAdjust="spacing" textLength="171" x="474.5" y="61.8467">WebSocketConfiguration</text></g><!--class GameController--><g id="elem_GameController"><rect codeLine="360" fill="#FFFFFF" height="32" id="GameController" rx="2.5" ry="2.5" style="stroke:#808080;stroke-width:0.5;" width="140" x="128" y="41"/><ellipse cx="143" cy="57" fill="#ADD1B2" rx="11" ry="11" style="stroke:#181818;stroke-width:1.0;"/><path d="M145.9688,62.6406 Q145.3906,62.9375 144.75,63.0781 Q144.1094,63.2344 143.4063,63.2344 Q140.9063,63.2344 139.5781,61.5938 Q138.2656,59.9375 138.2656,56.8125 Q138.2656,53.6875 139.5781,52.0313 Q140.9063,50.375 143.4063,50.375 Q144.1094,50.375 144.75,50.5313 Q145.4063,50.6875 145.9688,50.9844 L145.9688,53.7031 Q145.3438,53.125 144.75,52.8594 Q144.1563,52.5781 143.5313,52.5781 Q142.1875,52.5781 141.5,53.6563 Q140.8125,54.7188 140.8125,56.8125 Q140.8125,58.9063 141.5,59.9844 Q142.1875,61.0469 143.5313,61.0469 Q144.1563,61.0469 144.75,60.7813 Q145.3438,60.5 145.9688,59.9219 L145.9688,62.6406 Z " fill="#000000"/><text fill="#000000" font-family="sans-serif" font-size="14" lengthAdjust="spacing" textLength="108" x="157" y="61.8467">GameController</text></g><!--class MatchDao--><g id="elem_MatchDao"><rect codeLine="364" fill="#FFFFFF" height="32" id="MatchDao" rx="2.5" ry="2.5" style="stroke:#808080;stroke-width:0.5;" width="102" x="350" y="423"/><ellipse cx="365" cy="439" fill="#ADD1B2" rx="11" ry="11" style="stroke:#181818;stroke-width:1.0;"/><path d="M367.9688,444.6406 Q367.3906,444.9375 366.75,445.0781 Q366.1094,445.2344 365.4063,445.2344 Q362.9063,445.2344 361.5781,443.5938 Q360.2656,441.9375 360.2656,438.8125 Q360.2656,435.6875 361.5781,434.0313 Q362.9063,432.375 365.4063,432.375 Q366.1094,432.375 366.75,432.5313 Q367.4063,432.6875 367.9688,432.9844 L367.9688,435.7031 Q367.3438,435.125 366.75,434.8594 Q366.1563,434.5781 365.5313,434.5781 Q364.1875,434.5781 363.5,435.6563 Q362.8125,436.7188 362.8125,438.8125 Q362.8125,440.9063 363.5,441.9844 Q364.1875,443.0469 365.5313,443.0469 Q366.1563,443.0469 366.75,442.7813 Q367.3438,442.5 367.9688,441.9219 L367.9688,444.6406 Z " fill="#000000"/><text fill="#000000" font-family="sans-serif" font-size="14" lengthAdjust="spacing" textLength="70" x="379" y="443.8467">MatchDao</text></g><!--class Match--><g id="elem_Match"><rect codeLine="368" fill="#FFFFFF" height="32" id="Match" rx="2.5" ry="2.5" style="stroke:#808080;stroke-width:0.5;" width="74" x="180" y="423"/><ellipse cx="195" cy="439" fill="#ADD1B2" rx="11" ry="11" style="stroke:#181818;stroke-width:1.0;"/><path d="M197.9688,444.6406 Q197.3906,444.9375 196.75,445.0781 Q196.1094,445.2344 195.4063,445.2344 Q192.9063,445.2344 191.5781,443.5938 Q190.2656,441.9375 190.2656,438.8125 Q190.2656,435.6875 191.5781,434.0313 Q192.9063,432.375 195.4063,432.375 Q196.1094,432.375 196.75,432.5313 Q197.4063,432.6875 197.9688,432.9844 L197.9688,435.7031 Q197.3438,435.125 196.75,434.8594 Q196.1563,434.5781 195.5313,434.5781 Q194.1875,434.5781 193.5,435.6563 Q192.8125,436.7188 192.8125,438.8125 Q192.8125,440.9063 193.5,441.9844 Q194.1875,443.0469 195.5313,443.0469 Q196.1563,443.0469 196.75,442.7813 Q197.3438,442.5 197.9688,441.9219 L197.9688,444.6406 Z " fill="#000000"/><text fill="#000000" font-family="sans-serif" font-size="14" lengthAdjust="spacing" textLength="42" x="209" y="443.8467">Match</text></g><!--class MatchRepository--><g id="elem_MatchRepository"><rect codeLine="372" fill="#FFFFFF" height="32" id="MatchRepository" rx="2.5" ry="2.5" style="stroke:#808080;stroke-width:0.5;" width="148" x="336" y="307"/><ellipse cx="351" cy="323" fill="#B4A7E5" rx="11" ry="11" style="stroke:#181818;stroke-width:1.0;"/><path d="M346.9219,318.7656 L346.9219,316.6094 L354.3125,316.6094 L354.3125,318.7656 L351.8438,318.7656 L351.8438,326.8438 L354.3125,326.8438 L354.3125,329 L346.9219,329 L346.9219,326.8438 L349.3906,326.8438 L349.3906,318.7656 L346.9219,318.7656 Z " fill="#000000"/><text fill="#000000" font-family="sans-serif" font-size="14" font-style="italic" lengthAdjust="spacing" textLength="116" x="365" y="327.8467">MatchRepository</text></g><!--class MatchService--><g id="elem_MatchService"><rect codeLine="376" fill="#FFFFFF" height="32" id="MatchService" rx="2.5" ry="2.5" style="stroke:#808080;stroke-width:0.5;" width="124" x="307" y="157"/><ellipse cx="322" cy="173" fill="#ADD1B2" rx="11" ry="11" style="stroke:#181818;stroke-width:1.0;"/><path d="M324.9688,178.6406 Q324.3906,178.9375 323.75,179.0781 Q323.1094,179.2344 322.4063,179.2344 Q319.9063,179.2344 318.5781,177.5938 Q317.2656,175.9375 317.2656,172.8125 Q317.2656,169.6875 318.5781,168.0313 Q319.9063,166.375 322.4063,166.375 Q323.1094,166.375 323.75,166.5313 Q324.4063,166.6875 324.9688,166.9844 L324.9688,169.7031 Q324.3438,169.125 323.75,168.8594 Q323.1563,168.5781 322.5313,168.5781 Q321.1875,168.5781 320.5,169.6563 Q319.8125,170.7188 319.8125,172.8125 Q319.8125,174.9063 320.5,175.9844 Q321.1875,177.0469 322.5313,177.0469 Q323.1563,177.0469 323.75,176.7813 Q324.3438,176.5 324.9688,175.9219 L324.9688,178.6406 Z " fill="#000000"/><text fill="#000000" font-family="sans-serif" font-size="14" lengthAdjust="spacing" textLength="92" x="336" y="177.8467">MatchService</text></g><!--class SeaBattleService--><g id="elem_SeaBattleService"><rect codeLine="377" fill="#FFFFFF" height="32" id="SeaBattleService" rx="2.5" ry="2.5" style="stroke:#808080;stroke-width:0.5;" width="148" x="124" y="157"/><ellipse cx="139" cy="173" fill="#ADD1B2" rx="11" ry="11" style="stroke:#181818;stroke-width:1.0;"/><path d="M141.9688,178.6406 Q141.3906,178.9375 140.75,179.0781 Q140.1094,179.2344 139.4063,179.2344 Q136.9063,179.2344 135.5781,177.5938 Q134.2656,175.9375 134.2656,172.8125 Q134.2656,169.6875 135.5781,168.0313 Q136.9063,166.375 139.4063,166.375 Q140.1094,166.375 140.75,166.5313 Q141.4063,166.6875 141.9688,166.9844 L141.9688,169.7031 Q141.3438,169.125 140.75,168.8594 Q140.1563,168.5781 139.5313,168.5781 Q138.1875,168.5781 137.5,169.6563 Q136.8125,170.7188 136.8125,172.8125 Q136.8125,174.9063 137.5,175.9844 Q138.1875,177.0469 139.5313,177.0469 Q140.1563,177.0469 140.75,176.7813 Q141.3438,176.5 141.9688,175.9219 L141.9688,178.6406 Z " fill="#000000"/><text fill="#000000" font-family="sans-serif" font-size="14" lengthAdjust="spacing" textLength="116" x="153" y="177.8467">SeaBattleService</text></g><!--link GameController to SeaBattleService--><g id="link_GameController_SeaBattleService"><path codeLine="380" d="M198,73.37 C198,95.25 198,129.12 198,150.87 " fill="none" id="GameController-to-SeaBattleService" style="stroke:#008000;stroke-width:1.0;"/><polygon fill="#008000" points="198,156.87,202,147.87,198,151.87,194,147.87,198,156.87" style="stroke:#008000;stroke-width:1.0;"/></g><!--link MatchService to MatchMapper--><g id="link_MatchService_MatchMapper"><path codeLine="382" d="M369.15,189.15 C368.5,207.43 364.59,237.95 347,256 C338.27,264.96 331.53,259.12 320,264 C291.46,276.08 265.8484,290.9107 245.4584,303.6507 " fill="none" id="MatchService-to-MatchMapper" style="stroke:#008000;stroke-width:1.0;"/><polygon fill="#008000" points="240.37,306.83,250.1222,305.4533,244.6103,304.1806,245.8831,298.6687,240.37,306.83" style="stroke:#008000;stroke-width:1.0;"/></g><!--link MatchService to MatchRepository--><g id="link_MatchService_MatchRepository"><path codeLine="383" d="M375.83,189 C379.78,198.12 384.63,210.07 388,221 C397.21,250.84 403.0381,280.8577 406.4881,300.8177 " fill="none" id="MatchService-to-MatchRepository" style="stroke:#008000;stroke-width:1.0;"/><polygon fill="#008000" points="407.51,306.73,409.9187,297.1802,406.6584,301.8031,402.0356,298.5428,407.51,306.73" style="stroke:#008000;stroke-width:1.0;"/></g><!--link MatchRepository to MatchDao--><g id="link_MatchRepository_MatchDao"><path codeLine="384" d="M408.79,339.37 C407.06,361.25 404.383,395.1387 402.663,416.8887 " fill="none" id="MatchRepository-to-MatchDao" style="stroke:#008000;stroke-width:1.0;"/><polygon fill="#008000" points="402.19,422.87,406.8871,414.2133,402.5842,417.8856,398.912,413.5827,402.19,422.87" style="stroke:#008000;stroke-width:1.0;"/></g><!--link MatchMapper to MatchDao--><g id="link_MatchMapper_MatchDao"><path codeLine="385" d="M241.43,339.14 C276.72,361 336.4798,398.0196 371.6598,419.8196 " fill="none" id="MatchMapper-to-MatchDao" style="stroke:#008000;stroke-width:1.0;"/><polygon fill="#008000" points="376.76,422.98,371.2167,414.8393,372.5099,420.3463,367.0028,421.6395,376.76,422.98" style="stroke:#008000;stroke-width:1.0;"/></g><!--link MatchMapper to Match--><g id="link_MatchMapper_Match"><path codeLine="386" d="M217,339.37 C217,361.25 217,395.12 217,416.87 " fill="none" id="MatchMapper-to-Match" style="stroke:#008000;stroke-width:1.0;"/><polygon fill="#008000" points="217,422.87,221,413.87,217,417.87,213,413.87,217,422.87" style="stroke:#008000;stroke-width:1.0;"/></g><!--link MatchMapper to SeaBattleService--><g id="link_MatchMapper_SeaBattleService"><path codeLine="387" d="M185.05,306.98 C165.54,295.9 142.24,278.79 131,256 C124.12,242.05 123.82,234.8 131,221 C138.15,207.26 146.1898,199.7615 158.9998,192.1615 " fill="none" id="MatchMapper-to-SeaBattleService" style="stroke:#DC143C;stroke-width:1.0;"/><polygon fill="#DC143C" points="164.16,189.1,154.3788,190.2521,159.8599,191.6512,158.4607,197.1323,164.16,189.1" style="stroke:#DC143C;stroke-width:1.0;"/><path d="M136,226 L136,251 L338,251 L338,236 L328,226 L136,226 " fill="#DC143C" style="stroke:#181818;stroke-width:0.5;"/><path d="M328,226 L328,236 L338,236 L328,226 " fill="#DC143C" style="stroke:#181818;stroke-width:0.5;"/><text fill="#000000" font-family="sans-serif" font-size="13" lengthAdjust="spacing" textLength="181" x="142" y="243.0669">&#1050;&#1086;&#1084;&#1073;&#1080;&#1085;&#1072;&#1094;&#1080;&#1103; &#1089;&#1086;&#1079;&#1076;&#1072;&#1077;&#1090; &#1094;&#1080;&#1082;&#1083;</text></g><!--SRC=[dPA_JiCm4CRtF8KbvcPWP61eaPYwa87PSQw95V-9pWvLX1XWO6NdAOe4ekBVCpXlXDkc8L6355Y_xxlV-SwNyGG8oC9MH8AC0KrWm1831KLgDHAb5GGcvseZICAqBBoYR6Gh0QIKuZWOiibrGCXKOm8uqy9pZbA4QgDHbgUeIvKq-ZBZ5eAR7aLGO_v1ABn3Ko1OXYp6q70_3wSgD433c5eh8AHCRC6aQJAdbcLpMXI08mbCgmLFIxyThbMFTGbnf5aETjQDZCTQr480zfZdLCAijKQo4geFXpoZUcIvr0aCR6baDKAX3VUdKpK8hYpWWZBOOIvQVoJG05vnNttme6XdTEG8w7HRjBTyX_u6oIJHIpKvFOXkpmjK47JHRRfp9llWxxcV2NlPZjoB-u_fvPesVyuC1WOdPSYbyPUfjFMRvsbcYJzbmLNUUYV4FRelz-6UtDfzkbLzxzRr0wbllVZgdjtAlTHtPAEwD_SUV0C0]--></g></svg>