<?xml version="1.0" encoding="us-ascii" standalone="no"?><svg xmlns="http://www.w3.org/2000/svg" xmlns:xlink="http://www.w3.org/1999/xlink" contentStyleType="text/css" height="478px" preserveAspectRatio="none" style="width:807px;height:478px;background:#FFFFFF;" version="1.1" viewBox="0 0 807 478" width="807px" zoomAndPan="magnify"><defs/><g><!--cluster ru.onixred.siberian.sea.battle.layer.acl--><g id="cluster_ru.onixred.siberian.sea.battle.layer.acl"><path d="M55.5,272 L322.5,272 A3.75,3.75 0 0 1 325,274.5 L332,294.4883 L332.5,294.4883 A2.5,2.5 0 0 1 335,296.9883 L335,352.5 A2.5,2.5 0 0 1 332.5,355 L55.5,355 A2.5,2.5 0 0 1 53,352.5 L53,274.5 A2.5,2.5 0 0 1 55.5,272 " fill="none" style="stroke:#000000;stroke-width:1.5;"/><line style="stroke:#000000;stroke-width:1.5;" x1="53" x2="332" y1="294.4883" y2="294.4883"/><text fill="#000000" font-family="sans-serif" font-size="14" font-weight="bold" lengthAdjust="spacing" textLength="266" x="57" y="287.5352">ru.onixred.siberian.sea.battle.layer.acl</text></g><!--cluster ru.onixred.siberian.sea.battle.layer.configuration--><g id="cluster_ru.onixred.siberian.sea.battle.layer.configuration"><path d="M443.5,6 L787.5,6 A3.75,3.75 0 0 1 790,8.5 L797,28.4883 L797.5,28.4883 A2.5,2.5 0 0 1 800,30.9883 L800,86.5 A2.5,2.5 0 0 1 797.5,89 L443.5,89 A2.5,2.5 0 0 1 441,86.5 L441,8.5 A2.5,2.5 0 0 1 443.5,6 " fill="none" style="stroke:#000000;stroke-width:1.5;"/><line style="stroke:#000000;stroke-width:1.5;" x1="441" x2="797" y1="28.4883" y2="28.4883"/><text fill="#000000" font-family="sans-serif" font-size="14" font-weight="bold" lengthAdjust="spacing" textLength="343" x="445" y="21.5352">ru.onixred.siberian.sea.battle.layer.configuration</text></g><!--cluster ru.onixred.siberian.sea.battle.layer.controller--><g id="cluster_ru.onixred.siberian.sea.battle.layer.controller"><path d="M87.5,6 L404.5,6 A3.75,3.75 0 0 1 407,8.5 L414,28.4883 L414.5,28.4883 A2.5,2.5 0 0 1 417,30.9883 L417,86.5 A2.5,2.5 0 0 1 414.5,89 L87.5,89 A2.5,2.5 0 0 1 85,86.5 L85,8.5 A2.5,2.5 0 0 1 87.5,6 " fill="none" style="stroke:#000000;stroke-width:1.5;"/><line style="stroke:#000000;stroke-width:1.5;" x1="85" x2="414" y1="28.4883" y2="28.4883"/><text fill="#000000" font-family="sans-serif" font-size="14" font-weight="bold" lengthAdjust="spacing" textLength="316" x="89" y="21.5352">ru.onixred.siberian.sea.battle.layer.controller</text></g><!--cluster ru.onixred.siberian.sea.battle.layer.dao--><g id="cluster_ru.onixred.siberian.sea.battle.layer.dao"><path d="M363.5,388 L636.5,388 A3.75,3.75 0 0 1 639,390.5 L646,410.4883 L646.5,410.4883 A2.5,2.5 0 0 1 649,412.9883 L649,468.5 A2.5,2.5 0 0 1 646.5,471 L363.5,471 A2.5,2.5 0 0 1 361,468.5 L361,390.5 A2.5,2.5 0 0 1 363.5,388 " fill="none" style="stroke:#000000;stroke-width:1.5;"/><line style="stroke:#000000;stroke-width:1.5;" x1="361" x2="646" y1="410.4883" y2="410.4883"/><text fill="#000000" font-family="sans-serif" font-size="14" font-weight="bold" lengthAdjust="spacing" textLength="272" x="365" y="403.5352">ru.onixred.siberian.sea.battle.layer.dao</text></g><!--cluster ru.onixred.siberian.sea.battle.layer.model--><g id="cluster_ru.onixred.siberian.sea.battle.layer.model"><path d="M8.5,388 L300.5,388 A3.75,3.75 0 0 1 303,390.5 L310,410.4883 L310.5,410.4883 A2.5,2.5 0 0 1 313,412.9883 L313,468.5 A2.5,2.5 0 0 1 310.5,471 L8.5,471 A2.5,2.5 0 0 1 6,468.5 L6,390.5 A2.5,2.5 0 0 1 8.5,388 " fill="none" style="stroke:#000000;stroke-width:1.5;"/><line style="stroke:#000000;stroke-width:1.5;" x1="6" x2="310" y1="410.4883" y2="410.4883"/><text fill="#000000" font-family="sans-serif" font-size="14" font-weight="bold" lengthAdjust="spacing" textLength="291" x="10" y="403.5352">ru.onixred.siberian.sea.battle.layer.model</text></g><!--cluster ru.onixred.siberian.sea.battle.layer.repository--><g id="cluster_ru.onixred.siberian.sea.battle.layer.repository"><path d="M361.5,272 L682.5,272 A3.75,3.75 0 0 1 685,274.5 L692,294.4883 L692.5,294.4883 A2.5,2.5 0 0 1 695,296.9883 L695,352.5 A2.5,2.5 0 0 1 692.5,355 L361.5,355 A2.5,2.5 0 0 1 359,352.5 L359,274.5 A2.5,2.5 0 0 1 361.5,272 " fill="none" style="stroke:#000000;stroke-width:1.5;"/><line style="stroke:#000000;stroke-width:1.5;" x1="359" x2="692" y1="294.4883" y2="294.4883"/><text fill="#000000" font-family="sans-serif" font-size="14" font-weight="bold" lengthAdjust="spacing" textLength="320" x="363" y="287.5352">ru.onixred.siberian.sea.battle.layer.repository</text></g><!--cluster ru.onixred.siberian.sea.battle.layer.service--><g id="cluster_ru.onixred.siberian.sea.battle.layer.service"><path d="M155.5,122 L452.5,122 A3.75,3.75 0 0 1 455,124.5 L462,144.4883 L481.5,144.4883 A2.5,2.5 0 0 1 484,146.9883 L484,202.5 A2.5,2.5 0 0 1 481.5,205 L155.5,205 A2.5,2.5 0 0 1 153,202.5 L153,124.5 A2.5,2.5 0 0 1 155.5,122 " fill="none" style="stroke:#000000;stroke-width:1.5;"/><line style="stroke:#000000;stroke-width:1.5;" x1="153" x2="462" y1="144.4883" y2="144.4883"/><text fill="#000000" font-family="sans-serif" font-size="14" font-weight="bold" lengthAdjust="spacing" textLength="296" x="157" y="137.5352">ru.onixred.siberian.sea.battle.layer.service</text></g><!--class MatchMapper--><g id="elem_MatchMapper"><rect codeLine="352" fill="#FFFFFF" height="32" id="MatchMapper" rx="2.5" ry="2.5" style="stroke:#808080;stroke-width:0.5;" width="125" x="194.5" y="307"/><ellipse cx="209.5" cy="323" fill="#ADD1B2" rx="11" ry="11" style="stroke:#181818;stroke-width:1.0;"/><path d="M211.9731,329.1431 Q211.3921,329.4419 210.7529,329.5913 Q210.1138,329.7407 209.4082,329.7407 Q206.9014,329.7407 205.5815,328.0889 Q204.2617,326.437 204.2617,323.3159 Q204.2617,320.1865 205.5815,318.5347 Q206.9014,316.8828 209.4082,316.8828 Q210.1138,316.8828 210.7612,317.0322 Q211.4087,317.1816 211.9731,317.4805 L211.9731,320.2031 Q211.3423,319.6221 210.7488,319.3523 Q210.1553,319.0825 209.5244,319.0825 Q208.1797,319.0825 207.4949,320.1492 Q206.8101,321.2158 206.8101,323.3159 Q206.8101,325.4077 207.4949,326.4744 Q208.1797,327.541 209.5244,327.541 Q210.1553,327.541 210.7488,327.2712 Q211.3423,327.0015 211.9731,326.4204 Z " fill="#000000"/><text fill="#000000" font-family="sans-serif" font-size="14" lengthAdjust="spacing" textLength="93" x="223.5" y="328.291">MatchMapper</text></g><!--class WebSocketConfiguration--><g id="elem_WebSocketConfiguration"><rect codeLine="356" fill="#FFFFFF" height="32" id="WebSocketConfiguration" rx="2.5" ry="2.5" style="stroke:#808080;stroke-width:0.5;" width="202" x="519" y="41"/><ellipse cx="534" cy="57" fill="#ADD1B2" rx="11" ry="11" style="stroke:#181818;stroke-width:1.0;"/><path d="M536.4731,63.1431 Q535.8921,63.4419 535.2529,63.5913 Q534.6138,63.7407 533.9082,63.7407 Q531.4014,63.7407 530.0815,62.0889 Q528.7617,60.437 528.7617,57.3159 Q528.7617,54.1865 530.0815,52.5347 Q531.4014,50.8828 533.9082,50.8828 Q534.6138,50.8828 535.2612,51.0322 Q535.9087,51.1816 536.4731,51.4805 L536.4731,54.2031 Q535.8423,53.6221 535.2488,53.3523 Q534.6553,53.0825 534.0244,53.0825 Q532.6797,53.0825 531.9949,54.1492 Q531.3101,55.2158 531.3101,57.3159 Q531.3101,59.4077 531.9949,60.4744 Q532.6797,61.541 534.0244,61.541 Q534.6553,61.541 535.2488,61.2712 Q535.8423,61.0015 536.4731,60.4204 Z " fill="#000000"/><text fill="#000000" font-family="sans-serif" font-size="14" lengthAdjust="spacing" textLength="170" x="548" y="62.291">WebSocketConfiguration</text></g><!--class GameController--><g id="elem_GameController"><rect codeLine="360" fill="#FFFFFF" height="32" id="GameController" rx="2.5" ry="2.5" style="stroke:#808080;stroke-width:0.5;" width="141" x="169.5" y="41"/><ellipse cx="184.5" cy="57" fill="#ADD1B2" rx="11" ry="11" style="stroke:#181818;stroke-width:1.0;"/><path d="M186.9731,63.1431 Q186.3921,63.4419 185.7529,63.5913 Q185.1138,63.7407 184.4082,63.7407 Q181.9014,63.7407 180.5815,62.0889 Q179.2617,60.437 179.2617,57.3159 Q179.2617,54.1865 180.5815,52.5347 Q181.9014,50.8828 184.4082,50.8828 Q185.1138,50.8828 185.7612,51.0322 Q186.4087,51.1816 186.9731,51.4805 L186.9731,54.2031 Q186.3423,53.6221 185.7488,53.3523 Q185.1553,53.0825 184.5244,53.0825 Q183.1797,53.0825 182.4949,54.1492 Q181.8101,55.2158 181.8101,57.3159 Q181.8101,59.4077 182.4949,60.4744 Q183.1797,61.541 184.5244,61.541 Q185.1553,61.541 185.7488,61.2712 Q186.3423,61.0015 186.9731,60.4204 Z " fill="#000000"/><text fill="#000000" font-family="sans-serif" font-size="14" lengthAdjust="spacing" textLength="109" x="198.5" y="62.291">GameController</text></g><!--class MatchDao--><g id="elem_MatchDao"><rect codeLine="364" fill="#FFFFFF" height="32" id="MatchDao" rx="2.5" ry="2.5" style="stroke:#808080;stroke-width:0.5;" width="100" x="389" y="423"/><ellipse cx="404" cy="439" fill="#ADD1B2" rx="11" ry="11" style="stroke:#181818;stroke-width:1.0;"/><path d="M406.4731,445.1431 Q405.8921,445.4419 405.2529,445.5913 Q404.6138,445.7407 403.9082,445.7407 Q401.4014,445.7407 400.0815,444.0889 Q398.7617,442.437 398.7617,439.3159 Q398.7617,436.1865 400.0815,434.5347 Q401.4014,432.8828 403.9082,432.8828 Q404.6138,432.8828 405.2612,433.0322 Q405.9087,433.1816 406.4731,433.4805 L406.4731,436.2031 Q405.8423,435.6221 405.2488,435.3523 Q404.6553,435.0825 404.0244,435.0825 Q402.6797,435.0825 401.9949,436.1492 Q401.3101,437.2158 401.3101,439.3159 Q401.3101,441.4077 401.9949,442.4744 Q402.6797,443.541 404.0244,443.541 Q404.6553,443.541 405.2488,443.2712 Q405.8423,443.0015 406.4731,442.4204 Z " fill="#000000"/><text fill="#000000" font-family="sans-serif" font-size="14" lengthAdjust="spacing" textLength="68" x="418" y="444.291">MatchDao</text></g><!--class Match--><g id="elem_Match"><rect codeLine="368" fill="#FFFFFF" height="32" id="Match" rx="2.5" ry="2.5" style="stroke:#808080;stroke-width:0.5;" width="73" x="220.5" y="423"/><ellipse cx="235.5" cy="439" fill="#ADD1B2" rx="11" ry="11" style="stroke:#181818;stroke-width:1.0;"/><path d="M237.9731,445.1431 Q237.3921,445.4419 236.7529,445.5913 Q236.1138,445.7407 235.4082,445.7407 Q232.9014,445.7407 231.5815,444.0889 Q230.2617,442.437 230.2617,439.3159 Q230.2617,436.1865 231.5815,434.5347 Q232.9014,432.8828 235.4082,432.8828 Q236.1138,432.8828 236.7612,433.0322 Q237.4087,433.1816 237.9731,433.4805 L237.9731,436.2031 Q237.3423,435.6221 236.7488,435.3523 Q236.1553,435.0825 235.5244,435.0825 Q234.1797,435.0825 233.4949,436.1492 Q232.8101,437.2158 232.8101,439.3159 Q232.8101,441.4077 233.4949,442.4744 Q234.1797,443.541 235.5244,443.541 Q236.1553,443.541 236.7488,443.2712 Q237.3423,443.0015 237.9731,442.4204 Z " fill="#000000"/><text fill="#000000" font-family="sans-serif" font-size="14" lengthAdjust="spacing" textLength="41" x="249.5" y="444.291">Match</text></g><!--class MatchRepository--><g id="elem_MatchRepository"><rect codeLine="372" fill="#FFFFFF" height="32" id="MatchRepository" rx="2.5" ry="2.5" style="stroke:#808080;stroke-width:0.5;" width="146" x="375" y="307"/><ellipse cx="390" cy="323" fill="#B4A7E5" rx="11" ry="11" style="stroke:#181818;stroke-width:1.0;"/><path d="M386.4277,319.2651 L386.4277,317.1069 L393.8071,317.1069 L393.8071,319.2651 L391.3418,319.2651 L391.3418,327.3418 L393.8071,327.3418 L393.8071,329.5 L386.4277,329.5 L386.4277,327.3418 L388.8931,327.3418 L388.8931,319.2651 Z " fill="#000000"/><text fill="#000000" font-family="sans-serif" font-size="14" font-style="italic" lengthAdjust="spacing" textLength="114" x="404" y="328.291">MatchRepository</text></g><!--class MatchService--><g id="elem_MatchService"><rect codeLine="376" fill="#FFFFFF" height="32" id="MatchService" rx="2.5" ry="2.5" style="stroke:#808080;stroke-width:0.5;" width="121" x="346.5" y="157"/><ellipse cx="361.5" cy="173" fill="#ADD1B2" rx="11" ry="11" style="stroke:#181818;stroke-width:1.0;"/><path d="M363.9731,179.1431 Q363.3921,179.4419 362.7529,179.5913 Q362.1138,179.7407 361.4082,179.7407 Q358.9014,179.7407 357.5815,178.0889 Q356.2617,176.437 356.2617,173.3159 Q356.2617,170.1865 357.5815,168.5347 Q358.9014,166.8828 361.4082,166.8828 Q362.1138,166.8828 362.7612,167.0322 Q363.4087,167.1816 363.9731,167.4805 L363.9731,170.2031 Q363.3423,169.6221 362.7488,169.3523 Q362.1553,169.0825 361.5244,169.0825 Q360.1797,169.0825 359.4949,170.1492 Q358.8101,171.2158 358.8101,173.3159 Q358.8101,175.4077 359.4949,176.4744 Q360.1797,177.541 361.5244,177.541 Q362.1553,177.541 362.7488,177.2712 Q363.3423,177.0015 363.9731,176.4204 Z " fill="#000000"/><text fill="#000000" font-family="sans-serif" font-size="14" lengthAdjust="spacing" textLength="89" x="375.5" y="178.291">MatchService</text></g><!--class SeaBattleService--><g id="elem_SeaBattleService"><rect codeLine="377" fill="#FFFFFF" height="32" id="SeaBattleService" rx="2.5" ry="2.5" style="stroke:#808080;stroke-width:0.5;" width="142" x="169" y="157"/><ellipse cx="184" cy="173" fill="#ADD1B2" rx="11" ry="11" style="stroke:#181818;stroke-width:1.0;"/><path d="M186.4731,179.1431 Q185.8921,179.4419 185.2529,179.5913 Q184.6138,179.7407 183.9082,179.7407 Q181.4014,179.7407 180.0815,178.0889 Q178.7617,176.437 178.7617,173.3159 Q178.7617,170.1865 180.0815,168.5347 Q181.4014,166.8828 183.9082,166.8828 Q184.6138,166.8828 185.2612,167.0322 Q185.9087,167.1816 186.4731,167.4805 L186.4731,170.2031 Q185.8423,169.6221 185.2488,169.3523 Q184.6553,169.0825 184.0244,169.0825 Q182.6797,169.0825 181.9949,170.1492 Q181.3101,171.2158 181.3101,173.3159 Q181.3101,175.4077 181.9949,176.4744 Q182.6797,177.541 184.0244,177.541 Q184.6553,177.541 185.2488,177.2712 Q185.8423,177.0015 186.4731,176.4204 Z " fill="#000000"/><text fill="#000000" font-family="sans-serif" font-size="14" lengthAdjust="spacing" textLength="110" x="198" y="178.291">SeaBattleService</text></g><!--link GameController to SeaBattleService--><g id="link_GameController_SeaBattleService"><path codeLine="380" d="M240,73.37 C240,95.13 240,128.68 240,150.51 " fill="none" id="GameController-to-SeaBattleService" style="stroke:#008000;stroke-width:1.0;"/><polygon fill="#008000" points="240,156.51,244,147.51,240,151.51,236,147.51,240,156.51" style="stroke:#008000;stroke-width:1.0;"/></g><!--link MatchService to MatchMapper--><g id="link_MatchService_MatchMapper"><path codeLine="382" d="M407.11,189.44 C406.39,207.72 402.39,237.96 385,256 C376.61,264.7 370.1,259.21 359,264 C330.95,276.12 305.8306,290.7583 285.6306,303.4483 " fill="none" id="MatchService-to-MatchMapper" style="stroke:#008000;stroke-width:1.0;"/><polygon fill="#008000" points="280.55,306.64,290.2988,305.2395,284.7839,303.9802,286.0431,298.4653,280.55,306.64" style="stroke:#008000;stroke-width:1.0;"/></g><!--link MatchService to MatchRepository--><g id="link_MatchService_MatchRepository"><path codeLine="383" d="M414.01,189.43 C417.93,198.49 422.68,210.24 426,221 C435.21,250.84 441.0381,280.8577 444.4881,300.8177 " fill="none" id="MatchService-to-MatchRepository" style="stroke:#008000;stroke-width:1.0;"/><polygon fill="#008000" points="445.51,306.73,447.9187,297.1802,444.6584,301.8031,440.0356,298.5428,445.51,306.73" style="stroke:#008000;stroke-width:1.0;"/></g><!--link MatchRepository to MatchDao--><g id="link_MatchRepository_MatchDao"><path codeLine="384" d="M446.79,339.37 C445.07,361.13 442.4242,394.6988 440.6942,416.5188 " fill="none" id="MatchRepository-to-MatchDao" style="stroke:#008000;stroke-width:1.0;"/><polygon fill="#008000" points="440.22,422.5,444.9188,413.8443,440.6152,417.5156,436.9438,413.212,440.22,422.5" style="stroke:#008000;stroke-width:1.0;"/></g><!--link MatchMapper to MatchDao--><g id="link_MatchMapper_MatchDao"><path codeLine="385" d="M281.55,339.37 C316.28,361.13 374.335,397.4953 409.175,419.3153 " fill="none" id="MatchMapper-to-MatchDao" style="stroke:#008000;stroke-width:1.0;"/><polygon fill="#008000" points="414.26,422.5,408.7556,414.3329,410.0225,419.8461,404.5093,421.113,414.26,422.5" style="stroke:#008000;stroke-width:1.0;"/></g><!--link MatchMapper to Match--><g id="link_MatchMapper_Match"><path codeLine="386" d="M257,339.37 C257,361.13 257,394.68 257,416.5 " fill="none" id="MatchMapper-to-Match" style="stroke:#008000;stroke-width:1.0;"/><polygon fill="#008000" points="257,422.5,261,413.5,257,417.5,253,413.5,257,422.5" style="stroke:#008000;stroke-width:1.0;"/></g><!--link MatchMapper to SeaBattleService--><g id="link_MatchMapper_SeaBattleService"><path codeLine="387" d="M229.09,306.68 C211.42,295.28 190.08,277.91 180,256 C173.5,241.87 173.19,234.99 180,221 C186.43,207.79 193.5611,200.5183 205.2511,192.7583 " fill="none" id="MatchMapper-to-SeaBattleService" style="stroke:#DC143C;stroke-width:1.0;"/><polygon fill="#DC143C" points="210.25,189.44,200.5395,191.0849,206.0843,192.2053,204.9639,197.7501,210.25,189.44" style="stroke:#DC143C;stroke-width:1.0;"/><path d="M185,226 L185,251 L376,251 L376,236 L366,226 L185,226 " fill="#DC143C" style="stroke:#181818;stroke-width:0.5;"/><path d="M366,226 L366,236 L376,236 L366,226 " fill="#DC143C" style="stroke:#181818;stroke-width:0.5;"/><text fill="#000000" font-family="sans-serif" font-size="13" lengthAdjust="spacing" textLength="170" x="191" y="243.5684">&#1050;&#1086;&#1084;&#1073;&#1080;&#1085;&#1072;&#1094;&#1080;&#1103; &#1089;&#1086;&#1079;&#1076;&#1072;&#1077;&#1090; &#1094;&#1080;&#1082;&#1083;</text></g><!--SRC=[dP8zJiD048Lxds8bwhYWfA18aAZIa89wOa_iLNPthDaDmK8KKD3ISueWWOZuEyFcHcmInzXAA4pxtlCtdjcNonG5wiALGgCU8zl8eXCM2s1mnCAGmSXEfLaBMYIaYw0ODtAbGZ7JwZWwP8kRI8W-SOey81KuHnbZkTOWcMPCCvDM-ZoN3gFR5aM1jVyW5C6130NFOZBocZ6DhGmxIJ2nHOZ7u9p2M46974EYDYD4DMu8Bic7K1J8dLa9cOdCPk5YaaoBUedZ4ILJT8Dcv3y379DIo2twEMWSr5PdQWgqVu8peCuWJIaUk6Pd3cD1LeRQbHLC6eSyWGItm8lQxuoso5SoSFP-ShGr6l88eR_vT6U5MUrBYrvASzCxtOjkIeecYfheEjses2xuT-vtrrQs8RVYuTbQkMfCvyp1mC5D4vRQXYuRSk4DP9Ox4Sglf9dMtedmJ_xRV_fdl_HVVh5wyClLerZT1V7Dl_Y5VrtTYxNgt_r7z0C0]--></g></svg>