<?xml version="1.0" encoding="us-ascii" standalone="no"?><svg xmlns="http://www.w3.org/2000/svg" xmlns:xlink="http://www.w3.org/1999/xlink" contentStyleType="text/css" height="573px" preserveAspectRatio="none" style="width:1004px;height:573px;background:#FFFFFF;" version="1.1" viewBox="0 0 1004 573" width="1004px" zoomAndPan="magnify"><defs/><g><!--entity acl--><g id="elem_acl"><rect fill="#FFFFFF" height="95.1875" rx="2.5" ry="2.5" style="stroke:#808080;stroke-width:0.5;" width="323" x="415" y="317"/><rect fill="#FFFFFF" height="10" style="stroke:#808080;stroke-width:0.5;" width="15" x="718" y="322"/><rect fill="#FFFFFF" height="2" style="stroke:#808080;stroke-width:0.5;" width="4" x="716" y="324"/><rect fill="#FFFFFF" height="2" style="stroke:#808080;stroke-width:0.5;" width="4" x="716" y="328"/><text fill="#000000" font-family="sans-serif" font-size="14" lengthAdjust="spacing" textLength="279" x="430" y="349.9951">Component ru.cbr.siberian.sea.battle.acl</text><text fill="#000000" font-family="sans-serif" font-size="14" lengthAdjust="spacing" textLength="37" x="430" y="366.292">Ce: 2</text><text fill="#000000" font-family="sans-serif" font-size="14" lengthAdjust="spacing" textLength="36" x="430" y="382.5889">Ca: 1</text><text fill="#000000" font-family="sans-serif" font-size="14" lengthAdjust="spacing" textLength="43" x="430" y="398.8857">I: 0.66</text></g><!--entity configuration--><g id="elem_configuration"><rect fill="#FFFFFF" height="95.1875" rx="2.5" ry="2.5" style="stroke:#808080;stroke-width:0.5;" width="394" x="604.5" y="7"/><rect fill="#FFFFFF" height="10" style="stroke:#808080;stroke-width:0.5;" width="15" x="978.5" y="12"/><rect fill="#FFFFFF" height="2" style="stroke:#808080;stroke-width:0.5;" width="4" x="976.5" y="14"/><rect fill="#FFFFFF" height="2" style="stroke:#808080;stroke-width:0.5;" width="4" x="976.5" y="18"/><text fill="#000000" font-family="sans-serif" font-size="14" lengthAdjust="spacing" textLength="350" x="619.5" y="39.9951">Component ru.cbr.siberian.sea.battle.configuration</text><text fill="#000000" font-family="sans-serif" font-size="14" lengthAdjust="spacing" textLength="37" x="619.5" y="56.292">Ce: 0</text><text fill="#000000" font-family="sans-serif" font-size="14" lengthAdjust="spacing" textLength="36" x="619.5" y="72.5889">Ca: 0</text><text fill="#000000" font-family="sans-serif" font-size="14" lengthAdjust="spacing" textLength="21" x="619.5" y="88.8857">I: 1</text></g><!--entity controller--><g id="elem_controller"><rect fill="#FFFFFF" height="95.1875" rx="2.5" ry="2.5" style="stroke:#808080;stroke-width:0.5;" width="369" x="200" y="7"/><rect fill="#FFFFFF" height="10" style="stroke:#808080;stroke-width:0.5;" width="15" x="549" y="12"/><rect fill="#FFFFFF" height="2" style="stroke:#808080;stroke-width:0.5;" width="4" x="547" y="14"/><rect fill="#FFFFFF" height="2" style="stroke:#808080;stroke-width:0.5;" width="4" x="547" y="18"/><text fill="#000000" font-family="sans-serif" font-size="14" lengthAdjust="spacing" textLength="325" x="215" y="39.9951">Component ru.cbr.siberian.sea.battle.controller</text><text fill="#000000" font-family="sans-serif" font-size="14" lengthAdjust="spacing" textLength="37" x="215" y="56.292">Ce: 2</text><text fill="#000000" font-family="sans-serif" font-size="14" lengthAdjust="spacing" textLength="36" x="215" y="72.5889">Ca: 0</text><text fill="#000000" font-family="sans-serif" font-size="14" lengthAdjust="spacing" textLength="21" x="215" y="88.8857">I: 1</text></g><!--entity dao--><g id="elem_dao"><rect fill="#FFFFFF" height="95.1875" rx="2.5" ry="2.5" style="stroke:#808080;stroke-width:0.5;" width="330" x="33.5" y="472"/><rect fill="#FFFFFF" height="10" style="stroke:#808080;stroke-width:0.5;" width="15" x="343.5" y="477"/><rect fill="#FFFFFF" height="2" style="stroke:#808080;stroke-width:0.5;" width="4" x="341.5" y="479"/><rect fill="#FFFFFF" height="2" style="stroke:#808080;stroke-width:0.5;" width="4" x="341.5" y="483"/><text fill="#000000" font-family="sans-serif" font-size="14" lengthAdjust="spacing" textLength="286" x="48.5" y="504.9951">Component ru.cbr.siberian.sea.battle.dao</text><text fill="#000000" font-family="sans-serif" font-size="14" lengthAdjust="spacing" textLength="37" x="48.5" y="521.292">Ce: 1</text><text fill="#000000" font-family="sans-serif" font-size="14" lengthAdjust="spacing" textLength="36" x="48.5" y="537.5889">Ca: 2</text><text fill="#000000" font-family="sans-serif" font-size="14" lengthAdjust="spacing" textLength="43" x="48.5" y="553.8857">I: 0.33</text></g><!--entity model--><g id="elem_model"><rect fill="#FFFFFF" height="95.1875" rx="2.5" ry="2.5" style="stroke:#808080;stroke-width:0.5;" width="347" x="403" y="472"/><rect fill="#FFFFFF" height="10" style="stroke:#808080;stroke-width:0.5;" width="15" x="730" y="477"/><rect fill="#FFFFFF" height="2" style="stroke:#808080;stroke-width:0.5;" width="4" x="728" y="479"/><rect fill="#FFFFFF" height="2" style="stroke:#808080;stroke-width:0.5;" width="4" x="728" y="483"/><text fill="#000000" font-family="sans-serif" font-size="14" lengthAdjust="spacing" textLength="303" x="418" y="504.9951">Component ru.cbr.siberian.sea.battle.model</text><text fill="#000000" font-family="sans-serif" font-size="14" lengthAdjust="spacing" textLength="37" x="418" y="521.292">Ce: 0</text><text fill="#000000" font-family="sans-serif" font-size="14" lengthAdjust="spacing" textLength="36" x="418" y="537.5889">Ca: 5</text><text fill="#000000" font-family="sans-serif" font-size="14" lengthAdjust="spacing" textLength="21" x="418" y="553.8857">I: 0</text></g><!--entity repository--><g id="elem_repository"><rect fill="#FFFFFF" height="95.1875" rx="2.5" ry="2.5" style="stroke:#808080;stroke-width:0.5;" width="373" x="7" y="317"/><rect fill="#FFFFFF" height="10" style="stroke:#808080;stroke-width:0.5;" width="15" x="360" y="322"/><rect fill="#FFFFFF" height="2" style="stroke:#808080;stroke-width:0.5;" width="4" x="358" y="324"/><rect fill="#FFFFFF" height="2" style="stroke:#808080;stroke-width:0.5;" width="4" x="358" y="328"/><text fill="#000000" font-family="sans-serif" font-size="14" lengthAdjust="spacing" textLength="329" x="22" y="349.9951">Component ru.cbr.siberian.sea.battle.repository</text><text fill="#000000" font-family="sans-serif" font-size="14" lengthAdjust="spacing" textLength="37" x="22" y="366.292">Ce: 2</text><text fill="#000000" font-family="sans-serif" font-size="14" lengthAdjust="spacing" textLength="36" x="22" y="382.5889">Ca: 1</text><text fill="#000000" font-family="sans-serif" font-size="14" lengthAdjust="spacing" textLength="43" x="22" y="398.8857">I: 0.66</text></g><!--entity service--><g id="elem_service"><rect fill="#FFFFFF" height="95.1875" rx="2.5" ry="2.5" style="stroke:#808080;stroke-width:0.5;" width="353" x="208" y="162"/><rect fill="#FFFFFF" height="10" style="stroke:#808080;stroke-width:0.5;" width="15" x="541" y="167"/><rect fill="#FFFFFF" height="2" style="stroke:#808080;stroke-width:0.5;" width="4" x="539" y="169"/><rect fill="#FFFFFF" height="2" style="stroke:#808080;stroke-width:0.5;" width="4" x="539" y="173"/><text fill="#000000" font-family="sans-serif" font-size="14" lengthAdjust="spacing" textLength="309" x="223" y="194.9951">Component ru.cbr.siberian.sea.battle.service</text><text fill="#000000" font-family="sans-serif" font-size="14" lengthAdjust="spacing" textLength="37" x="223" y="211.292">Ce: 3</text><text fill="#000000" font-family="sans-serif" font-size="14" lengthAdjust="spacing" textLength="36" x="223" y="227.5889">Ca: 1</text><text fill="#000000" font-family="sans-serif" font-size="14" lengthAdjust="spacing" textLength="43" x="223" y="243.8857">I: 0.75</text></g><!--link controller to service--><g id="link_controller_service"><path d="M384.5,102.24 C384.5,121.13 384.5,136.89 384.5,155.79 " fill="none" id="controller-to-service" style="stroke:#181818;stroke-width:1.0;"/><polygon fill="#181818" points="384.5,161.79,388.5,152.79,384.5,156.79,380.5,152.79,384.5,161.79" style="stroke:#181818;stroke-width:1.0;"/></g><!--link service to acl--><g id="link_service_acl"><path d="M442.89,257.03 C466.72,276.02 489.5269,294.2017 513.3669,313.1917 " fill="none" id="service-to-acl" style="stroke:#181818;stroke-width:1.0;"/><polygon fill="#181818" points="518.06,316.93,513.5126,308.1938,514.1491,313.8147,508.5282,314.4512,518.06,316.93" style="stroke:#181818;stroke-width:1.0;"/></g><!--link service to repository--><g id="link_service_repository"><path d="M326.42,257.03 C302.71,276.02 280.0331,294.1892 256.3231,313.1792 " fill="none" id="service-to-repository" style="stroke:#181818;stroke-width:1.0;"/><polygon fill="#181818" points="251.64,316.93,261.1652,314.4258,255.5426,313.8043,256.1641,308.1817,251.64,316.93" style="stroke:#181818;stroke-width:1.0;"/></g><!--link repository to dao--><g id="link_repository_dao"><path d="M195.03,412.24 C195.64,431.13 196.1664,446.8931 196.7764,465.7931 " fill="none" id="repository-to-dao" style="stroke:#181818;stroke-width:1.0;"/><polygon fill="#181818" points="196.97,471.79,200.6776,462.6657,196.8087,466.7926,192.6818,462.9237,196.97,471.79" style="stroke:#181818;stroke-width:1.0;"/></g><!--link acl to dao--><g id="link_acl_dao"><path d="M461.55,412.03 C414.63,431.02 366.0417,450.689 319.1217,469.679 " fill="none" id="acl-to-dao" style="stroke:#181818;stroke-width:1.0;"/><polygon fill="#181818" points="313.56,471.93,323.4033,472.2613,318.1948,470.0542,320.4019,464.8457,313.56,471.93" style="stroke:#181818;stroke-width:1.0;"/></g><!--link acl to model--><g id="link_acl_model"><path d="M576.5,412.24 C576.5,431.13 576.5,446.89 576.5,465.79 " fill="none" id="acl-to-model" style="stroke:#181818;stroke-width:1.0;"/><polygon fill="#181818" points="576.5,471.79,580.5,462.79,576.5,466.79,572.5,462.79,576.5,471.79" style="stroke:#181818;stroke-width:1.0;"/></g><!--SRC=[ZTAnReCm40RWtKzXgNCi0aegCNGeK-QEJGTZhiIAyQ6pQOIgldl1k2bGgM82_1yVliFkgcqhIJPSOTEY1UjVV6-0Tur9cVkRya_6-JDI1LIWGU8FDK4_habrhGaxMyNrsqLxO5ypn40Djfg4TRNHzSNtO0pUXdVOQt7_87L2bIISBe6qjCA15ANqte2Gol2pBI3dwN2HET-VxIddYJWUtxXqVCWtIWhjkwuxabwZZMOocKamzm5Sb6sdFQ4nGCkzhjnOin6j94PjFsbfx3pB0ZZa6wK6Ap3BZW-J5Q0GRwG8MdJQ8_N__fNViesk0_hG2YAQBT77Gq1Z3MDiDk_TxkaU_23ZsdWkvi-p7Srw69DnZkCfMzzFO_a6]--></g></svg>