<?xml version="1.0" encoding="us-ascii" standalone="no"?><svg xmlns="http://www.w3.org/2000/svg" xmlns:xlink="http://www.w3.org/1999/xlink" contentStyleType="text/css" height="576px" preserveAspectRatio="none" style="width:1179px;height:576px;background:#FFFFFF;" version="1.1" viewBox="0 0 1179 576" width="1179px" zoomAndPan="magnify"><defs/><g><!--entity acl--><g id="elem_acl"><rect fill="#FFFFFF" height="95.9531" rx="2.5" ry="2.5" style="stroke:#808080;stroke-width:0.5;" width="391" x="484.5" y="318.9"/><rect fill="#FFFFFF" height="10" style="stroke:#808080;stroke-width:0.5;" width="15" x="855.5" y="323.9"/><rect fill="#FFFFFF" height="2" style="stroke:#808080;stroke-width:0.5;" width="4" x="853.5" y="325.9"/><rect fill="#FFFFFF" height="2" style="stroke:#808080;stroke-width:0.5;" width="4" x="853.5" y="329.9"/><text fill="#000000" font-family="sans-serif" font-size="14" lengthAdjust="spacing" textLength="347" x="499.5" y="352.4352">Component ru.onixred.siberian.sea.battle.layer.acl</text><text fill="#000000" font-family="sans-serif" font-size="14" lengthAdjust="spacing" textLength="35" x="499.5" y="368.9234">Ce: 2</text><text fill="#000000" font-family="sans-serif" font-size="14" lengthAdjust="spacing" textLength="35" x="499.5" y="385.4117">Ca: 1</text><text fill="#000000" font-family="sans-serif" font-size="14" lengthAdjust="spacing" textLength="43" x="499.5" y="401.9">I: 0.66</text></g><!--entity configuration--><g id="elem_configuration"><rect fill="#FFFFFF" height="95.9531" rx="2.5" ry="2.5" style="stroke:#808080;stroke-width:0.5;" width="465" x="708.5" y="7"/><rect fill="#FFFFFF" height="10" style="stroke:#808080;stroke-width:0.5;" width="15" x="1153.5" y="12"/><rect fill="#FFFFFF" height="2" style="stroke:#808080;stroke-width:0.5;" width="4" x="1151.5" y="14"/><rect fill="#FFFFFF" height="2" style="stroke:#808080;stroke-width:0.5;" width="4" x="1151.5" y="18"/><text fill="#000000" font-family="sans-serif" font-size="14" lengthAdjust="spacing" textLength="421" x="723.5" y="40.5352">Component ru.onixred.siberian.sea.battle.layer.configuration</text><text fill="#000000" font-family="sans-serif" font-size="14" lengthAdjust="spacing" textLength="35" x="723.5" y="57.0234">Ce: 0</text><text fill="#000000" font-family="sans-serif" font-size="14" lengthAdjust="spacing" textLength="35" x="723.5" y="73.5117">Ca: 0</text><text fill="#000000" font-family="sans-serif" font-size="14" lengthAdjust="spacing" textLength="21" x="723.5" y="90">I: 1</text></g><!--entity controller--><g id="elem_controller"><rect fill="#FFFFFF" height="95.9531" rx="2.5" ry="2.5" style="stroke:#808080;stroke-width:0.5;" width="439" x="234.5" y="7"/><rect fill="#FFFFFF" height="10" style="stroke:#808080;stroke-width:0.5;" width="15" x="653.5" y="12"/><rect fill="#FFFFFF" height="2" style="stroke:#808080;stroke-width:0.5;" width="4" x="651.5" y="14"/><rect fill="#FFFFFF" height="2" style="stroke:#808080;stroke-width:0.5;" width="4" x="651.5" y="18"/><text fill="#000000" font-family="sans-serif" font-size="14" lengthAdjust="spacing" textLength="395" x="249.5" y="40.5352">Component ru.onixred.siberian.sea.battle.layer.controller</text><text fill="#000000" font-family="sans-serif" font-size="14" lengthAdjust="spacing" textLength="35" x="249.5" y="57.0234">Ce: 2</text><text fill="#000000" font-family="sans-serif" font-size="14" lengthAdjust="spacing" textLength="35" x="249.5" y="73.5117">Ca: 0</text><text fill="#000000" font-family="sans-serif" font-size="14" lengthAdjust="spacing" textLength="21" x="249.5" y="90">I: 1</text></g><!--entity dao--><g id="elem_dao"><rect fill="#FFFFFF" height="95.9531" rx="2.5" ry="2.5" style="stroke:#808080;stroke-width:0.5;" width="398" x="34" y="474.86"/><rect fill="#FFFFFF" height="10" style="stroke:#808080;stroke-width:0.5;" width="15" x="412" y="479.86"/><rect fill="#FFFFFF" height="2" style="stroke:#808080;stroke-width:0.5;" width="4" x="410" y="481.86"/><rect fill="#FFFFFF" height="2" style="stroke:#808080;stroke-width:0.5;" width="4" x="410" y="485.86"/><text fill="#000000" font-family="sans-serif" font-size="14" lengthAdjust="spacing" textLength="354" x="49" y="508.3952">Component ru.onixred.siberian.sea.battle.layer.dao</text><text fill="#000000" font-family="sans-serif" font-size="14" lengthAdjust="spacing" textLength="35" x="49" y="524.8834">Ce: 1</text><text fill="#000000" font-family="sans-serif" font-size="14" lengthAdjust="spacing" textLength="35" x="49" y="541.3717">Ca: 2</text><text fill="#000000" font-family="sans-serif" font-size="14" lengthAdjust="spacing" textLength="43" x="49" y="557.86">I: 0.33</text></g><!--entity model--><g id="elem_model"><rect fill="#FFFFFF" height="95.9531" rx="2.5" ry="2.5" style="stroke:#808080;stroke-width:0.5;" width="415" x="472.5" y="474.86"/><rect fill="#FFFFFF" height="10" style="stroke:#808080;stroke-width:0.5;" width="15" x="867.5" y="479.86"/><rect fill="#FFFFFF" height="2" style="stroke:#808080;stroke-width:0.5;" width="4" x="865.5" y="481.86"/><rect fill="#FFFFFF" height="2" style="stroke:#808080;stroke-width:0.5;" width="4" x="865.5" y="485.86"/><text fill="#000000" font-family="sans-serif" font-size="14" lengthAdjust="spacing" textLength="371" x="487.5" y="508.3952">Component ru.onixred.siberian.sea.battle.layer.model</text><text fill="#000000" font-family="sans-serif" font-size="14" lengthAdjust="spacing" textLength="35" x="487.5" y="524.8834">Ce: 0</text><text fill="#000000" font-family="sans-serif" font-size="14" lengthAdjust="spacing" textLength="35" x="487.5" y="541.3717">Ca: 5</text><text fill="#000000" font-family="sans-serif" font-size="14" lengthAdjust="spacing" textLength="21" x="487.5" y="557.86">I: 0</text></g><!--entity repository--><g id="elem_repository"><rect fill="#FFFFFF" height="95.9531" rx="2.5" ry="2.5" style="stroke:#808080;stroke-width:0.5;" width="442" x="7" y="318.9"/><rect fill="#FFFFFF" height="10" style="stroke:#808080;stroke-width:0.5;" width="15" x="429" y="323.9"/><rect fill="#FFFFFF" height="2" style="stroke:#808080;stroke-width:0.5;" width="4" x="427" y="325.9"/><rect fill="#FFFFFF" height="2" style="stroke:#808080;stroke-width:0.5;" width="4" x="427" y="329.9"/><text fill="#000000" font-family="sans-serif" font-size="14" lengthAdjust="spacing" textLength="398" x="22" y="352.4352">Component ru.onixred.siberian.sea.battle.layer.repository</text><text fill="#000000" font-family="sans-serif" font-size="14" lengthAdjust="spacing" textLength="35" x="22" y="368.9234">Ce: 2</text><text fill="#000000" font-family="sans-serif" font-size="14" lengthAdjust="spacing" textLength="35" x="22" y="385.4117">Ca: 1</text><text fill="#000000" font-family="sans-serif" font-size="14" lengthAdjust="spacing" textLength="43" x="22" y="401.9">I: 0.66</text></g><!--entity service--><g id="elem_service"><rect fill="#FFFFFF" height="95.9531" rx="2.5" ry="2.5" style="stroke:#808080;stroke-width:0.5;" width="419" x="244.5" y="162.95"/><rect fill="#FFFFFF" height="10" style="stroke:#808080;stroke-width:0.5;" width="15" x="643.5" y="167.95"/><rect fill="#FFFFFF" height="2" style="stroke:#808080;stroke-width:0.5;" width="4" x="641.5" y="169.95"/><rect fill="#FFFFFF" height="2" style="stroke:#808080;stroke-width:0.5;" width="4" x="641.5" y="173.95"/><text fill="#000000" font-family="sans-serif" font-size="14" lengthAdjust="spacing" textLength="375" x="259.5" y="196.4852">Component ru.onixred.siberian.sea.battle.layer.service</text><text fill="#000000" font-family="sans-serif" font-size="14" lengthAdjust="spacing" textLength="35" x="259.5" y="212.9734">Ce: 3</text><text fill="#000000" font-family="sans-serif" font-size="14" lengthAdjust="spacing" textLength="35" x="259.5" y="229.4617">Ca: 1</text><text fill="#000000" font-family="sans-serif" font-size="14" lengthAdjust="spacing" textLength="43" x="259.5" y="245.95">I: 0.75</text></g><!--link controller to service--><g id="link_controller_service"><path d="M454,103.42 C454,122.24 454,137.83 454,156.64 " fill="none" id="controller-to-service" style="stroke:#181818;stroke-width:1.0;"/><polygon fill="#181818" points="454,162.64,458,153.64,454,157.64,450,153.64,454,162.64" style="stroke:#181818;stroke-width:1.0;"/></g><!--link service to acl--><g id="link_service_acl"><path d="M523.65,259.37 C551.28,278.19 578.0211,296.4122 605.6211,315.2122 " fill="none" id="service-to-acl" style="stroke:#181818;stroke-width:1.0;"/><polygon fill="#181818" points="610.58,318.59,605.3935,310.2174,606.4476,315.7752,600.8898,316.8292,610.58,318.59" style="stroke:#181818;stroke-width:1.0;"/></g><!--link service to repository--><g id="link_service_repository"><path d="M384.35,259.37 C356.72,278.19 329.9789,296.4122 302.3789,315.2122 " fill="none" id="service-to-repository" style="stroke:#181818;stroke-width:1.0;"/><polygon fill="#181818" points="297.42,318.59,307.1102,316.8292,301.5524,315.7752,302.6065,310.2174,297.42,318.59" style="stroke:#181818;stroke-width:1.0;"/></g><!--link repository to dao--><g id="link_repository_dao"><path d="M229.54,415.33 C230.15,434.15 230.6554,449.7432 231.2654,468.5432 " fill="none" id="repository-to-dao" style="stroke:#181818;stroke-width:1.0;"/><polygon fill="#181818" points="231.46,474.54,235.166,465.415,231.2979,469.5426,227.1702,465.6745,231.46,474.54" style="stroke:#181818;stroke-width:1.0;"/></g><!--link acl to dao--><g id="link_acl_dao"><path d="M542.24,415.33 C487.73,434.1 430.8731,453.6865 376.3631,472.4565 " fill="none" id="acl-to-dao" style="stroke:#181818;stroke-width:1.0;"/><polygon fill="#181818" points="370.69,474.41,380.5019,475.2618,375.4176,472.7821,377.8973,467.6977,370.69,474.41" style="stroke:#181818;stroke-width:1.0;"/></g><!--link acl to model--><g id="link_acl_model"><path d="M680,415.33 C680,434.15 680,449.74 680,468.54 " fill="none" id="acl-to-model" style="stroke:#181818;stroke-width:1.0;"/><polygon fill="#181818" points="680,474.54,684,465.54,680,469.54,676,465.54,680,474.54" style="stroke:#181818;stroke-width:1.0;"/></g><!--SRC=[dP9DJyCm38Rl-HMHE2_gMcr8FN2WfvqvCWvPQxfeRbmvAQD2_7Vw4KPR9AHoIkBtpMF7ZhiOMslMbSofgic2zK- -HP1DXR5mlrNv8QHy92w0Cq9YULSoj7rCvvUIgR55Y5_FneFud40GIh35I5YwqPHdtm8YNRixuZcx9UH6aJNl38LovWHij5KEj3ffxn4KwXPOwHpbqMQGohXRT2gtHtj8PQJs-nUfdUpqrSoSxAif6zRUa0tqQAH70tqxe6Us_oJnJ8Z0y_eN6O9dDRxG5BZRaHk7lYJ9WExqrSoA2i1vFtOZTK0EyceeGqtEUEBsppd-s5PdSC1l9eU0J-Ru-zs03nuXn6Gkcyt3JVY6zB7-JqtFazech-cLlilz3rtknrPz0G00]--></g></svg>