<?xml version="1.0" encoding="us-ascii" standalone="no"?><svg xmlns="http://www.w3.org/2000/svg" xmlns:xlink="http://www.w3.org/1999/xlink" contentStyleType="text/css" height="573px" preserveAspectRatio="none" style="width:1212px;height:573px;background:#FFFFFF;" version="1.1" viewBox="0 0 1212 573" width="1212px" zoomAndPan="magnify"><defs/><g><!--entity game--><g id="elem_game"><rect fill="#FFFFFF" height="95.1875" rx="2.5" ry="2.5" style="stroke:#808080;stroke-width:0.5;" width="323" x="7" y="162"/><rect fill="#FFFFFF" height="10" style="stroke:#808080;stroke-width:0.5;" width="15" x="310" y="167"/><rect fill="#FFFFFF" height="2" style="stroke:#808080;stroke-width:0.5;" width="4" x="308" y="169"/><rect fill="#FFFFFF" height="2" style="stroke:#808080;stroke-width:0.5;" width="4" x="308" y="173"/><text fill="#000000" font-family="sans-serif" font-size="14" lengthAdjust="spacing" textLength="279" x="22" y="194.9951">Component feature.first.sea.battle.game</text><text fill="#000000" font-family="sans-serif" font-size="14" lengthAdjust="spacing" textLength="37" x="22" y="211.292">Ce: 0</text><text fill="#000000" font-family="sans-serif" font-size="14" lengthAdjust="spacing" textLength="36" x="22" y="227.5889">Ca: 1</text><text fill="#000000" font-family="sans-serif" font-size="14" lengthAdjust="spacing" textLength="21" x="22" y="243.8857">I: 0</text></g><!--entity match--><g id="elem_match"><rect fill="#FFFFFF" height="95.1875" rx="2.5" ry="2.5" style="stroke:#808080;stroke-width:0.5;" width="327" x="471" y="7"/><rect fill="#FFFFFF" height="10" style="stroke:#808080;stroke-width:0.5;" width="15" x="778" y="12"/><rect fill="#FFFFFF" height="2" style="stroke:#808080;stroke-width:0.5;" width="4" x="776" y="14"/><rect fill="#FFFFFF" height="2" style="stroke:#808080;stroke-width:0.5;" width="4" x="776" y="18"/><text fill="#000000" font-family="sans-serif" font-size="14" lengthAdjust="spacing" textLength="283" x="486" y="39.9951">Component feature.first.sea.battle.match</text><text fill="#000000" font-family="sans-serif" font-size="14" lengthAdjust="spacing" textLength="37" x="486" y="56.292">Ce: 4</text><text fill="#000000" font-family="sans-serif" font-size="14" lengthAdjust="spacing" textLength="36" x="486" y="72.5889">Ca: 0</text><text fill="#000000" font-family="sans-serif" font-size="14" lengthAdjust="spacing" textLength="17" x="486" y="88.8857">I:1</text></g><!--entity player--><g id="elem_player"><rect fill="#FFFFFF" height="95.1875" rx="2.5" ry="2.5" style="stroke:#808080;stroke-width:0.5;" width="325" x="365" y="162"/><rect fill="#FFFFFF" height="10" style="stroke:#808080;stroke-width:0.5;" width="15" x="670" y="167"/><rect fill="#FFFFFF" height="2" style="stroke:#808080;stroke-width:0.5;" width="4" x="668" y="169"/><rect fill="#FFFFFF" height="2" style="stroke:#808080;stroke-width:0.5;" width="4" x="668" y="173"/><text fill="#000000" font-family="sans-serif" font-size="14" lengthAdjust="spacing" textLength="281" x="380" y="194.9951">Component feature.first.sea.battle.player</text><text fill="#000000" font-family="sans-serif" font-size="14" lengthAdjust="spacing" textLength="37" x="380" y="211.292">Ce: 2</text><text fill="#000000" font-family="sans-serif" font-size="14" lengthAdjust="spacing" textLength="36" x="380" y="227.5889">Ca: 1</text><text fill="#000000" font-family="sans-serif" font-size="14" lengthAdjust="spacing" textLength="43" x="380" y="243.8857">I: 0.66</text></g><!--entity common--><g id="elem_common"><rect fill="#FFFFFF" height="95.1875" rx="2.5" ry="2.5" style="stroke:#808080;stroke-width:0.5;" width="345" x="489" y="472"/><rect fill="#FFFFFF" height="10" style="stroke:#808080;stroke-width:0.5;" width="15" x="814" y="477"/><rect fill="#FFFFFF" height="2" style="stroke:#808080;stroke-width:0.5;" width="4" x="812" y="479"/><rect fill="#FFFFFF" height="2" style="stroke:#808080;stroke-width:0.5;" width="4" x="812" y="483"/><text fill="#000000" font-family="sans-serif" font-size="14" lengthAdjust="spacing" textLength="301" x="504" y="504.9951">Component feature.first.sea.battle.common</text><text fill="#000000" font-family="sans-serif" font-size="14" lengthAdjust="spacing" textLength="37" x="504" y="521.292">Ce: 0</text><text fill="#000000" font-family="sans-serif" font-size="14" lengthAdjust="spacing" textLength="36" x="504" y="537.5889">Ca: 3</text><text fill="#000000" font-family="sans-serif" font-size="14" lengthAdjust="spacing" textLength="21" x="504" y="553.8857">I: 0</text></g><!--entity configuration--><g id="elem_configuration"><rect fill="#FFFFFF" height="95.1875" rx="2.5" ry="2.5" style="stroke:#808080;stroke-width:0.5;" width="374" x="832.5" y="7"/><rect fill="#FFFFFF" height="10" style="stroke:#808080;stroke-width:0.5;" width="15" x="1186.5" y="12"/><rect fill="#FFFFFF" height="2" style="stroke:#808080;stroke-width:0.5;" width="4" x="1184.5" y="14"/><rect fill="#FFFFFF" height="2" style="stroke:#808080;stroke-width:0.5;" width="4" x="1184.5" y="18"/><text fill="#000000" font-family="sans-serif" font-size="14" lengthAdjust="spacing" textLength="330" x="847.5" y="39.9951">Component feature.first.sea.battle.configuration</text><text fill="#000000" font-family="sans-serif" font-size="14" lengthAdjust="spacing" textLength="37" x="847.5" y="56.292">Ce: 0</text><text fill="#000000" font-family="sans-serif" font-size="14" lengthAdjust="spacing" textLength="36" x="847.5" y="72.5889">Ca: 0</text><text fill="#000000" font-family="sans-serif" font-size="14" lengthAdjust="spacing" textLength="21" x="847.5" y="88.8857">I: 1</text></g><!--entity notification--><g id="elem_notification"><rect fill="#FFFFFF" height="95.1875" rx="2.5" ry="2.5" style="stroke:#808080;stroke-width:0.5;" width="359" x="482" y="317"/><rect fill="#FFFFFF" height="10" style="stroke:#808080;stroke-width:0.5;" width="15" x="821" y="322"/><rect fill="#FFFFFF" height="2" style="stroke:#808080;stroke-width:0.5;" width="4" x="819" y="324"/><rect fill="#FFFFFF" height="2" style="stroke:#808080;stroke-width:0.5;" width="4" x="819" y="328"/><text fill="#000000" font-family="sans-serif" font-size="14" lengthAdjust="spacing" textLength="315" x="497" y="349.9951">Component feature.first.sea.battle.notification</text><text fill="#000000" font-family="sans-serif" font-size="14" lengthAdjust="spacing" textLength="37" x="497" y="366.292">Ce: 1</text><text fill="#000000" font-family="sans-serif" font-size="14" lengthAdjust="spacing" textLength="36" x="497" y="382.5889">Ca: 2</text><text fill="#000000" font-family="sans-serif" font-size="14" lengthAdjust="spacing" textLength="43" x="497" y="398.8857">I: 0.33</text></g><!--link notification to common--><g id="link_notification_common"><path d="M661.5,412.24 C661.5,431.13 661.5,446.89 661.5,465.79 " fill="none" id="notification-to-common" style="stroke:#181818;stroke-width:1.0;"/><polygon fill="#181818" points="661.5,471.79,665.5,462.79,661.5,466.79,657.5,462.79,661.5,471.79" style="stroke:#181818;stroke-width:1.0;"/></g><!--link match to common--><g id="link_match_common"><path d="M694.52,102.11 C749.76,149.31 827.64,227.89 858.5,317 C872.32,356.9 880.12,375.73 858.5,412 C843.47,437.21 825.326,453.7516 799.936,468.8616 " fill="none" id="match-to-common" style="stroke:#181818;stroke-width:1.0;"/><polygon fill="#181818" points="794.78,471.93,804.5597,470.7647,799.0767,469.373,800.4684,463.89,794.78,471.93" style="stroke:#181818;stroke-width:1.0;"/></g><!--link match to player--><g id="link_match_player"><path d="M601.82,102.24 C588.6,121.13 576.8173,137.9722 563.6073,156.8722 " fill="none" id="match-to-player" style="stroke:#181818;stroke-width:1.0;"/><polygon fill="#181818" points="560.17,161.79,568.6045,156.7048,563.0344,157.6918,562.0474,152.1217,560.17,161.79" style="stroke:#181818;stroke-width:1.0;"/></g><!--link match to game--><g id="link_match_game"><path d="M492.79,102.03 C434.95,121.02 373.8907,141.0687 316.0407,160.0587 " fill="none" id="match-to-game" style="stroke:#181818;stroke-width:1.0;"/><polygon fill="#181818" points="310.34,161.93,320.1386,162.9235,315.0906,160.3706,317.6435,155.3225,310.34,161.93" style="stroke:#181818;stroke-width:1.0;"/></g><!--link match to notification--><g id="link_match_notification"><path d="M675.4,102.09 C688.28,119.65 700.87,140.59 707.5,162 C720,202.33 716.05,215.65 707.5,257 C703.28,277.41 697.475,293.2872 689.055,311.4372 " fill="none" id="match-to-notification" style="stroke:#181818;stroke-width:1.0;"/><polygon fill="#181818" points="686.53,316.88,693.946,310.3991,688.6342,312.3443,686.6889,307.0324,686.53,316.88" style="stroke:#181818;stroke-width:1.0;"/></g><!--link player to common--><g id="link_player_common"><path d="M492.23,257.06 C464.64,299.63 435.41,363.2 464.5,412 C479.53,437.21 497.674,453.7516 523.064,468.8616 " fill="none" id="player-to-common" style="stroke:#181818;stroke-width:1.0;"/><polygon fill="#181818" points="528.22,471.93,522.5316,463.89,523.9233,469.373,518.4403,470.7647,528.22,471.93" style="stroke:#181818;stroke-width:1.0;"/></g><!--link player to notification--><g id="link_player_notification"><path d="M568.43,257.24 C584.98,276.13 600.0873,293.376 616.6373,312.276 " fill="none" id="player-to-notification" style="stroke:#181818;stroke-width:1.0;"/><polygon fill="#181818" points="620.59,316.79,617.6702,307.3839,617.2961,313.0283,611.6516,312.6542,620.59,316.79" style="stroke:#181818;stroke-width:1.0;"/></g><!--SRC=[ZP4_RuCm4CLtVugJEWS5g39aw52cp1sR3bSuZ1N_GSOeGbM_Uy5sYqaN9illtltiTpVSXExHeeBQgDveqkxDJP9WLB9Wm_ygV360LsCRifMHni8JjpGj6jOtRisecwZVE-68VISGIPnq4mYFRYbuvoQIqjpd7iRUgxyNMq8tMifQOGUN3OJP9pedAUEe2AwweZCSvmFFa5_rPRvy00wmL7TX5BgwYvpdm3akdDnZV7KNfvSuaOsWOlEXx7Joi63PHPidhepUnYkJUA6-4wLRmKUBJZmIVL388p6nxG9huqGhwfIR1suHSvUbHwV6URcRliFXvJSC2wj8b5M8eri5lz_rkdqYxY8X9Sh6-WC0]--></g></svg>