<?xml version="1.0" encoding="us-ascii" standalone="no"?><svg xmlns="http://www.w3.org/2000/svg" xmlns:xlink="http://www.w3.org/1999/xlink" contentStyleType="text/css" height="576px" preserveAspectRatio="none" style="width:1554px;height:576px;background:#FFFFFF;" version="1.1" viewBox="0 0 1554 576" width="1554px" zoomAndPan="magnify"><defs/><g><!--entity game--><g id="elem_game"><rect fill="#FFFFFF" height="95.9531" rx="2.5" ry="2.5" style="stroke:#808080;stroke-width:0.5;" width="426" x="7" y="162.95"/><rect fill="#FFFFFF" height="10" style="stroke:#808080;stroke-width:0.5;" width="15" x="413" y="167.95"/><rect fill="#FFFFFF" height="2" style="stroke:#808080;stroke-width:0.5;" width="4" x="411" y="169.95"/><rect fill="#FFFFFF" height="2" style="stroke:#808080;stroke-width:0.5;" width="4" x="411" y="173.95"/><text fill="#000000" font-family="sans-serif" font-size="14" lengthAdjust="spacing" textLength="382" x="22" y="196.4852">Component ru.onixred.siberian.sea.battle.feature.game</text><text fill="#000000" font-family="sans-serif" font-size="14" lengthAdjust="spacing" textLength="35" x="22" y="212.9734">Ce: 0</text><text fill="#000000" font-family="sans-serif" font-size="14" lengthAdjust="spacing" textLength="35" x="22" y="229.4617">Ca: 1</text><text fill="#000000" font-family="sans-serif" font-size="14" lengthAdjust="spacing" textLength="21" x="22" y="245.95">I: 0</text></g><!--entity match--><g id="elem_match"><rect fill="#FFFFFF" height="95.9531" rx="2.5" ry="2.5" style="stroke:#808080;stroke-width:0.5;" width="430" x="602" y="7"/><rect fill="#FFFFFF" height="10" style="stroke:#808080;stroke-width:0.5;" width="15" x="1012" y="12"/><rect fill="#FFFFFF" height="2" style="stroke:#808080;stroke-width:0.5;" width="4" x="1010" y="14"/><rect fill="#FFFFFF" height="2" style="stroke:#808080;stroke-width:0.5;" width="4" x="1010" y="18"/><text fill="#000000" font-family="sans-serif" font-size="14" lengthAdjust="spacing" textLength="386" x="617" y="40.5352">Component ru.onixred.siberian.sea.battle.feature.match</text><text fill="#000000" font-family="sans-serif" font-size="14" lengthAdjust="spacing" textLength="35" x="617" y="57.0234">Ce: 4</text><text fill="#000000" font-family="sans-serif" font-size="14" lengthAdjust="spacing" textLength="35" x="617" y="73.5117">Ca: 0</text><text fill="#000000" font-family="sans-serif" font-size="14" lengthAdjust="spacing" textLength="17" x="617" y="90">I:1</text></g><!--entity player--><g id="elem_player"><rect fill="#FFFFFF" height="95.9531" rx="2.5" ry="2.5" style="stroke:#808080;stroke-width:0.5;" width="430" x="468" y="162.95"/><rect fill="#FFFFFF" height="10" style="stroke:#808080;stroke-width:0.5;" width="15" x="878" y="167.95"/><rect fill="#FFFFFF" height="2" style="stroke:#808080;stroke-width:0.5;" width="4" x="876" y="169.95"/><rect fill="#FFFFFF" height="2" style="stroke:#808080;stroke-width:0.5;" width="4" x="876" y="173.95"/><text fill="#000000" font-family="sans-serif" font-size="14" lengthAdjust="spacing" textLength="386" x="483" y="196.4852">Component ru.onixred.siberian.sea.battle.feature.player</text><text fill="#000000" font-family="sans-serif" font-size="14" lengthAdjust="spacing" textLength="35" x="483" y="212.9734">Ce: 2</text><text fill="#000000" font-family="sans-serif" font-size="14" lengthAdjust="spacing" textLength="35" x="483" y="229.4617">Ca: 1</text><text fill="#000000" font-family="sans-serif" font-size="14" lengthAdjust="spacing" textLength="43" x="483" y="245.95">I: 0.66</text></g><!--entity common--><g id="elem_common"><rect fill="#FFFFFF" height="95.9531" rx="2.5" ry="2.5" style="stroke:#808080;stroke-width:0.5;" width="448" x="619" y="474.86"/><rect fill="#FFFFFF" height="10" style="stroke:#808080;stroke-width:0.5;" width="15" x="1047" y="479.86"/><rect fill="#FFFFFF" height="2" style="stroke:#808080;stroke-width:0.5;" width="4" x="1045" y="481.86"/><rect fill="#FFFFFF" height="2" style="stroke:#808080;stroke-width:0.5;" width="4" x="1045" y="485.86"/><text fill="#000000" font-family="sans-serif" font-size="14" lengthAdjust="spacing" textLength="404" x="634" y="508.3952">Component ru.onixred.siberian.sea.battle.feature.common</text><text fill="#000000" font-family="sans-serif" font-size="14" lengthAdjust="spacing" textLength="35" x="634" y="524.8834">Ce: 0</text><text fill="#000000" font-family="sans-serif" font-size="14" lengthAdjust="spacing" textLength="35" x="634" y="541.3717">Ca: 3</text><text fill="#000000" font-family="sans-serif" font-size="14" lengthAdjust="spacing" textLength="21" x="634" y="557.86">I: 0</text></g><!--entity configuration--><g id="elem_configuration"><rect fill="#FFFFFF" height="95.9531" rx="2.5" ry="2.5" style="stroke:#808080;stroke-width:0.5;" width="481" x="1067.5" y="7"/><rect fill="#FFFFFF" height="10" style="stroke:#808080;stroke-width:0.5;" width="15" x="1528.5" y="12"/><rect fill="#FFFFFF" height="2" style="stroke:#808080;stroke-width:0.5;" width="4" x="1526.5" y="14"/><rect fill="#FFFFFF" height="2" style="stroke:#808080;stroke-width:0.5;" width="4" x="1526.5" y="18"/><text fill="#000000" font-family="sans-serif" font-size="14" lengthAdjust="spacing" textLength="437" x="1082.5" y="40.5352">Component ru.onixred.siberian.sea.battle.feature.configuration</text><text fill="#000000" font-family="sans-serif" font-size="14" lengthAdjust="spacing" textLength="35" x="1082.5" y="57.0234">Ce: 0</text><text fill="#000000" font-family="sans-serif" font-size="14" lengthAdjust="spacing" textLength="35" x="1082.5" y="73.5117">Ca: 0</text><text fill="#000000" font-family="sans-serif" font-size="14" lengthAdjust="spacing" textLength="21" x="1082.5" y="90">I: 1</text></g><!--entity notification--><g id="elem_notification"><rect fill="#FFFFFF" height="95.9531" rx="2.5" ry="2.5" style="stroke:#808080;stroke-width:0.5;" width="466" x="610" y="318.9"/><rect fill="#FFFFFF" height="10" style="stroke:#808080;stroke-width:0.5;" width="15" x="1056" y="323.9"/><rect fill="#FFFFFF" height="2" style="stroke:#808080;stroke-width:0.5;" width="4" x="1054" y="325.9"/><rect fill="#FFFFFF" height="2" style="stroke:#808080;stroke-width:0.5;" width="4" x="1054" y="329.9"/><text fill="#000000" font-family="sans-serif" font-size="14" lengthAdjust="spacing" textLength="422" x="625" y="352.4352">Component ru.onixred.siberian.sea.battle.feature.notification</text><text fill="#000000" font-family="sans-serif" font-size="14" lengthAdjust="spacing" textLength="35" x="625" y="368.9234">Ce: 1</text><text fill="#000000" font-family="sans-serif" font-size="14" lengthAdjust="spacing" textLength="35" x="625" y="385.4117">Ca: 2</text><text fill="#000000" font-family="sans-serif" font-size="14" lengthAdjust="spacing" textLength="43" x="625" y="401.9">I: 0.33</text></g><!--link notification to common--><g id="link_notification_common"><path d="M843,415.33 C843,434.15 843,449.74 843,468.54 " fill="none" id="notification-to-common" style="stroke:#181818;stroke-width:1.0;"/><polygon fill="#181818" points="843,474.54,847,465.54,843,469.54,839,465.54,843,474.54" style="stroke:#181818;stroke-width:1.0;"/></g><!--link match to common--><g id="link_match_common"><path d="M896.28,103.26 C963.75,148.77 1055.52,224.49 1093,318.9 C1108.74,358.54 1116.49,379.26 1093,414.86 C1076.23,440.27 1057.2923,456.7695 1030.4923,471.5695 " fill="none" id="match-to-common" style="stroke:#181818;stroke-width:1.0;"/><polygon fill="#181818" points="1025.24,474.47,1035.0522,473.6207,1029.6169,472.0529,1031.1848,466.6176,1025.24,474.47" style="stroke:#181818;stroke-width:1.0;"/></g><!--link match to player--><g id="link_match_player"><path d="M775.7,103.42 C759.32,122.24 744.4689,139.304 728.0989,158.114 " fill="none" id="match-to-player" style="stroke:#181818;stroke-width:1.0;"/><polygon fill="#181818" points="724.16,162.64,733.0857,158.4769,727.4424,158.8683,727.051,153.225,724.16,162.64" style="stroke:#181818;stroke-width:1.0;"/></g><!--link match to game--><g id="link_match_game"><path d="M633.01,103.42 C560.21,122.2 482.4999,142.2318 409.7099,161.0018 " fill="none" id="match-to-game" style="stroke:#181818;stroke-width:1.0;"/><polygon fill="#181818" points="403.9,162.5,413.6137,164.126,408.7416,161.2515,411.6161,156.3794,403.9,162.5" style="stroke:#181818;stroke-width:1.0;"/></g><!--link match to notification--><g id="link_match_notification"><path d="M874.24,103.23 C890.6,120.17 906.33,140.65 915,162.95 C930.45,202.7 927.45,218.12 915,258.9 C908.53,280.1 899.7951,296.0231 887.2251,313.5631 " fill="none" id="match-to-notification" style="stroke:#181818;stroke-width:1.0;"/><polygon fill="#181818" points="883.73,318.44,892.2239,313.4546,886.6425,314.3759,885.7213,308.7945,883.73,318.44" style="stroke:#181818;stroke-width:1.0;"/></g><!--link player to common--><g id="link_player_common"><path d="M631.07,259.14 C615.79,276.28 601.02,296.9 593,318.9 C578.39,358.97 569.51,379.26 593,414.86 C609.77,440.27 628.7077,456.7695 655.5077,471.5695 " fill="none" id="player-to-common" style="stroke:#181818;stroke-width:1.0;"/><polygon fill="#181818" points="660.76,474.47,654.8152,466.6176,656.3831,472.0529,650.9478,473.6207,660.76,474.47" style="stroke:#181818;stroke-width:1.0;"/></g><!--link player to notification--><g id="link_player_notification"><path d="M732.31,259.37 C751.87,278.19 769.9863,295.63 789.5263,314.43 " fill="none" id="player-to-notification" style="stroke:#181818;stroke-width:1.0;"/><polygon fill="#181818" points="793.85,318.59,790.1377,309.4676,790.2469,315.1234,784.5911,315.2325,793.85,318.59" style="stroke:#181818;stroke-width:1.0;"/></g><!--SRC=[dP8_RuCm4CLtFeMbph42L1aoT6Ycp1sR3XSuZ1N_GOTHYgf-zuBj5fDkJ9RVdN_FVkV-9aq719fLLdVMe75lRbJ81gsAhFzVPLyPOw-MQgIJLPROao0SPmsgco0xc3hgzrOwpBuJY4A1fWw4nsubHUj6LChUfpDPzdxwSwI1MoC_2MlUookI1CDx17u5vnJo1i4DX5o0HdOn9poo_RJ0aUKNSvus7mnwDbStG3MugetKvq3TpzJSGtrr0xLJC295RB6wB3ySF3gqR61FazBMh8Ceao12VHFOD58C14u-ydqaB8_yf6s3ZR5EDh9ANVBWKiI4oj8RfOtJXrcTs-rUVX-QXH4coYB4a1V1_v9bkxQ8Kqj8YR9g_G40]--></g></svg>