<?xml version="1.0" encoding="us-ascii" standalone="no"?><svg xmlns="http://www.w3.org/2000/svg" xmlns:xlink="http://www.w3.org/1999/xlink" contentStyleType="text/css" height="378px" preserveAspectRatio="none" style="width:345px;height:378px;background:#FFFFFF;" version="1.1" viewBox="0 0 345 378" width="345px" zoomAndPan="magnify"><defs/><g><!--entity controller--><g id="elem_controller"><rect fill="#FFFFFF" height="46.4883" rx="2.5" ry="2.5" style="stroke:#808080;stroke-width:0.5;" width="107" x="7" y="7"/><rect fill="#FFFFFF" height="10" style="stroke:#808080;stroke-width:0.5;" width="15" x="94" y="12"/><rect fill="#FFFFFF" height="2" style="stroke:#808080;stroke-width:0.5;" width="4" x="92" y="14"/><rect fill="#FFFFFF" height="2" style="stroke:#808080;stroke-width:0.5;" width="4" x="92" y="18"/><text fill="#000000" font-family="sans-serif" font-size="14" lengthAdjust="spacing" textLength="67" x="22" y="40.5352">controller</text></g><!--entity model--><g id="elem_model"><rect fill="#FFFFFF" height="46.4883" rx="2.5" ry="2.5" style="stroke:#808080;stroke-width:0.5;" width="83" x="42" y="326.46"/><rect fill="#FFFFFF" height="10" style="stroke:#808080;stroke-width:0.5;" width="15" x="105" y="331.46"/><rect fill="#FFFFFF" height="2" style="stroke:#808080;stroke-width:0.5;" width="4" x="103" y="333.46"/><rect fill="#FFFFFF" height="2" style="stroke:#808080;stroke-width:0.5;" width="4" x="103" y="337.46"/><text fill="#000000" font-family="sans-serif" font-size="14" lengthAdjust="spacing" textLength="43" x="57" y="359.9952">model</text></g><!--entity service--><g id="elem_service"><rect fill="#FFFFFF" height="46.4883" rx="2.5" ry="2.5" style="stroke:#808080;stroke-width:0.5;" width="87" x="93" y="113.49"/><rect fill="#FFFFFF" height="10" style="stroke:#808080;stroke-width:0.5;" width="15" x="160" y="118.49"/><rect fill="#FFFFFF" height="2" style="stroke:#808080;stroke-width:0.5;" width="4" x="158" y="120.49"/><rect fill="#FFFFFF" height="2" style="stroke:#808080;stroke-width:0.5;" width="4" x="158" y="124.49"/><text fill="#000000" font-family="sans-serif" font-size="14" lengthAdjust="spacing" textLength="47" x="108" y="147.0252">service</text></g><!--entity acl--><g id="elem_acl"><rect fill="#FFFFFF" height="46.4883" rx="2.5" ry="2.5" style="stroke:#808080;stroke-width:0.5;" width="59" x="136" y="219.97"/><rect fill="#FFFFFF" height="10" style="stroke:#808080;stroke-width:0.5;" width="15" x="175" y="224.97"/><rect fill="#FFFFFF" height="2" style="stroke:#808080;stroke-width:0.5;" width="4" x="173" y="226.97"/><rect fill="#FFFFFF" height="2" style="stroke:#808080;stroke-width:0.5;" width="4" x="173" y="230.97"/><text fill="#000000" font-family="sans-serif" font-size="14" lengthAdjust="spacing" textLength="19" x="151" y="253.5052">acl</text></g><!--entity repository--><g id="elem_repository"><rect fill="#FFFFFF" height="46.4883" rx="2.5" ry="2.5" style="stroke:#808080;stroke-width:0.5;" width="110" x="229.5" y="219.97"/><rect fill="#FFFFFF" height="10" style="stroke:#808080;stroke-width:0.5;" width="15" x="319.5" y="224.97"/><rect fill="#FFFFFF" height="2" style="stroke:#808080;stroke-width:0.5;" width="4" x="317.5" y="226.97"/><rect fill="#FFFFFF" height="2" style="stroke:#808080;stroke-width:0.5;" width="4" x="317.5" y="230.97"/><text fill="#000000" font-family="sans-serif" font-size="14" lengthAdjust="spacing" textLength="70" x="244.5" y="253.5052">repository</text></g><!--entity dao--><g id="elem_dao"><rect fill="#FFFFFF" height="46.4883" rx="2.5" ry="2.5" style="stroke:#808080;stroke-width:0.5;" width="66" x="205.5" y="326.46"/><rect fill="#FFFFFF" height="10" style="stroke:#808080;stroke-width:0.5;" width="15" x="251.5" y="331.46"/><rect fill="#FFFFFF" height="2" style="stroke:#808080;stroke-width:0.5;" width="4" x="249.5" y="333.46"/><rect fill="#FFFFFF" height="2" style="stroke:#808080;stroke-width:0.5;" width="4" x="249.5" y="337.46"/><text fill="#000000" font-family="sans-serif" font-size="14" lengthAdjust="spacing" textLength="26" x="220.5" y="359.9952">dao</text></g><!--link controller to model--><g id="link_controller_model"><path d="M62.14,53.82 C66.36,112.18 77.186,261.5757 81.426,320.0457 " fill="none" id="controller-to-model" style="stroke:#181818;stroke-width:1.0;"/><polygon fill="#181818" points="81.86,326.03,85.1986,316.7643,81.4984,321.0431,77.2195,317.3429,81.86,326.03" style="stroke:#181818;stroke-width:1.0;"/></g><!--link controller to service--><g id="link_controller_service"><path d="M76.99,53.91 C89.74,71.44 103.77,90.7383 116.51,108.2483 " fill="none" id="controller-to-service" style="stroke:#181818;stroke-width:1.0;"/><polygon fill="#181818" points="120.04,113.1,117.9794,103.4691,117.0983,109.0569,111.5105,108.1758,120.04,113.1" style="stroke:#181818;stroke-width:1.0;"/></g><!--link service to model--><g id="link_service_model"><path d="M130.83,160.31 C120.65,200.81 100.8716,279.5408 90.6716,320.1508 " fill="none" id="service-to-model" style="stroke:#181818;stroke-width:1.0;"/><polygon fill="#181818" points="89.21,325.97,95.2819,318.2155,90.428,321.1206,87.5229,316.2667,89.21,325.97" style="stroke:#181818;stroke-width:1.0;"/></g><!--link service to acl--><g id="link_service_acl"><path d="M142.79,160.4 C147.66,177.93 152.7562,196.2883 157.6162,213.8083 " fill="none" id="service-to-acl" style="stroke:#181818;stroke-width:1.0;"/><polygon fill="#181818" points="159.22,219.59,160.6687,209.8483,157.8835,214.7719,152.9598,211.9867,159.22,219.59" style="stroke:#181818;stroke-width:1.0;"/></g><!--link service to repository--><g id="link_service_repository"><path d="M168.61,160.4 C193.44,177.93 222.7388,198.609 247.5488,216.129 " fill="none" id="service-to-repository" style="stroke:#181818;stroke-width:1.0;"/><polygon fill="#181818" points="252.45,219.59,247.4056,211.131,248.3657,216.7058,242.7909,217.6659,252.45,219.59" style="stroke:#181818;stroke-width:1.0;"/></g><!--link repository to dao--><g id="link_repository_dao"><path d="M274.52,266.89 C266.8,284.42 258.5867,303.0682 250.8767,320.5882 " fill="none" id="repository-to-dao" style="stroke:#181818;stroke-width:1.0;"/><polygon fill="#181818" points="248.46,326.08,255.7463,319.4535,250.474,321.5035,248.424,316.2312,248.46,326.08" style="stroke:#181818;stroke-width:1.0;"/></g><!--link acl to model--><g id="link_acl_model"><path d="M147.71,266.89 C133.95,284.42 118.7026,303.8387 104.9626,321.3587 " fill="none" id="acl-to-model" style="stroke:#181818;stroke-width:1.0;"/><polygon fill="#181818" points="101.26,326.08,109.9615,321.4665,104.3455,322.1456,103.6664,316.5297,101.26,326.08" style="stroke:#181818;stroke-width:1.0;"/></g><!--link acl to dao--><g id="link_acl_dao"><path d="M181.34,266.89 C193.58,284.42 207.0137,303.6414 219.2537,321.1614 " fill="none" id="acl-to-dao" style="stroke:#181818;stroke-width:1.0;"/><polygon fill="#181818" points="222.69,326.08,220.8147,316.4113,219.8265,321.9812,214.2566,320.993,222.69,326.08" style="stroke:#181818;stroke-width:1.0;"/></g><!--SRC=[ROmz3W8X48LxJZ69zJOUm4AFOBcX831PoGuC6LWDCTvTyITArcxc-zvxUVOn6J41B8V44MCvbae8Iw2jociBLmMmPt4e1oOMs4o2jJ5ZvqbuYUxDBoTVKDsK6Yt78ao4ec4OTZ06TaZwZyWePszHFqgVis_qrDWr4qoSVM6fRUNdUsbdkF7Mx9U_v1cv0m00]--></g></svg>