<?xml version="1.0" encoding="us-ascii" standalone="no"?><svg xmlns="http://www.w3.org/2000/svg" xmlns:xlink="http://www.w3.org/1999/xlink" contentStyleType="text/css" height="189px" preserveAspectRatio="none" style="width:721px;height:189px;background:#FFFFFF;" version="1.1" viewBox="0 0 721 189" width="721px" zoomAndPan="magnify"><defs/><g><!--class BaseRequestMessage--><g id="elem_BaseRequestMessage"><rect codeLine="177" fill="#FFFFFF" height="40.6211" id="BaseRequestMessage" rx="2.5" ry="2.5" style="stroke:#808080;stroke-width:0.5;" width="177" x="294.5" y="142.62"/><ellipse cx="309.5" cy="162.9305" fill="#ADD1B2" rx="11" ry="11" style="stroke:#181818;stroke-width:1.0;"/><path d="M311.9731,169.0736 Q311.3921,169.3724 310.7529,169.5219 Q310.1138,169.6713 309.4082,169.6713 Q306.9014,169.6713 305.5815,168.0194 Q304.2617,166.3676 304.2617,163.2465 Q304.2617,160.1171 305.5815,158.4652 Q306.9014,156.8134 309.4082,156.8134 Q310.1138,156.8134 310.7612,156.9628 Q311.4087,157.1122 311.9731,157.411 L311.9731,160.1337 Q311.3423,159.5526 310.7488,159.2828 Q310.1553,159.0131 309.5244,159.0131 Q308.1797,159.0131 307.4949,160.0797 Q306.8101,161.1464 306.8101,163.2465 Q306.8101,165.3383 307.4949,166.4049 Q308.1797,167.4716 309.5244,167.4716 Q310.1553,167.4716 310.7488,167.2018 Q311.3423,166.932 311.9731,166.351 Z " fill="#000000"/><text fill="#000000" font-family="sans-serif" font-size="12" font-style="italic" lengthAdjust="spacing" textLength="62" x="365" y="159.2216">&#171;interface&#187;</text><text fill="#000000" font-family="sans-serif" font-size="14" lengthAdjust="spacing" textLength="145" x="323.5" y="175.288">BaseRequestMessage</text></g><!--class CreateGameRequestMessage--><g id="elem_CreateGameRequestMessage"><rect codeLine="178" fill="#FFFFFF" height="40.6211" id="CreateGameRequestMessage" rx="2.5" ry="2.5" style="stroke:#808080;stroke-width:0.5;" width="230" x="7" y="7"/><ellipse cx="22" cy="27.3105" fill="#ADD1B2" rx="11" ry="11" style="stroke:#181818;stroke-width:1.0;"/><path d="M24.4731,33.4536 Q23.8921,33.7524 23.2529,33.9019 Q22.6138,34.0513 21.9082,34.0513 Q19.4014,34.0513 18.0815,32.3994 Q16.7617,30.7476 16.7617,27.6265 Q16.7617,24.4971 18.0815,22.8452 Q19.4014,21.1934 21.9082,21.1934 Q22.6138,21.1934 23.2612,21.3428 Q23.9087,21.4922 24.4731,21.791 L24.4731,24.5137 Q23.8423,23.9326 23.2488,23.6628 Q22.6553,23.3931 22.0244,23.3931 Q20.6797,23.3931 19.9949,24.4597 Q19.3101,25.5264 19.3101,27.6265 Q19.3101,29.7183 19.9949,30.7849 Q20.6797,31.8516 22.0244,31.8516 Q22.6553,31.8516 23.2488,31.5818 Q23.8423,31.312 24.4731,30.731 Z " fill="#000000"/><text fill="#000000" font-family="sans-serif" font-size="12" font-style="italic" lengthAdjust="spacing" textLength="61" x="104.5" y="23.6016">&#171;concrete&#187;</text><text fill="#000000" font-family="sans-serif" font-size="14" lengthAdjust="spacing" textLength="198" x="36" y="39.668">CreateGameRequestMessage</text></g><!--class CreateUserRequestMessage--><g id="elem_CreateUserRequestMessage"><rect codeLine="179" fill="#FFFFFF" height="40.6211" id="CreateUserRequestMessage" rx="2.5" ry="2.5" style="stroke:#808080;stroke-width:0.5;" width="222" x="272" y="7"/><ellipse cx="287" cy="27.3105" fill="#ADD1B2" rx="11" ry="11" style="stroke:#181818;stroke-width:1.0;"/><path d="M289.4731,33.4536 Q288.8921,33.7524 288.2529,33.9019 Q287.6138,34.0513 286.9082,34.0513 Q284.4014,34.0513 283.0815,32.3994 Q281.7617,30.7476 281.7617,27.6265 Q281.7617,24.4971 283.0815,22.8452 Q284.4014,21.1934 286.9082,21.1934 Q287.6138,21.1934 288.2612,21.3428 Q288.9087,21.4922 289.4731,21.791 L289.4731,24.5137 Q288.8423,23.9326 288.2488,23.6628 Q287.6553,23.3931 287.0244,23.3931 Q285.6797,23.3931 284.9949,24.4597 Q284.3101,25.5264 284.3101,27.6265 Q284.3101,29.7183 284.9949,30.7849 Q285.6797,31.8516 287.0244,31.8516 Q287.6553,31.8516 288.2488,31.5818 Q288.8423,31.312 289.4731,30.731 Z " fill="#000000"/><text fill="#000000" font-family="sans-serif" font-size="12" font-style="italic" lengthAdjust="spacing" textLength="61" x="365.5" y="23.6016">&#171;concrete&#187;</text><text fill="#000000" font-family="sans-serif" font-size="14" lengthAdjust="spacing" textLength="190" x="301" y="39.668">CreateUserRequestMessage</text></g><!--class ChatRequest--><g id="elem_ChatRequest"><rect codeLine="180" fill="#FFFFFF" height="40.6211" id="ChatRequest" rx="2.5" ry="2.5" style="stroke:#808080;stroke-width:0.5;" width="119" x="528.5" y="7"/><ellipse cx="543.5" cy="27.3105" fill="#ADD1B2" rx="11" ry="11" style="stroke:#181818;stroke-width:1.0;"/><path d="M545.9731,33.4536 Q545.3921,33.7524 544.7529,33.9019 Q544.1138,34.0513 543.4082,34.0513 Q540.9014,34.0513 539.5815,32.3994 Q538.2617,30.7476 538.2617,27.6265 Q538.2617,24.4971 539.5815,22.8452 Q540.9014,21.1934 543.4082,21.1934 Q544.1138,21.1934 544.7612,21.3428 Q545.4087,21.4922 545.9731,21.791 L545.9731,24.5137 Q545.3423,23.9326 544.7488,23.6628 Q544.1553,23.3931 543.5244,23.3931 Q542.1797,23.3931 541.4949,24.4597 Q540.8101,25.5264 540.8101,27.6265 Q540.8101,29.7183 541.4949,30.7849 Q542.1797,31.8516 543.5244,31.8516 Q544.1553,31.8516 544.7488,31.5818 Q545.3423,31.312 545.9731,30.731 Z " fill="#000000"/><text fill="#000000" font-family="sans-serif" font-size="12" font-style="italic" lengthAdjust="spacing" textLength="61" x="570.5" y="23.6016">&#171;concrete&#187;</text><text fill="#000000" font-family="sans-serif" font-size="14" lengthAdjust="spacing" textLength="87" x="557.5" y="39.668">ChatRequest</text></g><!--link CreateGameRequestMessage to BaseRequestMessage--><g id="link_CreateGameRequestMessage_BaseRequestMessage"><path codeLine="182" d="M160.51,48.02 C209.86,73.29 278.8876,108.6275 328.3076,133.9275 " fill="none" id="CreateGameRequestMessage-to-BaseRequestMessage" style="stroke:#008000;stroke-width:1.0;stroke-dasharray:7.0,7.0;"/><polygon fill="none" points="344.33,142.13,331.0417,128.5867,325.5734,139.2683,344.33,142.13" style="stroke:#008000;stroke-width:1.0;"/></g><!--link CreateUserRequestMessage to BaseRequestMessage--><g id="link_CreateUserRequestMessage_BaseRequestMessage"><path codeLine="183" d="M383,48.02 C383,73.29 383,98.83 383,124.13 " fill="none" id="CreateUserRequestMessage-to-BaseRequestMessage" style="stroke:#008000;stroke-width:1.0;stroke-dasharray:7.0,7.0;"/><polygon fill="none" points="383,142.13,389,124.13,377,124.13,383,142.13" style="stroke:#008000;stroke-width:1.0;"/></g><!--link ChatRequest to BaseRequestMessage--><g id="link_ChatRequest_BaseRequestMessage"><path codeLine="184" d="M557.75,48.02 C518.99,73.29 467.2701,107.0019 428.4501,132.3019 " fill="none" id="ChatRequest-to-BaseRequestMessage" style="stroke:#DC143C;stroke-width:1.0;stroke-dasharray:7.0,7.0;"/><polygon fill="none" points="413.37,142.13,431.7261,137.3286,425.1741,127.2752,413.37,142.13" style="stroke:#DC143C;stroke-width:1.0;"/><path d="M514.89,82.62 L514.89,107.62 L714.89,107.62 L714.89,92.62 L704.89,82.62 L514.89,82.62 " fill="#DC143C" style="stroke:#181818;stroke-width:0.5;"/><path d="M704.89,82.62 L704.89,92.62 L714.89,92.62 L704.89,82.62 " fill="#DC143C" style="stroke:#181818;stroke-width:0.5;"/><text fill="#000000" font-family="sans-serif" font-size="13" lengthAdjust="spacing" textLength="179" x="520.89" y="100.1884">&#1053;&#1077;&#1087;&#1088;&#1072;&#1074;&#1080;&#1083;&#1100;&#1085;&#1086;&#1077; &#1080;&#1084;&#1103; &#1091; &#1082;&#1083;&#1072;&#1089;&#1089;&#1072;</text></g><!--SRC=[dOzDIWD148NtVOe2zrcub32BPE7AZU81sfvoffdfwh6w1nbKCBWLF85t68I067-kK7qZ3GP9D8FYijxxtgkgqkO8w9hOWKDtWXnKg2mrchK3urtZ2IaUnQv6Q5szgxRPSA409fvpvAclFSDEmTWjDMsgWdrB-Ke_Bsr4TRNHKkiG_j7mcPleW8TurcA81nY2BX36OqiH-LGRpB8LDcNK4VUr-maRJuOnVcUF0_8Vs5B75RLfgy6Dez5bjktivST8Qd3xRxcrImPHmzO5JqgHZmXiYpA29wWjLL_c7iYzpEKjNKil3_8eYtGhB_8gS_WOdjCTf1kG9rb8dsPf9lqx]--></g></svg>