<?xml version="1.0" encoding="us-ascii" standalone="no"?><svg xmlns="http://www.w3.org/2000/svg" xmlns:xlink="http://www.w3.org/1999/xlink" contentStyleType="text/css" height="188px" preserveAspectRatio="none" style="width:751px;height:188px;background:#FFFFFF;" version="1.1" viewBox="0 0 751 188" width="751px" zoomAndPan="magnify"><defs/><g><!--class BaseRequestMessage--><g id="elem_BaseRequestMessage"><rect codeLine="177" fill="#FFFFFF" height="40.2656" id="BaseRequestMessage" rx="2.5" ry="2.5" style="stroke:#808080;stroke-width:0.5;" width="189" x="305" y="142"/><ellipse cx="320" cy="162.1328" fill="#ADD1B2" rx="11" ry="11" style="stroke:#181818;stroke-width:1.0;"/><path d="M322.9688,167.7734 Q322.3906,168.0703 321.75,168.2109 Q321.1094,168.3672 320.4063,168.3672 Q317.9063,168.3672 316.5781,166.7266 Q315.2656,165.0703 315.2656,161.9453 Q315.2656,158.8203 316.5781,157.1641 Q317.9063,155.5078 320.4063,155.5078 Q321.1094,155.5078 321.75,155.6641 Q322.4063,155.8203 322.9688,156.1172 L322.9688,158.8359 Q322.3438,158.2578 321.75,157.9922 Q321.1563,157.7109 320.5313,157.7109 Q319.1875,157.7109 318.5,158.7891 Q317.8125,159.8516 317.8125,161.9453 Q317.8125,164.0391 318.5,165.1172 Q319.1875,166.1797 320.5313,166.1797 Q321.1563,166.1797 321.75,165.9141 Q322.3438,165.6328 322.9688,165.0547 L322.9688,167.7734 Z " fill="#000000"/><text fill="#000000" font-family="sans-serif" font-size="12" font-style="italic" lengthAdjust="spacing" textLength="70" x="377.5" y="158.1387">&#171;interface&#187;</text><text fill="#000000" font-family="sans-serif" font-size="14" lengthAdjust="spacing" textLength="157" x="334" y="173.9639">BaseRequestMessage</text></g><!--class CreateGameRequestMessage--><g id="elem_CreateGameRequestMessage"><rect codeLine="178" fill="#FFFFFF" height="40.2656" id="CreateGameRequestMessage" rx="2.5" ry="2.5" style="stroke:#808080;stroke-width:0.5;" width="241" x="7" y="7"/><ellipse cx="22" cy="27.1328" fill="#ADD1B2" rx="11" ry="11" style="stroke:#181818;stroke-width:1.0;"/><path d="M24.9688,32.7734 Q24.3906,33.0703 23.75,33.2109 Q23.1094,33.3672 22.4063,33.3672 Q19.9063,33.3672 18.5781,31.7266 Q17.2656,30.0703 17.2656,26.9453 Q17.2656,23.8203 18.5781,22.1641 Q19.9063,20.5078 22.4063,20.5078 Q23.1094,20.5078 23.75,20.6641 Q24.4063,20.8203 24.9688,21.1172 L24.9688,23.8359 Q24.3438,23.2578 23.75,22.9922 Q23.1563,22.7109 22.5313,22.7109 Q21.1875,22.7109 20.5,23.7891 Q19.8125,24.8516 19.8125,26.9453 Q19.8125,29.0391 20.5,30.1172 Q21.1875,31.1797 22.5313,31.1797 Q23.1563,31.1797 23.75,30.9141 Q24.3438,30.6328 24.9688,30.0547 L24.9688,32.7734 Z " fill="#000000"/><text fill="#000000" font-family="sans-serif" font-size="12" font-style="italic" lengthAdjust="spacing" textLength="70" x="105.5" y="23.1387">&#171;concrete&#187;</text><text fill="#000000" font-family="sans-serif" font-size="14" lengthAdjust="spacing" textLength="209" x="36" y="38.9639">CreateGameRequestMessage</text></g><!--class CreateUserRequestMessage--><g id="elem_CreateUserRequestMessage"><rect codeLine="179" fill="#FFFFFF" height="40.2656" id="CreateUserRequestMessage" rx="2.5" ry="2.5" style="stroke:#808080;stroke-width:0.5;" width="232" x="283.5" y="7"/><ellipse cx="298.5" cy="27.1328" fill="#ADD1B2" rx="11" ry="11" style="stroke:#181818;stroke-width:1.0;"/><path d="M301.4688,32.7734 Q300.8906,33.0703 300.25,33.2109 Q299.6094,33.3672 298.9063,33.3672 Q296.4063,33.3672 295.0781,31.7266 Q293.7656,30.0703 293.7656,26.9453 Q293.7656,23.8203 295.0781,22.1641 Q296.4063,20.5078 298.9063,20.5078 Q299.6094,20.5078 300.25,20.6641 Q300.9063,20.8203 301.4688,21.1172 L301.4688,23.8359 Q300.8438,23.2578 300.25,22.9922 Q299.6563,22.7109 299.0313,22.7109 Q297.6875,22.7109 297,23.7891 Q296.3125,24.8516 296.3125,26.9453 Q296.3125,29.0391 297,30.1172 Q297.6875,31.1797 299.0313,31.1797 Q299.6563,31.1797 300.25,30.9141 Q300.8438,30.6328 301.4688,30.0547 L301.4688,32.7734 Z " fill="#000000"/><text fill="#000000" font-family="sans-serif" font-size="12" font-style="italic" lengthAdjust="spacing" textLength="70" x="377.5" y="23.1387">&#171;concrete&#187;</text><text fill="#000000" font-family="sans-serif" font-size="14" lengthAdjust="spacing" textLength="200" x="312.5" y="38.9639">CreateUserRequestMessage</text></g><!--class ChatRequest--><g id="elem_ChatRequest"><rect codeLine="180" fill="#FFFFFF" height="40.2656" id="ChatRequest" rx="2.5" ry="2.5" style="stroke:#808080;stroke-width:0.5;" width="123" x="551" y="7"/><ellipse cx="566" cy="27.1328" fill="#ADD1B2" rx="11" ry="11" style="stroke:#181818;stroke-width:1.0;"/><path d="M568.9688,32.7734 Q568.3906,33.0703 567.75,33.2109 Q567.1094,33.3672 566.4063,33.3672 Q563.9063,33.3672 562.5781,31.7266 Q561.2656,30.0703 561.2656,26.9453 Q561.2656,23.8203 562.5781,22.1641 Q563.9063,20.5078 566.4063,20.5078 Q567.1094,20.5078 567.75,20.6641 Q568.4063,20.8203 568.9688,21.1172 L568.9688,23.8359 Q568.3438,23.2578 567.75,22.9922 Q567.1563,22.7109 566.5313,22.7109 Q565.1875,22.7109 564.5,23.7891 Q563.8125,24.8516 563.8125,26.9453 Q563.8125,29.0391 564.5,30.1172 Q565.1875,31.1797 566.5313,31.1797 Q567.1563,31.1797 567.75,30.9141 Q568.3438,30.6328 568.9688,30.0547 L568.9688,32.7734 Z " fill="#000000"/><text fill="#000000" font-family="sans-serif" font-size="12" font-style="italic" lengthAdjust="spacing" textLength="70" x="590.5" y="23.1387">&#171;concrete&#187;</text><text fill="#000000" font-family="sans-serif" font-size="14" lengthAdjust="spacing" textLength="91" x="580" y="38.9639">ChatRequest</text></g><!--link CreateGameRequestMessage to BaseRequestMessage--><g id="link_CreateGameRequestMessage_BaseRequestMessage"><path codeLine="182" d="M166.47,47.06 C218.18,72.34 292.7602,108.8019 344.4302,134.0719 " fill="none" id="CreateGameRequestMessage-to-BaseRequestMessage" style="stroke:#008000;stroke-width:1.0;stroke-dasharray:7.0,7.0;"/><polygon fill="none" points="360.6,141.98,347.0662,128.682,341.7942,139.4618,360.6,141.98" style="stroke:#008000;stroke-width:1.0;"/></g><!--link CreateUserRequestMessage to BaseRequestMessage--><g id="link_CreateUserRequestMessage_BaseRequestMessage"><path codeLine="183" d="M399.5,47.06 C399.5,72.34 399.5,98.71 399.5,123.98 " fill="none" id="CreateUserRequestMessage-to-BaseRequestMessage" style="stroke:#008000;stroke-width:1.0;stroke-dasharray:7.0,7.0;"/><polygon fill="none" points="399.5,141.98,405.5,123.98,393.5,123.98,399.5,141.98" style="stroke:#008000;stroke-width:1.0;"/></g><!--link ChatRequest to BaseRequestMessage--><g id="link_ChatRequest_BaseRequestMessage"><path codeLine="184" d="M581.98,47.06 C541.49,72.34 485.6869,107.1748 445.2269,132.4448 " fill="none" id="ChatRequest-to-BaseRequestMessage" style="stroke:#DC143C;stroke-width:1.0;stroke-dasharray:7.0,7.0;"/><polygon fill="none" points="429.96,141.98,448.4053,137.5337,442.0485,127.3558,429.96,141.98" style="stroke:#DC143C;stroke-width:1.0;"/><path d="M535.5,82 L535.5,107 L744.5,107 L744.5,92 L734.5,82 L535.5,82 " fill="#DC143C" style="stroke:#181818;stroke-width:0.5;"/><path d="M734.5,82 L734.5,92 L744.5,92 L734.5,82 " fill="#DC143C" style="stroke:#181818;stroke-width:0.5;"/><text fill="#000000" font-family="sans-serif" font-size="13" lengthAdjust="spacing" textLength="188" x="541.5" y="99.0669">&#1053;&#1077;&#1087;&#1088;&#1072;&#1074;&#1080;&#1083;&#1100;&#1085;&#1086;&#1077; &#1080;&#1084;&#1103; &#1091; &#1082;&#1083;&#1072;&#1089;&#1089;&#1072;</text></g><!--SRC=[dOzDIWD148NtVOe2zrcub32BPE7AZU81sfvoffdfwh6w1nbKCBWLF85t68I067-kK7qZ3GP9D8FYijxxtgkgqkO8w9hOWKDtWXnKg2mrchK3urtZ2IaUnQv6Q5szgxRPSA409fvpvAclFSDEmTWjDMsgWdrB-Ke_Bsr4TRNHKkiG_j7mcPleW8TurcA81nY2BX36OqiH-LGRpB8LDcNK4VUr-maRJuOnVcUF0_8Vs5B75RLfgy6Dez5bjktivST8Qd3xRxcrImPHmzO5JqgHZmXiYpA29wWjLL_c7iYzpEKjNKil3_8eYtGhB_8gS_WOdjCTf1kG9rb8dsPf9lqx]--></g></svg>