<?xml version="1.0" encoding="us-ascii" standalone="no"?><svg xmlns="http://www.w3.org/2000/svg" xmlns:xlink="http://www.w3.org/1999/xlink" contentStyleType="text/css" height="555px" preserveAspectRatio="none" style="width:1212px;height:555px;background:#FFFFFF;" version="1.1" viewBox="0 0 1212 555" width="1212px" zoomAndPan="magnify"><defs/><g><!--entity game--><g id="elem_game"><rect fill="#FFFFFF" height="62.9766" rx="2.5" ry="2.5" style="stroke:#808080;stroke-width:0.5;" width="321" x="7" y="129.98"/><rect fill="#FFFFFF" height="10" style="stroke:#808080;stroke-width:0.5;" width="15" x="308" y="134.98"/><rect fill="#FFFFFF" height="2" style="stroke:#808080;stroke-width:0.5;" width="4" x="306" y="136.98"/><rect fill="#FFFFFF" height="2" style="stroke:#808080;stroke-width:0.5;" width="4" x="306" y="140.98"/><text fill="#000000" font-family="sans-serif" font-size="14" lengthAdjust="spacing" textLength="277" x="22" y="163.5152">Component feature.first.sea.battle.game</text><text fill="#000000" font-family="sans-serif" font-size="14" lengthAdjust="spacing" textLength="97" x="22" y="180.0034">DependsOn: 1</text></g><!--entity match--><g id="elem_match"><rect fill="#FFFFFF" height="62.9766" rx="2.5" ry="2.5" style="stroke:#808080;stroke-width:0.5;" width="325" x="471" y="7"/><rect fill="#FFFFFF" height="10" style="stroke:#808080;stroke-width:0.5;" width="15" x="776" y="12"/><rect fill="#FFFFFF" height="2" style="stroke:#808080;stroke-width:0.5;" width="4" x="774" y="14"/><rect fill="#FFFFFF" height="2" style="stroke:#808080;stroke-width:0.5;" width="4" x="774" y="18"/><text fill="#000000" font-family="sans-serif" font-size="14" lengthAdjust="spacing" textLength="281" x="486" y="40.5352">Component feature.first.sea.battle.match</text><text fill="#000000" font-family="sans-serif" font-size="14" lengthAdjust="spacing" textLength="97" x="486" y="57.0234">DependsOn: 5</text></g><!--entity player--><g id="elem_player"><rect fill="#FFFFFF" height="62.9766" rx="2.5" ry="2.5" style="stroke:#808080;stroke-width:0.5;" width="325" x="363" y="129.98"/><rect fill="#FFFFFF" height="10" style="stroke:#808080;stroke-width:0.5;" width="15" x="668" y="134.98"/><rect fill="#FFFFFF" height="2" style="stroke:#808080;stroke-width:0.5;" width="4" x="666" y="136.98"/><rect fill="#FFFFFF" height="2" style="stroke:#808080;stroke-width:0.5;" width="4" x="666" y="140.98"/><text fill="#000000" font-family="sans-serif" font-size="14" lengthAdjust="spacing" textLength="281" x="378" y="163.5152">Component feature.first.sea.battle.player</text><text fill="#000000" font-family="sans-serif" font-size="14" lengthAdjust="spacing" textLength="97" x="378" y="180.0034">DependsOn: 3</text></g><!--entity common--><g id="elem_common"><rect fill="#FFFFFF" height="62.9766" rx="2.5" ry="2.5" style="stroke:#808080;stroke-width:0.5;" width="343" x="488" y="375.93"/><rect fill="#FFFFFF" height="10" style="stroke:#808080;stroke-width:0.5;" width="15" x="811" y="380.93"/><rect fill="#FFFFFF" height="2" style="stroke:#808080;stroke-width:0.5;" width="4" x="809" y="382.93"/><rect fill="#FFFFFF" height="2" style="stroke:#808080;stroke-width:0.5;" width="4" x="809" y="386.93"/><text fill="#000000" font-family="sans-serif" font-size="14" lengthAdjust="spacing" textLength="299" x="503" y="409.4652">Component feature.first.sea.battle.common</text><text fill="#000000" font-family="sans-serif" font-size="14" lengthAdjust="spacing" textLength="97" x="503" y="425.9534">DependsOn: 1</text></g><!--entity configuration--><g id="elem_configuration"><rect fill="#FFFFFF" height="62.9766" rx="2.5" ry="2.5" style="stroke:#808080;stroke-width:0.5;" width="376" x="830.5" y="7"/><rect fill="#FFFFFF" height="10" style="stroke:#808080;stroke-width:0.5;" width="15" x="1186.5" y="12"/><rect fill="#FFFFFF" height="2" style="stroke:#808080;stroke-width:0.5;" width="4" x="1184.5" y="14"/><rect fill="#FFFFFF" height="2" style="stroke:#808080;stroke-width:0.5;" width="4" x="1184.5" y="18"/><text fill="#000000" font-family="sans-serif" font-size="14" lengthAdjust="spacing" textLength="332" x="845.5" y="40.5352">Component feature.first.sea.battle.configuration</text><text fill="#000000" font-family="sans-serif" font-size="14" lengthAdjust="spacing" textLength="97" x="845.5" y="57.0234">DependsOn: 1</text></g><!--entity notification--><g id="elem_notification"><rect fill="#FFFFFF" height="62.9766" rx="2.5" ry="2.5" style="stroke:#808080;stroke-width:0.5;" width="361" x="479" y="252.96"/><rect fill="#FFFFFF" height="10" style="stroke:#808080;stroke-width:0.5;" width="15" x="820" y="257.96"/><rect fill="#FFFFFF" height="2" style="stroke:#808080;stroke-width:0.5;" width="4" x="818" y="259.96"/><rect fill="#FFFFFF" height="2" style="stroke:#808080;stroke-width:0.5;" width="4" x="818" y="263.96"/><text fill="#000000" font-family="sans-serif" font-size="14" lengthAdjust="spacing" textLength="317" x="494" y="286.4952">Component feature.first.sea.battle.notification</text><text fill="#000000" font-family="sans-serif" font-size="14" lengthAdjust="spacing" textLength="97" x="494" y="302.9834">DependsOn: 2</text></g><!--link notification to common--><g id="link_notification_common"><path d="M659.5,316.29 C659.5,334.49 659.5,351.45 659.5,369.64 " fill="none" id="notification-to-common" style="stroke:#181818;stroke-width:1.0;"/><polygon fill="#181818" points="659.5,375.64,663.5,366.64,659.5,370.64,655.5,366.64,659.5,375.64" style="stroke:#181818;stroke-width:1.0;"/></g><!--link match to common--><g id="link_match_common"><path d="M685.37,70.22 C740.21,106.11 823.41,171.14 857.5,252.96 C868.26,278.79 872.63,292.39 857.5,315.93 C840.08,343.04 817.7664,359.6346 788.4664,373.0346 " fill="none" id="match-to-common" style="stroke:#181818;stroke-width:1.0;"/><polygon fill="#181818" points="783.01,375.53,792.8583,375.4245,787.557,373.4505,789.531,368.1492,783.01,375.53" style="stroke:#181818;stroke-width:1.0;"/></g><!--link match to player--><g id="link_match_player"><path d="M605.97,70.33 C589.72,88.53 573.2159,107.0142 556.9759,125.2042 " fill="none" id="match-to-player" style="stroke:#181818;stroke-width:1.0;"/><polygon fill="#181818" points="552.98,129.68,561.9578,125.6303,556.31,125.9502,555.9901,120.3024,552.98,129.68" style="stroke:#181818;stroke-width:1.0;"/></g><!--link match to game--><g id="link_match_game"><path d="M514.4,70.41 C444.56,88.54 362.4177,109.873 292.5477,128.003 " fill="none" id="match-to-game" style="stroke:#181818;stroke-width:1.0;"/><polygon fill="#181818" points="286.74,129.51,296.4562,131.1213,291.5797,128.2542,294.4468,123.3777,286.74,129.51" style="stroke:#181818;stroke-width:1.0;"/></g><!--link match to notification--><g id="link_match_notification"><path d="M666.52,70.12 C681.51,86.29 697.62,107.43 705.5,129.98 C720.18,171.99 701.5765,216.2651 683.2865,247.4351 " fill="none" id="match-to-notification" style="stroke:#181818;stroke-width:1.0;"/><polygon fill="#181818" points="680.25,252.61,688.2547,246.872,682.7804,248.2976,681.3549,242.8233,680.25,252.61" style="stroke:#181818;stroke-width:1.0;"/></g><!--link player to common--><g id="link_player_common"><path d="M495.73,193.43 C468.57,225.58 436.22,276.59 461.5,315.93 C478.92,343.04 501.2336,359.6346 530.5336,373.0346 " fill="none" id="player-to-common" style="stroke:#181818;stroke-width:1.0;"/><polygon fill="#181818" points="535.99,375.53,529.469,368.1492,531.443,373.4505,526.1417,375.4245,535.99,375.53" style="stroke:#181818;stroke-width:1.0;"/></g><!--link player to notification--><g id="link_player_notification"><path d="M559.66,193.31 C579.82,211.51 600.7963,230.4495 620.9463,248.6395 " fill="none" id="player-to-notification" style="stroke:#181818;stroke-width:1.0;"/><polygon fill="#181818" points="625.4,252.66,621.3998,243.6601,621.6886,249.3096,616.0391,249.5984,625.4,252.66" style="stroke:#181818;stroke-width:1.0;"/></g><rect fill="#FFFFE0" height="79.9531" id="_legend" rx="7.5" ry="7.5" style="stroke:#000000;stroke-width:1.0;" width="112" x="543.25" y="455.9066"/><text fill="#000000" font-family="sans-serif" font-size="14" lengthAdjust="spacing" textLength="4" x="548.25" y="476.4417">&#160;</text><text fill="#000000" font-family="sans-serif" font-size="14" font-weight="bold" lengthAdjust="spacing" textLength="31" x="552.25" y="476.4417">CCD</text><text fill="#000000" font-family="sans-serif" font-size="14" lengthAdjust="spacing" textLength="8" x="583.25" y="476.4417">&#160;&#160;</text><text fill="#000000" font-family="sans-serif" font-size="14" lengthAdjust="spacing" textLength="18" x="602.25" y="476.4417">13</text><text fill="#000000" font-family="sans-serif" font-size="14" lengthAdjust="spacing" textLength="4" x="548.25" y="492.93">&#160;</text><text fill="#000000" font-family="sans-serif" font-size="14" font-weight="bold" lengthAdjust="spacing" textLength="31" x="552.25" y="492.93">ACD</text><text fill="#000000" font-family="sans-serif" font-size="14" lengthAdjust="spacing" textLength="8" x="583.25" y="492.93">&#160;&#160;</text><text fill="#000000" font-family="sans-serif" font-size="14" lengthAdjust="spacing" textLength="40" x="602.25" y="492.93">2.166</text><text fill="#000000" font-family="sans-serif" font-size="14" lengthAdjust="spacing" textLength="4" x="548.25" y="509.4183">&#160;</text><text fill="#000000" font-family="sans-serif" font-size="14" font-weight="bold" lengthAdjust="spacing" textLength="41" x="552.25" y="509.4183">RACD</text><text fill="#000000" font-family="sans-serif" font-size="14" lengthAdjust="spacing" textLength="4" x="593.25" y="509.4183">&#160;</text><text fill="#000000" font-family="sans-serif" font-size="14" lengthAdjust="spacing" textLength="31" x="602.25" y="509.4183">0.37</text><text fill="#000000" font-family="sans-serif" font-size="14" lengthAdjust="spacing" textLength="4" x="548.25" y="525.9066">&#160;</text><text fill="#000000" font-family="sans-serif" font-size="14" font-weight="bold" lengthAdjust="spacing" textLength="42" x="552.25" y="525.9066">NCCD</text><text fill="#000000" font-family="sans-serif" font-size="14" lengthAdjust="spacing" textLength="4" x="594.25" y="525.9066">&#160;</text><text fill="#000000" font-family="sans-serif" font-size="14" lengthAdjust="spacing" textLength="31" x="602.25" y="525.9066">0.93</text><line style="stroke:#000000;stroke-width:1.0;" x1="548.25" x2="650.25" y1="462.9066" y2="462.9066"/><line style="stroke:#000000;stroke-width:1.0;" x1="548.25" x2="650.25" y1="479.3948" y2="479.3948"/><line style="stroke:#000000;stroke-width:1.0;" x1="548.25" x2="650.25" y1="495.8831" y2="495.8831"/><line style="stroke:#000000;stroke-width:1.0;" x1="548.25" x2="650.25" y1="512.3714" y2="512.3714"/><line style="stroke:#000000;stroke-width:1.0;" x1="548.25" x2="650.25" y1="528.8597" y2="528.8597"/><line style="stroke:#000000;stroke-width:1.0;" x1="548.25" x2="548.25" y1="462.9066" y2="528.8597"/><line style="stroke:#000000;stroke-width:1.0;" x1="598.25" x2="598.25" y1="462.9066" y2="528.8597"/><line style="stroke:#000000;stroke-width:1.0;" x1="650.25" x2="650.25" y1="462.9066" y2="528.8597"/><!--SRC=[ZP9DJuD048Rl-oicyLmKY3MQXaJfMHCzgeSj3B3fVf3T9GqH_xiKA2njJJXjUDxPPuO1isUof9eAI9GebKHfFspD4Ih10s8kK_WX02zAfwXZnPM6crnZVMGqsUTQLJ8T-A5W5icl8-6OeqnxmtarPtbXQ-HS7Texv3CU6sP8RQNHovWsrZD8lHsrbgENKu7m9RTOjbRp9f_0_mPguCWN2GIrIJ4tt7U6BbYaA3cjKSyTOUVeaqMIThb2oMklqYSB9J9ZUQMfPV-vd895IgaiorXonHXqHZSdXCpALwleD3tfz-oG2GnRca3tyQR7UOjXsux98MVJz3yRQM2pY-9ukxdTHG0D-26qHu-V9nnu_dez1k-df84xBtmO-MliyCUmnMsBeT4V]--></g></svg>