<?xml version="1.0" encoding="us-ascii" standalone="no"?><svg xmlns="http://www.w3.org/2000/svg" xmlns:xlink="http://www.w3.org/1999/xlink" contentStyleType="text/css" height="555px" preserveAspectRatio="none" style="width:1168px;height:555px;background:#FFFFFF;" version="1.1" viewBox="0 0 1168 555" width="1168px" zoomAndPan="magnify"><defs/><g><!--entity acl--><g id="elem_acl"><rect fill="#FFFFFF" height="62.9766" rx="2.5" ry="2.5" style="stroke:#808080;stroke-width:0.5;" width="387" x="479.5" y="252.96"/><rect fill="#FFFFFF" height="10" style="stroke:#808080;stroke-width:0.5;" width="15" x="846.5" y="257.96"/><rect fill="#FFFFFF" height="2" style="stroke:#808080;stroke-width:0.5;" width="4" x="844.5" y="259.96"/><rect fill="#FFFFFF" height="2" style="stroke:#808080;stroke-width:0.5;" width="4" x="844.5" y="263.96"/><text fill="#000000" font-family="sans-serif" font-size="14" lengthAdjust="spacing" textLength="347" x="494.5" y="286.4952">Component ru.onixred.siberian.sea.battle.layer.acl</text><text fill="#000000" font-family="sans-serif" font-size="14" lengthAdjust="spacing" textLength="97" x="494.5" y="302.9834">DependsOn: 3</text></g><!--entity configuration--><g id="elem_configuration"><rect fill="#FFFFFF" height="62.9766" rx="2.5" ry="2.5" style="stroke:#808080;stroke-width:0.5;" width="461" x="701.5" y="7"/><rect fill="#FFFFFF" height="10" style="stroke:#808080;stroke-width:0.5;" width="15" x="1142.5" y="12"/><rect fill="#FFFFFF" height="2" style="stroke:#808080;stroke-width:0.5;" width="4" x="1140.5" y="14"/><rect fill="#FFFFFF" height="2" style="stroke:#808080;stroke-width:0.5;" width="4" x="1140.5" y="18"/><text fill="#000000" font-family="sans-serif" font-size="14" lengthAdjust="spacing" textLength="421" x="716.5" y="40.5352">Component ru.onixred.siberian.sea.battle.layer.configuration</text><text fill="#000000" font-family="sans-serif" font-size="14" lengthAdjust="spacing" textLength="97" x="716.5" y="57.0234">DependsOn: 1</text></g><!--entity controller--><g id="elem_controller"><rect fill="#FFFFFF" height="62.9766" rx="2.5" ry="2.5" style="stroke:#808080;stroke-width:0.5;" width="435" x="231.5" y="7"/><rect fill="#FFFFFF" height="10" style="stroke:#808080;stroke-width:0.5;" width="15" x="646.5" y="12"/><rect fill="#FFFFFF" height="2" style="stroke:#808080;stroke-width:0.5;" width="4" x="644.5" y="14"/><rect fill="#FFFFFF" height="2" style="stroke:#808080;stroke-width:0.5;" width="4" x="644.5" y="18"/><text fill="#000000" font-family="sans-serif" font-size="14" lengthAdjust="spacing" textLength="395" x="246.5" y="40.5352">Component ru.onixred.siberian.sea.battle.layer.controller</text><text fill="#000000" font-family="sans-serif" font-size="14" lengthAdjust="spacing" textLength="97" x="246.5" y="57.0234">DependsOn: 7</text></g><!--entity dao--><g id="elem_dao"><rect fill="#FFFFFF" height="62.9766" rx="2.5" ry="2.5" style="stroke:#808080;stroke-width:0.5;" width="394" x="34" y="375.93"/><rect fill="#FFFFFF" height="10" style="stroke:#808080;stroke-width:0.5;" width="15" x="408" y="380.93"/><rect fill="#FFFFFF" height="2" style="stroke:#808080;stroke-width:0.5;" width="4" x="406" y="382.93"/><rect fill="#FFFFFF" height="2" style="stroke:#808080;stroke-width:0.5;" width="4" x="406" y="386.93"/><text fill="#000000" font-family="sans-serif" font-size="14" lengthAdjust="spacing" textLength="354" x="49" y="409.4652">Component ru.onixred.siberian.sea.battle.layer.dao</text><text fill="#000000" font-family="sans-serif" font-size="14" lengthAdjust="spacing" textLength="97" x="49" y="425.9534">DependsOn: 1</text></g><!--entity model--><g id="elem_model"><rect fill="#FFFFFF" height="62.9766" rx="2.5" ry="2.5" style="stroke:#808080;stroke-width:0.5;" width="411" x="467.5" y="375.93"/><rect fill="#FFFFFF" height="10" style="stroke:#808080;stroke-width:0.5;" width="15" x="858.5" y="380.93"/><rect fill="#FFFFFF" height="2" style="stroke:#808080;stroke-width:0.5;" width="4" x="856.5" y="382.93"/><rect fill="#FFFFFF" height="2" style="stroke:#808080;stroke-width:0.5;" width="4" x="856.5" y="386.93"/><text fill="#000000" font-family="sans-serif" font-size="14" lengthAdjust="spacing" textLength="371" x="482.5" y="409.4652">Component ru.onixred.siberian.sea.battle.layer.model</text><text fill="#000000" font-family="sans-serif" font-size="14" lengthAdjust="spacing" textLength="97" x="482.5" y="425.9534">DependsOn: 1</text></g><!--entity repository--><g id="elem_repository"><rect fill="#FFFFFF" height="62.9766" rx="2.5" ry="2.5" style="stroke:#808080;stroke-width:0.5;" width="438" x="7" y="252.96"/><rect fill="#FFFFFF" height="10" style="stroke:#808080;stroke-width:0.5;" width="15" x="425" y="257.96"/><rect fill="#FFFFFF" height="2" style="stroke:#808080;stroke-width:0.5;" width="4" x="423" y="259.96"/><rect fill="#FFFFFF" height="2" style="stroke:#808080;stroke-width:0.5;" width="4" x="423" y="263.96"/><text fill="#000000" font-family="sans-serif" font-size="14" lengthAdjust="spacing" textLength="398" x="22" y="286.4952">Component ru.onixred.siberian.sea.battle.layer.repository</text><text fill="#000000" font-family="sans-serif" font-size="14" lengthAdjust="spacing" textLength="97" x="22" y="302.9834">DependsOn: 2</text></g><!--entity service--><g id="elem_service"><rect fill="#FFFFFF" height="62.9766" rx="2.5" ry="2.5" style="stroke:#808080;stroke-width:0.5;" width="415" x="241.5" y="129.98"/><rect fill="#FFFFFF" height="10" style="stroke:#808080;stroke-width:0.5;" width="15" x="636.5" y="134.98"/><rect fill="#FFFFFF" height="2" style="stroke:#808080;stroke-width:0.5;" width="4" x="634.5" y="136.98"/><rect fill="#FFFFFF" height="2" style="stroke:#808080;stroke-width:0.5;" width="4" x="634.5" y="140.98"/><text fill="#000000" font-family="sans-serif" font-size="14" lengthAdjust="spacing" textLength="375" x="256.5" y="163.5152">Component ru.onixred.siberian.sea.battle.layer.service</text><text fill="#000000" font-family="sans-serif" font-size="14" lengthAdjust="spacing" textLength="97" x="256.5" y="180.0034">DependsOn: 6</text></g><!--link controller to service--><g id="link_controller_service"><path d="M449,70.33 C449,88.53 449,105.49 449,123.68 " fill="none" id="controller-to-service" style="stroke:#181818;stroke-width:1.0;"/><polygon fill="#181818" points="449,129.68,453,120.68,449,124.68,445,120.68,449,129.68" style="stroke:#181818;stroke-width:1.0;"/></g><!--link service to acl--><g id="link_service_acl"><path d="M506.1,193.31 C539.81,211.51 577.0408,231.6188 610.7208,249.8088 " fill="none" id="service-to-acl" style="stroke:#181818;stroke-width:1.0;"/><polygon fill="#181818" points="616,252.66,609.9819,244.8637,611.6006,250.284,606.1803,251.9026,616,252.66" style="stroke:#181818;stroke-width:1.0;"/></g><!--link service to repository--><g id="link_service_repository"><path d="M392.15,193.31 C358.6,211.51 321.5539,231.6089 288.0239,249.7989 " fill="none" id="service-to-repository" style="stroke:#181818;stroke-width:1.0;"/><polygon fill="#181818" points="282.75,252.66,292.5683,251.8843,287.1449,250.2758,288.7535,244.8524,282.75,252.66" style="stroke:#181818;stroke-width:1.0;"/></g><!--link repository to dao--><g id="link_repository_dao"><path d="M227.27,316.29 C228.03,334.49 228.7328,351.4551 229.4828,369.6451 " fill="none" id="repository-to-dao" style="stroke:#181818;stroke-width:1.0;"/><polygon fill="#181818" points="229.73,375.64,233.3558,366.4829,229.524,370.6442,225.3626,366.8124,229.73,375.64" style="stroke:#181818;stroke-width:1.0;"/></g><!--link acl to dao--><g id="link_acl_dao"><path d="M560.03,316.36 C493.79,334.5 416.1571,355.7459 349.8871,373.8859 " fill="none" id="acl-to-dao" style="stroke:#181818;stroke-width:1.0;"/><polygon fill="#181818" points="344.1,375.47,353.8367,376.9519,348.9226,374.1499,351.7246,369.2358,344.1,375.47" style="stroke:#181818;stroke-width:1.0;"/></g><!--link acl to model--><g id="link_acl_model"><path d="M673,316.29 C673,334.49 673,351.45 673,369.64 " fill="none" id="acl-to-model" style="stroke:#181818;stroke-width:1.0;"/><polygon fill="#181818" points="673,375.64,677,366.64,673,370.64,669,366.64,673,375.64" style="stroke:#181818;stroke-width:1.0;"/></g><rect fill="#FFFFE0" height="79.9531" id="_legend" rx="7.5" ry="7.5" style="stroke:#000000;stroke-width:1.0;" width="108" x="523.25" y="455.9066"/><text fill="#000000" font-family="sans-serif" font-size="14" lengthAdjust="spacing" textLength="4" x="528.25" y="476.4417">&#160;</text><text fill="#000000" font-family="sans-serif" font-size="14" font-weight="bold" lengthAdjust="spacing" textLength="31" x="532.25" y="476.4417">CCD</text><text fill="#000000" font-family="sans-serif" font-size="14" lengthAdjust="spacing" textLength="8" x="563.25" y="476.4417">&#160;&#160;</text><text fill="#000000" font-family="sans-serif" font-size="14" lengthAdjust="spacing" textLength="18" x="582.25" y="476.4417">21</text><text fill="#000000" font-family="sans-serif" font-size="14" lengthAdjust="spacing" textLength="4" x="528.25" y="492.93">&#160;</text><text fill="#000000" font-family="sans-serif" font-size="14" font-weight="bold" lengthAdjust="spacing" textLength="31" x="532.25" y="492.93">ACD</text><text fill="#000000" font-family="sans-serif" font-size="14" lengthAdjust="spacing" textLength="8" x="563.25" y="492.93">&#160;&#160;</text><text fill="#000000" font-family="sans-serif" font-size="14" lengthAdjust="spacing" textLength="9" x="582.25" y="492.93">3</text><text fill="#000000" font-family="sans-serif" font-size="14" lengthAdjust="spacing" textLength="4" x="528.25" y="509.4183">&#160;</text><text fill="#000000" font-family="sans-serif" font-size="14" font-weight="bold" lengthAdjust="spacing" textLength="41" x="532.25" y="509.4183">RACD</text><text fill="#000000" font-family="sans-serif" font-size="14" lengthAdjust="spacing" textLength="4" x="573.25" y="509.4183">&#160;</text><text fill="#000000" font-family="sans-serif" font-size="14" lengthAdjust="spacing" textLength="31" x="582.25" y="509.4183">0.42</text><text fill="#000000" font-family="sans-serif" font-size="14" lengthAdjust="spacing" textLength="4" x="528.25" y="525.9066">&#160;</text><text fill="#000000" font-family="sans-serif" font-size="14" font-weight="bold" lengthAdjust="spacing" textLength="42" x="532.25" y="525.9066">NCCD</text><text fill="#000000" font-family="sans-serif" font-size="14" lengthAdjust="spacing" textLength="4" x="574.25" y="525.9066">&#160;</text><text fill="#000000" font-family="sans-serif" font-size="14" lengthAdjust="spacing" textLength="40" x="582.25" y="525.9066">1.235</text><line style="stroke:#000000;stroke-width:1.0;" x1="528.25" x2="626.25" y1="462.9066" y2="462.9066"/><line style="stroke:#000000;stroke-width:1.0;" x1="528.25" x2="626.25" y1="479.3948" y2="479.3948"/><line style="stroke:#000000;stroke-width:1.0;" x1="528.25" x2="626.25" y1="495.8831" y2="495.8831"/><line style="stroke:#000000;stroke-width:1.0;" x1="528.25" x2="626.25" y1="512.3714" y2="512.3714"/><line style="stroke:#000000;stroke-width:1.0;" x1="528.25" x2="626.25" y1="528.8597" y2="528.8597"/><line style="stroke:#000000;stroke-width:1.0;" x1="528.25" x2="528.25" y1="462.9066" y2="528.8597"/><line style="stroke:#000000;stroke-width:1.0;" x1="578.25" x2="578.25" y1="462.9066" y2="528.8597"/><line style="stroke:#000000;stroke-width:1.0;" x1="626.25" x2="626.25" y1="462.9066" y2="528.8597"/><!--SRC=[dP9DJyCm38Rl-HMME2-mZWy9JPEWEuC4H-2GjgQBbiQLap8gndydQqktibtAASxpEayYAswjRQbO5P1IKP95wvzzRH2gmaJ27QVm9G3kYJFac0mndEMCzOwfT9qpLJRh-6QbFOhl0ud176tM6lvs6vslV8t6q2QS4IznVo5Nagp-PCoaqmcoLbOwL39HtXkKHjN8KgNcrIwn37xtQ6zXzWRAGQ2ZJIdPTvrNhBmcEt1E6-SW_u_TCnc3F53V_AgxSBGtKtJYhO6EDXMKeJdXQlXe6sD9JdlYUg2C6kK-7Erro1ywnO7qkf5sYH1YFqwOJ1PzqAqDstsGm_t1Y_Pba-n66RgFwdOieltQOWlpP177o_bviW3OGZI5iBJuRezdFNpwfLkua9THpn_YdazbDBiAFFYxMtu0]--></g></svg>