<?xml version="1.0" encoding="us-ascii" standalone="no"?><svg xmlns="http://www.w3.org/2000/svg" xmlns:xlink="http://www.w3.org/1999/xlink" contentStyleType="text/css" height="554px" preserveAspectRatio="none" style="width:993px;height:554px;background:#FFFFFF;" version="1.1" viewBox="0 0 993 554" width="993px" zoomAndPan="magnify"><defs/><g><!--entity acl--><g id="elem_acl"><rect fill="#FFFFFF" height="62.5938" rx="2.5" ry="2.5" style="stroke:#808080;stroke-width:0.5;" width="319" x="411" y="253"/><rect fill="#FFFFFF" height="10" style="stroke:#808080;stroke-width:0.5;" width="15" x="710" y="258"/><rect fill="#FFFFFF" height="2" style="stroke:#808080;stroke-width:0.5;" width="4" x="708" y="260"/><rect fill="#FFFFFF" height="2" style="stroke:#808080;stroke-width:0.5;" width="4" x="708" y="264"/><text fill="#000000" font-family="sans-serif" font-size="14" lengthAdjust="spacing" textLength="279" x="426" y="285.9951">Component ru.cbr.siberian.sea.battle.acl</text><text fill="#000000" font-family="sans-serif" font-size="14" lengthAdjust="spacing" textLength="102" x="426" y="302.292">DependsOn: 3</text></g><!--entity configuration--><g id="elem_configuration"><rect fill="#FFFFFF" height="62.5938" rx="2.5" ry="2.5" style="stroke:#808080;stroke-width:0.5;" width="390" x="597.5" y="7"/><rect fill="#FFFFFF" height="10" style="stroke:#808080;stroke-width:0.5;" width="15" x="967.5" y="12"/><rect fill="#FFFFFF" height="2" style="stroke:#808080;stroke-width:0.5;" width="4" x="965.5" y="14"/><rect fill="#FFFFFF" height="2" style="stroke:#808080;stroke-width:0.5;" width="4" x="965.5" y="18"/><text fill="#000000" font-family="sans-serif" font-size="14" lengthAdjust="spacing" textLength="350" x="612.5" y="39.9951">Component ru.cbr.siberian.sea.battle.configuration</text><text fill="#000000" font-family="sans-serif" font-size="14" lengthAdjust="spacing" textLength="102" x="612.5" y="56.292">DependsOn: 1</text></g><!--entity controller--><g id="elem_controller"><rect fill="#FFFFFF" height="62.5938" rx="2.5" ry="2.5" style="stroke:#808080;stroke-width:0.5;" width="365" x="198" y="7"/><rect fill="#FFFFFF" height="10" style="stroke:#808080;stroke-width:0.5;" width="15" x="543" y="12"/><rect fill="#FFFFFF" height="2" style="stroke:#808080;stroke-width:0.5;" width="4" x="541" y="14"/><rect fill="#FFFFFF" height="2" style="stroke:#808080;stroke-width:0.5;" width="4" x="541" y="18"/><text fill="#000000" font-family="sans-serif" font-size="14" lengthAdjust="spacing" textLength="325" x="213" y="39.9951">Component ru.cbr.siberian.sea.battle.controller</text><text fill="#000000" font-family="sans-serif" font-size="14" lengthAdjust="spacing" textLength="102" x="213" y="56.292">DependsOn: 7</text></g><!--entity dao--><g id="elem_dao"><rect fill="#FFFFFF" height="62.5938" rx="2.5" ry="2.5" style="stroke:#808080;stroke-width:0.5;" width="326" x="33.5" y="376"/><rect fill="#FFFFFF" height="10" style="stroke:#808080;stroke-width:0.5;" width="15" x="339.5" y="381"/><rect fill="#FFFFFF" height="2" style="stroke:#808080;stroke-width:0.5;" width="4" x="337.5" y="383"/><rect fill="#FFFFFF" height="2" style="stroke:#808080;stroke-width:0.5;" width="4" x="337.5" y="387"/><text fill="#000000" font-family="sans-serif" font-size="14" lengthAdjust="spacing" textLength="286" x="48.5" y="408.9951">Component ru.cbr.siberian.sea.battle.dao</text><text fill="#000000" font-family="sans-serif" font-size="14" lengthAdjust="spacing" textLength="102" x="48.5" y="425.292">DependsOn: 1</text></g><!--entity model--><g id="elem_model"><rect fill="#FFFFFF" height="62.5938" rx="2.5" ry="2.5" style="stroke:#808080;stroke-width:0.5;" width="343" x="399" y="376"/><rect fill="#FFFFFF" height="10" style="stroke:#808080;stroke-width:0.5;" width="15" x="722" y="381"/><rect fill="#FFFFFF" height="2" style="stroke:#808080;stroke-width:0.5;" width="4" x="720" y="383"/><rect fill="#FFFFFF" height="2" style="stroke:#808080;stroke-width:0.5;" width="4" x="720" y="387"/><text fill="#000000" font-family="sans-serif" font-size="14" lengthAdjust="spacing" textLength="303" x="414" y="408.9951">Component ru.cbr.siberian.sea.battle.model</text><text fill="#000000" font-family="sans-serif" font-size="14" lengthAdjust="spacing" textLength="102" x="414" y="425.292">DependsOn: 1</text></g><!--entity repository--><g id="elem_repository"><rect fill="#FFFFFF" height="62.5938" rx="2.5" ry="2.5" style="stroke:#808080;stroke-width:0.5;" width="369" x="7" y="253"/><rect fill="#FFFFFF" height="10" style="stroke:#808080;stroke-width:0.5;" width="15" x="356" y="258"/><rect fill="#FFFFFF" height="2" style="stroke:#808080;stroke-width:0.5;" width="4" x="354" y="260"/><rect fill="#FFFFFF" height="2" style="stroke:#808080;stroke-width:0.5;" width="4" x="354" y="264"/><text fill="#000000" font-family="sans-serif" font-size="14" lengthAdjust="spacing" textLength="329" x="22" y="285.9951">Component ru.cbr.siberian.sea.battle.repository</text><text fill="#000000" font-family="sans-serif" font-size="14" lengthAdjust="spacing" textLength="102" x="22" y="302.292">DependsOn: 2</text></g><!--entity service--><g id="elem_service"><rect fill="#FFFFFF" height="62.5938" rx="2.5" ry="2.5" style="stroke:#808080;stroke-width:0.5;" width="349" x="206" y="130"/><rect fill="#FFFFFF" height="10" style="stroke:#808080;stroke-width:0.5;" width="15" x="535" y="135"/><rect fill="#FFFFFF" height="2" style="stroke:#808080;stroke-width:0.5;" width="4" x="533" y="137"/><rect fill="#FFFFFF" height="2" style="stroke:#808080;stroke-width:0.5;" width="4" x="533" y="141"/><text fill="#000000" font-family="sans-serif" font-size="14" lengthAdjust="spacing" textLength="309" x="221" y="162.9951">Component ru.cbr.siberian.sea.battle.service</text><text fill="#000000" font-family="sans-serif" font-size="14" lengthAdjust="spacing" textLength="102" x="221" y="179.292">DependsOn: 6</text></g><!--link controller to service--><g id="link_controller_service"><path d="M380.5,70.03 C380.5,88.38 380.5,105.64 380.5,123.98 " fill="none" id="controller-to-service" style="stroke:#181818;stroke-width:1.0;"/><polygon fill="#181818" points="380.5,129.98,384.5,120.98,380.5,124.98,376.5,120.98,380.5,129.98" style="stroke:#181818;stroke-width:1.0;"/></g><!--link service to acl--><g id="link_service_acl"><path d="M428.45,193.03 C457.25,211.38 488.709,231.4172 517.509,249.7572 " fill="none" id="service-to-acl" style="stroke:#181818;stroke-width:1.0;"/><polygon fill="#181818" points="522.57,252.98,517.1271,244.7718,518.3525,250.2943,512.83,251.5197,522.57,252.98" style="stroke:#181818;stroke-width:1.0;"/></g><!--link service to repository--><g id="link_service_repository"><path d="M332.81,193.03 C304.16,211.38 272.8833,231.4052 244.2333,249.7452 " fill="none" id="service-to-repository" style="stroke:#181818;stroke-width:1.0;"/><polygon fill="#181818" points="239.18,252.98,248.9165,251.4966,243.3911,250.2843,244.6034,244.7589,239.18,252.98" style="stroke:#181818;stroke-width:1.0;"/></g><!--link repository to dao--><g id="link_repository_dao"><path d="M192.76,316.03 C193.52,334.38 194.2316,351.6451 194.9916,369.9851 " fill="none" id="repository-to-dao" style="stroke:#181818;stroke-width:1.0;"/><polygon fill="#181818" points="195.24,375.98,198.8639,366.8221,195.033,370.9843,190.8708,367.1533,195.24,375.98" style="stroke:#181818;stroke-width:1.0;"/></g><!--link acl to dao--><g id="link_acl_dao"><path d="M476.12,316.03 C419.43,334.38 353.2487,355.7932 296.5587,374.1332 " fill="none" id="acl-to-dao" style="stroke:#181818;stroke-width:1.0;"/><polygon fill="#181818" points="290.85,375.98,300.6443,377.0155,295.6072,374.441,298.1818,369.4039,290.85,375.98" style="stroke:#181818;stroke-width:1.0;"/></g><!--link acl to model--><g id="link_acl_model"><path d="M570.5,316.03 C570.5,334.38 570.5,351.64 570.5,369.98 " fill="none" id="acl-to-model" style="stroke:#181818;stroke-width:1.0;"/><polygon fill="#181818" points="570.5,375.98,574.5,366.98,570.5,370.98,566.5,366.98,570.5,375.98" style="stroke:#181818;stroke-width:1.0;"/></g><rect fill="#FFFFE0" height="79.1875" id="_legend" rx="7.5" ry="7.5" style="stroke:#000000;stroke-width:1.0;" width="110" x="434.75" y="455.5938"/><text fill="#000000" font-family="sans-serif" font-size="14" lengthAdjust="spacing" textLength="4" x="439.75" y="475.5889">&#160;</text><text fill="#000000" font-family="sans-serif" font-size="14" font-weight="bold" lengthAdjust="spacing" textLength="33" x="443.75" y="475.5889">CCD</text><text fill="#000000" font-family="sans-serif" font-size="14" lengthAdjust="spacing" textLength="8" x="476.75" y="475.5889">&#160;&#160;</text><text fill="#000000" font-family="sans-serif" font-size="14" lengthAdjust="spacing" textLength="18" x="495.75" y="475.5889">21</text><text fill="#000000" font-family="sans-serif" font-size="14" lengthAdjust="spacing" textLength="4" x="439.75" y="491.8857">&#160;</text><text fill="#000000" font-family="sans-serif" font-size="14" font-weight="bold" lengthAdjust="spacing" textLength="33" x="443.75" y="491.8857">ACD</text><text fill="#000000" font-family="sans-serif" font-size="14" lengthAdjust="spacing" textLength="8" x="476.75" y="491.8857">&#160;&#160;</text><text fill="#000000" font-family="sans-serif" font-size="14" lengthAdjust="spacing" textLength="9" x="495.75" y="491.8857">3</text><text fill="#000000" font-family="sans-serif" font-size="14" lengthAdjust="spacing" textLength="4" x="439.75" y="508.1826">&#160;</text><text fill="#000000" font-family="sans-serif" font-size="14" font-weight="bold" lengthAdjust="spacing" textLength="43" x="443.75" y="508.1826">RACD</text><text fill="#000000" font-family="sans-serif" font-size="14" lengthAdjust="spacing" textLength="4" x="486.75" y="508.1826">&#160;</text><text fill="#000000" font-family="sans-serif" font-size="14" lengthAdjust="spacing" textLength="31" x="495.75" y="508.1826">0.42</text><text fill="#000000" font-family="sans-serif" font-size="14" lengthAdjust="spacing" textLength="4" x="439.75" y="524.4795">&#160;</text><text fill="#000000" font-family="sans-serif" font-size="14" font-weight="bold" lengthAdjust="spacing" textLength="44" x="443.75" y="524.4795">NCCD</text><text fill="#000000" font-family="sans-serif" font-size="14" lengthAdjust="spacing" textLength="4" x="487.75" y="524.4795">&#160;</text><text fill="#000000" font-family="sans-serif" font-size="14" lengthAdjust="spacing" textLength="40" x="495.75" y="524.4795">1.235</text><line style="stroke:#000000;stroke-width:1.0;" x1="439.75" x2="539.75" y1="462.5938" y2="462.5938"/><line style="stroke:#000000;stroke-width:1.0;" x1="439.75" x2="539.75" y1="478.8906" y2="478.8906"/><line style="stroke:#000000;stroke-width:1.0;" x1="439.75" x2="539.75" y1="495.1875" y2="495.1875"/><line style="stroke:#000000;stroke-width:1.0;" x1="439.75" x2="539.75" y1="511.4844" y2="511.4844"/><line style="stroke:#000000;stroke-width:1.0;" x1="439.75" x2="539.75" y1="527.7813" y2="527.7813"/><line style="stroke:#000000;stroke-width:1.0;" x1="439.75" x2="439.75" y1="462.5938" y2="527.7813"/><line style="stroke:#000000;stroke-width:1.0;" x1="491.75" x2="491.75" y1="462.5938" y2="527.7813"/><line style="stroke:#000000;stroke-width:1.0;" x1="539.75" x2="539.75" y1="462.5938" y2="527.7813"/><!--SRC=[ZP8zJyCm48Pt_ugJc6jeoeU4gagGpY3120nESgHM7LzqTgWYod_7JKBIq0wPR3-lxx5rjjjgMofM1QHKb6JH-bTV6uIgC95mfoby2u17uWmv9aCC5pbZVM0gtUPCbSqwljjeZ-BdI68mHvkrXl-xZSutlaPZQ1Tgn5lS7yYLJ1EMJYV8MbdfKCb4UMzGgjIyspMMmUgUxJqiFa0v27HYVKhsK-SLAw_9ZappnZJAfpizap788-7Tdx0B9zeoHMVk5UZ4-e8oD6SC3P_eO2p9QKzSZqHH8nh2YJQ7_ALJ7Abk6rMN2266Di5ijkg3RcpOuP6FrqVt6APDScXMs7qoRriWsayfzh1CLd6yNbucAu0zH7C8GuiV1hpeuSiVtSELl8vw_XJtV2wZnKtWmT-TyWi0]--></g></svg>