<?xml version="1.0" encoding="us-ascii" standalone="no"?><svg xmlns="http://www.w3.org/2000/svg" xmlns:xlink="http://www.w3.org/1999/xlink" contentStyleType="text/css" height="512px" preserveAspectRatio="none" style="width:664px;height:512px;background:#FFFFFF;" version="1.1" viewBox="0 0 664 512" width="664px" zoomAndPan="magnify"><defs/><g><!--cluster ru.cbr.siberian.sea.battle.configuration--><g id="cluster_ru.cbr.siberian.sea.battle.configuration"><path d="M8.5,6 L318.5,6 A3.75,3.75 0 0 1 321,8.5 L328,28.2969 L328.5,28.2969 A2.5,2.5 0 0 1 331,30.7969 L331,86.5 A2.5,2.5 0 0 1 328.5,89 L8.5,89 A2.5,2.5 0 0 1 6,86.5 L6,8.5 A2.5,2.5 0 0 1 8.5,6 " fill="none" style="stroke:#000000;stroke-width:1.5;"/><line style="stroke:#000000;stroke-width:1.5;" x1="6" x2="328" y1="28.2969" y2="28.2969"/><text fill="#000000" font-family="sans-serif" font-size="14" font-weight="bold" lengthAdjust="spacing" textLength="309" x="10" y="20.9951">ru.cbr.siberian.sea.battle.configuration</text></g><!--cluster ru.cbr.siberian.sea.battle.acl--><g id="cluster_ru.cbr.siberian.sea.battle.acl"><path d="M318.5,422 L545.5,422 A3.75,3.75 0 0 1 548,424.5 L555,444.2969 L555.5,444.2969 A2.5,2.5 0 0 1 558,446.7969 L558,502.5 A2.5,2.5 0 0 1 555.5,505 L318.5,505 A2.5,2.5 0 0 1 316,502.5 L316,424.5 A2.5,2.5 0 0 1 318.5,422 " fill="none" style="stroke:#000000;stroke-width:1.5;"/><line style="stroke:#000000;stroke-width:1.5;" x1="316" x2="555" y1="444.2969" y2="444.2969"/><text fill="#000000" font-family="sans-serif" font-size="14" font-weight="bold" lengthAdjust="spacing" textLength="226" x="320" y="436.9951">ru.cbr.siberian.sea.battle.acl</text></g><!--cluster ru.cbr.siberian.sea.battle.controller--><g id="cluster_ru.cbr.siberian.sea.battle.controller"><path d="M204.5,156 L486.5,156 A3.75,3.75 0 0 1 489,158.5 L496,178.2969 L496.5,178.2969 A2.5,2.5 0 0 1 499,180.7969 L499,236.5 A2.5,2.5 0 0 1 496.5,239 L204.5,239 A2.5,2.5 0 0 1 202,236.5 L202,158.5 A2.5,2.5 0 0 1 204.5,156 " fill="none" style="stroke:#000000;stroke-width:1.5;"/><line style="stroke:#000000;stroke-width:1.5;" x1="202" x2="496" y1="178.2969" y2="178.2969"/><text fill="#000000" font-family="sans-serif" font-size="14" font-weight="bold" lengthAdjust="spacing" textLength="281" x="206" y="170.9951">ru.cbr.siberian.sea.battle.controller</text></g><!--cluster ru.cbr.siberian.sea.battle.repository--><g id="cluster_ru.cbr.siberian.sea.battle.repository"><path d="M357.5,6 L644.5,6 A3.75,3.75 0 0 1 647,8.5 L654,28.2969 L654.5,28.2969 A2.5,2.5 0 0 1 657,30.7969 L657,86.5 A2.5,2.5 0 0 1 654.5,89 L357.5,89 A2.5,2.5 0 0 1 355,86.5 L355,8.5 A2.5,2.5 0 0 1 357.5,6 " fill="none" style="stroke:#000000;stroke-width:1.5;"/><line style="stroke:#000000;stroke-width:1.5;" x1="355" x2="654" y1="28.2969" y2="28.2969"/><text fill="#000000" font-family="sans-serif" font-size="14" font-weight="bold" lengthAdjust="spacing" textLength="286" x="359" y="20.9951">ru.cbr.siberian.sea.battle.repository</text></g><!--cluster ru.cbr.siberian.sea.battle.service--><g id="cluster_ru.cbr.siberian.sea.battle.service"><path d="M178.5,306 L441.5,306 A3.75,3.75 0 0 1 444,308.5 L451,328.2969 L512.5,328.2969 A2.5,2.5 0 0 1 515,330.7969 L515,386.5 A2.5,2.5 0 0 1 512.5,389 L178.5,389 A2.5,2.5 0 0 1 176,386.5 L176,308.5 A2.5,2.5 0 0 1 178.5,306 " fill="none" style="stroke:#000000;stroke-width:1.5;"/><line style="stroke:#000000;stroke-width:1.5;" x1="176" x2="451" y1="328.2969" y2="328.2969"/><text fill="#000000" font-family="sans-serif" font-size="14" font-weight="bold" lengthAdjust="spacing" textLength="262" x="180" y="320.9951">ru.cbr.siberian.sea.battle.service</text></g><!--class WebSocketConfiguration--><g id="elem_WebSocketConfiguration"><rect codeLine="298" fill="#FFFFFF" height="32" id="WebSocketConfiguration" rx="2.5" ry="2.5" style="stroke:#808080;stroke-width:0.5;" width="203" x="66.5" y="41"/><ellipse cx="81.5" cy="57" fill="#ADD1B2" rx="11" ry="11" style="stroke:#181818;stroke-width:1.0;"/><path d="M84.4688,62.6406 Q83.8906,62.9375 83.25,63.0781 Q82.6094,63.2344 81.9063,63.2344 Q79.4063,63.2344 78.0781,61.5938 Q76.7656,59.9375 76.7656,56.8125 Q76.7656,53.6875 78.0781,52.0313 Q79.4063,50.375 81.9063,50.375 Q82.6094,50.375 83.25,50.5313 Q83.9063,50.6875 84.4688,50.9844 L84.4688,53.7031 Q83.8438,53.125 83.25,52.8594 Q82.6563,52.5781 82.0313,52.5781 Q80.6875,52.5781 80,53.6563 Q79.3125,54.7188 79.3125,56.8125 Q79.3125,58.9063 80,59.9844 Q80.6875,61.0469 82.0313,61.0469 Q82.6563,61.0469 83.25,60.7813 Q83.8438,60.5 84.4688,59.9219 L84.4688,62.6406 Z " fill="#000000"/><text fill="#000000" font-family="sans-serif" font-size="14" lengthAdjust="spacing" textLength="171" x="95.5" y="61.8467">WebSocketConfiguration</text></g><!--class MatchMapper--><g id="elem_MatchMapper"><rect codeLine="302" fill="#FFFFFF" height="32" id="MatchMapper" rx="2.5" ry="2.5" style="stroke:#808080;stroke-width:0.5;" width="126" x="374" y="457"/><ellipse cx="389" cy="473" fill="#ADD1B2" rx="11" ry="11" style="stroke:#181818;stroke-width:1.0;"/><path d="M391.9688,478.6406 Q391.3906,478.9375 390.75,479.0781 Q390.1094,479.2344 389.4063,479.2344 Q386.9063,479.2344 385.5781,477.5938 Q384.2656,475.9375 384.2656,472.8125 Q384.2656,469.6875 385.5781,468.0313 Q386.9063,466.375 389.4063,466.375 Q390.1094,466.375 390.75,466.5313 Q391.4063,466.6875 391.9688,466.9844 L391.9688,469.7031 Q391.3438,469.125 390.75,468.8594 Q390.1563,468.5781 389.5313,468.5781 Q388.1875,468.5781 387.5,469.6563 Q386.8125,470.7188 386.8125,472.8125 Q386.8125,474.9063 387.5,475.9844 Q388.1875,477.0469 389.5313,477.0469 Q390.1563,477.0469 390.75,476.7813 Q391.3438,476.5 391.9688,475.9219 L391.9688,478.6406 Z " fill="#000000"/><text fill="#000000" font-family="sans-serif" font-size="14" lengthAdjust="spacing" textLength="94" x="403" y="477.8467">MatchMapper</text></g><!--class GameController--><g id="elem_GameController"><rect codeLine="307" fill="#FFFFFF" height="32" id="GameController" rx="2.5" ry="2.5" style="stroke:#808080;stroke-width:0.5;" width="140" x="254" y="191"/><ellipse cx="269" cy="207" fill="#ADD1B2" rx="11" ry="11" style="stroke:#181818;stroke-width:1.0;"/><path d="M271.9688,212.6406 Q271.3906,212.9375 270.75,213.0781 Q270.1094,213.2344 269.4063,213.2344 Q266.9063,213.2344 265.5781,211.5938 Q264.2656,209.9375 264.2656,206.8125 Q264.2656,203.6875 265.5781,202.0313 Q266.9063,200.375 269.4063,200.375 Q270.1094,200.375 270.75,200.5313 Q271.4063,200.6875 271.9688,200.9844 L271.9688,203.7031 Q271.3438,203.125 270.75,202.8594 Q270.1563,202.5781 269.5313,202.5781 Q268.1875,202.5781 267.5,203.6563 Q266.8125,204.7188 266.8125,206.8125 Q266.8125,208.9063 267.5,209.9844 Q268.1875,211.0469 269.5313,211.0469 Q270.1563,211.0469 270.75,210.7813 Q271.3438,210.5 271.9688,209.9219 L271.9688,212.6406 Z " fill="#000000"/><text fill="#000000" font-family="sans-serif" font-size="14" lengthAdjust="spacing" textLength="108" x="283" y="211.8467">GameController</text></g><!--class MatchRepository--><g id="elem_MatchRepository"><rect codeLine="311" fill="#FFFFFF" height="32" id="MatchRepository" rx="2.5" ry="2.5" style="stroke:#808080;stroke-width:0.5;" width="148" x="432" y="41"/><ellipse cx="447" cy="57" fill="#B4A7E5" rx="11" ry="11" style="stroke:#181818;stroke-width:1.0;"/><path d="M442.9219,52.7656 L442.9219,50.6094 L450.3125,50.6094 L450.3125,52.7656 L447.8438,52.7656 L447.8438,60.8438 L450.3125,60.8438 L450.3125,63 L442.9219,63 L442.9219,60.8438 L445.3906,60.8438 L445.3906,52.7656 L442.9219,52.7656 Z " fill="#000000"/><text fill="#000000" font-family="sans-serif" font-size="14" font-style="italic" lengthAdjust="spacing" textLength="116" x="461" y="61.8467">MatchRepository</text></g><!--class MatchService--><g id="elem_MatchService"><rect codeLine="315" fill="#FFFFFF" height="32" id="MatchService" rx="2.5" ry="2.5" style="stroke:#808080;stroke-width:0.5;" width="124" x="375" y="341"/><ellipse cx="390" cy="357" fill="#ADD1B2" rx="11" ry="11" style="stroke:#181818;stroke-width:1.0;"/><path d="M392.9688,362.6406 Q392.3906,362.9375 391.75,363.0781 Q391.1094,363.2344 390.4063,363.2344 Q387.9063,363.2344 386.5781,361.5938 Q385.2656,359.9375 385.2656,356.8125 Q385.2656,353.6875 386.5781,352.0313 Q387.9063,350.375 390.4063,350.375 Q391.1094,350.375 391.75,350.5313 Q392.4063,350.6875 392.9688,350.9844 L392.9688,353.7031 Q392.3438,353.125 391.75,352.8594 Q391.1563,352.5781 390.5313,352.5781 Q389.1875,352.5781 388.5,353.6563 Q387.8125,354.7188 387.8125,356.8125 Q387.8125,358.9063 388.5,359.9844 Q389.1875,361.0469 390.5313,361.0469 Q391.1563,361.0469 391.75,360.7813 Q392.3438,360.5 392.9688,359.9219 L392.9688,362.6406 Z " fill="#000000"/><text fill="#000000" font-family="sans-serif" font-size="14" lengthAdjust="spacing" textLength="92" x="404" y="361.8467">MatchService</text></g><!--class SeaBattleService--><g id="elem_SeaBattleService"><rect codeLine="316" fill="#FFFFFF" height="32" id="SeaBattleService" rx="2.5" ry="2.5" style="stroke:#808080;stroke-width:0.5;" width="148" x="192" y="341"/><ellipse cx="207" cy="357" fill="#ADD1B2" rx="11" ry="11" style="stroke:#181818;stroke-width:1.0;"/><path d="M209.9688,362.6406 Q209.3906,362.9375 208.75,363.0781 Q208.1094,363.2344 207.4063,363.2344 Q204.9063,363.2344 203.5781,361.5938 Q202.2656,359.9375 202.2656,356.8125 Q202.2656,353.6875 203.5781,352.0313 Q204.9063,350.375 207.4063,350.375 Q208.1094,350.375 208.75,350.5313 Q209.4063,350.6875 209.9688,350.9844 L209.9688,353.7031 Q209.3438,353.125 208.75,352.8594 Q208.1563,352.5781 207.5313,352.5781 Q206.1875,352.5781 205.5,353.6563 Q204.8125,354.7188 204.8125,356.8125 Q204.8125,358.9063 205.5,359.9844 Q206.1875,361.0469 207.5313,361.0469 Q208.1563,361.0469 208.75,360.7813 Q209.3438,360.5 209.9688,359.9219 L209.9688,362.6406 Z " fill="#000000"/><text fill="#000000" font-family="sans-serif" font-size="14" lengthAdjust="spacing" textLength="116" x="221" y="361.8467">SeaBattleService</text></g><!--link GameController to SeaBattleService--><g id="link_GameController_SeaBattleService"><path codeLine="319" d="M309.43,223.38 C301.97,232.05 293.36,243.44 288,255 C274.72,283.66 269.9139,314.6815 267.8239,335.0015 " fill="none" id="GameController-to-SeaBattleService" style="stroke:#008000;stroke-width:1.0;"/><polygon fill="#008000" points="267.21,340.97,272.1098,332.4265,267.7216,335.9962,264.1518,331.608,267.21,340.97" style="stroke:#008000;stroke-width:1.0;"/></g><!--link MatchService to MatchMapper--><g id="link_MatchService_MatchMapper"><path codeLine="321" d="M437,373.37 C437,395.25 437,429.12 437,450.87 " fill="none" id="MatchService-to-MatchMapper" style="stroke:#008000;stroke-width:1.0;"/><polygon fill="#008000" points="437,456.87,441,447.87,437,451.87,433,447.87,437,456.87" style="stroke:#008000;stroke-width:1.0;"/></g><!--link MatchService to MatchRepository--><g id="link_MatchService_MatchRepository"><path codeLine="322" d="M499.25,344.35 C530.02,335.11 564.45,318.75 583,290 C627.59,220.92 623.24,176.7 583,105 C575.03,90.8 566.1442,83.1656 552.0842,75.7956 " fill="none" id="MatchService-to-MatchRepository" style="stroke:#008000;stroke-width:1.0;"/><polygon fill="#008000" points="546.77,73.01,552.8842,80.7312,551.1985,75.3313,556.5983,73.6456,546.77,73.01" style="stroke:#008000;stroke-width:1.0;"/></g><!--reverse link MatchRepository to GameController--><g id="link_MatchRepository_GameController"><path codeLine="325" d="M426.0462,71.055 C385.9862,79.055 347.98,89.77 335,105 C314.41,129.17 317.34,169.28 320.89,190.97 " fill="none" id="MatchRepository-backto-GameController" style="stroke:#DC143C;stroke-width:1.0;"/><polygon fill="#DC143C" points="431.93,69.88,422.3209,67.72,427.0268,70.8592,423.8876,75.5651,431.93,69.88" style="stroke:#DC143C;stroke-width:1.0;"/><path d="M340,110 L340,135 L574,135 L574,120 L564,110 L340,110 " fill="#DC143C" style="stroke:#181818;stroke-width:0.5;"/><path d="M564,110 L564,120 L574,120 L564,110 " fill="#DC143C" style="stroke:#181818;stroke-width:0.5;"/><text fill="#000000" font-family="sans-serif" font-size="13" lengthAdjust="spacing" textLength="213" x="346" y="127.0669">&#1044;&#1086;&#1089;&#1090;&#1091;&#1087; &#1074; &#1086;&#1073;&#1093;&#1086;&#1076; &#1089;&#1083;&#1086;&#1103; &#1079;&#1072;&#1087;&#1088;&#1077;&#1097;&#1077;&#1085;</text></g><!--reverse link GameController to MatchService--><g id="link_GameController_MatchService"><path codeLine="328" d="M316.1788,228.8575 C310.2288,246.8775 305.79,271.15 321,290 C331.57,303.09 342.66,291.09 358,298 C381.89,308.76 405.63,327.56 420.75,340.84 " fill="none" id="GameController-backto-MatchService" style="stroke:#DC143C;stroke-width:1.0;"/><polygon fill="#DC143C" points="318.06,223.16,311.4398,230.452,316.4923,227.9079,319.0365,232.9603,318.06,223.16" style="stroke:#DC143C;stroke-width:1.0;"/><path d="M326,260 L326,285 L574,285 L574,270 L564,260 L326,260 " fill="#DC143C" style="stroke:#181818;stroke-width:0.5;"/><path d="M564,260 L564,270 L574,270 L564,260 " fill="#DC143C" style="stroke:#181818;stroke-width:0.5;"/><text fill="#000000" font-family="sans-serif" font-size="13" lengthAdjust="spacing" textLength="227" x="332" y="277.0669">&#1044;&#1086;&#1089;&#1090;&#1091;&#1087; &#1074; &#1074;&#1077;&#1088;&#1093;&#1085;&#1080;&#1081; &#1089;&#1083;&#1086;&#1081; &#1079;&#1072;&#1087;&#1088;&#1077;&#1097;&#1077;&#1085;</text></g><!--SRC=[dLAxJiCm5Dtp5LTYRWP61ePsOEf21sR7lKsjEdPaErGHGcf134miV0XKL81Gsrzm_eZRLqZQ8bLT8kkUu_FmJLzq4J19NGu99X4Q6rXqO35bXZbjG6c5WHq8jHmam7MIqaIvZiibGfR8y-0G37S1G5ERBfgMbgHp5XlCbpF61x7HcUfkviE-S1ZSrrGai_O4XPGG5YEOBEIH2QsWFeAfq28B8-QSn91hrHDnHjs4LYiBsDZTODJHV82kLQKSASkuh8crcUFzDajJDC7noPpHKgAfALsn15ibTAIMmLHRGUlBDrf2EJGznd6TxBh4ZnIqQ6u5tTxhs5a3bN47MNDrQGkHGxq4DBfwg1gNUzJLYb45GLMwP5VUT4lyd_VNi1JTIv6bXzZSYCJIufLsz2GYxZkWFqKADIYn2_2lVbwCYuVYqI_0Jy3F_NlnHDyFACR-Xy0Ny9_-pI-AaPyMptxgPxkro9xyTqATQ3yXan45cFal_xs9G8Vz2By0]--></g></svg>