<?xml version="1.0" encoding="us-ascii" standalone="no"?><svg xmlns="http://www.w3.org/2000/svg" xmlns:xlink="http://www.w3.org/1999/xlink" contentStyleType="text/css" height="512px" preserveAspectRatio="none" style="width:732px;height:512px;background:#FFFFFF;" version="1.1" viewBox="0 0 732 512" width="732px" zoomAndPan="magnify"><defs/><g><!--cluster ru.onixred.siberian.sea.battle.layer.configuration--><g id="cluster_ru.onixred.siberian.sea.battle.layer.configuration"><path d="M8.5,6 L352.5,6 A3.75,3.75 0 0 1 355,8.5 L362,28.4883 L362.5,28.4883 A2.5,2.5 0 0 1 365,30.9883 L365,86.5 A2.5,2.5 0 0 1 362.5,89 L8.5,89 A2.5,2.5 0 0 1 6,86.5 L6,8.5 A2.5,2.5 0 0 1 8.5,6 " fill="none" style="stroke:#000000;stroke-width:1.5;"/><line style="stroke:#000000;stroke-width:1.5;" x1="6" x2="362" y1="28.4883" y2="28.4883"/><text fill="#000000" font-family="sans-serif" font-size="14" font-weight="bold" lengthAdjust="spacing" textLength="343" x="10" y="21.5352">ru.onixred.siberian.sea.battle.layer.configuration</text></g><!--cluster ru.onixred.siberian.sea.battle.layer.acl--><g id="cluster_ru.onixred.siberian.sea.battle.layer.acl"><path d="M351.5,422 L618.5,422 A3.75,3.75 0 0 1 621,424.5 L628,444.4883 L628.5,444.4883 A2.5,2.5 0 0 1 631,446.9883 L631,502.5 A2.5,2.5 0 0 1 628.5,505 L351.5,505 A2.5,2.5 0 0 1 349,502.5 L349,424.5 A2.5,2.5 0 0 1 351.5,422 " fill="none" style="stroke:#000000;stroke-width:1.5;"/><line style="stroke:#000000;stroke-width:1.5;" x1="349" x2="628" y1="444.4883" y2="444.4883"/><text fill="#000000" font-family="sans-serif" font-size="14" font-weight="bold" lengthAdjust="spacing" textLength="266" x="353" y="437.5352">ru.onixred.siberian.sea.battle.layer.acl</text></g><!--cluster ru.onixred.siberian.sea.battle.layer.controller--><g id="cluster_ru.onixred.siberian.sea.battle.layer.controller"><path d="M234.5,156 L551.5,156 A3.75,3.75 0 0 1 554,158.5 L561,178.4883 L561.5,178.4883 A2.5,2.5 0 0 1 564,180.9883 L564,236.5 A2.5,2.5 0 0 1 561.5,239 L234.5,239 A2.5,2.5 0 0 1 232,236.5 L232,158.5 A2.5,2.5 0 0 1 234.5,156 " fill="none" style="stroke:#000000;stroke-width:1.5;"/><line style="stroke:#000000;stroke-width:1.5;" x1="232" x2="561" y1="178.4883" y2="178.4883"/><text fill="#000000" font-family="sans-serif" font-size="14" font-weight="bold" lengthAdjust="spacing" textLength="316" x="236" y="171.5352">ru.onixred.siberian.sea.battle.layer.controller</text></g><!--cluster ru.onixred.siberian.sea.battle.layer.repository--><g id="cluster_ru.onixred.siberian.sea.battle.layer.repository"><path d="M391.5,6 L712.5,6 A3.75,3.75 0 0 1 715,8.5 L722,28.4883 L722.5,28.4883 A2.5,2.5 0 0 1 725,30.9883 L725,86.5 A2.5,2.5 0 0 1 722.5,89 L391.5,89 A2.5,2.5 0 0 1 389,86.5 L389,8.5 A2.5,2.5 0 0 1 391.5,6 " fill="none" style="stroke:#000000;stroke-width:1.5;"/><line style="stroke:#000000;stroke-width:1.5;" x1="389" x2="722" y1="28.4883" y2="28.4883"/><text fill="#000000" font-family="sans-serif" font-size="14" font-weight="bold" lengthAdjust="spacing" textLength="320" x="393" y="21.5352">ru.onixred.siberian.sea.battle.layer.repository</text></g><!--cluster ru.onixred.siberian.sea.battle.layer.service--><g id="cluster_ru.onixred.siberian.sea.battle.layer.service"><path d="M238.5,306 L535.5,306 A3.75,3.75 0 0 1 538,308.5 L545,328.4883 L564.5,328.4883 A2.5,2.5 0 0 1 567,330.9883 L567,386.5 A2.5,2.5 0 0 1 564.5,389 L238.5,389 A2.5,2.5 0 0 1 236,386.5 L236,308.5 A2.5,2.5 0 0 1 238.5,306 " fill="none" style="stroke:#000000;stroke-width:1.5;"/><line style="stroke:#000000;stroke-width:1.5;" x1="236" x2="545" y1="328.4883" y2="328.4883"/><text fill="#000000" font-family="sans-serif" font-size="14" font-weight="bold" lengthAdjust="spacing" textLength="296" x="240" y="321.5352">ru.onixred.siberian.sea.battle.layer.service</text></g><!--class WebSocketConfiguration--><g id="elem_WebSocketConfiguration"><rect codeLine="298" fill="#FFFFFF" height="32" id="WebSocketConfiguration" rx="2.5" ry="2.5" style="stroke:#808080;stroke-width:0.5;" width="202" x="84" y="41"/><ellipse cx="99" cy="57" fill="#ADD1B2" rx="11" ry="11" style="stroke:#181818;stroke-width:1.0;"/><path d="M101.4731,63.1431 Q100.8921,63.4419 100.2529,63.5913 Q99.6138,63.7407 98.9082,63.7407 Q96.4014,63.7407 95.0815,62.0889 Q93.7617,60.437 93.7617,57.3159 Q93.7617,54.1865 95.0815,52.5347 Q96.4014,50.8828 98.9082,50.8828 Q99.6138,50.8828 100.2612,51.0322 Q100.9087,51.1816 101.4731,51.4805 L101.4731,54.2031 Q100.8423,53.6221 100.2488,53.3523 Q99.6553,53.0825 99.0244,53.0825 Q97.6797,53.0825 96.9949,54.1492 Q96.3101,55.2158 96.3101,57.3159 Q96.3101,59.4077 96.9949,60.4744 Q97.6797,61.541 99.0244,61.541 Q99.6553,61.541 100.2488,61.2712 Q100.8423,61.0015 101.4731,60.4204 Z " fill="#000000"/><text fill="#000000" font-family="sans-serif" font-size="14" lengthAdjust="spacing" textLength="170" x="113" y="62.291">WebSocketConfiguration</text></g><!--class MatchMapper--><g id="elem_MatchMapper"><rect codeLine="302" fill="#FFFFFF" height="32" id="MatchMapper" rx="2.5" ry="2.5" style="stroke:#808080;stroke-width:0.5;" width="125" x="427.5" y="457"/><ellipse cx="442.5" cy="473" fill="#ADD1B2" rx="11" ry="11" style="stroke:#181818;stroke-width:1.0;"/><path d="M444.9731,479.1431 Q444.3921,479.4419 443.7529,479.5913 Q443.1138,479.7407 442.4082,479.7407 Q439.9014,479.7407 438.5815,478.0889 Q437.2617,476.437 437.2617,473.3159 Q437.2617,470.1865 438.5815,468.5347 Q439.9014,466.8828 442.4082,466.8828 Q443.1138,466.8828 443.7612,467.0322 Q444.4087,467.1816 444.9731,467.4805 L444.9731,470.2031 Q444.3423,469.6221 443.7488,469.3523 Q443.1553,469.0825 442.5244,469.0825 Q441.1797,469.0825 440.4949,470.1492 Q439.8101,471.2158 439.8101,473.3159 Q439.8101,475.4077 440.4949,476.4744 Q441.1797,477.541 442.5244,477.541 Q443.1553,477.541 443.7488,477.2712 Q444.3423,477.0015 444.9731,476.4204 Z " fill="#000000"/><text fill="#000000" font-family="sans-serif" font-size="14" lengthAdjust="spacing" textLength="93" x="456.5" y="478.291">MatchMapper</text></g><!--class GameController--><g id="elem_GameController"><rect codeLine="307" fill="#FFFFFF" height="32" id="GameController" rx="2.5" ry="2.5" style="stroke:#808080;stroke-width:0.5;" width="141" x="310.5" y="191"/><ellipse cx="325.5" cy="207" fill="#ADD1B2" rx="11" ry="11" style="stroke:#181818;stroke-width:1.0;"/><path d="M327.9731,213.1431 Q327.3921,213.4419 326.7529,213.5913 Q326.1138,213.7407 325.4082,213.7407 Q322.9014,213.7407 321.5815,212.0889 Q320.2617,210.437 320.2617,207.3159 Q320.2617,204.1865 321.5815,202.5347 Q322.9014,200.8828 325.4082,200.8828 Q326.1138,200.8828 326.7612,201.0322 Q327.4087,201.1816 327.9731,201.4805 L327.9731,204.2031 Q327.3423,203.6221 326.7488,203.3523 Q326.1553,203.0825 325.5244,203.0825 Q324.1797,203.0825 323.4949,204.1492 Q322.8101,205.2158 322.8101,207.3159 Q322.8101,209.4077 323.4949,210.4744 Q324.1797,211.541 325.5244,211.541 Q326.1553,211.541 326.7488,211.2712 Q327.3423,211.0015 327.9731,210.4204 Z " fill="#000000"/><text fill="#000000" font-family="sans-serif" font-size="14" lengthAdjust="spacing" textLength="109" x="339.5" y="212.291">GameController</text></g><!--class MatchRepository--><g id="elem_MatchRepository"><rect codeLine="311" fill="#FFFFFF" height="32" id="MatchRepository" rx="2.5" ry="2.5" style="stroke:#808080;stroke-width:0.5;" width="146" x="484" y="41"/><ellipse cx="499" cy="57" fill="#B4A7E5" rx="11" ry="11" style="stroke:#181818;stroke-width:1.0;"/><path d="M495.4277,53.2651 L495.4277,51.1069 L502.8071,51.1069 L502.8071,53.2651 L500.3418,53.2651 L500.3418,61.3418 L502.8071,61.3418 L502.8071,63.5 L495.4277,63.5 L495.4277,61.3418 L497.8931,61.3418 L497.8931,53.2651 Z " fill="#000000"/><text fill="#000000" font-family="sans-serif" font-size="14" font-style="italic" lengthAdjust="spacing" textLength="114" x="513" y="62.291">MatchRepository</text></g><!--class MatchService--><g id="elem_MatchService"><rect codeLine="315" fill="#FFFFFF" height="32" id="MatchService" rx="2.5" ry="2.5" style="stroke:#808080;stroke-width:0.5;" width="121" x="429.5" y="341"/><ellipse cx="444.5" cy="357" fill="#ADD1B2" rx="11" ry="11" style="stroke:#181818;stroke-width:1.0;"/><path d="M446.9731,363.1431 Q446.3921,363.4419 445.7529,363.5913 Q445.1138,363.7407 444.4082,363.7407 Q441.9014,363.7407 440.5815,362.0889 Q439.2617,360.437 439.2617,357.3159 Q439.2617,354.1865 440.5815,352.5347 Q441.9014,350.8828 444.4082,350.8828 Q445.1138,350.8828 445.7612,351.0322 Q446.4087,351.1816 446.9731,351.4805 L446.9731,354.2031 Q446.3423,353.6221 445.7488,353.3523 Q445.1553,353.0825 444.5244,353.0825 Q443.1797,353.0825 442.4949,354.1492 Q441.8101,355.2158 441.8101,357.3159 Q441.8101,359.4077 442.4949,360.4744 Q443.1797,361.541 444.5244,361.541 Q445.1553,361.541 445.7488,361.2712 Q446.3423,361.0015 446.9731,360.4204 Z " fill="#000000"/><text fill="#000000" font-family="sans-serif" font-size="14" lengthAdjust="spacing" textLength="89" x="458.5" y="362.291">MatchService</text></g><!--class SeaBattleService--><g id="elem_SeaBattleService"><rect codeLine="316" fill="#FFFFFF" height="32" id="SeaBattleService" rx="2.5" ry="2.5" style="stroke:#808080;stroke-width:0.5;" width="142" x="252" y="341"/><ellipse cx="267" cy="357" fill="#ADD1B2" rx="11" ry="11" style="stroke:#181818;stroke-width:1.0;"/><path d="M269.4731,363.1431 Q268.8921,363.4419 268.2529,363.5913 Q267.6138,363.7407 266.9082,363.7407 Q264.4014,363.7407 263.0815,362.0889 Q261.7617,360.437 261.7617,357.3159 Q261.7617,354.1865 263.0815,352.5347 Q264.4014,350.8828 266.9082,350.8828 Q267.6138,350.8828 268.2612,351.0322 Q268.9087,351.1816 269.4731,351.4805 L269.4731,354.2031 Q268.8423,353.6221 268.2488,353.3523 Q267.6553,353.0825 267.0244,353.0825 Q265.6797,353.0825 264.9949,354.1492 Q264.3101,355.2158 264.3101,357.3159 Q264.3101,359.4077 264.9949,360.4744 Q265.6797,361.541 267.0244,361.541 Q267.6553,361.541 268.2488,361.2712 Q268.8423,361.0015 269.4731,360.4204 Z " fill="#000000"/><text fill="#000000" font-family="sans-serif" font-size="14" lengthAdjust="spacing" textLength="110" x="281" y="362.291">SeaBattleService</text></g><!--link GameController to SeaBattleService--><g id="link_GameController_SeaBattleService"><path codeLine="319" d="M366.43,223.38 C358.97,232.05 350.36,243.44 345,255 C331.79,283.49 326.9776,314.2619 324.8676,334.6519 " fill="none" id="GameController-to-SeaBattleService" style="stroke:#008000;stroke-width:1.0;"/><polygon fill="#008000" points="324.25,340.62,329.1551,332.0795,324.7647,335.6466,321.1976,331.2561,324.25,340.62" style="stroke:#008000;stroke-width:1.0;"/></g><!--link MatchService to MatchMapper--><g id="link_MatchService_MatchMapper"><path codeLine="321" d="M490,373.37 C490,395.13 490,428.68 490,450.5 " fill="none" id="MatchService-to-MatchMapper" style="stroke:#008000;stroke-width:1.0;"/><polygon fill="#008000" points="490,456.5,494,447.5,490,451.5,486,447.5,490,456.5" style="stroke:#008000;stroke-width:1.0;"/></g><!--link MatchService to MatchRepository--><g id="link_MatchService_MatchRepository"><path codeLine="322" d="M550.79,343.09 C579.73,333.56 611.73,317.32 629,290 C672.94,220.5 668.15,177.3 629,105 C621.54,91.22 613.3119,83.7673 600.0419,76.3173 " fill="none" id="MatchService-to-MatchRepository" style="stroke:#008000;stroke-width:1.0;"/><polygon fill="#008000" points="594.81,73.38,600.6996,81.2738,599.1699,75.8277,604.616,74.298,594.81,73.38" style="stroke:#008000;stroke-width:1.0;"/></g><!--reverse link MatchRepository to GameController--><g id="link_MatchRepository_GameController"><path codeLine="325" d="M477.8461,61.9225 C444.9461,67.2125 414.47,78.37 392,105 C371.64,129.13 374.37,168.9 377.86,190.63 " fill="none" id="MatchRepository-backto-GameController" style="stroke:#DC143C;stroke-width:1.0;"/><polygon fill="#DC143C" points="483.77,60.97,474.2491,58.4495,478.8334,61.7638,475.5191,66.348,483.77,60.97" style="stroke:#DC143C;stroke-width:1.0;"/><path d="M397,110 L397,135 L620,135 L620,120 L610,110 L397,110 " fill="#DC143C" style="stroke:#181818;stroke-width:0.5;"/><path d="M610,110 L610,120 L620,120 L610,110 " fill="#DC143C" style="stroke:#181818;stroke-width:0.5;"/><text fill="#000000" font-family="sans-serif" font-size="13" lengthAdjust="spacing" textLength="202" x="403" y="127.5684">&#1044;&#1086;&#1089;&#1090;&#1091;&#1087; &#1074; &#1086;&#1073;&#1093;&#1086;&#1076; &#1089;&#1083;&#1086;&#1103; &#1079;&#1072;&#1087;&#1088;&#1077;&#1097;&#1077;&#1085;</text></g><!--reverse link GameController to MatchService--><g id="link_GameController_MatchService"><path codeLine="328" d="M373.1836,229.1256 C367.3336,247.1056 363.12,271.08 378,290 C387.33,301.86 397.32,291.63 411,298 C434.6,308.98 458.21,327.56 473.39,340.72 " fill="none" id="GameController-backto-MatchService" style="stroke:#DC143C;stroke-width:1.0;"/><polygon fill="#DC143C" points="375.04,223.42,368.4517,230.7408,373.493,228.1747,376.0592,233.216,375.04,223.42" style="stroke:#DC143C;stroke-width:1.0;"/><path d="M383,260 L383,285 L620,285 L620,270 L610,260 L383,260 " fill="#DC143C" style="stroke:#181818;stroke-width:0.5;"/><path d="M610,260 L610,270 L620,270 L610,260 " fill="#DC143C" style="stroke:#181818;stroke-width:0.5;"/><text fill="#000000" font-family="sans-serif" font-size="13" lengthAdjust="spacing" textLength="216" x="389" y="277.5684">&#1044;&#1086;&#1089;&#1090;&#1091;&#1087; &#1074; &#1074;&#1077;&#1088;&#1093;&#1085;&#1080;&#1081; &#1089;&#1083;&#1086;&#1081; &#1079;&#1072;&#1087;&#1088;&#1077;&#1097;&#1077;&#1085;</text></g><!--SRC=[dLAxJiD04Epz5IjHnmKb1KLIKAKX1VN5tZYddE-ilJF1GaW9Y8AAXW-1Y0WGIlY5yn-nUPcyA9B6icR6CxFhxSeO0TFC5P1YsaQoWKK75ZD1mXa2RJG6jYVr34WXCcd6Y7OjLoY4F5MdmJuQRWE0kg4OgM4K-vmaXCKC4r4l8PFhU8dtkz9XSBVXeeIrHpXap8W4WVBGQ7b368TMyanIwD2Y2Dl2EOMX4WLI61dTaKdEKqgZvs6m3Bx2Tij4FNIDTSd10I9I6xPDuQ9kKsGPKd1CMqT6AQGDpmkHOgEY3dObp8oL_9kBfQlK3gaZ8boqlQpuWwqjqhLadvqDj1R46jn2KPz_kg8uQtCmgCMchsldEzBvKQ0EWdNhIhssyPNmVztVh9NfJeiyswUEIAQM3qGRnykHITS1NvIIkbTnP-1V_BGSblVbW_y1Fm8_zM_b8p_VeHpwRoQVmN_uL_zJ3louVF9ZFzaUY-CvVwlKaV4Z3XbmWOd_z5_B2looM-4N]--></g></svg>