<?xml version="1.0" encoding="us-ascii" standalone="no"?><svg xmlns="http://www.w3.org/2000/svg" xmlns:xlink="http://www.w3.org/1999/xlink" contentStyleType="text/css" height="246px" preserveAspectRatio="none" style="width:597px;height:246px;background:#FFFFFF;" version="1.1" viewBox="0 0 597 246" width="597px" zoomAndPan="magnify"><defs/><g><!--cluster ru.cbr.siberian.sea.battle.dao--><g id="cluster_ru.cbr.siberian.sea.battle.dao"><path d="M159.5,6 L362.5,6 A3.75,3.75 0 0 1 365,8.5 L372,28.4883 L372.5,28.4883 A2.5,2.5 0 0 1 375,30.9883 L375,86.5 A2.5,2.5 0 0 1 372.5,89 L159.5,89 A2.5,2.5 0 0 1 157,86.5 L157,8.5 A2.5,2.5 0 0 1 159.5,6 " fill="none" style="stroke:#000000;stroke-width:1.5;"/><line style="stroke:#000000;stroke-width:1.5;" x1="157" x2="372" y1="28.4883" y2="28.4883"/><text fill="#000000" font-family="sans-serif" font-size="14" font-weight="bold" lengthAdjust="spacing" textLength="202" x="161" y="21.5352">ru.cbr.siberian.sea.battle.dao</text></g><!--cluster jakarta.persistence--><g id="cluster_jakarta.persistence"><path d="M8.5,156 L144.5,156 A3.75,3.75 0 0 1 147,158.5 L154,178.4883 L154.5,178.4883 A2.5,2.5 0 0 1 157,180.9883 L157,236.5 A2.5,2.5 0 0 1 154.5,239 L8.5,239 A2.5,2.5 0 0 1 6,236.5 L6,158.5 A2.5,2.5 0 0 1 8.5,156 " fill="none" style="stroke:#000000;stroke-width:1.5;"/><line style="stroke:#000000;stroke-width:1.5;" x1="6" x2="154" y1="178.4883" y2="178.4883"/><text fill="#000000" font-family="sans-serif" font-size="14" font-weight="bold" lengthAdjust="spacing" textLength="135" x="10" y="171.5352">jakarta.persistence</text></g><!--cluster org.hibernate.proxy--><g id="cluster_org.hibernate.proxy"><path d="M183.5,156 L322.5,156 A3.75,3.75 0 0 1 325,158.5 L332,178.4883 L348.5,178.4883 A2.5,2.5 0 0 1 351,180.9883 L351,236.5 A2.5,2.5 0 0 1 348.5,239 L183.5,239 A2.5,2.5 0 0 1 181,236.5 L181,158.5 A2.5,2.5 0 0 1 183.5,156 " fill="none" style="stroke:#000000;stroke-width:1.5;"/><line style="stroke:#000000;stroke-width:1.5;" x1="181" x2="332" y1="178.4883" y2="178.4883"/><text fill="#000000" font-family="sans-serif" font-size="14" font-weight="bold" lengthAdjust="spacing" textLength="138" x="185" y="171.5352">org.hibernate.proxy</text></g><!--cluster org.postgresql--><g id="cluster_org.postgresql"><path d="M377.5,156 L482.5,156 A3.75,3.75 0 0 1 485,158.5 L492,178.4883 L492.5,178.4883 A2.5,2.5 0 0 1 495,180.9883 L495,236.5 A2.5,2.5 0 0 1 492.5,239 L377.5,239 A2.5,2.5 0 0 1 375,236.5 L375,158.5 A2.5,2.5 0 0 1 377.5,156 " fill="none" style="stroke:#000000;stroke-width:1.5;"/><line style="stroke:#000000;stroke-width:1.5;" x1="375" x2="492" y1="178.4883" y2="178.4883"/><text fill="#000000" font-family="sans-serif" font-size="14" font-weight="bold" lengthAdjust="spacing" textLength="104" x="379" y="171.5352">org.postgresql</text></g><!--class MatchDao--><g id="elem_MatchDao"><rect codeLine="413" fill="#FFFFFF" height="32" id="MatchDao" rx="2.5" ry="2.5" style="stroke:#808080;stroke-width:0.5;" width="100" x="216" y="41"/><ellipse cx="231" cy="57" fill="#ADD1B2" rx="11" ry="11" style="stroke:#181818;stroke-width:1.0;"/><path d="M233.4731,63.1431 Q232.8921,63.4419 232.2529,63.5913 Q231.6138,63.7407 230.9082,63.7407 Q228.4014,63.7407 227.0815,62.0889 Q225.7617,60.437 225.7617,57.3159 Q225.7617,54.1865 227.0815,52.5347 Q228.4014,50.8828 230.9082,50.8828 Q231.6138,50.8828 232.2612,51.0322 Q232.9087,51.1816 233.4731,51.4805 L233.4731,54.2031 Q232.8423,53.6221 232.2488,53.3523 Q231.6553,53.0825 231.0244,53.0825 Q229.6797,53.0825 228.9949,54.1492 Q228.3101,55.2158 228.3101,57.3159 Q228.3101,59.4077 228.9949,60.4744 Q229.6797,61.541 231.0244,61.541 Q231.6553,61.541 232.2488,61.2712 Q232.8423,61.0015 233.4731,60.4204 Z " fill="#000000"/><text fill="#000000" font-family="sans-serif" font-size="14" lengthAdjust="spacing" textLength="68" x="245" y="62.291">MatchDao</text></g><!--class Entity--><g id="elem_Entity"><rect codeLine="417" fill="#FFFFFF" height="32" id="Entity" rx="2.5" ry="2.5" style="stroke:#808080;stroke-width:0.5;" width="70" x="71" y="191"/><ellipse cx="86" cy="207" fill="#B4A7E5" rx="11" ry="11" style="stroke:#181818;stroke-width:1.0;"/><path d="M82.4277,203.2651 L82.4277,201.1069 L89.8071,201.1069 L89.8071,203.2651 L87.3418,203.2651 L87.3418,211.3418 L89.8071,211.3418 L89.8071,213.5 L82.4277,213.5 L82.4277,211.3418 L84.8931,211.3418 L84.8931,203.2651 Z " fill="#000000"/><text fill="#000000" font-family="sans-serif" font-size="14" font-style="italic" lengthAdjust="spacing" textLength="38" x="100" y="212.291">Entity</text></g><!--class HibernateProxy--><g id="elem_HibernateProxy"><rect codeLine="422" fill="#FFFFFF" height="32" id="HibernateProxy" rx="2.5" ry="2.5" style="stroke:#808080;stroke-width:0.5;" width="138" x="197" y="191"/><ellipse cx="212" cy="207" fill="#B4A7E5" rx="11" ry="11" style="stroke:#181818;stroke-width:1.0;"/><path d="M208.4277,203.2651 L208.4277,201.1069 L215.8071,201.1069 L215.8071,203.2651 L213.3418,203.2651 L213.3418,211.3418 L215.8071,211.3418 L215.8071,213.5 L208.4277,213.5 L208.4277,211.3418 L210.8931,211.3418 L210.8931,203.2651 Z " fill="#000000"/><text fill="#000000" font-family="sans-serif" font-size="14" font-style="italic" lengthAdjust="spacing" textLength="106" x="226" y="212.291">HibernateProxy</text></g><!--class Driver--><g id="elem_Driver"><rect codeLine="427" fill="#FFFFFF" height="32" id="Driver" rx="2.5" ry="2.5" style="stroke:#808080;stroke-width:0.5;" width="73" x="391.5" y="191"/><ellipse cx="406.5" cy="207" fill="#B4A7E5" rx="11" ry="11" style="stroke:#181818;stroke-width:1.0;"/><path d="M402.9277,203.2651 L402.9277,201.1069 L410.3071,201.1069 L410.3071,203.2651 L407.8418,203.2651 L407.8418,211.3418 L410.3071,211.3418 L410.3071,213.5 L402.9277,213.5 L402.9277,211.3418 L405.3931,211.3418 L405.3931,203.2651 Z " fill="#000000"/><text fill="#000000" font-family="sans-serif" font-size="14" font-style="italic" lengthAdjust="spacing" textLength="41" x="420.5" y="212.291">Driver</text></g><!--link MatchDao to Entity--><g id="link_MatchDao_Entity"><path codeLine="430" d="M249.48,73.28 C218.82,101.64 157.8448,158.0459 127.0748,186.5059 " fill="none" id="MatchDao-to-Entity" style="stroke:#008000;stroke-width:1.0;"/><polygon fill="#008000" points="122.67,190.58,131.9932,187.4054,126.3406,187.1849,126.5611,181.5324,122.67,190.58" style="stroke:#008000;stroke-width:1.0;"/></g><!--link MatchDao to HibernateProxy--><g id="link_MatchDao_HibernateProxy"><path codeLine="431" d="M266,73.28 C266,101.64 266,156.12 266,184.58 " fill="none" id="MatchDao-to-HibernateProxy" style="stroke:#008000;stroke-width:1.0;"/><polygon fill="#008000" points="266,190.58,270,181.58,266,185.58,262,181.58,266,190.58" style="stroke:#008000;stroke-width:1.0;"/></g><!--link MatchDao to Driver--><g id="link_MatchDao_Driver"><path codeLine="432" d="M282.73,73.28 C313.77,101.64 375.5298,158.0736 406.6898,186.5336 " fill="none" id="MatchDao-to-Driver" style="stroke:#DC143C;stroke-width:1.0;"/><polygon fill="#DC143C" points="411.12,190.58,407.1722,181.557,407.4281,187.208,401.7771,187.464,411.12,190.58" style="stroke:#DC143C;stroke-width:1.0;"/><path d="M356.86,110 L356.86,135 L590.86,135 L590.86,120 L580.86,110 L356.86,110 " fill="#DC143C" style="stroke:#181818;stroke-width:0.5;"/><path d="M580.86,110 L580.86,120 L590.86,120 L580.86,110 " fill="#DC143C" style="stroke:#181818;stroke-width:0.5;"/><text fill="#000000" font-family="sans-serif" font-size="13" lengthAdjust="spacing" textLength="213" x="362.86" y="127.5684">&#1050;&#1083;&#1072;&#1089;&#1089; &#1085;&#1077; &#1080;&#1079; &#1089;&#1087;&#1080;&#1089;&#1082;&#1072; &#1088;&#1072;&#1079;&#1088;&#1077;&#1096;&#1077;&#1085;&#1085;&#1099;&#1093;</text></g><!--SRC=[bP3FIiD04CRl-nG3dhi7Znuyr0fU1C4ds2PZiYQPZRDJQn317WJ1D_0fUYajIl4LDc_anhPYg1wyBCjyt- -RFxbD4R2gfO4Agp6oLnu5FDQ6ZJW6SeJA5vQwGWM9g-fO8RcKfaIOLEMX-as6UpLqd2AVk3Ac76ICZHgQfCZOJIZTLgUv5LGFlOJIUFzFMgawQYP3u8bEngozZPjOGzgZqMCZKg9EZOknc_Xp8qa-Cgw3T-YrAGoBqNMyWVM2b63qMnBaAnF_foHM6lKJSPpfl6j5Hb3NxEwQ7dAsqouwQG-jdPUucRyfUzI8xIroPzwD2OFKJMbml9tXwnv8-tA_tv-sJGCuIDXMtf4Y9_5oDii5745fgVZMZY2yXlSmRsVj3C8wB22imXBQMVW8g_Y-XJcqZs4Ubl5TjCzX4KthzgLzKfy0]--></g></svg>