<?xml version="1.0" encoding="us-ascii" standalone="no"?><svg xmlns="http://www.w3.org/2000/svg" xmlns:xlink="http://www.w3.org/1999/xlink" contentStyleType="text/css" height="139px" preserveAspectRatio="none" style="width:372px;height:139px;background:#FFFFFF;" version="1.1" viewBox="0 0 372 139" width="372px" zoomAndPan="magnify"><defs/><g><!--class MatchMapper--><g id="elem_MatchMapper"><rect codeLine="273" fill="#FFFFFF" height="40.2656" id="MatchMapper" rx="2.5" ry="2.5" style="stroke:#808080;stroke-width:0.5;" width="126" x="122.5" y="7"/><ellipse cx="137.5" cy="27.1328" fill="#ADD1B2" rx="11" ry="11" style="stroke:#181818;stroke-width:1.0;"/><path d="M140.4688,32.7734 Q139.8906,33.0703 139.25,33.2109 Q138.6094,33.3672 137.9063,33.3672 Q135.4063,33.3672 134.0781,31.7266 Q132.7656,30.0703 132.7656,26.9453 Q132.7656,23.8203 134.0781,22.1641 Q135.4063,20.5078 137.9063,20.5078 Q138.6094,20.5078 139.25,20.6641 Q139.9063,20.8203 140.4688,21.1172 L140.4688,23.8359 Q139.8438,23.2578 139.25,22.9922 Q138.6563,22.7109 138.0313,22.7109 Q136.6875,22.7109 136,23.7891 Q135.3125,24.8516 135.3125,26.9453 Q135.3125,29.0391 136,30.1172 Q136.6875,31.1797 138.0313,31.1797 Q138.6563,31.1797 139.25,30.9141 Q139.8438,30.6328 140.4688,30.0547 L140.4688,32.7734 Z " fill="#000000"/><text fill="#000000" font-family="sans-serif" font-size="12" font-style="italic" lengthAdjust="spacing" textLength="70" x="163.5" y="23.1387">&#171;concrete&#187;</text><text fill="#000000" font-family="sans-serif" font-size="14" lengthAdjust="spacing" textLength="94" x="151.5" y="38.9639">MatchMapper</text></g><g id="elem_creteMatch"><path d="M6,107 L6,132.1328 A0,0 0 0 0 6,132.1328 L365,132.1328 A0,0 0 0 0 365,132.1328 L365,117 L355,107 L189.5,107 L185.5,47.19 L181.5,107 L6,107 A0,0 0 0 0 6,107 " fill="#FEFFDD" style="stroke:#181818;stroke-width:0.5;"/><path d="M355,107 L355,117 L365,117 L355,107 " fill="#FEFFDD" style="stroke:#181818;stroke-width:0.5;"/><text fill="#000000" font-family="sans-serif" font-size="13" lengthAdjust="spacing" textLength="338" x="12" y="124.0669">&#1047;&#1072;&#1087;&#1088;&#1077;&#1090; &#1085;&#1072; &#1074;&#1099;&#1079;&#1086;&#1074; &#1082;&#1086;&#1085;&#1089;&#1090;&#1088;&#1091;&#1082;&#1090;&#1086;&#1088;&#1072; &#1076;&#1083;&#1103; &#1082;&#1083;&#1072;&#1089;&#1089;&#1072; Match</text></g><!--SRC=[dOuzRW9138NxEOK5FKLgH97KL3d1PDPYL-pyo3CeMaL8i2bJKEOQAmH20W5Ni6-KOPE2IAbIMNxVytikgm81RKWDMBGlI575UUM29ct1U1kyGvUUKrCZB6pzeFx2yAO07ZqLI4- -zWJ36M5pqxIPpyWlNF6ZlvPLGhNybLBh6F-Hy7qtrScKKnq24ep7nZj3c70ooO5BvNn26F0dTtoL5U-b1Jvp1xoL3pxmXRV0nppEifPMLlBEHsdvagtPi-EJR6xyn5tcwwprPGFG4VgMVWLr_y9eT8VK5m00]--></g></svg>