<?xml version="1.0" encoding="us-ascii" standalone="no"?><svg xmlns="http://www.w3.org/2000/svg" xmlns:xlink="http://www.w3.org/1999/xlink" contentStyleType="text/css" height="139px" preserveAspectRatio="none" style="width:345px;height:139px;background:#FFFFFF;" version="1.1" viewBox="0 0 345 139" width="345px" zoomAndPan="magnify"><defs/><g><!--class MatchMapper--><g id="elem_MatchMapper"><rect codeLine="273" fill="#FFFFFF" height="40.6211" id="MatchMapper" rx="2.5" ry="2.5" style="stroke:#808080;stroke-width:0.5;" width="125" x="109.5" y="7"/><ellipse cx="124.5" cy="27.3105" fill="#ADD1B2" rx="11" ry="11" style="stroke:#181818;stroke-width:1.0;"/><path d="M126.9731,33.4536 Q126.3921,33.7524 125.7529,33.9019 Q125.1138,34.0513 124.4082,34.0513 Q121.9014,34.0513 120.5815,32.3994 Q119.2617,30.7476 119.2617,27.6265 Q119.2617,24.4971 120.5815,22.8452 Q121.9014,21.1934 124.4082,21.1934 Q125.1138,21.1934 125.7612,21.3428 Q126.4087,21.4922 126.9731,21.791 L126.9731,24.5137 Q126.3423,23.9326 125.7488,23.6628 Q125.1553,23.3931 124.5244,23.3931 Q123.1797,23.3931 122.4949,24.4597 Q121.8101,25.5264 121.8101,27.6265 Q121.8101,29.7183 122.4949,30.7849 Q123.1797,31.8516 124.5244,31.8516 Q125.1553,31.8516 125.7488,31.5818 Q126.3423,31.312 126.9731,30.731 Z " fill="#000000"/><text fill="#000000" font-family="sans-serif" font-size="12" font-style="italic" lengthAdjust="spacing" textLength="61" x="154.5" y="23.6016">&#171;concrete&#187;</text><text fill="#000000" font-family="sans-serif" font-size="14" lengthAdjust="spacing" textLength="93" x="138.5" y="39.668">MatchMapper</text></g><g id="elem_creteMatch"><path d="M6,107.62 L6,132.9305 A0,0 0 0 0 6,132.9305 L338,132.9305 A0,0 0 0 0 338,132.9305 L338,117.62 L328,107.62 L176,107.62 L172,48.05 L168,107.62 L6,107.62 A0,0 0 0 0 6,107.62 " fill="#FEFFDD" style="stroke:#181818;stroke-width:0.5;"/><path d="M328,107.62 L328,117.62 L338,117.62 L328,107.62 " fill="#FEFFDD" style="stroke:#181818;stroke-width:0.5;"/><text fill="#000000" font-family="sans-serif" font-size="13" lengthAdjust="spacing" textLength="311" x="12" y="125.1884">&#1047;&#1072;&#1087;&#1088;&#1077;&#1090; &#1085;&#1072; &#1074;&#1099;&#1079;&#1086;&#1074; &#1082;&#1086;&#1085;&#1089;&#1090;&#1088;&#1091;&#1082;&#1090;&#1086;&#1088;&#1072; &#1076;&#1083;&#1103; &#1082;&#1083;&#1072;&#1089;&#1089;&#1072; Match</text></g><!--SRC=[dOuzRW9138NxEOK5FKLgH97KL3d1PDPYL-pyo3CeMaL8i2bJKEOQAmH20W5Ni6-KOPE2IAbIMNxVytikgm81RKWDMBGlI575UUM29ct1U1kyGvUUKrCZB6pzeFx2yAO07ZqLI4- -zWJ36M5pqxIPpyWlNF6ZlvPLGhNybLBh6F-Hy7qtrScKKnq24ep7nZj3c70ooO5BvNn26F0dTtoL5U-b1Jvp1xoL3pxmXRV0nppEifPMLlBEHsdvagtPi-EJR6xyn5tcwwprPGFG4VgMVWLr_y9eT8VK5m00]--></g></svg>