<?xml version="1.0" encoding="us-ascii" standalone="no"?><svg xmlns="http://www.w3.org/2000/svg" xmlns:xlink="http://www.w3.org/1999/xlink" contentStyleType="text/css" height="714.6667px" preserveAspectRatio="none" style="width:895px;height:714px;background:#FFFFFF;" version="1.1" viewBox="0 0 895 714" width="895.3333px" zoomAndPan="magnify"><defs/><g><!--cluster ru--><g id="cluster_ru"><path d="M2.8333,2 L8.1667,2 A1.25,1.25 0 0 1 9,2.8333 L11.3333,9.4961 L892.3333,9.4961 A0.8333,0.8333 0 0 1 893.1667,10.3294 L893.1667,711.5 A0.8333,0.8333 0 0 1 892.3333,712.3333 L2.8333,712.3333 A0.8333,0.8333 0 0 1 2,711.5 L2,2.8333 A0.8333,0.8333 0 0 1 2.8333,2 " fill="none" style="stroke:#000000;stroke-width:0.5;"/><line style="stroke:#000000;stroke-width:0.5;" x1="2" x2="11.3333" y1="9.4961" y2="9.4961"/><text fill="#000000" font-family="sans-serif" font-size="4.6667" font-weight="bold" lengthAdjust="spacing" textLength="5" x="3.3333" y="7.1784">ru</text></g><!--cluster onixred--><g id="cluster_onixred"><path d="M10.8333,16.3333 L29.1667,16.3333 A1.25,1.25 0 0 1 30,17.1667 L32.3333,23.8294 L884.3333,23.8294 A0.8333,0.8333 0 0 1 885.1667,24.6628 L885.1667,703.5 A0.8333,0.8333 0 0 1 884.3333,704.3333 L10.8333,704.3333 A0.8333,0.8333 0 0 1 10,703.5 L10,17.1667 A0.8333,0.8333 0 0 1 10.8333,16.3333 " fill="none" style="stroke:#000000;stroke-width:0.5;"/><line style="stroke:#000000;stroke-width:0.5;" x1="10" x2="32.3333" y1="23.8294" y2="23.8294"/><text fill="#000000" font-family="sans-serif" font-size="4.6667" font-weight="bold" lengthAdjust="spacing" textLength="18" x="11.3333" y="21.5117">onixred</text></g><!--cluster siberian--><g id="cluster_siberian"><path d="M18.8333,30.6667 L38.5,30.6667 A1.25,1.25 0 0 1 39.3333,31.5 L41.6667,38.1628 L876.3333,38.1628 A0.8333,0.8333 0 0 1 877.1667,38.9961 L877.1667,695.5 A0.8333,0.8333 0 0 1 876.3333,696.3333 L18.8333,696.3333 A0.8333,0.8333 0 0 1 18,695.5 L18,31.5 A0.8333,0.8333 0 0 1 18.8333,30.6667 " fill="none" style="stroke:#000000;stroke-width:0.5;"/><line style="stroke:#000000;stroke-width:0.5;" x1="18" x2="41.6667" y1="38.1628" y2="38.1628"/><text fill="#000000" font-family="sans-serif" font-size="4.6667" font-weight="bold" lengthAdjust="spacing" textLength="19.3333" x="19.3333" y="35.8451">siberian</text></g><!--cluster sea--><g id="cluster_sea"><path d="M26.8333,45 L35.1667,45 A1.25,1.25 0 0 1 36,45.8333 L38.3333,52.4961 L868.3333,52.4961 A0.8333,0.8333 0 0 1 869.1667,53.3294 L869.1667,687.5 A0.8333,0.8333 0 0 1 868.3333,688.3333 L26.8333,688.3333 A0.8333,0.8333 0 0 1 26,687.5 L26,45.8333 A0.8333,0.8333 0 0 1 26.8333,45 " fill="none" style="stroke:#000000;stroke-width:0.5;"/><line style="stroke:#000000;stroke-width:0.5;" x1="26" x2="38.3333" y1="52.4961" y2="52.4961"/><text fill="#000000" font-family="sans-serif" font-size="4.6667" font-weight="bold" lengthAdjust="spacing" textLength="8" x="27.3333" y="50.1784">sea</text></g><!--cluster battle--><g id="cluster_battle"><path d="M34.8333,59.3333 L49.1667,59.3333 A1.25,1.25 0 0 1 50,60.1667 L52.3333,66.8294 L860.3333,66.8294 A0.8333,0.8333 0 0 1 861.1667,67.6628 L861.1667,679.5 A0.8333,0.8333 0 0 1 860.3333,680.3333 L34.8333,680.3333 A0.8333,0.8333 0 0 1 34,679.5 L34,60.1667 A0.8333,0.8333 0 0 1 34.8333,59.3333 " fill="none" style="stroke:#000000;stroke-width:0.5;"/><line style="stroke:#000000;stroke-width:0.5;" x1="34" x2="52.3333" y1="66.8294" y2="66.8294"/><text fill="#000000" font-family="sans-serif" font-size="4.6667" font-weight="bold" lengthAdjust="spacing" textLength="14" x="35.3333" y="64.5117">battle</text></g><!--cluster layer--><g id="cluster_layer"><path d="M42.8333,73.6667 L54.8333,73.6667 A1.25,1.25 0 0 1 55.6667,74.5 L58,81.1628 L852.3333,81.1628 A0.8333,0.8333 0 0 1 853.1667,81.9961 L853.1667,671.5 A0.8333,0.8333 0 0 1 852.3333,672.3333 L42.8333,672.3333 A0.8333,0.8333 0 0 1 42,671.5 L42,74.5 A0.8333,0.8333 0 0 1 42.8333,73.6667 " fill="none" style="stroke:#000000;stroke-width:0.5;"/><line style="stroke:#000000;stroke-width:0.5;" x1="42" x2="58" y1="81.1628" y2="81.1628"/><text fill="#000000" font-family="sans-serif" font-size="4.6667" font-weight="bold" lengthAdjust="spacing" textLength="11.6667" x="43.3333" y="78.8451">layer</text></g><!--cluster acl--><g id="cluster_acl"><path d="M481,190.3333 L488,190.3333 A1.25,1.25 0 0 1 488.8333,191.1667 L491.1667,197.8294 L548.6667,197.8294 A0.8333,0.8333 0 0 1 549.5,198.6628 L549.5,284.1667 A0.8333,0.8333 0 0 1 548.6667,285 L481,285 A0.8333,0.8333 0 0 1 480.1667,284.1667 L480.1667,191.1667 A0.8333,0.8333 0 0 1 481,190.3333 " fill="none" style="stroke:#000000;stroke-width:0.5;"/><line style="stroke:#000000;stroke-width:0.5;" x1="480.1667" x2="491.1667" y1="197.8294" y2="197.8294"/><text fill="#000000" font-family="sans-serif" font-size="4.6667" font-weight="bold" lengthAdjust="spacing" textLength="6.6667" x="481.5" y="195.5117">acl</text></g><!--cluster configuration--><g id="cluster_configuration"><path d="M50.8333,516 L83.5,516 A1.25,1.25 0 0 1 84.3333,516.8333 L86.6667,523.4961 L257,523.4961 A0.8333,0.8333 0 0 1 257.8333,524.3294 L257.8333,565.1667 A0.8333,0.8333 0 0 1 257,566 L50.8333,566 A0.8333,0.8333 0 0 1 50,565.1667 L50,516.8333 A0.8333,0.8333 0 0 1 50.8333,516 " fill="none" style="stroke:#000000;stroke-width:0.5;"/><line style="stroke:#000000;stroke-width:0.5;" x1="50" x2="86.6667" y1="523.4961" y2="523.4961"/><text fill="#000000" font-family="sans-serif" font-size="4.6667" font-weight="bold" lengthAdjust="spacing" textLength="32.3333" x="51.3333" y="521.1784">configuration</text></g><!--cluster controller--><g id="cluster_controller"><path d="M65.1667,283.3333 L88.8333,283.3333 A1.25,1.25 0 0 1 89.6667,284.1667 L92,290.8294 L121.1667,290.8294 A0.8333,0.8333 0 0 1 122,291.6628 L122,310.1667 A0.8333,0.8333 0 0 1 121.1667,311 L65.1667,311 A0.8333,0.8333 0 0 1 64.3333,310.1667 L64.3333,284.1667 A0.8333,0.8333 0 0 1 65.1667,283.3333 " fill="none" style="stroke:#000000;stroke-width:0.5;"/><line style="stroke:#000000;stroke-width:0.5;" x1="64.3333" x2="92" y1="290.8294" y2="290.8294"/><text fill="#000000" font-family="sans-serif" font-size="4.6667" font-weight="bold" lengthAdjust="spacing" textLength="23.3333" x="65.6667" y="288.5117">controller</text></g><!--cluster dao--><g id="cluster_dao"><path d="M485.1667,88 L494.1667,88 A1.25,1.25 0 0 1 495,88.8333 L497.3333,95.4961 L844.3333,95.4961 A0.8333,0.8333 0 0 1 845.1667,96.3294 L845.1667,181.5 A0.8333,0.8333 0 0 1 844.3333,182.3333 L485.1667,182.3333 A0.8333,0.8333 0 0 1 484.3333,181.5 L484.3333,88.8333 A0.8333,0.8333 0 0 1 485.1667,88 " fill="none" style="stroke:#000000;stroke-width:0.5;"/><line style="stroke:#000000;stroke-width:0.5;" x1="484.3333" x2="497.3333" y1="95.4961" y2="95.4961"/><text fill="#000000" font-family="sans-serif" font-size="4.6667" font-weight="bold" lengthAdjust="spacing" textLength="8.6667" x="485.6667" y="93.1784">dao</text></g><!--cluster model--><g id="cluster_model"><path d="M457,373.3333 L472.3333,373.3333 A1.25,1.25 0 0 1 473.1667,374.1667 L475.5,380.8294 L844.1667,380.8294 A0.8333,0.8333 0 0 1 845,381.6628 L845,663.5 A0.8333,0.8333 0 0 1 844.1667,664.3333 L457,664.3333 A0.8333,0.8333 0 0 1 456.1667,663.5 L456.1667,374.1667 A0.8333,0.8333 0 0 1 457,373.3333 " fill="none" style="stroke:#000000;stroke-width:0.5;"/><line style="stroke:#000000;stroke-width:0.5;" x1="456.1667" x2="475.5" y1="380.8294" y2="380.8294"/><text fill="#000000" font-family="sans-serif" font-size="4.6667" font-weight="bold" lengthAdjust="spacing" textLength="15" x="457.5" y="378.5117">model</text></g><!--cluster enumeration--><g id="cluster_enumeration"><path d="M717.6667,430.6667 L748.3333,430.6667 A1.25,1.25 0 0 1 749.1667,431.5 L751.5,438.1628 L774.6667,438.1628 A0.8333,0.8333 0 0 1 775.5,438.9961 L775.5,502.1667 A0.8333,0.8333 0 0 1 774.6667,503 L717.6667,503 A0.8333,0.8333 0 0 1 716.8333,502.1667 L716.8333,431.5 A0.8333,0.8333 0 0 1 717.6667,430.6667 " fill="none" style="stroke:#000000;stroke-width:0.5;"/><line style="stroke:#000000;stroke-width:0.5;" x1="716.8333" x2="751.5" y1="438.1628" y2="438.1628"/><text fill="#000000" font-family="sans-serif" font-size="4.6667" font-weight="bold" lengthAdjust="spacing" textLength="30.3333" x="718.1667" y="435.8451">enumeration</text></g><!--cluster game--><g id="cluster_game"><path d="M482.8333,561.6667 L496.1667,561.6667 A1.25,1.25 0 0 1 497,562.5 L499.3333,569.1628 L836.1667,569.1628 A0.8333,0.8333 0 0 1 837,569.9961 L837,655.5 A0.8333,0.8333 0 0 1 836.1667,656.3333 L482.8333,656.3333 A0.8333,0.8333 0 0 1 482,655.5 L482,562.5 A0.8333,0.8333 0 0 1 482.8333,561.6667 " fill="none" style="stroke:#000000;stroke-width:0.5;"/><line style="stroke:#000000;stroke-width:0.5;" x1="482" x2="499.3333" y1="569.1628" y2="569.1628"/><text fill="#000000" font-family="sans-serif" font-size="4.6667" font-weight="bold" lengthAdjust="spacing" textLength="13" x="483.3333" y="566.8451">game</text></g><!--cluster message--><g id="cluster_message"><path d="M465,401 L486.3333,401 A1.25,1.25 0 0 1 487.1667,401.8333 L489.5,408.4961 L676.3333,408.4961 A0.8333,0.8333 0 0 1 677.1667,409.3294 L677.1667,552.8333 A0.8333,0.8333 0 0 1 676.3333,553.6667 L465,553.6667 A0.8333,0.8333 0 0 1 464.1667,552.8333 L464.1667,401.8333 A0.8333,0.8333 0 0 1 465,401 " fill="none" style="stroke:#000000;stroke-width:0.5;"/><line style="stroke:#000000;stroke-width:0.5;" x1="464.1667" x2="489.5" y1="408.4961" y2="408.4961"/><text fill="#000000" font-family="sans-serif" font-size="4.6667" font-weight="bold" lengthAdjust="spacing" textLength="21" x="465.5" y="406.1784">message</text></g><!--cluster chat--><g id="cluster_chat"><path d="M480.6667,518 L491,518 A1.25,1.25 0 0 1 491.8333,518.8333 L494.1667,525.4961 L549,525.4961 A0.8333,0.8333 0 0 1 549.8333,526.3294 L549.8333,544.8333 A0.8333,0.8333 0 0 1 549,545.6667 L480.6667,545.6667 A0.8333,0.8333 0 0 1 479.8333,544.8333 L479.8333,518.8333 A0.8333,0.8333 0 0 1 480.6667,518 " fill="none" style="stroke:#000000;stroke-width:0.5;"/><line style="stroke:#000000;stroke-width:0.5;" x1="479.8333" x2="494.1667" y1="525.4961" y2="525.4961"/><text fill="#000000" font-family="sans-serif" font-size="4.6667" font-weight="bold" lengthAdjust="spacing" textLength="10" x="481.1667" y="523.1784">chat</text></g><!--cluster repository--><g id="cluster_repository"><path d="M477.5,293 L502.5,293 A1.25,1.25 0 0 1 503.3333,293.8333 L505.6667,300.4961 L552.1667,300.4961 A0.8333,0.8333 0 0 1 553,301.3294 L553,364.5 A0.8333,0.8333 0 0 1 552.1667,365.3333 L477.5,365.3333 A0.8333,0.8333 0 0 1 476.6667,364.5 L476.6667,293.8333 A0.8333,0.8333 0 0 1 477.5,293 " fill="none" style="stroke:#000000;stroke-width:0.5;"/><line style="stroke:#000000;stroke-width:0.5;" x1="476.6667" x2="505.6667" y1="300.4961" y2="300.4961"/><text fill="#000000" font-family="sans-serif" font-size="4.6667" font-weight="bold" lengthAdjust="spacing" textLength="24.6667" x="478" y="298.1784">repository</text></g><!--cluster service--><g id="cluster_service"><path d="M190.6667,270.6667 L207.6667,270.6667 A1.25,1.25 0 0 1 208.5,271.5 L210.8333,278.1628 L378.6667,278.1628 A0.8333,0.8333 0 0 1 379.5,278.9961 L379.5,409.1667 A0.8333,0.8333 0 0 1 378.6667,410 L190.6667,410 A0.8333,0.8333 0 0 1 189.8333,409.1667 L189.8333,271.5 A0.8333,0.8333 0 0 1 190.6667,270.6667 " fill="none" style="stroke:#000000;stroke-width:0.5;"/><line style="stroke:#000000;stroke-width:0.5;" x1="189.8333" x2="210.8333" y1="278.1628" y2="278.1628"/><text fill="#000000" font-family="sans-serif" font-size="4.6667" font-weight="bold" lengthAdjust="spacing" textLength="16.6667" x="191.1667" y="275.8451">service</text></g><!--class SiberianSeaBattleApplication--><g id="elem_SiberianSeaBattleApplication"><rect codeLine="6" fill="#F1F1F1" height="10.6667" id="SiberianSeaBattleApplication" rx="0.8333" ry="0.8333" style="stroke:#181818;stroke-width:0.16666666666666666;" width="76" x="55.1667" y="165.3333"/><ellipse cx="60.1667" cy="170.6667" fill="#ADD1B2" rx="3.6667" ry="3.6667" style="stroke:#181818;stroke-width:0.3333333333333333;"/><path d="M60.991,172.7144 Q60.7974,172.814 60.5843,172.8638 Q60.3713,172.9136 60.1361,172.9136 Q59.3005,172.9136 58.8605,172.363 Q58.4206,171.8123 58.4206,170.772 Q58.4206,169.7288 58.8605,169.1782 Q59.3005,168.6276 60.1361,168.6276 Q60.3713,168.6276 60.5871,168.6774 Q60.8029,168.7272 60.991,168.8268 L60.991,169.7344 Q60.7808,169.5407 60.5829,169.4508 Q60.3851,169.3608 60.1748,169.3608 Q59.7266,169.3608 59.4983,169.7164 Q59.27,170.0719 59.27,170.772 Q59.27,171.4692 59.4983,171.8248 Q59.7266,172.1803 60.1748,172.1803 Q60.3851,172.1803 60.5829,172.0904 Q60.7808,172.0005 60.991,171.8068 Z " fill="#000000"/><text fill="#000000" font-family="sans-serif" font-size="4.6667" lengthAdjust="spacing" textLength="65.3333" x="64.8333" y="172.4303">SiberianSeaBattleApplication</text></g><!--class ActionHistoryMapper--><g id="elem_ActionHistoryMapper"><rect codeLine="11" fill="#F1F1F1" height="10.6667" id="ActionHistoryMapper" rx="0.8333" ry="0.8333" style="stroke:#181818;stroke-width:0.16666666666666666;" width="58.6667" x="485.5" y="224.3333"/><ellipse cx="490.5" cy="229.6667" fill="#ADD1B2" rx="3.6667" ry="3.6667" style="stroke:#181818;stroke-width:0.3333333333333333;"/><path d="M491.3244,231.7144 Q491.1307,231.814 490.9176,231.8638 Q490.7046,231.9136 490.4694,231.9136 Q489.6338,231.9136 489.1938,231.363 Q488.7539,230.8123 488.7539,229.772 Q488.7539,228.7288 489.1938,228.1782 Q489.6338,227.6276 490.4694,227.6276 Q490.7046,227.6276 490.9204,227.6774 Q491.1362,227.7272 491.3244,227.8268 L491.3244,228.7344 Q491.1141,228.5407 490.9163,228.4508 Q490.7184,228.3608 490.5081,228.3608 Q490.0599,228.3608 489.8316,228.7164 Q489.6034,229.0719 489.6034,229.772 Q489.6034,230.4692 489.8316,230.8248 Q490.0599,231.1803 490.5081,231.1803 Q490.7184,231.1803 490.9163,231.0904 Q491.1141,231.0005 491.3244,230.8068 Z " fill="#000000"/><text fill="#000000" font-family="sans-serif" font-size="4.6667" lengthAdjust="spacing" textLength="48" x="495.1667" y="231.4303">ActionHistoryMapper</text></g><!--class GameMapper--><g id="elem_GameMapper"><rect codeLine="19" fill="#F1F1F1" height="10.6667" id="GameMapper" rx="0.8333" ry="0.8333" style="stroke:#181818;stroke-width:0.16666666666666666;" width="41" x="494.3333" y="246.6667"/><ellipse cx="499.3333" cy="252" fill="#ADD1B2" rx="3.6667" ry="3.6667" style="stroke:#181818;stroke-width:0.3333333333333333;"/><path d="M500.1577,254.0477 Q499.964,254.1473 499.751,254.1971 Q499.5379,254.2469 499.3027,254.2469 Q498.4671,254.2469 498.0272,253.6963 Q497.5872,253.1457 497.5872,252.1053 Q497.5872,251.0622 498.0272,250.5116 Q498.4671,249.9609 499.3027,249.9609 Q499.5379,249.9609 499.7537,250.0107 Q499.9696,250.0605 500.1577,250.1602 L500.1577,251.0677 Q499.9474,250.874 499.7496,250.7841 Q499.5518,250.6942 499.3415,250.6942 Q498.8932,250.6942 498.665,251.0497 Q498.4367,251.4053 498.4367,252.1053 Q498.4367,252.8026 498.665,253.1581 Q498.8932,253.5137 499.3415,253.5137 Q499.5518,253.5137 499.7496,253.4237 Q499.9474,253.3338 500.1577,253.1401 Z " fill="#000000"/><text fill="#000000" font-family="sans-serif" font-size="4.6667" lengthAdjust="spacing" textLength="30.3333" x="504" y="253.7637">GameMapper</text></g><!--class MatchMapper--><g id="elem_MatchMapper"><rect codeLine="27" fill="#F1F1F1" height="10.6667" id="MatchMapper" rx="0.8333" ry="0.8333" style="stroke:#181818;stroke-width:0.16666666666666666;" width="41.6667" x="494" y="269"/><ellipse cx="499" cy="274.3333" fill="#ADD1B2" rx="3.6667" ry="3.6667" style="stroke:#181818;stroke-width:0.3333333333333333;"/><path d="M499.8244,276.381 Q499.6307,276.4806 499.4176,276.5304 Q499.2046,276.5802 498.9694,276.5802 Q498.1338,276.5802 497.6938,276.0296 Q497.2539,275.479 497.2539,274.4386 Q497.2539,273.3955 497.6938,272.8449 Q498.1338,272.2943 498.9694,272.2943 Q499.2046,272.2943 499.4204,272.3441 Q499.6362,272.3939 499.8244,272.4935 L499.8244,273.401 Q499.6141,273.2074 499.4163,273.1174 Q499.2184,273.0275 499.0081,273.0275 Q498.5599,273.0275 498.3316,273.3831 Q498.1034,273.7386 498.1034,274.4386 Q498.1034,275.1359 498.3316,275.4915 Q498.5599,275.847 499.0081,275.847 Q499.2184,275.847 499.4163,275.7571 Q499.6141,275.6672 499.8244,275.4735 Z " fill="#000000"/><text fill="#000000" font-family="sans-serif" font-size="4.6667" lengthAdjust="spacing" textLength="31" x="503.6667" y="276.097">MatchMapper</text></g><!--class PlayerMapper--><g id="elem_PlayerMapper"><rect codeLine="35" fill="#F1F1F1" height="10.6667" id="PlayerMapper" rx="0.8333" ry="0.8333" style="stroke:#181818;stroke-width:0.16666666666666666;" width="41.6667" x="494" y="202"/><ellipse cx="499" cy="207.3333" fill="#ADD1B2" rx="3.6667" ry="3.6667" style="stroke:#181818;stroke-width:0.3333333333333333;"/><path d="M499.8244,209.381 Q499.6307,209.4806 499.4176,209.5304 Q499.2046,209.5802 498.9694,209.5802 Q498.1338,209.5802 497.6938,209.0296 Q497.2539,208.479 497.2539,207.4386 Q497.2539,206.3955 497.6938,205.8449 Q498.1338,205.2943 498.9694,205.2943 Q499.2046,205.2943 499.4204,205.3441 Q499.6362,205.3939 499.8244,205.4935 L499.8244,206.401 Q499.6141,206.2074 499.4163,206.1174 Q499.2184,206.0275 499.0081,206.0275 Q498.5599,206.0275 498.3316,206.3831 Q498.1034,206.7386 498.1034,207.4386 Q498.1034,208.1359 498.3316,208.4915 Q498.5599,208.847 499.0081,208.847 Q499.2184,208.847 499.4163,208.7571 Q499.6141,208.6672 499.8244,208.4735 Z " fill="#000000"/><text fill="#000000" font-family="sans-serif" font-size="4.6667" lengthAdjust="spacing" textLength="31" x="503.6667" y="209.097">PlayerMapper</text></g><!--class ModelMapperConfiguration--><g id="elem_ModelMapperConfiguration"><rect codeLine="43" fill="#F1F1F1" height="10.6667" id="ModelMapperConfiguration" rx="0.8333" ry="0.8333" style="stroke:#181818;stroke-width:0.16666666666666666;" width="74" x="56.1667" y="550"/><ellipse cx="61.1667" cy="555.3333" fill="#ADD1B2" rx="3.6667" ry="3.6667" style="stroke:#181818;stroke-width:0.3333333333333333;"/><path d="M61.991,557.381 Q61.7974,557.4806 61.5843,557.5304 Q61.3713,557.5802 61.1361,557.5802 Q60.3005,557.5802 59.8605,557.0296 Q59.4206,556.479 59.4206,555.4386 Q59.4206,554.3955 59.8605,553.8449 Q60.3005,553.2943 61.1361,553.2943 Q61.3713,553.2943 61.5871,553.3441 Q61.8029,553.3939 61.991,553.4935 L61.991,554.401 Q61.7808,554.2074 61.5829,554.1174 Q61.3851,554.0275 61.1748,554.0275 Q60.7266,554.0275 60.4983,554.3831 Q60.27,554.7386 60.27,555.4386 Q60.27,556.1359 60.4983,556.4915 Q60.7266,556.847 61.1748,556.847 Q61.3851,556.847 61.5829,556.7571 Q61.7808,556.6672 61.991,556.4735 Z " fill="#000000"/><text fill="#000000" font-family="sans-serif" font-size="4.6667" lengthAdjust="spacing" textLength="63.3333" x="65.8333" y="557.097">ModelMapperConfiguration</text></g><!--class SpringSecurityConfiguration--><g id="elem_SpringSecurityConfiguration"><rect codeLine="48" fill="#F1F1F1" height="10.6667" id="SpringSecurityConfiguration" rx="0.8333" ry="0.8333" style="stroke:#181818;stroke-width:0.16666666666666666;" width="75.6667" x="55.3333" y="527.6667"/><ellipse cx="60.3333" cy="533" fill="#ADD1B2" rx="3.6667" ry="3.6667" style="stroke:#181818;stroke-width:0.3333333333333333;"/><path d="M61.1577,535.0477 Q60.964,535.1473 60.751,535.1971 Q60.5379,535.2469 60.3027,535.2469 Q59.4671,535.2469 59.0272,534.6963 Q58.5872,534.1457 58.5872,533.1053 Q58.5872,532.0622 59.0272,531.5116 Q59.4671,530.9609 60.3027,530.9609 Q60.5379,530.9609 60.7537,531.0107 Q60.9696,531.0605 61.1577,531.1602 L61.1577,532.0677 Q60.9474,531.874 60.7496,531.7841 Q60.5518,531.6942 60.3415,531.6942 Q59.8932,531.6942 59.665,532.0497 Q59.4367,532.4053 59.4367,533.1053 Q59.4367,533.8026 59.665,534.1581 Q59.8932,534.5137 60.3415,534.5137 Q60.5518,534.5137 60.7496,534.4237 Q60.9474,534.3338 61.1577,534.1401 Z " fill="#000000"/><text fill="#000000" font-family="sans-serif" font-size="4.6667" lengthAdjust="spacing" textLength="65" x="65" y="534.7637">SpringSecurityConfiguration</text></g><!--class WebSocketConfiguration--><g id="elem_WebSocketConfiguration"><rect codeLine="55" fill="#F1F1F1" height="10.6667" id="WebSocketConfiguration" rx="0.8333" ry="0.8333" style="stroke:#181818;stroke-width:0.16666666666666666;" width="67.3333" x="185.1667" y="550"/><ellipse cx="190.1667" cy="555.3333" fill="#ADD1B2" rx="3.6667" ry="3.6667" style="stroke:#181818;stroke-width:0.3333333333333333;"/><path d="M190.991,557.381 Q190.7974,557.4806 190.5843,557.5304 Q190.3713,557.5802 190.1361,557.5802 Q189.3005,557.5802 188.8605,557.0296 Q188.4206,556.479 188.4206,555.4386 Q188.4206,554.3955 188.8605,553.8449 Q189.3005,553.2943 190.1361,553.2943 Q190.3713,553.2943 190.5871,553.3441 Q190.8029,553.3939 190.991,553.4935 L190.991,554.401 Q190.7808,554.2074 190.5829,554.1174 Q190.3851,554.0275 190.1748,554.0275 Q189.7266,554.0275 189.4983,554.3831 Q189.27,554.7386 189.27,555.4386 Q189.27,556.1359 189.4983,556.4915 Q189.7266,556.847 190.1748,556.847 Q190.3851,556.847 190.5829,556.7571 Q190.7808,556.6672 190.991,556.4735 Z " fill="#000000"/><text fill="#000000" font-family="sans-serif" font-size="4.6667" lengthAdjust="spacing" textLength="56.6667" x="194.8333" y="557.097">WebSocketConfiguration</text></g><!--class GameController--><g id="elem_GameController"><rect codeLine="61" fill="#F1F1F1" height="10.6667" id="GameController" rx="0.8333" ry="0.8333" style="stroke:#181818;stroke-width:0.16666666666666666;" width="47" x="69.6667" y="295"/><ellipse cx="74.6667" cy="300.3333" fill="#ADD1B2" rx="3.6667" ry="3.6667" style="stroke:#181818;stroke-width:0.3333333333333333;"/><path d="M75.491,302.381 Q75.2974,302.4806 75.0843,302.5304 Q74.8713,302.5802 74.6361,302.5802 Q73.8005,302.5802 73.3605,302.0296 Q72.9206,301.479 72.9206,300.4386 Q72.9206,299.3955 73.3605,298.8449 Q73.8005,298.2943 74.6361,298.2943 Q74.8713,298.2943 75.0871,298.3441 Q75.3029,298.3939 75.491,298.4935 L75.491,299.401 Q75.2808,299.2074 75.0829,299.1174 Q74.8851,299.0275 74.6748,299.0275 Q74.2266,299.0275 73.9983,299.3831 Q73.77,299.7386 73.77,300.4386 Q73.77,301.1359 73.9983,301.4915 Q74.2266,301.847 74.6748,301.847 Q74.8851,301.847 75.0829,301.7571 Q75.2808,301.6672 75.491,301.4735 Z " fill="#000000"/><text fill="#000000" font-family="sans-serif" font-size="4.6667" lengthAdjust="spacing" textLength="36.3333" x="79.3333" y="302.097">GameController</text></g><!--class AbstractDao--><g id="elem_AbstractDao"><rect codeLine="77" fill="#F1F1F1" height="10.6667" id="AbstractDao" rx="0.8333" ry="0.8333" style="stroke:#181818;stroke-width:0.16666666666666666;" width="38.6667" x="801.1667" y="123"/><ellipse cx="806.1667" cy="128.3333" fill="#A9DCDF" rx="3.6667" ry="3.6667" style="stroke:#181818;stroke-width:0.3333333333333333;"/><path d="M806.1211,126.7827 L805.7365,128.4733 L806.5085,128.4733 Z M805.623,126.0356 L806.6219,126.0356 L807.737,130.1667 L806.9207,130.1667 L806.6662,129.1457 L805.5732,129.1457 L805.3242,130.1667 L804.508,130.1667 Z " fill="#000000"/><text fill="#000000" font-family="sans-serif" font-size="4.6667" font-style="italic" lengthAdjust="spacing" textLength="28" x="810.8333" y="130.097">AbstractDao</text></g><!--class ActionHistoryDao--><g id="elem_ActionHistoryDao"><rect codeLine="82" fill="#F1F1F1" height="10.6667" id="ActionHistoryDao" rx="0.8333" ry="0.8333" style="stroke:#181818;stroke-width:0.16666666666666666;" width="50.3333" x="489.6667" y="117.3333"/><ellipse cx="494.6667" cy="122.6667" fill="#ADD1B2" rx="3.6667" ry="3.6667" style="stroke:#181818;stroke-width:0.3333333333333333;"/><path d="M495.491,124.7144 Q495.2974,124.814 495.0843,124.8638 Q494.8713,124.9136 494.6361,124.9136 Q493.8005,124.9136 493.3605,124.363 Q492.9206,123.8123 492.9206,122.772 Q492.9206,121.7288 493.3605,121.1782 Q493.8005,120.6276 494.6361,120.6276 Q494.8713,120.6276 495.0871,120.6774 Q495.3029,120.7272 495.491,120.8268 L495.491,121.7344 Q495.2808,121.5407 495.0829,121.4508 Q494.8851,121.3608 494.6748,121.3608 Q494.2266,121.3608 493.9983,121.7164 Q493.77,122.0719 493.77,122.772 Q493.77,123.4692 493.9983,123.8248 Q494.2266,124.1803 494.6748,124.1803 Q494.8851,124.1803 495.0829,124.0904 Q495.2808,124.0005 495.491,123.8068 Z " fill="#000000"/><text fill="#000000" font-family="sans-serif" font-size="4.6667" lengthAdjust="spacing" textLength="39.6667" x="499.3333" y="124.4303">ActionHistoryDao</text></g><!--class MatchDao--><g id="elem_MatchDao"><rect codeLine="92" fill="#F1F1F1" height="10.6667" id="MatchDao" rx="0.8333" ry="0.8333" style="stroke:#181818;stroke-width:0.16666666666666666;" width="33.3333" x="623.8333" y="152"/><ellipse cx="628.8333" cy="157.3333" fill="#ADD1B2" rx="3.6667" ry="3.6667" style="stroke:#181818;stroke-width:0.3333333333333333;"/><path d="M629.6577,159.381 Q629.464,159.4806 629.251,159.5304 Q629.0379,159.5802 628.8027,159.5802 Q627.9671,159.5802 627.5272,159.0296 Q627.0872,158.479 627.0872,157.4386 Q627.0872,156.3955 627.5272,155.8449 Q627.9671,155.2943 628.8027,155.2943 Q629.0379,155.2943 629.2537,155.3441 Q629.4696,155.3939 629.6577,155.4935 L629.6577,156.401 Q629.4474,156.2074 629.2496,156.1174 Q629.0518,156.0275 628.8415,156.0275 Q628.3932,156.0275 628.165,156.3831 Q627.9367,156.7386 627.9367,157.4386 Q627.9367,158.1359 628.165,158.4915 Q628.3932,158.847 628.8415,158.847 Q629.0518,158.847 629.2496,158.7571 Q629.4474,158.6672 629.6577,158.4735 Z " fill="#000000"/><text fill="#000000" font-family="sans-serif" font-size="4.6667" lengthAdjust="spacing" textLength="22.6667" x="633.5" y="159.097">MatchDao</text></g><!--class PlayerDao--><g id="elem_PlayerDao"><rect codeLine="101" fill="#F1F1F1" height="10.6667" id="PlayerDao" rx="0.8333" ry="0.8333" style="stroke:#181818;stroke-width:0.16666666666666666;" width="33.3333" x="729.5" y="123"/><ellipse cx="734.5" cy="128.3333" fill="#ADD1B2" rx="3.6667" ry="3.6667" style="stroke:#181818;stroke-width:0.3333333333333333;"/><path d="M735.3244,130.381 Q735.1307,130.4806 734.9176,130.5304 Q734.7046,130.5802 734.4694,130.5802 Q733.6338,130.5802 733.1938,130.0296 Q732.7539,129.479 732.7539,128.4386 Q732.7539,127.3955 733.1938,126.8449 Q733.6338,126.2943 734.4694,126.2943 Q734.7046,126.2943 734.9204,126.3441 Q735.1362,126.3939 735.3244,126.4935 L735.3244,127.401 Q735.1141,127.2074 734.9163,127.1174 Q734.7184,127.0275 734.5081,127.0275 Q734.0599,127.0275 733.8316,127.3831 Q733.6034,127.7386 733.6034,128.4386 Q733.6034,129.1359 733.8316,129.4915 Q734.0599,129.847 734.5081,129.847 Q734.7184,129.847 734.9163,129.7571 Q735.1141,129.6672 735.3244,129.4735 Z " fill="#000000"/><text fill="#000000" font-family="sans-serif" font-size="4.6667" lengthAdjust="spacing" textLength="22.6667" x="739.1667" y="130.097">PlayerDao</text></g><!--class ActionHistory--><g id="elem_ActionHistory"><rect codeLine="112" fill="#F1F1F1" height="10.6667" id="ActionHistory" rx="0.8333" ry="0.8333" style="stroke:#181818;stroke-width:0.16666666666666666;" width="41.3333" x="494.1667" y="385"/><ellipse cx="499.1667" cy="390.3333" fill="#ADD1B2" rx="3.6667" ry="3.6667" style="stroke:#181818;stroke-width:0.3333333333333333;"/><path d="M499.991,392.381 Q499.7974,392.4806 499.5843,392.5304 Q499.3713,392.5802 499.1361,392.5802 Q498.3005,392.5802 497.8605,392.0296 Q497.4206,391.479 497.4206,390.4386 Q497.4206,389.3955 497.8605,388.8449 Q498.3005,388.2943 499.1361,388.2943 Q499.3713,388.2943 499.5871,388.3441 Q499.8029,388.3939 499.991,388.4935 L499.991,389.401 Q499.7808,389.2074 499.5829,389.1174 Q499.3851,389.0275 499.1748,389.0275 Q498.7266,389.0275 498.4983,389.3831 Q498.27,389.7386 498.27,390.4386 Q498.27,391.1359 498.4983,391.4915 Q498.7266,391.847 499.1748,391.847 Q499.3851,391.847 499.5829,391.7571 Q499.7808,391.6672 499.991,391.4735 Z " fill="#000000"/><text fill="#000000" font-family="sans-serif" font-size="4.6667" lengthAdjust="spacing" textLength="30.6667" x="503.8333" y="392.097">ActionHistory</text></g><!--class Match--><g id="elem_Match"><rect codeLine="125" fill="#F1F1F1" height="10.6667" id="Match" rx="0.8333" ry="0.8333" style="stroke:#181818;stroke-width:0.16666666666666666;" width="24.3333" x="628.3333" y="385"/><ellipse cx="633.3333" cy="390.3333" fill="#ADD1B2" rx="3.6667" ry="3.6667" style="stroke:#181818;stroke-width:0.3333333333333333;"/><path d="M634.1577,392.381 Q633.964,392.4806 633.751,392.5304 Q633.5379,392.5802 633.3027,392.5802 Q632.4671,392.5802 632.0272,392.0296 Q631.5872,391.479 631.5872,390.4386 Q631.5872,389.3955 632.0272,388.8449 Q632.4671,388.2943 633.3027,388.2943 Q633.5379,388.2943 633.7537,388.3441 Q633.9696,388.3939 634.1577,388.4935 L634.1577,389.401 Q633.9474,389.2074 633.7496,389.1174 Q633.5518,389.0275 633.3415,389.0275 Q632.8932,389.0275 632.665,389.3831 Q632.4367,389.7386 632.4367,390.4386 Q632.4367,391.1359 632.665,391.4915 Q632.8932,391.847 633.3415,391.847 Q633.5518,391.847 633.7496,391.7571 Q633.9474,391.6672 634.1577,391.4735 Z " fill="#000000"/><text fill="#000000" font-family="sans-serif" font-size="4.6667" lengthAdjust="spacing" textLength="13.6667" x="638" y="392.097">Match</text></g><!--class Player--><g id="elem_Player"><rect codeLine="135" fill="#F1F1F1" height="10.6667" id="Player" rx="0.8333" ry="0.8333" style="stroke:#181818;stroke-width:0.16666666666666666;" width="24.3333" x="734" y="404.3333"/><ellipse cx="739" cy="409.6667" fill="#ADD1B2" rx="3.6667" ry="3.6667" style="stroke:#181818;stroke-width:0.3333333333333333;"/><path d="M739.8244,411.7144 Q739.6307,411.814 739.4176,411.8638 Q739.2046,411.9136 738.9694,411.9136 Q738.1338,411.9136 737.6938,411.363 Q737.2539,410.8123 737.2539,409.772 Q737.2539,408.7288 737.6938,408.1782 Q738.1338,407.6276 738.9694,407.6276 Q739.2046,407.6276 739.4204,407.6774 Q739.6362,407.7272 739.8244,407.8268 L739.8244,408.7344 Q739.6141,408.5407 739.4163,408.4508 Q739.2184,408.3608 739.0081,408.3608 Q738.5599,408.3608 738.3316,408.7164 Q738.1034,409.0719 738.1034,409.772 Q738.1034,410.4692 738.3316,410.8248 Q738.5599,411.1803 739.0081,411.1803 Q739.2184,411.1803 739.4163,411.0904 Q739.6141,411.0005 739.8244,410.8068 Z " fill="#000000"/><text fill="#000000" font-family="sans-serif" font-size="4.6667" lengthAdjust="spacing" textLength="13.6667" x="743.6667" y="411.4303">Player</text></g><!--class MatchStatus--><g id="elem_MatchStatus"><rect codeLine="147" fill="#F1F1F1" height="10.6667" id="MatchStatus" rx="0.8333" ry="0.8333" style="stroke:#181818;stroke-width:0.16666666666666666;" width="38.3333" x="727" y="442.3333"/><ellipse cx="732" cy="447.6667" fill="#EB937F" rx="3.6667" ry="3.6667" style="stroke:#181818;stroke-width:0.3333333333333333;"/><path d="M733.2048,449.8333 L730.6315,449.8333 L730.6315,445.7023 L733.2048,445.7023 L733.2048,446.4217 L731.4478,446.4217 L731.4478,447.3127 L733.0387,447.3127 L733.0387,448.0321 L731.4478,448.0321 L731.4478,449.1139 L733.2048,449.1139 Z " fill="#000000"/><text fill="#000000" font-family="sans-serif" font-size="4.6667" lengthAdjust="spacing" textLength="27.6667" x="736.6667" y="449.4303">MatchStatus</text></g><!--class Status--><g id="elem_Status"><rect codeLine="158" fill="#F1F1F1" height="10.6667" id="Status" rx="0.8333" ry="0.8333" style="stroke:#181818;stroke-width:0.16666666666666666;" width="24.6667" x="733.8333" y="487"/><ellipse cx="738.8333" cy="492.3333" fill="#EB937F" rx="3.6667" ry="3.6667" style="stroke:#181818;stroke-width:0.3333333333333333;"/><path d="M740.0381,494.5 L737.4648,494.5 L737.4648,490.369 L740.0381,490.369 L740.0381,491.0884 L738.2811,491.0884 L738.2811,491.9793 L739.8721,491.9793 L739.8721,492.6987 L738.2811,492.6987 L738.2811,493.7806 L740.0381,493.7806 Z " fill="#000000"/><text fill="#000000" font-family="sans-serif" font-size="4.6667" lengthAdjust="spacing" textLength="14" x="743.5" y="494.097">Status</text></g><!--class TypeNotification--><g id="elem_TypeNotification"><rect codeLine="164" fill="#F1F1F1" height="10.6667" id="TypeNotification" rx="0.8333" ry="0.8333" style="stroke:#181818;stroke-width:0.16666666666666666;" width="48" x="722.1667" y="464.6667"/><ellipse cx="727.1667" cy="470" fill="#EB937F" rx="3.6667" ry="3.6667" style="stroke:#181818;stroke-width:0.3333333333333333;"/><path d="M728.3714,472.1667 L725.7982,472.1667 L725.7982,468.0356 L728.3714,468.0356 L728.3714,468.755 L726.6144,468.755 L726.6144,469.646 L728.2054,469.646 L728.2054,470.3654 L726.6144,470.3654 L726.6144,471.4473 L728.3714,471.4473 Z " fill="#000000"/><text fill="#000000" font-family="sans-serif" font-size="4.6667" lengthAdjust="spacing" textLength="37.3333" x="731.8333" y="471.7637">TypeNotification</text></g><!--class CustomFleet--><g id="elem_CustomFleet"><rect codeLine="172" fill="#F1F1F1" height="10.6667" id="CustomFleet" rx="0.8333" ry="0.8333" style="stroke:#181818;stroke-width:0.16666666666666666;" width="39.3333" x="495.1667" y="640.3333"/><ellipse cx="500.1667" cy="645.6667" fill="#ADD1B2" rx="3.6667" ry="3.6667" style="stroke:#181818;stroke-width:0.3333333333333333;"/><path d="M500.991,647.7144 Q500.7974,647.814 500.5843,647.8638 Q500.3713,647.9136 500.1361,647.9136 Q499.3005,647.9136 498.8605,647.363 Q498.4206,646.8123 498.4206,645.772 Q498.4206,644.7288 498.8605,644.1782 Q499.3005,643.6276 500.1361,643.6276 Q500.3713,643.6276 500.5871,643.6774 Q500.8029,643.7272 500.991,643.8268 L500.991,644.7344 Q500.7808,644.5407 500.5829,644.4508 Q500.3851,644.3608 500.1748,644.3608 Q499.7266,644.3608 499.4983,644.7164 Q499.27,645.0719 499.27,645.772 Q499.27,646.4692 499.4983,646.8248 Q499.7266,647.1803 500.1748,647.1803 Q500.3851,647.1803 500.5829,647.0904 Q500.7808,647.0005 500.991,646.8068 Z " fill="#000000"/><text fill="#000000" font-family="sans-serif" font-size="4.6667" lengthAdjust="spacing" textLength="28.6667" x="504.8333" y="647.4303">CustomFleet</text></g><!--class Fleet--><g id="elem_Fleet"><rect codeLine="183" fill="#F1F1F1" height="10.6667" id="Fleet" rx="0.8333" ry="0.8333" style="stroke:#181818;stroke-width:0.16666666666666666;" width="21.6667" x="629.6667" y="612.6667"/><ellipse cx="634.6667" cy="618" fill="#ADD1B2" rx="3.6667" ry="3.6667" style="stroke:#181818;stroke-width:0.3333333333333333;"/><path d="M635.491,620.0477 Q635.2974,620.1473 635.0843,620.1971 Q634.8713,620.2469 634.6361,620.2469 Q633.8005,620.2469 633.3605,619.6963 Q632.9206,619.1457 632.9206,618.1053 Q632.9206,617.0622 633.3605,616.5116 Q633.8005,615.9609 634.6361,615.9609 Q634.8713,615.9609 635.0871,616.0107 Q635.3029,616.0605 635.491,616.1602 L635.491,617.0677 Q635.2808,616.874 635.0829,616.7841 Q634.8851,616.6942 634.6748,616.6942 Q634.2266,616.6942 633.9983,617.0497 Q633.77,617.4053 633.77,618.1053 Q633.77,618.8026 633.9983,619.1581 Q634.2266,619.5137 634.6748,619.5137 Q634.8851,619.5137 635.0829,619.4237 Q635.2808,619.3338 635.491,619.1401 Z " fill="#000000"/><text fill="#000000" font-family="sans-serif" font-size="4.6667" lengthAdjust="spacing" textLength="11" x="639.3333" y="619.7637">Fleet</text></g><!--class GridPoint--><g id="elem_GridPoint"><rect codeLine="193" fill="#F1F1F1" height="10.6667" id="GridPoint" rx="0.8333" ry="0.8333" style="stroke:#181818;stroke-width:0.16666666666666666;" width="32" x="498.8333" y="618"/><ellipse cx="503.8333" cy="623.3333" fill="#ADD1B2" rx="3.6667" ry="3.6667" style="stroke:#181818;stroke-width:0.3333333333333333;"/><path d="M504.6577,625.381 Q504.464,625.4806 504.251,625.5304 Q504.0379,625.5802 503.8027,625.5802 Q502.9671,625.5802 502.5272,625.0296 Q502.0872,624.479 502.0872,623.4386 Q502.0872,622.3955 502.5272,621.8449 Q502.9671,621.2943 503.8027,621.2943 Q504.0379,621.2943 504.2537,621.3441 Q504.4696,621.3939 504.6577,621.4935 L504.6577,622.401 Q504.4474,622.2074 504.2496,622.1174 Q504.0518,622.0275 503.8415,622.0275 Q503.3932,622.0275 503.165,622.3831 Q502.9367,622.7386 502.9367,623.4386 Q502.9367,624.1359 503.165,624.4915 Q503.3932,624.847 503.8415,624.847 Q504.0518,624.847 504.2496,624.7571 Q504.4474,624.6672 504.6577,624.4735 Z " fill="#000000"/><text fill="#000000" font-family="sans-serif" font-size="4.6667" lengthAdjust="spacing" textLength="21.3333" x="508.5" y="625.097">GridPoint</text></g><!--class MatchFleet--><g id="elem_MatchFleet"><rect codeLine="205" fill="#F1F1F1" height="10.6667" id="MatchFleet" rx="0.8333" ry="0.8333" style="stroke:#181818;stroke-width:0.16666666666666666;" width="35.3333" x="497.1667" y="595.6667"/><ellipse cx="502.1667" cy="601" fill="#ADD1B2" rx="3.6667" ry="3.6667" style="stroke:#181818;stroke-width:0.3333333333333333;"/><path d="M502.991,603.0477 Q502.7974,603.1473 502.5843,603.1971 Q502.3713,603.2469 502.1361,603.2469 Q501.3005,603.2469 500.8605,602.6963 Q500.4206,602.1457 500.4206,601.1053 Q500.4206,600.0622 500.8605,599.5116 Q501.3005,598.9609 502.1361,598.9609 Q502.3713,598.9609 502.5871,599.0107 Q502.8029,599.0605 502.991,599.1602 L502.991,600.0677 Q502.7808,599.874 502.5829,599.7841 Q502.3851,599.6942 502.1748,599.6942 Q501.7266,599.6942 501.4983,600.0497 Q501.27,600.4053 501.27,601.1053 Q501.27,601.8026 501.4983,602.1581 Q501.7266,602.5137 502.1748,602.5137 Q502.3851,602.5137 502.5829,602.4237 Q502.7808,602.3338 502.991,602.1401 Z " fill="#000000"/><text fill="#000000" font-family="sans-serif" font-size="4.6667" lengthAdjust="spacing" textLength="24.6667" x="506.8333" y="602.7637">MatchFleet</text></g><!--class Point--><g id="elem_Point"><rect codeLine="219" fill="#F1F1F1" height="10.6667" id="Point" rx="0.8333" ry="0.8333" style="stroke:#181818;stroke-width:0.16666666666666666;" width="22.3333" x="809.3333" y="608"/><ellipse cx="814.3333" cy="613.3333" fill="#ADD1B2" rx="3.6667" ry="3.6667" style="stroke:#181818;stroke-width:0.3333333333333333;"/><path d="M815.1577,615.381 Q814.964,615.4806 814.751,615.5304 Q814.5379,615.5802 814.3027,615.5802 Q813.4671,615.5802 813.0272,615.0296 Q812.5872,614.479 812.5872,613.4386 Q812.5872,612.3955 813.0272,611.8449 Q813.4671,611.2943 814.3027,611.2943 Q814.5379,611.2943 814.7537,611.3441 Q814.9696,611.3939 815.1577,611.4935 L815.1577,612.401 Q814.9474,612.2074 814.7496,612.1174 Q814.5518,612.0275 814.3415,612.0275 Q813.8932,612.0275 813.665,612.3831 Q813.4367,612.7386 813.4367,613.4386 Q813.4367,614.1359 813.665,614.4915 Q813.8932,614.847 814.3415,614.847 Q814.5518,614.847 814.7496,614.7571 Q814.9474,614.6672 815.1577,614.4735 Z " fill="#000000"/><text fill="#000000" font-family="sans-serif" font-size="4.6667" lengthAdjust="spacing" textLength="11.6667" x="819" y="615.097">Point</text></g><!--class Warship--><g id="elem_Warship"><rect codeLine="237" fill="#F1F1F1" height="10.6667" id="Warship" rx="0.8333" ry="0.8333" style="stroke:#181818;stroke-width:0.16666666666666666;" width="29" x="731.6667" y="612.6667"/><ellipse cx="736.6667" cy="618" fill="#ADD1B2" rx="3.6667" ry="3.6667" style="stroke:#181818;stroke-width:0.3333333333333333;"/><path d="M737.491,620.0477 Q737.2974,620.1473 737.0843,620.1971 Q736.8713,620.2469 736.6361,620.2469 Q735.8005,620.2469 735.3605,619.6963 Q734.9206,619.1457 734.9206,618.1053 Q734.9206,617.0622 735.3605,616.5116 Q735.8005,615.9609 736.6361,615.9609 Q736.8713,615.9609 737.0871,616.0107 Q737.3029,616.0605 737.491,616.1602 L737.491,617.0677 Q737.2808,616.874 737.0829,616.7841 Q736.8851,616.6942 736.6748,616.6942 Q736.2266,616.6942 735.9983,617.0497 Q735.77,617.4053 735.77,618.1053 Q735.77,618.8026 735.9983,619.1581 Q736.2266,619.5137 736.6748,619.5137 Q736.8851,619.5137 737.0829,619.4237 Q737.2808,619.3338 737.491,619.1401 Z " fill="#000000"/><text fill="#000000" font-family="sans-serif" font-size="4.6667" lengthAdjust="spacing" textLength="18.3333" x="741.3333" y="619.7637">Warship</text></g><!--class WarshipDescription--><g id="elem_WarshipDescription"><rect codeLine="248" fill="#F1F1F1" height="10.6667" id="WarshipDescription" rx="0.8333" ry="0.8333" style="stroke:#181818;stroke-width:0.16666666666666666;" width="55" x="487.3333" y="573.3333"/><ellipse cx="492.3333" cy="578.6667" fill="#ADD1B2" rx="3.6667" ry="3.6667" style="stroke:#181818;stroke-width:0.3333333333333333;"/><path d="M493.1577,580.7144 Q492.964,580.814 492.751,580.8638 Q492.5379,580.9136 492.3027,580.9136 Q491.4671,580.9136 491.0272,580.363 Q490.5872,579.8123 490.5872,578.772 Q490.5872,577.7288 491.0272,577.1782 Q491.4671,576.6276 492.3027,576.6276 Q492.5379,576.6276 492.7537,576.6774 Q492.9696,576.7272 493.1577,576.8268 L493.1577,577.7344 Q492.9474,577.5407 492.7496,577.4508 Q492.5518,577.3608 492.3415,577.3608 Q491.8932,577.3608 491.665,577.7164 Q491.4367,578.0719 491.4367,578.772 Q491.4367,579.4692 491.665,579.8248 Q491.8932,580.1803 492.3415,580.1803 Q492.5518,580.1803 492.7496,580.0904 Q492.9474,580.0005 493.1577,579.8068 Z " fill="#000000"/><text fill="#000000" font-family="sans-serif" font-size="4.6667" lengthAdjust="spacing" textLength="44.3333" x="497" y="580.4303">WarshipDescription</text></g><!--class BaseRequestMessage--><g id="elem_BaseRequestMessage"><rect codeLine="259" fill="#F1F1F1" height="10.6667" id="BaseRequestMessage" rx="0.8333" ry="0.8333" style="stroke:#181818;stroke-width:0.16666666666666666;" width="59" x="611" y="487"/><ellipse cx="616" cy="492.3333" fill="#B4A7E5" rx="3.6667" ry="3.6667" style="stroke:#181818;stroke-width:0.3333333333333333;"/><path d="M614.8092,491.0884 L614.8092,490.369 L617.269,490.369 L617.269,491.0884 L616.4473,491.0884 L616.4473,493.7806 L617.269,493.7806 L617.269,494.5 L614.8092,494.5 L614.8092,493.7806 L615.631,493.7806 L615.631,491.0884 Z " fill="#000000"/><text fill="#000000" font-family="sans-serif" font-size="4.6667" font-style="italic" lengthAdjust="spacing" textLength="48.3333" x="620.6667" y="494.097">BaseRequestMessage</text></g><!--class BaseResponseMessage--><g id="elem_BaseResponseMessage"><rect codeLine="263" fill="#F1F1F1" height="10.6667" id="BaseResponseMessage" rx="0.8333" ry="0.8333" style="stroke:#181818;stroke-width:0.16666666666666666;" width="62.6667" x="609.1667" y="509.3333"/><ellipse cx="614.1667" cy="514.6667" fill="#A9DCDF" rx="3.6667" ry="3.6667" style="stroke:#181818;stroke-width:0.3333333333333333;"/><path d="M614.1211,513.116 L613.7365,514.8066 L614.5085,514.8066 Z M613.623,512.369 L614.6219,512.369 L615.737,516.5 L614.9207,516.5 L614.6662,515.479 L613.5732,515.479 L613.3242,516.5 L612.508,516.5 Z " fill="#000000"/><text fill="#000000" font-family="sans-serif" font-size="4.6667" font-style="italic" lengthAdjust="spacing" textLength="52" x="618.8333" y="516.4303">BaseResponseMessage</text></g><!--class MatchUI--><g id="elem_MatchUI"><rect codeLine="272" fill="#F1F1F1" height="10.6667" id="MatchUI" rx="0.8333" ry="0.8333" style="stroke:#181818;stroke-width:0.16666666666666666;" width="29" x="500.3333" y="412.6667"/><ellipse cx="505.3333" cy="418" fill="#ADD1B2" rx="3.6667" ry="3.6667" style="stroke:#181818;stroke-width:0.3333333333333333;"/><path d="M506.1577,420.0477 Q505.964,420.1473 505.751,420.1971 Q505.5379,420.2469 505.3027,420.2469 Q504.4671,420.2469 504.0272,419.6963 Q503.5872,419.1457 503.5872,418.1053 Q503.5872,417.0622 504.0272,416.5116 Q504.4671,415.9609 505.3027,415.9609 Q505.5379,415.9609 505.7537,416.0107 Q505.9696,416.0605 506.1577,416.1602 L506.1577,417.0677 Q505.9474,416.874 505.7496,416.7841 Q505.5518,416.6942 505.3415,416.6942 Q504.8932,416.6942 504.665,417.0497 Q504.4367,417.4053 504.4367,418.1053 Q504.4367,418.8026 504.665,419.1581 Q504.8932,419.5137 505.3415,419.5137 Q505.5518,419.5137 505.7496,419.4237 Q505.9474,419.3338 506.1577,419.1401 Z " fill="#000000"/><text fill="#000000" font-family="sans-serif" font-size="4.6667" lengthAdjust="spacing" textLength="18.3333" x="510" y="419.7637">MatchUI</text></g><!--class NotificationResponseMessage--><g id="elem_NotificationResponseMessage"><rect codeLine="285" fill="#F1F1F1" height="10.6667" id="NotificationResponseMessage" rx="0.8333" ry="0.8333" style="stroke:#181818;stroke-width:0.16666666666666666;" width="78.6667" x="475.5" y="457.3333"/><ellipse cx="480.5" cy="462.6667" fill="#ADD1B2" rx="3.6667" ry="3.6667" style="stroke:#181818;stroke-width:0.3333333333333333;"/><path d="M481.3244,464.7144 Q481.1307,464.814 480.9176,464.8638 Q480.7046,464.9136 480.4694,464.9136 Q479.6338,464.9136 479.1938,464.363 Q478.7539,463.8123 478.7539,462.772 Q478.7539,461.7288 479.1938,461.1782 Q479.6338,460.6276 480.4694,460.6276 Q480.7046,460.6276 480.9204,460.6774 Q481.1362,460.7272 481.3244,460.8268 L481.3244,461.7344 Q481.1141,461.5407 480.9163,461.4508 Q480.7184,461.3608 480.5081,461.3608 Q480.0599,461.3608 479.8316,461.7164 Q479.6034,462.0719 479.6034,462.772 Q479.6034,463.4692 479.8316,463.8248 Q480.0599,464.1803 480.5081,464.1803 Q480.7184,464.1803 480.9163,464.0904 Q481.1141,464.0005 481.3244,463.8068 Z " fill="#000000"/><text fill="#000000" font-family="sans-serif" font-size="4.6667" lengthAdjust="spacing" textLength="68" x="485.1667" y="464.4303">NotificationResponseMessage</text></g><!--class ShotGameOwnerResponseMessage--><g id="elem_ShotGameOwnerResponseMessage"><rect codeLine="294" fill="#F1F1F1" height="10.6667" id="ShotGameOwnerResponseMessage" rx="0.8333" ry="0.8333" style="stroke:#181818;stroke-width:0.16666666666666666;" width="90.6667" x="469.5" y="502"/><ellipse cx="474.5" cy="507.3333" fill="#ADD1B2" rx="3.6667" ry="3.6667" style="stroke:#181818;stroke-width:0.3333333333333333;"/><path d="M475.3244,509.381 Q475.1307,509.4806 474.9176,509.5304 Q474.7046,509.5802 474.4694,509.5802 Q473.6338,509.5802 473.1938,509.0296 Q472.7539,508.479 472.7539,507.4386 Q472.7539,506.3955 473.1938,505.8449 Q473.6338,505.2943 474.4694,505.2943 Q474.7046,505.2943 474.9204,505.3441 Q475.1362,505.3939 475.3244,505.4935 L475.3244,506.401 Q475.1141,506.2074 474.9163,506.1174 Q474.7184,506.0275 474.5081,506.0275 Q474.0599,506.0275 473.8316,506.3831 Q473.6034,506.7386 473.6034,507.4386 Q473.6034,508.1359 473.8316,508.4915 Q474.0599,508.847 474.5081,508.847 Q474.7184,508.847 474.9163,508.7571 Q475.1141,508.6672 475.3244,508.4735 Z " fill="#000000"/><text fill="#000000" font-family="sans-serif" font-size="4.6667" lengthAdjust="spacing" textLength="80" x="479.1667" y="509.097">ShotGameOwnerResponseMessage</text></g><!--class ShotGameRequestMessage--><g id="elem_ShotGameRequestMessage"><rect codeLine="309" fill="#F1F1F1" height="10.6667" id="ShotGameRequestMessage" rx="0.8333" ry="0.8333" style="stroke:#181818;stroke-width:0.16666666666666666;" width="72" x="478.8333" y="435"/><ellipse cx="483.8333" cy="440.3333" fill="#ADD1B2" rx="3.6667" ry="3.6667" style="stroke:#181818;stroke-width:0.3333333333333333;"/><path d="M484.6577,442.381 Q484.464,442.4806 484.251,442.5304 Q484.0379,442.5802 483.8027,442.5802 Q482.9671,442.5802 482.5272,442.0296 Q482.0872,441.479 482.0872,440.4386 Q482.0872,439.3955 482.5272,438.8449 Q482.9671,438.2943 483.8027,438.2943 Q484.0379,438.2943 484.2537,438.3441 Q484.4696,438.3939 484.6577,438.4935 L484.6577,439.401 Q484.4474,439.2074 484.2496,439.1174 Q484.0518,439.0275 483.8415,439.0275 Q483.3932,439.0275 483.165,439.3831 Q482.9367,439.7386 482.9367,440.4386 Q482.9367,441.1359 483.165,441.4915 Q483.3932,441.847 483.8415,441.847 Q484.0518,441.847 484.2496,441.7571 Q484.4474,441.6672 484.6577,441.4735 Z " fill="#000000"/><text fill="#000000" font-family="sans-serif" font-size="4.6667" lengthAdjust="spacing" textLength="61.3333" x="488.5" y="442.097">ShotGameRequestMessage</text></g><!--class ShotGameResponseMessage--><g id="elem_ShotGameResponseMessage"><rect codeLine="321" fill="#F1F1F1" height="10.6667" id="ShotGameResponseMessage" rx="0.8333" ry="0.8333" style="stroke:#181818;stroke-width:0.16666666666666666;" width="75.6667" x="477" y="479.6667"/><ellipse cx="482" cy="485" fill="#ADD1B2" rx="3.6667" ry="3.6667" style="stroke:#181818;stroke-width:0.3333333333333333;"/><path d="M482.8244,487.0477 Q482.6307,487.1473 482.4176,487.1971 Q482.2046,487.2469 481.9694,487.2469 Q481.1338,487.2469 480.6938,486.6963 Q480.2539,486.1457 480.2539,485.1053 Q480.2539,484.0622 480.6938,483.5116 Q481.1338,482.9609 481.9694,482.9609 Q482.2046,482.9609 482.4204,483.0107 Q482.6362,483.0605 482.8244,483.1602 L482.8244,484.0677 Q482.6141,483.874 482.4163,483.7841 Q482.2184,483.6942 482.0081,483.6942 Q481.5599,483.6942 481.3316,484.0497 Q481.1034,484.4053 481.1034,485.1053 Q481.1034,485.8026 481.3316,486.1581 Q481.5599,486.5137 482.0081,486.5137 Q482.2184,486.5137 482.4163,486.4237 Q482.6141,486.3338 482.8244,486.1401 Z " fill="#000000"/><text fill="#000000" font-family="sans-serif" font-size="4.6667" lengthAdjust="spacing" textLength="65" x="486.6667" y="486.7637">ShotGameResponseMessage</text></g><!--class ChatMessageRequest--><g id="elem_ChatMessageRequest"><rect codeLine="336" fill="#F1F1F1" height="10.6667" id="ChatMessageRequest" rx="0.8333" ry="0.8333" style="stroke:#181818;stroke-width:0.16666666666666666;" width="59.3333" x="485.1667" y="529.6667"/><ellipse cx="490.1667" cy="535" fill="#ADD1B2" rx="3.6667" ry="3.6667" style="stroke:#181818;stroke-width:0.3333333333333333;"/><path d="M490.991,537.0477 Q490.7974,537.1473 490.5843,537.1971 Q490.3713,537.2469 490.1361,537.2469 Q489.3005,537.2469 488.8605,536.6963 Q488.4206,536.1457 488.4206,535.1053 Q488.4206,534.0622 488.8605,533.5116 Q489.3005,532.9609 490.1361,532.9609 Q490.3713,532.9609 490.5871,533.0107 Q490.8029,533.0605 490.991,533.1602 L490.991,534.0677 Q490.7808,533.874 490.5829,533.7841 Q490.3851,533.6942 490.1748,533.6942 Q489.7266,533.6942 489.4983,534.0497 Q489.27,534.4053 489.27,535.1053 Q489.27,535.8026 489.4983,536.1581 Q489.7266,536.5137 490.1748,536.5137 Q490.3851,536.5137 490.5829,536.4237 Q490.7808,536.3338 490.991,536.1401 Z " fill="#000000"/><text fill="#000000" font-family="sans-serif" font-size="4.6667" lengthAdjust="spacing" textLength="48.6667" x="494.8333" y="536.7637">ChatMessageRequest</text></g><!--class ActionHistoryRepository--><g id="elem_ActionHistoryRepository"><rect codeLine="346" fill="#F1F1F1" height="10.6667" id="ActionHistoryRepository" rx="0.8333" ry="0.8333" style="stroke:#181818;stroke-width:0.16666666666666666;" width="65.6667" x="482" y="327"/><ellipse cx="487" cy="332.3333" fill="#B4A7E5" rx="3.6667" ry="3.6667" style="stroke:#181818;stroke-width:0.3333333333333333;"/><path d="M485.8092,331.0884 L485.8092,330.369 L488.269,330.369 L488.269,331.0884 L487.4473,331.0884 L487.4473,333.7806 L488.269,333.7806 L488.269,334.5 L485.8092,334.5 L485.8092,333.7806 L486.631,333.7806 L486.631,331.0884 Z " fill="#000000"/><text fill="#000000" font-family="sans-serif" font-size="4.6667" font-style="italic" lengthAdjust="spacing" textLength="55" x="491.6667" y="334.097">ActionHistoryRepository</text></g><!--class MatchRepository--><g id="elem_MatchRepository"><rect codeLine="353" fill="#F1F1F1" height="10.6667" id="MatchRepository" rx="0.8333" ry="0.8333" style="stroke:#181818;stroke-width:0.16666666666666666;" width="48.6667" x="490.5" y="349.3333"/><ellipse cx="495.5" cy="354.6667" fill="#B4A7E5" rx="3.6667" ry="3.6667" style="stroke:#181818;stroke-width:0.3333333333333333;"/><path d="M494.3092,353.4217 L494.3092,352.7023 L496.769,352.7023 L496.769,353.4217 L495.9473,353.4217 L495.9473,356.1139 L496.769,356.1139 L496.769,356.8333 L494.3092,356.8333 L494.3092,356.1139 L495.131,356.1139 L495.131,353.4217 Z " fill="#000000"/><text fill="#000000" font-family="sans-serif" font-size="4.6667" font-style="italic" lengthAdjust="spacing" textLength="38" x="500.1667" y="356.4303">MatchRepository</text></g><!--class PlayerRepository--><g id="elem_PlayerRepository"><rect codeLine="362" fill="#F1F1F1" height="10.6667" id="PlayerRepository" rx="0.8333" ry="0.8333" style="stroke:#181818;stroke-width:0.16666666666666666;" width="48.6667" x="490.5" y="304.6667"/><ellipse cx="495.5" cy="310" fill="#B4A7E5" rx="3.6667" ry="3.6667" style="stroke:#181818;stroke-width:0.3333333333333333;"/><path d="M494.3092,308.755 L494.3092,308.0356 L496.769,308.0356 L496.769,308.755 L495.9473,308.755 L495.9473,311.4473 L496.769,311.4473 L496.769,312.1667 L494.3092,312.1667 L494.3092,311.4473 L495.131,311.4473 L495.131,308.755 Z " fill="#000000"/><text fill="#000000" font-family="sans-serif" font-size="4.6667" font-style="italic" lengthAdjust="spacing" textLength="38" x="500.1667" y="311.7637">PlayerRepository</text></g><!--class ActionHistoryService--><g id="elem_ActionHistoryService"><rect codeLine="368" fill="#F1F1F1" height="10.6667" id="ActionHistoryService" rx="0.8333" ry="0.8333" style="stroke:#181818;stroke-width:0.16666666666666666;" width="57.3333" x="316.8333" y="327"/><ellipse cx="321.8333" cy="332.3333" fill="#ADD1B2" rx="3.6667" ry="3.6667" style="stroke:#181818;stroke-width:0.3333333333333333;"/><path d="M322.6577,334.381 Q322.464,334.4806 322.251,334.5304 Q322.0379,334.5802 321.8027,334.5802 Q320.9671,334.5802 320.5272,334.0296 Q320.0872,333.479 320.0872,332.4386 Q320.0872,331.3955 320.5272,330.8449 Q320.9671,330.2943 321.8027,330.2943 Q322.0379,330.2943 322.2537,330.3441 Q322.4696,330.3939 322.6577,330.4935 L322.6577,331.401 Q322.4474,331.2074 322.2496,331.1174 Q322.0518,331.0275 321.8415,331.0275 Q321.3932,331.0275 321.165,331.3831 Q320.9367,331.7386 320.9367,332.4386 Q320.9367,333.1359 321.165,333.4915 Q321.3932,333.847 321.8415,333.847 Q322.0518,333.847 322.2496,333.7571 Q322.4474,333.6672 322.6577,333.4735 Z " fill="#000000"/><text fill="#000000" font-family="sans-serif" font-size="4.6667" lengthAdjust="spacing" textLength="46.6667" x="326.5" y="334.097">ActionHistoryService</text></g><!--class GameService--><g id="elem_GameService"><rect codeLine="378" fill="#F1F1F1" height="10.6667" id="GameService" rx="0.8333" ry="0.8333" style="stroke:#181818;stroke-width:0.16666666666666666;" width="39.6667" x="325.6667" y="371.6667"/><ellipse cx="330.6667" cy="377" fill="#ADD1B2" rx="3.6667" ry="3.6667" style="stroke:#181818;stroke-width:0.3333333333333333;"/><path d="M331.491,379.0477 Q331.2974,379.1473 331.0843,379.1971 Q330.8713,379.2469 330.6361,379.2469 Q329.8005,379.2469 329.3605,378.6963 Q328.9206,378.1457 328.9206,377.1053 Q328.9206,376.0622 329.3605,375.5116 Q329.8005,374.9609 330.6361,374.9609 Q330.8713,374.9609 331.0871,375.0107 Q331.3029,375.0605 331.491,375.1602 L331.491,376.0677 Q331.2808,375.874 331.0829,375.7841 Q330.8851,375.6942 330.6748,375.6942 Q330.2266,375.6942 329.9983,376.0497 Q329.77,376.4053 329.77,377.1053 Q329.77,377.8026 329.9983,378.1581 Q330.2266,378.5137 330.6748,378.5137 Q330.8851,378.5137 331.0829,378.4237 Q331.2808,378.3338 331.491,378.1401 Z " fill="#000000"/><text fill="#000000" font-family="sans-serif" font-size="4.6667" lengthAdjust="spacing" textLength="29" x="335.3333" y="378.7637">GameService</text></g><!--class MatchService--><g id="elem_MatchService"><rect codeLine="401" fill="#F1F1F1" height="10.6667" id="MatchService" rx="0.8333" ry="0.8333" style="stroke:#181818;stroke-width:0.16666666666666666;" width="40.3333" x="325.3333" y="349.3333"/><ellipse cx="330.3333" cy="354.6667" fill="#ADD1B2" rx="3.6667" ry="3.6667" style="stroke:#181818;stroke-width:0.3333333333333333;"/><path d="M331.1577,356.7144 Q330.964,356.814 330.751,356.8638 Q330.5379,356.9136 330.3027,356.9136 Q329.4671,356.9136 329.0272,356.363 Q328.5872,355.8123 328.5872,354.772 Q328.5872,353.7288 329.0272,353.1782 Q329.4671,352.6276 330.3027,352.6276 Q330.5379,352.6276 330.7537,352.6774 Q330.9696,352.7272 331.1577,352.8268 L331.1577,353.7344 Q330.9474,353.5407 330.7496,353.4508 Q330.5518,353.3608 330.3415,353.3608 Q329.8932,353.3608 329.665,353.7164 Q329.4367,354.0719 329.4367,354.772 Q329.4367,355.4692 329.665,355.8248 Q329.8932,356.1803 330.3415,356.1803 Q330.5518,356.1803 330.7496,356.0904 Q330.9474,356.0005 331.1577,355.8068 Z " fill="#000000"/><text fill="#000000" font-family="sans-serif" font-size="4.6667" lengthAdjust="spacing" textLength="29.6667" x="335" y="356.4303">MatchService</text></g><!--class NotificationService--><g id="elem_NotificationService"><rect codeLine="412" fill="#F1F1F1" height="10.6667" id="NotificationService" rx="0.8333" ry="0.8333" style="stroke:#181818;stroke-width:0.16666666666666666;" width="53" x="319" y="282.3333"/><ellipse cx="324" cy="287.6667" fill="#ADD1B2" rx="3.6667" ry="3.6667" style="stroke:#181818;stroke-width:0.3333333333333333;"/><path d="M324.8244,289.7144 Q324.6307,289.814 324.4176,289.8638 Q324.2046,289.9136 323.9694,289.9136 Q323.1338,289.9136 322.6938,289.363 Q322.2539,288.8123 322.2539,287.772 Q322.2539,286.7288 322.6938,286.1782 Q323.1338,285.6276 323.9694,285.6276 Q324.2046,285.6276 324.4204,285.6774 Q324.6362,285.7272 324.8244,285.8268 L324.8244,286.7344 Q324.6141,286.5407 324.4163,286.4508 Q324.2184,286.3608 324.0081,286.3608 Q323.5599,286.3608 323.3316,286.7164 Q323.1034,287.0719 323.1034,287.772 Q323.1034,288.4692 323.3316,288.8248 Q323.5599,289.1803 324.0081,289.1803 Q324.2184,289.1803 324.4163,289.0904 Q324.6141,289.0005 324.8244,288.8068 Z " fill="#000000"/><text fill="#000000" font-family="sans-serif" font-size="4.6667" lengthAdjust="spacing" textLength="42.3333" x="328.6667" y="289.4303">NotificationService</text></g><!--class PlayerService--><g id="elem_PlayerService"><rect codeLine="419" fill="#F1F1F1" height="10.6667" id="PlayerService" rx="0.8333" ry="0.8333" style="stroke:#181818;stroke-width:0.16666666666666666;" width="40.3333" x="325.3333" y="304.6667"/><ellipse cx="330.3333" cy="310" fill="#ADD1B2" rx="3.6667" ry="3.6667" style="stroke:#181818;stroke-width:0.3333333333333333;"/><path d="M331.1577,312.0477 Q330.964,312.1473 330.751,312.1971 Q330.5379,312.2469 330.3027,312.2469 Q329.4671,312.2469 329.0272,311.6963 Q328.5872,311.1457 328.5872,310.1053 Q328.5872,309.0622 329.0272,308.5116 Q329.4671,307.9609 330.3027,307.9609 Q330.5379,307.9609 330.7537,308.0107 Q330.9696,308.0605 331.1577,308.1602 L331.1577,309.0677 Q330.9474,308.874 330.7496,308.7841 Q330.5518,308.6942 330.3415,308.6942 Q329.8932,308.6942 329.665,309.0497 Q329.4367,309.4053 329.4367,310.1053 Q329.4367,310.8026 329.665,311.1581 Q329.8932,311.5137 330.3415,311.5137 Q330.5518,311.5137 330.7496,311.4237 Q330.9474,311.3338 331.1577,311.1401 Z " fill="#000000"/><text fill="#000000" font-family="sans-serif" font-size="4.6667" lengthAdjust="spacing" textLength="29.6667" x="335" y="311.7637">PlayerService</text></g><!--class SeaBattleService--><g id="elem_SeaBattleService"><rect codeLine="429" fill="#F1F1F1" height="10.6667" id="SeaBattleService" rx="0.8333" ry="0.8333" style="stroke:#181818;stroke-width:0.16666666666666666;" width="47.3333" x="195.1667" y="339.3333"/><ellipse cx="200.1667" cy="344.6667" fill="#ADD1B2" rx="3.6667" ry="3.6667" style="stroke:#181818;stroke-width:0.3333333333333333;"/><path d="M200.991,346.7144 Q200.7974,346.814 200.5843,346.8638 Q200.3713,346.9136 200.1361,346.9136 Q199.3005,346.9136 198.8605,346.363 Q198.4206,345.8123 198.4206,344.772 Q198.4206,343.7288 198.8605,343.1782 Q199.3005,342.6276 200.1361,342.6276 Q200.3713,342.6276 200.5871,342.6774 Q200.8029,342.7272 200.991,342.8268 L200.991,343.7344 Q200.7808,343.5407 200.5829,343.4508 Q200.3851,343.3608 200.1748,343.3608 Q199.7266,343.3608 199.4983,343.7164 Q199.27,344.0719 199.27,344.772 Q199.27,345.4692 199.4983,345.8248 Q199.7266,346.1803 200.1748,346.1803 Q200.3851,346.1803 200.5829,346.0904 Q200.7808,346.0005 200.991,345.8068 Z " fill="#000000"/><text fill="#000000" font-family="sans-serif" font-size="4.6667" lengthAdjust="spacing" textLength="36.6667" x="204.8333" y="346.4303">SeaBattleService</text></g><!--class ValidatorService--><g id="elem_ValidatorService"><rect codeLine="458" fill="#F1F1F1" height="10.6667" id="ValidatorService" rx="0.8333" ry="0.8333" style="stroke:#181818;stroke-width:0.16666666666666666;" width="47.3333" x="321.8333" y="394"/><ellipse cx="326.8333" cy="399.3333" fill="#ADD1B2" rx="3.6667" ry="3.6667" style="stroke:#181818;stroke-width:0.3333333333333333;"/><path d="M327.6577,401.381 Q327.464,401.4806 327.251,401.5304 Q327.0379,401.5802 326.8027,401.5802 Q325.9671,401.5802 325.5272,401.0296 Q325.0872,400.479 325.0872,399.4386 Q325.0872,398.3955 325.5272,397.8449 Q325.9671,397.2943 326.8027,397.2943 Q327.0379,397.2943 327.2537,397.3441 Q327.4696,397.3939 327.6577,397.4935 L327.6577,398.401 Q327.4474,398.2074 327.2496,398.1174 Q327.0518,398.0275 326.8415,398.0275 Q326.3932,398.0275 326.165,398.3831 Q325.9367,398.7386 325.9367,399.4386 Q325.9367,400.1359 326.165,400.4915 Q326.3932,400.847 326.8415,400.847 Q327.0518,400.847 327.2496,400.7571 Q327.4474,400.6672 327.6577,400.4735 Z " fill="#000000"/><text fill="#000000" font-family="sans-serif" font-size="4.6667" lengthAdjust="spacing" textLength="36.6667" x="331.5" y="401.097">ValidatorService</text></g><!--reverse link GameController to NotificationService--><g id="link_GameController_NotificationService"><path codeLine="466" d="M120.8027,298.2917 C153.4927,295.9017 210.83,291.95 263.1667,289.6667 C281.7667,288.8567 302.76,288.35 318.8467,288.0533 " fill="none" id="GameController-backto-NotificationService" style="stroke:#181818;stroke-width:0.3333333333333333;"/><polygon fill="#181818" points="116.8133,298.5833,118.9052,299.7673,120.8027,298.2917,118.7108,297.1077,116.8133,298.5833" style="stroke:#181818;stroke-width:0.3333333333333333;"/><text fill="#000000" font-family="sans-serif" font-size="4.3333" lengthAdjust="spacing" textLength="39" x="199.3333" y="288.7495">notificationService</text></g><!--reverse link GameController to SeaBattleService--><g id="link_GameController_SeaBattleService"><path codeLine="467" d="M112.7232,307.1506 C136.7598,315.6773 179.0667,330.68 203.0833,339.2 " fill="none" id="GameController-backto-SeaBattleService" style="stroke:#181818;stroke-width:0.3333333333333333;"/><polygon fill="#181818" points="108.9533,305.8133,110.3925,307.7386,112.7232,307.1506,111.284,305.2254,108.9533,305.8133" style="stroke:#181818;stroke-width:0.3333333333333333;"/><text fill="#000000" font-family="sans-serif" font-size="4.3333" lengthAdjust="spacing" textLength="33.3333" x="141.5" y="317.3861">seaBattleService</text></g><!--link ActionHistoryDao to MatchDao--><g id="link_ActionHistoryDao_MatchDao"><path codeLine="468" d="M534.9733,128.16 C559.5167,134.9667 598.9528,145.902 621.8161,152.2453 " fill="none" id="ActionHistoryDao-to-MatchDao" style="stroke:#181818;stroke-width:0.3333333333333333;"/><polygon fill="#181818" points="623.7433,152.78,621.209,150.6932,622.1373,152.3344,620.4961,153.2628,623.7433,152.78" style="stroke:#181818;stroke-width:0.3333333333333333;"/><text fill="#000000" font-family="sans-serif" font-size="4.3333" lengthAdjust="spacing" textLength="28.3333" x="570.5" y="131.7795">@ManyToOne</text><text fill="#000000" font-family="sans-serif" font-size="4.3333" lengthAdjust="spacing" textLength="13" x="578.1667" y="136.883">match</text></g><!--link ActionHistoryDao to PlayerDao--><g id="link_ActionHistoryDao_PlayerDao"><path codeLine="469" d="M540.14,122.74 C583.3933,122.66 668.7133,121.4967 679.8333,113.6667 C682.33,111.91 679.9567,109.0233 682.5,107.3333 C693.2367,100.2033 699.0933,103.84 711.5,107.3333 C722.1933,110.3433 731.2758,116.4788 737.8158,121.6322 " fill="none" id="ActionHistoryDao-to-PlayerDao" style="stroke:#181818;stroke-width:0.3333333333333333;"/><polygon fill="#181818" points="739.3867,122.87,737.8555,119.966,738.0776,121.8385,736.2051,122.0605,739.3867,122.87" style="stroke:#181818;stroke-width:0.3333333333333333;"/><text fill="#000000" font-family="sans-serif" font-size="4.3333" lengthAdjust="spacing" textLength="28.3333" x="626.3333" y="107.5228">@ManyToOne</text><text fill="#000000" font-family="sans-serif" font-size="4.3333" lengthAdjust="spacing" textLength="12.6667" x="634.1667" y="112.6263">player</text></g><!--link ActionHistoryDao to AbstractDao--><g id="link_ActionHistoryDao_AbstractDao"><path codeLine="470" d="M533.9567,117.1867 C552.7833,112 582.6967,104.5867 609.1667,101.6667 C684.1433,93.3933 704.8733,99.4967 778.1667,117.3333 C785.6733,119.16 788.103,119.7516 795.2697,121.6483 " fill="none" id="ActionHistoryDao-to-AbstractDao" style="stroke:#181818;stroke-width:0.3333333333333333;"/><polygon fill="none" points="801.07,123.1833,795.7814,119.7148,794.758,123.5817,801.07,123.1833" style="stroke:#181818;stroke-width:0.3333333333333333;"/></g><!--link MatchDao to PlayerDao--><g id="link_MatchDao_PlayerDao"><path codeLine="471" d="M657.3233,152.1633 C665.1467,148.94 674.03,144.0433 679.8333,137 C682.4867,133.78 679.1567,130.4967 682.5,128 C695.8467,118.0333 713.6293,119.5242 727.516,122.7742 " fill="none" id="MatchDao-to-PlayerDao" style="stroke:#181818;stroke-width:0.3333333333333333;"/><polygon fill="#181818" points="729.4633,123.23,726.8461,121.2481,727.8405,122.8502,726.2384,123.8446,729.4633,123.23" style="stroke:#181818;stroke-width:0.3333333333333333;"/><text fill="#000000" font-family="sans-serif" font-size="4.3333" lengthAdjust="spacing" textLength="28.3333" x="682.8333" y="114.4595">@ManyToOne</text><text fill="#000000" font-family="sans-serif" font-size="4.3333" lengthAdjust="spacing" textLength="20" x="687" y="119.563">opponent</text></g><!--link MatchDao to PlayerDao--><g id="link_MatchDao_PlayerDao"><path codeLine="472" d="M655.9567,162.8267 C670.72,167.27 693.5267,171.6467 711.5,164 C726.0533,157.81 736.3601,143.7873 741.6034,135.4339 " fill="none" id="MatchDao-to-PlayerDao-1" style="stroke:#181818;stroke-width:0.3333333333333333;"/><polygon fill="#181818" points="742.6667,133.74,739.9425,135.5721,741.7806,135.1516,742.201,136.9898,742.6667,133.74" style="stroke:#181818;stroke-width:0.3333333333333333;"/><text fill="#000000" font-family="sans-serif" font-size="4.3333" lengthAdjust="spacing" textLength="28.3333" x="682.8333" y="157.8561">@ManyToOne</text><text fill="#000000" font-family="sans-serif" font-size="4.3333" lengthAdjust="spacing" textLength="12.6667" x="690.6667" y="162.9596">owner</text></g><!--link MatchDao to PlayerDao--><g id="link_MatchDao_PlayerDao"><path codeLine="473" d="M657.28,154.2833 C671.71,151.45 693.19,146.8433 711.5,141.3333 C718.58,139.2033 724.4336,137.069 730.7536,134.569 " fill="none" id="MatchDao-to-PlayerDao-2" style="stroke:#181818;stroke-width:0.3333333333333333;"/><polygon fill="#181818" points="732.6133,133.8333,729.3332,133.697,731.0635,134.4464,730.3141,136.1767,732.6133,133.8333" style="stroke:#181818;stroke-width:0.3333333333333333;"/><text fill="#000000" font-family="sans-serif" font-size="4.3333" lengthAdjust="spacing" textLength="28.3333" x="682.8333" y="135.1895">@ManyToOne</text><text fill="#000000" font-family="sans-serif" font-size="4.3333" lengthAdjust="spacing" textLength="14" x="690" y="140.293">winner</text></g><!--link MatchDao to MatchStatus--><g id="link_MatchDao_MatchStatus"><path codeLine="474" d="M643.16,162.78 C653.5267,187.34 695.67,290.4367 711.5,379.6667 C712.6933,386.3833 709.7533,435.7967 714.1667,441 C717.3633,444.77 720.1446,446.3491 724.9879,447.3058 " fill="none" id="MatchDao-to-MatchStatus" style="stroke:#181818;stroke-width:0.3333333333333333;"/><polygon fill="#181818" points="726.95,447.6933,724.2652,445.8039,725.3149,447.3704,723.7485,448.4201,726.95,447.6933" style="stroke:#181818;stroke-width:0.3333333333333333;"/><text fill="#000000" font-family="sans-serif" font-size="4.3333" lengthAdjust="spacing" textLength="13" x="690.5" y="267.6628">status</text></g><!--link MatchDao to AbstractDao--><g id="link_MatchDao_AbstractDao"><path codeLine="475" d="M653.89,162.8 C661.9733,165.8833 672.6533,169.4267 682.5,171 C695.2267,173.0333 698.8367,173.3967 711.5,171 C749.5367,163.8 785.9884,146.3711 804.7451,136.5744 " fill="none" id="MatchDao-to-AbstractDao" style="stroke:#181818;stroke-width:0.3333333333333333;"/><polygon fill="none" points="810.0633,133.7967,803.8191,134.8017,805.671,138.3472,810.0633,133.7967" style="stroke:#181818;stroke-width:0.3333333333333333;"/></g><!--link PlayerDao to AbstractDao--><g id="link_PlayerDao_AbstractDao"><path codeLine="476" d="M762.94,128.3333 C774.22,128.3333 783.2267,128.3333 795.04,128.3333 " fill="none" id="PlayerDao-to-AbstractDao" style="stroke:#181818;stroke-width:0.3333333333333333;"/><polygon fill="none" points="801.04,128.3333,795.04,126.3333,795.04,130.3333,801.04,128.3333" style="stroke:#181818;stroke-width:0.3333333333333333;"/></g><!--link Match to Player--><g id="link_Match_Player"><path codeLine="477" d="M652.8067,393.86 C660.9633,396.6467 671.7133,401.1133 679.8333,407.3333 C681.34,408.4867 680.79,409.8433 682.5,410.6667 C698.9033,418.55 718.6132,416.2523 731.8799,413.339 " fill="none" id="Match-to-Player" style="stroke:#181818;stroke-width:0.3333333333333333;"/><polygon fill="#181818" points="733.8333,412.91,730.6172,412.2512,732.2055,413.2675,731.1891,414.8558,733.8333,412.91" style="stroke:#181818;stroke-width:0.3333333333333333;"/><text fill="#000000" font-family="sans-serif" font-size="4.3333" lengthAdjust="spacing" textLength="20" x="687" y="409.5228">opponent</text></g><!--link Match to Player--><g id="link_Match_Player"><path codeLine="478" d="M652.7767,392.5333 C672.9867,396.2533 711.7331,403.3878 731.9364,407.1078 " fill="none" id="Match-to-Player-1" style="stroke:#181818;stroke-width:0.3333333333333333;"/><polygon fill="#181818" points="733.9033,407.47,731.1944,405.6155,732.2642,407.1682,730.7115,408.238,733.9033,407.47" style="stroke:#181818;stroke-width:0.3333333333333333;"/><text fill="#000000" font-family="sans-serif" font-size="4.3333" lengthAdjust="spacing" textLength="12.6667" x="690.6667" y="397.1261">owner</text></g><!--link Match to Player--><g id="link_Match_Player"><path codeLine="479" d="M652.78,392.37 C661.6433,394.53 673.2867,398.8567 679.8333,407.3333 C684.5067,413.3867 676.6867,419.3633 682.5,424.3333 C698.6233,438.1267 723.5563,424.855 736.5463,416.245 " fill="none" id="Match-to-Player-2" style="stroke:#181818;stroke-width:0.3333333333333333;"/><polygon fill="#181818" points="738.2133,415.14,734.9761,415.6861,736.8241,416.0608,736.4494,417.9088,738.2133,415.14" style="stroke:#181818;stroke-width:0.3333333333333333;"/><text fill="#000000" font-family="sans-serif" font-size="4.3333" lengthAdjust="spacing" textLength="14" x="690" y="423.1895">winner</text></g><!--link Match to MatchStatus--><g id="link_Match_MatchStatus"><path codeLine="480" d="M652.7633,392.2 C661.7433,394.2767 673.5433,398.5733 679.8333,407.3333 C683.8667,412.95 677.76,433.3 682.5,438.3333 C693.62,450.15 710.6615,451.6628 724.9682,450.6628 " fill="none" id="Match-to-MatchStatus" style="stroke:#181818;stroke-width:0.3333333333333333;"/><polygon fill="#181818" points="726.9633,450.5233,723.8777,449.4024,725.3007,450.6395,724.0636,452.0626,726.9633,450.5233" style="stroke:#181818;stroke-width:0.3333333333333333;"/><text fill="#000000" font-family="sans-serif" font-size="4.3333" lengthAdjust="spacing" textLength="13" x="690.5" y="437.1895">status</text></g><!--link CustomFleet to Fleet--><g id="link_CustomFleet_Fleet"><path codeLine="481" d="M534.56,641.3733 C561.3033,635.4533 606.6273,625.4222 627.6373,620.7722 " fill="none" id="CustomFleet-to-Fleet" style="stroke:#181818;stroke-width:0.3333333333333333;"/><polygon fill="#181818" points="629.59,620.34,626.3728,619.6865,627.9627,620.7002,626.949,622.2901,629.59,620.34" style="stroke:#181818;stroke-width:0.3333333333333333;"/><text fill="#000000" font-family="sans-serif" font-size="4.3333" lengthAdjust="spacing" textLength="9.3333" x="580" y="626.5961">fleet</text></g><!--reverse link Fleet to Warship--><g id="link_Fleet_Warship"><path codeLine="482" d="M655.48,618 C674.4833,618 710.25,618 731.5833,618 " fill="none" id="Fleet-backto-Warship" style="stroke:#181818;stroke-width:0.3333333333333333;"/><polygon fill="none" points="651.48,618,653.48,619.3333,655.48,618,653.48,616.6667,651.48,618" style="stroke:#181818;stroke-width:0.3333333333333333;"/><text fill="#000000" font-family="sans-serif" font-size="4.3333" lengthAdjust="spacing" textLength="18.6667" x="687.6667" y="616.8561">warships</text><text fill="#000000" font-family="sans-serif" font-size="4.3333" lengthAdjust="spacing" textLength="2.6667" x="654.0196" y="622.7158">1</text><text fill="#000000" font-family="sans-serif" font-size="4.3333" lengthAdjust="spacing" textLength="7.3333" x="721.6836" y="622.5483">0..*</text></g><!--reverse link MatchFleet to Fleet--><g id="link_MatchFleet_Fleet"><path codeLine="483" d="M536.5102,603.9024 C562.8068,607.4791 607.96,613.62 629.5367,616.5533 " fill="none" id="MatchFleet-backto-Fleet" style="stroke:#181818;stroke-width:0.3333333333333333;"/><polygon fill="none" points="532.5467,603.3633,534.3487,604.954,536.5102,603.9024,534.7081,602.3117,532.5467,603.3633" style="stroke:#181818;stroke-width:0.3333333333333333;"/><text fill="#000000" font-family="sans-serif" font-size="4.3333" lengthAdjust="spacing" textLength="28.3333" x="570.5" y="607.3395">userIdToFleet</text><text fill="#000000" font-family="sans-serif" font-size="4.3333" lengthAdjust="spacing" textLength="2.6667" x="535.2251" y="608.244">1</text><text fill="#000000" font-family="sans-serif" font-size="4.3333" lengthAdjust="spacing" textLength="7.3333" x="619.6888" y="620.9327">0..*</text></g><!--reverse link Warship to Point--><g id="link_Warship_Point"><path codeLine="484" d="M764.739,622.8282 C773.5257,624.7349 781.0767,625.41 791.1667,623.6667 C797.33,622.6 803.9167,620.3533 809.2533,618.2233 " fill="none" id="Warship-backto-Point" style="stroke:#181818;stroke-width:0.3333333333333333;"/><polygon fill="#181818" points="760.83,621.98,762.5018,623.7071,764.739,622.8282,763.0673,621.1011,760.83,621.98" style="stroke:#181818;stroke-width:0.3333333333333333;"/><text fill="#000000" font-family="sans-serif" font-size="4.3333" lengthAdjust="spacing" textLength="9.6667" x="781.1667" y="622.5228">start</text></g><!--link Warship to Point--><g id="link_Warship_Point"><path codeLine="485" d="M760.79,617.0933 C774.9767,616.1967 794.4107,614.9667 807.274,614.1501 " fill="none" id="Warship-to-Point" style="stroke:#181818;stroke-width:0.3333333333333333;"/><polygon fill="#181818" points="809.27,614.0233,806.1915,612.8828,807.6067,614.1289,806.3605,615.5441,809.27,614.0233" style="stroke:#181818;stroke-width:0.3333333333333333;"/><text fill="#000000" font-family="sans-serif" font-size="4.3333" lengthAdjust="spacing" textLength="7.6667" x="782.1667" y="614.1061">end</text></g><!--link BaseResponseMessage to Status--><g id="link_BaseResponseMessage_Status"><path codeLine="486" d="M666.6533,509.1733 C688.0267,504.63 715.4805,498.7895 731.7738,495.3229 " fill="none" id="BaseResponseMessage-to-Status" style="stroke:#181818;stroke-width:0.3333333333333333;"/><polygon fill="#181818" points="733.73,494.9067,730.5182,494.2268,732.0998,495.2535,731.0732,496.8351,733.73,494.9067" style="stroke:#181818;stroke-width:0.3333333333333333;"/><text fill="#000000" font-family="sans-serif" font-size="4.3333" lengthAdjust="spacing" textLength="13" x="690.5" y="499.0495">status</text></g><!--link MatchUI to MatchStatus--><g id="link_MatchUI_MatchStatus"><path codeLine="487" d="M529.47,421.0033 C566.9967,428.9433 666.3167,450.3533 679.8333,457.3333 C681.2333,458.0567 681.0267,459.1133 682.5,459.6667 C694.5667,464.2 698.7933,461.8233 711.5,459.6667 C713.5533,459.3167 720.7358,456.8198 729.0358,453.8198 " fill="none" id="MatchUI-to-MatchStatus" style="stroke:#181818;stroke-width:0.3333333333333333;"/><polygon fill="#181818" points="730.9167,453.14,727.6421,452.9058,729.3492,453.7065,728.5485,455.4137,730.9167,453.14" style="stroke:#181818;stroke-width:0.3333333333333333;"/><text fill="#000000" font-family="sans-serif" font-size="4.3333" lengthAdjust="spacing" textLength="26" x="627.5" y="437.4261">matchStatus</text></g><!--link NotificationResponseMessage to TypeNotification--><g id="link_NotificationResponseMessage_TypeNotification"><path codeLine="488" d="M554.2967,463.91 C602.37,465.44 680.411,467.9198 720.0677,469.1798 " fill="none" id="NotificationResponseMessage-to-TypeNotification" style="stroke:#181818;stroke-width:0.3333333333333333;"/><polygon fill="#181818" points="722.0667,469.2433,719.1105,467.8154,720.4008,469.1904,719.0258,470.4807,722.0667,469.2433" style="stroke:#181818;stroke-width:0.3333333333333333;"/><text fill="#000000" font-family="sans-serif" font-size="4.3333" lengthAdjust="spacing" textLength="9" x="636" y="464.5195">type</text></g><!--link NotificationResponseMessage to BaseResponseMessage--><g id="link_NotificationResponseMessage_BaseResponseMessage"><path codeLine="489" d="M546.0067,468.1433 C550.91,469.6567 555.8,471.5733 560.1667,474 C565.57,477.0033 565.1133,480.1067 570.1667,483.6667 C581.92,491.9467 586.3767,491.43 599.1667,498 C603.6467,500.3 604.5667,501.28 609.1667,503.3333 C613.8767,505.4367 613.4621,505.4198 618.2654,507.1598 " fill="none" id="NotificationResponseMessage-to-BaseResponseMessage" style="stroke:#181818;stroke-width:0.3333333333333333;"/><polygon fill="none" points="623.9067,509.2033,618.9466,505.2794,617.5842,509.0402,623.9067,509.2033" style="stroke:#181818;stroke-width:0.3333333333333333;"/></g><!--link ShotGameOwnerResponseMessage to BaseResponseMessage--><g id="link_ShotGameOwnerResponseMessage_BaseResponseMessage"><path codeLine="490" d="M560.2933,509.98 C576.4833,510.93 588.3736,511.6289 603.1036,512.4923 " fill="none" id="ShotGameOwnerResponseMessage-to-BaseResponseMessage" style="stroke:#181818;stroke-width:0.3333333333333333;"/><polygon fill="none" points="609.0933,512.8433,603.2206,510.4957,602.9866,514.4888,609.0933,512.8433" style="stroke:#181818;stroke-width:0.3333333333333333;"/></g><!--link ShotGameRequestMessage to BaseRequestMessage--><g id="link_ShotGameRequestMessage_BaseRequestMessage"><path codeLine="491" d="M541.5633,445.8267 C547.76,447.43 554.27,449.38 560.1667,451.6667 C583.2167,460.6067 587.0467,466.9567 609.1667,478 C615.2667,481.0467 616.6818,481.7624 622.4051,484.3657 " fill="none" id="ShotGameRequestMessage-to-BaseRequestMessage" style="stroke:#181818;stroke-width:0.3333333333333333;stroke-dasharray:7.0,7.0;"/><polygon fill="none" points="627.8667,486.85,623.2332,482.5452,621.577,486.1863,627.8667,486.85" style="stroke:#181818;stroke-width:0.3333333333333333;"/></g><!--link ShotGameResponseMessage to BaseResponseMessage--><g id="link_ShotGameResponseMessage_BaseResponseMessage"><path codeLine="492" d="M538.24,490.4767 C560.6733,495.8 588.7188,502.4579 611.1788,507.7879 " fill="none" id="ShotGameResponseMessage-to-BaseResponseMessage" style="stroke:#181818;stroke-width:0.3333333333333333;"/><polygon fill="none" points="617.0167,509.1733,611.6406,505.842,610.717,509.7339,617.0167,509.1733" style="stroke:#181818;stroke-width:0.3333333333333333;"/></g><!--reverse link ActionHistoryService to ActionHistoryMapper--><g id="link_ActionHistoryService_ActionHistoryMapper"><path codeLine="493" d="M377.7747,325.0453 C380.7481,323.5386 379.93,323.4333 382.1667,321 C385.8633,316.98 380.86,312.75 384.8333,309 C406.45,288.6133 431.05,320.5033 450.8333,298.3333 C455.08,293.5733 449.31,245.8067 453.5,241 C461.32,232.0267 473.7533,228.6867 485.3633,227.7933 " fill="none" id="ActionHistoryService-backto-ActionHistoryMapper" style="stroke:#181818;stroke-width:0.3333333333333333;"/><polygon fill="#181818" points="374.2067,326.8533,376.5934,327.1387,377.7747,325.0453,375.388,324.76,374.2067,326.8533" style="stroke:#181818;stroke-width:0.3333333333333333;"/><text fill="#000000" font-family="sans-serif" font-size="4.3333" lengthAdjust="spacing" textLength="15.6667" x="410" y="297.1895">mapper</text></g><!--reverse link ActionHistoryService to ActionHistoryRepository--><g id="link_ActionHistoryService_ActionHistoryRepository"><path codeLine="494" d="M378.2499,334.7352 C381.8099,334.9418 381.4067,334.8833 384.8333,335 C417.8567,336.1267 455.63,335.0867 481.8533,333.9933 " fill="none" id="ActionHistoryService-backto-ActionHistoryRepository" style="stroke:#181818;stroke-width:0.3333333333333333;"/><polygon fill="#181818" points="374.2567,334.5033,376.176,335.9503,378.2499,334.7352,376.3306,333.2882,374.2567,334.5033" style="stroke:#181818;stroke-width:0.3333333333333333;"/><text fill="#000000" font-family="sans-serif" font-size="4.3333" lengthAdjust="spacing" textLength="50.6667" x="392.5" y="333.8561">actionHistoryRepository</text></g><!--reverse link GameService to WarshipDescription--><g id="link_GameService_WarshipDescription"><path codeLine="495" d="M369.2683,381.8571 C375.0016,383.5571 377.22,384.8567 382.1667,388.3333 C423.5267,417.3933 433.78,431.4133 450.8333,479 C453.3333,485.98 449.5767,539.3767 453.5,545.6667 C462.3533,559.87 479.5767,568.3767 493.47,573.1867 " fill="none" id="GameService-backto-WarshipDescription" style="stroke:#181818;stroke-width:0.3333333333333333;"/><polygon fill="none" points="365.4333,380.72,366.9718,382.5669,369.2683,381.8571,367.7299,380.0102,365.4333,380.72" style="stroke:#181818;stroke-width:0.3333333333333333;"/><text fill="#000000" font-family="sans-serif" font-size="4.3333" lengthAdjust="spacing" textLength="58.6667" x="388.5" y="390.6061">warshipDescriptionsForMini</text><text fill="#000000" font-family="sans-serif" font-size="4.3333" lengthAdjust="spacing" textLength="2.6667" x="368.0252" y="385.6738">1</text><text fill="#000000" font-family="sans-serif" font-size="4.3333" lengthAdjust="spacing" textLength="7.3333" x="477.8455" y="569.7499">0..*</text></g><!--reverse link GameService to WarshipDescription--><g id="link_GameService_WarshipDescription"><path codeLine="496" d="M369.308,379.5805 C375.648,381.1371 378.18,383.0633 382.1667,388.3333 C388.8067,397.11 380.08,477.41 384.8333,487.3333 C407.5867,534.8267 468.71,562.3333 498.1767,573.21 " fill="none" id="GameService-backto-WarshipDescription-1" style="stroke:#181818;stroke-width:0.3333333333333333;"/><polygon fill="none" points="365.4233,378.6267,367.0477,380.3984,369.308,379.5805,367.6836,377.8087,365.4233,378.6267" style="stroke:#181818;stroke-width:0.3333333333333333;"/><text fill="#000000" font-family="sans-serif" font-size="4.3333" lengthAdjust="spacing" textLength="65.3333" x="385.1667" y="486.1895">warshipDescriptionsForRegular</text><text fill="#000000" font-family="sans-serif" font-size="4.3333" lengthAdjust="spacing" textLength="2.6667" x="368.014" y="377.716">1</text><text fill="#000000" font-family="sans-serif" font-size="4.3333" lengthAdjust="spacing" textLength="7.3333" x="493.8737" y="569.781">0..*</text></g><!--reverse link MatchService to MatchMapper--><g id="link_MatchService_MatchMapper"><path codeLine="497" d="M369.631,351.4736 C375.691,349.8536 377.9833,348.1 382.1667,343.3333 C386.73,338.1333 379.96,332.91 384.8333,328 C405.8333,306.8367 429.9767,337.3033 450.8333,316 C456.08,310.64 448.84,305.2133 453.5,299.3333 C463.3467,286.91 480.3933,280.6133 493.9667,277.4467 " fill="none" id="MatchService-backto-MatchMapper" style="stroke:#181818;stroke-width:0.3333333333333333;"/><polygon fill="#181818" points="365.7667,352.5067,368.0432,353.2783,369.631,351.4736,367.3545,350.702,365.7667,352.5067" style="stroke:#181818;stroke-width:0.3333333333333333;"/><text fill="#000000" font-family="sans-serif" font-size="4.3333" lengthAdjust="spacing" textLength="28.3333" x="403.6667" y="314.8561">matchMapper</text></g><!--reverse link MatchService to MatchRepository--><g id="link_MatchService_MatchRepository"><path codeLine="498" d="M369.6767,354.6667 C400.7667,354.6667 456.8533,354.6667 490.3867,354.6667 " fill="none" id="MatchService-backto-MatchRepository" style="stroke:#181818;stroke-width:0.3333333333333333;"/><polygon fill="#181818" points="365.6767,354.6667,367.6767,356,369.6767,354.6667,367.6767,353.3333,365.6767,354.6667" style="stroke:#181818;stroke-width:0.3333333333333333;"/><text fill="#000000" font-family="sans-serif" font-size="4.3333" lengthAdjust="spacing" textLength="35.3333" x="400.1667" y="353.5228">matchRepository</text></g><!--reverse link PlayerService to PlayerMapper--><g id="link_PlayerService_PlayerMapper"><path codeLine="499" d="M369.6438,307.0436 C375.7771,305.4436 378.1067,303.6267 382.1667,298.6667 C385.8,294.23 382.0733,278.0267 384.8333,273 C403.5767,238.8933 418.07,234.7667 453.5,218.6667 C466.2,212.8967 481.66,210.0633 493.84,208.6733 " fill="none" id="PlayerService-backto-PlayerMapper" style="stroke:#181818;stroke-width:0.3333333333333333;"/><polygon fill="#181818" points="365.7733,308.0533,368.0451,308.8386,369.6438,307.0436,367.372,306.2583,365.7733,308.0533" style="stroke:#181818;stroke-width:0.3333333333333333;"/><text fill="#000000" font-family="sans-serif" font-size="4.3333" lengthAdjust="spacing" textLength="15.6667" x="410" y="219.3995">mapper</text></g><!--reverse link PlayerService to PlayerRepository--><g id="link_PlayerService_PlayerRepository"><path codeLine="500" d="M369.6558,306.3402 C375.5724,304.6868 377.7833,303.0667 382.1667,298.6667 C385.01,295.81 381.59,292.3933 384.8333,290 C408.43,272.5733 421.84,285.5533 450.8333,290 C468.7567,292.75 488.56,299.61 501.2467,304.53 " fill="none" id="PlayerService-backto-PlayerRepository" style="stroke:#181818;stroke-width:0.3333333333333333;"/><polygon fill="#181818" points="365.8033,307.4167,368.0884,308.1626,369.6558,306.3402,367.3707,305.5943,365.8033,307.4167" style="stroke:#181818;stroke-width:0.3333333333333333;"/><text fill="#000000" font-family="sans-serif" font-size="4.3333" lengthAdjust="spacing" textLength="35" x="400.3333" y="280.0261">playerRepository</text></g><!--reverse link SeaBattleService to MatchFleet--><g id="link_SeaBattleService_MatchFleet"><path codeLine="501" d="M224.2982,353.5674 C239.2916,379.3374 304.51,487.1433 384.8333,553.6667 C411.3733,575.6467 420.9367,578.3933 453.5,589.6667 C467.75,594.6 484.6567,597.5267 497.0533,599.1667 " fill="none" id="SeaBattleService-backto-MatchFleet" style="stroke:#181818;stroke-width:0.3333333333333333;"/><polygon fill="none" points="222.2867,350.11,222.14,352.5092,224.2982,353.5674,224.4449,351.1682,222.2867,350.11" style="stroke:#181818;stroke-width:0.3333333333333333;"/><text fill="#000000" font-family="sans-serif" font-size="4.3333" lengthAdjust="spacing" textLength="45" x="323" y="486.4261">matchIdToMatchFleet</text><text fill="#000000" font-family="sans-serif" font-size="4.3333" lengthAdjust="spacing" textLength="2.6667" x="220.2958" y="356.8479">1</text><text fill="#000000" font-family="sans-serif" font-size="4.3333" lengthAdjust="spacing" textLength="7.3333" x="487.1062" y="603.4437">0..*</text></g><!--reverse link SeaBattleService to ActionHistoryService--><g id="link_SeaBattleService_ActionHistoryService"><path codeLine="502" d="M246.5509,341.9867 C267.5109,339.9333 294.3233,337.31 316.7,335.12 " fill="none" id="SeaBattleService-backto-ActionHistoryService" style="stroke:#181818;stroke-width:0.3333333333333333;"/><polygon fill="#181818" points="242.57,342.3767,244.6905,343.5087,246.5509,341.9867,244.4305,340.8547,242.57,342.3767" style="stroke:#181818;stroke-width:0.3333333333333333;"/><text fill="#000000" font-family="sans-serif" font-size="4.3333" lengthAdjust="spacing" textLength="43" x="263.5" y="335.0061">actionHistoryService</text></g><!--reverse link SeaBattleService to GameService--><g id="link_SeaBattleService_GameService"><path codeLine="503" d="M232.626,351.9973 C241.3493,356.5706 250.9767,361.0567 263.1667,364.6667 C283.9767,370.83 308.7133,374.01 325.5333,375.5867 " fill="none" id="SeaBattleService-backto-GameService" style="stroke:#181818;stroke-width:0.3333333333333333;"/><polygon fill="#181818" points="229.0833,350.14,230.2356,352.2495,232.626,351.9973,231.4738,349.8878,229.0833,350.14" style="stroke:#181818;stroke-width:0.3333333333333333;"/><text fill="#000000" font-family="sans-serif" font-size="4.3333" lengthAdjust="spacing" textLength="26" x="272" y="363.5228">gameService</text></g><!--reverse link SeaBattleService to MatchService--><g id="link_SeaBattleService_MatchService"><path codeLine="504" d="M242.8241,351.0922 C250.3475,352.9155 255.1467,353.7667 263.1667,354.6667 C284.2467,357.0333 308.5667,356.6433 325.2133,355.9067 " fill="none" id="SeaBattleService-backto-MatchService" style="stroke:#181818;stroke-width:0.3333333333333333;"/><polygon fill="#181818" points="238.9367,350.15,240.5663,351.9169,242.8241,351.0922,241.1944,349.3253,238.9367,350.15" style="stroke:#181818;stroke-width:0.3333333333333333;"/><text fill="#000000" font-family="sans-serif" font-size="4.3333" lengthAdjust="spacing" textLength="27.6667" x="271.1667" y="353.5228">matchService</text></g><!--reverse link SeaBattleService to NotificationService--><g id="link_SeaBattleService_NotificationService"><path codeLine="505" d="M227.1608,336.4406 C234.8908,328.6873 247.4233,317.28 263.1667,309.3333 C268.5067,306.6367 300.1067,298.6333 322.48,293.1467 " fill="none" id="SeaBattleService-backto-NotificationService" style="stroke:#181818;stroke-width:0.3333333333333333;"/><polygon fill="#181818" points="224.3367,339.2733,226.693,338.7984,227.1608,336.4406,224.8045,336.9156,224.3367,339.2733" style="stroke:#181818;stroke-width:0.3333333333333333;"/><text fill="#000000" font-family="sans-serif" font-size="4.3333" lengthAdjust="spacing" textLength="39" x="265.5" y="296.3528">notificationService</text></g><!--reverse link SeaBattleService to PlayerService--><g id="link_SeaBattleService_PlayerService"><path codeLine="506" d="M235.7925,337.6943 C244.4725,334.1677 252.52,331.1667 263.1667,328 C284.0533,321.7867 308.51,316.6933 325.2433,313.53 " fill="none" id="SeaBattleService-backto-PlayerService" style="stroke:#181818;stroke-width:0.3333333333333333;"/><polygon fill="#181818" points="232.0867,339.2,234.4415,339.6824,235.7925,337.6943,233.4377,337.2119,232.0867,339.2" style="stroke:#181818;stroke-width:0.3333333333333333;"/><text fill="#000000" font-family="sans-serif" font-size="4.3333" lengthAdjust="spacing" textLength="27.3333" x="271.3333" y="316.3728">playerService</text></g><!--reverse link SeaBattleService to ValidatorService--><g id="link_SeaBattleService_ValidatorService"><path codeLine="507" d="M226.6868,353.0981 C234.2001,361.2915 246.8567,373.6733 263.1667,381.6667 C281.67,390.7367 304.77,395.1767 321.7333,397.3333 " fill="none" id="SeaBattleService-backto-ValidatorService" style="stroke:#181818;stroke-width:0.3333333333333333;"/><polygon fill="#181818" points="223.9833,350.15,224.3523,352.5252,226.6868,353.0981,226.3178,350.7229,223.9833,350.15" style="stroke:#181818;stroke-width:0.3333333333333333;"/><text fill="#000000" font-family="sans-serif" font-size="4.3333" lengthAdjust="spacing" textLength="33" x="268.5" y="380.5228">validatorService</text></g><!--SRC=[xHrhSzkuyNFrApZf5-TYiRrfF-bcEfLjsMQZXqUKp-sbCnfOX2Ka5CaZ8CTgBltjnOCWGHAa-PBivFeb9-EnkrWi5ll0ybpuG0pY6o5QRuZXe12k2FAz7bu15ne__kallLvlvGACZN1d-Xvw2g5ZOdGFGmGy4qDWtWD2N6YwO0z3quvwR0ZEUFim25oq0WocyQNtXozRI3Q-yzKmlc12MrTVZNTRW3pZn03X6Xi3uyFu8tW459otDcqI8c_za_6MjZ_woEbzhKSDMBdcaA_d6c7YX_i9208OSa8U47Gf7Vsjxq0tQXyOVhWsUSkMjvYJf5SX_jqgX0HU09-IlGLajQ4pAn74GPiJFkNK27XZlRatOiwfyKJd8O_GN_lerzkga1pWfzb2LwAkZgwTBeoEQWEmEZbYOQdv6Me4fu4weWNmbeng88DNO0iLqSkVWVuQaXkVRUA9yHc4U8C2IYC_23k2N7CMC2A0oqcdm_H0Y7yL8WTJ66l-NtgOFenhS6bDoJGP24xAJrIq49vzzhY8tlk-2u772VZmmTAVv8Y0Ip-S1O7lGRwURcYfYfUJspNI1blEptY7wWOGAK4dXX_jIHErWT5_85jX4vt1rvJJ5SawQ-iC2R2khk3p2gXegPMRCQI1W8WTES25v54XfXF5tSbk6KhMPpzqrBRL1dZGjPoKahczjIxghL-iGNjx1BAh4Row0Y4cQc-D5fTiGrxK58QLxpsWzIxaDfAwl-TgH-hYUAVAoCdRPyIa5Jrsm4J6XgjTYCY-X2Gv3LAURmW98g8md_yGKg6aGlY9eXEG8ZGcy3oV25IVuRrvlqEk0qDiNbCG4glnzZbWRAeSVObSGfcteLPbchuGYww4Orbu3Cm37sEUnyDL83jCjnWIW5nim_0HhM0nC6Mb8JJPJ4VCD6zpKDhjqHsyj_tL9qYgRCy4OWpMy2pqFt6LBJeArh3bWsaJfMKRo3rBWPZ3DRMD8gkA6-aArf1tmj0c_ZOOUKx0xbLce8HoLl56OBuaZPoaWENHrsSb2NtNfJ-PcNOU_vdX7x-2Brq82IV_rnt4f9vM4So4vda2QYxWH0pLib0WPgHrWvT1geoMIMetQ1ca2cZNa9esNJ7wIWLM2JcH1dGxl0n8DNp2w6Y9ZmEfWK_wGLsWZM3Lm0vn9uXXHGuVNuH3ActCpA9MQ3Ii4L9gen6JNcCIMOHQY_CZLOLTg8X_H70gB1DlVD85IZk2KuIIgNDmJrKyTV-D6dgT- -xHF6O9gYQsK6xEa4Zxbo3g-Fr2FLRdWdOiw5zrhn5j24J1-GxbZMsbbqLpB8_0DRStPEi-rHgpdd8AkEmKCUDwTlyHheHKH3wwEdG3yEQSybkOAUd80NMR8uU0TuhVJTOTkt7LrwkueT_00XE_H5rXeHDLcGifLqrfpxbihvKvkkXQTI7WJdev_uJtPdLsTlwu0jw8CP3nZsouOrZEmzV7Rc4pT7JMlWU6HExwov_DLyXCwEssTNZ9naCPYs22PbElQuTJp1sEnyfVvxF9pNYq6AdCiwRBc_diQZwoRNthycveBPQNuz5eiPpTtCoce-cYmiYxwMYk3BCNm_bYUJMSZ9H6DhxrqZMh7itdCnNvx7rhB8jz0AS-GGzgXap2lvfR5_RozkPYk52NDnakpg-NEgQBdclBNipc_ygrnsofVRnuLFnyHxNxLhXbAfKm3FtmAewsMzckIMm2vquI5ZpM2Vlte9Kus_8CwoGpeL8C7ESkIXcfoQEwm2KCZQt_tUn6pC2KDu3mw2bmVGebHQ7SiB9ytAjWaaB_IS5y34aonj0jMElZTSn-Vfya9oA9DMtWwfFC65xGVmlNmKVU0KI6hXk5YDepzm5vZiGkuquiN5kK7YaLWnIqMm6b3RWr97LeQwIV2l3Lf3wodreSx4oWtN8MlhB92QO925f8OKu197dawUtaR3HVBcPBVjd7P9SCl9nTBUzcqof3hwr5bM7lhV6uohY9PTjLnjdNizd2cbujX_FPxVIYofIVPrPkNFyfrxBFx-j15R_I_wITjKzQcyk7l0ZLIzj5Zn1dryyTgyEnO8EAjHl2xv7h5dPthBSZZbn0l0fHa3LK-oj_vv6SSEYP8yRgbjiLspZUMhO47GV31x22JSANPm1dGvTV6iSiTQ0nLSOO9h0pzhMwAT-6HzgO7znykBLgH3xyw2QR5lZo_25DKQSsR18RXSZJJFqUkQxwfsNIc0Jplcjso7G5VsXMne-rpYUcliOr8ZetW_P8k-iEUQ_CAHPK5rz6AkKbBWW7OcHOe4yk9LOeXsaKSEV0NiipEQfdn5zsnUPphkVt5hdEyxFm_9IU52e3djPNbme_7P1w_GU8BwYhaoE06Las7Uci5AMjSxTsxZHutyvjMjDa367WOyIoO-bSsJnkpxmBbyPZ54yOIbi_iNJ65C8pKyxsaqWfKM5urdsl1F16fkCgGsp7hUXbos6v5CNweqV3jenATv0qQKoCvQN9uSvd6b9Du6TxUO4kaJFq706N6dVn4rbTXEVqq3pHXBnqf3DZwtNItKw-nNawe82VxQVYZKxwLNZ9OceeVYmUhwPrcdmNgtazcNudy4sMJZrJgyHtIUqysoVAifptLQ4q2aXdReEYXnVbEaLx3HIVmN9Oky3HI4Id9LvDNWDBaMRMgIh9kM0f3n0lhqRJqNou68dyjCQeIIPChAcrjArVHeK1sBxhn- -mtOU_VZJ7_Zhb6VH3uAKPFQSD_ZQN8L6JjMejbDKeHw10os5YbZn5yS1HDKm_59v8ZRcsXd4QvCcE8unidl9N5ucGVYLCfpBXgeJX2gxgjWIbYmLdJsF4ycITLVhvAkDp9ZX3AMIDQuzakxRS6vVpqkOpcvHafhiY5BVRvuYWGZBpadYQL4NF_gcuKwU7MbAfEdzLr2h86j2VEZFFdUSIaoTMiSX3PBGDo3vV1clfl5_bI9LCRLj0ca7QHzIwVmGk6qEDFhhuOUZlF96NlqGX9gbTGtWCCar56vo8G28MNMswRf_pwhd_YMUbEdY5Sdgu3L04XbKTaUutkw7D8RoDOlDPregyHFblGTqjFSpK88pBEifDljJW5tExupgKHgQvRdAJDnti3Ki4g84nhGCg36ef8wtgdzi8iPekqXZG_RYYS06tTBa4LgiyjEa_a-pKTDpJSsGO-KIjRuvhdXs82V90AbFA31yH7ap52VD1LSzH5yOTyIA0OHJKRbOEKvPkQxitGj9AD4oa9evMGrvKl2qqXMYlebPYkciVvlJC9YTPGAWNPyaTsvYCbjNgRQGZ_cHFcTzRxAF6DW1mtTIRvXE3x0FONBFd7adhZAg38pqriXc-PonAxXvRrApaZjpPFgf3t2Pl80Tj7b2U5hxA4ptJp0ak3VbakSbfJrqbsNMtC1e4z8WTcToe9BJLpVN_gkqZbxpsUM2GnURzOEOwKd3AhPdVS-LtNy7NDdIMiUYhVRFfsANdVObFxcwXEj9fhxUjLENlkWAUCJwoJ5gQ5jgOO6otTFGcNMiA7hs2__ZLz7tF9_o90owy5rjkd-vToP4g-9LbAavgsltln29gaKyiaz_C8lxBWtTq6V9bYyg-h1FPq1R_MQ3mGvqB_IWxERcVG4Y06RKnqpMUg-wrf9c5ZpGERx9g6uet6xrUow_d_D3l6-r31mF3oxSUdxISRpGmSAQfr_mp4Vt-tum6NriO6CRV9y3RB_oP1__jSUa_6XKtolVTKcG8FTMAZj_g4A9yuwDNduSTBLg-Etn12fZDztBenNluW-8lZ_dI0yb_D2BXy0ANCExGsDHxhIvpRwIDKK-Ukq5PNO0xmLT7OjiWx4PW2ohnwnAZU8u3uNdscir-y-CRmwVNw9i_c-OFRup6URw1p1NMvuDY-hMbHd8aLNNQQxgcwkP5hYgL2qNO77KZUP2eeUVqEYfJQtD8MfoFRALOTsTLoL7sEixgj24o5wOUyBXtzoJ-Le_64jdeTLrqzLg8oxY_fjcAB1LMhyCIc-Dpg_ILS7LTMVJ_Sc1dat_c-9Z4L2Ze6AGVioOzlSOFKJkwTDCbmve7Z9T-E44U-YO8dSFrpWKrTp_rqgQU2AhVzO-kXKa3-Mj8GKbfJ4HCKpbBlmsenvFKf-oRdSUcwCjgAGPHpBGfIt91dxPYFL4ZdL46PE4hcOfsvDKFQscrO4PnrGflTKYRgay6nZhvw-YKfCwgD0LVY9QEOwGTKfO-mVBilHGrkG3wm7ZCDFLw6-H0WqVLiVWjmkMuzpy0]--></g></svg>