<?xml version="1.0" encoding="us-ascii" standalone="no"?><svg xmlns="http://www.w3.org/2000/svg" xmlns:xlink="http://www.w3.org/1999/xlink" contentStyleType="text/css" height="720.3333px" preserveAspectRatio="none" style="width:903px;height:720px;background:#FFFFFF;" version="1.1" viewBox="0 0 903 720" width="903.6667px" zoomAndPan="magnify"><defs/><g><!--cluster ru--><g id="cluster_ru"><path d="M2.8333,2 L8.1667,2 A1.25,1.25 0 0 1 9,2.8333 L11.3333,9.4961 L900.5,9.4961 A0.8333,0.8333 0 0 1 901.3333,10.3294 L901.3333,717.1667 A0.8333,0.8333 0 0 1 900.5,718 L2.8333,718 A0.8333,0.8333 0 0 1 2,717.1667 L2,2.8333 A0.8333,0.8333 0 0 1 2.8333,2 " fill="none" style="stroke:#000000;stroke-width:0.5;"/><line style="stroke:#000000;stroke-width:0.5;" x1="2" x2="11.3333" y1="9.4961" y2="9.4961"/><text fill="#000000" font-family="sans-serif" font-size="4.6667" font-weight="bold" lengthAdjust="spacing" textLength="5" x="3.3333" y="7.1784">ru</text></g><!--cluster onixred--><g id="cluster_onixred"><path d="M10.8333,16.3333 L29.1667,16.3333 A1.25,1.25 0 0 1 30,17.1667 L32.3333,23.8294 L892.5,23.8294 A0.8333,0.8333 0 0 1 893.3333,24.6628 L893.3333,709.1667 A0.8333,0.8333 0 0 1 892.5,710 L10.8333,710 A0.8333,0.8333 0 0 1 10,709.1667 L10,17.1667 A0.8333,0.8333 0 0 1 10.8333,16.3333 " fill="none" style="stroke:#000000;stroke-width:0.5;"/><line style="stroke:#000000;stroke-width:0.5;" x1="10" x2="32.3333" y1="23.8294" y2="23.8294"/><text fill="#000000" font-family="sans-serif" font-size="4.6667" font-weight="bold" lengthAdjust="spacing" textLength="18" x="11.3333" y="21.5117">onixred</text></g><!--cluster siberian--><g id="cluster_siberian"><path d="M18.8333,30.6667 L38.5,30.6667 A1.25,1.25 0 0 1 39.3333,31.5 L41.6667,38.1628 L884.5,38.1628 A0.8333,0.8333 0 0 1 885.3333,38.9961 L885.3333,701.1667 A0.8333,0.8333 0 0 1 884.5,702 L18.8333,702 A0.8333,0.8333 0 0 1 18,701.1667 L18,31.5 A0.8333,0.8333 0 0 1 18.8333,30.6667 " fill="none" style="stroke:#000000;stroke-width:0.5;"/><line style="stroke:#000000;stroke-width:0.5;" x1="18" x2="41.6667" y1="38.1628" y2="38.1628"/><text fill="#000000" font-family="sans-serif" font-size="4.6667" font-weight="bold" lengthAdjust="spacing" textLength="19.3333" x="19.3333" y="35.8451">siberian</text></g><!--cluster sea--><g id="cluster_sea"><path d="M26.8333,45 L35.1667,45 A1.25,1.25 0 0 1 36,45.8333 L38.3333,52.4961 L876.5,52.4961 A0.8333,0.8333 0 0 1 877.3333,53.3294 L877.3333,693.1667 A0.8333,0.8333 0 0 1 876.5,694 L26.8333,694 A0.8333,0.8333 0 0 1 26,693.1667 L26,45.8333 A0.8333,0.8333 0 0 1 26.8333,45 " fill="none" style="stroke:#000000;stroke-width:0.5;"/><line style="stroke:#000000;stroke-width:0.5;" x1="26" x2="38.3333" y1="52.4961" y2="52.4961"/><text fill="#000000" font-family="sans-serif" font-size="4.6667" font-weight="bold" lengthAdjust="spacing" textLength="8" x="27.3333" y="50.1784">sea</text></g><!--cluster battle--><g id="cluster_battle"><path d="M34.8333,59.3333 L49.1667,59.3333 A1.25,1.25 0 0 1 50,60.1667 L52.3333,66.8294 L868.5,66.8294 A0.8333,0.8333 0 0 1 869.3333,67.6628 L869.3333,685.1667 A0.8333,0.8333 0 0 1 868.5,686 L34.8333,686 A0.8333,0.8333 0 0 1 34,685.1667 L34,60.1667 A0.8333,0.8333 0 0 1 34.8333,59.3333 " fill="none" style="stroke:#000000;stroke-width:0.5;"/><line style="stroke:#000000;stroke-width:0.5;" x1="34" x2="52.3333" y1="66.8294" y2="66.8294"/><text fill="#000000" font-family="sans-serif" font-size="4.6667" font-weight="bold" lengthAdjust="spacing" textLength="14" x="35.3333" y="64.5117">battle</text></g><!--cluster feature--><g id="cluster_feature"><path d="M42.8333,73.6667 L60.1667,73.6667 A1.25,1.25 0 0 1 61,74.5 L63.3333,81.1628 L860.5,81.1628 A0.8333,0.8333 0 0 1 861.3333,81.9961 L861.3333,677.1667 A0.8333,0.8333 0 0 1 860.5,678 L42.8333,678 A0.8333,0.8333 0 0 1 42,677.1667 L42,74.5 A0.8333,0.8333 0 0 1 42.8333,73.6667 " fill="none" style="stroke:#000000;stroke-width:0.5;"/><line style="stroke:#000000;stroke-width:0.5;" x1="42" x2="63.3333" y1="81.1628" y2="81.1628"/><text fill="#000000" font-family="sans-serif" font-size="4.6667" font-weight="bold" lengthAdjust="spacing" textLength="17" x="43.3333" y="78.8451">feature</text></g><!--cluster common--><g id="cluster_common"><path d="M722.5,517.3333 L743.5,517.3333 A1.25,1.25 0 0 1 744.3333,518.1667 L746.6667,524.8294 L852.5,524.8294 A0.8333,0.8333 0 0 1 853.3333,525.6628 L853.3333,611.1667 A0.8333,0.8333 0 0 1 852.5,612 L722.5,612 A0.8333,0.8333 0 0 1 721.6667,611.1667 L721.6667,518.1667 A0.8333,0.8333 0 0 1 722.5,517.3333 " fill="none" style="stroke:#000000;stroke-width:0.5;"/><line style="stroke:#000000;stroke-width:0.5;" x1="721.6667" x2="746.6667" y1="524.8294" y2="524.8294"/><text fill="#000000" font-family="sans-serif" font-size="4.6667" font-weight="bold" lengthAdjust="spacing" textLength="20.6667" x="723" y="522.5117">common</text></g><!--cluster configuration--><g id="cluster_configuration"><path d="M58.3333,620 L91,620 A1.25,1.25 0 0 1 91.8333,620.8333 L94.1667,627.4961 L266.1667,627.4961 A0.8333,0.8333 0 0 1 267,628.3294 L267,669.1667 A0.8333,0.8333 0 0 1 266.1667,670 L58.3333,670 A0.8333,0.8333 0 0 1 57.5,669.1667 L57.5,620.8333 A0.8333,0.8333 0 0 1 58.3333,620 " fill="none" style="stroke:#000000;stroke-width:0.5;"/><line style="stroke:#000000;stroke-width:0.5;" x1="57.5" x2="94.1667" y1="627.4961" y2="627.4961"/><text fill="#000000" font-family="sans-serif" font-size="4.6667" font-weight="bold" lengthAdjust="spacing" textLength="32.3333" x="58.8333" y="625.1784">configuration</text></g><!--cluster game--><g id="cluster_game"><path d="M332.3333,88 L345.6667,88 A1.25,1.25 0 0 1 346.5,88.8333 L348.8333,95.4961 L774,95.4961 A0.8333,0.8333 0 0 1 774.8333,96.3294 L774.8333,197.5 A0.8333,0.8333 0 0 1 774,198.3333 L332.3333,198.3333 A0.8333,0.8333 0 0 1 331.5,197.5 L331.5,88.8333 A0.8333,0.8333 0 0 1 332.3333,88 " fill="none" style="stroke:#000000;stroke-width:0.5;"/><line style="stroke:#000000;stroke-width:0.5;" x1="331.5" x2="348.8333" y1="95.4961" y2="95.4961"/><text fill="#000000" font-family="sans-serif" font-size="4.6667" font-weight="bold" lengthAdjust="spacing" textLength="13" x="332.8333" y="93.1784">game</text></g><!--cluster match--><g id="cluster_match"><path d="M50.8333,250.6667 L65.8333,250.6667 A1.25,1.25 0 0 1 66.6667,251.5 L69,258.1628 L656.6667,258.1628 A0.8333,0.8333 0 0 1 657.5,258.9961 L657.5,428.1667 A0.8333,0.8333 0 0 1 656.6667,429 L50.8333,429 A0.8333,0.8333 0 0 1 50,428.1667 L50,251.5 A0.8333,0.8333 0 0 1 50.8333,250.6667 " fill="none" style="stroke:#000000;stroke-width:0.5;"/><line style="stroke:#000000;stroke-width:0.5;" x1="50" x2="69" y1="258.1628" y2="258.1628"/><text fill="#000000" font-family="sans-serif" font-size="4.6667" font-weight="bold" lengthAdjust="spacing" textLength="14.6667" x="51.3333" y="255.8451">match</text></g><!--cluster action_history--><g id="cluster_action_history"><path d="M191.1667,290.6667 L225.5,290.6667 A1.25,1.25 0 0 1 226.3333,291.5 L228.6667,298.1628 L541.5,298.1628 A0.8333,0.8333 0 0 1 542.3333,298.9961 L542.3333,362.1667 A0.8333,0.8333 0 0 1 541.5,363 L191.1667,363 A0.8333,0.8333 0 0 1 190.3333,362.1667 L190.3333,291.5 A0.8333,0.8333 0 0 1 191.1667,290.6667 " fill="none" style="stroke:#000000;stroke-width:0.5;"/><line style="stroke:#000000;stroke-width:0.5;" x1="190.3333" x2="228.6667" y1="298.1628" y2="298.1628"/><text fill="#000000" font-family="sans-serif" font-size="4.6667" font-weight="bold" lengthAdjust="spacing" textLength="34" x="191.6667" y="295.8451">action_history</text></g><!--cluster notification--><g id="cluster_notification"><path d="M587.5,620 L615.8333,620 A1.25,1.25 0 0 1 616.6667,620.8333 L619,627.4961 L786.8333,627.4961 A0.8333,0.8333 0 0 1 787.6667,628.3294 L787.6667,669.1667 A0.8333,0.8333 0 0 1 786.8333,670 L587.5,670 A0.8333,0.8333 0 0 1 586.6667,669.1667 L586.6667,620.8333 A0.8333,0.8333 0 0 1 587.5,620 " fill="none" style="stroke:#000000;stroke-width:0.5;"/><line style="stroke:#000000;stroke-width:0.5;" x1="586.6667" x2="619" y1="627.4961" y2="627.4961"/><text fill="#000000" font-family="sans-serif" font-size="4.6667" font-weight="bold" lengthAdjust="spacing" textLength="28" x="588" y="625.1784">notification</text></g><!--cluster player--><g id="cluster_player"><path d="M475.8333,437 L490.8333,437 A1.25,1.25 0 0 1 491.6667,437.8333 L494,444.4961 L787.1667,444.4961 A0.8333,0.8333 0 0 1 788,445.3294 L788,508.5 A0.8333,0.8333 0 0 1 787.1667,509.3333 L475.8333,509.3333 A0.8333,0.8333 0 0 1 475,508.5 L475,437.8333 A0.8333,0.8333 0 0 1 475.8333,437 " fill="none" style="stroke:#000000;stroke-width:0.5;"/><line style="stroke:#000000;stroke-width:0.5;" x1="475" x2="494" y1="444.4961" y2="444.4961"/><text fill="#000000" font-family="sans-serif" font-size="4.6667" font-weight="bold" lengthAdjust="spacing" textLength="14.6667" x="476.3333" y="442.1784">player</text></g><!--class SiberianSeaBattleApplication--><g id="elem_SiberianSeaBattleApplication"><rect codeLine="6" fill="#F1F1F1" height="10.6667" id="SiberianSeaBattleApplication" rx="0.8333" ry="0.8333" style="stroke:#181818;stroke-width:0.16666666666666666;" width="76" x="62.6667" y="160"/><ellipse cx="67.6667" cy="165.3333" fill="#ADD1B2" rx="3.6667" ry="3.6667" style="stroke:#181818;stroke-width:0.3333333333333333;"/><path d="M68.491,167.381 Q68.2974,167.4806 68.0843,167.5304 Q67.8713,167.5802 67.6361,167.5802 Q66.8005,167.5802 66.3605,167.0296 Q65.9206,166.479 65.9206,165.4386 Q65.9206,164.3955 66.3605,163.8449 Q66.8005,163.2943 67.6361,163.2943 Q67.8713,163.2943 68.0871,163.3441 Q68.3029,163.3939 68.491,163.4935 L68.491,164.401 Q68.2808,164.2074 68.0829,164.1174 Q67.8851,164.0275 67.6748,164.0275 Q67.2266,164.0275 66.9983,164.3831 Q66.77,164.7386 66.77,165.4386 Q66.77,166.1359 66.9983,166.4915 Q67.2266,166.847 67.6748,166.847 Q67.8851,166.847 68.0829,166.7571 Q68.2808,166.6672 68.491,166.4735 Z " fill="#000000"/><text fill="#000000" font-family="sans-serif" font-size="4.6667" lengthAdjust="spacing" textLength="65.3333" x="72.3333" y="167.097">SiberianSeaBattleApplication</text></g><!--class AbstractDao--><g id="elem_AbstractDao"><rect codeLine="11" fill="#F1F1F1" height="10.6667" id="AbstractDao" rx="0.8333" ry="0.8333" style="stroke:#181818;stroke-width:0.16666666666666666;" width="38.6667" x="739" y="551.3333"/><ellipse cx="744" cy="556.6667" fill="#A9DCDF" rx="3.6667" ry="3.6667" style="stroke:#181818;stroke-width:0.3333333333333333;"/><path d="M743.9544,555.116 L743.5698,556.8066 L744.3418,556.8066 Z M743.4564,554.369 L744.4552,554.369 L745.5703,558.5 L744.7541,558.5 L744.4995,557.479 L743.4066,557.479 L743.1576,558.5 L742.3413,558.5 Z " fill="#000000"/><text fill="#000000" font-family="sans-serif" font-size="4.6667" font-style="italic" lengthAdjust="spacing" textLength="28" x="748.6667" y="558.4303">AbstractDao</text></g><!--class BaseRequestMessage--><g id="elem_BaseRequestMessage"><rect codeLine="16" fill="#F1F1F1" height="10.6667" id="BaseRequestMessage" rx="0.8333" ry="0.8333" style="stroke:#181818;stroke-width:0.16666666666666666;" width="59" x="728.8333" y="573.6667"/><ellipse cx="733.8333" cy="579" fill="#B4A7E5" rx="3.6667" ry="3.6667" style="stroke:#181818;stroke-width:0.3333333333333333;"/><path d="M732.6426,577.755 L732.6426,577.0356 L735.1024,577.0356 L735.1024,577.755 L734.2806,577.755 L734.2806,580.4473 L735.1024,580.4473 L735.1024,581.1667 L732.6426,581.1667 L732.6426,580.4473 L733.4644,580.4473 L733.4644,577.755 Z " fill="#000000"/><text fill="#000000" font-family="sans-serif" font-size="4.6667" font-style="italic" lengthAdjust="spacing" textLength="48.3333" x="738.5" y="580.7637">BaseRequestMessage</text></g><!--class BaseResponseMessage--><g id="elem_BaseResponseMessage"><rect codeLine="20" fill="#F1F1F1" height="10.6667" id="BaseResponseMessage" rx="0.8333" ry="0.8333" style="stroke:#181818;stroke-width:0.16666666666666666;" width="62.6667" x="727" y="596"/><ellipse cx="732" cy="601.3333" fill="#A9DCDF" rx="3.6667" ry="3.6667" style="stroke:#181818;stroke-width:0.3333333333333333;"/><path d="M731.9544,599.7827 L731.5698,601.4733 L732.3418,601.4733 Z M731.4564,599.0356 L732.4552,599.0356 L733.5703,603.1667 L732.7541,603.1667 L732.4995,602.1457 L731.4066,602.1457 L731.1576,603.1667 L730.3413,603.1667 Z " fill="#000000"/><text fill="#000000" font-family="sans-serif" font-size="4.6667" font-style="italic" lengthAdjust="spacing" textLength="52" x="736.6667" y="603.097">BaseResponseMessage</text></g><!--class Status--><g id="elem_Status"><rect codeLine="29" fill="#F1F1F1" height="10.6667" id="Status" rx="0.8333" ry="0.8333" style="stroke:#181818;stroke-width:0.16666666666666666;" width="24.6667" x="823.3333" y="589.6667"/><ellipse cx="828.3333" cy="595" fill="#EB937F" rx="3.6667" ry="3.6667" style="stroke:#181818;stroke-width:0.3333333333333333;"/><path d="M829.5381,597.1667 L826.9648,597.1667 L826.9648,593.0356 L829.5381,593.0356 L829.5381,593.755 L827.7811,593.755 L827.7811,594.646 L829.3721,594.646 L829.3721,595.3654 L827.7811,595.3654 L827.7811,596.4473 L829.5381,596.4473 Z " fill="#000000"/><text fill="#000000" font-family="sans-serif" font-size="4.6667" lengthAdjust="spacing" textLength="14" x="833" y="596.7637">Status</text></g><!--class ValidatorService--><g id="elem_ValidatorService"><rect codeLine="35" fill="#F1F1F1" height="10.6667" id="ValidatorService" rx="0.8333" ry="0.8333" style="stroke:#181818;stroke-width:0.16666666666666666;" width="47.3333" x="734.6667" y="529"/><ellipse cx="739.6667" cy="534.3333" fill="#ADD1B2" rx="3.6667" ry="3.6667" style="stroke:#181818;stroke-width:0.3333333333333333;"/><path d="M740.491,536.381 Q740.2974,536.4806 740.0843,536.5304 Q739.8713,536.5802 739.6361,536.5802 Q738.8005,536.5802 738.3605,536.0296 Q737.9206,535.479 737.9206,534.4386 Q737.9206,533.3955 738.3605,532.8449 Q738.8005,532.2943 739.6361,532.2943 Q739.8713,532.2943 740.0871,532.3441 Q740.3029,532.3939 740.491,532.4935 L740.491,533.401 Q740.2808,533.2074 740.0829,533.1174 Q739.8851,533.0275 739.6748,533.0275 Q739.2266,533.0275 738.9983,533.3831 Q738.77,533.7386 738.77,534.4386 Q738.77,535.1359 738.9983,535.4915 Q739.2266,535.847 739.6748,535.847 Q739.8851,535.847 740.0829,535.7571 Q740.2808,535.6672 740.491,535.4735 Z " fill="#000000"/><text fill="#000000" font-family="sans-serif" font-size="4.6667" lengthAdjust="spacing" textLength="36.6667" x="744.3333" y="536.097">ValidatorService</text></g><!--class ModelMapperConfiguration--><g id="elem_ModelMapperConfiguration"><rect codeLine="42" fill="#F1F1F1" height="10.6667" id="ModelMapperConfiguration" rx="0.8333" ry="0.8333" style="stroke:#181818;stroke-width:0.16666666666666666;" width="74" x="63.6667" y="654"/><ellipse cx="68.6667" cy="659.3333" fill="#ADD1B2" rx="3.6667" ry="3.6667" style="stroke:#181818;stroke-width:0.3333333333333333;"/><path d="M69.491,661.381 Q69.2974,661.4806 69.0843,661.5304 Q68.8713,661.5802 68.6361,661.5802 Q67.8005,661.5802 67.3605,661.0296 Q66.9206,660.479 66.9206,659.4386 Q66.9206,658.3955 67.3605,657.8449 Q67.8005,657.2943 68.6361,657.2943 Q68.8713,657.2943 69.0871,657.3441 Q69.3029,657.3939 69.491,657.4935 L69.491,658.401 Q69.2808,658.2074 69.0829,658.1174 Q68.8851,658.0275 68.6748,658.0275 Q68.2266,658.0275 67.9983,658.3831 Q67.77,658.7386 67.77,659.4386 Q67.77,660.1359 67.9983,660.4915 Q68.2266,660.847 68.6748,660.847 Q68.8851,660.847 69.0829,660.7571 Q69.2808,660.6672 69.491,660.4735 Z " fill="#000000"/><text fill="#000000" font-family="sans-serif" font-size="4.6667" lengthAdjust="spacing" textLength="63.3333" x="73.3333" y="661.097">ModelMapperConfiguration</text></g><!--class SpringSecurityConfiguration--><g id="elem_SpringSecurityConfiguration"><rect codeLine="47" fill="#F1F1F1" height="10.6667" id="SpringSecurityConfiguration" rx="0.8333" ry="0.8333" style="stroke:#181818;stroke-width:0.16666666666666666;" width="75.6667" x="62.8333" y="631.6667"/><ellipse cx="67.8333" cy="637" fill="#ADD1B2" rx="3.6667" ry="3.6667" style="stroke:#181818;stroke-width:0.3333333333333333;"/><path d="M68.6577,639.0477 Q68.464,639.1473 68.251,639.1971 Q68.0379,639.2469 67.8027,639.2469 Q66.9671,639.2469 66.5272,638.6963 Q66.0872,638.1457 66.0872,637.1053 Q66.0872,636.0622 66.5272,635.5116 Q66.9671,634.9609 67.8027,634.9609 Q68.0379,634.9609 68.2537,635.0107 Q68.4696,635.0605 68.6577,635.1602 L68.6577,636.0677 Q68.4474,635.874 68.2496,635.7841 Q68.0518,635.6942 67.8415,635.6942 Q67.3932,635.6942 67.165,636.0497 Q66.9367,636.4053 66.9367,637.1053 Q66.9367,637.8026 67.165,638.1581 Q67.3932,638.5137 67.8415,638.5137 Q68.0518,638.5137 68.2496,638.4237 Q68.4474,638.3338 68.6577,638.1401 Z " fill="#000000"/><text fill="#000000" font-family="sans-serif" font-size="4.6667" lengthAdjust="spacing" textLength="65" x="72.5" y="638.7637">SpringSecurityConfiguration</text></g><!--class WebSocketConfiguration--><g id="elem_WebSocketConfiguration"><rect codeLine="54" fill="#F1F1F1" height="10.6667" id="WebSocketConfiguration" rx="0.8333" ry="0.8333" style="stroke:#181818;stroke-width:0.16666666666666666;" width="67.3333" x="194.3333" y="654"/><ellipse cx="199.3333" cy="659.3333" fill="#ADD1B2" rx="3.6667" ry="3.6667" style="stroke:#181818;stroke-width:0.3333333333333333;"/><path d="M200.1577,661.381 Q199.964,661.4806 199.751,661.5304 Q199.5379,661.5802 199.3027,661.5802 Q198.4671,661.5802 198.0272,661.0296 Q197.5872,660.479 197.5872,659.4386 Q197.5872,658.3955 198.0272,657.8449 Q198.4671,657.2943 199.3027,657.2943 Q199.5379,657.2943 199.7537,657.3441 Q199.9696,657.3939 200.1577,657.4935 L200.1577,658.401 Q199.9474,658.2074 199.7496,658.1174 Q199.5518,658.0275 199.3415,658.0275 Q198.8932,658.0275 198.665,658.3831 Q198.4367,658.7386 198.4367,659.4386 Q198.4367,660.1359 198.665,660.4915 Q198.8932,660.847 199.3415,660.847 Q199.5518,660.847 199.7496,660.7571 Q199.9474,660.6672 200.1577,660.4735 Z " fill="#000000"/><text fill="#000000" font-family="sans-serif" font-size="4.6667" lengthAdjust="spacing" textLength="56.6667" x="204" y="661.097">WebSocketConfiguration</text></g><!--class CustomFleet--><g id="elem_CustomFleet"><rect codeLine="60" fill="#F1F1F1" height="10.6667" id="CustomFleet" rx="0.8333" ry="0.8333" style="stroke:#181818;stroke-width:0.16666666666666666;" width="39.3333" x="337" y="144.6667"/><ellipse cx="342" cy="150" fill="#ADD1B2" rx="3.6667" ry="3.6667" style="stroke:#181818;stroke-width:0.3333333333333333;"/><path d="M342.8244,152.0477 Q342.6307,152.1473 342.4176,152.1971 Q342.2046,152.2469 341.9694,152.2469 Q341.1338,152.2469 340.6938,151.6963 Q340.2539,151.1457 340.2539,150.1053 Q340.2539,149.0622 340.6938,148.5116 Q341.1338,147.9609 341.9694,147.9609 Q342.2046,147.9609 342.4204,148.0107 Q342.6362,148.0605 342.8244,148.1602 L342.8244,149.0677 Q342.6141,148.874 342.4163,148.7841 Q342.2184,148.6942 342.0081,148.6942 Q341.5599,148.6942 341.3316,149.0497 Q341.1034,149.4053 341.1034,150.1053 Q341.1034,150.8026 341.3316,151.1581 Q341.5599,151.5137 342.0081,151.5137 Q342.2184,151.5137 342.4163,151.4237 Q342.6141,151.3338 342.8244,151.1401 Z " fill="#000000"/><text fill="#000000" font-family="sans-serif" font-size="4.6667" lengthAdjust="spacing" textLength="28.6667" x="346.6667" y="151.7637">CustomFleet</text></g><!--class Fleet--><g id="elem_Fleet"><rect codeLine="71" fill="#F1F1F1" height="10.6667" id="Fleet" rx="0.8333" ry="0.8333" style="stroke:#181818;stroke-width:0.16666666666666666;" width="21.6667" x="493.3333" y="108"/><ellipse cx="498.3333" cy="113.3333" fill="#ADD1B2" rx="3.6667" ry="3.6667" style="stroke:#181818;stroke-width:0.3333333333333333;"/><path d="M499.1577,115.381 Q498.964,115.4806 498.751,115.5304 Q498.5379,115.5802 498.3027,115.5802 Q497.4671,115.5802 497.0272,115.0296 Q496.5872,114.479 496.5872,113.4386 Q496.5872,112.3955 497.0272,111.8449 Q497.4671,111.2943 498.3027,111.2943 Q498.5379,111.2943 498.7537,111.3441 Q498.9696,111.3939 499.1577,111.4935 L499.1577,112.401 Q498.9474,112.2074 498.7496,112.1174 Q498.5518,112.0275 498.3415,112.0275 Q497.8932,112.0275 497.665,112.3831 Q497.4367,112.7386 497.4367,113.4386 Q497.4367,114.1359 497.665,114.4915 Q497.8932,114.847 498.3415,114.847 Q498.5518,114.847 498.7496,114.7571 Q498.9474,114.6672 499.1577,114.4735 Z " fill="#000000"/><text fill="#000000" font-family="sans-serif" font-size="4.6667" lengthAdjust="spacing" textLength="11" x="503" y="115.097">Fleet</text></g><!--class GameMapper--><g id="elem_GameMapper"><rect codeLine="81" fill="#F1F1F1" height="10.6667" id="GameMapper" rx="0.8333" ry="0.8333" style="stroke:#181818;stroke-width:0.16666666666666666;" width="41" x="483.6667" y="138"/><ellipse cx="488.6667" cy="143.3333" fill="#ADD1B2" rx="3.6667" ry="3.6667" style="stroke:#181818;stroke-width:0.3333333333333333;"/><path d="M489.491,145.381 Q489.2974,145.4806 489.0843,145.5304 Q488.8713,145.5802 488.6361,145.5802 Q487.8005,145.5802 487.3605,145.0296 Q486.9206,144.479 486.9206,143.4386 Q486.9206,142.3955 487.3605,141.8449 Q487.8005,141.2943 488.6361,141.2943 Q488.8713,141.2943 489.0871,141.3441 Q489.3029,141.3939 489.491,141.4935 L489.491,142.401 Q489.2808,142.2074 489.0829,142.1174 Q488.8851,142.0275 488.6748,142.0275 Q488.2266,142.0275 487.9983,142.3831 Q487.77,142.7386 487.77,143.4386 Q487.77,144.1359 487.9983,144.4915 Q488.2266,144.847 488.6748,144.847 Q488.8851,144.847 489.0829,144.7571 Q489.2808,144.6672 489.491,144.4735 Z " fill="#000000"/><text fill="#000000" font-family="sans-serif" font-size="4.6667" lengthAdjust="spacing" textLength="30.3333" x="493.3333" y="145.097">GameMapper</text></g><!--class GameService--><g id="elem_GameService"><rect codeLine="89" fill="#F1F1F1" height="10.6667" id="GameService" rx="0.8333" ry="0.8333" style="stroke:#181818;stroke-width:0.16666666666666666;" width="39.6667" x="336.8333" y="171.6667"/><ellipse cx="341.8333" cy="177" fill="#ADD1B2" rx="3.6667" ry="3.6667" style="stroke:#181818;stroke-width:0.3333333333333333;"/><path d="M342.6577,179.0477 Q342.464,179.1473 342.251,179.1971 Q342.0379,179.2469 341.8027,179.2469 Q340.9671,179.2469 340.5272,178.6963 Q340.0872,178.1457 340.0872,177.1053 Q340.0872,176.0622 340.5272,175.5116 Q340.9671,174.9609 341.8027,174.9609 Q342.0379,174.9609 342.2537,175.0107 Q342.4696,175.0605 342.6577,175.1602 L342.6577,176.0677 Q342.4474,175.874 342.2496,175.7841 Q342.0518,175.6942 341.8415,175.6942 Q341.3932,175.6942 341.165,176.0497 Q340.9367,176.4053 340.9367,177.1053 Q340.9367,177.8026 341.165,178.1581 Q341.3932,178.5137 341.8415,178.5137 Q342.0518,178.5137 342.2496,178.4237 Q342.4474,178.3338 342.6577,178.1401 Z " fill="#000000"/><text fill="#000000" font-family="sans-serif" font-size="4.6667" lengthAdjust="spacing" textLength="29" x="346.5" y="178.7637">GameService</text></g><!--class GridPoint--><g id="elem_GridPoint"><rect codeLine="115" fill="#F1F1F1" height="10.6667" id="GridPoint" rx="0.8333" ry="0.8333" style="stroke:#181818;stroke-width:0.16666666666666666;" width="32" x="340.6667" y="122.3333"/><ellipse cx="345.6667" cy="127.6667" fill="#ADD1B2" rx="3.6667" ry="3.6667" style="stroke:#181818;stroke-width:0.3333333333333333;"/><path d="M346.491,129.7144 Q346.2974,129.814 346.0843,129.8638 Q345.8713,129.9136 345.6361,129.9136 Q344.8005,129.9136 344.3605,129.363 Q343.9206,128.8123 343.9206,127.772 Q343.9206,126.7288 344.3605,126.1782 Q344.8005,125.6276 345.6361,125.6276 Q345.8713,125.6276 346.0871,125.6774 Q346.3029,125.7272 346.491,125.8268 L346.491,126.7344 Q346.2808,126.5407 346.0829,126.4508 Q345.8851,126.3608 345.6748,126.3608 Q345.2266,126.3608 344.9983,126.7164 Q344.77,127.0719 344.77,127.772 Q344.77,128.4692 344.9983,128.8248 Q345.2266,129.1803 345.6748,129.1803 Q345.8851,129.1803 346.0829,129.0904 Q346.2808,129.0005 346.491,128.8068 Z " fill="#000000"/><text fill="#000000" font-family="sans-serif" font-size="4.6667" lengthAdjust="spacing" textLength="21.3333" x="350.3333" y="129.4303">GridPoint</text></g><!--class MatchFleet--><g id="elem_MatchFleet"><rect codeLine="127" fill="#F1F1F1" height="10.6667" id="MatchFleet" rx="0.8333" ry="0.8333" style="stroke:#181818;stroke-width:0.16666666666666666;" width="35.3333" x="339" y="100"/><ellipse cx="344" cy="105.3333" fill="#ADD1B2" rx="3.6667" ry="3.6667" style="stroke:#181818;stroke-width:0.3333333333333333;"/><path d="M344.8244,107.381 Q344.6307,107.4806 344.4176,107.5304 Q344.2046,107.5802 343.9694,107.5802 Q343.1338,107.5802 342.6938,107.0296 Q342.2539,106.479 342.2539,105.4386 Q342.2539,104.3955 342.6938,103.8449 Q343.1338,103.2943 343.9694,103.2943 Q344.2046,103.2943 344.4204,103.3441 Q344.6362,103.3939 344.8244,103.4935 L344.8244,104.401 Q344.6141,104.2074 344.4163,104.1174 Q344.2184,104.0275 344.0081,104.0275 Q343.5599,104.0275 343.3316,104.3831 Q343.1034,104.7386 343.1034,105.4386 Q343.1034,106.1359 343.3316,106.4915 Q343.5599,106.847 344.0081,106.847 Q344.2184,106.847 344.4163,106.7571 Q344.6141,106.6672 344.8244,106.4735 Z " fill="#000000"/><text fill="#000000" font-family="sans-serif" font-size="4.6667" lengthAdjust="spacing" textLength="24.6667" x="348.6667" y="107.097">MatchFleet</text></g><!--class Point--><g id="elem_Point"><rect codeLine="141" fill="#F1F1F1" height="10.6667" id="Point" rx="0.8333" ry="0.8333" style="stroke:#181818;stroke-width:0.16666666666666666;" width="22.3333" x="747.1667" y="113.6667"/><ellipse cx="752.1667" cy="119" fill="#ADD1B2" rx="3.6667" ry="3.6667" style="stroke:#181818;stroke-width:0.3333333333333333;"/><path d="M752.991,121.0477 Q752.7974,121.1473 752.5843,121.1971 Q752.3713,121.2469 752.1361,121.2469 Q751.3005,121.2469 750.8605,120.6963 Q750.4206,120.1457 750.4206,119.1053 Q750.4206,118.0622 750.8605,117.5116 Q751.3005,116.9609 752.1361,116.9609 Q752.3713,116.9609 752.5871,117.0107 Q752.8029,117.0605 752.991,117.1602 L752.991,118.0677 Q752.7808,117.874 752.5829,117.7841 Q752.3851,117.6942 752.1748,117.6942 Q751.7266,117.6942 751.4983,118.0497 Q751.27,118.4053 751.27,119.1053 Q751.27,119.8026 751.4983,120.1581 Q751.7266,120.5137 752.1748,120.5137 Q752.3851,120.5137 752.5829,120.4237 Q752.7808,120.3338 752.991,120.1401 Z " fill="#000000"/><text fill="#000000" font-family="sans-serif" font-size="4.6667" lengthAdjust="spacing" textLength="11.6667" x="756.8333" y="120.7637">Point</text></g><!--class Warship--><g id="elem_Warship"><rect codeLine="159" fill="#F1F1F1" height="10.6667" id="Warship" rx="0.8333" ry="0.8333" style="stroke:#181818;stroke-width:0.16666666666666666;" width="29" x="616.8333" y="108"/><ellipse cx="621.8333" cy="113.3333" fill="#ADD1B2" rx="3.6667" ry="3.6667" style="stroke:#181818;stroke-width:0.3333333333333333;"/><path d="M622.6577,115.381 Q622.464,115.4806 622.251,115.5304 Q622.0379,115.5802 621.8027,115.5802 Q620.9671,115.5802 620.5272,115.0296 Q620.0872,114.479 620.0872,113.4386 Q620.0872,112.3955 620.5272,111.8449 Q620.9671,111.2943 621.8027,111.2943 Q622.0379,111.2943 622.2537,111.3441 Q622.4696,111.3939 622.6577,111.4935 L622.6577,112.401 Q622.4474,112.2074 622.2496,112.1174 Q622.0518,112.0275 621.8415,112.0275 Q621.3932,112.0275 621.165,112.3831 Q620.9367,112.7386 620.9367,113.4386 Q620.9367,114.1359 621.165,114.4915 Q621.3932,114.847 621.8415,114.847 Q622.0518,114.847 622.2496,114.7571 Q622.4474,114.6672 622.6577,114.4735 Z " fill="#000000"/><text fill="#000000" font-family="sans-serif" font-size="4.6667" lengthAdjust="spacing" textLength="18.3333" x="626.5" y="115.097">Warship</text></g><!--class WarshipDescription--><g id="elem_WarshipDescription"><rect codeLine="170" fill="#F1F1F1" height="10.6667" id="WarshipDescription" rx="0.8333" ry="0.8333" style="stroke:#181818;stroke-width:0.16666666666666666;" width="55" x="476.6667" y="168.3333"/><ellipse cx="481.6667" cy="173.6667" fill="#ADD1B2" rx="3.6667" ry="3.6667" style="stroke:#181818;stroke-width:0.3333333333333333;"/><path d="M482.491,175.7144 Q482.2974,175.814 482.0843,175.8638 Q481.8713,175.9136 481.6361,175.9136 Q480.8005,175.9136 480.3605,175.363 Q479.9206,174.8123 479.9206,173.772 Q479.9206,172.7288 480.3605,172.1782 Q480.8005,171.6276 481.6361,171.6276 Q481.8713,171.6276 482.0871,171.6774 Q482.3029,171.7272 482.491,171.8268 L482.491,172.7344 Q482.2808,172.5407 482.0829,172.4508 Q481.8851,172.3608 481.6748,172.3608 Q481.2266,172.3608 480.9983,172.7164 Q480.77,173.0719 480.77,173.772 Q480.77,174.4692 480.9983,174.8248 Q481.2266,175.1803 481.6748,175.1803 Q481.8851,175.1803 482.0829,175.0904 Q482.2808,175.0005 482.491,174.8068 Z " fill="#000000"/><text fill="#000000" font-family="sans-serif" font-size="4.6667" lengthAdjust="spacing" textLength="44.3333" x="486.3333" y="175.4303">WarshipDescription</text></g><!--class Match--><g id="elem_Match"><rect codeLine="181" fill="#F1F1F1" height="10.6667" id="Match" rx="0.8333" ry="0.8333" style="stroke:#181818;stroke-width:0.16666666666666666;" width="24.3333" x="344.5" y="390.6667"/><ellipse cx="349.5" cy="396" fill="#ADD1B2" rx="3.6667" ry="3.6667" style="stroke:#181818;stroke-width:0.3333333333333333;"/><path d="M350.3244,398.0477 Q350.1307,398.1473 349.9176,398.1971 Q349.7046,398.2469 349.4694,398.2469 Q348.6338,398.2469 348.1938,397.6963 Q347.7539,397.1457 347.7539,396.1053 Q347.7539,395.0622 348.1938,394.5116 Q348.6338,393.9609 349.4694,393.9609 Q349.7046,393.9609 349.9204,394.0107 Q350.1362,394.0605 350.3244,394.1602 L350.3244,395.0677 Q350.1141,394.874 349.9163,394.7841 Q349.7184,394.6942 349.5081,394.6942 Q349.0599,394.6942 348.8316,395.0497 Q348.6034,395.4053 348.6034,396.1053 Q348.6034,396.8026 348.8316,397.1581 Q349.0599,397.5137 349.5081,397.5137 Q349.7184,397.5137 349.9163,397.4237 Q350.1141,397.3338 350.3244,397.1401 Z " fill="#000000"/><text fill="#000000" font-family="sans-serif" font-size="4.6667" lengthAdjust="spacing" textLength="13.6667" x="354.1667" y="397.7637">Match</text></g><!--class MatchController--><g id="elem_MatchController"><rect codeLine="191" fill="#F1F1F1" height="10.6667" id="MatchController" rx="0.8333" ry="0.8333" style="stroke:#181818;stroke-width:0.16666666666666666;" width="47.6667" x="76.8333" y="262.6667"/><ellipse cx="81.8333" cy="268" fill="#ADD1B2" rx="3.6667" ry="3.6667" style="stroke:#181818;stroke-width:0.3333333333333333;"/><path d="M82.6577,270.0477 Q82.464,270.1473 82.251,270.1971 Q82.0379,270.2469 81.8027,270.2469 Q80.9671,270.2469 80.5272,269.6963 Q80.0872,269.1457 80.0872,268.1053 Q80.0872,267.0622 80.5272,266.5116 Q80.9671,265.9609 81.8027,265.9609 Q82.0379,265.9609 82.2537,266.0107 Q82.4696,266.0605 82.6577,266.1602 L82.6577,267.0677 Q82.4474,266.874 82.2496,266.7841 Q82.0518,266.6942 81.8415,266.6942 Q81.3932,266.6942 81.165,267.0497 Q80.9367,267.4053 80.9367,268.1053 Q80.9367,268.8026 81.165,269.1581 Q81.3932,269.5137 81.8415,269.5137 Q82.0518,269.5137 82.2496,269.4237 Q82.4474,269.3338 82.6577,269.1401 Z " fill="#000000"/><text fill="#000000" font-family="sans-serif" font-size="4.6667" lengthAdjust="spacing" textLength="37" x="86.5" y="269.7637">MatchController</text></g><!--class MatchDao--><g id="elem_MatchDao"><rect codeLine="203" fill="#F1F1F1" height="10.6667" id="MatchDao" rx="0.8333" ry="0.8333" style="stroke:#181818;stroke-width:0.16666666666666666;" width="33.3333" x="340" y="413"/><ellipse cx="345" cy="418.3333" fill="#ADD1B2" rx="3.6667" ry="3.6667" style="stroke:#181818;stroke-width:0.3333333333333333;"/><path d="M345.8244,420.381 Q345.6307,420.4806 345.4176,420.5304 Q345.2046,420.5802 344.9694,420.5802 Q344.1338,420.5802 343.6938,420.0296 Q343.2539,419.479 343.2539,418.4386 Q343.2539,417.3955 343.6938,416.8449 Q344.1338,416.2943 344.9694,416.2943 Q345.2046,416.2943 345.4204,416.3441 Q345.6362,416.3939 345.8244,416.4935 L345.8244,417.401 Q345.6141,417.2074 345.4163,417.1174 Q345.2184,417.0275 345.0081,417.0275 Q344.5599,417.0275 344.3316,417.3831 Q344.1034,417.7386 344.1034,418.4386 Q344.1034,419.1359 344.3316,419.4915 Q344.5599,419.847 345.0081,419.847 Q345.2184,419.847 345.4163,419.7571 Q345.6141,419.6672 345.8244,419.4735 Z " fill="#000000"/><text fill="#000000" font-family="sans-serif" font-size="4.6667" lengthAdjust="spacing" textLength="22.6667" x="349.6667" y="420.097">MatchDao</text></g><!--class MatchMapper--><g id="elem_MatchMapper"><rect codeLine="212" fill="#F1F1F1" height="10.6667" id="MatchMapper" rx="0.8333" ry="0.8333" style="stroke:#181818;stroke-width:0.16666666666666666;" width="41.6667" x="610.5" y="345.3333"/><ellipse cx="615.5" cy="350.6667" fill="#ADD1B2" rx="3.6667" ry="3.6667" style="stroke:#181818;stroke-width:0.3333333333333333;"/><path d="M616.3244,352.7144 Q616.1307,352.814 615.9176,352.8638 Q615.7046,352.9136 615.4694,352.9136 Q614.6338,352.9136 614.1938,352.363 Q613.7539,351.8123 613.7539,350.772 Q613.7539,349.7288 614.1938,349.1782 Q614.6338,348.6276 615.4694,348.6276 Q615.7046,348.6276 615.9204,348.6774 Q616.1362,348.7272 616.3244,348.8268 L616.3244,349.7344 Q616.1141,349.5407 615.9163,349.4508 Q615.7184,349.3608 615.5081,349.3608 Q615.0599,349.3608 614.8316,349.7164 Q614.6034,350.0719 614.6034,350.772 Q614.6034,351.4692 614.8316,351.8248 Q615.0599,352.1803 615.5081,352.1803 Q615.7184,352.1803 615.9163,352.0904 Q616.1141,352.0005 616.3244,351.8068 Z " fill="#000000"/><text fill="#000000" font-family="sans-serif" font-size="4.6667" lengthAdjust="spacing" textLength="31" x="620.1667" y="352.4303">MatchMapper</text></g><!--class MatchRepository--><g id="elem_MatchRepository"><rect codeLine="220" fill="#F1F1F1" height="10.6667" id="MatchRepository" rx="0.8333" ry="0.8333" style="stroke:#181818;stroke-width:0.16666666666666666;" width="48.6667" x="332.3333" y="274.6667"/><ellipse cx="337.3333" cy="280" fill="#B4A7E5" rx="3.6667" ry="3.6667" style="stroke:#181818;stroke-width:0.3333333333333333;"/><path d="M336.1426,278.755 L336.1426,278.0356 L338.6024,278.0356 L338.6024,278.755 L337.7806,278.755 L337.7806,281.4473 L338.6024,281.4473 L338.6024,282.1667 L336.1426,282.1667 L336.1426,281.4473 L336.9644,281.4473 L336.9644,278.755 Z " fill="#000000"/><text fill="#000000" font-family="sans-serif" font-size="4.6667" font-style="italic" lengthAdjust="spacing" textLength="38" x="342" y="281.7637">MatchRepository</text></g><!--class MatchService--><g id="elem_MatchService"><rect codeLine="229" fill="#F1F1F1" height="10.6667" id="MatchService" rx="0.8333" ry="0.8333" style="stroke:#181818;stroke-width:0.16666666666666666;" width="40.3333" x="207.8333" y="262.3333"/><ellipse cx="212.8333" cy="267.6667" fill="#ADD1B2" rx="3.6667" ry="3.6667" style="stroke:#181818;stroke-width:0.3333333333333333;"/><path d="M213.6577,269.7144 Q213.464,269.814 213.251,269.8638 Q213.0379,269.9136 212.8027,269.9136 Q211.9671,269.9136 211.5272,269.363 Q211.0872,268.8123 211.0872,267.772 Q211.0872,266.7288 211.5272,266.1782 Q211.9671,265.6276 212.8027,265.6276 Q213.0379,265.6276 213.2537,265.6774 Q213.4696,265.7272 213.6577,265.8268 L213.6577,266.7344 Q213.4474,266.5407 213.2496,266.4508 Q213.0518,266.3608 212.8415,266.3608 Q212.3932,266.3608 212.165,266.7164 Q211.9367,267.0719 211.9367,267.772 Q211.9367,268.4692 212.165,268.8248 Q212.3932,269.1803 212.8415,269.1803 Q213.0518,269.1803 213.2496,269.0904 Q213.4474,269.0005 213.6577,268.8068 Z " fill="#000000"/><text fill="#000000" font-family="sans-serif" font-size="4.6667" lengthAdjust="spacing" textLength="29.6667" x="217.5" y="269.4303">MatchService</text></g><!--class MatchStatus--><g id="elem_MatchStatus"><rect codeLine="260" fill="#F1F1F1" height="10.6667" id="MatchStatus" rx="0.8333" ry="0.8333" style="stroke:#181818;stroke-width:0.16666666666666666;" width="38.3333" x="485" y="385"/><ellipse cx="490" cy="390.3333" fill="#EB937F" rx="3.6667" ry="3.6667" style="stroke:#181818;stroke-width:0.3333333333333333;"/><path d="M491.2048,392.5 L488.6315,392.5 L488.6315,388.369 L491.2048,388.369 L491.2048,389.0884 L489.4478,389.0884 L489.4478,389.9793 L491.0387,389.9793 L491.0387,390.6987 L489.4478,390.6987 L489.4478,391.7806 L491.2048,391.7806 Z " fill="#000000"/><text fill="#000000" font-family="sans-serif" font-size="4.6667" lengthAdjust="spacing" textLength="27.6667" x="494.6667" y="392.097">MatchStatus</text></g><!--class MatchUI--><g id="elem_MatchUI"><rect codeLine="271" fill="#F1F1F1" height="10.6667" id="MatchUI" rx="0.8333" ry="0.8333" style="stroke:#181818;stroke-width:0.16666666666666666;" width="29" x="342.1667" y="368.3333"/><ellipse cx="347.1667" cy="373.6667" fill="#ADD1B2" rx="3.6667" ry="3.6667" style="stroke:#181818;stroke-width:0.3333333333333333;"/><path d="M347.991,375.7144 Q347.7974,375.814 347.5843,375.8638 Q347.3713,375.9136 347.1361,375.9136 Q346.3005,375.9136 345.8605,375.363 Q345.4206,374.8123 345.4206,373.772 Q345.4206,372.7288 345.8605,372.1782 Q346.3005,371.6276 347.1361,371.6276 Q347.3713,371.6276 347.5871,371.6774 Q347.8029,371.7272 347.991,371.8268 L347.991,372.7344 Q347.7808,372.5407 347.5829,372.4508 Q347.3851,372.3608 347.1748,372.3608 Q346.7266,372.3608 346.4983,372.7164 Q346.27,373.0719 346.27,373.772 Q346.27,374.4692 346.4983,374.8248 Q346.7266,375.1803 347.1748,375.1803 Q347.3851,375.1803 347.5829,375.0904 Q347.7808,375.0005 347.991,374.8068 Z " fill="#000000"/><text fill="#000000" font-family="sans-serif" font-size="4.6667" lengthAdjust="spacing" textLength="18.3333" x="351.8333" y="375.4303">MatchUI</text></g><!--class ShotGameOwnerResponseMessage--><g id="elem_ShotGameOwnerResponseMessage"><rect codeLine="284" fill="#F1F1F1" height="10.6667" id="ShotGameOwnerResponseMessage" rx="0.8333" ry="0.8333" style="stroke:#181818;stroke-width:0.16666666666666666;" width="90.6667" x="55.3333" y="413"/><ellipse cx="60.3333" cy="418.3333" fill="#ADD1B2" rx="3.6667" ry="3.6667" style="stroke:#181818;stroke-width:0.3333333333333333;"/><path d="M61.1577,420.381 Q60.964,420.4806 60.751,420.5304 Q60.5379,420.5802 60.3027,420.5802 Q59.4671,420.5802 59.0272,420.0296 Q58.5872,419.479 58.5872,418.4386 Q58.5872,417.3955 59.0272,416.8449 Q59.4671,416.2943 60.3027,416.2943 Q60.5379,416.2943 60.7537,416.3441 Q60.9696,416.3939 61.1577,416.4935 L61.1577,417.401 Q60.9474,417.2074 60.7496,417.1174 Q60.5518,417.0275 60.3415,417.0275 Q59.8932,417.0275 59.665,417.3831 Q59.4367,417.7386 59.4367,418.4386 Q59.4367,419.1359 59.665,419.4915 Q59.8932,419.847 60.3415,419.847 Q60.5518,419.847 60.7496,419.7571 Q60.9474,419.6672 61.1577,419.4735 Z " fill="#000000"/><text fill="#000000" font-family="sans-serif" font-size="4.6667" lengthAdjust="spacing" textLength="80" x="65" y="420.097">ShotGameOwnerResponseMessage</text></g><!--class ShotGameRequestMessage--><g id="elem_ShotGameRequestMessage"><rect codeLine="299" fill="#F1F1F1" height="10.6667" id="ShotGameRequestMessage" rx="0.8333" ry="0.8333" style="stroke:#181818;stroke-width:0.16666666666666666;" width="72" x="64.6667" y="390.6667"/><ellipse cx="69.6667" cy="396" fill="#ADD1B2" rx="3.6667" ry="3.6667" style="stroke:#181818;stroke-width:0.3333333333333333;"/><path d="M70.491,398.0477 Q70.2974,398.1473 70.0843,398.1971 Q69.8713,398.2469 69.6361,398.2469 Q68.8005,398.2469 68.3605,397.6963 Q67.9206,397.1457 67.9206,396.1053 Q67.9206,395.0622 68.3605,394.5116 Q68.8005,393.9609 69.6361,393.9609 Q69.8713,393.9609 70.0871,394.0107 Q70.3029,394.0605 70.491,394.1602 L70.491,395.0677 Q70.2808,394.874 70.0829,394.7841 Q69.8851,394.6942 69.6748,394.6942 Q69.2266,394.6942 68.9983,395.0497 Q68.77,395.4053 68.77,396.1053 Q68.77,396.8026 68.9983,397.1581 Q69.2266,397.5137 69.6748,397.5137 Q69.8851,397.5137 70.0829,397.4237 Q70.2808,397.3338 70.491,397.1401 Z " fill="#000000"/><text fill="#000000" font-family="sans-serif" font-size="4.6667" lengthAdjust="spacing" textLength="61.3333" x="74.3333" y="397.7637">ShotGameRequestMessage</text></g><!--class ShotGameResponseMessage--><g id="elem_ShotGameResponseMessage"><rect codeLine="311" fill="#F1F1F1" height="10.6667" id="ShotGameResponseMessage" rx="0.8333" ry="0.8333" style="stroke:#181818;stroke-width:0.16666666666666666;" width="75.6667" x="62.8333" y="368.3333"/><ellipse cx="67.8333" cy="373.6667" fill="#ADD1B2" rx="3.6667" ry="3.6667" style="stroke:#181818;stroke-width:0.3333333333333333;"/><path d="M68.6577,375.7144 Q68.464,375.814 68.251,375.8638 Q68.0379,375.9136 67.8027,375.9136 Q66.9671,375.9136 66.5272,375.363 Q66.0872,374.8123 66.0872,373.772 Q66.0872,372.7288 66.5272,372.1782 Q66.9671,371.6276 67.8027,371.6276 Q68.0379,371.6276 68.2537,371.6774 Q68.4696,371.7272 68.6577,371.8268 L68.6577,372.7344 Q68.4474,372.5407 68.2496,372.4508 Q68.0518,372.3608 67.8415,372.3608 Q67.3932,372.3608 67.165,372.7164 Q66.9367,373.0719 66.9367,373.772 Q66.9367,374.4692 67.165,374.8248 Q67.3932,375.1803 67.8415,375.1803 Q68.0518,375.1803 68.2496,375.0904 Q68.4474,375.0005 68.6577,374.8068 Z " fill="#000000"/><text fill="#000000" font-family="sans-serif" font-size="4.6667" lengthAdjust="spacing" textLength="65" x="72.5" y="375.4303">ShotGameResponseMessage</text></g><!--class ActionHistory--><g id="elem_ActionHistory"><rect codeLine="326" fill="#F1F1F1" height="10.6667" id="ActionHistory" rx="0.8333" ry="0.8333" style="stroke:#181818;stroke-width:0.16666666666666666;" width="41.3333" x="207.3333" y="347"/><ellipse cx="212.3333" cy="352.3333" fill="#ADD1B2" rx="3.6667" ry="3.6667" style="stroke:#181818;stroke-width:0.3333333333333333;"/><path d="M213.1577,354.381 Q212.964,354.4806 212.751,354.5304 Q212.5379,354.5802 212.3027,354.5802 Q211.4671,354.5802 211.0272,354.0296 Q210.5872,353.479 210.5872,352.4386 Q210.5872,351.3955 211.0272,350.8449 Q211.4671,350.2943 212.3027,350.2943 Q212.5379,350.2943 212.7537,350.3441 Q212.9696,350.3939 213.1577,350.4935 L213.1577,351.401 Q212.9474,351.2074 212.7496,351.1174 Q212.5518,351.0275 212.3415,351.0275 Q211.8932,351.0275 211.665,351.3831 Q211.4367,351.7386 211.4367,352.4386 Q211.4367,353.1359 211.665,353.4915 Q211.8932,353.847 212.3415,353.847 Q212.5518,353.847 212.7496,353.7571 Q212.9474,353.6672 213.1577,353.4735 Z " fill="#000000"/><text fill="#000000" font-family="sans-serif" font-size="4.6667" lengthAdjust="spacing" textLength="30.6667" x="217" y="354.097">ActionHistory</text></g><!--class ActionHistoryController--><g id="elem_ActionHistoryController"><rect codeLine="339" fill="#F1F1F1" height="10.6667" id="ActionHistoryController" rx="0.8333" ry="0.8333" style="stroke:#181818;stroke-width:0.16666666666666666;" width="64.6667" x="195.6667" y="302.3333"/><ellipse cx="200.6667" cy="307.6667" fill="#ADD1B2" rx="3.6667" ry="3.6667" style="stroke:#181818;stroke-width:0.3333333333333333;"/><path d="M201.491,309.7144 Q201.2974,309.814 201.0843,309.8638 Q200.8713,309.9136 200.6361,309.9136 Q199.8005,309.9136 199.3605,309.363 Q198.9206,308.8123 198.9206,307.772 Q198.9206,306.7288 199.3605,306.1782 Q199.8005,305.6276 200.6361,305.6276 Q200.8713,305.6276 201.0871,305.6774 Q201.3029,305.7272 201.491,305.8268 L201.491,306.7344 Q201.2808,306.5407 201.0829,306.4508 Q200.8851,306.3608 200.6748,306.3608 Q200.2266,306.3608 199.9983,306.7164 Q199.77,307.0719 199.77,307.772 Q199.77,308.4692 199.9983,308.8248 Q200.2266,309.1803 200.6748,309.1803 Q200.8851,309.1803 201.0829,309.0904 Q201.2808,309.0005 201.491,308.8068 Z " fill="#000000"/><text fill="#000000" font-family="sans-serif" font-size="4.6667" lengthAdjust="spacing" textLength="54" x="205.3333" y="309.4303">ActionHistoryController</text></g><!--class ActionHistoryDao--><g id="elem_ActionHistoryDao"><rect codeLine="344" fill="#F1F1F1" height="10.6667" id="ActionHistoryDao" rx="0.8333" ry="0.8333" style="stroke:#181818;stroke-width:0.16666666666666666;" width="50.3333" x="202.8333" y="324.6667"/><ellipse cx="207.8333" cy="330" fill="#ADD1B2" rx="3.6667" ry="3.6667" style="stroke:#181818;stroke-width:0.3333333333333333;"/><path d="M208.6577,332.0477 Q208.464,332.1473 208.251,332.1971 Q208.0379,332.2469 207.8027,332.2469 Q206.9671,332.2469 206.5272,331.6963 Q206.0872,331.1457 206.0872,330.1053 Q206.0872,329.0622 206.5272,328.5116 Q206.9671,327.9609 207.8027,327.9609 Q208.0379,327.9609 208.2537,328.0107 Q208.4696,328.0605 208.6577,328.1602 L208.6577,329.0677 Q208.4474,328.874 208.2496,328.7841 Q208.0518,328.6942 207.8415,328.6942 Q207.3932,328.6942 207.165,329.0497 Q206.9367,329.4053 206.9367,330.1053 Q206.9367,330.8026 207.165,331.1581 Q207.3932,331.5137 207.8415,331.5137 Q208.0518,331.5137 208.2496,331.4237 Q208.4474,331.3338 208.6577,331.1401 Z " fill="#000000"/><text fill="#000000" font-family="sans-serif" font-size="4.6667" lengthAdjust="spacing" textLength="39.6667" x="212.5" y="331.7637">ActionHistoryDao</text></g><!--class ActionHistoryMapper--><g id="elem_ActionHistoryMapper"><rect codeLine="354" fill="#F1F1F1" height="10.6667" id="ActionHistoryMapper" rx="0.8333" ry="0.8333" style="stroke:#181818;stroke-width:0.16666666666666666;" width="58.6667" x="474.8333" y="345.3333"/><ellipse cx="479.8333" cy="350.6667" fill="#ADD1B2" rx="3.6667" ry="3.6667" style="stroke:#181818;stroke-width:0.3333333333333333;"/><path d="M480.6577,352.7144 Q480.464,352.814 480.251,352.8638 Q480.0379,352.9136 479.8027,352.9136 Q478.9671,352.9136 478.5272,352.363 Q478.0872,351.8123 478.0872,350.772 Q478.0872,349.7288 478.5272,349.1782 Q478.9671,348.6276 479.8027,348.6276 Q480.0379,348.6276 480.2537,348.6774 Q480.4696,348.7272 480.6577,348.8268 L480.6577,349.7344 Q480.4474,349.5407 480.2496,349.4508 Q480.0518,349.3608 479.8415,349.3608 Q479.3932,349.3608 479.165,349.7164 Q478.9367,350.0719 478.9367,350.772 Q478.9367,351.4692 479.165,351.8248 Q479.3932,352.1803 479.8415,352.1803 Q480.0518,352.1803 480.2496,352.0904 Q480.4474,352.0005 480.6577,351.8068 Z " fill="#000000"/><text fill="#000000" font-family="sans-serif" font-size="4.6667" lengthAdjust="spacing" textLength="48" x="484.5" y="352.4303">ActionHistoryMapper</text></g><!--class ActionHistoryRepository--><g id="elem_ActionHistoryRepository"><rect codeLine="362" fill="#F1F1F1" height="10.6667" id="ActionHistoryRepository" rx="0.8333" ry="0.8333" style="stroke:#181818;stroke-width:0.16666666666666666;" width="65.6667" x="471.3333" y="321.6667"/><ellipse cx="476.3333" cy="327" fill="#B4A7E5" rx="3.6667" ry="3.6667" style="stroke:#181818;stroke-width:0.3333333333333333;"/><path d="M475.1426,325.755 L475.1426,325.0356 L477.6024,325.0356 L477.6024,325.755 L476.7806,325.755 L476.7806,328.4473 L477.6024,328.4473 L477.6024,329.1667 L475.1426,329.1667 L475.1426,328.4473 L475.9644,328.4473 L475.9644,325.755 Z " fill="#000000"/><text fill="#000000" font-family="sans-serif" font-size="4.6667" font-style="italic" lengthAdjust="spacing" textLength="55" x="481" y="328.7637">ActionHistoryRepository</text></g><!--class ActionHistoryService--><g id="elem_ActionHistoryService"><rect codeLine="369" fill="#F1F1F1" height="10.6667" id="ActionHistoryService" rx="0.8333" ry="0.8333" style="stroke:#181818;stroke-width:0.16666666666666666;" width="57.3333" x="328" y="331.3333"/><ellipse cx="333" cy="336.6667" fill="#ADD1B2" rx="3.6667" ry="3.6667" style="stroke:#181818;stroke-width:0.3333333333333333;"/><path d="M333.8244,338.7144 Q333.6307,338.814 333.4176,338.8638 Q333.2046,338.9136 332.9694,338.9136 Q332.1338,338.9136 331.6938,338.363 Q331.2539,337.8123 331.2539,336.772 Q331.2539,335.7288 331.6938,335.1782 Q332.1338,334.6276 332.9694,334.6276 Q333.2046,334.6276 333.4204,334.6774 Q333.6362,334.7272 333.8244,334.8268 L333.8244,335.7344 Q333.6141,335.5407 333.4163,335.4508 Q333.2184,335.3608 333.0081,335.3608 Q332.5599,335.3608 332.3316,335.7164 Q332.1034,336.0719 332.1034,336.772 Q332.1034,337.4692 332.3316,337.8248 Q332.5599,338.1803 333.0081,338.1803 Q333.2184,338.1803 333.4163,338.0904 Q333.6141,338.0005 333.8244,337.8068 Z " fill="#000000"/><text fill="#000000" font-family="sans-serif" font-size="4.6667" lengthAdjust="spacing" textLength="46.6667" x="337.6667" y="338.4303">ActionHistoryService</text></g><!--class NotificationResponseMessage--><g id="elem_NotificationResponseMessage"><rect codeLine="381" fill="#F1F1F1" height="10.6667" id="NotificationResponseMessage" rx="0.8333" ry="0.8333" style="stroke:#181818;stroke-width:0.16666666666666666;" width="78.6667" x="592" y="654"/><ellipse cx="597" cy="659.3333" fill="#ADD1B2" rx="3.6667" ry="3.6667" style="stroke:#181818;stroke-width:0.3333333333333333;"/><path d="M597.8244,661.381 Q597.6307,661.4806 597.4176,661.5304 Q597.2046,661.5802 596.9694,661.5802 Q596.1338,661.5802 595.6938,661.0296 Q595.2539,660.479 595.2539,659.4386 Q595.2539,658.3955 595.6938,657.8449 Q596.1338,657.2943 596.9694,657.2943 Q597.2046,657.2943 597.4204,657.3441 Q597.6362,657.3939 597.8244,657.4935 L597.8244,658.401 Q597.6141,658.2074 597.4163,658.1174 Q597.2184,658.0275 597.0081,658.0275 Q596.5599,658.0275 596.3316,658.3831 Q596.1034,658.7386 596.1034,659.4386 Q596.1034,660.1359 596.3316,660.4915 Q596.5599,660.847 597.0081,660.847 Q597.2184,660.847 597.4163,660.7571 Q597.6141,660.6672 597.8244,660.4735 Z " fill="#000000"/><text fill="#000000" font-family="sans-serif" font-size="4.6667" lengthAdjust="spacing" textLength="68" x="601.6667" y="661.097">NotificationResponseMessage</text></g><!--class NotificationService--><g id="elem_NotificationService"><rect codeLine="390" fill="#F1F1F1" height="10.6667" id="NotificationService" rx="0.8333" ry="0.8333" style="stroke:#181818;stroke-width:0.16666666666666666;" width="53" x="604.8333" y="631.6667"/><ellipse cx="609.8333" cy="637" fill="#ADD1B2" rx="3.6667" ry="3.6667" style="stroke:#181818;stroke-width:0.3333333333333333;"/><path d="M610.6577,639.0477 Q610.464,639.1473 610.251,639.1971 Q610.0379,639.2469 609.8027,639.2469 Q608.9671,639.2469 608.5272,638.6963 Q608.0872,638.1457 608.0872,637.1053 Q608.0872,636.0622 608.5272,635.5116 Q608.9671,634.9609 609.8027,634.9609 Q610.0379,634.9609 610.2537,635.0107 Q610.4696,635.0605 610.6577,635.1602 L610.6577,636.0677 Q610.4474,635.874 610.2496,635.7841 Q610.0518,635.6942 609.8415,635.6942 Q609.3932,635.6942 609.165,636.0497 Q608.9367,636.4053 608.9367,637.1053 Q608.9367,637.8026 609.165,638.1581 Q609.3932,638.5137 609.8415,638.5137 Q610.0518,638.5137 610.2496,638.4237 Q610.4474,638.3338 610.6577,638.1401 Z " fill="#000000"/><text fill="#000000" font-family="sans-serif" font-size="4.6667" lengthAdjust="spacing" textLength="42.3333" x="614.5" y="638.7637">NotificationService</text></g><!--class TypeNotification--><g id="elem_TypeNotification"><rect codeLine="397" fill="#F1F1F1" height="10.6667" id="TypeNotification" rx="0.8333" ry="0.8333" style="stroke:#181818;stroke-width:0.16666666666666666;" width="48" x="734.3333" y="647.6667"/><ellipse cx="739.3333" cy="653" fill="#EB937F" rx="3.6667" ry="3.6667" style="stroke:#181818;stroke-width:0.3333333333333333;"/><path d="M740.5381,655.1667 L737.9648,655.1667 L737.9648,651.0356 L740.5381,651.0356 L740.5381,651.755 L738.7811,651.755 L738.7811,652.646 L740.3721,652.646 L740.3721,653.3654 L738.7811,653.3654 L738.7811,654.4473 L740.5381,654.4473 Z " fill="#000000"/><text fill="#000000" font-family="sans-serif" font-size="4.6667" lengthAdjust="spacing" textLength="37.3333" x="744" y="654.7637">TypeNotification</text></g><!--class Player--><g id="elem_Player"><rect codeLine="405" fill="#F1F1F1" height="10.6667" id="Player" rx="0.8333" ry="0.8333" style="stroke:#181818;stroke-width:0.16666666666666666;" width="24.3333" x="492" y="471"/><ellipse cx="497" cy="476.3333" fill="#ADD1B2" rx="3.6667" ry="3.6667" style="stroke:#181818;stroke-width:0.3333333333333333;"/><path d="M497.8244,478.381 Q497.6307,478.4806 497.4176,478.5304 Q497.2046,478.5802 496.9694,478.5802 Q496.1338,478.5802 495.6938,478.0296 Q495.2539,477.479 495.2539,476.4386 Q495.2539,475.3955 495.6938,474.8449 Q496.1338,474.2943 496.9694,474.2943 Q497.2046,474.2943 497.4204,474.3441 Q497.6362,474.3939 497.8244,474.4935 L497.8244,475.401 Q497.6141,475.2074 497.4163,475.1174 Q497.2184,475.0275 497.0081,475.0275 Q496.5599,475.0275 496.3316,475.3831 Q496.1034,475.7386 496.1034,476.4386 Q496.1034,477.1359 496.3316,477.4915 Q496.5599,477.847 497.0081,477.847 Q497.2184,477.847 497.4163,477.7571 Q497.6141,477.6672 497.8244,477.4735 Z " fill="#000000"/><text fill="#000000" font-family="sans-serif" font-size="4.6667" lengthAdjust="spacing" textLength="13.6667" x="501.6667" y="478.097">Player</text></g><!--class PlayerController--><g id="elem_PlayerController"><rect codeLine="417" fill="#F1F1F1" height="10.6667" id="PlayerController" rx="0.8333" ry="0.8333" style="stroke:#181818;stroke-width:0.16666666666666666;" width="47.6667" x="480.3333" y="448.6667"/><ellipse cx="485.3333" cy="454" fill="#ADD1B2" rx="3.6667" ry="3.6667" style="stroke:#181818;stroke-width:0.3333333333333333;"/><path d="M486.1577,456.0477 Q485.964,456.1473 485.751,456.1971 Q485.5379,456.2469 485.3027,456.2469 Q484.4671,456.2469 484.0272,455.6963 Q483.5872,455.1457 483.5872,454.1053 Q483.5872,453.0622 484.0272,452.5116 Q484.4671,451.9609 485.3027,451.9609 Q485.5379,451.9609 485.7537,452.0107 Q485.9696,452.0605 486.1577,452.1602 L486.1577,453.0677 Q485.9474,452.874 485.7496,452.7841 Q485.5518,452.6942 485.3415,452.6942 Q484.8932,452.6942 484.665,453.0497 Q484.4367,453.4053 484.4367,454.1053 Q484.4367,454.8026 484.665,455.1581 Q484.8932,455.5137 485.3415,455.5137 Q485.5518,455.5137 485.7496,455.4237 Q485.9474,455.3338 486.1577,455.1401 Z " fill="#000000"/><text fill="#000000" font-family="sans-serif" font-size="4.6667" lengthAdjust="spacing" textLength="37" x="490" y="455.7637">PlayerController</text></g><!--class PlayerDao--><g id="elem_PlayerDao"><rect codeLine="423" fill="#F1F1F1" height="10.6667" id="PlayerDao" rx="0.8333" ry="0.8333" style="stroke:#181818;stroke-width:0.16666666666666666;" width="33.3333" x="487.5" y="493.3333"/><ellipse cx="492.5" cy="498.6667" fill="#ADD1B2" rx="3.6667" ry="3.6667" style="stroke:#181818;stroke-width:0.3333333333333333;"/><path d="M493.3244,500.7144 Q493.1307,500.814 492.9176,500.8638 Q492.7046,500.9136 492.4694,500.9136 Q491.6338,500.9136 491.1938,500.363 Q490.7539,499.8123 490.7539,498.772 Q490.7539,497.7288 491.1938,497.1782 Q491.6338,496.6276 492.4694,496.6276 Q492.7046,496.6276 492.9204,496.6774 Q493.1362,496.7272 493.3244,496.8268 L493.3244,497.7344 Q493.1141,497.5407 492.9163,497.4508 Q492.7184,497.3608 492.5081,497.3608 Q492.0599,497.3608 491.8316,497.7164 Q491.6034,498.0719 491.6034,498.772 Q491.6034,499.4692 491.8316,499.8248 Q492.0599,500.1803 492.5081,500.1803 Q492.7184,500.1803 492.9163,500.0904 Q493.1141,500.0005 493.3244,499.8068 Z " fill="#000000"/><text fill="#000000" font-family="sans-serif" font-size="4.6667" lengthAdjust="spacing" textLength="22.6667" x="497.1667" y="500.4303">PlayerDao</text></g><!--class PlayerMapper--><g id="elem_PlayerMapper"><rect codeLine="434" fill="#F1F1F1" height="10.6667" id="PlayerMapper" rx="0.8333" ry="0.8333" style="stroke:#181818;stroke-width:0.16666666666666666;" width="41.6667" x="737.5" y="448.6667"/><ellipse cx="742.5" cy="454" fill="#ADD1B2" rx="3.6667" ry="3.6667" style="stroke:#181818;stroke-width:0.3333333333333333;"/><path d="M743.3244,456.0477 Q743.1307,456.1473 742.9176,456.1971 Q742.7046,456.2469 742.4694,456.2469 Q741.6338,456.2469 741.1938,455.6963 Q740.7539,455.1457 740.7539,454.1053 Q740.7539,453.0622 741.1938,452.5116 Q741.6338,451.9609 742.4694,451.9609 Q742.7046,451.9609 742.9204,452.0107 Q743.1362,452.0605 743.3244,452.1602 L743.3244,453.0677 Q743.1141,452.874 742.9163,452.7841 Q742.7184,452.6942 742.5081,452.6942 Q742.0599,452.6942 741.8316,453.0497 Q741.6034,453.4053 741.6034,454.1053 Q741.6034,454.8026 741.8316,455.1581 Q742.0599,455.5137 742.5081,455.5137 Q742.7184,455.5137 742.9163,455.4237 Q743.1141,455.3338 743.3244,455.1401 Z " fill="#000000"/><text fill="#000000" font-family="sans-serif" font-size="4.6667" lengthAdjust="spacing" textLength="31" x="747.1667" y="455.7637">PlayerMapper</text></g><!--class PlayerRepository--><g id="elem_PlayerRepository"><rect codeLine="442" fill="#F1F1F1" height="10.6667" id="PlayerRepository" rx="0.8333" ry="0.8333" style="stroke:#181818;stroke-width:0.16666666666666666;" width="48.6667" x="734" y="471"/><ellipse cx="739" cy="476.3333" fill="#B4A7E5" rx="3.6667" ry="3.6667" style="stroke:#181818;stroke-width:0.3333333333333333;"/><path d="M737.8092,475.0884 L737.8092,474.369 L740.269,474.369 L740.269,475.0884 L739.4473,475.0884 L739.4473,477.7806 L740.269,477.7806 L740.269,478.5 L737.8092,478.5 L737.8092,477.7806 L738.631,477.7806 L738.631,475.0884 Z " fill="#000000"/><text fill="#000000" font-family="sans-serif" font-size="4.6667" font-style="italic" lengthAdjust="spacing" textLength="38" x="743.6667" y="478.097">PlayerRepository</text></g><!--class PlayerService--><g id="elem_PlayerService"><rect codeLine="448" fill="#F1F1F1" height="10.6667" id="PlayerService" rx="0.8333" ry="0.8333" style="stroke:#181818;stroke-width:0.16666666666666666;" width="40.3333" x="611.1667" y="449"/><ellipse cx="616.1667" cy="454.3333" fill="#ADD1B2" rx="3.6667" ry="3.6667" style="stroke:#181818;stroke-width:0.3333333333333333;"/><path d="M616.991,456.381 Q616.7974,456.4806 616.5843,456.5304 Q616.3713,456.5802 616.1361,456.5802 Q615.3005,456.5802 614.8605,456.0296 Q614.4206,455.479 614.4206,454.4386 Q614.4206,453.3955 614.8605,452.8449 Q615.3005,452.2943 616.1361,452.2943 Q616.3713,452.2943 616.5871,452.3441 Q616.8029,452.3939 616.991,452.4935 L616.991,453.401 Q616.7808,453.2074 616.5829,453.1174 Q616.3851,453.0275 616.1748,453.0275 Q615.7266,453.0275 615.4983,453.3831 Q615.27,453.7386 615.27,454.4386 Q615.27,455.1359 615.4983,455.4915 Q615.7266,455.847 616.1748,455.847 Q616.3851,455.847 616.5829,455.7571 Q616.7808,455.6672 616.991,455.4735 Z " fill="#000000"/><text fill="#000000" font-family="sans-serif" font-size="4.6667" lengthAdjust="spacing" textLength="29.6667" x="620.8333" y="456.097">PlayerService</text></g><!--link BaseResponseMessage to Status--><g id="link_BaseResponseMessage_Status"><path codeLine="463" d="M789.74,598.7667 C801.4867,597.7967 812.1834,596.9112 821.1868,596.1679 " fill="none" id="BaseResponseMessage-to-Status" style="stroke:#181818;stroke-width:0.3333333333333333;"/><polygon fill="#181818" points="823.18,596.0033,820.0805,594.9214,821.519,596.1405,820.2999,597.579,823.18,596.0033" style="stroke:#181818;stroke-width:0.3333333333333333;"/><text fill="#000000" font-family="sans-serif" font-size="4.3333" lengthAdjust="spacing" textLength="13" x="800" y="595.7261">status</text></g><!--link CustomFleet to Fleet--><g id="link_CustomFleet_Fleet"><path codeLine="464" d="M376.5,145.13 C407.9367,137.28 466.8329,122.5746 491.3129,116.4612 " fill="none" id="CustomFleet-to-Fleet" style="stroke:#181818;stroke-width:0.3333333333333333;"/><polygon fill="#181818" points="493.2533,115.9767,490.0197,115.4099,491.6363,116.3805,490.6658,117.9971,493.2533,115.9767" style="stroke:#181818;stroke-width:0.3333333333333333;"/><text fill="#000000" font-family="sans-serif" font-size="4.3333" lengthAdjust="spacing" textLength="9.3333" x="423.6667" y="123.0228">fleet</text></g><!--reverse link Fleet to Warship--><g id="link_Fleet_Warship"><path codeLine="465" d="M519.0667,113.3333 C541.75,113.3333 591.12,113.3333 616.76,113.3333 " fill="none" id="Fleet-backto-Warship" style="stroke:#181818;stroke-width:0.3333333333333333;"/><polygon fill="none" points="515.0667,113.3333,517.0667,114.6667,519.0667,113.3333,517.0667,112,515.0667,113.3333" style="stroke:#181818;stroke-width:0.3333333333333333;"/><text fill="#000000" font-family="sans-serif" font-size="4.3333" lengthAdjust="spacing" textLength="18.6667" x="555.1667" y="112.1895">warships</text><text fill="#000000" font-family="sans-serif" font-size="4.3333" lengthAdjust="spacing" textLength="2.6667" x="517.7427" y="118.081">1</text><text fill="#000000" font-family="sans-serif" font-size="4.3333" lengthAdjust="spacing" textLength="7.3333" x="606.8617" y="117.8816">0..*</text></g><!--reverse link GameService to WarshipDescription--><g id="link_GameService_WarshipDescription"><path codeLine="466" d="M380.5927,175.866 C386.6027,175.5994 389.24,175.5133 395.3333,175.3333 C422.9667,174.52 454.5733,174.0933 476.5167,173.8733 " fill="none" id="GameService-backto-WarshipDescription" style="stroke:#181818;stroke-width:0.3333333333333333;"/><polygon fill="none" points="376.5967,176.0433,378.6538,177.2867,380.5927,175.866,378.5356,174.6227,376.5967,176.0433" style="stroke:#181818;stroke-width:0.3333333333333333;"/><text fill="#000000" font-family="sans-serif" font-size="4.3333" lengthAdjust="spacing" textLength="58.6667" x="399" y="172.9195">warshipDescriptionsForMini</text><text fill="#000000" font-family="sans-serif" font-size="4.3333" lengthAdjust="spacing" textLength="2.6667" x="379.1881" y="180.4272">1</text><text fill="#000000" font-family="sans-serif" font-size="4.3333" lengthAdjust="spacing" textLength="7.3333" x="466.6878" y="178.2826">0..*</text></g><!--reverse link GameService to WarshipDescription--><g id="link_GameService_WarshipDescription"><path codeLine="467" d="M380.5516,181.7799 C386.535,182.8432 389.21,183.1367 395.3333,183.6667 C424.5567,186.19 432.1967,187.05 461.3333,183.6667 C469.09,182.7667 477.4833,180.9733 484.7467,179.15 " fill="none" id="GameService-backto-WarshipDescription-1" style="stroke:#181818;stroke-width:0.3333333333333333;"/><polygon fill="none" points="376.6133,181.08,378.3492,182.7427,380.5516,181.7799,378.8158,180.1172,376.6133,181.08" style="stroke:#181818;stroke-width:0.3333333333333333;"/><text fill="#000000" font-family="sans-serif" font-size="4.3333" lengthAdjust="spacing" textLength="65.3333" x="395.6667" y="182.5228">warshipDescriptionsForRegular</text><text fill="#000000" font-family="sans-serif" font-size="4.3333" lengthAdjust="spacing" textLength="2.6667" x="379.2068" y="186.0777">1</text><text fill="#000000" font-family="sans-serif" font-size="4.3333" lengthAdjust="spacing" textLength="7.3333" x="470.0545" y="185.9006">0..*</text></g><!--reverse link GameService to GameMapper--><g id="link_GameService_GameMapper"><path codeLine="468" d="M378.206,170.3706 C384.7426,168.3973 388.4333,167.3933 395.3333,165.6667 C425.8367,158.0333 461.6333,151.04 483.52,146.9833 " fill="none" id="GameService-backto-GameMapper" style="stroke:#181818;stroke-width:0.3333333333333333;"/><polygon fill="#181818" points="374.3767,171.5267,376.6767,172.2251,378.206,170.3706,375.906,169.6722,374.3767,171.5267" style="stroke:#181818;stroke-width:0.3333333333333333;"/><text fill="#000000" font-family="sans-serif" font-size="4.3333" lengthAdjust="spacing" textLength="26.6667" x="415" y="150.4095">gameMapper</text></g><!--reverse link MatchFleet to Fleet--><g id="link_MatchFleet_Fleet"><path codeLine="469" d="M378.4141,106.5008 C409.1441,108.1742 468.1,111.3867 493.1767,112.7533 " fill="none" id="MatchFleet-backto-Fleet" style="stroke:#181818;stroke-width:0.3333333333333333;"/><polygon fill="none" points="374.42,106.2833,376.3445,107.7234,378.4141,106.5008,376.4895,105.0607,374.42,106.2833" style="stroke:#181818;stroke-width:0.3333333333333333;"/><text fill="#000000" font-family="sans-serif" font-size="4.3333" lengthAdjust="spacing" textLength="28.3333" x="414.1667" y="106.3361">userIdToFleet</text><text fill="#000000" font-family="sans-serif" font-size="4.3333" lengthAdjust="spacing" textLength="2.6667" x="376.9848" y="110.9433">1</text><text fill="#000000" font-family="sans-serif" font-size="4.3333" lengthAdjust="spacing" textLength="7.3333" x="483.3242" y="117.2817">0..*</text></g><!--reverse link Warship to Point--><g id="link_Warship_Point"><path codeLine="470" d="M649.9093,114.1523 C675.366,115.2923 724.14,117.48 747.0233,118.5067 " fill="none" id="Warship-backto-Point" style="stroke:#181818;stroke-width:0.3333333333333333;"/><polygon fill="#181818" points="645.9133,113.9733,647.8517,115.3948,649.9093,114.1523,647.971,112.7308,645.9133,113.9733" style="stroke:#181818;stroke-width:0.3333333333333333;"/><text fill="#000000" font-family="sans-serif" font-size="4.3333" lengthAdjust="spacing" textLength="9.6667" x="693.6667" y="114.5161">start</text></g><!--link Warship to Point--><g id="link_Warship_Point"><path codeLine="471" d="M645.97,117.8 C655.6533,120.5833 668.7967,123.9 680.6667,125.3333 C696.4033,127.2333 700.5267,126.5267 716.3333,125.3333 C726.84,124.54 736.7419,122.9889 745.1185,121.4756 " fill="none" id="Warship-to-Point" style="stroke:#181818;stroke-width:0.3333333333333333;"/><polygon fill="#181818" points="747.0867,121.12,743.8974,120.3413,745.4466,121.4163,744.3715,122.9654,747.0867,121.12" style="stroke:#181818;stroke-width:0.3333333333333333;"/><text fill="#000000" font-family="sans-serif" font-size="4.3333" lengthAdjust="spacing" textLength="7.6667" x="694.6667" y="124.1895">end</text></g><!--link Match to MatchStatus--><g id="link_Match_MatchStatus"><path codeLine="472" d="M368.9,396.03 C388.2833,396.0233 427.8633,395.7633 461.3333,394 C469.0633,393.5933 475.5716,393.0881 482.9249,392.4181 " fill="none" id="Match-to-MatchStatus" style="stroke:#181818;stroke-width:0.3333333333333333;"/><polygon fill="#181818" points="484.9167,392.2367,481.8081,391.1811,483.2569,392.3879,482.05,393.8367,484.9167,392.2367" style="stroke:#181818;stroke-width:0.3333333333333333;"/><text fill="#000000" font-family="sans-serif" font-size="4.3333" lengthAdjust="spacing" textLength="13" x="421.8333" y="392.8561">status</text></g><!--link Match to Player--><g id="link_Match_Player"><path codeLine="473" d="M368.9467,397.8367 C374.8033,399.3733 381.4233,402.1867 385.3333,407.3333 C397.6433,423.53 380.1833,484.7567 395.3333,498.3333 C417.18,517.91 434.4167,509.9933 461.3333,498.3333 C467.2967,495.75 465.8867,491.21 471.3333,487.6667 C477.5967,483.5933 483.5636,481.3341 490.0036,479.5374 " fill="none" id="Match-to-Player" style="stroke:#181818;stroke-width:0.3333333333333333;"/><polygon fill="#181818" points="491.93,479,488.682,478.5219,490.3246,479.4479,489.3986,481.0905,491.93,479" style="stroke:#181818;stroke-width:0.3333333333333333;"/><text fill="#000000" font-family="sans-serif" font-size="4.3333" lengthAdjust="spacing" textLength="20" x="418.3333" y="497.1895">opponent</text></g><!--link Match to Player--><g id="link_Match_Player"><path codeLine="474" d="M368.8867,397.88 C374.7267,399.43 381.35,402.2433 385.3333,407.3333 C405.2467,432.7733 370.9667,458.1167 395.3333,479.3333 C409.42,491.6 464.7909,483.4166 489.9409,478.9466 " fill="none" id="Match-to-Player-1" style="stroke:#181818;stroke-width:0.3333333333333333;"/><polygon fill="#181818" points="491.91,478.5967,488.723,477.8089,490.269,478.8883,489.1896,480.4344,491.91,478.5967" style="stroke:#181818;stroke-width:0.3333333333333333;"/><text fill="#000000" font-family="sans-serif" font-size="4.3333" lengthAdjust="spacing" textLength="12.6667" x="422" y="478.1895">owner</text></g><!--link Match to Player--><g id="link_Match_Player"><path codeLine="475" d="M368.8733,398.0467 C374.6367,399.64 381.1933,402.44 385.3333,407.3333 C398.8467,423.3067 380.5,438.5767 395.3333,453.3333 C408.8833,466.8133 464.6608,473.0434 489.9275,475.2401 " fill="none" id="Match-to-Player-2" style="stroke:#181818;stroke-width:0.3333333333333333;"/><polygon fill="#181818" points="491.92,475.4133,489.0468,473.8252,490.2596,475.269,488.8158,476.4818,491.92,475.4133" style="stroke:#181818;stroke-width:0.3333333333333333;"/><text fill="#000000" font-family="sans-serif" font-size="4.3333" lengthAdjust="spacing" textLength="14" x="421.3333" y="452.1895">winner</text></g><!--reverse link MatchController to MatchService--><g id="link_MatchController_MatchService"><path codeLine="476" d="M128.5267,267.9266 C152.46,267.8666 185.1433,267.78 207.7033,267.72 " fill="none" id="MatchController-backto-MatchService" style="stroke:#181818;stroke-width:0.3333333333333333;"/><polygon fill="#181818" points="124.5267,267.9367,126.53,269.265,128.5267,267.9266,126.5233,266.5983,124.5267,267.9367" style="stroke:#181818;stroke-width:0.3333333333333333;"/><text fill="#000000" font-family="sans-serif" font-size="4.3333" lengthAdjust="spacing" textLength="27.6667" x="156.3333" y="266.6395">matchService</text></g><!--link MatchDao to MatchStatus--><g id="link_MatchDao_MatchStatus"><path codeLine="477" d="M373.4333,417.0733 C394.13,415.2733 430.6967,411.37 461.3333,404.3333 C470.8733,402.1433 479.4334,399.3899 487.5834,396.4765 " fill="none" id="MatchDao-to-MatchStatus" style="stroke:#181818;stroke-width:0.3333333333333333;"/><polygon fill="#181818" points="489.4667,395.8033,486.1929,395.5576,487.8973,396.3643,487.0905,398.0687,489.4667,395.8033" style="stroke:#181818;stroke-width:0.3333333333333333;"/><text fill="#000000" font-family="sans-serif" font-size="4.3333" lengthAdjust="spacing" textLength="13" x="421.8333" y="403.1895">status</text></g><!--link MatchDao to PlayerDao--><g id="link_MatchDao_PlayerDao"><path codeLine="478" d="M357.5033,423.8167 C359.9233,448.8167 371.2367,551.5567 395.3333,570.3333 C406.9033,579.3467 449.8633,579.4733 461.3333,570.3333 C476.9033,557.9267 461.0567,543.72 471.3333,526.6667 C477.1367,517.0333 485.738,510.1308 493.1813,505.1808 " fill="none" id="MatchDao-to-PlayerDao" style="stroke:#181818;stroke-width:0.3333333333333333;"/><polygon fill="#181818" points="494.8467,504.0733,491.6103,504.6244,493.4589,504.9963,493.087,506.8448,494.8467,504.0733" style="stroke:#181818;stroke-width:0.3333333333333333;"/><text fill="#000000" font-family="sans-serif" font-size="4.3333" lengthAdjust="spacing" textLength="28.3333" x="414.1667" y="564.1895">@ManyToOne</text><text fill="#000000" font-family="sans-serif" font-size="4.3333" lengthAdjust="spacing" textLength="20" x="418.3333" y="569.293">opponent</text></g><!--link MatchDao to PlayerDao--><g id="link_MatchDao_PlayerDao"><path codeLine="479" d="M357.7567,423.6933 C361.02,445.99 374.68,530.9567 395.3333,546.3333 C407.0967,555.09 448.83,554.0033 461.3333,546.3333 C469.6933,541.2067 465.2833,534.3833 471.3333,526.6667 C478.41,517.64 487.1177,510.5222 494.2211,505.3389 " fill="none" id="MatchDao-to-PlayerDao-1" style="stroke:#181818;stroke-width:0.3333333333333333;"/><polygon fill="#181818" points="495.8367,504.16,492.6273,504.8513,494.4903,505.1424,494.1992,507.0054,495.8367,504.16" style="stroke:#181818;stroke-width:0.3333333333333333;"/><text fill="#000000" font-family="sans-serif" font-size="4.3333" lengthAdjust="spacing" textLength="28.3333" x="414.1667" y="540.1895">@ManyToOne</text><text fill="#000000" font-family="sans-serif" font-size="4.3333" lengthAdjust="spacing" textLength="12.6667" x="422" y="545.293">owner</text></g><!--link MatchDao to PlayerDao--><g id="link_MatchDao_PlayerDao"><path codeLine="480" d="M356.9967,423.7267 C357.3167,441.6833 361.06,499.6667 395.3333,523.6667 C419.36,540.4933 433.03,531.3733 461.3333,523.6667 C475.21,519.8867 487.5931,511.525 495.5565,505.3816 " fill="none" id="MatchDao-to-PlayerDao-2" style="stroke:#181818;stroke-width:0.3333333333333333;"/><polygon fill="#181818" points="497.14,504.16,493.9503,504.9367,495.8204,505.178,495.5791,507.0481,497.14,504.16" style="stroke:#181818;stroke-width:0.3333333333333333;"/><text fill="#000000" font-family="sans-serif" font-size="4.3333" lengthAdjust="spacing" textLength="28.3333" x="414.1667" y="517.5228">@ManyToOne</text><text fill="#000000" font-family="sans-serif" font-size="4.3333" lengthAdjust="spacing" textLength="14" x="421.3333" y="522.6263">winner</text></g><!--link MatchDao to AbstractDao--><g id="link_MatchDao_AbstractDao"><path codeLine="481" d="M357.4167,423.8 C359.52,449.69 369.8667,559.54 395.3333,579.6667 C401.0867,584.2133 454.6033,582.5833 461.3333,579.6667 C467.2967,577.0833 465.4267,571.71 471.3333,569 C495.4967,557.9067 672.7433,556.7483 732.92,556.665 " fill="none" id="MatchDao-to-AbstractDao" style="stroke:#181818;stroke-width:0.3333333333333333;"/><polygon fill="none" points="738.92,556.6567,732.9172,554.665,732.9228,558.665,738.92,556.6567" style="stroke:#181818;stroke-width:0.3333333333333333;"/></g><!--reverse link MatchMapper to PlayerMapper--><g id="link_MatchMapper_PlayerMapper"><path codeLine="482" d="M655.6079,357.3671 C674.0079,363.1738 697.3533,372.59 716.3333,389 C736.6133,406.5333 750.6367,436.3433 755.8033,448.5467 " fill="none" id="MatchMapper-backto-PlayerMapper" style="stroke:#181818;stroke-width:0.3333333333333333;"/><polygon fill="#181818" points="651.7933,356.1633,653.2993,358.0368,655.6079,357.3671,654.1019,355.4937,651.7933,356.1633" style="stroke:#181818;stroke-width:0.3333333333333333;"/><text fill="#000000" font-family="sans-serif" font-size="4.3333" lengthAdjust="spacing" textLength="28" x="684.5" y="366.5995">playerMapper</text></g><!--reverse link MatchService to MatchFleet--><g id="link_MatchService_MatchFleet"><path codeLine="483" d="M231.4428,258.457 C236.5828,243.4936 250.9967,204.48 272.3333,173.6667 C292.4933,144.5567 298.5533,136.3333 328,116.6667 C331.4367,114.37 335.41,112.4233 339.2733,110.8233 " fill="none" id="MatchService-backto-MatchFleet" style="stroke:#181818;stroke-width:0.3333333333333333;"/><polygon fill="none" points="230.1433,262.24,232.0541,260.7817,231.4428,258.457,229.5321,259.9153,230.1433,262.24" style="stroke:#181818;stroke-width:0.3333333333333333;"/><text fill="#000000" font-family="sans-serif" font-size="4.3333" lengthAdjust="spacing" textLength="45" x="272.6667" y="123.1995">matchIdToMatchFleet</text><text fill="#000000" font-family="sans-serif" font-size="4.3333" lengthAdjust="spacing" textLength="2.6667" x="227.7551" y="258.7225">1</text><text fill="#000000" font-family="sans-serif" font-size="4.3333" lengthAdjust="spacing" textLength="7.3333" x="328.9784" y="116.1437">0..*</text></g><!--reverse link MatchService to ValidatorService--><g id="link_MatchService_ValidatorService"><path codeLine="484" d="M235.5617,259.2498 C243.0084,250.7831 255.9167,237.41 272.3333,228 C294.3833,215.36 366.9333,192.8 385.3333,210.3333 C402.0033,226.2167 379.43,400.6833 395.3333,417.3333 C405.9467,428.4433 659.5,432.78 670.6667,443.3333 C692.2267,463.7133 660.2467,487.8133 680.6667,509.3333 C691.8067,521.0733 700.8833,511.8533 716.3333,516.6667 C726.91,519.96 738.4767,524.9867 746.7333,528.8367 " fill="none" id="MatchService-backto-ValidatorService" style="stroke:#181818;stroke-width:0.3333333333333333;"/><polygon fill="#181818" points="232.92,262.2533,235.242,261.6321,235.5617,259.2498,233.2397,259.871,232.92,262.2533" style="stroke:#181818;stroke-width:0.3333333333333333;"/><text fill="#000000" font-family="sans-serif" font-size="4.3333" lengthAdjust="spacing" textLength="33" x="487.6667" y="425.7128">validatorService</text></g><!--reverse link MatchService to GameService--><g id="link_MatchService_GameService"><path codeLine="485" d="M231.8396,258.5111 C236.883,245.7777 249.7467,217.5667 272.3333,201 C291.4433,186.9833 318.5167,181.1367 336.7167,178.7067 " fill="none" id="MatchService-backto-GameService" style="stroke:#181818;stroke-width:0.3333333333333333;"/><polygon fill="#181818" points="230.3667,262.23,232.3428,260.8615,231.8396,258.5111,229.8635,259.8796,230.3667,262.23" style="stroke:#181818;stroke-width:0.3333333333333333;"/><text fill="#000000" font-family="sans-serif" font-size="4.3333" lengthAdjust="spacing" textLength="26" x="282.1667" y="180.9761">gameService</text></g><!--reverse link MatchService to MatchMapper--><g id="link_MatchService_MatchMapper"><path codeLine="486" d="M252.2338,265.5159 C259.7738,264.9092 264.45,264.63 272.3333,264.3333 C292.6167,263.5667 297.7167,263.63 318,264.3333 C419.8667,267.86 449.8133,260.5467 545,297 C577.2133,309.3367 610.51,334.24 624.35,345.2367 " fill="none" id="MatchService-backto-MatchMapper" style="stroke:#181818;stroke-width:0.3333333333333333;"/><polygon fill="#181818" points="248.2467,265.8367,250.3472,267.0053,252.2338,265.5159,250.1333,264.3472,248.2467,265.8367" style="stroke:#181818;stroke-width:0.3333333333333333;"/><text fill="#000000" font-family="sans-serif" font-size="4.3333" lengthAdjust="spacing" textLength="28.3333" x="414.1667" y="264.9561">matchMapper</text></g><!--reverse link MatchService to MatchRepository--><g id="link_MatchService_MatchRepository"><path codeLine="487" d="M252.3149,269.9773 C274.9915,272.1639 307.9667,275.34 332.22,277.6767 " fill="none" id="MatchService-backto-MatchRepository" style="stroke:#181818;stroke-width:0.3333333333333333;"/><polygon fill="#181818" points="248.3333,269.5933,250.1961,271.1125,252.3149,269.9773,250.4521,268.4581,248.3333,269.5933" style="stroke:#181818;stroke-width:0.3333333333333333;"/><text fill="#000000" font-family="sans-serif" font-size="4.3333" lengthAdjust="spacing" textLength="35.3333" x="277.5" y="270.8628">matchRepository</text></g><!--reverse link MatchService to ActionHistoryService--><g id="link_MatchService_ActionHistoryService"><path codeLine="488" d="M242.3153,275.0272 C259.4353,284.1672 290.74,301.5967 318,321.3333 C322.7633,324.7833 322.7633,327.3233 328,330 C328.81,330.4133 329.6467,330.8033 330.5,331.1667 " fill="none" id="MatchService-backto-ActionHistoryService" style="stroke:#181818;stroke-width:0.3333333333333333;"/><polygon fill="#181818" points="238.7867,273.1433,239.923,275.2615,242.3153,275.0272,241.1789,272.9091,238.7867,273.1433" style="stroke:#181818;stroke-width:0.3333333333333333;"/><text fill="#000000" font-family="sans-serif" font-size="4.3333" lengthAdjust="spacing" textLength="43" x="273.6667" y="290.8928">actionHistoryService</text></g><!--reverse link MatchService to NotificationService--><g id="link_MatchService_NotificationService"><path codeLine="489" d="M245.1628,274.9253 C254.8028,279.6886 263.6033,285.8233 269.6667,297 C273.1667,303.45 270.39,355.9233 272.3333,363 C279.9433,390.7267 372.1833,573.6167 395.3333,590.6667 C395.3333,590.6667 543.3367,619.7667 604.7667,631.8433 " fill="none" id="MatchService-backto-NotificationService" style="stroke:#181818;stroke-width:0.3333333333333333;"/><polygon fill="#181818" points="241.5767,273.1533,242.7791,275.2347,245.1628,274.9253,243.9604,272.844,241.5767,273.1533" style="stroke:#181818;stroke-width:0.3333333333333333;"/><text fill="#000000" font-family="sans-serif" font-size="4.3333" lengthAdjust="spacing" textLength="39" x="408.8333" y="589.5228">notificationService</text></g><!--reverse link MatchService to PlayerService--><g id="link_MatchService_PlayerService"><path codeLine="490" d="M240.1276,260.1057 C248.8476,254.5924 259.5833,248.11 272.3333,241.6667 C296.3267,229.5433 301.6567,223.3667 328,218 C352.97,212.9133 366.9033,200.4033 385.3333,218 C402.7367,234.6167 378.4167,417.22 395.3333,434.3333 C407.0433,446.18 528.3767,441.91 545,443 C561.1567,444.06 565.2633,443.68 581.3333,445.6667 C591.15,446.88 601.9767,448.71 611.01,450.3767 " fill="none" id="MatchService-backto-PlayerService" style="stroke:#181818;stroke-width:0.3333333333333333;"/><polygon fill="#181818" points="236.7467,262.2433,239.1497,262.3015,240.1276,260.1057,237.7246,260.0476,236.7467,262.2433" style="stroke:#181818;stroke-width:0.3333333333333333;"/><text fill="#000000" font-family="sans-serif" font-size="4.3333" lengthAdjust="spacing" textLength="27.3333" x="414.6667" y="433.1895">playerService</text></g><!--link MatchUI to MatchStatus--><g id="link_MatchUI_MatchStatus"><path codeLine="491" d="M371.2133,375.28 C397.8067,378.3 453.0994,384.5744 482.9261,387.961 " fill="none" id="MatchUI-to-MatchStatus" style="stroke:#181818;stroke-width:0.3333333333333333;"/><polygon fill="#181818" points="484.9133,388.1867,482.0829,386.5234,483.2573,387.9986,481.7821,389.173,484.9133,388.1867" style="stroke:#181818;stroke-width:0.3333333333333333;"/><text fill="#000000" font-family="sans-serif" font-size="4.3333" lengthAdjust="spacing" textLength="26" x="415.3333" y="376.9928">matchStatus</text></g><!--link ShotGameOwnerResponseMessage to BaseResponseMessage--><g id="link_ShotGameOwnerResponseMessage_BaseResponseMessage"><path codeLine="492" d="M101.7533,423.7867 C105.7733,452.0367 125.6667,581.3367 156,605 C173.4633,618.6233 522.2867,612.4633 545,612 C621.1967,610.4433 640.28,609.8967 716.3333,605 C719.74,604.78 717.3187,604.9898 720.8587,604.7098 " fill="none" id="ShotGameOwnerResponseMessage-to-BaseResponseMessage" style="stroke:#181818;stroke-width:0.3333333333333333;"/><polygon fill="none" points="726.84,604.2367,720.701,602.716,721.0164,606.7035,726.84,604.2367" style="stroke:#181818;stroke-width:0.3333333333333333;"/></g><!--link ShotGameRequestMessage to BaseRequestMessage--><g id="link_ShotGameRequestMessage_BaseRequestMessage"><path codeLine="493" d="M136.7633,400.27 C140.2933,401.99 143.49,404.2867 146,407.3333 C159.11,423.25 141.47,578.03 156,592.6667 C174.77,611.5733 368.7033,606.5167 395.3333,607.3333 C424.6533,608.23 432.03,608.6733 461.3333,607.3333 C514.8333,604.8867 528.0167,601.3933 581.3333,596.3333 C633.26,591.4033 687.7763,586.0121 722.8063,582.5187 " fill="none" id="ShotGameRequestMessage-to-BaseRequestMessage" style="stroke:#181818;stroke-width:0.3333333333333333;stroke-dasharray:7.0,7.0;"/><polygon fill="none" points="728.7767,581.9233,722.6078,580.5286,723.0047,584.5089,728.7767,581.9233" style="stroke:#181818;stroke-width:0.3333333333333333;"/></g><!--link ShotGameResponseMessage to BaseResponseMessage--><g id="link_ShotGameResponseMessage_BaseResponseMessage"><path codeLine="494" d="M134.5467,379.1467 C138.6133,380.6467 142.5433,382.5633 146,385 C228.5733,443.2233 193.21,511.1667 272.3333,574 C293.04,590.4433 302.4067,588.3533 328,595 C357.2833,602.6033 365.16,602.7733 395.3333,605 C424.5867,607.16 432.61,610.9567 461.3333,605 C466.0767,604.0167 466.63,601.8267 471.3333,600.6667 C504.3667,592.53 513.67,596.26 547.6667,595 C562.62,594.4467 566.3733,594.7333 581.3333,595 C632.35,595.9133 685.6159,598.0472 720.8992,599.6138 " fill="none" id="ShotGameResponseMessage-to-BaseResponseMessage" style="stroke:#181818;stroke-width:0.3333333333333333;"/><polygon fill="none" points="726.8933,599.88,720.988,597.6158,720.8105,601.6119,726.8933,599.88" style="stroke:#181818;stroke-width:0.3333333333333333;"/></g><!--reverse link ActionHistoryController to ActionHistoryService--><g id="link_ActionHistoryController_ActionHistoryService"><path codeLine="495" d="M264.0282,314.3336 C267.4715,315.9236 267.04,316.3133 269.6667,319 C273.0833,322.4933 268.61,326.5033 272.3333,329.6667 C280.5,336.61 306.83,337.8967 327.86,337.73 " fill="none" id="ActionHistoryController-backto-ActionHistoryService" style="stroke:#181818;stroke-width:0.3333333333333333;"/><polygon fill="#181818" points="260.3967,312.6567,261.6535,314.7056,264.0282,314.3336,262.7714,312.2846,260.3967,312.6567" style="stroke:#181818;stroke-width:0.3333333333333333;"/><text fill="#000000" font-family="sans-serif" font-size="4.3333" lengthAdjust="spacing" textLength="43" x="273.6667" y="328.5228">actionHistoryService</text></g><!--link ActionHistoryDao to MatchDao--><g id="link_ActionHistoryDao_MatchDao"><path codeLine="496" d="M253.2467,332.4933 C259.2733,334.18 265.2433,336.9167 269.6667,341.3333 C272.82,344.4833 270.0967,347.1467 272.3333,351 C289.9467,381.3533 298.73,387.6367 328,407 C331.6233,409.3967 333.9808,410.6662 338.0275,412.3128 " fill="none" id="ActionHistoryDao-to-MatchDao" style="stroke:#181818;stroke-width:0.3333333333333333;"/><polygon fill="#181818" points="339.88,413.0667,337.6038,410.7009,338.3362,412.4385,336.5987,413.1709,339.88,413.0667" style="stroke:#181818;stroke-width:0.3333333333333333;"/><text fill="#000000" font-family="sans-serif" font-size="4.3333" lengthAdjust="spacing" textLength="28.3333" x="281" y="344.8561">@ManyToOne</text><text fill="#000000" font-family="sans-serif" font-size="4.3333" lengthAdjust="spacing" textLength="13" x="288.6667" y="349.9596">match</text></g><!--link ActionHistoryDao to PlayerDao--><g id="link_ActionHistoryDao_PlayerDao"><path codeLine="497" d="M253.3133,328.32 C259.5633,326.6567 265.63,323.7267 269.6667,318.6667 C273.9433,313.3033 267.38,261.7433 272.3333,257 C308.6033,222.2633 348.89,222.4433 385.3333,257 C400.54,271.42 380.4967,430.5333 395.3333,445.3333 C400.5333,450.52 455.6433,444.0267 461.3333,448.6667 C475.09,459.8833 459.31,474.2767 471.3333,487.3333 C475.5033,491.86 479.6522,494.0355 485.4255,495.6689 " fill="none" id="ActionHistoryDao-to-PlayerDao" style="stroke:#181818;stroke-width:0.3333333333333333;"/><polygon fill="#181818" points="487.35,496.2133,484.8263,494.1137,485.7463,495.7596,484.1003,496.6796,487.35,496.2133" style="stroke:#181818;stroke-width:0.3333333333333333;"/><text fill="#000000" font-family="sans-serif" font-size="4.3333" lengthAdjust="spacing" textLength="28.3333" x="342.5" y="224.8695">@ManyToOne</text><text fill="#000000" font-family="sans-serif" font-size="4.3333" lengthAdjust="spacing" textLength="12.6667" x="350.3333" y="229.973">player</text></g><!--link ActionHistoryDao to AbstractDao--><g id="link_ActionHistoryDao_AbstractDao"><path codeLine="498" d="M253.2467,331.6167 C259.5367,333.2733 265.64,336.2167 269.6667,341.3333 C272.68,345.1633 271.41,424.2167 272.3333,429 C285.9733,499.78 273.6267,534.01 328,581.3333 C347.66,598.4433 362.1233,581.8067 385.3333,593.6667 C390.6567,596.3867 389.75,600.5233 395.3333,602.6667 C402.18,605.2933 454.4867,605.2933 461.3333,602.6667 C466.9167,600.5233 465.9,596.1633 471.3333,593.6667 C495.6733,582.4867 672.8273,564.7918 732.9606,559.0351 " fill="none" id="ActionHistoryDao-to-AbstractDao" style="stroke:#181818;stroke-width:0.3333333333333333;"/><polygon fill="none" points="738.9333,558.4633,732.77,557.0442,733.1512,561.026,738.9333,558.4633" style="stroke:#181818;stroke-width:0.3333333333333333;"/></g><!--reverse link ActionHistoryMapper to MatchMapper--><g id="link_ActionHistoryMapper_MatchMapper"><path codeLine="499" d="M537.5233,350.6667 C561.01,350.6667 589.51,350.6667 610.3967,350.6667 " fill="none" id="ActionHistoryMapper-backto-MatchMapper" style="stroke:#181818;stroke-width:0.3333333333333333;"/><polygon fill="#181818" points="533.5233,350.6667,535.5233,352,537.5233,350.6667,535.5233,349.3333,533.5233,350.6667" style="stroke:#181818;stroke-width:0.3333333333333333;"/><text fill="#000000" font-family="sans-serif" font-size="4.3333" lengthAdjust="spacing" textLength="28.3333" x="550.3333" y="349.5228">matchMapper</text></g><!--reverse link ActionHistoryMapper to PlayerMapper--><g id="link_ActionHistoryMapper_PlayerMapper"><path codeLine="500" d="M537.5019,351.8148 C541.8019,353.0748 541.96,354.03 545,357.3333 C549.9833,362.7467 542.51,385.0833 547.6667,390.3333 C552.9333,395.6967 573.9267,392.38 581.3333,393.6667 C582.5367,393.8767 582.8,394.11 584,394.3333 C622.1567,401.4233 633.79,392.9067 670.6667,405 C702.6333,415.4833 736.17,438.1133 750.64,448.54 " fill="none" id="ActionHistoryMapper-backto-PlayerMapper" style="stroke:#181818;stroke-width:0.3333333333333333;"/><polygon fill="#181818" points="533.6633,350.69,535.2077,352.5319,537.5019,351.8148,535.9576,349.9729,533.6633,350.69" style="stroke:#181818;stroke-width:0.3333333333333333;"/><text fill="#000000" font-family="sans-serif" font-size="4.3333" lengthAdjust="spacing" textLength="28" x="617.3333" y="393.1895">playerMapper</text></g><!--reverse link ActionHistoryService to ValidatorService--><g id="link_ActionHistoryService_ValidatorService"><path codeLine="501" d="M387.1122,344.8638 C402.4288,362.4105 378.4967,431.5733 395.3333,447.6667 C400.64,452.74 455.84,446.1267 461.3333,451 C481.01,468.4567 452.29,491.1867 471.3333,509.3333 C495.2133,532.0867 518.0467,499.32 545,518.3333 C547.1667,519.86 545.4833,522.1633 547.6667,523.6667 C596.58,557.3833 621.3333,534.0333 680.6667,537 C698.7467,537.9033 719.22,537.1167 734.5567,536.17 " fill="none" id="ActionHistoryService-backto-ValidatorService" style="stroke:#181818;stroke-width:0.3333333333333333;"/><polygon fill="#181818" points="384.1767,342.1467,384.7387,344.4837,387.1122,344.8638,386.5501,342.5267,384.1767,342.1467" style="stroke:#181818;stroke-width:0.3333333333333333;"/><text fill="#000000" font-family="sans-serif" font-size="4.3333" lengthAdjust="spacing" textLength="33" x="548" y="522.5228">validatorService</text></g><!--reverse link ActionHistoryService to ActionHistoryMapper--><g id="link_ActionHistoryService_ActionHistoryMapper"><path codeLine="502" d="M389.4034,341.6362 C392.7334,342.0896 392.1233,341.9733 395.3333,342.3333 C422.18,345.3433 452.89,347.5933 474.77,348.99 " fill="none" id="ActionHistoryService-backto-ActionHistoryMapper" style="stroke:#181818;stroke-width:0.3333333333333333;"/><polygon fill="#181818" points="385.44,341.0967,387.2419,342.6876,389.4034,341.6362,387.6016,340.0453,385.44,341.0967" style="stroke:#181818;stroke-width:0.3333333333333333;"/><text fill="#000000" font-family="sans-serif" font-size="4.3333" lengthAdjust="spacing" textLength="15.6667" x="420.5" y="341.1895">mapper</text></g><!--reverse link ActionHistoryService to ActionHistoryRepository--><g id="link_ActionHistoryService_ActionHistoryRepository"><path codeLine="503" d="M389.478,334.5273 C414.038,332.9106 445.5067,330.84 471.2033,329.1467 " fill="none" id="ActionHistoryService-backto-ActionHistoryRepository" style="stroke:#181818;stroke-width:0.3333333333333333;"/><polygon fill="#181818" points="385.4867,334.79,387.5699,335.9891,389.478,334.5273,387.3948,333.3282,385.4867,334.79" style="stroke:#181818;stroke-width:0.3333333333333333;"/><text fill="#000000" font-family="sans-serif" font-size="4.3333" lengthAdjust="spacing" textLength="50.6667" x="403" y="328.7128">actionHistoryRepository</text></g><!--reverse link ActionHistoryService to NotificationService--><g id="link_ActionHistoryService_NotificationService"><path codeLine="504" d="M387.1233,344.8518 C402.7599,362.8051 378.14,433.53 395.3333,450 C400.6367,455.08 455.92,448.3733 461.3333,453.3333 C485.1567,475.1567 451.3867,499.92 471.3333,525.3333 C503.81,566.71 539.7467,536.7933 581.3333,569 C604.6233,587.0367 622.02,618.8067 628.3733,631.52 " fill="none" id="ActionHistoryService-backto-NotificationService" style="stroke:#181818;stroke-width:0.3333333333333333;"/><polygon fill="#181818" points="384.1767,342.1467,384.7483,344.4814,387.1233,344.8518,386.5517,342.517,384.1767,342.1467" style="stroke:#181818;stroke-width:0.3333333333333333;"/><text fill="#000000" font-family="sans-serif" font-size="4.3333" lengthAdjust="spacing" textLength="39" x="484.6667" y="524.1895">notificationService</text></g><!--link NotificationResponseMessage to TypeNotification--><g id="link_NotificationResponseMessage_TypeNotification"><path codeLine="505" d="M670.7733,657.3733 C691.5367,656.3333 714.3758,655.1866 732.2292,654.2933 " fill="none" id="NotificationResponseMessage-to-TypeNotification" style="stroke:#181818;stroke-width:0.3333333333333333;"/><polygon fill="#181818" points="734.2267,654.1933,731.1638,653.0116,732.5621,654.2766,731.297,655.6749,734.2267,654.1933" style="stroke:#181818;stroke-width:0.3333333333333333;"/><text fill="#000000" font-family="sans-serif" font-size="4.3333" lengthAdjust="spacing" textLength="9" x="694" y="654.0861">type</text></g><!--link NotificationResponseMessage to BaseResponseMessage--><g id="link_NotificationResponseMessage_BaseResponseMessage"><path codeLine="506" d="M653.5,653.8567 C659.17,652.2 665.2133,650.22 670.6667,648 C700.6767,635.7767 728.7286,619.3901 744.1319,609.9435 " fill="none" id="NotificationResponseMessage-to-BaseResponseMessage" style="stroke:#181818;stroke-width:0.3333333333333333;"/><polygon fill="none" points="749.2467,606.8067,743.0863,608.2386,745.1775,611.6484,749.2467,606.8067" style="stroke:#181818;stroke-width:0.3333333333333333;"/></g><!--reverse link PlayerController to PlayerService--><g id="link_PlayerController_PlayerService"><path codeLine="507" d="M532.1467,454.0739 C556.03,454.1373 588.5233,454.22 611.01,454.28 " fill="none" id="PlayerController-backto-PlayerService" style="stroke:#181818;stroke-width:0.3333333333333333;"/><polygon fill="#181818" points="528.1467,454.0633,530.1431,455.402,532.1467,454.0739,530.1502,452.7353,528.1467,454.0633" style="stroke:#181818;stroke-width:0.3333333333333333;"/><text fill="#000000" font-family="sans-serif" font-size="4.3333" lengthAdjust="spacing" textLength="27.3333" x="550.8333" y="452.9728">playerService</text></g><!--link PlayerDao to AbstractDao--><g id="link_PlayerDao_AbstractDao"><path codeLine="508" d="M520.9367,502.4267 C565.92,512.72 685.0278,539.9718 733.0311,550.9551 " fill="none" id="PlayerDao-to-AbstractDao" style="stroke:#181818;stroke-width:0.3333333333333333;"/><polygon fill="none" points="738.88,552.2933,733.4772,549.0055,732.5851,552.9047,738.88,552.2933" style="stroke:#181818;stroke-width:0.3333333333333333;"/></g><!--reverse link PlayerService to ValidatorService--><g id="link_PlayerService_ValidatorService"><path codeLine="509" d="M637.2978,463.1071 C647.3445,478.7204 674.04,519.6367 680.6667,523.6667 C696.82,533.49 718.3333,535.7733 734.5667,535.82 " fill="none" id="PlayerService-backto-ValidatorService" style="stroke:#181818;stroke-width:0.3333333333333333;"/><polygon fill="#181818" points="635.1333,459.7433,635.0943,462.1467,637.2978,463.1071,637.3368,460.7037,635.1333,459.7433" style="stroke:#181818;stroke-width:0.3333333333333333;"/><text fill="#000000" font-family="sans-serif" font-size="4.3333" lengthAdjust="spacing" textLength="33" x="682" y="522.5228">validatorService</text></g><!--reverse link PlayerService to NotificationService--><g id="link_PlayerService_NotificationService"><path codeLine="510" d="M631.3333,463.78 C631.3333,490.6233 631.3333,604.6433 631.3333,631.5333 " fill="none" id="PlayerService-backto-NotificationService" style="stroke:#181818;stroke-width:0.3333333333333333;"/><polygon fill="#181818" points="631.3333,459.78,630,461.78,631.3333,463.78,632.6667,461.78,631.3333,459.78" style="stroke:#181818;stroke-width:0.3333333333333333;"/><text fill="#000000" font-family="sans-serif" font-size="4.3333" lengthAdjust="spacing" textLength="39" x="608" y="547.3561">notificationService</text></g><!--reverse link PlayerService to PlayerMapper--><g id="link_PlayerService_PlayerMapper"><path codeLine="511" d="M655.5467,454.2698 C678.9633,454.2098 713.6733,454.1167 737.4,454.0533 " fill="none" id="PlayerService-backto-PlayerMapper" style="stroke:#181818;stroke-width:0.3333333333333333;"/><polygon fill="#181818" points="651.5467,454.28,653.5501,455.6082,655.5467,454.2698,653.5432,452.9415,651.5467,454.28" style="stroke:#181818;stroke-width:0.3333333333333333;"/><text fill="#000000" font-family="sans-serif" font-size="4.3333" lengthAdjust="spacing" textLength="15.6667" x="690.6667" y="452.9728">mapper</text></g><!--reverse link PlayerService to PlayerRepository--><g id="link_PlayerService_PlayerRepository"><path codeLine="512" d="M655.4874,458.4828 C677.7907,462.3661 710.03,467.98 733.92,472.14 " fill="none" id="PlayerService-backto-PlayerRepository" style="stroke:#181818;stroke-width:0.3333333333333333;"/><polygon fill="#181818" points="651.5467,457.7967,653.2883,459.4533,655.4874,458.4828,653.7457,456.8262,651.5467,457.7967" style="stroke:#181818;stroke-width:0.3333333333333333;"/><text fill="#000000" font-family="sans-serif" font-size="4.3333" lengthAdjust="spacing" textLength="35" x="681" y="462.2195">playerRepository</text></g><!--SRC=[vHnTS-EsyRdw5PphYo-ss6RI9sMcKzcMRVRquH7bk4qweu55MCAP8XYIkhDwpNyl210YG88q2L8VSLxkB0BONImM-qswy3ao8cm4QBcA30S5S14Xx7N21N2XyVrVVkXqEWiNXA4HR4pieTS0EcQ8dc20W6U649XF88fSQ3v346q2QDh9c0t19Htf-xwB5Y26Qdph_EdR6aOhxFnc6D_2Y3nT_6QShm7oZ3C31ClGw1c_33-3By1qWRSqxIX0tl97uoDv_WKZf_CReGSyXL405f5HYx05Ng-nP_QJnTS0KtAU4NG9DTr5GEP1fnyHJ1H_XDRG_1bxqBac0pFoYo97NWI3Px20DV5UWX1EuQyR64OZ68PW2GdwnhjXK4CVUo5CmUvsTGw300VNC5m4oASdq3COIuM3-FC2U8DVDy0bHu2Z5Gp8fCdJPo88bErF6BiGUCA2SnZF3kFfRqvTWN1rXHredCKJ2FF4mGWpOjXWGbZC4-XjrZKvOHDXseJIvWVJwMGg_9vyei1r-FmJS9438XpOCFY25XAJkr_u81MT5n14m4oU8N6ji7M-1iPCP0oKE4abS1CXrxIXn3A-BX4biZn8_fBMx-vApSrwpsYv2HZT8t9ixWZuFWokn07f5f-lqrdi676mDEd3DNqeWcbAaUt74cB3nIP0qRQ4ABuiPkygYlo4h92kVmx06dx5mGj1o20bQ4pWUJXYgBx29_DfWrm71g5vHq1mhCR7ju35I_di6-GITN6r8WfEfYy8sL3Aiooy6CmpdMDUxQQBG3OX95Sx0iWDkLIUVNnxfuIhyKg7hJGVSb2Qdj8ZVBBnuWL6LGueKLgN0Nw9cM6mWO9ThEbayeXGi_RvgKaWfd29Y3xTfhT0m1hGGHZO4Lxx0y_nCL588Rr3oQhYemZfbXII8W7Bew_Dp2N1QbvjGWBsneKmoklpsm0vr53-OcM7k0qGr3mV3vc2L6df4xG0zLcMPzPonwTX7K0nU-_Zm_nHf1GupYC8mXNooQw_9d_rQb78roj4yrsSm2tv9x44QaUlkuGHvQp4mjJMJQYFGfYGfrC04c5s0SwCnWTiN1Wed7prAByJpb7ax6e9JA8eRt0myOcl1UaEccClnqJ9QXED_gagl9xKUwTkrlnsC1vC-xF1_6Ou6CmK2YXTCBB6rjosVXxiJZaxfUlYdGrmd__ssHpYvP9QF-vp1S1p9DcPaWTuBTcO5LoyY8fKvAL5kQAfadDOx1MEmJzJD3qDjNLXl39caB-soLy5jvdS8RwTLnlz5wRhX5yVTQWG_TDAM2xuBHOYZ50wbI6nXes9YRVChtmJ5eU4yXZEZlegTr_MNfFN8V9WIwe7YoUT2yjYT4oe2RerIELZZJnXdQmcuqMfcMg3o51Vg1922idBY_n5ce6O_4iubejzR2LlTqwHKW6H1ktInNnBOSZNLfsgGHwA1ci_skPjiALoR8JhKxAqYMNB8EoYqF9eb7oFGnHll1_W3J4MP-Iwtw20HihfQQ5m23AFYWusFVfK7DeuRDNvvlL-zmMvRcFNys8_J1S490wTedqTxX_R4UE0fEGJ2WUllakYUaSI6nu3bRdP9n5_2FIV5QmFOPJECLGRBf2LrYAR4OWMgpJ0b9q_BedNs8E5Uw0p7m6A-gwRE5RD6VkCF8TZvzvQdDknPDVuuS6wVjjgID0U69Gcu69lgGPjJHr4JShZHyrYvKn6pd9cM3ZW51E9Z3MbBtVfKsqxVXXT3gRpsMHEex32W4gOU3EvdJzEnbMctbcpAjC-MSDXbNaZoxQhpBFl9fEPDRwTzwUJX_5rbIK_JQpSlEvhxiasVwPxpQC8uw_ALTlqgPviSCCkvhrSz0M6sRsVfpxbFhQ_GiKQ3OMVgEzICDoYdivxlNADZpY2KKuer8nXSrLRROjb5E_-KdBhs6OnooL91t9K2b2KaYH6jhm8BgMIm-yzIocmv0fxKO1TDvEhF6TbO6wmqjfQBGnNAP1CoLVbfp2KSPgjASOOHWM4IqWSskQxl1N1L4Axo-BeOeoNLyF4v5uR4rrU0nCC6-A2LVRrcJW2pUJadmc42iZ25OwQ8RCJ24N8cjpVJFj64wrskafAAAPmOoMMsyjhxJaDmulq1awIdXK9ybsm9R3lwN_vDEf7BNadvoTr4GZRFJCSW7M1Qf9JG4iCC4w-nhf41sm3vcZr6adAou_pNpZOPefnlDyeYVZwt3ChoVxbbrnkatwRX3isBoxN9pHPgas2vSb4m88AH7NWbriUJCwHq_SS1dTCIppiCgZYoelzS48HMgi8Zg_qAL7RHEsLLHkBAuExH2bmNR9xzCoR3i-CQEl3wdlqXCNcZ2oLeAbIpll5c1mLFSN4m9GdscckoV8GoxjSRkEK2ByZDnhrCo7xTL6OLc4ZuzXXs94fKgx8mcJPIEdcZfjopuqKEuEVC6Et3PbKVIslzkhVTo31_GfsOgVWLeZ7JUr4h0-nFt4TJcMnIZojK8bOk5raKMg-vCa7DiplEgYxtD94CieeeJVJthd5TNFdNGw4YrsX6bLftO_QwlreaMsyuJ7JM-n-wggHmawAPBoL6eI4CiEpkCIJdFyzrpHlAProWJfaqDybdWXDy8M5PhBv-QWgV7lFDOXL6jyHh5QxPhyh09SLSMF7gm6X5wLIlyl5r7dh8cydn6nCVpWKVbrDHlV3mMmWPcIiyVn-EhcT3cnR_NJ-sBTch9bmFhc_dum7urc5cO_ZWVZAXpthJsVps_ve83oCvpSAK1wi6haddCIIaf8MnsEtgMXGcRZQrVQHfrZwlfBr_5xJ0BViJQUbgYc-Yy8x5AaQ8yW83_8VQJ_TANN5CwgBosaYvILD4nI8aM61EjURriyfJAE0EtliioXLu-91PmD3OIXZhOIHL-K5shxZAbVAoS8xKtexoBbxoeuYhi_ajr1E_zBG3RLrMnWm8ykclTyFG1i5voiIXU5WQ_RfpplsguPDAeedX2c5BkiV-bQLyR-efCmZANvCsZvk1ha8jEKIMzaswrNUweZ8x-x4MwpFHR1nhQbfR5Rq3agRaYFNsNozMjzRqjagqHcAsIa1IU-sYArzXZUe8vQ1tdTvSPHOg2ePj4e0XMnCHOXxK1ZDAbj9lbqMcFUjChBzoTAWLdws58fMptH6NajBNiM9T9MWLaqRAfBoH_CuSecshBZkLtVgUJrI0LOilfPb71I1w7jnTWlveVhyoUwh33Eu9X8RmMfVRx39FwFiKZdCyXpEzpDZiG8UTELSj4C447b0-h1D_5wbueCg-HZESyIDKJjL1318f42pebycKDe9sFAU0L5ERwVMjJr_kB_kpyGiwAW_kxgRgtApREJEicUJwRzpp_MofxBT4CaJ3hOmYYYFCRo2vAbFw2EIzovlgCJFycRcf9HJsmGaAAvsGAgLJlUEhXclik7hSSJlbALf3r6jbsaBoh66F2iy2EtIh3BUz7TIe0sqbLhnBfPiNb3LvOrMQ2X1sMCKUBbD6WAyN7D36-s6qZPQ2Sjs7GR74VQZwtroneoIAWrBEsRLRgwHL-gybSeWr9El0vkuN12rstLpRR6pePrEyszDThj_D_G-rDWps0V9EhgVHQk3MlWCJ8zzGgPJV-M7xpyOkDirFlpLDB_xO6YzfjdZts-ejs_n6qmja25_45Jn3PyR78oGXqwTnYbSRbmGQ9Fv7I5HzmjdFMEv-z7HREffmYOkpT8xvnqTcQpD1VO-Eht0WHxAsdUNeoHHUqSZpra7NxwpgQwgqiKiwshYSoILzeFZZNjj3esKDJDr6ht9MqUI5U-Rz9AMwUGpg7hldnrDrEeYpqKrFSFunmXusncUUF0_NWFfQvqKJO5icmvj6MM4_A-shoHyhBoZ_VfedLkXIWJq4gUpdgrJtAycvcuazj0ccVSP5bhNzScgmv-Ypu4Jjphpw404vNmQvfSSbeYyp2Ldr5XaDAaGyX899UcJWr9JfHZSaqjYXpswDoizFSFBFpqGSSea3LT7-gGyM8sjjF1kLQUzVcOT4w68oZjjjDoQfYuj8fXEApshH-5BnLQ_qzK9RxL9QTu1XLz4Huz7t5jk6njlcxu3UdCLUX2FPgvRfgrj1xJAPJi51x1jEYiVJdpqnsThhOR3Z7BKTUtQtiD-NQdA7ILrD6Tv4qcFViPY3mGUr9eNTKeSon7DMQi3cHBb7ewh-XgJjDyhrvWyjJ6hfs_R9KBIedxcKQUpGWuqQ0KyP7-pCcJO-Jy0]--></g></svg>