<?xml version="1.0" encoding="us-ascii" standalone="no"?><svg xmlns="http://www.w3.org/2000/svg" xmlns:xlink="http://www.w3.org/1999/xlink" contentStyleType="text/css" height="694.3333px" preserveAspectRatio="none" style="width:892px;height:694px;background:#FFFFFF;" version="1.1" viewBox="0 0 892 694" width="892.3333px" zoomAndPan="magnify"><defs/><g><!--cluster ru--><g id="cluster_ru"><path d="M2.8333,2 L8.8333,2 A1.25,1.25 0 0 1 9.6667,2.8333 L12,9.4323 L889.3333,9.4323 A0.8333,0.8333 0 0 1 890.1667,10.2656 L890.1667,691.1667 A0.8333,0.8333 0 0 1 889.3333,692 L2.8333,692 A0.8333,0.8333 0 0 1 2,691.1667 L2,2.8333 A0.8333,0.8333 0 0 1 2.8333,2 " fill="none" style="stroke:#000000;stroke-width:0.5;"/><line style="stroke:#000000;stroke-width:0.5;" x1="2" x2="12" y1="9.4323" y2="9.4323"/><text fill="#000000" font-family="sans-serif" font-size="4.6667" font-weight="bold" lengthAdjust="spacing" textLength="5.6667" x="3.3333" y="6.9984">ru</text></g><!--cluster cbr--><g id="cluster_cbr"><path d="M10.8333,16.3333 L19.8333,16.3333 A1.25,1.25 0 0 1 20.6667,17.1667 L23,23.7656 L881.3333,23.7656 A0.8333,0.8333 0 0 1 882.1667,24.599 L882.1667,683.1667 A0.8333,0.8333 0 0 1 881.3333,684 L10.8333,684 A0.8333,0.8333 0 0 1 10,683.1667 L10,17.1667 A0.8333,0.8333 0 0 1 10.8333,16.3333 " fill="none" style="stroke:#000000;stroke-width:0.5;"/><line style="stroke:#000000;stroke-width:0.5;" x1="10" x2="23" y1="23.7656" y2="23.7656"/><text fill="#000000" font-family="sans-serif" font-size="4.6667" font-weight="bold" lengthAdjust="spacing" textLength="8.6667" x="11.3333" y="21.3317">cbr</text></g><!--cluster siberian--><g id="cluster_siberian"><path d="M18.8333,30.6667 L40.1667,30.6667 A1.25,1.25 0 0 1 41,31.5 L43.3333,38.099 L873.3333,38.099 A0.8333,0.8333 0 0 1 874.1667,38.9323 L874.1667,675.1667 A0.8333,0.8333 0 0 1 873.3333,676 L18.8333,676 A0.8333,0.8333 0 0 1 18,675.1667 L18,31.5 A0.8333,0.8333 0 0 1 18.8333,30.6667 " fill="none" style="stroke:#000000;stroke-width:0.5;"/><line style="stroke:#000000;stroke-width:0.5;" x1="18" x2="43.3333" y1="38.099" y2="38.099"/><text fill="#000000" font-family="sans-serif" font-size="4.6667" font-weight="bold" lengthAdjust="spacing" textLength="21" x="19.3333" y="35.665">siberian</text></g><!--cluster sea--><g id="cluster_sea"><path d="M26.8333,45 L36.5,45 A1.25,1.25 0 0 1 37.3333,45.8333 L39.6667,52.4323 L865.3333,52.4323 A0.8333,0.8333 0 0 1 866.1667,53.2656 L866.1667,667.1667 A0.8333,0.8333 0 0 1 865.3333,668 L26.8333,668 A0.8333,0.8333 0 0 1 26,667.1667 L26,45.8333 A0.8333,0.8333 0 0 1 26.8333,45 " fill="none" style="stroke:#000000;stroke-width:0.5;"/><line style="stroke:#000000;stroke-width:0.5;" x1="26" x2="39.6667" y1="52.4323" y2="52.4323"/><text fill="#000000" font-family="sans-serif" font-size="4.6667" font-weight="bold" lengthAdjust="spacing" textLength="9.3333" x="27.3333" y="49.9984">sea</text></g><!--cluster battle--><g id="cluster_battle"><path d="M34.8333,59.3333 L50.1667,59.3333 A1.25,1.25 0 0 1 51,60.1667 L53.3333,66.7656 L857.3333,66.7656 A0.8333,0.8333 0 0 1 858.1667,67.599 L858.1667,659.1667 A0.8333,0.8333 0 0 1 857.3333,660 L34.8333,660 A0.8333,0.8333 0 0 1 34,659.1667 L34,60.1667 A0.8333,0.8333 0 0 1 34.8333,59.3333 " fill="none" style="stroke:#000000;stroke-width:0.5;"/><line style="stroke:#000000;stroke-width:0.5;" x1="34" x2="53.3333" y1="66.7656" y2="66.7656"/><text fill="#000000" font-family="sans-serif" font-size="4.6667" font-weight="bold" lengthAdjust="spacing" textLength="15" x="35.3333" y="64.3317">battle</text></g><!--cluster acl--><g id="cluster_acl"><path d="M478,455 L485.6667,455 A1.25,1.25 0 0 1 486.5,455.8333 L488.8333,462.4323 L545,462.4323 A0.8333,0.8333 0 0 1 545.8333,463.2656 L545.8333,548.8333 A0.8333,0.8333 0 0 1 545,549.6667 L478,549.6667 A0.8333,0.8333 0 0 1 477.1667,548.8333 L477.1667,455.8333 A0.8333,0.8333 0 0 1 478,455 " fill="none" style="stroke:#000000;stroke-width:0.5;"/><line style="stroke:#000000;stroke-width:0.5;" x1="477.1667" x2="488.8333" y1="462.4323" y2="462.4323"/><text fill="#000000" font-family="sans-serif" font-size="4.6667" font-weight="bold" lengthAdjust="spacing" textLength="7.3333" x="478.5" y="459.9984">acl</text></g><!--cluster configuration--><g id="cluster_configuration"><path d="M42.8333,183.6667 L78.1667,183.6667 A1.25,1.25 0 0 1 79,184.5 L81.3333,191.099 L251.3333,191.099 A0.8333,0.8333 0 0 1 252.1667,191.9323 L252.1667,232.8333 A0.8333,0.8333 0 0 1 251.3333,233.6667 L42.8333,233.6667 A0.8333,0.8333 0 0 1 42,232.8333 L42,184.5 A0.8333,0.8333 0 0 1 42.8333,183.6667 " fill="none" style="stroke:#000000;stroke-width:0.5;"/><line style="stroke:#000000;stroke-width:0.5;" x1="42" x2="81.3333" y1="191.099" y2="191.099"/><text fill="#000000" font-family="sans-serif" font-size="4.6667" font-weight="bold" lengthAdjust="spacing" textLength="35" x="43.3333" y="188.665">configuration</text></g><!--cluster controller--><g id="cluster_controller"><path d="M56.6667,475.3333 L82.6667,475.3333 A1.25,1.25 0 0 1 83.5,476.1667 L85.8333,482.7656 L112.3333,482.7656 A0.8333,0.8333 0 0 1 113.1667,483.599 L113.1667,502.1667 A0.8333,0.8333 0 0 1 112.3333,503 L56.6667,503 A0.8333,0.8333 0 0 1 55.8333,502.1667 L55.8333,476.1667 A0.8333,0.8333 0 0 1 56.6667,475.3333 " fill="none" style="stroke:#000000;stroke-width:0.5;"/><line style="stroke:#000000;stroke-width:0.5;" x1="55.8333" x2="85.8333" y1="482.7656" y2="482.7656"/><text fill="#000000" font-family="sans-serif" font-size="4.6667" font-weight="bold" lengthAdjust="spacing" textLength="25.6667" x="57.1667" y="480.3317">controller</text></g><!--cluster dao--><g id="cluster_dao"><path d="M482,557.6667 L492,557.6667 A1.25,1.25 0 0 1 492.8333,558.5 L495.1667,565.099 L849.3333,565.099 A0.8333,0.8333 0 0 1 850.1667,565.9323 L850.1667,651.1667 A0.8333,0.8333 0 0 1 849.3333,652 L482,652 A0.8333,0.8333 0 0 1 481.1667,651.1667 L481.1667,558.5 A0.8333,0.8333 0 0 1 482,557.6667 " fill="none" style="stroke:#000000;stroke-width:0.5;"/><line style="stroke:#000000;stroke-width:0.5;" x1="481.1667" x2="495.1667" y1="565.099" y2="565.099"/><text fill="#000000" font-family="sans-serif" font-size="4.6667" font-weight="bold" lengthAdjust="spacing" textLength="9.6667" x="482.5" y="562.665">dao</text></g><!--cluster model--><g id="cluster_model"><path d="M451.6667,73.6667 L468,73.6667 A1.25,1.25 0 0 1 468.8333,74.5 L471.1667,81.099 L849,81.099 A0.8333,0.8333 0 0 1 849.8333,81.9323 L849.8333,365.8333 A0.8333,0.8333 0 0 1 849,366.6667 L451.6667,366.6667 A0.8333,0.8333 0 0 1 450.8333,365.8333 L450.8333,74.5 A0.8333,0.8333 0 0 1 451.6667,73.6667 " fill="none" style="stroke:#000000;stroke-width:0.5;"/><line style="stroke:#000000;stroke-width:0.5;" x1="450.8333" x2="471.1667" y1="81.099" y2="81.099"/><text fill="#000000" font-family="sans-serif" font-size="4.6667" font-weight="bold" lengthAdjust="spacing" textLength="16" x="452.1667" y="78.665">model</text></g><!--cluster enumeration--><g id="cluster_enumeration"><path d="M722.6667,245.6667 L756.3333,245.6667 A1.25,1.25 0 0 1 757.1667,246.5 L759.5,253.099 L779,253.099 A0.8333,0.8333 0 0 1 779.8333,253.9323 L779.8333,317.1667 A0.8333,0.8333 0 0 1 779,318 L722.6667,318 A0.8333,0.8333 0 0 1 721.8333,317.1667 L721.8333,246.5 A0.8333,0.8333 0 0 1 722.6667,245.6667 " fill="none" style="stroke:#000000;stroke-width:0.5;"/><line style="stroke:#000000;stroke-width:0.5;" x1="721.8333" x2="759.5" y1="253.099" y2="253.099"/><text fill="#000000" font-family="sans-serif" font-size="4.6667" font-weight="bold" lengthAdjust="spacing" textLength="33.3333" x="723.1667" y="250.665">enumeration</text></g><!--cluster game--><g id="cluster_game"><path d="M479.3333,88 L494,88 A1.25,1.25 0 0 1 494.8333,88.8333 L497.1667,95.4323 L841,95.4323 A0.8333,0.8333 0 0 1 841.8333,96.2656 L841.8333,181.8333 A0.8333,0.8333 0 0 1 841,182.6667 L479.3333,182.6667 A0.8333,0.8333 0 0 1 478.5,181.8333 L478.5,88.8333 A0.8333,0.8333 0 0 1 479.3333,88 " fill="none" style="stroke:#000000;stroke-width:0.5;"/><line style="stroke:#000000;stroke-width:0.5;" x1="478.5" x2="497.1667" y1="95.4323" y2="95.4323"/><text fill="#000000" font-family="sans-serif" font-size="4.6667" font-weight="bold" lengthAdjust="spacing" textLength="14.3333" x="479.8333" y="92.9984">game</text></g><!--cluster message--><g id="cluster_message"><path d="M459.6667,190.6667 L483.6667,190.6667 A1.25,1.25 0 0 1 484.5,191.5 L486.8333,198.099 L680.3333,198.099 A0.8333,0.8333 0 0 1 681.1667,198.9323 L681.1667,343.5 A0.8333,0.8333 0 0 1 680.3333,344.3333 L459.6667,344.3333 A0.8333,0.8333 0 0 1 458.8333,343.5 L458.8333,191.5 A0.8333,0.8333 0 0 1 459.6667,190.6667 " fill="none" style="stroke:#000000;stroke-width:0.5;"/><line style="stroke:#000000;stroke-width:0.5;" x1="458.8333" x2="486.8333" y1="198.099" y2="198.099"/><text fill="#000000" font-family="sans-serif" font-size="4.6667" font-weight="bold" lengthAdjust="spacing" textLength="23.6667" x="460.1667" y="195.665">message</text></g><!--cluster chat--><g id="cluster_chat"><path d="M476,205 L487.6667,205 A1.25,1.25 0 0 1 488.5,205.8333 L490.8333,212.4323 L547,212.4323 A0.8333,0.8333 0 0 1 547.8333,213.2656 L547.8333,231.8333 A0.8333,0.8333 0 0 1 547,232.6667 L476,232.6667 A0.8333,0.8333 0 0 1 475.1667,231.8333 L475.1667,205.8333 A0.8333,0.8333 0 0 1 476,205 " fill="none" style="stroke:#000000;stroke-width:0.5;"/><line style="stroke:#000000;stroke-width:0.5;" x1="475.1667" x2="490.8333" y1="212.4323" y2="212.4323"/><text fill="#000000" font-family="sans-serif" font-size="4.6667" font-weight="bold" lengthAdjust="spacing" textLength="11.3333" x="476.5" y="209.9984">chat</text></g><!--cluster repository--><g id="cluster_repository"><path d="M474.3333,374.6667 L502,374.6667 A1.25,1.25 0 0 1 502.8333,375.5 L505.1667,382.099 L548.6667,382.099 A0.8333,0.8333 0 0 1 549.5,382.9323 L549.5,446.1667 A0.8333,0.8333 0 0 1 548.6667,447 L474.3333,447 A0.8333,0.8333 0 0 1 473.5,446.1667 L473.5,375.5 A0.8333,0.8333 0 0 1 474.3333,374.6667 " fill="none" style="stroke:#000000;stroke-width:0.5;"/><line style="stroke:#000000;stroke-width:0.5;" x1="473.5" x2="505.1667" y1="382.099" y2="382.099"/><text fill="#000000" font-family="sans-serif" font-size="4.6667" font-weight="bold" lengthAdjust="spacing" textLength="27.3333" x="474.8333" y="379.665">repository</text></g><!--cluster service--><g id="cluster_service"><path d="M183.8333,359.6667 L203.5,359.6667 A1.25,1.25 0 0 1 204.3333,360.5 L206.6667,367.099 L373.6667,367.099 A0.8333,0.8333 0 0 1 374.5,367.9323 L374.5,498.1667 A0.8333,0.8333 0 0 1 373.6667,499 L183.8333,499 A0.8333,0.8333 0 0 1 183,498.1667 L183,360.5 A0.8333,0.8333 0 0 1 183.8333,359.6667 " fill="none" style="stroke:#000000;stroke-width:0.5;"/><line style="stroke:#000000;stroke-width:0.5;" x1="183" x2="206.6667" y1="367.099" y2="367.099"/><text fill="#000000" font-family="sans-serif" font-size="4.6667" font-weight="bold" lengthAdjust="spacing" textLength="19.3333" x="184.3333" y="364.665">service</text></g><!--class SiberianSeaBattleApplication--><g id="elem_SiberianSeaBattleApplication"><rect codeLine="6" fill="#F1F1F1" height="10.6667" id="SiberianSeaBattleApplication" rx="0.8333" ry="0.8333" style="stroke:#181818;stroke-width:0.16666666666666666;" width="76" x="46.5" y="568.6667"/><ellipse cx="51.5" cy="574" fill="#ADD1B2" rx="3.6667" ry="3.6667" style="stroke:#181818;stroke-width:0.3333333333333333;"/><path d="M52.4896,575.8802 Q52.2969,575.9792 52.0833,576.026 Q51.8698,576.0781 51.6354,576.0781 Q50.8021,576.0781 50.3594,575.5313 Q49.9219,574.9792 49.9219,573.9375 Q49.9219,572.8958 50.3594,572.3438 Q50.8021,571.7917 51.6354,571.7917 Q51.8698,571.7917 52.0833,571.8438 Q52.3021,571.8958 52.4896,571.9948 L52.4896,572.901 Q52.2813,572.7083 52.0833,572.6198 Q51.8854,572.526 51.6771,572.526 Q51.2292,572.526 51,572.8854 Q50.7708,573.2396 50.7708,573.9375 Q50.7708,574.6354 51,574.9948 Q51.2292,575.349 51.6771,575.349 Q51.8854,575.349 52.0833,575.2604 Q52.2813,575.1667 52.4896,574.974 L52.4896,575.8802 Z " fill="#000000"/><text fill="#000000" font-family="sans-serif" font-size="4.6667" lengthAdjust="spacing" textLength="65.3333" x="56.1667" y="575.6156">SiberianSeaBattleApplication</text></g><!--class ActionHistoryMapper--><g id="elem_ActionHistoryMapper"><rect codeLine="11" fill="#F1F1F1" height="10.6667" id="ActionHistoryMapper" rx="0.8333" ry="0.8333" style="stroke:#181818;stroke-width:0.16666666666666666;" width="58" x="482.5" y="511.3333"/><ellipse cx="487.5" cy="516.6667" fill="#ADD1B2" rx="3.6667" ry="3.6667" style="stroke:#181818;stroke-width:0.3333333333333333;"/><path d="M488.4896,518.5469 Q488.2969,518.6458 488.0833,518.6927 Q487.8698,518.7448 487.6354,518.7448 Q486.8021,518.7448 486.3594,518.1979 Q485.9219,517.6458 485.9219,516.6042 Q485.9219,515.5625 486.3594,515.0104 Q486.8021,514.4583 487.6354,514.4583 Q487.8698,514.4583 488.0833,514.5104 Q488.3021,514.5625 488.4896,514.6615 L488.4896,515.5677 Q488.2813,515.375 488.0833,515.2865 Q487.8854,515.1927 487.6771,515.1927 Q487.2292,515.1927 487,515.5521 Q486.7708,515.9063 486.7708,516.6042 Q486.7708,517.3021 487,517.6615 Q487.2292,518.0156 487.6771,518.0156 Q487.8854,518.0156 488.0833,517.9271 Q488.2813,517.8333 488.4896,517.6406 L488.4896,518.5469 Z " fill="#000000"/><text fill="#000000" font-family="sans-serif" font-size="4.6667" lengthAdjust="spacing" textLength="47.3333" x="492.1667" y="518.2822">ActionHistoryMapper</text></g><!--class GameMapper--><g id="elem_GameMapper"><rect codeLine="19" fill="#F1F1F1" height="10.6667" id="GameMapper" rx="0.8333" ry="0.8333" style="stroke:#181818;stroke-width:0.16666666666666666;" width="41.6667" x="490.6667" y="533.6667"/><ellipse cx="495.6667" cy="539" fill="#ADD1B2" rx="3.6667" ry="3.6667" style="stroke:#181818;stroke-width:0.3333333333333333;"/><path d="M496.6563,540.8802 Q496.4635,540.9792 496.25,541.026 Q496.0365,541.0781 495.8021,541.0781 Q494.9688,541.0781 494.526,540.5313 Q494.0885,539.9792 494.0885,538.9375 Q494.0885,537.8958 494.526,537.3438 Q494.9688,536.7917 495.8021,536.7917 Q496.0365,536.7917 496.25,536.8438 Q496.4688,536.8958 496.6563,536.9948 L496.6563,537.901 Q496.4479,537.7083 496.25,537.6198 Q496.0521,537.526 495.8438,537.526 Q495.3958,537.526 495.1667,537.8854 Q494.9375,538.2396 494.9375,538.9375 Q494.9375,539.6354 495.1667,539.9948 Q495.3958,540.349 495.8438,540.349 Q496.0521,540.349 496.25,540.2604 Q496.4479,540.1667 496.6563,539.974 L496.6563,540.8802 Z " fill="#000000"/><text fill="#000000" font-family="sans-serif" font-size="4.6667" lengthAdjust="spacing" textLength="31" x="500.3333" y="540.6156">GameMapper</text></g><!--class MatchMapper--><g id="elem_MatchMapper"><rect codeLine="27" fill="#F1F1F1" height="10.6667" id="MatchMapper" rx="0.8333" ry="0.8333" style="stroke:#181818;stroke-width:0.16666666666666666;" width="42" x="490.5" y="489"/><ellipse cx="495.5" cy="494.3333" fill="#ADD1B2" rx="3.6667" ry="3.6667" style="stroke:#181818;stroke-width:0.3333333333333333;"/><path d="M496.4896,496.2135 Q496.2969,496.3125 496.0833,496.3594 Q495.8698,496.4115 495.6354,496.4115 Q494.8021,496.4115 494.3594,495.8646 Q493.9219,495.3125 493.9219,494.2708 Q493.9219,493.2292 494.3594,492.6771 Q494.8021,492.125 495.6354,492.125 Q495.8698,492.125 496.0833,492.1771 Q496.3021,492.2292 496.4896,492.3281 L496.4896,493.2344 Q496.2813,493.0417 496.0833,492.9531 Q495.8854,492.8594 495.6771,492.8594 Q495.2292,492.8594 495,493.2188 Q494.7708,493.5729 494.7708,494.2708 Q494.7708,494.9688 495,495.3281 Q495.2292,495.6823 495.6771,495.6823 Q495.8854,495.6823 496.0833,495.5938 Q496.2813,495.5 496.4896,495.3073 L496.4896,496.2135 Z " fill="#000000"/><text fill="#000000" font-family="sans-serif" font-size="4.6667" lengthAdjust="spacing" textLength="31.3333" x="500.1667" y="495.9489">MatchMapper</text></g><!--class PlayerMapper--><g id="elem_PlayerMapper"><rect codeLine="35" fill="#F1F1F1" height="10.6667" id="PlayerMapper" rx="0.8333" ry="0.8333" style="stroke:#181818;stroke-width:0.16666666666666666;" width="41.6667" x="490.6667" y="466.6667"/><ellipse cx="495.6667" cy="472" fill="#ADD1B2" rx="3.6667" ry="3.6667" style="stroke:#181818;stroke-width:0.3333333333333333;"/><path d="M496.6563,473.8802 Q496.4635,473.9792 496.25,474.026 Q496.0365,474.0781 495.8021,474.0781 Q494.9688,474.0781 494.526,473.5313 Q494.0885,472.9792 494.0885,471.9375 Q494.0885,470.8958 494.526,470.3438 Q494.9688,469.7917 495.8021,469.7917 Q496.0365,469.7917 496.25,469.8438 Q496.4688,469.8958 496.6563,469.9948 L496.6563,470.901 Q496.4479,470.7083 496.25,470.6198 Q496.0521,470.526 495.8438,470.526 Q495.3958,470.526 495.1667,470.8854 Q494.9375,471.2396 494.9375,471.9375 Q494.9375,472.6354 495.1667,472.9948 Q495.3958,473.349 495.8438,473.349 Q496.0521,473.349 496.25,473.2604 Q496.4479,473.1667 496.6563,472.974 L496.6563,473.8802 Z " fill="#000000"/><text fill="#000000" font-family="sans-serif" font-size="4.6667" lengthAdjust="spacing" textLength="31" x="500.3333" y="473.6156">PlayerMapper</text></g><!--class ModelMapperConfiguration--><g id="elem_ModelMapperConfiguration"><rect codeLine="43" fill="#F1F1F1" height="10.6667" id="ModelMapperConfiguration" rx="0.8333" ry="0.8333" style="stroke:#181818;stroke-width:0.16666666666666666;" width="72.6667" x="48.1667" y="217.6667"/><ellipse cx="53.1667" cy="223" fill="#ADD1B2" rx="3.6667" ry="3.6667" style="stroke:#181818;stroke-width:0.3333333333333333;"/><path d="M54.1563,224.8802 Q53.9635,224.9792 53.75,225.026 Q53.5365,225.0781 53.3021,225.0781 Q52.4688,225.0781 52.026,224.5313 Q51.5885,223.9792 51.5885,222.9375 Q51.5885,221.8958 52.026,221.3438 Q52.4688,220.7917 53.3021,220.7917 Q53.5365,220.7917 53.75,220.8438 Q53.9688,220.8958 54.1563,220.9948 L54.1563,221.901 Q53.9479,221.7083 53.75,221.6198 Q53.5521,221.526 53.3438,221.526 Q52.8958,221.526 52.6667,221.8854 Q52.4375,222.2396 52.4375,222.9375 Q52.4375,223.6354 52.6667,223.9948 Q52.8958,224.349 53.3438,224.349 Q53.5521,224.349 53.75,224.2604 Q53.9479,224.1667 54.1563,223.974 L54.1563,224.8802 Z " fill="#000000"/><text fill="#000000" font-family="sans-serif" font-size="4.6667" lengthAdjust="spacing" textLength="62" x="57.8333" y="224.6156">ModelMapperConfiguration</text></g><!--class SpringSecurityConfiguration--><g id="elem_SpringSecurityConfiguration"><rect codeLine="48" fill="#F1F1F1" height="10.6667" id="SpringSecurityConfiguration" rx="0.8333" ry="0.8333" style="stroke:#181818;stroke-width:0.16666666666666666;" width="74.3333" x="47.3333" y="195.3333"/><ellipse cx="52.3333" cy="200.6667" fill="#ADD1B2" rx="3.6667" ry="3.6667" style="stroke:#181818;stroke-width:0.3333333333333333;"/><path d="M53.3229,202.5469 Q53.1302,202.6458 52.9167,202.6927 Q52.7031,202.7448 52.4688,202.7448 Q51.6354,202.7448 51.1927,202.1979 Q50.7552,201.6458 50.7552,200.6042 Q50.7552,199.5625 51.1927,199.0104 Q51.6354,198.4583 52.4688,198.4583 Q52.7031,198.4583 52.9167,198.5104 Q53.1354,198.5625 53.3229,198.6615 L53.3229,199.5677 Q53.1146,199.375 52.9167,199.2865 Q52.7188,199.1927 52.5104,199.1927 Q52.0625,199.1927 51.8333,199.5521 Q51.6042,199.9063 51.6042,200.6042 Q51.6042,201.3021 51.8333,201.6615 Q52.0625,202.0156 52.5104,202.0156 Q52.7188,202.0156 52.9167,201.9271 Q53.1146,201.8333 53.3229,201.6406 L53.3229,202.5469 Z " fill="#000000"/><text fill="#000000" font-family="sans-serif" font-size="4.6667" lengthAdjust="spacing" textLength="63.6667" x="57" y="202.2822">SpringSecurityConfiguration</text></g><!--class WebSocketConfiguration--><g id="elem_WebSocketConfiguration"><rect codeLine="55" fill="#F1F1F1" height="10.6667" id="WebSocketConfiguration" rx="0.8333" ry="0.8333" style="stroke:#181818;stroke-width:0.16666666666666666;" width="67.6667" x="179.1667" y="217.6667"/><ellipse cx="184.1667" cy="223" fill="#ADD1B2" rx="3.6667" ry="3.6667" style="stroke:#181818;stroke-width:0.3333333333333333;"/><path d="M185.1563,224.8802 Q184.9635,224.9792 184.75,225.026 Q184.5365,225.0781 184.3021,225.0781 Q183.4688,225.0781 183.026,224.5313 Q182.5885,223.9792 182.5885,222.9375 Q182.5885,221.8958 183.026,221.3438 Q183.4688,220.7917 184.3021,220.7917 Q184.5365,220.7917 184.75,220.8438 Q184.9688,220.8958 185.1563,220.9948 L185.1563,221.901 Q184.9479,221.7083 184.75,221.6198 Q184.5521,221.526 184.3438,221.526 Q183.8958,221.526 183.6667,221.8854 Q183.4375,222.2396 183.4375,222.9375 Q183.4375,223.6354 183.6667,223.9948 Q183.8958,224.349 184.3438,224.349 Q184.5521,224.349 184.75,224.2604 Q184.9479,224.1667 185.1563,223.974 L185.1563,224.8802 Z " fill="#000000"/><text fill="#000000" font-family="sans-serif" font-size="4.6667" lengthAdjust="spacing" textLength="57" x="188.8333" y="224.6156">WebSocketConfiguration</text></g><!--class GameController--><g id="elem_GameController"><rect codeLine="61" fill="#F1F1F1" height="10.6667" id="GameController" rx="0.8333" ry="0.8333" style="stroke:#181818;stroke-width:0.16666666666666666;" width="46.6667" x="61.1667" y="487"/><ellipse cx="66.1667" cy="492.3333" fill="#ADD1B2" rx="3.6667" ry="3.6667" style="stroke:#181818;stroke-width:0.3333333333333333;"/><path d="M67.1563,494.2135 Q66.9635,494.3125 66.75,494.3594 Q66.5365,494.4115 66.3021,494.4115 Q65.4688,494.4115 65.026,493.8646 Q64.5885,493.3125 64.5885,492.2708 Q64.5885,491.2292 65.026,490.6771 Q65.4688,490.125 66.3021,490.125 Q66.5365,490.125 66.75,490.1771 Q66.9688,490.2292 67.1563,490.3281 L67.1563,491.2344 Q66.9479,491.0417 66.75,490.9531 Q66.5521,490.8594 66.3438,490.8594 Q65.8958,490.8594 65.6667,491.2188 Q65.4375,491.5729 65.4375,492.2708 Q65.4375,492.9688 65.6667,493.3281 Q65.8958,493.6823 66.3438,493.6823 Q66.5521,493.6823 66.75,493.5938 Q66.9479,493.5 67.1563,493.3073 L67.1563,494.2135 Z " fill="#000000"/><text fill="#000000" font-family="sans-serif" font-size="4.6667" lengthAdjust="spacing" textLength="36" x="70.8333" y="493.9489">GameController</text></g><!--class AbstractDao--><g id="elem_AbstractDao"><rect codeLine="77" fill="#F1F1F1" height="10.6667" id="AbstractDao" rx="0.8333" ry="0.8333" style="stroke:#181818;stroke-width:0.16666666666666666;" width="39" x="805.8333" y="612.3333"/><ellipse cx="810.8333" cy="617.6667" fill="#A9DCDF" rx="3.6667" ry="3.6667" style="stroke:#181818;stroke-width:0.3333333333333333;"/><path d="M810.8698,616.1146 L810.4844,617.8073 L811.2604,617.8073 L810.8698,616.1146 Z M810.375,615.3698 L811.3698,615.3698 L812.4896,619.5 L811.6719,619.5 L811.4167,618.4792 L810.3229,618.4792 L810.0729,619.5 L809.2604,619.5 L810.375,615.3698 Z " fill="#000000"/><text fill="#000000" font-family="sans-serif" font-size="4.6667" font-style="italic" lengthAdjust="spacing" textLength="28.3333" x="815.5" y="619.2822">AbstractDao</text></g><!--class ActionHistoryDao--><g id="elem_ActionHistoryDao"><rect codeLine="82" fill="#F1F1F1" height="10.6667" id="ActionHistoryDao" rx="0.8333" ry="0.8333" style="stroke:#181818;stroke-width:0.16666666666666666;" width="50" x="486.5" y="617.3333"/><ellipse cx="491.5" cy="622.6667" fill="#ADD1B2" rx="3.6667" ry="3.6667" style="stroke:#181818;stroke-width:0.3333333333333333;"/><path d="M492.4896,624.5469 Q492.2969,624.6458 492.0833,624.6927 Q491.8698,624.7448 491.6354,624.7448 Q490.8021,624.7448 490.3594,624.1979 Q489.9219,623.6458 489.9219,622.6042 Q489.9219,621.5625 490.3594,621.0104 Q490.8021,620.4583 491.6354,620.4583 Q491.8698,620.4583 492.0833,620.5104 Q492.3021,620.5625 492.4896,620.6615 L492.4896,621.5677 Q492.2813,621.375 492.0833,621.2865 Q491.8854,621.1927 491.6771,621.1927 Q491.2292,621.1927 491,621.5521 Q490.7708,621.9063 490.7708,622.6042 Q490.7708,623.3021 491,623.6615 Q491.2292,624.0156 491.6771,624.0156 Q491.8854,624.0156 492.0833,623.9271 Q492.2813,623.8333 492.4896,623.6406 L492.4896,624.5469 Z " fill="#000000"/><text fill="#000000" font-family="sans-serif" font-size="4.6667" lengthAdjust="spacing" textLength="39.3333" x="496.1667" y="624.2822">ActionHistoryDao</text></g><!--class MatchDao--><g id="elem_MatchDao"><rect codeLine="92" fill="#F1F1F1" height="10.6667" id="MatchDao" rx="0.8333" ry="0.8333" style="stroke:#181818;stroke-width:0.16666666666666666;" width="34" x="625.3333" y="583.3333"/><ellipse cx="630.3333" cy="588.6667" fill="#ADD1B2" rx="3.6667" ry="3.6667" style="stroke:#181818;stroke-width:0.3333333333333333;"/><path d="M631.3229,590.5469 Q631.1302,590.6458 630.9167,590.6927 Q630.7031,590.7448 630.4688,590.7448 Q629.6354,590.7448 629.1927,590.1979 Q628.7552,589.6458 628.7552,588.6042 Q628.7552,587.5625 629.1927,587.0104 Q629.6354,586.4583 630.4688,586.4583 Q630.7031,586.4583 630.9167,586.5104 Q631.1354,586.5625 631.3229,586.6615 L631.3229,587.5677 Q631.1146,587.375 630.9167,587.2865 Q630.7188,587.1927 630.5104,587.1927 Q630.0625,587.1927 629.8333,587.5521 Q629.6042,587.9063 629.6042,588.6042 Q629.6042,589.3021 629.8333,589.6615 Q630.0625,590.0156 630.5104,590.0156 Q630.7188,590.0156 630.9167,589.9271 Q631.1146,589.8333 631.3229,589.6406 L631.3229,590.5469 Z " fill="#000000"/><text fill="#000000" font-family="sans-serif" font-size="4.6667" lengthAdjust="spacing" textLength="23.3333" x="635" y="590.2822">MatchDao</text></g><!--class PlayerDao--><g id="elem_PlayerDao"><rect codeLine="101" fill="#F1F1F1" height="10.6667" id="PlayerDao" rx="0.8333" ry="0.8333" style="stroke:#181818;stroke-width:0.16666666666666666;" width="33.6667" x="734" y="612.3333"/><ellipse cx="739" cy="617.6667" fill="#ADD1B2" rx="3.6667" ry="3.6667" style="stroke:#181818;stroke-width:0.3333333333333333;"/><path d="M739.9896,619.5469 Q739.7969,619.6458 739.5833,619.6927 Q739.3698,619.7448 739.1354,619.7448 Q738.3021,619.7448 737.8594,619.1979 Q737.4219,618.6458 737.4219,617.6042 Q737.4219,616.5625 737.8594,616.0104 Q738.3021,615.4583 739.1354,615.4583 Q739.3698,615.4583 739.5833,615.5104 Q739.8021,615.5625 739.9896,615.6615 L739.9896,616.5677 Q739.7813,616.375 739.5833,616.2865 Q739.3854,616.1927 739.1771,616.1927 Q738.7292,616.1927 738.5,616.5521 Q738.2708,616.9063 738.2708,617.6042 Q738.2708,618.3021 738.5,618.6615 Q738.7292,619.0156 739.1771,619.0156 Q739.3854,619.0156 739.5833,618.9271 Q739.7813,618.8333 739.9896,618.6406 L739.9896,619.5469 Z " fill="#000000"/><text fill="#000000" font-family="sans-serif" font-size="4.6667" lengthAdjust="spacing" textLength="23" x="743.6667" y="619.2822">PlayerDao</text></g><!--class ActionHistory--><g id="elem_ActionHistory"><rect codeLine="112" fill="#F1F1F1" height="10.6667" id="ActionHistory" rx="0.8333" ry="0.8333" style="stroke:#181818;stroke-width:0.16666666666666666;" width="40.6667" x="491.1667" y="350.6667"/><ellipse cx="496.1667" cy="356" fill="#ADD1B2" rx="3.6667" ry="3.6667" style="stroke:#181818;stroke-width:0.3333333333333333;"/><path d="M497.1563,357.8802 Q496.9635,357.9792 496.75,358.026 Q496.5365,358.0781 496.3021,358.0781 Q495.4688,358.0781 495.026,357.5313 Q494.5885,356.9792 494.5885,355.9375 Q494.5885,354.8958 495.026,354.3438 Q495.4688,353.7917 496.3021,353.7917 Q496.5365,353.7917 496.75,353.8438 Q496.9688,353.8958 497.1563,353.9948 L497.1563,354.901 Q496.9479,354.7083 496.75,354.6198 Q496.5521,354.526 496.3438,354.526 Q495.8958,354.526 495.6667,354.8854 Q495.4375,355.2396 495.4375,355.9375 Q495.4375,356.6354 495.6667,356.9948 Q495.8958,357.349 496.3438,357.349 Q496.5521,357.349 496.75,357.2604 Q496.9479,357.1667 497.1563,356.974 L497.1563,357.8802 Z " fill="#000000"/><text fill="#000000" font-family="sans-serif" font-size="4.6667" lengthAdjust="spacing" textLength="30" x="500.8333" y="357.6156">ActionHistory</text></g><!--class Match--><g id="elem_Match"><rect codeLine="125" fill="#F1F1F1" height="10.6667" id="Match" rx="0.8333" ry="0.8333" style="stroke:#181818;stroke-width:0.16666666666666666;" width="24.6667" x="630" y="349.6667"/><ellipse cx="635" cy="355" fill="#ADD1B2" rx="3.6667" ry="3.6667" style="stroke:#181818;stroke-width:0.3333333333333333;"/><path d="M635.9896,356.8802 Q635.7969,356.9792 635.5833,357.026 Q635.3698,357.0781 635.1354,357.0781 Q634.3021,357.0781 633.8594,356.5313 Q633.4219,355.9792 633.4219,354.9375 Q633.4219,353.8958 633.8594,353.3438 Q634.3021,352.7917 635.1354,352.7917 Q635.3698,352.7917 635.5833,352.8438 Q635.8021,352.8958 635.9896,352.9948 L635.9896,353.901 Q635.7813,353.7083 635.5833,353.6198 Q635.3854,353.526 635.1771,353.526 Q634.7292,353.526 634.5,353.8854 Q634.2708,354.2396 634.2708,354.9375 Q634.2708,355.6354 634.5,355.9948 Q634.7292,356.349 635.1771,356.349 Q635.3854,356.349 635.5833,356.2604 Q635.7813,356.1667 635.9896,355.974 L635.9896,356.8802 Z " fill="#000000"/><text fill="#000000" font-family="sans-serif" font-size="4.6667" lengthAdjust="spacing" textLength="14" x="639.6667" y="356.6156">Match</text></g><!--class Player--><g id="elem_Player"><rect codeLine="135" fill="#F1F1F1" height="10.6667" id="Player" rx="0.8333" ry="0.8333" style="stroke:#181818;stroke-width:0.16666666666666666;" width="24.3333" x="738.6667" y="325.3333"/><ellipse cx="743.6667" cy="330.6667" fill="#ADD1B2" rx="3.6667" ry="3.6667" style="stroke:#181818;stroke-width:0.3333333333333333;"/><path d="M744.6563,332.5469 Q744.4635,332.6458 744.25,332.6927 Q744.0365,332.7448 743.8021,332.7448 Q742.9688,332.7448 742.526,332.1979 Q742.0885,331.6458 742.0885,330.6042 Q742.0885,329.5625 742.526,329.0104 Q742.9688,328.4583 743.8021,328.4583 Q744.0365,328.4583 744.25,328.5104 Q744.4688,328.5625 744.6563,328.6615 L744.6563,329.5677 Q744.4479,329.375 744.25,329.2865 Q744.0521,329.1927 743.8438,329.1927 Q743.3958,329.1927 743.1667,329.5521 Q742.9375,329.9063 742.9375,330.6042 Q742.9375,331.3021 743.1667,331.6615 Q743.3958,332.0156 743.8438,332.0156 Q744.0521,332.0156 744.25,331.9271 Q744.4479,331.8333 744.6563,331.6406 L744.6563,332.5469 Z " fill="#000000"/><text fill="#000000" font-family="sans-serif" font-size="4.6667" lengthAdjust="spacing" textLength="13.6667" x="748.3333" y="332.2822">Player</text></g><!--class MatchStatus--><g id="elem_MatchStatus"><rect codeLine="147" fill="#F1F1F1" height="10.6667" id="MatchStatus" rx="0.8333" ry="0.8333" style="stroke:#181818;stroke-width:0.16666666666666666;" width="39.3333" x="731.1667" y="302"/><ellipse cx="736.1667" cy="307.3333" fill="#EB937F" rx="3.6667" ry="3.6667" style="stroke:#181818;stroke-width:0.3333333333333333;"/><path d="M737.5365,309.3333 L734.9635,309.3333 L734.9635,305.2031 L737.5365,305.2031 L737.5365,305.9219 L735.7813,305.9219 L735.7813,306.8125 L737.3698,306.8125 L737.3698,307.5313 L735.7813,307.5313 L735.7813,308.6146 L737.5365,308.6146 L737.5365,309.3333 Z " fill="#000000"/><text fill="#000000" font-family="sans-serif" font-size="4.6667" lengthAdjust="spacing" textLength="28.6667" x="740.8333" y="308.9489">MatchStatus</text></g><!--class Status--><g id="elem_Status"><rect codeLine="158" fill="#F1F1F1" height="10.6667" id="Status" rx="0.8333" ry="0.8333" style="stroke:#181818;stroke-width:0.16666666666666666;" width="25.3333" x="738.1667" y="257.3333"/><ellipse cx="743.1667" cy="262.6667" fill="#EB937F" rx="3.6667" ry="3.6667" style="stroke:#181818;stroke-width:0.3333333333333333;"/><path d="M744.5365,264.6667 L741.9635,264.6667 L741.9635,260.5365 L744.5365,260.5365 L744.5365,261.2552 L742.7813,261.2552 L742.7813,262.1458 L744.3698,262.1458 L744.3698,262.8646 L742.7813,262.8646 L742.7813,263.9479 L744.5365,263.9479 L744.5365,264.6667 Z " fill="#000000"/><text fill="#000000" font-family="sans-serif" font-size="4.6667" lengthAdjust="spacing" textLength="14.6667" x="747.8333" y="264.2822">Status</text></g><!--class TypeNotification--><g id="elem_TypeNotification"><rect codeLine="164" fill="#F1F1F1" height="10.6667" id="TypeNotification" rx="0.8333" ry="0.8333" style="stroke:#181818;stroke-width:0.16666666666666666;" width="47.3333" x="727.1667" y="279.6667"/><ellipse cx="732.1667" cy="285" fill="#EB937F" rx="3.6667" ry="3.6667" style="stroke:#181818;stroke-width:0.3333333333333333;"/><path d="M733.5365,287 L730.9635,287 L730.9635,282.8698 L733.5365,282.8698 L733.5365,283.5885 L731.7813,283.5885 L731.7813,284.4792 L733.3698,284.4792 L733.3698,285.1979 L731.7813,285.1979 L731.7813,286.2813 L733.5365,286.2813 L733.5365,287 Z " fill="#000000"/><text fill="#000000" font-family="sans-serif" font-size="4.6667" lengthAdjust="spacing" textLength="36.6667" x="736.8333" y="286.6156">TypeNotification</text></g><!--class CustomFleet--><g id="elem_CustomFleet"><rect codeLine="172" fill="#F1F1F1" height="10.6667" id="CustomFleet" rx="0.8333" ry="0.8333" style="stroke:#181818;stroke-width:0.16666666666666666;" width="40" x="491.5" y="99.6667"/><ellipse cx="496.5" cy="105" fill="#ADD1B2" rx="3.6667" ry="3.6667" style="stroke:#181818;stroke-width:0.3333333333333333;"/><path d="M497.4896,106.8802 Q497.2969,106.9792 497.0833,107.026 Q496.8698,107.0781 496.6354,107.0781 Q495.8021,107.0781 495.3594,106.5313 Q494.9219,105.9792 494.9219,104.9375 Q494.9219,103.8958 495.3594,103.3438 Q495.8021,102.7917 496.6354,102.7917 Q496.8698,102.7917 497.0833,102.8438 Q497.3021,102.8958 497.4896,102.9948 L497.4896,103.901 Q497.2813,103.7083 497.0833,103.6198 Q496.8854,103.526 496.6771,103.526 Q496.2292,103.526 496,103.8854 Q495.7708,104.2396 495.7708,104.9375 Q495.7708,105.6354 496,105.9948 Q496.2292,106.349 496.6771,106.349 Q496.8854,106.349 497.0833,106.2604 Q497.2813,106.1667 497.4896,105.974 L497.4896,106.8802 Z " fill="#000000"/><text fill="#000000" font-family="sans-serif" font-size="4.6667" lengthAdjust="spacing" textLength="29.3333" x="501.1667" y="106.6156">CustomFleet</text></g><!--class Fleet--><g id="elem_Fleet"><rect codeLine="183" fill="#F1F1F1" height="10.6667" id="Fleet" rx="0.8333" ry="0.8333" style="stroke:#181818;stroke-width:0.16666666666666666;" width="22" x="631.3333" y="122.3333"/><ellipse cx="636.3333" cy="127.6667" fill="#ADD1B2" rx="3.6667" ry="3.6667" style="stroke:#181818;stroke-width:0.3333333333333333;"/><path d="M637.3229,129.5469 Q637.1302,129.6458 636.9167,129.6927 Q636.7031,129.7448 636.4688,129.7448 Q635.6354,129.7448 635.1927,129.1979 Q634.7552,128.6458 634.7552,127.6042 Q634.7552,126.5625 635.1927,126.0104 Q635.6354,125.4583 636.4688,125.4583 Q636.7031,125.4583 636.9167,125.5104 Q637.1354,125.5625 637.3229,125.6615 L637.3229,126.5677 Q637.1146,126.375 636.9167,126.2865 Q636.7188,126.1927 636.5104,126.1927 Q636.0625,126.1927 635.8333,126.5521 Q635.6042,126.9063 635.6042,127.6042 Q635.6042,128.3021 635.8333,128.6615 Q636.0625,129.0156 636.5104,129.0156 Q636.7188,129.0156 636.9167,128.9271 Q637.1146,128.8333 637.3229,128.6406 L637.3229,129.5469 Z " fill="#000000"/><text fill="#000000" font-family="sans-serif" font-size="4.6667" lengthAdjust="spacing" textLength="11.3333" x="641" y="129.2822">Fleet</text></g><!--class GridPoint--><g id="elem_GridPoint"><rect codeLine="193" fill="#F1F1F1" height="10.6667" id="GridPoint" rx="0.8333" ry="0.8333" style="stroke:#181818;stroke-width:0.16666666666666666;" width="31.6667" x="495.6667" y="122"/><ellipse cx="500.6667" cy="127.3333" fill="#ADD1B2" rx="3.6667" ry="3.6667" style="stroke:#181818;stroke-width:0.3333333333333333;"/><path d="M501.6563,129.2135 Q501.4635,129.3125 501.25,129.3594 Q501.0365,129.4115 500.8021,129.4115 Q499.9688,129.4115 499.526,128.8646 Q499.0885,128.3125 499.0885,127.2708 Q499.0885,126.2292 499.526,125.6771 Q499.9688,125.125 500.8021,125.125 Q501.0365,125.125 501.25,125.1771 Q501.4688,125.2292 501.6563,125.3281 L501.6563,126.2344 Q501.4479,126.0417 501.25,125.9531 Q501.0521,125.8594 500.8438,125.8594 Q500.3958,125.8594 500.1667,126.2188 Q499.9375,126.5729 499.9375,127.2708 Q499.9375,127.9688 500.1667,128.3281 Q500.3958,128.6823 500.8438,128.6823 Q501.0521,128.6823 501.25,128.5938 Q501.4479,128.5 501.6563,128.3073 L501.6563,129.2135 Z " fill="#000000"/><text fill="#000000" font-family="sans-serif" font-size="4.6667" lengthAdjust="spacing" textLength="21" x="505.3333" y="128.9489">GridPoint</text></g><!--class MatchFleet--><g id="elem_MatchFleet"><rect codeLine="205" fill="#F1F1F1" height="10.6667" id="MatchFleet" rx="0.8333" ry="0.8333" style="stroke:#181818;stroke-width:0.16666666666666666;" width="36" x="493.5" y="144.3333"/><ellipse cx="498.5" cy="149.6667" fill="#ADD1B2" rx="3.6667" ry="3.6667" style="stroke:#181818;stroke-width:0.3333333333333333;"/><path d="M499.4896,151.5469 Q499.2969,151.6458 499.0833,151.6927 Q498.8698,151.7448 498.6354,151.7448 Q497.8021,151.7448 497.3594,151.1979 Q496.9219,150.6458 496.9219,149.6042 Q496.9219,148.5625 497.3594,148.0104 Q497.8021,147.4583 498.6354,147.4583 Q498.8698,147.4583 499.0833,147.5104 Q499.3021,147.5625 499.4896,147.6615 L499.4896,148.5677 Q499.2813,148.375 499.0833,148.2865 Q498.8854,148.1927 498.6771,148.1927 Q498.2292,148.1927 498,148.5521 Q497.7708,148.9063 497.7708,149.6042 Q497.7708,150.3021 498,150.6615 Q498.2292,151.0156 498.6771,151.0156 Q498.8854,151.0156 499.0833,150.9271 Q499.2813,150.8333 499.4896,150.6406 L499.4896,151.5469 Z " fill="#000000"/><text fill="#000000" font-family="sans-serif" font-size="4.6667" lengthAdjust="spacing" textLength="25.3333" x="503.1667" y="151.2822">MatchFleet</text></g><!--class Point--><g id="elem_Point"><rect codeLine="219" fill="#F1F1F1" height="10.6667" id="Point" rx="0.8333" ry="0.8333" style="stroke:#181818;stroke-width:0.16666666666666666;" width="22.3333" x="814.1667" y="121"/><ellipse cx="819.1667" cy="126.3333" fill="#ADD1B2" rx="3.6667" ry="3.6667" style="stroke:#181818;stroke-width:0.3333333333333333;"/><path d="M820.1563,128.2135 Q819.9635,128.3125 819.75,128.3594 Q819.5365,128.4115 819.3021,128.4115 Q818.4688,128.4115 818.026,127.8646 Q817.5885,127.3125 817.5885,126.2708 Q817.5885,125.2292 818.026,124.6771 Q818.4688,124.125 819.3021,124.125 Q819.5365,124.125 819.75,124.1771 Q819.9688,124.2292 820.1563,124.3281 L820.1563,125.2344 Q819.9479,125.0417 819.75,124.9531 Q819.5521,124.8594 819.3438,124.8594 Q818.8958,124.8594 818.6667,125.2188 Q818.4375,125.5729 818.4375,126.2708 Q818.4375,126.9688 818.6667,127.3281 Q818.8958,127.6823 819.3438,127.6823 Q819.5521,127.6823 819.75,127.5938 Q819.9479,127.5 820.1563,127.3073 L820.1563,128.2135 Z " fill="#000000"/><text fill="#000000" font-family="sans-serif" font-size="4.6667" lengthAdjust="spacing" textLength="11.6667" x="823.8333" y="127.9489">Point</text></g><!--class Warship--><g id="elem_Warship"><rect codeLine="237" fill="#F1F1F1" height="10.6667" id="Warship" rx="0.8333" ry="0.8333" style="stroke:#181818;stroke-width:0.16666666666666666;" width="29" x="736.3333" y="122.3333"/><ellipse cx="741.3333" cy="127.6667" fill="#ADD1B2" rx="3.6667" ry="3.6667" style="stroke:#181818;stroke-width:0.3333333333333333;"/><path d="M742.3229,129.5469 Q742.1302,129.6458 741.9167,129.6927 Q741.7031,129.7448 741.4688,129.7448 Q740.6354,129.7448 740.1927,129.1979 Q739.7552,128.6458 739.7552,127.6042 Q739.7552,126.5625 740.1927,126.0104 Q740.6354,125.4583 741.4688,125.4583 Q741.7031,125.4583 741.9167,125.5104 Q742.1354,125.5625 742.3229,125.6615 L742.3229,126.5677 Q742.1146,126.375 741.9167,126.2865 Q741.7188,126.1927 741.5104,126.1927 Q741.0625,126.1927 740.8333,126.5521 Q740.6042,126.9063 740.6042,127.6042 Q740.6042,128.3021 740.8333,128.6615 Q741.0625,129.0156 741.5104,129.0156 Q741.7188,129.0156 741.9167,128.9271 Q742.1146,128.8333 742.3229,128.6406 L742.3229,129.5469 Z " fill="#000000"/><text fill="#000000" font-family="sans-serif" font-size="4.6667" lengthAdjust="spacing" textLength="18.3333" x="746" y="129.2822">Warship</text></g><!--class WarshipDescription--><g id="elem_WarshipDescription"><rect codeLine="248" fill="#F1F1F1" height="10.6667" id="WarshipDescription" rx="0.8333" ry="0.8333" style="stroke:#181818;stroke-width:0.16666666666666666;" width="55.3333" x="483.8333" y="166.6667"/><ellipse cx="488.8333" cy="172" fill="#ADD1B2" rx="3.6667" ry="3.6667" style="stroke:#181818;stroke-width:0.3333333333333333;"/><path d="M489.8229,173.8802 Q489.6302,173.9792 489.4167,174.026 Q489.2031,174.0781 488.9688,174.0781 Q488.1354,174.0781 487.6927,173.5313 Q487.2552,172.9792 487.2552,171.9375 Q487.2552,170.8958 487.6927,170.3438 Q488.1354,169.7917 488.9688,169.7917 Q489.2031,169.7917 489.4167,169.8438 Q489.6354,169.8958 489.8229,169.9948 L489.8229,170.901 Q489.6146,170.7083 489.4167,170.6198 Q489.2188,170.526 489.0104,170.526 Q488.5625,170.526 488.3333,170.8854 Q488.1042,171.2396 488.1042,171.9375 Q488.1042,172.6354 488.3333,172.9948 Q488.5625,173.349 489.0104,173.349 Q489.2188,173.349 489.4167,173.2604 Q489.6146,173.1667 489.8229,172.974 L489.8229,173.8802 Z " fill="#000000"/><text fill="#000000" font-family="sans-serif" font-size="4.6667" lengthAdjust="spacing" textLength="44.6667" x="493.5" y="173.6156">WarshipDescription</text></g><!--class BaseRequestMessage--><g id="elem_BaseRequestMessage"><rect codeLine="259" fill="#F1F1F1" height="10.6667" id="BaseRequestMessage" rx="0.8333" ry="0.8333" style="stroke:#181818;stroke-width:0.16666666666666666;" width="63" x="610.8333" y="283.6667"/><ellipse cx="615.8333" cy="289" fill="#B4A7E5" rx="3.6667" ry="3.6667" style="stroke:#181818;stroke-width:0.3333333333333333;"/><path d="M614.474,287.5885 L614.474,286.8698 L616.9375,286.8698 L616.9375,287.5885 L616.1146,287.5885 L616.1146,290.2813 L616.9375,290.2813 L616.9375,291 L614.474,291 L614.474,290.2813 L615.2969,290.2813 L615.2969,287.5885 L614.474,287.5885 Z " fill="#000000"/><text fill="#000000" font-family="sans-serif" font-size="4.6667" font-style="italic" lengthAdjust="spacing" textLength="52.3333" x="620.5" y="290.6156">BaseRequestMessage</text></g><!--class BaseResponseMessage--><g id="elem_BaseResponseMessage"><rect codeLine="263" fill="#F1F1F1" height="10.6667" id="BaseResponseMessage" rx="0.8333" ry="0.8333" style="stroke:#181818;stroke-width:0.16666666666666666;" width="67" x="608.8333" y="261.3333"/><ellipse cx="613.8333" cy="266.6667" fill="#A9DCDF" rx="3.6667" ry="3.6667" style="stroke:#181818;stroke-width:0.3333333333333333;"/><path d="M613.8698,265.1146 L613.4844,266.8073 L614.2604,266.8073 L613.8698,265.1146 Z M613.375,264.3698 L614.3698,264.3698 L615.4896,268.5 L614.6719,268.5 L614.4167,267.4792 L613.3229,267.4792 L613.0729,268.5 L612.2604,268.5 L613.375,264.3698 Z " fill="#000000"/><text fill="#000000" font-family="sans-serif" font-size="4.6667" font-style="italic" lengthAdjust="spacing" textLength="56.3333" x="618.5" y="268.2822">BaseResponseMessage</text></g><!--class MatchUI--><g id="elem_MatchUI"><rect codeLine="272" fill="#F1F1F1" height="10.6667" id="MatchUI" rx="0.8333" ry="0.8333" style="stroke:#181818;stroke-width:0.16666666666666666;" width="29" x="497" y="239"/><ellipse cx="502" cy="244.3333" fill="#ADD1B2" rx="3.6667" ry="3.6667" style="stroke:#181818;stroke-width:0.3333333333333333;"/><path d="M502.9896,246.2135 Q502.7969,246.3125 502.5833,246.3594 Q502.3698,246.4115 502.1354,246.4115 Q501.3021,246.4115 500.8594,245.8646 Q500.4219,245.3125 500.4219,244.2708 Q500.4219,243.2292 500.8594,242.6771 Q501.3021,242.125 502.1354,242.125 Q502.3698,242.125 502.5833,242.1771 Q502.8021,242.2292 502.9896,242.3281 L502.9896,243.2344 Q502.7813,243.0417 502.5833,242.9531 Q502.3854,242.8594 502.1771,242.8594 Q501.7292,242.8594 501.5,243.2188 Q501.2708,243.5729 501.2708,244.2708 Q501.2708,244.9688 501.5,245.3281 Q501.7292,245.6823 502.1771,245.6823 Q502.3854,245.6823 502.5833,245.5938 Q502.7813,245.5 502.9896,245.3073 L502.9896,246.2135 Z " fill="#000000"/><text fill="#000000" font-family="sans-serif" font-size="4.6667" lengthAdjust="spacing" textLength="18.3333" x="506.6667" y="245.9489">MatchUI</text></g><!--class NotificationResponseMessage--><g id="elem_NotificationResponseMessage"><rect codeLine="285" fill="#F1F1F1" height="10.6667" id="NotificationResponseMessage" rx="0.8333" ry="0.8333" style="stroke:#181818;stroke-width:0.16666666666666666;" width="80.6667" x="471.1667" y="306"/><ellipse cx="476.1667" cy="311.3333" fill="#ADD1B2" rx="3.6667" ry="3.6667" style="stroke:#181818;stroke-width:0.3333333333333333;"/><path d="M477.1563,313.2135 Q476.9635,313.3125 476.75,313.3594 Q476.5365,313.4115 476.3021,313.4115 Q475.4688,313.4115 475.026,312.8646 Q474.5885,312.3125 474.5885,311.2708 Q474.5885,310.2292 475.026,309.6771 Q475.4688,309.125 476.3021,309.125 Q476.5365,309.125 476.75,309.1771 Q476.9688,309.2292 477.1563,309.3281 L477.1563,310.2344 Q476.9479,310.0417 476.75,309.9531 Q476.5521,309.8594 476.3438,309.8594 Q475.8958,309.8594 475.6667,310.2188 Q475.4375,310.5729 475.4375,311.2708 Q475.4375,311.9688 475.6667,312.3281 Q475.8958,312.6823 476.3438,312.6823 Q476.5521,312.6823 476.75,312.5938 Q476.9479,312.5 477.1563,312.3073 L477.1563,313.2135 Z " fill="#000000"/><text fill="#000000" font-family="sans-serif" font-size="4.6667" lengthAdjust="spacing" textLength="70" x="480.8333" y="312.9489">NotificationResponseMessage</text></g><!--class ShotGameOwnerResponseMessage--><g id="elem_ShotGameOwnerResponseMessage"><rect codeLine="294" fill="#F1F1F1" height="10.6667" id="ShotGameOwnerResponseMessage" rx="0.8333" ry="0.8333" style="stroke:#181818;stroke-width:0.16666666666666666;" width="94.6667" x="464.1667" y="283.6667"/><ellipse cx="469.1667" cy="289" fill="#ADD1B2" rx="3.6667" ry="3.6667" style="stroke:#181818;stroke-width:0.3333333333333333;"/><path d="M470.1563,290.8802 Q469.9635,290.9792 469.75,291.026 Q469.5365,291.0781 469.3021,291.0781 Q468.4688,291.0781 468.026,290.5313 Q467.5885,289.9792 467.5885,288.9375 Q467.5885,287.8958 468.026,287.3438 Q468.4688,286.7917 469.3021,286.7917 Q469.5365,286.7917 469.75,286.8438 Q469.9688,286.8958 470.1563,286.9948 L470.1563,287.901 Q469.9479,287.7083 469.75,287.6198 Q469.5521,287.526 469.3438,287.526 Q468.8958,287.526 468.6667,287.8854 Q468.4375,288.2396 468.4375,288.9375 Q468.4375,289.6354 468.6667,289.9948 Q468.8958,290.349 469.3438,290.349 Q469.5521,290.349 469.75,290.2604 Q469.9479,290.1667 470.1563,289.974 L470.1563,290.8802 Z " fill="#000000"/><text fill="#000000" font-family="sans-serif" font-size="4.6667" lengthAdjust="spacing" textLength="84" x="473.8333" y="290.6156">ShotGameOwnerResponseMessage</text></g><!--class ShotGameRequestMessage--><g id="elem_ShotGameRequestMessage"><rect codeLine="309" fill="#F1F1F1" height="10.6667" id="ShotGameRequestMessage" rx="0.8333" ry="0.8333" style="stroke:#181818;stroke-width:0.16666666666666666;" width="75.6667" x="473.6667" y="328.3333"/><ellipse cx="478.6667" cy="333.6667" fill="#ADD1B2" rx="3.6667" ry="3.6667" style="stroke:#181818;stroke-width:0.3333333333333333;"/><path d="M479.6563,335.5469 Q479.4635,335.6458 479.25,335.6927 Q479.0365,335.7448 478.8021,335.7448 Q477.9688,335.7448 477.526,335.1979 Q477.0885,334.6458 477.0885,333.6042 Q477.0885,332.5625 477.526,332.0104 Q477.9688,331.4583 478.8021,331.4583 Q479.0365,331.4583 479.25,331.5104 Q479.4688,331.5625 479.6563,331.6615 L479.6563,332.5677 Q479.4479,332.375 479.25,332.2865 Q479.0521,332.1927 478.8438,332.1927 Q478.3958,332.1927 478.1667,332.5521 Q477.9375,332.9063 477.9375,333.6042 Q477.9375,334.3021 478.1667,334.6615 Q478.3958,335.0156 478.8438,335.0156 Q479.0521,335.0156 479.25,334.9271 Q479.4479,334.8333 479.6563,334.6406 L479.6563,335.5469 Z " fill="#000000"/><text fill="#000000" font-family="sans-serif" font-size="4.6667" lengthAdjust="spacing" textLength="65" x="483.3333" y="335.2822">ShotGameRequestMessage</text></g><!--class ShotGameResponseMessage--><g id="elem_ShotGameResponseMessage"><rect codeLine="321" fill="#F1F1F1" height="10.6667" id="ShotGameResponseMessage" rx="0.8333" ry="0.8333" style="stroke:#181818;stroke-width:0.16666666666666666;" width="79.6667" x="471.6667" y="261.3333"/><ellipse cx="476.6667" cy="266.6667" fill="#ADD1B2" rx="3.6667" ry="3.6667" style="stroke:#181818;stroke-width:0.3333333333333333;"/><path d="M477.6563,268.5469 Q477.4635,268.6458 477.25,268.6927 Q477.0365,268.7448 476.8021,268.7448 Q475.9688,268.7448 475.526,268.1979 Q475.0885,267.6458 475.0885,266.6042 Q475.0885,265.5625 475.526,265.0104 Q475.9688,264.4583 476.8021,264.4583 Q477.0365,264.4583 477.25,264.5104 Q477.4688,264.5625 477.6563,264.6615 L477.6563,265.5677 Q477.4479,265.375 477.25,265.2865 Q477.0521,265.1927 476.8438,265.1927 Q476.3958,265.1927 476.1667,265.5521 Q475.9375,265.9063 475.9375,266.6042 Q475.9375,267.3021 476.1667,267.6615 Q476.3958,268.0156 476.8438,268.0156 Q477.0521,268.0156 477.25,267.9271 Q477.4479,267.8333 477.6563,267.6406 L477.6563,268.5469 Z " fill="#000000"/><text fill="#000000" font-family="sans-serif" font-size="4.6667" lengthAdjust="spacing" textLength="69" x="481.3333" y="268.2822">ShotGameResponseMessage</text></g><!--class ChatMessageRequest--><g id="elem_ChatMessageRequest"><rect codeLine="336" fill="#F1F1F1" height="10.6667" id="ChatMessageRequest" rx="0.8333" ry="0.8333" style="stroke:#181818;stroke-width:0.16666666666666666;" width="62" x="480.5" y="216.6667"/><ellipse cx="485.5" cy="222" fill="#ADD1B2" rx="3.6667" ry="3.6667" style="stroke:#181818;stroke-width:0.3333333333333333;"/><path d="M486.4896,223.8802 Q486.2969,223.9792 486.0833,224.026 Q485.8698,224.0781 485.6354,224.0781 Q484.8021,224.0781 484.3594,223.5313 Q483.9219,222.9792 483.9219,221.9375 Q483.9219,220.8958 484.3594,220.3438 Q484.8021,219.7917 485.6354,219.7917 Q485.8698,219.7917 486.0833,219.8438 Q486.3021,219.8958 486.4896,219.9948 L486.4896,220.901 Q486.2813,220.7083 486.0833,220.6198 Q485.8854,220.526 485.6771,220.526 Q485.2292,220.526 485,220.8854 Q484.7708,221.2396 484.7708,221.9375 Q484.7708,222.6354 485,222.9948 Q485.2292,223.349 485.6771,223.349 Q485.8854,223.349 486.0833,223.2604 Q486.2813,223.1667 486.4896,222.974 L486.4896,223.8802 Z " fill="#000000"/><text fill="#000000" font-family="sans-serif" font-size="4.6667" lengthAdjust="spacing" textLength="51.3333" x="490.1667" y="223.6156">ChatMessageRequest</text></g><!--class ActionHistoryRepository--><g id="elem_ActionHistoryRepository"><rect codeLine="346" fill="#F1F1F1" height="10.6667" id="ActionHistoryRepository" rx="0.8333" ry="0.8333" style="stroke:#181818;stroke-width:0.16666666666666666;" width="65.3333" x="478.8333" y="431"/><ellipse cx="483.8333" cy="436.3333" fill="#B4A7E5" rx="3.6667" ry="3.6667" style="stroke:#181818;stroke-width:0.3333333333333333;"/><path d="M482.474,434.9219 L482.474,434.2031 L484.9375,434.2031 L484.9375,434.9219 L484.1146,434.9219 L484.1146,437.6146 L484.9375,437.6146 L484.9375,438.3333 L482.474,438.3333 L482.474,437.6146 L483.2969,437.6146 L483.2969,434.9219 L482.474,434.9219 Z " fill="#000000"/><text fill="#000000" font-family="sans-serif" font-size="4.6667" font-style="italic" lengthAdjust="spacing" textLength="54.6667" x="488.5" y="437.9489">ActionHistoryRepository</text></g><!--class MatchRepository--><g id="elem_MatchRepository"><rect codeLine="353" fill="#F1F1F1" height="10.6667" id="MatchRepository" rx="0.8333" ry="0.8333" style="stroke:#181818;stroke-width:0.16666666666666666;" width="49.3333" x="486.8333" y="408.6667"/><ellipse cx="491.8333" cy="414" fill="#B4A7E5" rx="3.6667" ry="3.6667" style="stroke:#181818;stroke-width:0.3333333333333333;"/><path d="M490.474,412.5885 L490.474,411.8698 L492.9375,411.8698 L492.9375,412.5885 L492.1146,412.5885 L492.1146,415.2813 L492.9375,415.2813 L492.9375,416 L490.474,416 L490.474,415.2813 L491.2969,415.2813 L491.2969,412.5885 L490.474,412.5885 Z " fill="#000000"/><text fill="#000000" font-family="sans-serif" font-size="4.6667" font-style="italic" lengthAdjust="spacing" textLength="38.6667" x="496.5" y="415.6156">MatchRepository</text></g><!--class PlayerRepository--><g id="elem_PlayerRepository"><rect codeLine="362" fill="#F1F1F1" height="10.6667" id="PlayerRepository" rx="0.8333" ry="0.8333" style="stroke:#181818;stroke-width:0.16666666666666666;" width="49" x="487" y="386.3333"/><ellipse cx="492" cy="391.6667" fill="#B4A7E5" rx="3.6667" ry="3.6667" style="stroke:#181818;stroke-width:0.3333333333333333;"/><path d="M490.6406,390.2552 L490.6406,389.5365 L493.1042,389.5365 L493.1042,390.2552 L492.2813,390.2552 L492.2813,392.9479 L493.1042,392.9479 L493.1042,393.6667 L490.6406,393.6667 L490.6406,392.9479 L491.4635,392.9479 L491.4635,390.2552 L490.6406,390.2552 Z " fill="#000000"/><text fill="#000000" font-family="sans-serif" font-size="4.6667" font-style="italic" lengthAdjust="spacing" textLength="38.3333" x="496.6667" y="393.2822">PlayerRepository</text></g><!--class ActionHistoryService--><g id="elem_ActionHistoryService"><rect codeLine="368" fill="#F1F1F1" height="10.6667" id="ActionHistoryService" rx="0.8333" ry="0.8333" style="stroke:#181818;stroke-width:0.16666666666666666;" width="57.3333" x="311.8333" y="438.3333"/><ellipse cx="316.8333" cy="443.6667" fill="#ADD1B2" rx="3.6667" ry="3.6667" style="stroke:#181818;stroke-width:0.3333333333333333;"/><path d="M317.8229,445.5469 Q317.6302,445.6458 317.4167,445.6927 Q317.2031,445.7448 316.9688,445.7448 Q316.1354,445.7448 315.6927,445.1979 Q315.2552,444.6458 315.2552,443.6042 Q315.2552,442.5625 315.6927,442.0104 Q316.1354,441.4583 316.9688,441.4583 Q317.2031,441.4583 317.4167,441.5104 Q317.6354,441.5625 317.8229,441.6615 L317.8229,442.5677 Q317.6146,442.375 317.4167,442.2865 Q317.2188,442.1927 317.0104,442.1927 Q316.5625,442.1927 316.3333,442.5521 Q316.1042,442.9063 316.1042,443.6042 Q316.1042,444.3021 316.3333,444.6615 Q316.5625,445.0156 317.0104,445.0156 Q317.2188,445.0156 317.4167,444.9271 Q317.6146,444.8333 317.8229,444.6406 L317.8229,445.5469 Z " fill="#000000"/><text fill="#000000" font-family="sans-serif" font-size="4.6667" lengthAdjust="spacing" textLength="46.6667" x="321.5" y="445.2822">ActionHistoryService</text></g><!--class GameService--><g id="elem_GameService"><rect codeLine="378" fill="#F1F1F1" height="10.6667" id="GameService" rx="0.8333" ry="0.8333" style="stroke:#181818;stroke-width:0.16666666666666666;" width="41" x="320" y="371.3333"/><ellipse cx="325" cy="376.6667" fill="#ADD1B2" rx="3.6667" ry="3.6667" style="stroke:#181818;stroke-width:0.3333333333333333;"/><path d="M325.9896,378.5469 Q325.7969,378.6458 325.5833,378.6927 Q325.3698,378.7448 325.1354,378.7448 Q324.3021,378.7448 323.8594,378.1979 Q323.4219,377.6458 323.4219,376.6042 Q323.4219,375.5625 323.8594,375.0104 Q324.3021,374.4583 325.1354,374.4583 Q325.3698,374.4583 325.5833,374.5104 Q325.8021,374.5625 325.9896,374.6615 L325.9896,375.5677 Q325.7813,375.375 325.5833,375.2865 Q325.3854,375.1927 325.1771,375.1927 Q324.7292,375.1927 324.5,375.5521 Q324.2708,375.9063 324.2708,376.6042 Q324.2708,377.3021 324.5,377.6615 Q324.7292,378.0156 325.1771,378.0156 Q325.3854,378.0156 325.5833,377.9271 Q325.7813,377.8333 325.9896,377.6406 L325.9896,378.5469 Z " fill="#000000"/><text fill="#000000" font-family="sans-serif" font-size="4.6667" lengthAdjust="spacing" textLength="30.3333" x="329.6667" y="378.2822">GameService</text></g><!--class MatchService--><g id="elem_MatchService"><rect codeLine="401" fill="#F1F1F1" height="10.6667" id="MatchService" rx="0.8333" ry="0.8333" style="stroke:#181818;stroke-width:0.16666666666666666;" width="41.3333" x="319.8333" y="416"/><ellipse cx="324.8333" cy="421.3333" fill="#ADD1B2" rx="3.6667" ry="3.6667" style="stroke:#181818;stroke-width:0.3333333333333333;"/><path d="M325.8229,423.2135 Q325.6302,423.3125 325.4167,423.3594 Q325.2031,423.4115 324.9688,423.4115 Q324.1354,423.4115 323.6927,422.8646 Q323.2552,422.3125 323.2552,421.2708 Q323.2552,420.2292 323.6927,419.6771 Q324.1354,419.125 324.9688,419.125 Q325.2031,419.125 325.4167,419.1771 Q325.6354,419.2292 325.8229,419.3281 L325.8229,420.2344 Q325.6146,420.0417 325.4167,419.9531 Q325.2188,419.8594 325.0104,419.8594 Q324.5625,419.8594 324.3333,420.2188 Q324.1042,420.5729 324.1042,421.2708 Q324.1042,421.9688 324.3333,422.3281 Q324.5625,422.6823 325.0104,422.6823 Q325.2188,422.6823 325.4167,422.5938 Q325.6146,422.5 325.8229,422.3073 L325.8229,423.2135 Z " fill="#000000"/><text fill="#000000" font-family="sans-serif" font-size="4.6667" lengthAdjust="spacing" textLength="30.6667" x="329.5" y="422.9489">MatchService</text></g><!--class NotificationService--><g id="elem_NotificationService"><rect codeLine="412" fill="#F1F1F1" height="10.6667" id="NotificationService" rx="0.8333" ry="0.8333" style="stroke:#181818;stroke-width:0.16666666666666666;" width="52.6667" x="314.1667" y="483"/><ellipse cx="319.1667" cy="488.3333" fill="#ADD1B2" rx="3.6667" ry="3.6667" style="stroke:#181818;stroke-width:0.3333333333333333;"/><path d="M320.1563,490.2135 Q319.9635,490.3125 319.75,490.3594 Q319.5365,490.4115 319.3021,490.4115 Q318.4688,490.4115 318.026,489.8646 Q317.5885,489.3125 317.5885,488.2708 Q317.5885,487.2292 318.026,486.6771 Q318.4688,486.125 319.3021,486.125 Q319.5365,486.125 319.75,486.1771 Q319.9688,486.2292 320.1563,486.3281 L320.1563,487.2344 Q319.9479,487.0417 319.75,486.9531 Q319.5521,486.8594 319.3438,486.8594 Q318.8958,486.8594 318.6667,487.2188 Q318.4375,487.5729 318.4375,488.2708 Q318.4375,488.9688 318.6667,489.3281 Q318.8958,489.6823 319.3438,489.6823 Q319.5521,489.6823 319.75,489.5938 Q319.9479,489.5 320.1563,489.3073 L320.1563,490.2135 Z " fill="#000000"/><text fill="#000000" font-family="sans-serif" font-size="4.6667" lengthAdjust="spacing" textLength="42" x="323.8333" y="489.9489">NotificationService</text></g><!--class PlayerService--><g id="elem_PlayerService"><rect codeLine="419" fill="#F1F1F1" height="10.6667" id="PlayerService" rx="0.8333" ry="0.8333" style="stroke:#181818;stroke-width:0.16666666666666666;" width="41" x="320" y="393.6667"/><ellipse cx="325" cy="399" fill="#ADD1B2" rx="3.6667" ry="3.6667" style="stroke:#181818;stroke-width:0.3333333333333333;"/><path d="M325.9896,400.8802 Q325.7969,400.9792 325.5833,401.026 Q325.3698,401.0781 325.1354,401.0781 Q324.3021,401.0781 323.8594,400.5313 Q323.4219,399.9792 323.4219,398.9375 Q323.4219,397.8958 323.8594,397.3438 Q324.3021,396.7917 325.1354,396.7917 Q325.3698,396.7917 325.5833,396.8438 Q325.8021,396.8958 325.9896,396.9948 L325.9896,397.901 Q325.7813,397.7083 325.5833,397.6198 Q325.3854,397.526 325.1771,397.526 Q324.7292,397.526 324.5,397.8854 Q324.2708,398.2396 324.2708,398.9375 Q324.2708,399.6354 324.5,399.9948 Q324.7292,400.349 325.1771,400.349 Q325.3854,400.349 325.5833,400.2604 Q325.7813,400.1667 325.9896,399.974 L325.9896,400.8802 Z " fill="#000000"/><text fill="#000000" font-family="sans-serif" font-size="4.6667" lengthAdjust="spacing" textLength="30.3333" x="329.6667" y="400.6156">PlayerService</text></g><!--class SeaBattleService--><g id="elem_SeaBattleService"><rect codeLine="429" fill="#F1F1F1" height="10.6667" id="SeaBattleService" rx="0.8333" ry="0.8333" style="stroke:#181818;stroke-width:0.16666666666666666;" width="49.3333" x="188.3333" y="438.3333"/><ellipse cx="193.3333" cy="443.6667" fill="#ADD1B2" rx="3.6667" ry="3.6667" style="stroke:#181818;stroke-width:0.3333333333333333;"/><path d="M194.3229,445.5469 Q194.1302,445.6458 193.9167,445.6927 Q193.7031,445.7448 193.4688,445.7448 Q192.6354,445.7448 192.1927,445.1979 Q191.7552,444.6458 191.7552,443.6042 Q191.7552,442.5625 192.1927,442.0104 Q192.6354,441.4583 193.4688,441.4583 Q193.7031,441.4583 193.9167,441.5104 Q194.1354,441.5625 194.3229,441.6615 L194.3229,442.5677 Q194.1146,442.375 193.9167,442.2865 Q193.7188,442.1927 193.5104,442.1927 Q193.0625,442.1927 192.8333,442.5521 Q192.6042,442.9063 192.6042,443.6042 Q192.6042,444.3021 192.8333,444.6615 Q193.0625,445.0156 193.5104,445.0156 Q193.7188,445.0156 193.9167,444.9271 Q194.1146,444.8333 194.3229,444.6406 L194.3229,445.5469 Z " fill="#000000"/><text fill="#000000" font-family="sans-serif" font-size="4.6667" lengthAdjust="spacing" textLength="38.6667" x="198" y="445.2822">SeaBattleService</text></g><!--class ValidatorService--><g id="elem_ValidatorService"><rect codeLine="458" fill="#F1F1F1" height="10.6667" id="ValidatorService" rx="0.8333" ry="0.8333" style="stroke:#181818;stroke-width:0.16666666666666666;" width="47" x="317" y="460.6667"/><ellipse cx="322" cy="466" fill="#ADD1B2" rx="3.6667" ry="3.6667" style="stroke:#181818;stroke-width:0.3333333333333333;"/><path d="M322.9896,467.8802 Q322.7969,467.9792 322.5833,468.026 Q322.3698,468.0781 322.1354,468.0781 Q321.3021,468.0781 320.8594,467.5313 Q320.4219,466.9792 320.4219,465.9375 Q320.4219,464.8958 320.8594,464.3438 Q321.3021,463.7917 322.1354,463.7917 Q322.3698,463.7917 322.5833,463.8438 Q322.8021,463.8958 322.9896,463.9948 L322.9896,464.901 Q322.7813,464.7083 322.5833,464.6198 Q322.3854,464.526 322.1771,464.526 Q321.7292,464.526 321.5,464.8854 Q321.2708,465.2396 321.2708,465.9375 Q321.2708,466.6354 321.5,466.9948 Q321.7292,467.349 322.1771,467.349 Q322.3854,467.349 322.5833,467.2604 Q322.7813,467.1667 322.9896,466.974 L322.9896,467.8802 Z " fill="#000000"/><text fill="#000000" font-family="sans-serif" font-size="4.6667" lengthAdjust="spacing" textLength="36.3333" x="326.6667" y="467.6156">ValidatorService</text></g><!--reverse link GameController to NotificationService--><g id="link_GameController_NotificationService"><path codeLine="466" d="M111.9428,491.9075 C159.5128,491.1642 264.0933,489.5267 314.09,488.7433 " fill="none" id="GameController-backto-NotificationService" style="stroke:#181818;stroke-width:0.3333333333333333;"/><polygon fill="#181818" points="107.9433,491.97,109.9639,493.2719,111.9428,491.9075,109.9223,490.6056,107.9433,491.97" style="stroke:#181818;stroke-width:0.3333333333333333;"/><text fill="#000000" font-family="sans-serif" font-size="4.3333" lengthAdjust="spacing" textLength="39" x="193.5" y="488.689">notificationService</text></g><!--reverse link GameController to SeaBattleService--><g id="link_GameController_SeaBattleService"><path codeLine="467" d="M102.6181,485.5632 C127.1981,476.2032 174,458.3867 198.5967,449.0233 " fill="none" id="GameController-backto-SeaBattleService" style="stroke:#181818;stroke-width:0.3333333333333333;"/><polygon fill="#181818" points="98.88,486.9867,101.2236,487.521,102.6181,485.5632,100.2746,485.0289,98.88,486.9867" style="stroke:#181818;stroke-width:0.3333333333333333;"/><text fill="#000000" font-family="sans-serif" font-size="4.3333" lengthAdjust="spacing" textLength="36" x="132.8333" y="459.689">seaBattleService</text></g><!--link ActionHistoryDao to MatchDao--><g id="link_ActionHistoryDao_MatchDao"><path codeLine="468" d="M532.3167,617.3167 C557.9833,610.6133 599.5449,599.7554 623.3216,593.5454 " fill="none" id="ActionHistoryDao-to-MatchDao" style="stroke:#181818;stroke-width:0.3333333333333333;"/><polygon fill="#181818" points="625.2567,593.04,622.0171,592.5081,623.6441,593.4612,622.691,595.0882,625.2567,593.04" style="stroke:#181818;stroke-width:0.3333333333333333;"/><text fill="#000000" font-family="sans-serif" font-size="4.3333" lengthAdjust="spacing" textLength="29.3333" x="569.1667" y="594.3556">@ManyToOne</text><text fill="#000000" font-family="sans-serif" font-size="4.3333" lengthAdjust="spacing" textLength="13.6667" x="577" y="599.3999">match</text></g><!--link ActionHistoryDao to PlayerDao--><g id="link_ActionHistoryDao_PlayerDao"><path codeLine="469" d="M536.5067,626.2433 C583.2733,632.7033 683.1267,644.8933 716.5,636.3333 C726.48,633.7733 735.0311,628.7434 741.6178,624.1934 " fill="none" id="ActionHistoryDao-to-PlayerDao" style="stroke:#181818;stroke-width:0.3333333333333333;"/><polygon fill="#181818" points="743.2633,623.0567,740.0372,623.6647,741.892,624.0039,741.5528,625.8588,743.2633,623.0567" style="stroke:#181818;stroke-width:0.3333333333333333;"/><text fill="#000000" font-family="sans-serif" font-size="4.3333" lengthAdjust="spacing" textLength="29.3333" x="627.6667" y="628.689">@ManyToOne</text><text fill="#000000" font-family="sans-serif" font-size="4.3333" lengthAdjust="spacing" textLength="13" x="635.8333" y="633.7332">player</text></g><!--link ActionHistoryDao to AbstractDao--><g id="link_ActionHistoryDao_AbstractDao"><path codeLine="470" d="M531.3733,628.02 C542.3233,630.8833 556.2667,634.2933 568.8333,636.6667 C662.21,654.3067 689.8933,649.99 782.5,628.6667 C790.15,626.9067 792.7199,626.3033 799.9966,624.3933 " fill="none" id="ActionHistoryDao-to-AbstractDao" style="stroke:#181818;stroke-width:0.3333333333333333;"/><polygon fill="none" points="805.8,622.87,799.4888,622.4588,800.5044,626.3278,805.8,622.87" style="stroke:#181818;stroke-width:0.3333333333333333;"/></g><!--link MatchDao to PlayerDao--><g id="link_MatchDao_PlayerDao"><path codeLine="471" d="M653.21,594.0167 C661.9267,598.2267 674.74,603.9333 686.5,607.3333 C702.2867,611.8967 718.8963,614.3896 731.9629,615.8829 " fill="none" id="MatchDao-to-PlayerDao" style="stroke:#181818;stroke-width:0.3333333333333333;"/><polygon fill="#181818" points="733.95,616.11,731.1208,614.4446,732.2941,615.9208,730.818,617.0941,733.95,616.11" style="stroke:#181818;stroke-width:0.3333333333333333;"/><text fill="#000000" font-family="sans-serif" font-size="4.3333" lengthAdjust="spacing" textLength="29.3333" x="686.8333" y="601.0223">@ManyToOne</text><text fill="#000000" font-family="sans-serif" font-size="4.3333" lengthAdjust="spacing" textLength="20.3333" x="691.3333" y="606.0666">opponent</text></g><!--link MatchDao to PlayerDao--><g id="link_MatchDao_PlayerDao"><path codeLine="472" d="M659.4267,587.89 C674.72,587.7133 697.7233,588.7833 716.5,595.3333 C727.2367,599.0767 736.3745,605.6732 742.8212,610.9965 " fill="none" id="MatchDao-to-PlayerDao-1" style="stroke:#181818;stroke-width:0.3333333333333333;"/><polygon fill="#181818" points="744.3633,612.27,742.899,609.3317,743.0782,611.2088,741.2011,611.3879,744.3633,612.27" style="stroke:#181818;stroke-width:0.3333333333333333;"/><text fill="#000000" font-family="sans-serif" font-size="4.3333" lengthAdjust="spacing" textLength="29.3333" x="686.8333" y="583.0223">@ManyToOne</text><text fill="#000000" font-family="sans-serif" font-size="4.3333" lengthAdjust="spacing" textLength="12.6667" x="695.1667" y="588.0666">owner</text></g><!--link MatchDao to PlayerDao--><g id="link_MatchDao_PlayerDao"><path codeLine="473" d="M659.3633,593.0067 C668.01,596.1267 677.9633,601.2433 683.8333,609.3333 C688.4967,615.76 680.48,621.82 686.5,627 C701.9067,640.2567 725.744,631.0196 739.4306,623.9329 " fill="none" id="MatchDao-to-PlayerDao-2" style="stroke:#181818;stroke-width:0.3333333333333333;"/><polygon fill="#181818" points="741.2067,623.0133,737.9295,623.2087,739.7266,623.7797,739.1557,625.5768,741.2067,623.0133" style="stroke:#181818;stroke-width:0.3333333333333333;"/><text fill="#000000" font-family="sans-serif" font-size="4.3333" lengthAdjust="spacing" textLength="29.3333" x="686.8333" y="620.689">@ManyToOne</text><text fill="#000000" font-family="sans-serif" font-size="4.3333" lengthAdjust="spacing" textLength="13.6667" x="694.6667" y="625.7332">winner</text></g><!--link MatchDao to MatchStatus--><g id="link_MatchDao_MatchStatus"><path codeLine="474" d="M645.1367,583.3067 C656.03,559.35 699.9867,459.4767 716.5,372.3333 C717.7067,365.96 714.97,318.9467 719.1667,314 C722.19,310.4367 724.6463,308.9212 729.213,307.9212 " fill="none" id="MatchDao-to-MatchStatus" style="stroke:#181818;stroke-width:0.3333333333333333;"/><polygon fill="#181818" points="731.1667,307.4933,727.9509,306.8326,729.5386,307.8498,728.5213,309.4375,731.1667,307.4933" style="stroke:#181818;stroke-width:0.3333333333333333;"/><text fill="#000000" font-family="sans-serif" font-size="4.3333" lengthAdjust="spacing" textLength="13.3333" x="694.8333" y="371.0223">status</text></g><!--link MatchDao to AbstractDao--><g id="link_MatchDao_AbstractDao"><path codeLine="475" d="M657.3533,583.3 C665.76,580.5133 676.58,577.4033 686.5,576 C699.7,574.13 703.39,573.57 716.5,576 C754.3933,583.0267 790.7951,600.0372 809.5517,609.6039 " fill="none" id="MatchDao-to-AbstractDao" style="stroke:#181818;stroke-width:0.3333333333333333;"/><polygon fill="none" points="814.8967,612.33,810.4605,607.8222,808.643,611.3855,814.8967,612.33" style="stroke:#181818;stroke-width:0.3333333333333333;"/></g><!--link PlayerDao to AbstractDao--><g id="link_PlayerDao_AbstractDao"><path codeLine="476" d="M767.7367,617.6667 C779.0033,617.6667 787.9467,617.6667 799.7433,617.6667 " fill="none" id="PlayerDao-to-AbstractDao" style="stroke:#181818;stroke-width:0.3333333333333333;"/><polygon fill="none" points="805.7433,617.6667,799.7433,615.6667,799.7433,619.6667,805.7433,617.6667" style="stroke:#181818;stroke-width:0.3333333333333333;"/></g><!--link Match to Player--><g id="link_Match_Player"><path codeLine="477" d="M654.6867,355.2633 C664.04,354.7767 676.6033,352.4767 683.8333,344.3333 C689.69,337.7367 679.8567,330.47 686.5,324.6667 C701.1233,311.8933 723.5949,318.4658 737.6716,324.4958 " fill="none" id="Match-to-Player" style="stroke:#181818;stroke-width:0.3333333333333333;"/><polygon fill="#181818" points="739.51,325.2833,737.2774,322.8764,737.978,324.6271,736.2273,325.3277,739.51,325.2833" style="stroke:#181818;stroke-width:0.3333333333333333;"/><text fill="#000000" font-family="sans-serif" font-size="4.3333" lengthAdjust="spacing" textLength="20.3333" x="691.3333" y="316.3556">opponent</text></g><!--link Match to Player--><g id="link_Match_Player"><path codeLine="478" d="M654.7333,355.9967 C669.6067,356.8433 695.4933,357.0533 716.5,350.6667 C726.72,347.56 735.4958,341.9942 742.0525,337.1975 " fill="none" id="Match-to-Player-1" style="stroke:#181818;stroke-width:0.3333333333333333;"/><polygon fill="#181818" points="743.6667,336.0167,740.4582,336.7119,742.3215,337.0007,742.0327,338.8641,743.6667,336.0167" style="stroke:#181818;stroke-width:0.3333333333333333;"/><text fill="#000000" font-family="sans-serif" font-size="4.3333" lengthAdjust="spacing" textLength="12.6667" x="695.1667" y="349.3556">owner</text></g><!--link Match to Player--><g id="link_Match_Player"><path codeLine="479" d="M654.7467,351.86 C667.1667,348.6333 684.92,344.03 686.5,343.6667 C704.62,339.4867 723.8253,335.7006 736.6986,333.2506 " fill="none" id="Match-to-Player-2" style="stroke:#181818;stroke-width:0.3333333333333333;"/><polygon fill="#181818" points="738.6633,332.8767,735.467,332.1277,737.0261,333.1883,735.9655,334.7474,738.6633,332.8767" style="stroke:#181818;stroke-width:0.3333333333333333;"/><text fill="#000000" font-family="sans-serif" font-size="4.3333" lengthAdjust="spacing" textLength="13.6667" x="694.6667" y="336.0223">winner</text></g><!--link Match to MatchStatus--><g id="link_Match_MatchStatus"><path codeLine="480" d="M654.72,355.38 C664.16,354.97 676.8233,352.7133 683.8333,344.3333 C688.84,338.35 680.8633,314.7233 686.5,309.3333 C698.31,298.04 715.7001,298.6584 730.0367,301.5717 " fill="none" id="Match-to-MatchStatus" style="stroke:#181818;stroke-width:0.3333333333333333;"/><polygon fill="#181818" points="731.9967,301.97,729.3223,300.066,730.3634,301.6381,728.7912,302.6792,731.9967,301.97" style="stroke:#181818;stroke-width:0.3333333333333333;"/><text fill="#000000" font-family="sans-serif" font-size="4.3333" lengthAdjust="spacing" textLength="13.3333" x="694.8333" y="299.0223">status</text></g><!--link CustomFleet to Fleet--><g id="link_CustomFleet_Fleet"><path codeLine="481" d="M531.6033,108.4433 C559.4833,113.2967 607.413,121.6436 629.273,125.4502 " fill="none" id="CustomFleet-to-Fleet" style="stroke:#181818;stroke-width:0.3333333333333333;"/><polygon fill="#181818" points="631.2433,125.7933,628.5166,123.9651,629.6014,125.5074,628.0591,126.5922,631.2433,125.7933" style="stroke:#181818;stroke-width:0.3333333333333333;"/><text fill="#000000" font-family="sans-serif" font-size="4.3333" lengthAdjust="spacing" textLength="9.3333" x="579.1667" y="113.689">fleet</text></g><!--reverse link Fleet to Warship--><g id="link_Fleet_Warship"><path codeLine="482" d="M657.4,127.6667 C676.95,127.6667 714.3633,127.6667 736.2533,127.6667 " fill="none" id="Fleet-backto-Warship" style="stroke:#181818;stroke-width:0.3333333333333333;"/><polygon fill="none" points="653.4,127.6667,655.4,129,657.4,127.6667,655.4,126.3333,653.4,127.6667" style="stroke:#181818;stroke-width:0.3333333333333333;"/><text fill="#000000" font-family="sans-serif" font-size="4.3333" lengthAdjust="spacing" textLength="18.3333" x="692.3333" y="126.3556">warships</text><text fill="#000000" font-family="sans-serif" font-size="4.3333" lengthAdjust="spacing" textLength="2.6667" x="655.9575" y="132.2092">1</text><text fill="#000000" font-family="sans-serif" font-size="4.3333" lengthAdjust="spacing" textLength="7.6667" x="725.9973" y="132.0436">0..*</text></g><!--reverse link MatchFleet to Fleet--><g id="link_MatchFleet_Fleet"><path codeLine="483" d="M533.4674,146.0103 C560.8908,141.377 608.8867,133.2633 631.28,129.48 " fill="none" id="MatchFleet-backto-Fleet" style="stroke:#181818;stroke-width:0.3333333333333333;"/><polygon fill="none" points="529.5233,146.6767,531.7175,147.6582,533.4674,146.0103,531.2733,145.0288,529.5233,146.6767" style="stroke:#181818;stroke-width:0.3333333333333333;"/><text fill="#000000" font-family="sans-serif" font-size="4.3333" lengthAdjust="spacing" textLength="28.3333" x="569.6667" y="134.3556">userIdToFleet</text><text fill="#000000" font-family="sans-serif" font-size="4.3333" lengthAdjust="spacing" textLength="2.6667" x="532.1244" y="150.6361">1</text><text fill="#000000" font-family="sans-serif" font-size="4.3333" lengthAdjust="spacing" textLength="7.6667" x="620.9616" y="134.2746">0..*</text></g><!--reverse link Warship to Point--><g id="link_Warship_Point"><path codeLine="484" d="M768.4223,134.2417 C777.269,137.1051 785.31,138.4767 795.8333,136.6667 C802.08,135.5933 808.7667,133.3133 814.1567,131.1667 " fill="none" id="Warship-backto-Point" style="stroke:#181818;stroke-width:0.3333333333333333;"/><polygon fill="#181818" points="764.6167,133.01,766.1089,134.8944,768.4223,134.2417,766.9301,132.3573,764.6167,133.01" style="stroke:#181818;stroke-width:0.3333333333333333;"/><text fill="#000000" font-family="sans-serif" font-size="4.3333" lengthAdjust="spacing" textLength="10" x="785.5" y="135.3556">start</text></g><!--link Warship to Point--><g id="link_Warship_Point"><path codeLine="485" d="M765.4033,127.41 C779.65,127.1533 799.257,126.7995 812.167,126.5661 " fill="none" id="Warship-to-Point" style="stroke:#181818;stroke-width:0.3333333333333333;"/><polygon fill="#181818" points="814.1667,126.53,811.1431,125.2511,812.5003,126.5601,811.1913,127.9173,814.1667,126.53" style="stroke:#181818;stroke-width:0.3333333333333333;"/><text fill="#000000" font-family="sans-serif" font-size="4.3333" lengthAdjust="spacing" textLength="8" x="786.5" y="125.689">end</text></g><!--link BaseResponseMessage to Status--><g id="link_BaseResponseMessage_Status"><path codeLine="486" d="M675.9,265.4333 C697.0033,264.65 721.088,263.7576 736.158,263.1976 " fill="none" id="BaseResponseMessage-to-Status" style="stroke:#181818;stroke-width:0.3333333333333333;"/><polygon fill="#181818" points="738.1567,263.1233,735.1092,261.9023,736.4911,263.1852,735.2082,264.5671,738.1567,263.1233" style="stroke:#181818;stroke-width:0.3333333333333333;"/><text fill="#000000" font-family="sans-serif" font-size="4.3333" lengthAdjust="spacing" textLength="13.3333" x="694.8333" y="262.689">status</text></g><!--link MatchUI to MatchStatus--><g id="link_MatchUI_MatchStatus"><path codeLine="487" d="M526.1067,242.8133 C568.08,238.6833 689.81,229.26 716.5,255.6667 C722.8867,261.9833 713.7667,288.82 719.1667,296 C722.0867,299.8833 724.5898,301.749 729.1531,303.429 " fill="none" id="MatchUI-to-MatchStatus" style="stroke:#181818;stroke-width:0.3333333333333333;"/><polygon fill="#181818" points="731.03,304.12,728.6754,301.8323,729.466,303.5442,727.7541,304.3348,731.03,304.12" style="stroke:#181818;stroke-width:0.3333333333333333;"/><text fill="#000000" font-family="sans-serif" font-size="4.3333" lengthAdjust="spacing" textLength="27.6667" x="628.5" y="236.689">matchStatus</text></g><!--link NotificationResponseMessage to TypeNotification--><g id="link_NotificationResponseMessage_TypeNotification"><path codeLine="488" d="M551.9167,315.7067 C596.62,319.6267 665.1267,322.48 683.8333,305.6667 C690.1767,299.9667 680.1367,292.3433 686.5,286.6667 C698.5667,275.8967 715.6283,276.4407 729.8049,279.254 " fill="none" id="NotificationResponseMessage-to-TypeNotification" style="stroke:#181818;stroke-width:0.3333333333333333;"/><polygon fill="#181818" points="731.7667,279.6433,729.0836,277.7515,730.1319,279.3189,728.5645,280.3672,731.7667,279.6433" style="stroke:#181818;stroke-width:0.3333333333333333;"/><text fill="#000000" font-family="sans-serif" font-size="4.3333" lengthAdjust="spacing" textLength="9.3333" x="637.6667" y="304.3556">type</text></g><!--link NotificationResponseMessage to BaseResponseMessage--><g id="link_NotificationResponseMessage_BaseResponseMessage"><path codeLine="489" d="M537.69,305.9967 C544.63,304.3233 552.08,302.3 558.8333,300 C570.3533,296.0767 597.49,282.07 608.8333,277.6667 C613.9533,275.68 613.898,275.6008 619.058,273.9008 " fill="none" id="NotificationResponseMessage-to-BaseResponseMessage" style="stroke:#181818;stroke-width:0.3333333333333333;"/><polygon fill="none" points="624.7567,272.0233,618.4321,272.0012,619.6838,275.8004,624.7567,272.0233" style="stroke:#181818;stroke-width:0.3333333333333333;"/></g><!--link ShotGameOwnerResponseMessage to BaseResponseMessage--><g id="link_ShotGameOwnerResponseMessage_BaseResponseMessage"><path codeLine="490" d="M543.01,283.65 C563.5433,280.1267 584.4098,276.5484 604.9365,273.025 " fill="none" id="ShotGameOwnerResponseMessage-to-BaseResponseMessage" style="stroke:#181818;stroke-width:0.3333333333333333;"/><polygon fill="none" points="610.85,272.01,604.5981,271.0539,605.2748,274.9962,610.85,272.01" style="stroke:#181818;stroke-width:0.3333333333333333;"/></g><!--link ShotGameRequestMessage to BaseRequestMessage--><g id="link_ShotGameRequestMessage_BaseRequestMessage"><path codeLine="491" d="M536.9,328.33 C544.0433,326.62 551.7967,324.58 558.8333,322.3333 C572.4667,317.9833 603.9333,304.9866 623.6666,296.7132 " fill="none" id="ShotGameRequestMessage-to-BaseRequestMessage" style="stroke:#181818;stroke-width:0.3333333333333333;stroke-dasharray:7.0,7.0;"/><polygon fill="none" points="629.2,294.3933,622.8933,294.8688,624.4399,298.5577,629.2,294.3933" style="stroke:#181818;stroke-width:0.3333333333333333;"/></g><!--link ShotGameResponseMessage to BaseResponseMessage--><g id="link_ShotGameResponseMessage_BaseResponseMessage"><path codeLine="492" d="M551.4167,266.6667 C569.7433,266.6667 585.27,266.6667 602.7433,266.6667 " fill="none" id="ShotGameResponseMessage-to-BaseResponseMessage" style="stroke:#181818;stroke-width:0.3333333333333333;"/><polygon fill="none" points="608.7433,266.6667,602.7433,264.6667,602.7433,268.6667,608.7433,266.6667" style="stroke:#181818;stroke-width:0.3333333333333333;"/></g><!--reverse link ActionHistoryService to ActionHistoryMapper--><g id="link_ActionHistoryService_ActionHistoryMapper"><path codeLine="493" d="M372.7368,450.2239 C375.7968,451.7772 375.01,452.0033 377.1667,454.6667 C381.61,460.1567 375.3267,480.8933 379.8333,486.3333 C399.9433,510.61 417.4367,498.3133 448.1667,505.3333 C459.27,507.87 471.5833,510.1933 482.3567,512.0667 " fill="none" id="ActionHistoryService-backto-ActionHistoryMapper" style="stroke:#181818;stroke-width:0.3333333333333333;"/><polygon fill="#181818" points="369.17,448.4133,370.3499,450.5075,372.7368,450.2239,371.5569,448.1297,369.17,448.4133" style="stroke:#181818;stroke-width:0.3333333333333333;"/><text fill="#000000" font-family="sans-serif" font-size="4.3333" lengthAdjust="spacing" textLength="16.6667" x="404.3333" y="485.0223">mapper</text></g><!--reverse link ActionHistoryService to ActionHistoryRepository--><g id="link_ActionHistoryService_ActionHistoryRepository"><path codeLine="494" d="M373.1764,444.2537 C394.2431,444.4837 419.6867,444.39 445.5,443 C456.37,442.4133 468.2167,441.3467 478.8167,440.2333 " fill="none" id="ActionHistoryService-backto-ActionHistoryRepository" style="stroke:#181818;stroke-width:0.3333333333333333;"/><polygon fill="#181818" points="369.1767,444.21,371.162,445.5651,373.1764,444.2537,371.1911,442.8986,369.1767,444.21" style="stroke:#181818;stroke-width:0.3333333333333333;"/><text fill="#000000" font-family="sans-serif" font-size="4.3333" lengthAdjust="spacing" textLength="50.3333" x="387.5" y="441.689">actionHistoryRepository</text></g><!--reverse link GameService to WarshipDescription--><g id="link_GameService_WarshipDescription"><path codeLine="495" d="M349.0616,368.4748 C366.8216,350.5448 420.79,293.06 445.5,231 C448.7633,222.8033 443.38,218.7433 448.1667,211.3333 C459.2233,194.2233 480.63,183.25 495.4,177.3567 " fill="none" id="GameService-backto-WarshipDescription" style="stroke:#181818;stroke-width:0.3333333333333333;"/><polygon fill="none" points="346.2467,371.3167,348.6014,370.834,349.0616,368.4748,346.7068,368.9574,346.2467,371.3167" style="stroke:#181818;stroke-width:0.3333333333333333;"/><text fill="#000000" font-family="sans-serif" font-size="4.3333" lengthAdjust="spacing" textLength="57.3333" x="384" y="229.689">warshipDescriptionsForMini</text><text fill="#000000" font-family="sans-serif" font-size="4.3333" lengthAdjust="spacing" textLength="2.6667" x="345.0971" y="367.6481">1</text><text fill="#000000" font-family="sans-serif" font-size="4.3333" lengthAdjust="spacing" textLength="7.6667" x="481.1304" y="183.9888">0..*</text></g><!--reverse link GameService to WarshipDescription--><g id="link_GameService_WarshipDescription"><path codeLine="496" d="M342.1013,367.2201 C345.4547,342.6701 359.5867,246.9933 379.8333,224 C406.6933,193.4933 453.83,180.6933 483.7233,175.4567 " fill="none" id="GameService-backto-WarshipDescription-1" style="stroke:#181818;stroke-width:0.3333333333333333;"/><polygon fill="none" points="341.56,371.1833,343.1517,369.3822,342.1013,367.2201,340.5096,369.0213,341.56,371.1833" style="stroke:#181818;stroke-width:0.3333333333333333;"/><text fill="#000000" font-family="sans-serif" font-size="4.3333" lengthAdjust="spacing" textLength="65" x="380.1667" y="184.3556">warshipDescriptionsForRegular</text><text fill="#000000" font-family="sans-serif" font-size="4.3333" lengthAdjust="spacing" textLength="2.6667" x="338.8062" y="367.668">1</text><text fill="#000000" font-family="sans-serif" font-size="4.3333" lengthAdjust="spacing" textLength="7.6667" x="473.5377" y="179.9554">0..*</text></g><!--reverse link MatchService to MatchMapper--><g id="link_MatchService_MatchMapper"><path codeLine="497" d="M365.1201,424.3203 C371.0635,425.8936 373.16,427.61 377.1667,432.3333 C383.0633,439.2833 374.26,445.4533 379.8333,452.6667 C399.09,477.5967 420.69,459.9233 445.5,479.3333 C447.0867,480.5733 446.46,481.93 448.1667,483 C460.7833,490.91 477.4533,493.6433 490.4767,494.4533 " fill="none" id="MatchService-backto-MatchMapper" style="stroke:#181818;stroke-width:0.3333333333333333;"/><polygon fill="#181818" points="361.2533,423.2967,362.8455,425.0974,365.1201,424.3203,363.5279,422.5195,361.2533,423.2967" style="stroke:#181818;stroke-width:0.3333333333333333;"/><text fill="#000000" font-family="sans-serif" font-size="4.3333" lengthAdjust="spacing" textLength="29.6667" x="397.8333" y="451.3556">matchMapper</text></g><!--reverse link MatchService to MatchRepository--><g id="link_MatchService_MatchRepository"><path codeLine="498" d="M365.2537,423.2714 C371.2337,423.688 373.7967,423.7933 379.8333,424 C409,424.9967 416.3967,426.2033 445.5,424 C459.24,422.96 474.4633,420.71 486.7867,418.61 " fill="none" id="MatchService-backto-MatchRepository" style="stroke:#181818;stroke-width:0.3333333333333333;"/><polygon fill="#181818" points="361.2633,422.9933,363.1658,424.4625,365.2537,423.2714,363.3512,421.8022,361.2633,422.9933" style="stroke:#181818;stroke-width:0.3333333333333333;"/><text fill="#000000" font-family="sans-serif" font-size="4.3333" lengthAdjust="spacing" textLength="36" x="394.6667" y="422.689">matchRepository</text></g><!--reverse link PlayerService to PlayerMapper--><g id="link_PlayerService_PlayerMapper"><path codeLine="499" d="M365.0594,403.1442 C395.4694,408.3442 445.41,416.9033 445.5,417 C450.0367,421.9233 444.1667,441.6333 448.1667,447 C458.12,460.3467 476.32,466.5767 490.6067,469.48 " fill="none" id="PlayerService-backto-PlayerMapper" style="stroke:#181818;stroke-width:0.3333333333333333;"/><polygon fill="#181818" points="361.1167,402.47,362.8633,404.1214,365.0594,403.1442,363.3128,401.4928,361.1167,402.47" style="stroke:#181818;stroke-width:0.3333333333333333;"/><text fill="#000000" font-family="sans-serif" font-size="4.3333" lengthAdjust="spacing" textLength="16.6667" x="404.3333" y="404.689">mapper</text></g><!--reverse link PlayerService to PlayerRepository--><g id="link_PlayerService_PlayerRepository"><path codeLine="500" d="M365.0396,397.9581 C396.4996,396.6048 453.0767,394.1667 486.87,392.7133 " fill="none" id="PlayerService-backto-PlayerRepository" style="stroke:#181818;stroke-width:0.3333333333333333;"/><polygon fill="#181818" points="361.0433,398.13,363.0988,399.3761,365.0396,397.9581,362.9842,396.7119,361.0433,398.13" style="stroke:#181818;stroke-width:0.3333333333333333;"/><text fill="#000000" font-family="sans-serif" font-size="4.3333" lengthAdjust="spacing" textLength="35.3333" x="395" y="393.689">playerRepository</text></g><!--reverse link SeaBattleService to MatchFleet--><g id="link_SeaBattleService_MatchFleet"><path codeLine="501" d="M216.1945,434.4423 C225.9912,403.419 278.17,250.7833 379.8333,177.3333 C414.3033,152.43 466.3733,148.9733 493.43,149.04 " fill="none" id="SeaBattleService-backto-MatchFleet" style="stroke:#181818;stroke-width:0.3333333333333333;"/><polygon fill="none" points="214.99,438.2567,216.8637,436.751,216.1945,434.4423,214.3208,435.948,214.99,438.2567" style="stroke:#181818;stroke-width:0.3333333333333333;"/><text fill="#000000" font-family="sans-serif" font-size="4.3333" lengthAdjust="spacing" textLength="45.6667" x="317.6667" y="179.0223">matchIdToMatchFleet</text><text fill="#000000" font-family="sans-serif" font-size="4.3333" lengthAdjust="spacing" textLength="2.6667" x="212.5409" y="434.6661">1</text><text fill="#000000" font-family="sans-serif" font-size="4.3333" lengthAdjust="spacing" textLength="7.6667" x="483.2308" y="153.2815">0..*</text></g><!--reverse link SeaBattleService to GameMapper--><g id="link_SeaBattleService_GameMapper"><path codeLine="502" d="M222.151,451.7572 C234.041,462.6639 256.9567,483.6633 257.5,484 C333.8833,531.3 445.15,538.2833 490.6367,539.06 " fill="none" id="SeaBattleService-backto-GameMapper" style="stroke:#181818;stroke-width:0.3333333333333333;"/><polygon fill="#181818" points="219.2033,449.0533,219.7759,451.3879,222.151,451.7572,221.5785,449.4227,219.2033,449.0533" style="stroke:#181818;stroke-width:0.3333333333333333;"/><text fill="#000000" font-family="sans-serif" font-size="4.3333" lengthAdjust="spacing" textLength="28.3333" x="326.3333" y="509.3556">gameMapper</text></g><!--reverse link SeaBattleService to ActionHistoryService--><g id="link_SeaBattleService_ActionHistoryService"><path codeLine="503" d="M241.7867,443.6667 C262.95,443.6667 289.5667,443.6667 311.8,443.6667 " fill="none" id="SeaBattleService-backto-ActionHistoryService" style="stroke:#181818;stroke-width:0.3333333333333333;"/><polygon fill="#181818" points="237.7867,443.6667,239.7867,445,241.7867,443.6667,239.7867,442.3333,237.7867,443.6667" style="stroke:#181818;stroke-width:0.3333333333333333;"/><text fill="#000000" font-family="sans-serif" font-size="4.3333" lengthAdjust="spacing" textLength="43.6667" x="257.8333" y="442.3556">actionHistoryService</text></g><!--reverse link SeaBattleService to GameService--><g id="link_SeaBattleService_GameService"><path codeLine="504" d="M219.5347,434.9963 C226.4714,425.5529 239.69,409.3733 257.5,399 C277.0267,387.6267 302.5067,381.8867 319.99,379.0967 " fill="none" id="SeaBattleService-backto-GameService" style="stroke:#181818;stroke-width:0.3333333333333333;"/><polygon fill="#181818" points="217.1667,438.22,219.4253,437.3975,219.5347,434.9963,217.2761,435.8188,217.1667,438.22" style="stroke:#181818;stroke-width:0.3333333333333333;"/><text fill="#000000" font-family="sans-serif" font-size="4.3333" lengthAdjust="spacing" textLength="28" x="265.6667" y="381.689">gameService</text></g><!--reverse link SeaBattleService to MatchService--><g id="link_SeaBattleService_MatchService"><path codeLine="505" d="M241.7261,438.6668 C265.5561,434.4734 297.4233,428.86 319.7633,424.9267 " fill="none" id="SeaBattleService-backto-MatchService" style="stroke:#181818;stroke-width:0.3333333333333333;"/><polygon fill="#181818" points="237.7867,439.36,239.9875,440.3265,241.7261,438.6668,239.5253,437.7002,237.7867,439.36" style="stroke:#181818;stroke-width:0.3333333333333333;"/><text fill="#000000" font-family="sans-serif" font-size="4.3333" lengthAdjust="spacing" textLength="29.3333" x="265" y="427.0223">matchService</text></g><!--reverse link SeaBattleService to NotificationService--><g id="link_SeaBattleService_NotificationService"><path codeLine="506" d="M224.8618,451.1495 C233.4952,456.6028 244.29,462.84 257.5,468 C275.88,475.18 297.57,480.4 314.12,483.7533 " fill="none" id="SeaBattleService-backto-NotificationService" style="stroke:#181818;stroke-width:0.3333333333333333;"/><polygon fill="#181818" points="221.48,449.0133,222.4589,451.2087,224.8618,451.1495,223.883,448.9541,221.48,449.0133" style="stroke:#181818;stroke-width:0.3333333333333333;"/><text fill="#000000" font-family="sans-serif" font-size="4.3333" lengthAdjust="spacing" textLength="39" x="260.1667" y="466.689">notificationService</text></g><!--reverse link SeaBattleService to PlayerService--><g id="link_SeaBattleService_PlayerService"><path codeLine="507" d="M225.2511,436.2251 C233.9344,430.9451 244.5233,425.0367 257.5,420 C278.17,411.9733 302.9467,406.1533 319.95,402.7033 " fill="none" id="SeaBattleService-backto-PlayerService" style="stroke:#181818;stroke-width:0.3333333333333333;"/><polygon fill="#181818" points="221.8333,438.3033,224.2349,438.4035,225.2511,436.2251,222.8495,436.125,221.8333,438.3033" style="stroke:#181818;stroke-width:0.3333333333333333;"/><text fill="#000000" font-family="sans-serif" font-size="4.3333" lengthAdjust="spacing" textLength="28.6667" x="265.3333" y="406.0223">playerService</text></g><!--reverse link SeaBattleService to ValidatorService--><g id="link_SeaBattleService_ValidatorService"><path codeLine="508" d="M241.6638,449.0958 C248.0872,450.3091 251.0867,450.8533 257.5,452 C277.56,455.59 300.4033,459.44 316.9867,462.1933 " fill="none" id="SeaBattleService-backto-ValidatorService" style="stroke:#181818;stroke-width:0.3333333333333333;"/><polygon fill="#181818" points="237.7333,448.3533,239.4511,450.0347,241.6638,449.0958,239.9461,447.4144,237.7333,448.3533" style="stroke:#181818;stroke-width:0.3333333333333333;"/><text fill="#000000" font-family="sans-serif" font-size="4.3333" lengthAdjust="spacing" textLength="34" x="262.6667" y="450.689">validatorService</text></g><!--SRC=[xHnhSzkuyNFrApZf5-TYiRrfF-bcRYhRiir63uyadzjBPpIm24k8AP97GexLNFhR3m-214cG0aZ9vrpw9R7ms5ti2xiBW1vym1OEh0YjrjXoKGIN60L-9ru23rhV_-LldKvdwO4ujgAjlRoFx1ZTmmW1tuuXiEy1nXwqPqdR388prj8FGmyj0OLaVUxywVC6udNWVh6ipp4chSilrhiDGBvrOe5e5LizwyFm8tW2jWVybJt34V9NFrXlIVjJWDpE5nqQmDAp-upsQnJZ8DgDG1Z2YA5_GD0ZsBkRm8LUqjwpWcXbivODQx57MQz4yhjb136y004XTWFmSarcrf310DeZDl3K2ZsmOxZsphZX8q-jPp8Q-PZyjKl-Ubi_tmL1Vk64Lfb-iZf2EXbb3cOVQavwRbO1C-SRa4SOWsp406sTkG8RAAbAMLExAuXl0Yg84-iJYE8r2WazJ5st67ds9AIeWSV89CFKG71m5I4t9Z1Mx7-YyX-6U_cm8iJPT28Zu0UY52YUVFAPIjq7WGU1pz1- -E38Z4-GNGRH90m37pBQs-2jny48EWm2RR4n2pkWYGCijE342X8EwnjjZFuBwMhqBPRHNxBKR4sQ5Yl0w5ag6rs1iP67CrcejcWvLu_WldsYT6GYtr-eToR4V0eYLsvRhe4FFSVDcVZjhNEXirPEkTB_XgBB08gUKFbmfTyrtdwCrgWbq6NWFw3LDcAnW2oZSxaZvthVoN8-URj7r0sec8LKs3Eut4O8xse84TCWuUKQup0X9MRp7oAYJaHz7WaY3Yb1OmFV3p17zGdUs_TRvBamYkrh0a9WjTxk0qQdYj6NoCE4PMiIC-NfYsBUbV6f28-2UM1ZxFDqk0na6nDnGWoG5yzWz8IMi1gOjD88sdIcosVQjoKeJIHp1-zdmV8HOXsXZ60SWnKyYu97vZ1vHmNb6pQOD14gDg6GL0x45Av8_9346opmbB16h1D6Cnnime7lXdJVejjv96PLipzcIr9eHmvO6Rqk0t4KU1wHBmrbpjEV1QwnBUxIWn0ped_PmXZhU0REE6YVPm2cV7R2F2MxE3fAK1jiTBusCgg1RP3H-Hh8Lf041-rOUIM3q4A9HV3O11kTgeU5R-gDiB2f1bX4RDySMGB102UCMw23cZnyAJMCYExGa8N4RCam0rGaoi4ssKu4YWIX4jD7ufoQ6_8_azaQIuhN0MwEQ9RCha94dIcu9mwM9AFMNg_ASifaD8sbv32KknktZqMCY159PducUPPxGJhcv9UUwrQct1AcTwWSXagzj5BW-1Yks7ukMdUvrfIvX2l0e_fF0z39_KUuvD9EiaXvw1h4wtF2Mnu6v3DQalObeJBhv7_hhpPDL_HNAQLMhtPPMSGkhwiobT1UUovXaTfBYSlhOecgXgClS9Q2rdEDvpNEmQpZpqlW3oZRADVmcgLCzPnxBKpcE_Q1hEdhPKEIllx-rlSAMGZzxMO_1-aeAB9qgbGpagDiunnB-yEXzEjyCheP3kO3cMNEU74pdLnD1xEPkdLnrtVcYylXO31VJ6vk9kF1UAunycuyc4h3PlF-TBwuwey6KYCTtt31YhKEfjE9Z7BolY7i-Iw4um2Z1_ayH42zcZeNiyNjpKL_BYzbr9-VNozK3EOzryviFfd-kzIUia3JR5WLzdnBFFI6fpCoRJ2AWkWghUawnQvH6dQMB2Jc_5GfyTVhOnYpocngKVMMgGEkUvSSBiZ737eWnKn5LFsLypjbLYu2H_7WEVI22BevkeH8wavfNWLh9FfFAkR746TZBDM2bJdKGPZE_7-cwLcTPGsNZ-94wOByMqaz6ta74EvxNb8eQS_I1-Ix0hkelj0IP5MnlbRuEMYt74eRS2JpDw7DmDjKO36aEObjMfXkeMJikFD04cs6QGH2OuqhcNXsJs1yEpeRJ1VpoO9joIcnDGCl9rUBkybOP-YrCzSPzjuP3dN6ZPpPJ6VSx7eocJlZgqL_EhaTN-XC-MdYbCPrdqijkx8qZ-hGfVvdvQnTrcgg5M9RaxTR3pt1kBXgbjOSR-5hLEs_KFmUULvbzq7ySSA72nWl8nGMWyZkCjZwkAG8QfRmiQf57efP3AzHF436mUW1BA5-iUyCnCL2tsV32fyAO4nSQmmpY8M8LnR0rv7x6NA1RVotZa4z8KXset55hiokKbHrAeiHQH27VCNKFmwlvPomJlEoSjWVa0cYQC-k4DLnOQNAGqaUS8smAWKWFI9EkaF-Aqj4ETNL6ufCUKrwm81O1HQe3rQog971j2guSvICOi_vp1vL5rrfa5lg-JRgl6KkLjfAhLKGUVlAd5auydp1v_KR2rlGeQo40xEAR3ggNLGTnPRsu9Bc-r_FtgWLuaKm3694JuloPqVJjBrmGrS4UqastnTnU1Qj30c4FLFETgF4xH31xqsZjG3UYECfROXDU9JSk3WkRvBAU78nT2RgkesF4ngJuFXv8bWIc8Ta2Fni9pR11NBxlilXah0ilJYfgggS7eSJYfAIYc0Q9hqcQfleBRUE8ohksMxCRv7ax_lMB66louxvbSQyNnAt9HNtxF9dtw_quSYUrnkC-tBdsIvpQVKyrONIg6XRyDbLrmNglO7IMLVRKJsiRUWgP7w0Ho_wjq25WjBOKDRBKa6H5L4NLuFnODgV3_ZvgYAuo2QCdB6pc3a_3ogBb5qlI6_TUWz__sWFWrKk6kz6mCypTKeQWatfn40-YfJVapW6DNC9HWa-ZPu9u0U6mAW8NsbVYX1f1TCZWETPMeMZywHVpGy1kbhmJyKXebIqgjWocv6HVo0rUHuYUXxKydLJ8BEs5DXIH5npcDrd0jcmB5RComUbT59sijgElBY9_1BabIILzUeqUuSv-PUKXfmUblnQL_iAQ9HGDA0wf_VxBB4ck4WT8V8H7cn2l2i_v7DK6Q9a83LJcpsLAw0YYRtZFm6FZY515LboFmgsFZyvlaHHZ7CIGl4G59ggX9c9ErE1TW9MoRJiHBkFx5IbyKs8qqEpM584-i837qg8HhixZyYhmqvnV__O3nWhNXCIuoCXLNhLlZveoWr-uKGpVH7GAAHLJMvoNu3UZqW0DGX2LK1v82gqeC5RJdELb8yn585dDtrtDOSRiZGCzTvdpSW_e-BKVBNETqNnyqH-jPc-v7HXZ94FSgTrDCJWvQrSdQjS2lHTUM4i2Qq262MbM9F72dM7Fytam3MenZSafdxaLx1LJrAvjVDs7TUGKcjiclcPJUoIGp2h8fICC2MZqHjSS_cddzweo_wgCxLqtmMUbxkjUcBXNGXDFN7fqgigQ3aIgbEhU8wq9pfZgQ53GZIMufpjaXTSc-mMNC_yujnfvRqitZCkM65j6QF8EKPnpiqNLskyUNEOoT8Bfss2l0PxoVzVe1xywL-NbQve1JW89vuhrA0-RlXMNh5s9IpDoZo5I5ZpYoilydYsAx08gLKw3PMFUTl0ZNqpBtSfQvFzlj66hQnLfJ50gvl0oc3gXLuPlzJRtwuVO7Pa7LVkG8t4eheJSDHNnjAIf6GidzosY2cCpv7gDAz0yFzO0OcGB6uWo0mg9aj6iUbF770GgHB49z79Y7m44GPsqaR3ktIkB4D1AIrrADAvRAqpoC_MEvr6Nz3uhjkrcYR1FSiljnwNZ58EqBFYGbF7z3bwj_kZfVsgksTP_nW1VpSF9ZxyZy-qzIWORwIlAULGSY_H0EUl-v5AtmFew7AarMB4dQmNmaQZd9T1nU_s7WnNVIMG607xmm3TOPKXOyCX8Sj-Nez1Ds87rT6hDk3tAL8BsFirnnnu6yMfU4UhXrZAEteyM-cOp7dp_Hih85l3cx_QzdTlBCCJafuuMz5TdnI8DCCiLffxFTOnethVLbXwKyQ469cYCP2VG0DzjzFgkOcviXhhQV6THrlxaCvgEWUfVPiJL2h_zLWLyL3a_Af3JurKEuTv2l5x4598SMox0GaoX4xhI-x7vKBj7RzzVgVgwzFKHjXdAe-5MEFIT2z_5IthwHXUA6kruUGVpoak9rq6qGZvwDKHDOMhhGUq99WxdzTH6Vahneax7MdhYn6scelZ2M8plSYVD-giDVTPNnExC4DLTzEubrIHp9PQIgkRgTn8hlqabTjv8DLQcv2YmtZf2-SzQvN-E0g-MbzMS4GQ9OdMTCYUWY_-9R3cB5E4II-0zo1rgDPKvErLsDnBO2uL6dlMKw6fqraZ5rgi-XZpltbPCUxy1W00]--></g></svg>