<?xml version="1.0" encoding="us-ascii" standalone="no"?><svg xmlns="http://www.w3.org/2000/svg" xmlns:xlink="http://www.w3.org/1999/xlink" contentStyleType="text/css" height="1150px" preserveAspectRatio="none" style="width:1288px;height:1150px;background:#FFFFFF;" version="1.1" viewBox="0 0 1288 1150" width="1288px" zoomAndPan="magnify"><defs/><g><!--cluster ru--><g id="cluster_ru"><path d="M8.5,6 L24.5,6 A3.75,3.75 0 0 1 27,8.5 L34,28.4883 L1278.5,28.4883 A2.5,2.5 0 0 1 1281,30.9883 L1281,1140.5 A2.5,2.5 0 0 1 1278.5,1143 L8.5,1143 A2.5,2.5 0 0 1 6,1140.5 L6,8.5 A2.5,2.5 0 0 1 8.5,6 " fill="none" style="stroke:#000000;stroke-width:1.5;"/><line style="stroke:#000000;stroke-width:1.5;" x1="6" x2="34" y1="28.4883" y2="28.4883"/><text fill="#000000" font-family="sans-serif" font-size="14" font-weight="bold" lengthAdjust="spacing" textLength="15" x="10" y="21.5352">ru</text></g><!--cluster onixred--><g id="cluster_onixred"><path d="M32.5,49 L87.5,49 A3.75,3.75 0 0 1 90,51.5 L97,71.4883 L1254.5,71.4883 A2.5,2.5 0 0 1 1257,73.9883 L1257,1116.5 A2.5,2.5 0 0 1 1254.5,1119 L32.5,1119 A2.5,2.5 0 0 1 30,1116.5 L30,51.5 A2.5,2.5 0 0 1 32.5,49 " fill="none" style="stroke:#000000;stroke-width:1.5;"/><line style="stroke:#000000;stroke-width:1.5;" x1="30" x2="97" y1="71.4883" y2="71.4883"/><text fill="#000000" font-family="sans-serif" font-size="14" font-weight="bold" lengthAdjust="spacing" textLength="54" x="34" y="64.5352">onixred</text></g><!--cluster siberian--><g id="cluster_siberian"><path d="M56.5,92 L115.5,92 A3.75,3.75 0 0 1 118,94.5 L125,114.4883 L1230.5,114.4883 A2.5,2.5 0 0 1 1233,116.9883 L1233,1092.5 A2.5,2.5 0 0 1 1230.5,1095 L56.5,1095 A2.5,2.5 0 0 1 54,1092.5 L54,94.5 A2.5,2.5 0 0 1 56.5,92 " fill="none" style="stroke:#000000;stroke-width:1.5;"/><line style="stroke:#000000;stroke-width:1.5;" x1="54" x2="125" y1="114.4883" y2="114.4883"/><text fill="#000000" font-family="sans-serif" font-size="14" font-weight="bold" lengthAdjust="spacing" textLength="58" x="58" y="107.5352">siberian</text></g><!--cluster sea--><g id="cluster_sea"><path d="M80.5,135 L105.5,135 A3.75,3.75 0 0 1 108,137.5 L115,157.4883 L1206.5,157.4883 A2.5,2.5 0 0 1 1209,159.9883 L1209,1068.5 A2.5,2.5 0 0 1 1206.5,1071 L80.5,1071 A2.5,2.5 0 0 1 78,1068.5 L78,137.5 A2.5,2.5 0 0 1 80.5,135 " fill="none" style="stroke:#000000;stroke-width:1.5;"/><line style="stroke:#000000;stroke-width:1.5;" x1="78" x2="115" y1="157.4883" y2="157.4883"/><text fill="#000000" font-family="sans-serif" font-size="14" font-weight="bold" lengthAdjust="spacing" textLength="24" x="82" y="150.5352">sea</text></g><!--cluster battle--><g id="cluster_battle"><path d="M104.5,178 L147.5,178 A3.75,3.75 0 0 1 150,180.5 L157,200.4883 L1182.5,200.4883 A2.5,2.5 0 0 1 1185,202.9883 L1185,1044.5 A2.5,2.5 0 0 1 1182.5,1047 L104.5,1047 A2.5,2.5 0 0 1 102,1044.5 L102,180.5 A2.5,2.5 0 0 1 104.5,178 " fill="none" style="stroke:#000000;stroke-width:1.5;"/><line style="stroke:#000000;stroke-width:1.5;" x1="102" x2="157" y1="200.4883" y2="200.4883"/><text fill="#000000" font-family="sans-serif" font-size="14" font-weight="bold" lengthAdjust="spacing" textLength="42" x="106" y="193.5352">battle</text></g><!--cluster layer--><g id="cluster_layer"><path d="M128.5,221 L164.5,221 A3.75,3.75 0 0 1 167,223.5 L174,243.4883 L1158.5,243.4883 A2.5,2.5 0 0 1 1161,245.9883 L1161,1020.5 A2.5,2.5 0 0 1 1158.5,1023 L128.5,1023 A2.5,2.5 0 0 1 126,1020.5 L126,223.5 A2.5,2.5 0 0 1 128.5,221 " fill="none" style="stroke:#000000;stroke-width:1.5;"/><line style="stroke:#000000;stroke-width:1.5;" x1="126" x2="174" y1="243.4883" y2="243.4883"/><text fill="#000000" font-family="sans-serif" font-size="14" font-weight="bold" lengthAdjust="spacing" textLength="35" x="130" y="236.5352">layer</text></g><!--cluster repository--><g id="cluster_repository"><path d="M152.5,685 L227.5,685 A3.75,3.75 0 0 1 230,687.5 L237,707.4883 L325.5,707.4883 A2.5,2.5 0 0 1 328,709.9883 L328,781.5 A2.5,2.5 0 0 1 325.5,784 L152.5,784 A2.5,2.5 0 0 1 150,781.5 L150,687.5 A2.5,2.5 0 0 1 152.5,685 " fill="none" style="stroke:#000000;stroke-width:1.5;"/><line style="stroke:#000000;stroke-width:1.5;" x1="150" x2="237" y1="707.4883" y2="707.4883"/><text fill="#000000" font-family="sans-serif" font-size="14" font-weight="bold" lengthAdjust="spacing" textLength="74" x="154" y="700.5352">repository</text></g><!--cluster controller--><g id="cluster_controller"><path d="M339.5,264 L410.5,264 A3.75,3.75 0 0 1 413,266.5 L420,286.4883 L506.5,286.4883 A2.5,2.5 0 0 1 509,288.9883 L509,360.5 A2.5,2.5 0 0 1 506.5,363 L339.5,363 A2.5,2.5 0 0 1 337,360.5 L337,266.5 A2.5,2.5 0 0 1 339.5,264 " fill="none" style="stroke:#000000;stroke-width:1.5;"/><line style="stroke:#000000;stroke-width:1.5;" x1="337" x2="420" y1="286.4883" y2="286.4883"/><text fill="#000000" font-family="sans-serif" font-size="14" font-weight="bold" lengthAdjust="spacing" textLength="70" x="341" y="279.5352">controller</text></g><!--cluster service--><g id="cluster_service"><path d="M281.5,412 L332.5,412 A3.75,3.75 0 0 1 335,414.5 L342,434.4883 L584.5,434.4883 A2.5,2.5 0 0 1 587,436.9883 L587,633.5 A2.5,2.5 0 0 1 584.5,636 L281.5,636 A2.5,2.5 0 0 1 279,633.5 L279,414.5 A2.5,2.5 0 0 1 281.5,412 " fill="none" style="stroke:#000000;stroke-width:1.5;"/><line style="stroke:#000000;stroke-width:1.5;" x1="279" x2="342" y1="434.4883" y2="434.4883"/><text fill="#000000" font-family="sans-serif" font-size="14" font-weight="bold" lengthAdjust="spacing" textLength="50" x="283" y="427.5352">service</text></g><!--cluster model--><g id="cluster_model"><path d="M382.5,833 L428.5,833 A3.75,3.75 0 0 1 431,835.5 L438,855.4883 L707.5,855.4883 A2.5,2.5 0 0 1 710,857.9883 L710,996.5 A2.5,2.5 0 0 1 707.5,999 L382.5,999 A2.5,2.5 0 0 1 380,996.5 L380,835.5 A2.5,2.5 0 0 1 382.5,833 " fill="none" style="stroke:#000000;stroke-width:1.5;"/><line style="stroke:#000000;stroke-width:1.5;" x1="380" x2="438" y1="855.4883" y2="855.4883"/><text fill="#000000" font-family="sans-serif" font-size="14" font-weight="bold" lengthAdjust="spacing" textLength="45" x="384" y="848.5352">model</text></g><!--cluster game--><g id="cluster_game"><path d="M406.5,876 L446.5,876 A3.75,3.75 0 0 1 449,878.5 L456,898.4883 L599.5,898.4883 A2.5,2.5 0 0 1 602,900.9883 L602,972.5 A2.5,2.5 0 0 1 599.5,975 L406.5,975 A2.5,2.5 0 0 1 404,972.5 L404,878.5 A2.5,2.5 0 0 1 406.5,876 " fill="none" style="stroke:#000000;stroke-width:1.5;"/><line style="stroke:#000000;stroke-width:1.5;" x1="404" x2="456" y1="898.4883" y2="898.4883"/><text fill="#000000" font-family="sans-serif" font-size="14" font-weight="bold" lengthAdjust="spacing" textLength="39" x="408" y="891.5352">game</text></g><!--cluster acl--><g id="cluster_acl"><path d="M581.5,685 L602.5,685 A3.75,3.75 0 0 1 605,687.5 L612,707.4883 L890.5,707.4883 A2.5,2.5 0 0 1 893,709.9883 L893,781.5 A2.5,2.5 0 0 1 890.5,784 L581.5,784 A2.5,2.5 0 0 1 579,781.5 L579,687.5 A2.5,2.5 0 0 1 581.5,685 " fill="none" style="stroke:#000000;stroke-width:1.5;"/><line style="stroke:#000000;stroke-width:1.5;" x1="579" x2="612" y1="707.4883" y2="707.4883"/><text fill="#000000" font-family="sans-serif" font-size="14" font-weight="bold" lengthAdjust="spacing" textLength="20" x="583" y="700.5352">acl</text></g><!--cluster dao--><g id="cluster_dao"><path d="M201.5,876 L228.5,876 A3.75,3.75 0 0 1 231,878.5 L238,898.4883 L328.5,898.4883 A2.5,2.5 0 0 1 331,900.9883 L331,972.5 A2.5,2.5 0 0 1 328.5,975 L201.5,975 A2.5,2.5 0 0 1 199,972.5 L199,878.5 A2.5,2.5 0 0 1 201.5,876 " fill="none" style="stroke:#000000;stroke-width:1.5;"/><line style="stroke:#000000;stroke-width:1.5;" x1="199" x2="238" y1="898.4883" y2="898.4883"/><text fill="#000000" font-family="sans-serif" font-size="14" font-weight="bold" lengthAdjust="spacing" textLength="26" x="203" y="891.5352">dao</text></g><!--class MatchRepository--><g id="elem_MatchRepository"><rect codeLine="537" fill="#F1F1F1" height="48" id="MatchRepository" rx="2.5" ry="2.5" style="stroke:#181818;stroke-width:0.5;" width="146" x="166" y="720"/><ellipse cx="181" cy="736" fill="#B4A7E5" rx="11" ry="11" style="stroke:#181818;stroke-width:1.0;"/><path d="M177.4277,732.2651 L177.4277,730.1069 L184.8071,730.1069 L184.8071,732.2651 L182.3418,732.2651 L182.3418,740.3418 L184.8071,740.3418 L184.8071,742.5 L177.4277,742.5 L177.4277,740.3418 L179.8931,740.3418 L179.8931,732.2651 Z " fill="#000000"/><text fill="#000000" font-family="sans-serif" font-size="14" font-style="italic" lengthAdjust="spacing" textLength="114" x="195" y="741.291">MatchRepository</text><line style="stroke:#181818;stroke-width:0.5;" x1="167" x2="311" y1="752" y2="752"/><line style="stroke:#181818;stroke-width:0.5;" x1="167" x2="311" y1="760" y2="760"/></g><!--class GameController--><g id="elem_GameController"><rect fill="#F1F1F1" height="48" id="GameController" rx="2.5" ry="2.5" style="stroke:#181818;stroke-width:0.5;" width="141" x="352.5" y="299"/><ellipse cx="367.5" cy="315" fill="#ADD1B2" rx="11" ry="11" style="stroke:#181818;stroke-width:1.0;"/><path d="M369.9731,321.1431 Q369.3921,321.4419 368.7529,321.5913 Q368.1138,321.7407 367.4082,321.7407 Q364.9014,321.7407 363.5815,320.0889 Q362.2617,318.437 362.2617,315.3159 Q362.2617,312.1865 363.5815,310.5347 Q364.9014,308.8828 367.4082,308.8828 Q368.1138,308.8828 368.7612,309.0322 Q369.4087,309.1816 369.9731,309.4805 L369.9731,312.2031 Q369.3423,311.6221 368.7488,311.3523 Q368.1553,311.0825 367.5244,311.0825 Q366.1797,311.0825 365.4949,312.1492 Q364.8101,313.2158 364.8101,315.3159 Q364.8101,317.4077 365.4949,318.4744 Q366.1797,319.541 367.5244,319.541 Q368.1553,319.541 368.7488,319.2712 Q369.3423,319.0015 369.9731,318.4204 Z " fill="#000000"/><text fill="#000000" font-family="sans-serif" font-size="14" lengthAdjust="spacing" textLength="109" x="381.5" y="320.291">GameController</text><line style="stroke:#181818;stroke-width:0.5;" x1="353.5" x2="492.5" y1="331" y2="331"/><line style="stroke:#181818;stroke-width:0.5;" x1="353.5" x2="492.5" y1="339" y2="339"/></g><!--class SeaBattleService--><g id="elem_SeaBattleService"><rect fill="#F1F1F1" height="48" id="SeaBattleService" rx="2.5" ry="2.5" style="stroke:#181818;stroke-width:0.5;" width="142" x="352" y="447"/><ellipse cx="367" cy="463" fill="#ADD1B2" rx="11" ry="11" style="stroke:#181818;stroke-width:1.0;"/><path d="M369.4731,469.1431 Q368.8921,469.4419 368.2529,469.5913 Q367.6138,469.7407 366.9082,469.7407 Q364.4014,469.7407 363.0815,468.0889 Q361.7617,466.437 361.7617,463.3159 Q361.7617,460.1865 363.0815,458.5347 Q364.4014,456.8828 366.9082,456.8828 Q367.6138,456.8828 368.2612,457.0322 Q368.9087,457.1816 369.4731,457.4805 L369.4731,460.2031 Q368.8423,459.6221 368.2488,459.3523 Q367.6553,459.0825 367.0244,459.0825 Q365.6797,459.0825 364.9949,460.1492 Q364.3101,461.2158 364.3101,463.3159 Q364.3101,465.4077 364.9949,466.4744 Q365.6797,467.541 367.0244,467.541 Q367.6553,467.541 368.2488,467.2712 Q368.8423,467.0015 369.4731,466.4204 Z " fill="#000000"/><text fill="#000000" font-family="sans-serif" font-size="14" lengthAdjust="spacing" textLength="110" x="381" y="468.291">SeaBattleService</text><line style="stroke:#181818;stroke-width:0.5;" x1="353" x2="493" y1="479" y2="479"/><line style="stroke:#181818;stroke-width:0.5;" x1="353" x2="493" y1="487" y2="487"/></g><!--class MatchService--><g id="elem_MatchService"><rect fill="#F1F1F1" height="48" id="MatchService" rx="2.5" ry="2.5" style="stroke:#181818;stroke-width:0.5;" width="121" x="295.5" y="572"/><ellipse cx="310.5" cy="588" fill="#ADD1B2" rx="11" ry="11" style="stroke:#181818;stroke-width:1.0;"/><path d="M312.9731,594.1431 Q312.3921,594.4419 311.7529,594.5913 Q311.1138,594.7407 310.4082,594.7407 Q307.9014,594.7407 306.5815,593.0889 Q305.2617,591.437 305.2617,588.3159 Q305.2617,585.1865 306.5815,583.5347 Q307.9014,581.8828 310.4082,581.8828 Q311.1138,581.8828 311.7612,582.0322 Q312.4087,582.1816 312.9731,582.4805 L312.9731,585.2031 Q312.3423,584.6221 311.7488,584.3523 Q311.1553,584.0825 310.5244,584.0825 Q309.1797,584.0825 308.4949,585.1492 Q307.8101,586.2158 307.8101,588.3159 Q307.8101,590.4077 308.4949,591.4744 Q309.1797,592.541 310.5244,592.541 Q311.1553,592.541 311.7488,592.2712 Q312.3423,592.0015 312.9731,591.4204 Z " fill="#000000"/><text fill="#000000" font-family="sans-serif" font-size="14" lengthAdjust="spacing" textLength="89" x="324.5" y="593.291">MatchService</text><line style="stroke:#181818;stroke-width:0.5;" x1="296.5" x2="415.5" y1="604" y2="604"/><line style="stroke:#181818;stroke-width:0.5;" x1="296.5" x2="415.5" y1="612" y2="612"/></g><!--class GameService--><g id="elem_GameService"><rect fill="#F1F1F1" height="48" id="GameService" rx="2.5" ry="2.5" style="stroke:#181818;stroke-width:0.5;" width="119" x="451.5" y="572"/><ellipse cx="466.5" cy="588" fill="#ADD1B2" rx="11" ry="11" style="stroke:#181818;stroke-width:1.0;"/><path d="M468.9731,594.1431 Q468.3921,594.4419 467.7529,594.5913 Q467.1138,594.7407 466.4082,594.7407 Q463.9014,594.7407 462.5815,593.0889 Q461.2617,591.437 461.2617,588.3159 Q461.2617,585.1865 462.5815,583.5347 Q463.9014,581.8828 466.4082,581.8828 Q467.1138,581.8828 467.7612,582.0322 Q468.4087,582.1816 468.9731,582.4805 L468.9731,585.2031 Q468.3423,584.6221 467.7488,584.3523 Q467.1553,584.0825 466.5244,584.0825 Q465.1797,584.0825 464.4949,585.1492 Q463.8101,586.2158 463.8101,588.3159 Q463.8101,590.4077 464.4949,591.4744 Q465.1797,592.541 466.5244,592.541 Q467.1553,592.541 467.7488,592.2712 Q468.3423,592.0015 468.9731,591.4204 Z " fill="#000000"/><text fill="#000000" font-family="sans-serif" font-size="14" lengthAdjust="spacing" textLength="87" x="480.5" y="593.291">GameService</text><line style="stroke:#181818;stroke-width:0.5;" x1="452.5" x2="569.5" y1="604" y2="604"/><line style="stroke:#181818;stroke-width:0.5;" x1="452.5" x2="569.5" y1="612" y2="612"/></g><!--class Match--><g id="elem_Match"><rect fill="#F1F1F1" height="48" id="Match" rx="2.5" ry="2.5" style="stroke:#181818;stroke-width:0.5;" width="73" x="620.5" y="911"/><ellipse cx="635.5" cy="927" fill="#ADD1B2" rx="11" ry="11" style="stroke:#181818;stroke-width:1.0;"/><path d="M637.9731,933.1431 Q637.3921,933.4419 636.7529,933.5913 Q636.1138,933.7407 635.4082,933.7407 Q632.9014,933.7407 631.5815,932.0889 Q630.2617,930.437 630.2617,927.3159 Q630.2617,924.1865 631.5815,922.5347 Q632.9014,920.8828 635.4082,920.8828 Q636.1138,920.8828 636.7612,921.0322 Q637.4087,921.1816 637.9731,921.4805 L637.9731,924.2031 Q637.3423,923.6221 636.7488,923.3523 Q636.1553,923.0825 635.5244,923.0825 Q634.1797,923.0825 633.4949,924.1492 Q632.8101,925.2158 632.8101,927.3159 Q632.8101,929.4077 633.4949,930.4744 Q634.1797,931.541 635.5244,931.541 Q636.1553,931.541 636.7488,931.2712 Q637.3423,931.0015 637.9731,930.4204 Z " fill="#000000"/><text fill="#000000" font-family="sans-serif" font-size="14" lengthAdjust="spacing" textLength="41" x="649.5" y="932.291">Match</text><line style="stroke:#181818;stroke-width:0.5;" x1="621.5" x2="692.5" y1="943" y2="943"/><line style="stroke:#181818;stroke-width:0.5;" x1="621.5" x2="692.5" y1="951" y2="951"/></g><!--class WarshipDescription--><g id="elem_WarshipDescription"><rect fill="#F1F1F1" height="48" id="WarshipDescription" rx="2.5" ry="2.5" style="stroke:#181818;stroke-width:0.5;" width="165" x="420.5" y="911"/><ellipse cx="435.5" cy="927" fill="#ADD1B2" rx="11" ry="11" style="stroke:#181818;stroke-width:1.0;"/><path d="M437.9731,933.1431 Q437.3921,933.4419 436.7529,933.5913 Q436.1138,933.7407 435.4082,933.7407 Q432.9014,933.7407 431.5815,932.0889 Q430.2617,930.437 430.2617,927.3159 Q430.2617,924.1865 431.5815,922.5347 Q432.9014,920.8828 435.4082,920.8828 Q436.1138,920.8828 436.7612,921.0322 Q437.4087,921.1816 437.9731,921.4805 L437.9731,924.2031 Q437.3423,923.6221 436.7488,923.3523 Q436.1553,923.0825 435.5244,923.0825 Q434.1797,923.0825 433.4949,924.1492 Q432.8101,925.2158 432.8101,927.3159 Q432.8101,929.4077 433.4949,930.4744 Q434.1797,931.541 435.5244,931.541 Q436.1553,931.541 436.7488,931.2712 Q437.3423,931.0015 437.9731,930.4204 Z " fill="#000000"/><text fill="#000000" font-family="sans-serif" font-size="14" lengthAdjust="spacing" textLength="133" x="449.5" y="932.291">WarshipDescription</text><line style="stroke:#181818;stroke-width:0.5;" x1="421.5" x2="584.5" y1="943" y2="943"/><line style="stroke:#181818;stroke-width:0.5;" x1="421.5" x2="584.5" y1="951" y2="951"/></g><!--class GameMapper--><g id="elem_GameMapper"><rect fill="#F1F1F1" height="48" id="GameMapper" rx="2.5" ry="2.5" style="stroke:#181818;stroke-width:0.5;" width="123" x="754.5" y="720"/><ellipse cx="769.5" cy="736" fill="#ADD1B2" rx="11" ry="11" style="stroke:#181818;stroke-width:1.0;"/><path d="M771.9731,742.1431 Q771.3921,742.4419 770.7529,742.5913 Q770.1138,742.7407 769.4082,742.7407 Q766.9014,742.7407 765.5815,741.0889 Q764.2617,739.437 764.2617,736.3159 Q764.2617,733.1865 765.5815,731.5347 Q766.9014,729.8828 769.4082,729.8828 Q770.1138,729.8828 770.7612,730.0322 Q771.4087,730.1816 771.9731,730.4805 L771.9731,733.2031 Q771.3423,732.6221 770.7488,732.3523 Q770.1553,732.0825 769.5244,732.0825 Q768.1797,732.0825 767.4949,733.1492 Q766.8101,734.2158 766.8101,736.3159 Q766.8101,738.4077 767.4949,739.4744 Q768.1797,740.541 769.5244,740.541 Q770.1553,740.541 770.7488,740.2712 Q771.3423,740.0015 771.9731,739.4204 Z " fill="#000000"/><text fill="#000000" font-family="sans-serif" font-size="14" lengthAdjust="spacing" textLength="91" x="783.5" y="741.291">GameMapper</text><line style="stroke:#181818;stroke-width:0.5;" x1="755.5" x2="876.5" y1="752" y2="752"/><line style="stroke:#181818;stroke-width:0.5;" x1="755.5" x2="876.5" y1="760" y2="760"/></g><!--class MatchMapper--><g id="elem_MatchMapper"><rect fill="#F1F1F1" height="48" id="MatchMapper" rx="2.5" ry="2.5" style="stroke:#181818;stroke-width:0.5;" width="125" x="594.5" y="720"/><ellipse cx="609.5" cy="736" fill="#ADD1B2" rx="11" ry="11" style="stroke:#181818;stroke-width:1.0;"/><path d="M611.9731,742.1431 Q611.3921,742.4419 610.7529,742.5913 Q610.1138,742.7407 609.4082,742.7407 Q606.9014,742.7407 605.5815,741.0889 Q604.2617,739.437 604.2617,736.3159 Q604.2617,733.1865 605.5815,731.5347 Q606.9014,729.8828 609.4082,729.8828 Q610.1138,729.8828 610.7612,730.0322 Q611.4087,730.1816 611.9731,730.4805 L611.9731,733.2031 Q611.3423,732.6221 610.7488,732.3523 Q610.1553,732.0825 609.5244,732.0825 Q608.1797,732.0825 607.4949,733.1492 Q606.8101,734.2158 606.8101,736.3159 Q606.8101,738.4077 607.4949,739.4744 Q608.1797,740.541 609.5244,740.541 Q610.1553,740.541 610.7488,740.2712 Q611.3423,740.0015 611.9731,739.4204 Z " fill="#000000"/><text fill="#000000" font-family="sans-serif" font-size="14" lengthAdjust="spacing" textLength="93" x="623.5" y="741.291">MatchMapper</text><line style="stroke:#181818;stroke-width:0.5;" x1="595.5" x2="718.5" y1="752" y2="752"/><line style="stroke:#181818;stroke-width:0.5;" x1="595.5" x2="718.5" y1="760" y2="760"/></g><!--class MatchDao--><g id="elem_MatchDao"><rect fill="#F1F1F1" height="48" id="MatchDao" rx="2.5" ry="2.5" style="stroke:#181818;stroke-width:0.5;" width="100" x="215" y="911"/><ellipse cx="230" cy="927" fill="#ADD1B2" rx="11" ry="11" style="stroke:#181818;stroke-width:1.0;"/><path d="M232.4731,933.1431 Q231.8921,933.4419 231.2529,933.5913 Q230.6138,933.7407 229.9082,933.7407 Q227.4014,933.7407 226.0815,932.0889 Q224.7617,930.437 224.7617,927.3159 Q224.7617,924.1865 226.0815,922.5347 Q227.4014,920.8828 229.9082,920.8828 Q230.6138,920.8828 231.2612,921.0322 Q231.9087,921.1816 232.4731,921.4805 L232.4731,924.2031 Q231.8423,923.6221 231.2488,923.3523 Q230.6553,923.0825 230.0244,923.0825 Q228.6797,923.0825 227.9949,924.1492 Q227.3101,925.2158 227.3101,927.3159 Q227.3101,929.4077 227.9949,930.4744 Q228.6797,931.541 230.0244,931.541 Q230.6553,931.541 231.2488,931.2712 Q231.8423,931.0015 232.4731,930.4204 Z " fill="#000000"/><text fill="#000000" font-family="sans-serif" font-size="14" lengthAdjust="spacing" textLength="68" x="244" y="932.291">MatchDao</text><line style="stroke:#181818;stroke-width:0.5;" x1="216" x2="314" y1="943" y2="943"/><line style="stroke:#181818;stroke-width:0.5;" x1="216" x2="314" y1="951" y2="951"/></g><!--reverse link GameController to SeaBattleService--><g id="link_GameController_SeaBattleService"><path codeLine="540" d="M423,359.46 C423,386.7 423,419.38 423,446.6 " fill="none" id="GameController-backto-SeaBattleService" style="stroke:#181818;stroke-width:1.0;"/><polygon fill="#181818" points="423,347.46,419,353.46,423,359.46,427,353.46,423,347.46" style="stroke:#181818;stroke-width:1.0;"/><text fill="#000000" font-family="sans-serif" font-size="13" lengthAdjust="spacing" textLength="100" x="424" y="392.5684">seaBattleService</text></g><!--reverse link SeaBattleService to MatchService--><g id="link_SeaBattleService_MatchService"><path codeLine="541" d="M375.8617,503.0378 C365.9717,511.1278 365.76,513.5 360,525 C352.81,539.37 351.97,557.53 352.84,571.75 " fill="none" id="SeaBattleService-backto-MatchService" style="stroke:#181818;stroke-width:1.0;"/><polygon fill="#181818" points="385.15,495.44,377.9732,496.1428,375.8617,503.0378,383.0384,502.335,385.15,495.44" style="stroke:#181818;stroke-width:1.0;"/><text fill="#000000" font-family="sans-serif" font-size="13" lengthAdjust="spacing" textLength="83" x="361" y="538.5684">matchService</text></g><!--reverse link SeaBattleService to GameService--><g id="link_SeaBattleService_GameService"><path codeLine="542" d="M446.742,505.1797 C462.402,527.0697 478.66,549.8 494.3,571.66 " fill="none" id="SeaBattleService-backto-GameService" style="stroke:#181818;stroke-width:1.0;"/><polygon fill="#181818" points="439.76,495.42,439.9978,502.6272,446.742,505.1797,446.5042,497.9725,439.76,495.42" style="stroke:#181818;stroke-width:1.0;"/><text fill="#000000" font-family="sans-serif" font-size="13" lengthAdjust="spacing" textLength="78" x="473.27" y="538.5684">gameService</text></g><!--reverse link GameService to WarshipDescription--><g id="link_GameService_WarshipDescription"><path codeLine="546" d="M488.4603,629.8075 C476.3903,646.0775 465.25,657.32 444,669 C426.97,678.36 413.42,662.05 401,677 C340.71,749.54 433.07,862.14 479.26,910.56 " fill="none" id="GameService-backto-WarshipDescription" style="stroke:#181818;stroke-width:1.0;"/><polygon fill="#181818" points="495.61,620.17,488.8227,622.6055,488.4603,629.8075,495.2477,627.372,495.61,620.17" style="stroke:#181818;stroke-width:1.0;"/><text fill="#000000" font-family="sans-serif" font-size="13" lengthAdjust="spacing" textLength="176" x="402" y="749.0684">warshipDescriptionsForMini</text></g><!--reverse link GameService to WarshipDescription--><g id="link_GameService_WarshipDescription"><path codeLine="547" d="M582.6422,601.0067 C680.2722,607.6667 855.16,626.08 893,677 C923.49,718.02 926.85,753.7 893,792 C863.05,825.89 736,812.44 691,817 C668.6,819.27 609.89,814.44 590,825 C554.29,843.96 528.15,884.57 514.29,910.51 " fill="none" id="GameService-backto-WarshipDescription-1" style="stroke:#181818;stroke-width:1.0;"/><polygon fill="#181818" points="570.67,600.19,576.3839,604.5891,582.6422,601.0067,576.9283,596.6076,570.67,600.19" style="stroke:#181818;stroke-width:1.0;"/><text fill="#000000" font-family="sans-serif" font-size="13" lengthAdjust="spacing" textLength="196" x="918.14" y="749.0684">warshipDescriptionsForRegular</text></g><!--reverse link GameService to GameMapper--><g id="link_GameService_GameMapper"><path codeLine="548" d="M582.1568,615.0411 C629.2268,628.2011 684.03,646.8 737,677 C757.49,688.68 777.86,705.87 792.78,719.77 " fill="none" id="GameService-backto-GameMapper" style="stroke:#181818;stroke-width:1.0;"/><polygon fill="#181818" points="570.6,611.81,575.3014,617.2778,582.1568,615.0411,577.4554,609.5733,570.6,611.81" style="stroke:#181818;stroke-width:1.0;"/><text fill="#000000" font-family="sans-serif" font-size="13" lengthAdjust="spacing" textLength="80" x="720.93" y="665.5684">gameMapper</text></g><!--reverse link MatchService to MatchRepository--><g id="link_MatchService_MatchRepository"><path codeLine="550" d="M283.3237,605.0669 C250.8737,611.5669 225.32,622.97 205,652 C190.49,672.72 204.66,700.4 218.88,719.77 " fill="none" id="MatchService-backto-MatchRepository" style="stroke:#181818;stroke-width:1.0;"/><polygon fill="#181818" points="295.09,602.71,288.4212,599.9663,283.3237,605.0669,289.9925,607.8105,295.09,602.71" style="stroke:#181818;stroke-width:1.0;"/><text fill="#000000" font-family="sans-serif" font-size="13" lengthAdjust="spacing" textLength="106" x="206" y="665.5684">matchRepository</text></g><!--reverse link MatchService to MatchMapper--><g id="link_MatchService_MatchMapper"><path codeLine="551" d="M399.9315,626.759 C413.2415,635.149 418.82,637.69 434,644 C476.31,661.57 489.48,658.2 534,669 C549.09,672.66 553.92,670.46 568,677 C591.38,687.85 614.67,705.43 631.56,719.71 " fill="none" id="MatchService-backto-MatchMapper" style="stroke:#181818;stroke-width:1.0;"/><polygon fill="#181818" points="389.78,620.36,392.7227,626.9433,399.9315,626.759,396.9887,620.1757,389.78,620.36" style="stroke:#181818;stroke-width:1.0;"/><text fill="#000000" font-family="sans-serif" font-size="13" lengthAdjust="spacing" textLength="85" x="535" y="665.5684">matchMapper</text></g><!--link MatchMapper to MatchDao--><g id="link_MatchMapper_MatchDao"><path codeLine="552" d="M618.67,768.34 C603.36,776.83 585.28,785.84 568,792 C497.96,816.95 471.53,793.88 404,825 C358.04,846.18 313.58,885.34 287.78,910.5 " fill="none" id="MatchMapper-MatchDao" style="stroke:#181818;stroke-width:1.0;"/><text fill="#000000" font-family="sans-serif" font-size="13" lengthAdjust="spacing" textLength="24" x="538.38" y="813.5684">link</text></g><!--link MatchMapper to Match--><g id="link_MatchMapper_Match"><path codeLine="553" d="M657,768.18 C657,804.45 657,874.24 657,910.64 " fill="none" id="MatchMapper-Match" style="stroke:#181818;stroke-width:1.0;"/><text fill="#000000" font-family="sans-serif" font-size="13" lengthAdjust="spacing" textLength="24" x="658" y="813.5684">link</text></g><!--link MatchRepository to MatchDao--><g id="link_MatchRepository_MatchDao"><path codeLine="554" d="M242.19,768.18 C247.18,804.45 256.78,874.24 261.79,910.64 " fill="none" id="MatchRepository-MatchDao" style="stroke:#181818;stroke-width:1.0;"/><text fill="#000000" font-family="sans-serif" font-size="13" lengthAdjust="spacing" textLength="24" x="249.15" y="813.5684">link</text></g><!--SRC=[pPF1JiCm38RlUOgSaPO7s14cEFMo7JXxgTaiqYHoCc12l3jjCZK3f2aTekBM_vT- -wlja8t8Jw1Hya4vIs-ChGgqHIQmAY2eBSHeK1au8Yj6xm95nqVLGDJxzQZbk_WGegg8TZQoCwR_V80ExqOfRnOBMGSIa5z8ezeWt2P_amsvbE6R9NvNS3fJcapXwSxax2p3W0lAhYWXXBYwKZr7vreqQkYh7e73dlmAWsRoaPpjYLv_cE7USKEM_Y_T6dS70pm786YJaWrutx-FlC4i9gxlor7M0rnuyAVBBiuiGCD4KdGSILUKkAf4txigruBBkHMufJHad_-sNxxEb9pIxiBAggTy_glorFmJ]--></g></svg>