<?xml version="1.0" encoding="us-ascii" standalone="no"?><svg xmlns="http://www.w3.org/2000/svg" xmlns:xlink="http://www.w3.org/1999/xlink" contentStyleType="text/css" height="1083px" preserveAspectRatio="none" style="width:1242px;height:1083px;background:#FFFFFF;" version="1.1" viewBox="0 0 1242 1083" width="1242px" zoomAndPan="magnify"><defs/><g><!--cluster ru--><g id="cluster_ru"><path d="M8.5,6 L26.5,6 A3.75,3.75 0 0 1 29,8.5 L36,28.2969 L1232.5,28.2969 A2.5,2.5 0 0 1 1235,30.7969 L1235,1073.5 A2.5,2.5 0 0 1 1232.5,1076 L8.5,1076 A2.5,2.5 0 0 1 6,1073.5 L6,8.5 A2.5,2.5 0 0 1 8.5,6 " fill="none" style="stroke:#000000;stroke-width:1.5;"/><line style="stroke:#000000;stroke-width:1.5;" x1="6" x2="36" y1="28.2969" y2="28.2969"/><text fill="#000000" font-family="sans-serif" font-size="14" font-weight="bold" lengthAdjust="spacing" textLength="17" x="10" y="20.9951">ru</text></g><!--cluster cbr--><g id="cluster_cbr"><path d="M32.5,49 L59.5,49 A3.75,3.75 0 0 1 62,51.5 L69,71.2969 L1208.5,71.2969 A2.5,2.5 0 0 1 1211,73.7969 L1211,1049.5 A2.5,2.5 0 0 1 1208.5,1052 L32.5,1052 A2.5,2.5 0 0 1 30,1049.5 L30,51.5 A2.5,2.5 0 0 1 32.5,49 " fill="none" style="stroke:#000000;stroke-width:1.5;"/><line style="stroke:#000000;stroke-width:1.5;" x1="30" x2="69" y1="71.2969" y2="71.2969"/><text fill="#000000" font-family="sans-serif" font-size="14" font-weight="bold" lengthAdjust="spacing" textLength="26" x="34" y="63.9951">cbr</text></g><!--cluster siberian--><g id="cluster_siberian"><path d="M56.5,92 L120.5,92 A3.75,3.75 0 0 1 123,94.5 L130,114.2969 L1184.5,114.2969 A2.5,2.5 0 0 1 1187,116.7969 L1187,1025.5 A2.5,2.5 0 0 1 1184.5,1028 L56.5,1028 A2.5,2.5 0 0 1 54,1025.5 L54,94.5 A2.5,2.5 0 0 1 56.5,92 " fill="none" style="stroke:#000000;stroke-width:1.5;"/><line style="stroke:#000000;stroke-width:1.5;" x1="54" x2="130" y1="114.2969" y2="114.2969"/><text fill="#000000" font-family="sans-serif" font-size="14" font-weight="bold" lengthAdjust="spacing" textLength="63" x="58" y="106.9951">siberian</text></g><!--cluster sea--><g id="cluster_sea"><path d="M80.5,135 L109.5,135 A3.75,3.75 0 0 1 112,137.5 L119,157.2969 L1160.5,157.2969 A2.5,2.5 0 0 1 1163,159.7969 L1163,1001.5 A2.5,2.5 0 0 1 1160.5,1004 L80.5,1004 A2.5,2.5 0 0 1 78,1001.5 L78,137.5 A2.5,2.5 0 0 1 80.5,135 " fill="none" style="stroke:#000000;stroke-width:1.5;"/><line style="stroke:#000000;stroke-width:1.5;" x1="78" x2="119" y1="157.2969" y2="157.2969"/><text fill="#000000" font-family="sans-serif" font-size="14" font-weight="bold" lengthAdjust="spacing" textLength="28" x="82" y="149.9951">sea</text></g><!--cluster battle--><g id="cluster_battle"><path d="M104.5,178 L150.5,178 A3.75,3.75 0 0 1 153,180.5 L160,200.2969 L1136.5,200.2969 A2.5,2.5 0 0 1 1139,202.7969 L1139,977.5 A2.5,2.5 0 0 1 1136.5,980 L104.5,980 A2.5,2.5 0 0 1 102,977.5 L102,180.5 A2.5,2.5 0 0 1 104.5,178 " fill="none" style="stroke:#000000;stroke-width:1.5;"/><line style="stroke:#000000;stroke-width:1.5;" x1="102" x2="160" y1="200.2969" y2="200.2969"/><text fill="#000000" font-family="sans-serif" font-size="14" font-weight="bold" lengthAdjust="spacing" textLength="45" x="106" y="192.9951">battle</text></g><!--cluster repository--><g id="cluster_repository"><path d="M128.5,642 L211.5,642 A3.75,3.75 0 0 1 214,644.5 L221,664.2969 L303.5,664.2969 A2.5,2.5 0 0 1 306,666.7969 L306,738.5 A2.5,2.5 0 0 1 303.5,741 L128.5,741 A2.5,2.5 0 0 1 126,738.5 L126,644.5 A2.5,2.5 0 0 1 128.5,642 " fill="none" style="stroke:#000000;stroke-width:1.5;"/><line style="stroke:#000000;stroke-width:1.5;" x1="126" x2="221" y1="664.2969" y2="664.2969"/><text fill="#000000" font-family="sans-serif" font-size="14" font-weight="bold" lengthAdjust="spacing" textLength="82" x="130" y="656.9951">repository</text></g><!--cluster controller--><g id="cluster_controller"><path d="M321.5,221 L399.5,221 A3.75,3.75 0 0 1 402,223.5 L409,243.2969 L488.5,243.2969 A2.5,2.5 0 0 1 491,245.7969 L491,317.5 A2.5,2.5 0 0 1 488.5,320 L321.5,320 A2.5,2.5 0 0 1 319,317.5 L319,223.5 A2.5,2.5 0 0 1 321.5,221 " fill="none" style="stroke:#000000;stroke-width:1.5;"/><line style="stroke:#000000;stroke-width:1.5;" x1="319" x2="409" y1="243.2969" y2="243.2969"/><text fill="#000000" font-family="sans-serif" font-size="14" font-weight="bold" lengthAdjust="spacing" textLength="77" x="323" y="235.9951">controller</text></g><!--cluster service--><g id="cluster_service"><path d="M258.5,369 L317.5,369 A3.75,3.75 0 0 1 320,371.5 L327,391.2969 L568.5,391.2969 A2.5,2.5 0 0 1 571,393.7969 L571,590.5 A2.5,2.5 0 0 1 568.5,593 L258.5,593 A2.5,2.5 0 0 1 256,590.5 L256,371.5 A2.5,2.5 0 0 1 258.5,369 " fill="none" style="stroke:#000000;stroke-width:1.5;"/><line style="stroke:#000000;stroke-width:1.5;" x1="256" x2="327" y1="391.2969" y2="391.2969"/><text fill="#000000" font-family="sans-serif" font-size="14" font-weight="bold" lengthAdjust="spacing" textLength="58" x="260" y="383.9951">service</text></g><!--cluster model--><g id="cluster_model"><path d="M356.5,790 L405.5,790 A3.75,3.75 0 0 1 408,792.5 L415,812.2969 L682.5,812.2969 A2.5,2.5 0 0 1 685,814.7969 L685,953.5 A2.5,2.5 0 0 1 682.5,956 L356.5,956 A2.5,2.5 0 0 1 354,953.5 L354,792.5 A2.5,2.5 0 0 1 356.5,790 " fill="none" style="stroke:#000000;stroke-width:1.5;"/><line style="stroke:#000000;stroke-width:1.5;" x1="354" x2="415" y1="812.2969" y2="812.2969"/><text fill="#000000" font-family="sans-serif" font-size="14" font-weight="bold" lengthAdjust="spacing" textLength="48" x="358" y="804.9951">model</text></g><!--cluster game--><g id="cluster_game"><path d="M380.5,833 L424.5,833 A3.75,3.75 0 0 1 427,835.5 L434,855.2969 L573.5,855.2969 A2.5,2.5 0 0 1 576,857.7969 L576,929.5 A2.5,2.5 0 0 1 573.5,932 L380.5,932 A2.5,2.5 0 0 1 378,929.5 L378,835.5 A2.5,2.5 0 0 1 380.5,833 " fill="none" style="stroke:#000000;stroke-width:1.5;"/><line style="stroke:#000000;stroke-width:1.5;" x1="378" x2="434" y1="855.2969" y2="855.2969"/><text fill="#000000" font-family="sans-serif" font-size="14" font-weight="bold" lengthAdjust="spacing" textLength="43" x="382" y="847.9951">game</text></g><!--cluster acl--><g id="cluster_acl"><path d="M555.5,642 L578.5,642 A3.75,3.75 0 0 1 581,644.5 L588,664.2969 L869.5,664.2969 A2.5,2.5 0 0 1 872,666.7969 L872,738.5 A2.5,2.5 0 0 1 869.5,741 L555.5,741 A2.5,2.5 0 0 1 553,738.5 L553,644.5 A2.5,2.5 0 0 1 555.5,642 " fill="none" style="stroke:#000000;stroke-width:1.5;"/><line style="stroke:#000000;stroke-width:1.5;" x1="553" x2="588" y1="664.2969" y2="664.2969"/><text fill="#000000" font-family="sans-serif" font-size="14" font-weight="bold" lengthAdjust="spacing" textLength="22" x="557" y="656.9951">acl</text></g><!--cluster dao--><g id="cluster_dao"><path d="M175.5,833 L205.5,833 A3.75,3.75 0 0 1 208,835.5 L215,855.2969 L304.5,855.2969 A2.5,2.5 0 0 1 307,857.7969 L307,929.5 A2.5,2.5 0 0 1 304.5,932 L175.5,932 A2.5,2.5 0 0 1 173,929.5 L173,835.5 A2.5,2.5 0 0 1 175.5,833 " fill="none" style="stroke:#000000;stroke-width:1.5;"/><line style="stroke:#000000;stroke-width:1.5;" x1="173" x2="215" y1="855.2969" y2="855.2969"/><text fill="#000000" font-family="sans-serif" font-size="14" font-weight="bold" lengthAdjust="spacing" textLength="29" x="177" y="847.9951">dao</text></g><!--class MatchRepository--><g id="elem_MatchRepository"><rect codeLine="537" fill="#F1F1F1" height="48" id="MatchRepository" rx="2.5" ry="2.5" style="stroke:#181818;stroke-width:0.5;" width="148" x="142" y="677"/><ellipse cx="157" cy="693" fill="#B4A7E5" rx="11" ry="11" style="stroke:#181818;stroke-width:1.0;"/><path d="M152.9219,688.7656 L152.9219,686.6094 L160.3125,686.6094 L160.3125,688.7656 L157.8438,688.7656 L157.8438,696.8438 L160.3125,696.8438 L160.3125,699 L152.9219,699 L152.9219,696.8438 L155.3906,696.8438 L155.3906,688.7656 L152.9219,688.7656 Z " fill="#000000"/><text fill="#000000" font-family="sans-serif" font-size="14" font-style="italic" lengthAdjust="spacing" textLength="116" x="171" y="697.8467">MatchRepository</text><line style="stroke:#181818;stroke-width:0.5;" x1="143" x2="289" y1="709" y2="709"/><line style="stroke:#181818;stroke-width:0.5;" x1="143" x2="289" y1="717" y2="717"/></g><!--class GameController--><g id="elem_GameController"><rect fill="#F1F1F1" height="48" id="GameController" rx="2.5" ry="2.5" style="stroke:#181818;stroke-width:0.5;" width="140" x="335" y="256"/><ellipse cx="350" cy="272" fill="#ADD1B2" rx="11" ry="11" style="stroke:#181818;stroke-width:1.0;"/><path d="M352.9688,277.6406 Q352.3906,277.9375 351.75,278.0781 Q351.1094,278.2344 350.4063,278.2344 Q347.9063,278.2344 346.5781,276.5938 Q345.2656,274.9375 345.2656,271.8125 Q345.2656,268.6875 346.5781,267.0313 Q347.9063,265.375 350.4063,265.375 Q351.1094,265.375 351.75,265.5313 Q352.4063,265.6875 352.9688,265.9844 L352.9688,268.7031 Q352.3438,268.125 351.75,267.8594 Q351.1563,267.5781 350.5313,267.5781 Q349.1875,267.5781 348.5,268.6563 Q347.8125,269.7188 347.8125,271.8125 Q347.8125,273.9063 348.5,274.9844 Q349.1875,276.0469 350.5313,276.0469 Q351.1563,276.0469 351.75,275.7813 Q352.3438,275.5 352.9688,274.9219 L352.9688,277.6406 Z " fill="#000000"/><text fill="#000000" font-family="sans-serif" font-size="14" lengthAdjust="spacing" textLength="108" x="364" y="276.8467">GameController</text><line style="stroke:#181818;stroke-width:0.5;" x1="336" x2="474" y1="288" y2="288"/><line style="stroke:#181818;stroke-width:0.5;" x1="336" x2="474" y1="296" y2="296"/></g><!--class SeaBattleService--><g id="elem_SeaBattleService"><rect fill="#F1F1F1" height="48" id="SeaBattleService" rx="2.5" ry="2.5" style="stroke:#181818;stroke-width:0.5;" width="148" x="331" y="404"/><ellipse cx="346" cy="420" fill="#ADD1B2" rx="11" ry="11" style="stroke:#181818;stroke-width:1.0;"/><path d="M348.9688,425.6406 Q348.3906,425.9375 347.75,426.0781 Q347.1094,426.2344 346.4063,426.2344 Q343.9063,426.2344 342.5781,424.5938 Q341.2656,422.9375 341.2656,419.8125 Q341.2656,416.6875 342.5781,415.0313 Q343.9063,413.375 346.4063,413.375 Q347.1094,413.375 347.75,413.5313 Q348.4063,413.6875 348.9688,413.9844 L348.9688,416.7031 Q348.3438,416.125 347.75,415.8594 Q347.1563,415.5781 346.5313,415.5781 Q345.1875,415.5781 344.5,416.6563 Q343.8125,417.7188 343.8125,419.8125 Q343.8125,421.9063 344.5,422.9844 Q345.1875,424.0469 346.5313,424.0469 Q347.1563,424.0469 347.75,423.7813 Q348.3438,423.5 348.9688,422.9219 L348.9688,425.6406 Z " fill="#000000"/><text fill="#000000" font-family="sans-serif" font-size="14" lengthAdjust="spacing" textLength="116" x="360" y="424.8467">SeaBattleService</text><line style="stroke:#181818;stroke-width:0.5;" x1="332" x2="478" y1="436" y2="436"/><line style="stroke:#181818;stroke-width:0.5;" x1="332" x2="478" y1="444" y2="444"/></g><!--class MatchService--><g id="elem_MatchService"><rect fill="#F1F1F1" height="48" id="MatchService" rx="2.5" ry="2.5" style="stroke:#181818;stroke-width:0.5;" width="124" x="272" y="529"/><ellipse cx="287" cy="545" fill="#ADD1B2" rx="11" ry="11" style="stroke:#181818;stroke-width:1.0;"/><path d="M289.9688,550.6406 Q289.3906,550.9375 288.75,551.0781 Q288.1094,551.2344 287.4063,551.2344 Q284.9063,551.2344 283.5781,549.5938 Q282.2656,547.9375 282.2656,544.8125 Q282.2656,541.6875 283.5781,540.0313 Q284.9063,538.375 287.4063,538.375 Q288.1094,538.375 288.75,538.5313 Q289.4063,538.6875 289.9688,538.9844 L289.9688,541.7031 Q289.3438,541.125 288.75,540.8594 Q288.1563,540.5781 287.5313,540.5781 Q286.1875,540.5781 285.5,541.6563 Q284.8125,542.7188 284.8125,544.8125 Q284.8125,546.9063 285.5,547.9844 Q286.1875,549.0469 287.5313,549.0469 Q288.1563,549.0469 288.75,548.7813 Q289.3438,548.5 289.9688,547.9219 L289.9688,550.6406 Z " fill="#000000"/><text fill="#000000" font-family="sans-serif" font-size="14" lengthAdjust="spacing" textLength="92" x="301" y="549.8467">MatchService</text><line style="stroke:#181818;stroke-width:0.5;" x1="273" x2="395" y1="561" y2="561"/><line style="stroke:#181818;stroke-width:0.5;" x1="273" x2="395" y1="569" y2="569"/></g><!--class GameService--><g id="elem_GameService"><rect fill="#F1F1F1" height="48" id="GameService" rx="2.5" ry="2.5" style="stroke:#181818;stroke-width:0.5;" width="123" x="431.5" y="529"/><ellipse cx="446.5" cy="545" fill="#ADD1B2" rx="11" ry="11" style="stroke:#181818;stroke-width:1.0;"/><path d="M449.4688,550.6406 Q448.8906,550.9375 448.25,551.0781 Q447.6094,551.2344 446.9063,551.2344 Q444.4063,551.2344 443.0781,549.5938 Q441.7656,547.9375 441.7656,544.8125 Q441.7656,541.6875 443.0781,540.0313 Q444.4063,538.375 446.9063,538.375 Q447.6094,538.375 448.25,538.5313 Q448.9063,538.6875 449.4688,538.9844 L449.4688,541.7031 Q448.8438,541.125 448.25,540.8594 Q447.6563,540.5781 447.0313,540.5781 Q445.6875,540.5781 445,541.6563 Q444.3125,542.7188 444.3125,544.8125 Q444.3125,546.9063 445,547.9844 Q445.6875,549.0469 447.0313,549.0469 Q447.6563,549.0469 448.25,548.7813 Q448.8438,548.5 449.4688,547.9219 L449.4688,550.6406 Z " fill="#000000"/><text fill="#000000" font-family="sans-serif" font-size="14" lengthAdjust="spacing" textLength="91" x="460.5" y="549.8467">GameService</text><line style="stroke:#181818;stroke-width:0.5;" x1="432.5" x2="553.5" y1="561" y2="561"/><line style="stroke:#181818;stroke-width:0.5;" x1="432.5" x2="553.5" y1="569" y2="569"/></g><!--class Match--><g id="elem_Match"><rect fill="#F1F1F1" height="48" id="Match" rx="2.5" ry="2.5" style="stroke:#181818;stroke-width:0.5;" width="74" x="595" y="868"/><ellipse cx="610" cy="884" fill="#ADD1B2" rx="11" ry="11" style="stroke:#181818;stroke-width:1.0;"/><path d="M612.9688,889.6406 Q612.3906,889.9375 611.75,890.0781 Q611.1094,890.2344 610.4063,890.2344 Q607.9063,890.2344 606.5781,888.5938 Q605.2656,886.9375 605.2656,883.8125 Q605.2656,880.6875 606.5781,879.0313 Q607.9063,877.375 610.4063,877.375 Q611.1094,877.375 611.75,877.5313 Q612.4063,877.6875 612.9688,877.9844 L612.9688,880.7031 Q612.3438,880.125 611.75,879.8594 Q611.1563,879.5781 610.5313,879.5781 Q609.1875,879.5781 608.5,880.6563 Q607.8125,881.7188 607.8125,883.8125 Q607.8125,885.9063 608.5,886.9844 Q609.1875,888.0469 610.5313,888.0469 Q611.1563,888.0469 611.75,887.7813 Q612.3438,887.5 612.9688,886.9219 L612.9688,889.6406 Z " fill="#000000"/><text fill="#000000" font-family="sans-serif" font-size="14" lengthAdjust="spacing" textLength="42" x="624" y="888.8467">Match</text><line style="stroke:#181818;stroke-width:0.5;" x1="596" x2="668" y1="900" y2="900"/><line style="stroke:#181818;stroke-width:0.5;" x1="596" x2="668" y1="908" y2="908"/></g><!--class WarshipDescription--><g id="elem_WarshipDescription"><rect fill="#F1F1F1" height="48" id="WarshipDescription" rx="2.5" ry="2.5" style="stroke:#181818;stroke-width:0.5;" width="166" x="394" y="868"/><ellipse cx="409" cy="884" fill="#ADD1B2" rx="11" ry="11" style="stroke:#181818;stroke-width:1.0;"/><path d="M411.9688,889.6406 Q411.3906,889.9375 410.75,890.0781 Q410.1094,890.2344 409.4063,890.2344 Q406.9063,890.2344 405.5781,888.5938 Q404.2656,886.9375 404.2656,883.8125 Q404.2656,880.6875 405.5781,879.0313 Q406.9063,877.375 409.4063,877.375 Q410.1094,877.375 410.75,877.5313 Q411.4063,877.6875 411.9688,877.9844 L411.9688,880.7031 Q411.3438,880.125 410.75,879.8594 Q410.1563,879.5781 409.5313,879.5781 Q408.1875,879.5781 407.5,880.6563 Q406.8125,881.7188 406.8125,883.8125 Q406.8125,885.9063 407.5,886.9844 Q408.1875,888.0469 409.5313,888.0469 Q410.1563,888.0469 410.75,887.7813 Q411.3438,887.5 411.9688,886.9219 L411.9688,889.6406 Z " fill="#000000"/><text fill="#000000" font-family="sans-serif" font-size="14" lengthAdjust="spacing" textLength="134" x="423" y="888.8467">WarshipDescription</text><line style="stroke:#181818;stroke-width:0.5;" x1="395" x2="559" y1="900" y2="900"/><line style="stroke:#181818;stroke-width:0.5;" x1="395" x2="559" y1="908" y2="908"/></g><!--class GameMapper--><g id="elem_GameMapper"><rect fill="#F1F1F1" height="48" id="GameMapper" rx="2.5" ry="2.5" style="stroke:#181818;stroke-width:0.5;" width="125" x="730.5" y="677"/><ellipse cx="745.5" cy="693" fill="#ADD1B2" rx="11" ry="11" style="stroke:#181818;stroke-width:1.0;"/><path d="M748.4688,698.6406 Q747.8906,698.9375 747.25,699.0781 Q746.6094,699.2344 745.9063,699.2344 Q743.4063,699.2344 742.0781,697.5938 Q740.7656,695.9375 740.7656,692.8125 Q740.7656,689.6875 742.0781,688.0313 Q743.4063,686.375 745.9063,686.375 Q746.6094,686.375 747.25,686.5313 Q747.9063,686.6875 748.4688,686.9844 L748.4688,689.7031 Q747.8438,689.125 747.25,688.8594 Q746.6563,688.5781 746.0313,688.5781 Q744.6875,688.5781 744,689.6563 Q743.3125,690.7188 743.3125,692.8125 Q743.3125,694.9063 744,695.9844 Q744.6875,697.0469 746.0313,697.0469 Q746.6563,697.0469 747.25,696.7813 Q747.8438,696.5 748.4688,695.9219 L748.4688,698.6406 Z " fill="#000000"/><text fill="#000000" font-family="sans-serif" font-size="14" lengthAdjust="spacing" textLength="93" x="759.5" y="697.8467">GameMapper</text><line style="stroke:#181818;stroke-width:0.5;" x1="731.5" x2="854.5" y1="709" y2="709"/><line style="stroke:#181818;stroke-width:0.5;" x1="731.5" x2="854.5" y1="717" y2="717"/></g><!--class MatchMapper--><g id="elem_MatchMapper"><rect fill="#F1F1F1" height="48" id="MatchMapper" rx="2.5" ry="2.5" style="stroke:#181818;stroke-width:0.5;" width="126" x="569" y="677"/><ellipse cx="584" cy="693" fill="#ADD1B2" rx="11" ry="11" style="stroke:#181818;stroke-width:1.0;"/><path d="M586.9688,698.6406 Q586.3906,698.9375 585.75,699.0781 Q585.1094,699.2344 584.4063,699.2344 Q581.9063,699.2344 580.5781,697.5938 Q579.2656,695.9375 579.2656,692.8125 Q579.2656,689.6875 580.5781,688.0313 Q581.9063,686.375 584.4063,686.375 Q585.1094,686.375 585.75,686.5313 Q586.4063,686.6875 586.9688,686.9844 L586.9688,689.7031 Q586.3438,689.125 585.75,688.8594 Q585.1563,688.5781 584.5313,688.5781 Q583.1875,688.5781 582.5,689.6563 Q581.8125,690.7188 581.8125,692.8125 Q581.8125,694.9063 582.5,695.9844 Q583.1875,697.0469 584.5313,697.0469 Q585.1563,697.0469 585.75,696.7813 Q586.3438,696.5 586.9688,695.9219 L586.9688,698.6406 Z " fill="#000000"/><text fill="#000000" font-family="sans-serif" font-size="14" lengthAdjust="spacing" textLength="94" x="598" y="697.8467">MatchMapper</text><line style="stroke:#181818;stroke-width:0.5;" x1="570" x2="694" y1="709" y2="709"/><line style="stroke:#181818;stroke-width:0.5;" x1="570" x2="694" y1="717" y2="717"/></g><!--class MatchDao--><g id="elem_MatchDao"><rect fill="#F1F1F1" height="48" id="MatchDao" rx="2.5" ry="2.5" style="stroke:#181818;stroke-width:0.5;" width="102" x="189" y="868"/><ellipse cx="204" cy="884" fill="#ADD1B2" rx="11" ry="11" style="stroke:#181818;stroke-width:1.0;"/><path d="M206.9688,889.6406 Q206.3906,889.9375 205.75,890.0781 Q205.1094,890.2344 204.4063,890.2344 Q201.9063,890.2344 200.5781,888.5938 Q199.2656,886.9375 199.2656,883.8125 Q199.2656,880.6875 200.5781,879.0313 Q201.9063,877.375 204.4063,877.375 Q205.1094,877.375 205.75,877.5313 Q206.4063,877.6875 206.9688,877.9844 L206.9688,880.7031 Q206.3438,880.125 205.75,879.8594 Q205.1563,879.5781 204.5313,879.5781 Q203.1875,879.5781 202.5,880.6563 Q201.8125,881.7188 201.8125,883.8125 Q201.8125,885.9063 202.5,886.9844 Q203.1875,888.0469 204.5313,888.0469 Q205.1563,888.0469 205.75,887.7813 Q206.3438,887.5 206.9688,886.9219 L206.9688,889.6406 Z " fill="#000000"/><text fill="#000000" font-family="sans-serif" font-size="14" lengthAdjust="spacing" textLength="70" x="218" y="888.8467">MatchDao</text><line style="stroke:#181818;stroke-width:0.5;" x1="190" x2="290" y1="900" y2="900"/><line style="stroke:#181818;stroke-width:0.5;" x1="190" x2="290" y1="908" y2="908"/></g><!--reverse link GameController to SeaBattleService--><g id="link_GameController_SeaBattleService"><path codeLine="540" d="M405,316.13 C405,343.47 405,376.68 405,403.97 " fill="none" id="GameController-backto-SeaBattleService" style="stroke:#181818;stroke-width:1.0;"/><polygon fill="#181818" points="405,304.13,401,310.13,405,316.13,409,310.13,405,304.13" style="stroke:#181818;stroke-width:1.0;"/><text fill="#000000" font-family="sans-serif" font-size="13" lengthAdjust="spacing" textLength="108" x="406" y="349.0669">seaBattleService</text></g><!--reverse link SeaBattleService to MatchService--><g id="link_SeaBattleService_MatchService"><path codeLine="541" d="M351.2089,459.2778 C340.4589,467.1978 340,470.04 334,482 C326.81,496.34 327.03,514.5 328.94,528.73 " fill="none" id="SeaBattleService-backto-MatchService" style="stroke:#181818;stroke-width:1.0;"/><polygon fill="#181818" points="360.87,452.16,353.6668,452.4985,351.2089,459.2778,358.412,458.9393,360.87,452.16" style="stroke:#181818;stroke-width:1.0;"/><text fill="#000000" font-family="sans-serif" font-size="13" lengthAdjust="spacing" textLength="88" x="335" y="495.0669">matchService</text></g><!--reverse link SeaBattleService to GameService--><g id="link_SeaBattleService_GameService"><path codeLine="542" d="M428.5345,461.8979 C444.2745,483.8879 460.81,507.01 476.52,528.97 " fill="none" id="SeaBattleService-backto-GameService" style="stroke:#181818;stroke-width:1.0;"/><polygon fill="#181818" points="421.55,452.14,421.7896,459.3471,428.5345,461.8979,428.2949,454.6908,421.55,452.14" style="stroke:#181818;stroke-width:1.0;"/><text fill="#000000" font-family="sans-serif" font-size="13" lengthAdjust="spacing" textLength="84" x="455" y="495.0669">gameService</text></g><!--reverse link GameService to WarshipDescription--><g id="link_GameService_WarshipDescription"><path codeLine="546" d="M470.5421,586.9237 C458.4921,603.2437 447.34,614.48 426,626 C407.35,636.07 392.67,617.81 379,634 C318.32,705.88 409.06,819.32 454.11,867.79 " fill="none" id="GameService-backto-WarshipDescription" style="stroke:#181818;stroke-width:1.0;"/><polygon fill="#181818" points="477.67,577.27,470.8882,579.7209,470.5421,586.9237,477.324,584.4728,477.67,577.27" style="stroke:#181818;stroke-width:1.0;"/><text fill="#000000" font-family="sans-serif" font-size="13" lengthAdjust="spacing" textLength="172" x="380" y="705.5669">warshipDescriptionsForMini</text></g><!--reverse link GameService to WarshipDescription--><g id="link_GameService_WarshipDescription"><path codeLine="547" d="M566.5502,558.2556 C664.0802,565.1456 834.92,583.74 872,634 C902.35,675.13 905.93,710.77 872,749 C840.95,783.98 709.54,769.34 663,774 C641.04,776.2 583.49,771.63 564,782 C528.09,801.1 501.84,842.08 488.04,867.99 " fill="none" id="GameService-backto-WarshipDescription-1" style="stroke:#181818;stroke-width:1.0;"/><polygon fill="#181818" points="554.58,557.41,560.2832,561.8229,566.5502,558.2556,560.847,553.8428,554.58,557.41" style="stroke:#181818;stroke-width:1.0;"/><text fill="#000000" font-family="sans-serif" font-size="13" lengthAdjust="spacing" textLength="195" x="897" y="705.5669">warshipDescriptionsForRegular</text></g><!--reverse link GameService to GameMapper--><g id="link_GameService_GameMapper"><path codeLine="548" d="M566.2479,573.6811 C611.7579,587.1311 662.72,605.26 713,634 C733.63,645.79 754.26,662.97 769.4,676.85 " fill="none" id="GameService-backto-GameMapper" style="stroke:#181818;stroke-width:1.0;"/><polygon fill="#181818" points="554.74,570.28,559.3603,575.8165,566.2479,573.6811,561.6277,568.1445,554.74,570.28" style="stroke:#181818;stroke-width:1.0;"/><text fill="#000000" font-family="sans-serif" font-size="13" lengthAdjust="spacing" textLength="85" x="697" y="622.0669">gameMapper</text></g><!--reverse link MatchService to MatchRepository--><g id="link_MatchService_MatchRepository"><path codeLine="550" d="M260.1464,561.8802 C227.3664,568.3402 201.54,579.79 181,609 C166.4,629.77 180.92,657.44 195.46,676.8 " fill="none" id="MatchService-backto-MatchRepository" style="stroke:#181818;stroke-width:1.0;"/><polygon fill="#181818" points="271.92,559.56,265.2598,556.7956,260.1464,561.8802,266.8066,564.6446,271.92,559.56" style="stroke:#181818;stroke-width:1.0;"/><text fill="#000000" font-family="sans-serif" font-size="13" lengthAdjust="spacing" textLength="108" x="182" y="622.0669">matchRepository</text></g><!--reverse link MatchService to MatchMapper--><g id="link_MatchService_MatchMapper"><path codeLine="551" d="M378.994,583.4962 C392.664,591.8662 398.53,594.56 414,601 C454.31,617.77 466.67,615.3 509,626 C523.63,629.7 528.32,627.64 542,634 C565.54,644.95 589.1,662.52 606.2,676.78 " fill="none" id="MatchService-backto-MatchMapper" style="stroke:#181818;stroke-width:1.0;"/><polygon fill="#181818" points="368.76,577.23,371.7883,583.7744,378.994,583.4962,375.9657,576.9518,368.76,577.23" style="stroke:#181818;stroke-width:1.0;"/><text fill="#000000" font-family="sans-serif" font-size="13" lengthAdjust="spacing" textLength="89" x="510" y="622.0669">matchMapper</text></g><!--link MatchMapper to MatchDao--><g id="link_MatchMapper_MatchDao"><path codeLine="552" d="M593.66,725.08 C578.07,733.64 559.62,742.77 542,749 C471.9,773.79 445.47,750.77 378,782 C332.01,803.29 287.64,842.8 262.12,867.95 " fill="none" id="MatchMapper-MatchDao" style="stroke:#181818;stroke-width:1.0;"/><text fill="#000000" font-family="sans-serif" font-size="13" lengthAdjust="spacing" textLength="21" x="512" y="770.0669">link</text></g><!--link MatchMapper to Match--><g id="link_MatchMapper_Match"><path codeLine="553" d="M632,725.18 C632,761.55 632,831.62 632,867.93 " fill="none" id="MatchMapper-Match" style="stroke:#181818;stroke-width:1.0;"/><text fill="#000000" font-family="sans-serif" font-size="13" lengthAdjust="spacing" textLength="21" x="633" y="770.0669">link</text></g><!--link MatchRepository to MatchDao--><g id="link_MatchRepository_MatchDao"><path codeLine="554" d="M218.94,725.18 C223.56,761.55 232.46,831.62 237.07,867.93 " fill="none" id="MatchRepository-MatchDao" style="stroke:#181818;stroke-width:1.0;"/><text fill="#000000" font-family="sans-serif" font-size="13" lengthAdjust="spacing" textLength="21" x="225" y="770.0669">link</text></g><!--SRC=[pPE_JWCn3CRtF4LcfEO1Ea85qotjmEnBJMkHIo8d1Q6gxyvTKbqAIBaM7HBZzydsB_uJiX7v1JHAFYZTiWhK8XDO5H1K2p4QL8pU1OgEFrG3KU_NevP7SHAYaggTZUoCGLPFqE73AENTOY5hq83yHXhL1k4-EPjioAKCtopncpBNybF7XTrTo3_b3kCgs5rHGWXnO_uKitDRD6fWg6VWi2U_mg2PV2HdU_hx3pCyEcx8qlzuoHft1mCyzsD0cnJVWFVznUOjP77L2hwSpXIiyidELrUSsU53fobXRBKhIjoGs7CgqLjmENe5RYaDsTVvQkVBIV7JfIl3dfZKPGlo3Fe4]--></g></svg>