<?xml version="1.0" encoding="us-ascii" standalone="no"?><svg xmlns="http://www.w3.org/2000/svg" xmlns:xlink="http://www.w3.org/1999/xlink" contentStyleType="text/css" height="567px" preserveAspectRatio="none" style="width:960px;height:567px;background:#FFFFFF;" version="1.1" viewBox="0 0 960 567" width="960px" zoomAndPan="magnify"><defs/><g><!--entity controller--><g id="elem_controller"><rect fill="#FFFFFF" height="62.9766" rx="2.5" ry="2.5" style="stroke:#808080;stroke-width:0.5;" width="380" x="7" y="7"/><rect fill="#FFFFFF" height="10" style="stroke:#808080;stroke-width:0.5;" width="15" x="367" y="12"/><rect fill="#FFFFFF" height="2" style="stroke:#808080;stroke-width:0.5;" width="4" x="365" y="14"/><rect fill="#FFFFFF" height="2" style="stroke:#808080;stroke-width:0.5;" width="4" x="365" y="18"/><text fill="#000000" font-family="sans-serif" font-size="14" font-style="italic" lengthAdjust="spacing" textLength="340" x="22" y="40.5352">&#171;..ru.onixred.siberian.sea.battle.layer.controller..&#187;</text><text fill="#000000" font-family="sans-serif" font-size="14" lengthAdjust="spacing" textLength="67" x="158.5" y="57.0234">controller</text></g><!--entity dao--><g id="elem_dao"><rect fill="#FFFFFF" height="62.9766" rx="2.5" ry="2.5" style="stroke:#808080;stroke-width:0.5;" width="339" x="323.5" y="375.93"/><rect fill="#FFFFFF" height="10" style="stroke:#808080;stroke-width:0.5;" width="15" x="642.5" y="380.93"/><rect fill="#FFFFFF" height="2" style="stroke:#808080;stroke-width:0.5;" width="4" x="640.5" y="382.93"/><rect fill="#FFFFFF" height="2" style="stroke:#808080;stroke-width:0.5;" width="4" x="640.5" y="386.93"/><text fill="#000000" font-family="sans-serif" font-size="14" font-style="italic" lengthAdjust="spacing" textLength="299" x="338.5" y="409.4652">&#171;..ru.onixred.siberian.sea.battle.layer.dao..&#187;</text><text fill="#000000" font-family="sans-serif" font-size="14" lengthAdjust="spacing" textLength="26" x="475" y="425.9534">dao</text></g><!--entity model--><g id="elem_model"><rect fill="#FFFFFF" height="62.9766" rx="2.5" ry="2.5" style="stroke:#808080;stroke-width:0.5;" width="356" x="93" y="498.9"/><rect fill="#FFFFFF" height="10" style="stroke:#808080;stroke-width:0.5;" width="15" x="429" y="503.9"/><rect fill="#FFFFFF" height="2" style="stroke:#808080;stroke-width:0.5;" width="4" x="427" y="505.9"/><rect fill="#FFFFFF" height="2" style="stroke:#808080;stroke-width:0.5;" width="4" x="427" y="509.9"/><text fill="#000000" font-family="sans-serif" font-size="14" font-style="italic" lengthAdjust="spacing" textLength="316" x="108" y="532.4352">&#171;..ru.onixred.siberian.sea.battle.layer.model..&#187;</text><text fill="#000000" font-family="sans-serif" font-size="14" lengthAdjust="spacing" textLength="43" x="244.5" y="548.9234">model</text></g><!--entity service--><g id="elem_service"><rect fill="#FFFFFF" height="62.9766" rx="2.5" ry="2.5" style="stroke:#808080;stroke-width:0.5;" width="360" x="162" y="129.97"/><rect fill="#FFFFFF" height="10" style="stroke:#808080;stroke-width:0.5;" width="15" x="502" y="134.97"/><rect fill="#FFFFFF" height="2" style="stroke:#808080;stroke-width:0.5;" width="4" x="500" y="136.97"/><rect fill="#FFFFFF" height="2" style="stroke:#808080;stroke-width:0.5;" width="4" x="500" y="140.97"/><text fill="#000000" font-family="sans-serif" font-size="14" font-style="italic" lengthAdjust="spacing" textLength="320" x="177" y="163.5052">&#171;..ru.onixred.siberian.sea.battle.layer.service..&#187;</text><text fill="#000000" font-family="sans-serif" font-size="14" lengthAdjust="spacing" textLength="47" x="313.5" y="179.9934">service</text></g><!--entity acl--><g id="elem_acl"><rect fill="#FFFFFF" height="62.9766" rx="2.5" ry="2.5" style="stroke:#808080;stroke-width:0.5;" width="332" x="205" y="252.95"/><rect fill="#FFFFFF" height="10" style="stroke:#808080;stroke-width:0.5;" width="15" x="517" y="257.95"/><rect fill="#FFFFFF" height="2" style="stroke:#808080;stroke-width:0.5;" width="4" x="515" y="259.95"/><rect fill="#FFFFFF" height="2" style="stroke:#808080;stroke-width:0.5;" width="4" x="515" y="263.95"/><text fill="#000000" font-family="sans-serif" font-size="14" font-style="italic" lengthAdjust="spacing" textLength="292" x="220" y="286.4852">&#171;..ru.onixred.siberian.sea.battle.layer.acl..&#187;</text><text fill="#000000" font-family="sans-serif" font-size="14" lengthAdjust="spacing" textLength="19" x="356.5" y="302.9734">acl</text></g><!--entity repository--><g id="elem_repository"><rect fill="#FFFFFF" height="62.9766" rx="2.5" ry="2.5" style="stroke:#808080;stroke-width:0.5;" width="383" x="571.5" y="252.95"/><rect fill="#FFFFFF" height="10" style="stroke:#808080;stroke-width:0.5;" width="15" x="934.5" y="257.95"/><rect fill="#FFFFFF" height="2" style="stroke:#808080;stroke-width:0.5;" width="4" x="932.5" y="259.95"/><rect fill="#FFFFFF" height="2" style="stroke:#808080;stroke-width:0.5;" width="4" x="932.5" y="263.95"/><text fill="#000000" font-family="sans-serif" font-size="14" font-style="italic" lengthAdjust="spacing" textLength="343" x="586.5" y="286.4852">&#171;..ru.onixred.siberian.sea.battle.layer.repository..&#187;</text><text fill="#000000" font-family="sans-serif" font-size="14" lengthAdjust="spacing" textLength="70" x="723" y="302.9734">repository</text></g><!--link controller to model--><g id="link_controller_model"><path d="M173.42,70.29 C162.13,86.98 149.82,108.54 144,129.97 C121.82,211.74 130.12,352.67 174,438.9 C185.96,462.4 201.9707,479.2096 221.1607,494.7796 " fill="none" id="controller-to-model" style="stroke:#181818;stroke-width:1.0;"/><polygon fill="#181818" points="225.82,498.56,221.3513,489.7833,221.9373,495.4097,216.3108,495.9957,225.82,498.56" style="stroke:#181818;stroke-width:1.0;"/></g><!--link controller to service--><g id="link_controller_service"><path d="M233.96,70.33 C255.78,88.53 278.6931,107.646 300.4931,125.836 " fill="none" id="controller-to-service" style="stroke:#181818;stroke-width:1.0;"/><polygon fill="#181818" points="305.1,129.68,300.7523,120.8427,301.2609,126.4767,295.627,126.9852,305.1,129.68" style="stroke:#181818;stroke-width:1.0;"/></g><!--link service to model--><g id="link_service_model"><path d="M255.27,193.39 C228.93,207.33 203.02,226.71 188,252.95 C141.21,334.72 204.3628,440.6235 243.1028,493.7035 " fill="none" id="service-to-model" style="stroke:#181818;stroke-width:1.0;"/><polygon fill="#181818" points="246.64,498.55,244.5652,488.9222,243.6924,494.5113,238.1033,493.6384,246.64,498.55" style="stroke:#181818;stroke-width:1.0;"/></g><!--link service to acl--><g id="link_service_acl"><path d="M349.39,193.3 C353.76,211.5 357.8615,228.6253 362.2215,246.8153 " fill="none" id="service-to-acl" style="stroke:#181818;stroke-width:1.0;"/><polygon fill="#181818" points="363.62,252.65,365.412,242.9655,362.4546,247.7877,357.6324,244.8303,363.62,252.65" style="stroke:#181818;stroke-width:1.0;"/></g><!--link service to repository--><g id="link_service_repository"><path d="M449.6,193.38 C512.7,211.51 586.3832,232.6936 649.5032,250.8236 " fill="none" id="service-to-repository" style="stroke:#181818;stroke-width:1.0;"/><polygon fill="#181818" points="655.27,252.48,647.724,246.1508,650.4643,251.0997,645.5155,253.8399,655.27,252.48" style="stroke:#181818;stroke-width:1.0;"/></g><!--link dao to model--><g id="link_dao_model"><path d="M436.41,439.26 C403.01,457.46 366.1385,477.549 332.7585,495.739 " fill="none" id="dao-to-model" style="stroke:#181818;stroke-width:1.0;"/><polygon fill="#181818" points="327.49,498.61,337.3068,497.8158,331.8804,496.2175,333.4788,490.7911,327.49,498.61" style="stroke:#181818;stroke-width:1.0;"/></g><!--link repository to dao--><g id="link_repository_dao"><path d="M694.17,316.28 C653.55,334.48 607.7856,354.9868 567.1856,373.1768 " fill="none" id="repository-to-dao" style="stroke:#181818;stroke-width:1.0;"/><polygon fill="#181818" points="561.71,375.63,571.5588,375.6006,566.273,373.5857,568.2879,368.2998,561.71,375.63" style="stroke:#181818;stroke-width:1.0;"/></g><!--link repository to model--><g id="link_repository_model"><path d="M754.82,316.19 C743.81,351.4 720.74,408.16 680,438.9 C643.06,466.77 547.7064,488.2918 455.1864,503.9018 " fill="none" id="repository-to-model" style="stroke:#181818;stroke-width:1.0;"/><polygon fill="#181818" points="449.27,504.9,458.81,507.3469,454.2003,504.0682,457.4791,499.4584,449.27,504.9" style="stroke:#181818;stroke-width:1.0;"/></g><!--link acl to model--><g id="link_acl_model"><path d="M344.19,316.18 C330.92,332.85 315.7,354.41 306,375.93 C287.86,416.16 279.4851,460.7643 275.1751,492.5943 " fill="none" id="acl-to-model" style="stroke:#181818;stroke-width:1.0;"/><polygon fill="#181818" points="274.37,498.54,279.5415,490.1581,275.0409,493.5852,271.6138,489.0847,274.37,498.54" style="stroke:#181818;stroke-width:1.0;"/></g><!--link acl to dao--><g id="link_acl_dao"><path d="M402.1,316.28 C420.46,334.48 439.3488,353.216 457.6988,371.406 " fill="none" id="acl-to-dao" style="stroke:#181818;stroke-width:1.0;"/><polygon fill="#181818" points="461.96,375.63,458.3842,366.4532,458.409,372.11,452.7522,372.1348,461.96,375.63" style="stroke:#181818;stroke-width:1.0;"/></g><!--SRC=[bP6nRiCm34HtVeM0pk7GEV2GVaB7e0CZ4QaGMJGekQrHzD-Ro6vjjLcq7kzHl5Ew-3YGKc-iz8D4ZlavJu7Ds8T7IF-dvXCEeexrIOAeUJWhJt0WUpchZD4jwlkhpmnV04ShCQk4mFfYzdj47L6Y_r1scFo9rLF4n8GdoZam1ffOSOKGkmwEZgI1lhfdh1V7eG4i_XbDh6_USWEy43DEjkNTgtl6b0T9FejE3VGAbILrvRjTPvOUxWn-Ki8cS4NKwYtLNsrpCYmVjTrGPogJc-UE_0kKxgehLgMmtm00]--></g></svg>